<svg width="224" height="189" viewBox="0 0 224 189" fill="none" xmlns="http://www.w3.org/2000/svg">
<g clip-path="url(#clip0_1_2156)">
<path d="M20.4691 60.5057V121.841C19.498 121.511 18.4669 121.341 17.3958 121.341C16.3146 121.341 15.2835 121.521 14.3125 121.841V57.1622L20.4691 60.5057Z" fill="black"/>
<path d="M14.3169 57.1421V57.1621L14.2969 57.1421H14.3169Z" fill="#2724F2"/>
<path d="M223.997 57.1491L119.143 114.237L14.3101 57.1602L14.2891 57.1491L14.3101 57.1391L119.143 0.0512238L223.997 57.1491Z" fill="#2724F2"/>
<path d="M19.1426 188.875C18.5649 188.934 17.9733 188.949 17.3967 188.949C16.8051 188.949 16.2275 188.934 15.6508 188.875C3.13248 187.75 -3.76388 173.603 2.14042 162.506L14.0081 140.206C15.0592 140.62 16.1984 140.827 17.3967 140.827C18.581 140.827 19.7202 140.62 20.7703 140.206L32.638 162.506C38.5423 173.603 31.6469 187.75 19.1426 188.875Z" fill="#2724F2"/>
<path d="M27.1368 131.076C27.1368 135.263 24.488 138.844 20.774 140.206C19.7239 140.62 18.5837 140.827 17.4005 140.827C16.2022 140.827 15.063 140.62 14.0118 140.206C10.2979 138.844 7.66406 135.263 7.66406 131.076C7.66406 125.704 12.0147 121.34 17.4005 121.34C22.7722 121.34 27.1368 125.705 27.1368 131.076Z" fill="#E45E47"/>
<path d="M188.333 76.5689V124.106L119.148 161.784V114.247L188.32 76.5689H188.333Z" fill="#F1E6D7"/>
<path d="M119.144 114.249V161.783L49.9453 124.104V76.5709H49.9633L119.144 114.249Z" fill="#F5C845"/>
<path d="M188.337 76.5709V124.104L119.148 161.783V114.249L188.32 76.5709H188.337Z" fill="black"/>
<path d="M223.994 57.1471L119.142 114.241L16.9018 58.5657L14.3061 57.1551L14.2891 57.1471L14.3061 57.1381L16.9018 55.7276L119.142 0.0532227L223.994 57.1471Z" fill="#2724F2"/>
<path d="M223.994 57.1471L119.142 114.241L16.9018 58.5657L14.3061 57.1551L14.2891 57.1471L14.3061 57.1381L16.9018 55.7276L119.142 0.0532227L223.994 57.1471Z" fill="#2724F2"/>
</g>
<defs>
<clipPath id="clip0_1_2156">
<rect width="224" height="189" fill="white"/>
</clipPath>
</defs>
</svg>
