<svg width="395" height="521" viewBox="0 0 395 521" fill="none" xmlns="http://www.w3.org/2000/svg">
<g clip-path="url(#clip0_1_1515)">
<path d="M395.002 173.444C381.521 173.444 370.599 184.365 370.599 197.857V294.679C370.599 308.17 359.678 319.091 346.186 319.091V319.081C332.705 319.081 321.773 308.16 321.773 294.679V173.444H395.002Z" fill="#F5C845"/>
<path d="M281.197 150.614V481.218C281.197 503.076 263.476 520.795 241.619 520.795H58.398C36.5394 520.795 18.8203 503.075 18.8203 481.218V150.614C18.8203 138.186 22.2187 125.994 28.6485 115.359C37.6316 100.499 53.7315 91.4194 71.0955 91.4194H228.92C246.284 91.4194 262.384 100.499 271.367 115.359C277.798 125.994 281.197 138.187 281.197 150.614V150.614Z" fill="#E45E47"/>
<path d="M227.62 319.082H72.4002C64.1152 319.082 57.3984 312.366 57.3984 304.081V188.44C57.3984 180.155 64.1152 173.438 72.4002 173.438H227.62C235.905 173.438 242.621 180.155 242.621 188.44V304.081C242.621 312.367 235.905 319.082 227.62 319.082Z" fill="#F5C845"/>
<path d="M102.116 221.365C130.319 200.191 169.704 200.191 197.908 221.365C201.111 223.774 201.748 228.338 199.353 231.512C196.943 234.729 192.401 235.368 189.191 232.957C166.126 215.653 133.898 215.653 110.832 232.957C107.622 235.367 103.08 234.728 100.671 231.512C98.2617 228.3 98.9227 223.748 102.116 221.365Z" fill="white"/>
<path d="M116.143 247.371C135.445 230.081 164.57 230.081 183.873 247.371C186.863 250.049 187.097 254.641 184.44 257.618C181.769 260.595 177.176 260.85 174.193 258.171C160.403 245.827 139.613 245.827 125.822 258.171C122.839 260.85 118.247 260.595 115.575 257.618C112.914 254.637 113.145 250.05 116.143 247.371V247.371Z" fill="white"/>
<path d="M138.219 275.247C138.219 268.746 143.507 263.458 150.008 263.458C156.509 263.458 161.798 268.746 161.798 275.247C161.798 281.748 156.509 287.037 150.008 287.037C143.507 287.037 138.219 281.748 138.219 275.247Z" fill="white"/>
<path d="M67.6827 339.652H99.8855C105.565 339.652 110.17 344.256 110.17 349.936C110.17 355.616 105.565 360.22 99.8855 360.22H67.6827C62.003 360.22 57.3984 355.616 57.3984 349.936C57.3984 344.255 62.003 339.652 67.6827 339.652Z" fill="white"/>
<path d="M133.909 339.652H166.111C171.791 339.652 176.395 344.256 176.395 349.936C176.395 355.616 171.791 360.22 166.111 360.22H133.909C128.23 360.22 123.625 355.616 123.625 349.936C123.625 344.255 128.23 339.652 133.909 339.652Z" fill="white"/>
<path d="M200.136 339.652H232.338C238.017 339.652 242.622 344.256 242.622 349.936C242.622 355.616 238.017 360.22 232.338 360.22H200.136C194.456 360.22 189.852 355.616 189.852 349.936C189.852 344.255 194.456 339.652 200.136 339.652Z" fill="white"/>
<path d="M67.6827 380.789H99.8855C105.565 380.789 110.17 385.393 110.17 391.073C110.17 396.753 105.565 401.357 99.8855 401.357H67.6827C62.003 401.357 57.3984 396.753 57.3984 391.073C57.3984 385.393 62.003 380.789 67.6827 380.789Z" fill="white"/>
<path d="M133.909 380.789H166.111C171.791 380.789 176.395 385.393 176.395 391.073C176.395 396.753 171.791 401.357 166.111 401.357H133.909C128.23 401.357 123.625 396.753 123.625 391.073C123.625 385.393 128.23 380.789 133.909 380.789Z" fill="white"/>
<path d="M200.136 380.789H232.338C238.017 380.789 242.622 385.393 242.622 391.073C242.622 396.753 238.017 401.357 232.338 401.357H200.136C194.456 401.357 189.852 396.753 189.852 391.073C189.852 385.393 194.456 380.789 200.136 380.789Z" fill="white"/>
<path d="M67.6827 421.926H99.8855C105.565 421.926 110.17 426.53 110.17 432.21C110.17 437.89 105.565 442.494 99.8855 442.494H67.6827C62.003 442.494 57.3984 437.89 57.3984 432.21C57.3984 426.53 62.003 421.926 67.6827 421.926Z" fill="white"/>
<path d="M133.909 421.926H166.111C171.791 421.926 176.395 426.53 176.395 432.21C176.395 437.89 171.791 442.494 166.111 442.494H133.909C128.23 442.494 123.625 437.89 123.625 432.21C123.625 426.53 128.23 421.926 133.909 421.926Z" fill="white"/>
<path d="M200.136 421.926H232.338C238.017 421.926 242.622 426.53 242.622 432.21C242.622 437.89 238.017 442.494 232.338 442.494H200.136C194.456 442.494 189.852 437.89 189.852 432.21C189.852 426.53 194.456 421.926 200.136 421.926Z" fill="white"/>
<path d="M67.6827 463.064H99.8855C105.565 463.064 110.17 467.668 110.17 473.348C110.17 479.028 105.565 483.632 99.8855 483.632H67.6827C62.003 483.632 57.3984 479.028 57.3984 473.348C57.3984 467.668 62.003 463.064 67.6827 463.064Z" fill="black"/>
<path d="M232.33 463.064H200.128C194.448 463.064 189.844 467.668 189.844 473.348C189.844 479.028 194.448 483.632 200.128 483.632H232.33C238.009 483.632 242.614 479.028 242.614 473.348C242.614 467.668 238.009 463.064 232.33 463.064Z" fill="black"/>
<path d="M166.111 463.064H133.909C128.23 463.064 123.625 467.668 123.625 473.348C123.625 479.028 128.23 483.632 133.909 483.632H166.111C171.791 483.632 176.395 479.028 176.395 473.348C176.395 467.668 171.791 463.064 166.111 463.064Z" fill="white"/>
<path d="M282.194 0.204529C260.334 0.204529 242.617 17.9226 242.617 39.7822V142.843C242.617 145.68 241.469 148.252 239.608 150.112C237.748 151.973 235.163 153.121 232.326 153.121H67.6809C61.9952 153.121 57.3906 148.516 57.3906 142.843V39.7822C57.3906 17.9216 75.1087 0.204529 96.9683 0.204529H282.194V0.204529Z" fill="#F5C845"/>
<path d="M346.187 319.081H281.2V150.611C281.2 144.401 280.339 138.24 278.689 132.319C277.039 126.389 274.589 120.678 271.368 115.367C264.808 104.516 254.486 96.745 242.625 93.3546V39.7782C242.625 17.9256 260.337 0.203522 282.2 0.203522C304.062 0.203522 321.774 17.9256 321.774 39.7782V294.679C321.774 308.16 332.706 319.081 346.187 319.081Z" fill="black"/>
<path d="M207.218 50.2775H92.7922C89.8779 50.2775 87.5156 47.9152 87.5156 45.0009C87.5156 42.0865 89.8779 39.7242 92.7922 39.7242H207.218C210.132 39.7242 212.494 42.0865 212.494 45.0009C212.495 47.9152 210.132 50.2775 207.218 50.2775Z" fill="black"/>
<path d="M207.218 74.7194H92.7922C89.8779 74.7194 87.5156 72.3571 87.5156 69.4428C87.5156 66.5284 89.8779 64.1661 92.7922 64.1661H207.218C210.132 64.1661 212.494 66.5284 212.494 69.4428C212.495 72.3571 210.132 74.7194 207.218 74.7194Z" fill="black"/>
<path d="M207.218 99.1613H92.7922C89.8779 99.1613 87.5156 96.799 87.5156 93.8847C87.5156 90.9703 89.8779 88.608 92.7922 88.608H207.218C210.132 88.608 212.494 90.9703 212.494 93.8847C212.495 96.799 210.132 99.1613 207.218 99.1613Z" fill="black"/>
<path d="M207.218 123.603H92.7922C89.8779 123.603 87.5156 121.241 87.5156 118.327C87.5156 115.412 89.8779 113.05 92.7922 113.05H207.218C210.132 113.05 212.494 115.412 212.494 118.327C212.495 121.241 210.132 123.603 207.218 123.603Z" fill="black"/>
<path d="M285.748 260.026H281.195V173.438H285.748C293.627 173.438 300.014 179.825 300.014 187.704V245.76C300.014 253.639 293.627 260.026 285.748 260.026Z" fill="#2724F2"/>
<path d="M14.2657 260.026H18.8182V173.438H14.2657C6.38676 173.438 0 179.825 0 187.704V245.76C0 253.639 6.38676 260.026 14.2657 260.026Z" fill="#2724F2"/>
<path d="M285.748 483.632H281.195V423.43H285.748C293.627 423.43 300.014 429.817 300.014 437.696V469.366C300.014 477.245 293.627 483.632 285.748 483.632Z" fill="black"/>
<path d="M14.2657 483.632H18.8182V423.43H14.2657C6.38676 423.43 0 429.817 0 437.696V469.366C0 477.245 6.38676 483.632 14.2657 483.632Z" fill="black"/>
</g>
<defs>
<clipPath id="clip0_1_1515">
<rect width="395" height="521" fill="white"/>
</clipPath>
</defs>
</svg>
