<svg width="3000" height="3000" viewBox="0 0 3000 3000" fill="none" xmlns="http://www.w3.org/2000/svg">
<g clip-path="url(#clip0_1_987)">
<path d="M1830.65 2550.52H1451.07L1517.19 2460.72H1764.53L1830.65 2550.52Z" fill="#E45E47"/>
<path d="M2056.13 2661.11H1225.59C1225.59 2600.05 1275 2550.53 1335.98 2550.53H1945.74C2006.72 2550.53 2056.13 2600.05 2056.13 2661.11ZM783.089 2460.7C692.86 2460.7 619.445 2387.19 619.445 2296.84V1277.75C619.445 1187.4 692.86 1113.89 783.089 1113.89H2497.38C2587.61 1113.89 2661.02 1187.4 2661.02 1277.75L2661.11 1366.93V2296.83C2661.11 2387.19 2587.69 2460.69 2497.46 2460.69H783.089V2460.7Z" fill="black"/>
<path d="M2575.38 1366.91L2575.34 2298.15C2574.66 2340.65 2540.02 2374.89 2497.42 2374.89H783.055C740.003 2374.89 705.137 2339.94 705.137 2296.83V1366.91H2575.38Z" fill="#2724F2"/>
<path d="M2575.35 1277.73V1366.92H705.133V1277.73C705.133 1234.63 740.02 1199.7 783.058 1199.7H2497.42C2540.46 1199.7 2575.35 1234.63 2575.35 1277.73Z" fill="#E45E47"/>
<path d="M826.197 1305.21C838.273 1305.21 848.063 1295.4 848.063 1283.31C848.063 1271.22 838.273 1261.42 826.197 1261.42C814.121 1261.42 804.332 1271.22 804.332 1283.31C804.332 1295.4 814.121 1305.21 826.197 1305.21Z" fill="white"/>
<path d="M935.443 1305.21C947.519 1305.21 957.309 1295.4 957.309 1283.31C957.309 1271.22 947.519 1261.42 935.443 1261.42C923.368 1261.42 913.578 1271.22 913.578 1283.31C913.578 1295.4 923.368 1305.21 935.443 1305.21Z" fill="white"/>
<path d="M1044.69 1305.21C1056.76 1305.21 1066.55 1295.4 1066.55 1283.31C1066.55 1271.22 1056.76 1261.42 1044.69 1261.42C1032.61 1261.42 1022.82 1271.22 1022.82 1283.31C1022.82 1295.4 1032.61 1305.21 1044.69 1305.21Z" fill="white"/>
</g>
<g clip-path="url(#clip1_1_987)">
<path d="M2877.87 1335.21C2878.73 1336.08 2879.21 1337.25 2879.21 1338.47C2879.21 1339.7 2878.73 1340.87 2877.87 1341.73L2869.03 1350.64C2868.17 1351.5 2867 1351.99 2865.79 1351.99C2864.57 1351.99 2863.41 1351.5 2862.55 1350.64L2842.84 1330.79L2832.51 1351.07C2832.23 1351.61 2831.81 1352.06 2831.29 1352.36C2830.77 1352.66 2830.17 1352.8 2829.57 1352.77C2828.97 1352.74 2828.39 1352.53 2827.91 1352.17C2827.42 1351.82 2827.05 1351.33 2826.83 1350.76L2797.43 1273.71C2797.22 1273.15 2797.17 1272.54 2797.29 1271.95C2797.41 1271.36 2797.7 1270.82 2798.12 1270.39C2798.54 1269.96 2799.07 1269.66 2799.65 1269.53C2800.23 1269.39 2800.84 1269.43 2801.4 1269.64L2878.5 1297.68C2879.06 1297.88 2879.55 1298.25 2879.91 1298.72C2880.27 1299.2 2880.49 1299.76 2880.54 1300.36C2880.59 1300.96 2880.47 1301.56 2880.2 1302.09C2879.92 1302.62 2879.5 1303.06 2878.98 1303.35L2858.11 1315.33L2877.87 1335.21Z" fill="black"/>
</g>
<g clip-path="url(#clip2_1_987)">
<path d="M2321.11 1485.86H1252.96C1224.07 1485.86 1200.65 1462.43 1200.65 1433.52V902.63C1200.65 873.723 1224.07 850.288 1252.96 850.288H2321.11C2350 850.288 2373.42 873.723 2373.42 902.63V1433.52C2373.42 1462.43 2350 1485.86 2321.11 1485.86V1485.86Z" fill="#F5C845"/>
<path d="M1305.68 1360.46C1304.75 1360.46 1303.83 1360.2 1303.02 1359.73C1302.22 1359.25 1301.55 1358.56 1301.1 1357.74C1300.65 1356.92 1300.43 1355.99 1300.46 1355.05C1300.49 1354.11 1300.78 1353.2 1301.28 1352.41L1427.19 1154.59C1427.57 1153.98 1428.09 1153.45 1428.69 1153.05C1429.29 1152.65 1429.97 1152.37 1430.69 1152.25C1431.4 1152.12 1432.14 1152.15 1432.84 1152.32C1433.54 1152.49 1434.21 1152.81 1434.78 1153.25L1551.05 1242.46L1672.11 978.743C1672.52 977.848 1673.17 977.087 1673.99 976.547C1674.82 976.008 1675.78 975.712 1676.76 975.693C1677.75 975.671 1678.72 975.928 1679.56 976.437C1680.4 976.945 1681.09 977.684 1681.53 978.565L1780.74 1174.79L1923.17 1051.42C1923.79 1050.87 1924.54 1050.49 1925.34 1050.29C1926.15 1050.09 1926.99 1050.09 1927.8 1050.28C1928.6 1050.47 1929.35 1050.85 1929.98 1051.39C1930.61 1051.92 1931.11 1052.6 1931.42 1053.37L2029.42 1290.53L2132.07 1035.39C2132.39 1034.59 2132.91 1033.88 2133.58 1033.32C2134.24 1032.77 2135.03 1032.39 2135.88 1032.22C2136.72 1032.04 2137.6 1032.08 2138.43 1032.33C2139.25 1032.58 2140.01 1033.03 2140.62 1033.64L2275.15 1168.04C2276.11 1169.02 2276.64 1170.35 2276.63 1171.72C2276.62 1173.09 2276.07 1174.4 2275.1 1175.38C2274.13 1176.35 2272.82 1176.9 2271.45 1176.91C2270.07 1176.92 2268.75 1176.4 2267.77 1175.45L2138.82 1046.63L2034.34 1306.34C2033.95 1307.3 2033.28 1308.13 2032.42 1308.71C2031.57 1309.3 2030.55 1309.61 2029.51 1309.62C2028.47 1309.63 2027.45 1309.33 2026.58 1308.75C2025.72 1308.18 2025.04 1307.35 2024.66 1306.38L1924.53 1064.08L1782.53 1187.09C1781.93 1187.61 1781.22 1187.98 1780.45 1188.19C1779.68 1188.39 1778.87 1188.42 1778.09 1188.26C1777.31 1188.11 1776.58 1187.78 1775.95 1187.3C1775.31 1186.82 1774.79 1186.2 1774.43 1185.5L1677.09 992.97L1557.83 1252.79C1557.5 1253.5 1557.02 1254.14 1556.41 1254.64C1555.81 1255.14 1555.1 1255.5 1554.33 1255.69C1553.57 1255.88 1552.77 1255.89 1552.01 1255.73C1551.24 1255.57 1550.51 1255.24 1549.89 1254.76L1432.95 1165.03L1310.1 1358.04C1309.63 1358.78 1308.98 1359.39 1308.2 1359.82C1307.43 1360.24 1306.57 1360.46 1305.68 1360.46V1360.46Z" fill="black"/>
<path d="M1306.41 1395.01C1328.36 1395.01 1346.16 1377.19 1346.16 1355.22C1346.16 1333.25 1328.36 1315.44 1306.41 1315.44C1284.45 1315.44 1266.65 1333.25 1266.65 1355.22C1266.65 1377.19 1284.45 1395.01 1306.41 1395.01Z" fill="black"/>
<path d="M1429.55 1198.55C1451.51 1198.55 1469.31 1180.74 1469.31 1158.77C1469.31 1136.8 1451.51 1118.99 1429.55 1118.99C1407.6 1118.99 1389.8 1136.8 1389.8 1158.77C1389.8 1180.74 1407.6 1198.55 1429.55 1198.55Z" fill="black"/>
<path d="M1554.08 1284.81C1576.04 1284.81 1593.84 1267 1593.84 1245.03C1593.84 1223.06 1576.04 1205.25 1554.08 1205.25C1532.13 1205.25 1514.33 1223.06 1514.33 1245.03C1514.33 1267 1532.13 1284.81 1554.08 1284.81Z" fill="black"/>
<path d="M1676.96 1020.7C1698.92 1020.7 1716.72 1002.89 1716.72 980.924C1716.72 958.954 1698.92 941.144 1676.96 941.144C1655.01 941.144 1637.21 958.954 1637.21 980.924C1637.21 1002.89 1655.01 1020.7 1676.96 1020.7Z" fill="black"/>
<path d="M1779.09 1229.54C1801.05 1229.54 1818.85 1211.73 1818.85 1189.76C1818.85 1167.79 1801.05 1149.98 1779.09 1149.98C1757.14 1149.98 1739.34 1167.79 1739.34 1189.76C1739.34 1211.73 1757.14 1229.54 1779.09 1229.54Z" fill="black"/>
<path d="M1928.73 1100.26C1950.68 1100.26 1968.48 1082.45 1968.48 1060.48C1968.48 1038.51 1950.68 1020.7 1928.73 1020.7C1906.77 1020.7 1888.97 1038.51 1888.97 1060.48C1888.97 1082.45 1906.77 1100.26 1928.73 1100.26Z" fill="black"/>
<path d="M2027.72 1341.15C2049.68 1341.15 2067.47 1323.34 2067.47 1301.37C2067.47 1279.4 2049.68 1261.59 2027.72 1261.59C2005.77 1261.59 1987.97 1279.4 1987.97 1301.37C1987.97 1323.34 2005.77 1341.15 2027.72 1341.15Z" fill="black"/>
<path d="M2136.49 1081.64C2158.44 1081.64 2176.24 1063.83 2176.24 1041.86C2176.24 1019.89 2158.44 1002.08 2136.49 1002.08C2114.53 1002.08 2096.73 1019.89 2096.73 1041.86C2096.73 1063.83 2114.53 1081.64 2136.49 1081.64Z" fill="black"/>
<path d="M2271.46 1210.48C2293.41 1210.48 2311.21 1192.67 2311.21 1170.7C2311.21 1148.73 2293.41 1130.92 2271.46 1130.92C2249.5 1130.92 2231.7 1148.73 2231.7 1170.7C2231.7 1192.67 2249.5 1210.48 2271.46 1210.48Z" fill="black"/>
<path d="M746.725 2205.54H216.197C187.31 2205.54 163.891 2182.1 163.891 2153.2V1622.3C163.891 1593.4 187.31 1569.96 216.197 1569.96H746.725C775.612 1569.96 799.031 1593.4 799.031 1622.3V2153.2C799.031 2182.1 775.616 2205.54 746.725 2205.54Z" fill="#E45E47"/>
<path d="M562.431 1809.94L562.438 1809.95L646.822 1725.51L646.809 1725.49C557.239 1635.91 412.092 1635.91 322.574 1725.49L406.959 1809.93C449.885 1766.99 519.484 1766.99 562.431 1809.94V1809.94Z" fill="white"/>
<path d="M406.952 1809.94L406.959 1809.93L322.575 1725.49C233.036 1815.09 233.033 1960.38 322.561 2049.99L406.942 1965.55C364.012 1922.58 364.016 1852.91 406.952 1809.94Z" fill="#2724F2"/>
<path d="M562.444 1965.54C519.504 2008.51 449.891 2008.52 406.95 1965.56L406.943 1965.55L322.562 2049.99L322.576 2050C412.118 2139.6 557.293 2139.58 646.835 2049.97L562.451 1965.53L562.444 1965.54V1965.54Z" fill="#F5C845"/>
<path d="M562.438 1809.95L562.444 1809.95C605.381 1852.92 605.371 1922.58 562.451 1965.54L646.836 2049.98C736.353 1960.4 736.378 1815.13 646.836 1725.52L646.822 1725.51L562.438 1809.95Z" fill="black"/>
<path d="M562.416 1809.94L562.444 1809.97C605.367 1852.92 605.367 1922.56 562.444 1965.52C519.497 2008.49 449.87 2008.52 406.951 1965.57L406.923 1965.54C364 1922.59 364 1852.89 406.951 1809.91L406.979 1809.94C428.452 1788.45 456.548 1777.72 484.699 1777.72C512.851 1777.72 540.943 1788.45 562.416 1809.94Z" fill="#E45E47"/>
<path d="M1465.89 2205.54H935.365C906.478 2205.54 883.059 2182.1 883.059 2153.2V1622.3C883.059 1593.4 906.478 1569.96 935.365 1569.96H1465.89C1494.78 1569.96 1518.2 1593.4 1518.2 1622.3V2153.2C1518.2 2182.1 1494.78 2205.54 1465.89 2205.54Z" fill="#F5C845"/>
<path d="M1362.77 2050C1321.26 2091.51 1263.97 2117.19 1200.65 2117.19C1074.02 2117.19 971.348 2014.49 971.348 1887.77C971.348 1761.05 1073.98 1658.35 1200.61 1658.31V1887.77L1362.77 2050Z" fill="#E45E47"/>
<path d="M1429.92 1887.73V1887.77H1200.61V1658.3H1200.65C1327.25 1658.3 1429.88 1761.01 1429.92 1887.73V1887.73Z" fill="black"/>
<path d="M1429.92 1887.77C1429.92 1951.13 1404.25 2008.49 1362.77 2050L1200.61 1887.77H1429.92Z" fill="white"/>
<path d="M2321.11 766.209H1990.37C1961.48 766.209 1938.06 742.773 1938.06 713.866V382.898C1938.06 353.991 1961.48 330.556 1990.37 330.556H2321.11C2350 330.556 2373.42 353.991 2373.42 382.898V713.866C2373.42 742.773 2350 766.209 2321.11 766.209Z" fill="#2724F2"/>
<path d="M2083.01 549.466V549.473H2004.08V549.459C2004.11 465.641 2071.99 397.711 2155.73 397.711V476.696C2115.58 476.699 2083.03 509.274 2083.01 549.466Z" fill="#F5C845"/>
<path d="M2307.39 549.466C2307.39 591.388 2290.41 629.33 2262.96 656.799C2235.54 684.23 2197.63 701.227 2155.73 701.227V622.235C2195.88 622.235 2228.45 589.682 2228.45 549.466C2228.45 509.288 2195.88 476.696 2155.73 476.696V397.707C2239.49 397.707 2307.39 465.658 2307.39 549.466V549.466Z" fill="#E45E47"/>
<path d="M2083.01 549.469V549.476C2083.01 589.668 2115.58 622.242 2155.73 622.246V701.231C2071.99 701.231 2004.08 633.297 2004.08 549.483V549.469H2083.01Z" fill="white"/>
<path d="M2083.02 549.458V549.483C2083.02 589.661 2115.57 622.232 2155.72 622.232C2195.89 622.232 2228.47 589.657 2228.47 549.483V549.458C2228.47 509.28 2195.89 476.685 2155.72 476.685V476.709C2135.63 476.709 2117.48 484.84 2104.31 498.016C2091.14 511.193 2083.02 529.355 2083.02 549.458V549.458Z" fill="#2724F2"/>
<path d="M1676.96 1020.7C1698.92 1020.7 1716.72 1002.89 1716.72 980.924C1716.72 958.954 1698.92 941.144 1676.96 941.144C1655.01 941.144 1637.21 958.954 1637.21 980.924C1637.21 1002.89 1655.01 1020.7 1676.96 1020.7Z" fill="black"/>
<path d="M1854.03 658.572V710.094C1854.03 741.545 1828.55 767.004 1797.16 767.004H675.805C644.41 767.004 618.934 741.545 618.934 710.094V658.572C618.934 627.156 644.41 601.661 675.805 601.661H1797.16C1828.55 601.661 1854.03 627.156 1854.03 658.572V658.572Z" fill="#E45E47"/>
<path d="M822.95 601.661H834.324V767.004H822.95V601.661ZM1026.85 601.661H1038.23V767.004H1026.85V601.661ZM1230.76 601.661H1242.13V767.004H1230.76V601.661ZM1434.66 601.661H1446.03V767.004H1434.66V601.661ZM1638.56 601.661H1649.94V767.004H1638.56V601.661ZM1071.7 931.14H1052.25V1019.85C1052.25 1022.46 1051.21 1024.96 1049.37 1026.8C1047.53 1028.65 1045.03 1029.69 1042.42 1029.69H1006.65C1004.05 1029.69 1001.54 1028.65 999.7 1026.8C997.856 1024.96 996.82 1022.46 996.82 1019.85V931.14H977.376C970.614 931.14 966.723 923.452 970.723 917.995L1017.88 853.659C1018.65 852.613 1019.65 851.763 1020.81 851.176C1021.96 850.59 1023.24 850.285 1024.54 850.285C1025.83 850.285 1027.11 850.59 1028.27 851.176C1029.42 851.763 1030.43 852.613 1031.19 853.659L1078.35 917.995C1082.35 923.449 1078.46 931.14 1071.7 931.14V931.14ZM896.608 931.14H877.164V1019.85C877.164 1022.46 876.128 1024.96 874.283 1026.8C872.439 1028.65 869.938 1029.69 867.33 1029.69H831.566C828.958 1029.69 826.457 1028.65 824.613 1026.8C822.769 1024.96 821.733 1022.46 821.733 1019.85V931.14H802.288C795.527 931.14 791.635 923.452 795.635 917.995L842.795 853.659C843.561 852.613 844.563 851.763 845.72 851.176C846.876 850.59 848.154 850.285 849.45 850.285C850.746 850.285 852.024 850.59 853.18 851.176C854.336 851.763 855.338 852.613 856.105 853.659L903.265 917.995C907.261 923.449 903.369 931.14 896.608 931.14V931.14ZM721.52 931.14H702.076V1019.85C702.076 1022.46 701.04 1024.96 699.196 1026.8C697.352 1028.65 694.851 1029.69 692.242 1029.69H656.479C653.871 1029.69 651.369 1028.65 649.525 1026.8C647.681 1024.96 646.645 1022.46 646.645 1019.85V931.14H627.201C620.44 931.14 616.548 923.452 620.548 917.995L667.707 853.659C668.474 852.613 669.476 851.763 670.632 851.176C671.788 850.59 673.066 850.285 674.362 850.285C675.658 850.285 676.936 850.59 678.093 851.176C679.249 851.763 680.251 852.613 681.017 853.659L728.177 917.995C732.173 923.449 728.282 931.14 721.52 931.14V931.14Z" fill="black"/>
<path d="M2775 1626.84V2148.63C2775 2180.05 2749.53 2205.54 2718.13 2205.54H1659.11C1627.68 2205.54 1602.24 2180.05 1602.24 2148.63V1626.84C1602.24 1595.43 1627.68 1569.93 1659.11 1569.93H2718.13C2749.52 1569.93 2775 1595.43 2775 1626.84V1626.84Z" fill="#F5C845"/>
<path d="M2775 1825.51V2148.65C2775 2180.08 2749.54 2205.56 2718.13 2205.56H1659.11C1627.68 2205.56 1602.24 2180.06 1602.24 2148.65V2018.02L1905.12 1854.65C1912.03 1850.92 1919.93 1849.43 1927.72 1850.39C1935.51 1851.34 1942.81 1854.69 1948.62 1859.97L2046.95 1949.44C2052.91 1954.87 2060.44 1958.25 2068.44 1959.1C2076.45 1959.95 2084.52 1958.23 2091.49 1954.19L2584.73 1667.72C2592.1 1663.44 2600.7 1661.76 2609.13 1662.97C2617.57 1664.18 2625.35 1668.19 2631.23 1674.37L2775 1825.51Z" fill="black"/>
<path d="M2774.99 1939.33V2148.65C2774.99 2180.08 2749.53 2205.56 2718.12 2205.56H1659.1C1627.67 2205.56 1602.23 2180.06 1602.23 2148.65V2097.7L1907.43 1964.99C1913.84 1962.2 1920.9 1961.24 1927.83 1962.22C1934.75 1963.19 1941.27 1966.07 1946.67 1970.52L2049.55 2055.46C2054.94 2059.91 2061.46 2062.79 2068.39 2063.77C2075.31 2064.74 2082.37 2063.78 2088.79 2061L2613.47 1832.88C2619.89 1830.09 2626.94 1829.13 2633.87 1830.11C2640.79 1831.08 2647.31 1833.95 2652.71 1838.4L2774.99 1939.33Z" fill="#E45E47"/>
<path d="M1786.52 2017.57V2205.54H1775.11V2022.52L1786.52 2017.57ZM1927.99 1962.26V2205.54H1916.62V1962.33C1920.39 1961.7 1924.22 1961.7 1927.99 1962.26ZM2069.49 2063.87V2205.54H2058.13V2060.8C2061.72 2062.44 2065.55 2063.49 2069.49 2063.87V2063.87ZM2493.98 1884.83V2205.54H2482.58V1889.78L2493.98 1884.83ZM2352.51 1946.35V2205.54H2341.1V1951.3L2352.51 1946.35ZM2211 2007.87V2205.54H2199.6V2012.82L2211 2007.87ZM2635.49 1830.39V2205.54H2624.12V1830.01C2627.92 1829.55 2631.75 1829.69 2635.49 1830.39Z" fill="black"/>
</g>
<defs>
<clipPath id="clip0_1_987">
<rect width="2041.67" height="1547.22" fill="white" transform="translate(619.445 1113.89)"/>
</clipPath>
<clipPath id="clip1_1_987">
<rect width="83.3333" height="83.3333" fill="white" transform="translate(2797.22 1269.44)"/>
</clipPath>
<clipPath id="clip2_1_987">
<rect width="2611.11" height="1875" fill="white" transform="translate(163.891 330.556)"/>
</clipPath>
</defs>
</svg>
