<svg width="255" height="294" viewBox="0 0 255 294" fill="none" xmlns="http://www.w3.org/2000/svg">
<g clip-path="url(#clip0_1_1411)">
<path d="M127.505 294C29.3971 294 -12.9159 256.027 3.77784 178.827C18.9706 108.565 67.9903 78.1906 79.9038 71.7442C80.877 72.1537 81.9494 72.37 83.0649 72.37H171.936C173.059 72.37 174.13 72.1467 175.103 71.7502C180.217 74.5208 192.163 81.6992 205.335 94.5368C222.859 111.621 242.546 138.727 251.224 178.827C267.918 256.027 225.618 294 127.505 294V294Z" fill="#F5C845"/>
<path d="M179.159 29.2891L165.64 55.6834H89.3636L75.85 29.2891C71.8769 21.547 75.3234 12.0316 83.3568 8.6973C93.5851 4.46881 108.822 0 127.505 0C146.188 0 161.418 4.46881 171.647 8.6973C179.686 12.0316 183.12 21.547 179.159 29.2891V29.2891Z" fill="#E45E47"/>
<path d="M171.931 72.372H83.0616C78.4546 72.372 74.7188 68.6372 74.7188 64.0292C74.7188 59.4212 78.4536 55.6863 83.0616 55.6863H171.931C176.538 55.6863 180.274 59.4212 180.274 64.0292C180.274 68.6372 176.538 72.372 171.931 72.372V72.372Z" fill="black"/>
<path d="M109.757 152.844C112.595 138.793 135.292 141.765 145.288 148.114C153.394 154.059 163.12 142.306 153.934 134.875C148.832 130.956 142.159 128.475 135.097 127.459V119.74C135.097 115.543 131.695 112.141 127.498 112.141C123.302 112.141 119.9 115.543 119.9 119.74V127.535C106.239 129.682 94.2533 137.545 92.6002 151.492C88.4127 189.86 144.613 177.836 146.369 197.831C144.342 217.013 115.836 211.341 104.759 203.774C100.165 199.991 96.2479 201.208 92.7353 204.72C90.3032 208.366 90.169 214.311 94.6268 217.959C100.683 222.963 110.022 226.239 119.9 227.227V235.036C119.9 239.233 123.302 242.635 127.498 242.635C131.696 242.635 135.097 239.233 135.097 235.036V226.858C150.324 224.474 163.449 215.702 163.931 198.234C164.876 162.3 106.11 174.999 109.757 152.844V152.844Z" fill="white"/>
</g>
<defs>
<clipPath id="clip0_1_1411">
<rect width="255" height="294" fill="white"/>
</clipPath>
</defs>
</svg>
