<svg width="263" height="152" viewBox="0 0 263 152" fill="none" xmlns="http://www.w3.org/2000/svg">
<g clip-path="url(#clip0_1_1506)">
<path d="M0 136.107V15.8915C0 7.2839 6.97772 0.306183 15.5853 0.306183H247.414C256.021 0.306183 262.999 7.2839 262.999 15.8915V136.107C262.999 144.715 256.021 151.693 247.414 151.693H15.5853C6.97772 151.694 0 144.715 0 136.107H0Z" fill="#E45E47"/>
<path d="M20.1875 54.6273V26.7255C20.1875 23.2822 22.9782 20.4915 26.4214 20.4915H54.3213C57.7645 20.4915 60.5552 23.2822 60.5552 26.7255V54.6273C60.5552 58.0706 57.7645 60.8612 54.3213 60.8612H26.4214C22.9782 60.8622 20.1875 58.0706 20.1875 54.6273Z" fill="#2724F2"/>
<path d="M52.6122 34.4219H60.5712V46.9319H52.6122C49.1629 46.9319 46.3672 44.1261 46.3672 40.6769C46.3672 38.9518 47.0639 37.393 48.1956 36.2503C49.3283 35.1286 50.887 34.4219 52.6122 34.4219V34.4219Z" fill="white"/>
<path d="M28.1466 34.4219H20.1875V46.9319H28.1466C31.5958 46.9319 34.3915 44.1261 34.3915 40.6769C34.3915 38.9518 33.6949 37.393 32.5631 36.2503C31.4294 35.1286 29.8717 34.4219 28.1466 34.4219V34.4219Z" fill="white"/>
<path d="M236.779 32.9945H100.399C97.0677 32.9945 94.3672 30.294 94.3672 26.963V26.522C94.3672 23.191 97.0677 20.4905 100.399 20.4905H236.779C240.11 20.4905 242.811 23.191 242.811 26.522V26.963C242.811 30.294 240.11 32.9945 236.779 32.9945Z" fill="black"/>
<path d="M138.68 106.582H26.2189C22.888 106.582 20.1875 103.881 20.1875 100.55V100.109C20.1875 96.7783 22.888 94.0778 26.2189 94.0778H138.68C142.011 94.0778 144.712 96.7783 144.712 100.109V100.55C144.711 103.881 142.011 106.582 138.68 106.582Z" fill="black"/>
<path d="M94.9215 131.589H26.2189C22.888 131.589 20.1875 128.888 20.1875 125.557V125.116C20.1875 121.785 22.888 119.085 26.2189 119.085H94.9215C98.2525 119.085 100.953 121.785 100.953 125.116V125.557C100.953 128.888 98.2525 131.589 94.9215 131.589Z" fill="black"/>
<path d="M236.787 131.589H217.594C214.263 131.589 211.562 128.888 211.562 125.557V125.116C211.562 121.785 214.263 119.085 217.594 119.085H236.787C240.118 119.085 242.818 121.785 242.818 125.116V125.557C242.818 128.888 240.118 131.589 236.787 131.589Z" fill="black"/>
</g>
<defs>
<clipPath id="clip0_1_1506">
<rect width="263" height="152" fill="white"/>
</clipPath>
</defs>
</svg>
