<svg width="241" height="254" viewBox="0 0 241 254" fill="none" xmlns="http://www.w3.org/2000/svg">
<g clip-path="url(#clip0_1_1433)">
<path d="M240.997 53.4438H0L111.839 2.14807C117.337 -0.373656 123.661 -0.373656 129.158 2.14807L240.997 53.4438Z" fill="#E45E47"/>
<path d="M25.7969 74.8455H215.192V225.047H25.7969V74.8455Z" fill="#2724F2"/>
<path d="M240.997 53.4438V66.8577C240.997 71.2702 237.42 74.8465 233.008 74.8465H7.9888C3.57728 74.8465 0 71.2692 0 66.8577V53.4438H240.997Z" fill="black"/>
<path d="M240.999 233.031V253.742H0V233.031C0 228.625 3.57528 225.049 7.99181 225.049H233.007C237.424 225.049 240.999 228.625 240.999 233.031V233.031Z" fill="black"/>
<path d="M63.6123 95.6412H21.3668C18.0359 95.6412 15.3359 92.9412 15.3359 89.6103V74.8465H69.6422V89.6103C69.6432 92.9412 66.9432 95.6412 63.6123 95.6412V95.6412Z" fill="#E45E47"/>
<path d="M69.6432 225.047H15.3359V210.284C15.3359 206.953 18.0359 204.253 21.3668 204.253H63.6123C66.9432 204.253 69.6432 206.953 69.6432 210.284V225.047Z" fill="#E45E47"/>
<path d="M25.7969 95.6412H59.1782V204.253H25.7969V95.6412Z" fill="#F5C845"/>
<path d="M219.628 95.6412H177.382C174.052 95.6412 171.352 92.9412 171.352 89.6103V74.8465H225.658V89.6103C225.659 92.9412 222.959 95.6412 219.628 95.6412V95.6412Z" fill="#E45E47"/>
<path d="M225.658 225.047H171.352V210.284C171.352 206.953 174.052 204.253 177.382 204.253H219.628C222.959 204.253 225.659 206.953 225.659 210.284V225.047H225.658Z" fill="#E45E47"/>
<path d="M181.812 95.6412H215.194V204.253H181.812V95.6412Z" fill="#F5C845"/>
<path d="M120.498 196.516C146.218 196.516 167.067 175.667 167.067 149.947C167.067 124.228 146.218 103.379 120.498 103.379C94.7792 103.379 73.9297 124.228 73.9297 149.947C73.9297 175.667 94.7792 196.516 120.498 196.516Z" fill="#F5C845"/>
<path d="M112.943 139.81C114.152 133.826 123.819 135.091 128.078 137.796C131.531 140.328 135.673 135.323 131.76 132.157C129.587 130.488 126.745 129.431 123.736 128.998V125.711C123.736 123.923 122.287 122.474 120.499 122.474C118.712 122.474 117.263 123.923 117.263 125.711V129.03C111.444 129.945 106.338 133.294 105.634 139.235C103.851 155.577 127.789 150.456 128.537 158.973C127.674 167.143 115.532 164.727 110.814 161.504C108.857 159.893 107.189 160.412 105.692 161.908C104.657 163.461 104.599 165.993 106.498 167.547C109.077 169.679 113.055 171.075 117.263 171.495V174.822C117.263 176.61 118.712 178.059 120.499 178.059C122.287 178.059 123.736 176.61 123.736 174.822V171.339C130.222 170.323 135.813 166.587 136.017 159.147C136.421 143.838 111.39 149.247 112.943 139.81Z" fill="white"/>
</g>
<defs>
<clipPath id="clip0_1_1433">
<rect width="241" height="254" fill="white"/>
</clipPath>
</defs>
</svg>
