<svg width="243" height="140" viewBox="0 0 243 140" fill="none" xmlns="http://www.w3.org/2000/svg">
<g clip-path="url(#clip0_1_1493)">
<path d="M0 125.538V14.4625C0 6.50955 6.44701 0.0625458 14.3999 0.0625458H228.599C236.552 0.0625458 242.999 6.50955 242.999 14.4625V125.537C242.999 133.489 236.552 139.936 228.599 139.936H14.3999C6.44701 139.937 0 133.49 0 125.538H0Z" fill="#E45E47"/>
<path d="M18.6484 50.2527V24.4727C18.6484 21.2917 21.227 18.7121 24.409 18.7121H50.187C53.368 18.7121 55.9476 21.2907 55.9476 24.4727V50.2527C55.9476 53.4337 53.369 56.0133 50.187 56.0133H24.408C21.227 56.0133 18.6484 53.4347 18.6484 50.2527V50.2527Z" fill="#F5C845"/>
<path d="M48.6055 31.5841H55.9591V43.1423H48.6055C45.4185 43.1423 42.8359 40.5497 42.8359 37.3627C42.8359 35.7687 43.4793 34.3288 44.526 33.2732C45.5716 32.2365 47.0115 31.5841 48.6055 31.5841Z" fill="white"/>
<path d="M26.002 31.5841H18.6484V43.1423H26.002C29.189 43.1423 31.7716 40.5497 31.7716 37.3627C31.7716 35.7687 31.1282 34.3288 30.0815 33.2732C29.0359 32.2365 27.596 31.5841 26.002 31.5841Z" fill="white"/>
<path d="M218.786 30.2653H92.7598C89.6869 30.2653 87.1953 27.7738 87.1953 24.7009V24.2776C87.1953 21.2047 89.6869 18.7131 92.7598 18.7131H218.786C221.859 18.7131 224.351 21.2047 224.351 24.2776V24.7009C224.351 27.7738 221.859 30.2653 218.786 30.2653Z" fill="black"/>
<path d="M128.138 98.2566H24.2129C21.14 98.2566 18.6484 95.765 18.6484 92.6921V92.2688C18.6484 89.1959 21.14 86.7044 24.2129 86.7044H128.138C131.211 86.7044 133.703 89.1959 133.703 92.2688V92.6921C133.703 95.765 131.211 98.2566 128.138 98.2566V98.2566Z" fill="black"/>
<path d="M87.7074 121.362H24.2129C21.14 121.362 18.6484 118.87 18.6484 115.797V115.374C18.6484 112.301 21.14 109.81 24.2129 109.81H87.7074C90.7803 109.81 93.2718 112.301 93.2718 115.374V115.797C93.2718 118.87 90.7803 121.362 87.7074 121.362V121.362Z" fill="black"/>
<path d="M128.143 121.362H110.393C107.32 121.362 104.828 118.87 104.828 115.797V115.374C104.828 112.301 107.32 109.81 110.393 109.81H128.143C131.216 109.81 133.707 112.301 133.707 115.374V115.797C133.707 118.87 131.216 121.362 128.143 121.362V121.362Z" fill="black"/>
<path d="M218.783 121.362H201.033C197.96 121.362 195.469 118.87 195.469 115.797V115.374C195.469 112.301 197.96 109.81 201.033 109.81H218.783C221.856 109.81 224.348 112.301 224.348 115.374V115.797C224.348 118.87 221.856 121.362 218.783 121.362V121.362Z" fill="black"/>
</g>
<defs>
<clipPath id="clip0_1_1493">
<rect width="243" height="140" fill="white"/>
</clipPath>
</defs>
</svg>
