<svg width="643" height="688" viewBox="0 0 643 688" fill="none" xmlns="http://www.w3.org/2000/svg">
<g clip-path="url(#clip0_1_2318)">
<path d="M540.24 688H45.114C20.3065 688 0.125 667.817 0.125 643.011V620.916C0.125 620.087 0.796283 619.415 1.62563 619.415C2.45498 619.415 3.12626 620.087 3.12626 620.916V643.011C3.12626 666.163 21.9622 684.999 45.114 684.999H540.24C595.18 684.999 639.878 640.302 639.878 585.362V160.671C639.878 73.7321 569.148 3.0013 482.207 3.0013H345.964C345.135 3.0013 344.463 2.32901 344.463 1.50066C344.463 0.672314 345.135 3.05176e-05 345.964 3.05176e-05H482.208C570.803 3.05176e-05 642.88 72.0764 642.88 160.671V585.361C642.879 641.956 596.835 688 540.24 688Z" fill="black"/>
</g>
<defs>
<clipPath id="clip0_1_2318">
<rect width="643" height="688" fill="white"/>
</clipPath>
</defs>
</svg>
