<svg width="172" height="43" viewBox="0 0 172 43" fill="none" xmlns="http://www.w3.org/2000/svg">
<g clip-path="url(#clip0_1_2312)">
<path d="M172 42.7169H0C2.74186 23.9444 17.6128 26.7694 20.0923 26.9947H20.1834C21.3621 26.9767 22.4686 26.3779 23.0484 25.3444C26.2399 19.6504 32.3515 15.824 39.3153 15.824C42.3976 15.824 45.2807 16.5681 47.8383 17.8729C49.1071 18.5078 50.6132 17.927 51.2471 16.6402C55.9978 6.95654 65.9167 0.28315 77.4319 0.28315C88.856 0.28315 98.7569 6.86641 103.509 16.4409C104.851 18.689 107.281 18.7441 109.075 17.0938C113.373 13.0141 119.212 10.4755 125.614 10.4755C135.859 10.4755 144.599 16.8945 148.045 25.9072C149.188 28.9535 151.89 30.042 155.153 29.5523C155.914 29.4432 156.694 29.353 157.475 29.353C165.109 29.352 171.365 35.2453 172 42.7169V42.7169Z" fill="black"/>
</g>
<defs>
<clipPath id="clip0_1_2312">
<rect width="172" height="43" fill="white"/>
</clipPath>
</defs>
</svg>
