<svg width="369" height="273" viewBox="0 0 369 273" fill="none" xmlns="http://www.w3.org/2000/svg">
<g clip-path="url(#clip0_1_2320)">
<path d="M1.59459 273C0.765124 273 0.09375 272.328 0.09375 271.499C0.09375 257.835 11.2109 246.717 24.8755 246.717H335.106C352.085 246.717 365.898 232.904 365.898 215.925V17.2736C365.897 9.40424 359.495 3.00167 351.625 3.00167H226.15C218.28 3.00167 211.878 9.40424 211.878 17.2736V31.1073C211.878 31.9358 211.206 32.6082 210.377 32.6082C209.547 32.6082 208.876 31.9358 208.876 31.1073V17.2736C208.875 7.74931 216.624 0 226.15 0H351.625C361.151 0 368.899 7.74931 368.899 17.2736V215.926C368.899 234.561 353.74 249.72 335.105 249.72H24.8755C12.8659 249.72 3.09542 259.489 3.09542 271.499C3.09542 272.329 2.42405 273 1.59459 273V273Z" fill="black"/>
<path d="M69.4227 272.998C68.5932 272.998 67.9219 272.326 67.9219 271.497V248.218C67.9219 247.39 68.5932 246.717 69.4227 246.717C70.2522 246.717 70.9235 247.39 70.9235 248.218V271.497C70.9235 272.327 70.2522 272.998 69.4227 272.998Z" fill="black"/>
<path d="M137.251 272.998C136.421 272.998 135.75 272.326 135.75 271.497V248.218C135.75 247.39 136.421 246.717 137.251 246.717C138.08 246.717 138.752 247.39 138.752 248.218V271.497C138.752 272.327 138.079 272.998 137.251 272.998Z" fill="black"/>
</g>
<defs>
<clipPath id="clip0_1_2320">
<rect width="369" height="273" fill="white"/>
</clipPath>
</defs>
</svg>
