<svg width="183" height="38" viewBox="0 0 183 38" fill="none" xmlns="http://www.w3.org/2000/svg">
<g clip-path="url(#clip0_1_2314)">
<path d="M183.001 37.8013C182.463 31.1795 176.922 25.9709 170.161 25.9709C169.459 25.9709 168.77 26.027 168.098 26.1352C165.191 26.5759 162.833 25.6183 161.796 22.9249C158.746 14.9308 151.01 9.25052 141.943 9.25052C136.264 9.25052 131.109 11.4802 127.299 15.1111C125.697 16.5555 123.536 16.5064 122.356 14.5262C118.142 6.03625 109.387 0.198677 99.2657 0.198677C87.8009 0.198677 78.086 7.68395 74.7395 18.0349C74.3138 19.3511 72.7192 20.9537 70.0128 19.93C68.0686 19.1257 65.9391 18.681 63.7034 18.681C58.3577 18.681 53.6069 21.2191 50.5859 25.1556C49.393 26.4958 47.8214 26.5939 46.381 25.2087C43.4342 21.774 39.063 19.5975 34.182 19.5975C26.847 19.5975 20.6629 24.5115 18.7347 31.2265C18.1678 32.742 16.6844 32.745 15.7889 32.1711C14.1392 31.1124 12.177 30.4983 10.0715 30.4983C5.3668 30.4983 1.39328 33.5634 0 37.8023H183.001V37.8013Z" fill="black"/>
</g>
<defs>
<clipPath id="clip0_1_2314">
<rect width="183" height="38" fill="white"/>
</clipPath>
</defs>
</svg>
