<svg width="562" height="409" viewBox="0 0 562 409" fill="none" xmlns="http://www.w3.org/2000/svg">
<g clip-path="url(#clip0_1_1851)">
<path d="M561.996 21.1258V45.273H0V21.1258C0 9.45854 9.45771 0.000823975 21.124 0.000823975H540.872C552.538 0.000823975 561.996 9.45854 561.996 21.1258V21.1258Z" fill="black"/>
<path d="M562 45.2719V387.874C562 399.541 552.542 408.999 540.875 408.999H21.125C9.45772 408.999 0 399.541 0 387.874V45.2719H562Z" fill="#2724F2"/>
<path d="M43.0349 29.7499C46.9634 29.7499 50.148 26.5653 50.148 22.6369C50.148 18.7085 46.9634 15.5238 43.0349 15.5238C39.1065 15.5238 35.9219 18.7085 35.9219 22.6369C35.9219 26.5653 39.1065 29.7499 43.0349 29.7499Z" fill="white"/>
<path d="M78.574 29.7499C82.5024 29.7499 85.687 26.5653 85.687 22.6369C85.687 18.7085 82.5024 15.5238 78.574 15.5238C74.6456 15.5238 71.4609 18.7085 71.4609 22.6369C71.4609 26.5653 74.6456 29.7499 78.574 29.7499Z" fill="white"/>
<path d="M114.121 29.7499C118.049 29.7499 121.234 26.5653 121.234 22.6369C121.234 18.7085 118.049 15.5238 114.121 15.5238C110.192 15.5238 107.008 18.7085 107.008 22.6369C107.008 26.5653 110.192 29.7499 114.121 29.7499Z" fill="white"/>
<path d="M302.695 0.000823975H305.697V45.272H302.695V0.000823975Z" fill="white"/>
<path d="M366.18 0.000823975H369.182V45.272H366.18V0.000823975Z" fill="white"/>
<path d="M429.664 0.000823975H432.666V45.272H429.664V0.000823975Z" fill="white"/>
<path d="M493.156 0.000823975H496.158V45.272H493.156V0.000823975Z" fill="white"/>
</g>
<defs>
<clipPath id="clip0_1_1851">
<rect width="562" height="409" fill="white"/>
</clipPath>
</defs>
</svg>
