<svg width="514" height="363" viewBox="0 0 514 363" fill="none" xmlns="http://www.w3.org/2000/svg">
<g clip-path="url(#clip0_1_1838)">
<path d="M513.802 18.1808V38.9636H0.203125V18.1808C0.203125 8.14005 8.34318 0 18.3849 0H495.62C505.661 0 513.802 8.14005 513.802 18.1808Z" fill="black"/>
<path d="M513.804 38.9636V344.819C513.804 354.86 505.664 363 495.623 363H18.3839C8.34317 363 0.203125 354.86 0.203125 344.819V38.9636H513.804Z" fill="#2724F2"/>
<path d="M144.852 0H147.853V38.9636H144.852V0Z" fill="white"/>
<path d="M205.766 0H208.767V38.9636H205.766V0Z" fill="white"/>
<path d="M266.672 0H269.673V38.9636H266.672V0Z" fill="white"/>
<path d="M327.586 0H330.587V38.9636H327.586V0Z" fill="white"/>
<path d="M388.5 0H391.501V38.9636H388.5V0Z" fill="white"/>
<path d="M449.414 0H452.415V38.9636H449.414V0Z" fill="white"/>
<path d="M30.8176 25.6036C34.1989 25.6036 36.9399 22.8626 36.9399 19.4813C36.9399 16.1001 34.1989 13.359 30.8176 13.359C27.4364 13.359 24.6953 16.1001 24.6953 19.4813C24.6953 22.8626 27.4364 25.6036 30.8176 25.6036Z" fill="white"/>
<path d="M61.4114 25.6036C64.7926 25.6036 67.5337 22.8626 67.5337 19.4813C67.5337 16.1001 64.7926 13.359 61.4114 13.359C58.0301 13.359 55.2891 16.1001 55.2891 19.4813C55.2891 22.8626 58.0301 25.6036 61.4114 25.6036Z" fill="white"/>
<path d="M91.9973 25.6036C95.3785 25.6036 98.1196 22.8626 98.1196 19.4813C98.1196 16.1001 95.3785 13.359 91.9973 13.359C88.616 13.359 85.875 16.1001 85.875 19.4813C85.875 22.8626 88.616 25.6036 91.9973 25.6036Z" fill="white"/>
</g>
<defs>
<clipPath id="clip0_1_1838">
<rect width="514" height="363" fill="white"/>
</clipPath>
</defs>
</svg>
