<svg width="193" height="154" viewBox="0 0 193 154" fill="none" xmlns="http://www.w3.org/2000/svg">
<g clip-path="url(#clip0_1_2338)">
<path d="M164.765 0.390457H15.5725C6.97169 0.390457 0 7.36214 0 15.963V138.037C0 146.638 6.97169 153.61 15.5725 153.61H164.765C173.366 153.61 180.338 146.638 180.338 138.037V15.963C180.339 7.36214 173.366 0.390457 164.765 0.390457V0.390457Z" fill="#2724F2"/>
<path d="M184.014 111.83H130.469C113.169 111.83 99.0156 97.676 99.0156 80.3773C99.0156 63.0786 113.17 48.9242 130.469 48.9242H184.014C188.956 48.9242 193.001 52.9686 193.001 57.9111V102.845C193.001 107.787 188.956 111.83 184.014 111.83Z" fill="#F5C845"/>
<path d="M130.466 62.4036C140.351 62.4036 148.44 70.4914 148.44 80.3773C148.44 90.2633 140.352 98.3511 130.466 98.3511C120.581 98.3511 112.492 90.2633 112.492 80.3773C112.492 70.4914 120.58 62.4036 130.466 62.4036V62.4036Z" fill="#E45E47"/>
<path d="M130.466 72.4725C134.814 72.4725 138.37 76.0289 138.37 80.3763C138.37 84.7238 134.814 88.2801 130.466 88.2801C126.119 88.2801 122.562 84.7238 122.562 80.3763C122.562 76.0289 126.119 72.4725 130.466 72.4725Z" fill="white"/>
</g>
<defs>
<clipPath id="clip0_1_2338">
<rect width="193" height="154" fill="white"/>
</clipPath>
</defs>
</svg>
