<svg width="653" height="494" viewBox="0 0 653 494" fill="none" xmlns="http://www.w3.org/2000/svg">
<g clip-path="url(#clip0_1_1613)">
<path d="M387.175 458.689H265.82L286.959 430.019H366.036L387.175 458.689Z" fill="#E45E47"/>
<path d="M459.263 494H193.734C193.734 474.504 209.531 458.694 229.027 458.694H423.97C443.466 458.695 459.263 474.504 459.263 494Z" fill="black"/>
<path d="M52.451 430.013C23.6031 430.013 0.132812 406.541 0.132812 377.694V52.3182C0.132812 23.4693 23.6031 0 52.451 0H600.518C629.366 0 652.836 23.4693 652.836 52.3182L652.863 80.7937V377.694C652.863 406.542 629.393 430.013 600.545 430.013H52.451Z" fill="black"/>
<path d="M625.46 359.688H27.5391V52.3262C27.5391 38.557 38.6926 27.3934 52.4509 27.3934H600.538C614.16 27.3934 625.23 38.3267 625.45 51.8968L625.46 359.688Z" fill="#2724F2"/>
<path d="M326.501 406.363C332.857 406.363 338.01 401.21 338.01 394.854C338.01 388.498 332.857 383.345 326.501 383.345C320.145 383.345 314.992 388.498 314.992 394.854C314.992 401.21 320.145 406.363 326.501 406.363Z" fill="white"/>
</g>
<defs>
<clipPath id="clip0_1_1613">
<rect width="653" height="494" fill="white"/>
</clipPath>
</defs>
</svg>
