<svg width="536" height="415" viewBox="0 0 536 415" fill="none" xmlns="http://www.w3.org/2000/svg">
<g clip-path="url(#clip0_1_1815)">
<path d="M535.999 49.9429L535.988 391.957C535.785 404.594 525.473 414.769 512.793 414.769H15.5644C6.96835 414.769 0 407.801 0 399.205V49.9429H535.999Z" fill="#2724F2"/>
<path d="M535.993 15.7949V49.9449H0V15.7949C0 7.19885 6.96835 0.230499 15.5644 0.230499H520.429C529.025 0.230499 535.993 7.19885 535.993 15.7949V15.7949Z" fill="black"/>
<path d="M36.0401 31.5966C39.6349 31.5966 42.549 28.6825 42.549 25.0877C42.549 21.493 39.6349 18.5789 36.0401 18.5789C32.4454 18.5789 29.5312 21.493 29.5312 25.0877C29.5312 28.6825 32.4454 31.5966 36.0401 31.5966Z" fill="white"/>
<path d="M68.5635 31.5966C72.1583 31.5966 75.0724 28.6825 75.0724 25.0877C75.0724 21.493 72.1583 18.5789 68.5635 18.5789C64.9688 18.5789 62.0547 21.493 62.0547 25.0877C62.0547 28.6825 64.9688 31.5966 68.5635 31.5966Z" fill="white"/>
<path d="M101.079 31.5966C104.674 31.5966 107.588 28.6825 107.588 25.0877C107.588 21.493 104.674 18.5789 101.079 18.5789C97.4844 18.5789 94.5703 21.493 94.5703 25.0877C94.5703 28.6825 97.4844 31.5966 101.079 31.5966Z" fill="white"/>
<path d="M162.211 0.230499H165.596V49.9429H162.211V0.230499Z" fill="white"/>
<path d="M223.609 0.230499H226.994V49.9429H223.609V0.230499Z" fill="white"/>
<path d="M285.016 0.230499H288.4V49.9429H285.016V0.230499Z" fill="white"/>
<path d="M346.414 0.230499H349.799V49.9429H346.414V0.230499Z" fill="white"/>
<path d="M407.812 0.230499H411.197V49.9429H407.812V0.230499Z" fill="white"/>
<path d="M469.211 0.230499H472.596V49.9429H469.211V0.230499Z" fill="white"/>
</g>
<defs>
<clipPath id="clip0_1_1815">
<rect width="536" height="415" fill="white"/>
</clipPath>
</defs>
</svg>
