<svg width="220" height="236" viewBox="0 0 220 236" fill="none" xmlns="http://www.w3.org/2000/svg">
<g clip-path="url(#clip0_1_1776)">
<path d="M219.893 16.7709V35.9406H0.109375V16.7709C0.109375 7.50803 7.6184 0 16.8802 0H203.123C212.384 0 219.893 7.50803 219.893 16.7709V16.7709Z" fill="black"/>
<path d="M219.895 35.9406V219.23C219.895 228.492 212.387 236.001 203.125 236.001H16.8802C7.6174 236 0.109375 228.492 0.109375 219.23V35.9406H219.895Z" fill="#2724F2"/>
<path d="M37.9127 23.6168C41.0314 23.6168 43.5597 21.0886 43.5597 17.9698C43.5597 14.851 41.0314 12.3227 37.9127 12.3227C34.7939 12.3227 32.2656 14.851 32.2656 17.9698C32.2656 21.0886 34.7939 23.6168 37.9127 23.6168Z" fill="white"/>
<path d="M66.1314 23.6168C69.2502 23.6168 71.7785 21.0886 71.7785 17.9698C71.7785 14.851 69.2502 12.3227 66.1314 12.3227C63.0126 12.3227 60.4844 14.851 60.4844 17.9698C60.4844 21.0886 63.0126 23.6168 66.1314 23.6168Z" fill="white"/>
<path d="M94.3424 23.6168C97.4611 23.6168 99.9894 21.0886 99.9894 17.9698C99.9894 14.851 97.4611 12.3227 94.3424 12.3227C91.2236 12.3227 88.6953 14.851 88.6953 17.9698C88.6953 21.0886 91.2236 23.6168 94.3424 23.6168Z" fill="white"/>
<path d="M32.2656 74.4903H144.121V78.2764H32.2656V74.4903Z" fill="white"/>
<path d="M32.2656 100.257H187.737V104.043H32.2656V100.257Z" fill="white"/>
<path d="M32.2656 126.023H187.737V129.809H32.2656V126.023Z" fill="white"/>
<path d="M32.2656 151.788H187.737V155.574H32.2656V151.788Z" fill="white"/>
<path d="M32.2656 177.554H187.737V181.34H32.2656V177.554Z" fill="white"/>
</g>
<defs>
<clipPath id="clip0_1_1776">
<rect width="220" height="236" fill="white"/>
</clipPath>
</defs>
</svg>
