<svg width="220" height="264" viewBox="0 0 220 264" fill="none" xmlns="http://www.w3.org/2000/svg">
<g clip-path="url(#clip0_1_1799)">
<path d="M219.998 16.8172V36.0055H0V16.8172C0 7.54532 7.51634 0.0299835 16.7872 0.0299835H203.211C212.482 0.0299835 219.998 7.54532 219.998 16.8172V16.8172Z" fill="black"/>
<path d="M220 36.0055V247.183C220 256.454 212.485 263.97 203.213 263.97H16.7872C7.51533 263.97 0 256.454 0 247.183V36.0055H220Z" fill="#2724F2"/>
<path d="M37.84 23.6698C40.9619 23.6698 43.4926 21.1391 43.4926 18.0173C43.4926 14.8954 40.9619 12.3647 37.84 12.3647C34.7182 12.3647 32.1875 14.8954 32.1875 18.0173C32.1875 21.1391 34.7182 23.6698 37.84 23.6698Z" fill="white"/>
<path d="M66.0822 23.6698C69.204 23.6698 71.7348 21.1391 71.7348 18.0173C71.7348 14.8954 69.204 12.3647 66.0822 12.3647C62.9604 12.3647 60.4297 14.8954 60.4297 18.0173C60.4297 21.1391 62.9604 23.6698 66.0822 23.6698Z" fill="white"/>
<path d="M94.3244 23.6698C97.4462 23.6698 99.977 21.1391 99.977 18.0173C99.977 14.8954 97.4462 12.3647 94.3244 12.3647C91.2026 12.3647 88.6719 14.8954 88.6719 18.0173C88.6719 21.1391 91.2026 23.6698 94.3244 23.6698Z" fill="white"/>
<path d="M126.141 0.0299835H129.148V36.0055H126.141V0.0299835Z" fill="white"/>
<path d="M171.562 0.0299835H174.57V36.0055H171.562V0.0299835Z" fill="white"/>
</g>
<defs>
<clipPath id="clip0_1_1799">
<rect width="220" height="264" fill="white"/>
</clipPath>
</defs>
</svg>
