<svg width="557" height="432" viewBox="0 0 557 432" fill="none" xmlns="http://www.w3.org/2000/svg">
<g clip-path="url(#clip0_1_1619)">
<path d="M330.44 401.529H226.883L244.921 377.064H312.401L330.44 401.529Z" fill="#E45E47"/>
<path d="M391.952 431.662H165.367C165.367 415.025 178.847 401.534 195.484 401.534H361.837C378.473 401.534 391.952 415.024 391.952 431.662Z" fill="black"/>
<path d="M44.6452 377.058C20.0288 377.058 0 357.03 0 332.412V44.9836C0 20.3661 20.0288 0.338379 44.6452 0.338379H512.332C536.948 0.338379 556.977 20.3661 556.977 44.9836L557 69.2829V332.413C557 357.03 536.971 377.059 512.355 377.059H44.6452V377.058Z" fill="black"/>
<path d="M533.61 69.2809L533.6 305.849H23.375V69.2809H533.61Z" fill="#F5C845"/>
<path d="M533.6 44.9776V69.2789H23.375V44.9776C23.375 33.2367 32.8936 23.7181 44.6345 23.7181H512.341C524.082 23.7181 533.6 33.2367 533.6 44.9776V44.9776Z" fill="#E45E47"/>
<path d="M278.656 353.721C285.43 353.721 290.921 348.23 290.921 341.456C290.921 334.682 285.43 329.19 278.656 329.19C271.882 329.19 266.391 334.682 266.391 341.456C266.391 348.23 271.882 353.721 278.656 353.721Z" fill="white"/>
<path d="M47.25 97.0762H79.8802V100.858H47.25V97.0762Z" fill="black"/>
<path d="M47.25 122.816H101.504V126.599H47.25V122.816Z" fill="black"/>
<path d="M47.25 148.556H122.516V152.339H47.25V148.556Z" fill="black"/>
<path d="M420.188 215.316H502.847V219.098H420.188V215.316Z" fill="black"/>
<path d="M387.555 241.056H502.844V244.838H387.555V241.056Z" fill="black"/>
<path d="M357.539 266.796H502.846V270.578H357.539V266.796Z" fill="black"/>
</g>
<defs>
<clipPath id="clip0_1_1619">
<rect width="557" height="432" fill="white"/>
</clipPath>
</defs>
</svg>
