<svg width="605" height="468" viewBox="0 0 605 468" fill="none" xmlns="http://www.w3.org/2000/svg">
<g clip-path="url(#clip0_1_1602)">
<path d="M358.855 435.304H246.492L266.064 408.759H339.282L358.855 435.304Z" fill="#E45E47"/>
<path d="M425.596 468H179.742C179.742 449.948 194.368 435.31 212.42 435.31H392.918C410.97 435.31 425.596 449.947 425.596 468Z" fill="black"/>
<path d="M48.762 408.753C22.0517 408.753 0.320312 387.022 0.320312 360.311V48.4417C0.320312 21.7304 22.0517 0 48.762 0H556.218C582.927 0 604.66 21.7304 604.66 48.4417L604.685 74.807V360.312C604.685 387.022 582.953 408.754 556.243 408.754H48.762V408.753Z" fill="black"/>
<path d="M579.301 74.805L579.291 331.49H25.6797V74.805H579.301Z" fill="#F5C845"/>
<path d="M579.291 48.4347V74.802H25.6797V48.4347C25.6797 35.6952 36.0078 25.3671 48.7473 25.3671H556.224C568.964 25.3681 579.291 35.6952 579.291 48.4347Z" fill="#E45E47"/>
<path d="M61.5192 56.5574C65.0937 56.5574 67.9915 53.6596 67.9915 50.0851C67.9915 46.5105 65.0937 43.6128 61.5192 43.6128C57.9446 43.6128 55.0469 46.5105 55.0469 50.0851C55.0469 53.6596 57.9446 56.5574 61.5192 56.5574Z" fill="white"/>
<path d="M93.8551 56.5574C97.4297 56.5574 100.327 53.6596 100.327 50.0851C100.327 46.5105 97.4297 43.6128 93.8551 43.6128C90.2806 43.6128 87.3828 46.5105 87.3828 50.0851C87.3828 53.6596 90.2806 56.5574 93.8551 56.5574Z" fill="white"/>
<path d="M126.199 56.5574C129.773 56.5574 132.671 53.6596 132.671 50.0851C132.671 46.5105 129.773 43.6128 126.199 43.6128C122.624 43.6128 119.727 46.5105 119.727 50.0851C119.727 53.6596 122.624 56.5574 126.199 56.5574Z" fill="white"/>
<path d="M302.667 383.432C310.017 383.432 315.975 377.474 315.975 370.124C315.975 362.775 310.017 356.817 302.667 356.817C295.317 356.817 289.359 362.775 289.359 370.124C289.359 377.474 295.317 383.432 302.667 383.432Z" fill="white"/>
</g>
<defs>
<clipPath id="clip0_1_1602">
<rect width="605" height="468" fill="white"/>
</clipPath>
</defs>
</svg>
