<svg width="514" height="363" viewBox="0 0 514 363" fill="none" xmlns="http://www.w3.org/2000/svg">
<g clip-path="url(#clip0_1_1752)">
<path d="M513.802 18.1808V38.9636H0.203125V18.1808C0.203125 8.14005 8.34318 0 18.3849 0H495.62C505.661 0 513.802 8.14005 513.802 18.1808Z" fill="black"/>
<path d="M513.804 38.9636V344.819C513.804 354.86 505.664 363 495.623 363H18.3839C8.34317 363 0.203125 354.86 0.203125 344.819V38.9636H513.804Z" fill="#F5C845"/>
<path d="M41.1848 25.6036C44.566 25.6036 47.3071 22.8626 47.3071 19.4813C47.3071 16.1001 44.566 13.359 41.1848 13.359C37.8035 13.359 35.0625 16.1001 35.0625 19.4813C35.0625 22.8626 37.8035 25.6036 41.1848 25.6036Z" fill="white"/>
<path d="M71.7707 25.6036C75.152 25.6036 77.893 22.8626 77.893 19.4813C77.893 16.1001 75.152 13.359 71.7707 13.359C68.3895 13.359 65.6484 16.1001 65.6484 19.4813C65.6484 22.8626 68.3895 25.6036 71.7707 25.6036Z" fill="white"/>
<path d="M102.364 25.6036C105.746 25.6036 108.487 22.8626 108.487 19.4813C108.487 16.1001 105.746 13.359 102.364 13.359C98.9832 13.359 96.2422 16.1001 96.2422 19.4813C96.2422 22.8626 98.9832 25.6036 102.364 25.6036Z" fill="white"/>
<path d="M141.844 0H144.845V38.9636H141.844V0Z" fill="white"/>
<path d="M202.758 0H205.759V38.9636H202.758V0Z" fill="white"/>
<path d="M263.672 0H266.673V38.9636H263.672V0Z" fill="white"/>
<path d="M324.586 0H327.587V38.9636H324.586V0Z" fill="white"/>
<path d="M385.5 0H388.501V38.9636H385.5V0Z" fill="white"/>
<path d="M446.414 0H449.415V38.9636H446.414V0Z" fill="white"/>
<path d="M32.2109 92.9778C32.2109 81.7546 41.3093 72.6562 52.5326 72.6562H461.466C472.689 72.6562 481.787 81.7546 481.787 92.9778C481.787 104.201 472.689 113.299 461.466 113.299H52.5326C41.3093 113.299 32.2109 104.201 32.2109 92.9778V92.9778Z" fill="#E45E47"/>
<path d="M461.781 320.881H291.804C280.754 320.881 271.797 311.924 271.797 300.874V157.774C271.797 146.724 280.754 137.767 291.804 137.767H461.781C472.831 137.767 481.789 146.724 481.789 157.774V300.874C481.789 311.923 472.831 320.881 461.781 320.881Z" fill="#2724F2"/>
<path d="M300.805 173.677C300.805 169.867 303.894 166.777 307.704 166.777H445.875C449.685 166.777 452.775 169.867 452.775 173.677C452.775 177.487 449.685 180.577 445.875 180.577H307.704C303.894 180.578 300.805 177.488 300.805 173.677V173.677Z" fill="white"/>
<path d="M163.508 156.267H246.712V159.556H163.508V156.267Z" fill="black"/>
<path d="M163.508 177.287H246.712V180.577H163.508V177.287Z" fill="black"/>
<path d="M163.508 198.309H246.712V201.599H163.508V198.309Z" fill="black"/>
<path d="M163.508 219.331H246.712V222.62H163.508V219.331Z" fill="black"/>
<path d="M163.508 240.353H246.712V243.642H163.508V240.353Z" fill="black"/>
<path d="M163.508 261.375H246.712V264.664H163.508V261.375Z" fill="black"/>
<path d="M358.22 254.229C358.733 254.742 358.733 255.576 358.22 256.089L355.681 258.628C355.168 259.141 354.334 259.141 353.821 258.628L348.162 252.969L345.195 258.751C344.842 259.438 343.841 259.385 343.564 258.663L335.124 236.69C334.849 235.974 335.542 235.268 336.263 235.528L358.401 243.525C359.118 243.784 359.202 244.766 358.54 245.143L352.548 248.557L358.22 254.229Z" fill="white"/>
<path d="M46.2266 92.9778C46.2266 89.1674 49.3157 86.0782 53.1261 86.0782H197.361C201.172 86.0782 204.261 89.1674 204.261 92.9778C204.261 96.7883 201.172 99.8774 197.361 99.8774H53.1261C49.3157 99.8774 46.2266 96.7883 46.2266 92.9778V92.9778Z" fill="white"/>
</g>
<defs>
<clipPath id="clip0_1_1752">
<rect width="514" height="363" fill="white"/>
</clipPath>
</defs>
</svg>
