<svg width="586" height="444" viewBox="0 0 586 444" fill="none" xmlns="http://www.w3.org/2000/svg">
<g clip-path="url(#clip0_1_1592)">
<path d="M347.643 412.048H238.695L257.673 386.308H328.666L347.643 412.048Z" fill="#E45E47"/>
<path d="M412.359 443.749H173.977C173.977 426.245 188.158 412.053 205.661 412.053H380.674C398.178 412.053 412.359 426.245 412.359 443.749Z" fill="black"/>
<path d="M46.969 386.302C21.0714 386.302 0 365.231 0 339.333V47.2199C0 21.3213 21.0714 0.250854 46.969 0.250854H539.006C564.905 0.250854 585.975 21.3213 585.975 47.2199L585.999 72.7843V339.332C585.999 365.231 564.928 386.301 539.03 386.301H46.969V386.302Z" fill="black"/>
<path d="M561.391 72.7783L561.38 339.711C561.184 351.893 551.242 361.705 539.016 361.705H46.9577C34.6012 361.705 24.5938 351.687 24.5938 339.33V72.7783H561.391Z" fill="#2724F2"/>
<path d="M561.385 47.2139V72.7803H24.5938V47.2139C24.5938 34.8613 34.6072 24.8479 46.9597 24.8479H539.018C551.371 24.8479 561.385 34.8613 561.385 47.2139Z" fill="#E45E47"/>
<path d="M59.3461 55.0904C62.8122 55.0904 65.6219 52.2806 65.6219 48.8146C65.6219 45.3485 62.8122 42.5388 59.3461 42.5388C55.8801 42.5388 53.0703 45.3485 53.0703 48.8146C53.0703 52.2806 55.8801 55.0904 59.3461 55.0904Z" fill="white"/>
<path d="M90.7055 55.0904C94.1715 55.0904 96.9813 52.2806 96.9813 48.8146C96.9813 45.3485 94.1715 42.5388 90.7055 42.5388C87.2395 42.5388 84.4297 45.3485 84.4297 48.8146C84.4297 52.2806 87.2395 55.0904 90.7055 55.0904Z" fill="white"/>
<path d="M122.057 55.0904C125.523 55.0904 128.333 52.2806 128.333 48.8146C128.333 45.3485 125.523 42.5388 122.057 42.5388C118.591 42.5388 115.781 45.3485 115.781 48.8146C115.781 52.2806 118.591 55.0904 122.057 55.0904Z" fill="white"/>
</g>
<defs>
<clipPath id="clip0_1_1592">
<rect width="586" height="444" fill="white"/>
</clipPath>
</defs>
</svg>
