<svg width="437" height="401" viewBox="0 0 437 401" fill="none" xmlns="http://www.w3.org/2000/svg">
<g clip-path="url(#clip0_1_1869)">
<path d="M436.996 20.7441V44.3006H0V20.7441C0 9.36202 9.22667 0.135345 20.6078 0.135345H416.388C427.769 0.135345 436.996 9.36202 436.996 20.7441Z" fill="black"/>
<path d="M437 44.3006V380.252C437 391.634 427.773 400.861 416.392 400.861H20.6078C9.22667 400.86 0 391.633 0 380.252V44.3006H437Z" fill="#F5C845"/>
<path d="M40.8213 28.0007C44.0147 28.0007 46.6035 25.4119 46.6035 22.2185C46.6035 19.0251 44.0147 16.4363 40.8213 16.4363C37.6278 16.4363 35.0391 19.0251 35.0391 22.2185C35.0391 25.4119 37.6278 28.0007 40.8213 28.0007Z" fill="white"/>
<path d="M69.7119 28.0007C72.9053 28.0007 75.4941 25.4119 75.4941 22.2185C75.4941 19.0251 72.9053 16.4363 69.7119 16.4363C66.5185 16.4363 63.9297 19.0251 63.9297 22.2185C63.9297 25.4119 66.5185 28.0007 69.7119 28.0007Z" fill="white"/>
<path d="M98.6025 28.0007C101.796 28.0007 104.385 25.4119 104.385 22.2185C104.385 19.0251 101.796 16.4363 98.6025 16.4363C95.4091 16.4363 92.8203 19.0251 92.8203 22.2185C92.8203 25.4119 95.4091 28.0007 98.6025 28.0007Z" fill="white"/>
<path d="M149.211 0.135345H152.218V44.3006H149.211V0.135345Z" fill="white"/>
<path d="M243.133 0.135345H246.14V44.3006H243.133V0.135345Z" fill="white"/>
<path d="M337.062 0.135345H340.069V44.3006H337.062V0.135345Z" fill="white"/>
<path d="M357.351 88.1283C341.964 103.516 324.9 86.4266 309.512 101.802C294.137 117.19 311.201 134.279 295.826 149.653C280.451 165.029 263.363 147.951 247.987 163.327C232.612 178.714 249.689 195.791 234.314 211.166C229.507 215.96 224.539 217.586 219.522 218.046H201.253C200.98 218.009 200.706 218.009 200.421 218.046C195.391 217.586 190.423 215.96 185.617 211.166C170.242 195.791 187.331 178.714 171.943 163.327C156.568 147.951 139.492 165.029 124.104 149.653C108.729 134.278 125.806 117.19 110.431 101.802C95.0431 86.4276 77.9669 103.516 62.5914 88.1283C48.5351 74.0699 61.5879 58.6074 52.2109 44.3006H367.734C358.358 58.6074 371.398 74.0699 357.351 88.1283V88.1283Z" fill="white"/>
<path d="M277.274 400.86H142.667C134.172 400.86 128.414 392.249 131.646 384.397L155.698 314.841L174.727 259.844C176.916 253.515 178.034 246.866 178.034 240.169V206.549H241.906V240.172C241.906 246.867 243.023 253.515 245.212 259.842L264.232 314.831L288.305 384.397C291.547 392.249 285.779 400.86 277.274 400.86V400.86Z" fill="#E45E47"/>
<path d="M251.102 197.997C251.102 193.275 247.274 189.448 242.553 189.448H177.392C172.671 189.448 168.844 193.275 168.844 197.997C168.844 202.719 172.671 206.546 177.392 206.546H242.553C247.273 206.546 251.102 202.719 251.102 197.997V197.997Z" fill="black"/>
<path d="M277.273 400.865H142.664C134.164 400.865 128.407 392.245 131.638 384.395L155.697 314.841C160.196 319.829 164.728 324.762 173.717 324.762C191.835 324.762 191.835 304.649 209.962 304.649C228.08 304.649 228.08 324.762 246.219 324.762C255.207 324.762 259.74 319.818 264.229 314.83L288.299 384.394C291.541 392.245 285.774 400.865 277.273 400.865Z" fill="black"/>
<path d="M209.971 164.318C197.572 164.318 187.859 141.858 187.859 113.185C187.859 84.5125 197.572 62.0518 209.971 62.0518C222.369 62.0518 232.082 84.5125 232.082 113.185C232.082 141.858 222.37 164.318 209.971 164.318ZM209.971 65.0566C199.614 65.0566 190.864 87.0966 190.864 113.185C190.864 139.274 199.614 161.314 209.971 161.314C220.327 161.314 229.077 139.274 229.077 113.185C229.078 87.0966 220.328 65.0566 209.971 65.0566V65.0566Z" fill="black"/>
<path d="M181.059 145.257C173.516 145.257 168.153 143.021 165.688 138.751C162.612 133.423 164.533 125.769 171.099 117.198C177.388 108.986 187.267 100.76 198.914 94.0357C210.562 87.311 222.625 82.8689 232.881 81.5278C243.589 80.1276 251.177 82.291 254.252 87.6185C257.328 92.946 255.407 100.6 248.842 109.172C242.553 117.383 232.674 125.609 221.026 132.334C209.379 139.058 197.316 143.5 187.059 144.841C184.933 145.12 182.929 145.257 181.059 145.257V145.257ZM238.839 84.1209C237.112 84.1209 235.251 84.2481 233.273 84.5065C223.4 85.7976 211.732 90.1054 200.419 96.6378C189.106 103.17 179.54 111.12 173.486 119.024C167.791 126.46 165.898 133.102 168.291 137.248C170.685 141.395 177.383 143.077 186.671 141.862C196.543 140.571 208.212 136.263 219.525 129.73C230.838 123.199 240.403 115.248 246.458 107.344C252.153 99.908 254.046 93.2665 251.652 89.1199C249.768 85.8577 245.217 84.1209 238.839 84.1209V84.1209Z" fill="black"/>
<path d="M238.882 145.257C237.012 145.257 235.008 145.12 232.882 144.841C222.625 143.5 210.562 139.058 198.915 132.334C187.267 125.609 177.388 117.383 171.099 109.172C164.534 100.6 162.612 92.9459 165.689 87.6185C168.764 82.291 176.352 80.1286 187.06 81.5278C197.316 82.8689 209.379 87.311 221.027 94.0357C232.674 100.76 242.553 108.986 248.842 117.198C255.407 125.769 257.329 133.423 254.253 138.751C251.788 143.021 246.424 145.257 238.882 145.257ZM181.102 84.1209C174.722 84.1209 170.173 85.8577 168.289 89.1199C165.895 93.2665 167.788 99.908 173.483 107.344C179.538 115.248 189.103 123.199 200.416 129.73C211.729 136.262 223.398 140.571 233.27 141.862C242.556 143.077 249.256 141.394 251.649 137.248C254.043 133.102 252.15 126.46 246.455 119.024C240.401 111.12 230.835 103.169 219.522 96.6378C208.209 90.1064 196.541 85.7976 186.668 84.5065C184.691 84.2481 182.829 84.1209 181.102 84.1209Z" fill="black"/>
<path d="M209.967 123.637C215.74 123.637 220.419 118.957 220.419 113.185C220.419 107.413 215.74 102.734 209.967 102.734C204.195 102.734 199.516 107.413 199.516 113.185C199.516 118.957 204.195 123.637 209.967 123.637Z" fill="#E45E47"/>
<path d="M222.801 78.529C225.25 78.529 227.235 76.5438 227.235 74.095C227.235 71.6461 225.25 69.6609 222.801 69.6609C220.352 69.6609 218.367 71.6461 218.367 74.095C218.367 76.5438 220.352 78.529 222.801 78.529Z" fill="#E45E47"/>
<path d="M170.254 125.856C172.703 125.856 174.688 123.871 174.688 121.422C174.688 118.973 172.703 116.988 170.254 116.988C167.806 116.988 165.82 118.973 165.82 121.422C165.82 123.871 167.806 125.856 170.254 125.856Z" fill="#E45E47"/>
<path d="M238.223 148.066C240.672 148.066 242.657 146.08 242.657 143.632C242.657 141.183 240.672 139.198 238.223 139.198C235.774 139.198 233.789 141.183 233.789 143.632C233.789 146.08 235.774 148.066 238.223 148.066Z" fill="#E45E47"/>
<path d="M192.07 297.623C197.795 297.623 202.436 292.982 202.436 287.257C202.436 281.532 197.795 276.891 192.07 276.891C186.344 276.891 181.703 281.532 181.703 287.257C181.703 292.982 186.344 297.623 192.07 297.623Z" fill="white"/>
<path d="M227.186 275.304C230.964 275.304 234.028 272.241 234.028 268.462C234.028 264.683 230.964 261.62 227.186 261.62C223.407 261.62 220.344 264.683 220.344 268.462C220.344 272.241 223.407 275.304 227.186 275.304Z" fill="white"/>
<path d="M202.436 238.415C204.946 238.415 206.981 236.38 206.981 233.87C206.981 231.36 204.946 229.325 202.436 229.325C199.926 229.325 197.891 231.36 197.891 233.87C197.891 236.38 199.926 238.415 202.436 238.415Z" fill="white"/>
</g>
<defs>
<clipPath id="clip0_1_1869">
<rect width="437" height="401" fill="white"/>
</clipPath>
</defs>
</svg>
