<svg width="367" height="328" viewBox="0 0 367 328" fill="none" xmlns="http://www.w3.org/2000/svg">
<g clip-path="url(#clip0_1_1374)">
<path d="M367 21.5113V45.6043H0.00390625V21.5113C0.00390625 9.87038 9.44027 0.433014 21.0812 0.433014H345.923C357.564 0.433014 367 9.87038 367 21.5113V21.5113Z" fill="#E45E47"/>
<path d="M367 45.6043V306.49C367 318.131 357.563 327.568 345.922 327.568H21.0783C9.43637 327.567 0 318.131 0 306.49V45.6043H367Z" fill="#2724F2"/>
<path d="M30.5785 28.9332C33.845 28.9332 36.493 26.2851 36.493 23.0187C36.493 19.7522 33.845 17.1042 30.5785 17.1042C27.3121 17.1042 24.6641 19.7522 24.6641 23.0187C24.6641 26.2851 27.3121 28.9332 30.5785 28.9332Z" fill="white"/>
<path d="M60.1254 28.9332C63.3919 28.9332 66.0399 26.2851 66.0399 23.0187C66.0399 19.7522 63.3919 17.1042 60.1254 17.1042C56.8589 17.1042 54.2109 19.7522 54.2109 23.0187C54.2109 26.2851 56.8589 28.9332 60.1254 28.9332Z" fill="white"/>
<path d="M89.6762 28.9332C92.9427 28.9332 95.5907 26.2851 95.5907 23.0187C95.5907 19.7522 92.9427 17.1042 89.6762 17.1042C86.4097 17.1042 83.7617 19.7522 83.7617 23.0187C83.7617 26.2851 86.4097 28.9332 89.6762 28.9332Z" fill="white"/>
<path d="M123.844 0.433014H126.919V45.6053H123.844V0.433014Z" fill="white"/>
<path d="M189.309 0.433014H192.383V45.6053H189.309V0.433014Z" fill="white"/>
<path d="M254.773 0.433014H257.848V45.6053H254.773V0.433014Z" fill="white"/>
<path d="M320.242 0.433014H323.317V45.6053H320.242V0.433014Z" fill="white"/>
<path d="M52.2188 327.564H329.479L309.817 295.526C300.53 280.416 286.571 269.159 270.45 263.154C262.778 260.28 254.608 258.602 246.214 258.279C245.17 258.225 244.105 258.204 243.051 258.204H138.659C137.293 258.204 135.937 258.236 134.58 258.312C126.175 258.753 118.007 260.528 110.344 263.499C99.9907 267.502 90.5634 273.691 82.7294 281.654C80.3938 284.044 78.2203 286.552 76.1858 289.263C75.6796 289.92 75.1845 290.598 74.7004 291.265C73.6991 292.653 72.7629 294.096 71.8917 295.527C71.4186 296.269 70.9765 297.022 70.5033 297.809C68.1577 301.618 65.7141 305.589 63.1955 309.679C62.1942 311.293 61.194 312.982 60.1607 314.608C57.5461 318.868 54.8984 323.205 52.2188 327.564V327.564Z" fill="#E45E47"/>
<path d="M227.297 230.463V258.19L227.244 258.208H227.297C185.523 291.266 153.5 258.208 153.5 258.208H153.57L153.5 258.19V235.251C153.517 235.269 153.535 235.286 153.553 235.286C154.482 235.707 155.429 236.11 156.377 236.496C157.797 237.057 159.252 237.583 160.726 238.04C163.813 239.004 167.004 239.723 170.284 240.162C170.81 240.232 171.318 240.302 171.845 240.355C174.002 240.601 176.194 240.723 178.421 240.723H190.399C191.17 240.723 191.925 240.705 192.697 240.688C193.346 240.67 193.977 240.635 194.626 240.6C195.135 240.565 195.644 240.53 196.17 240.495C196.661 240.46 197.169 240.407 197.66 240.355C197.713 240.355 197.783 240.355 197.853 240.337C199.01 240.214 200.151 240.074 201.291 239.899C201.887 239.811 202.466 239.706 203.062 239.601C203.554 239.513 204.045 239.425 204.536 239.32C205.027 239.232 205.535 239.127 206.044 239.004C206.763 238.846 207.483 238.671 208.184 238.496C209.429 238.18 210.656 237.83 211.867 237.443C212.235 237.32 212.603 237.215 212.972 237.075C213.48 236.917 213.971 236.742 214.462 236.566C214.988 236.391 215.515 236.18 216.041 235.987C218.952 234.865 221.758 233.567 224.476 232.094C225.421 231.585 226.368 231.042 227.297 230.463V230.463Z" fill="#F5C845"/>
<path d="M227.295 230.533V242.213C191.694 258.663 155.216 236.32 153.551 235.286C154.48 235.707 155.427 236.11 156.374 236.496C157.795 237.057 159.25 237.583 160.724 238.04C163.81 239.004 167.002 239.723 170.282 240.162C170.808 240.232 171.316 240.302 171.842 240.355C174 240.601 176.191 240.723 178.419 240.723H190.397C191.168 240.723 191.922 240.705 192.695 240.688C193.344 240.67 193.975 240.635 194.624 240.6C195.133 240.565 195.641 240.53 196.167 240.495C196.677 240.46 197.167 240.407 197.658 240.355C197.711 240.355 197.781 240.355 197.851 240.337C199.008 240.214 200.148 240.074 201.289 239.899C201.885 239.811 202.481 239.706 203.06 239.601C203.551 239.513 204.042 239.425 204.534 239.32C205.025 239.232 205.533 239.127 206.042 239.004C206.761 238.846 207.48 238.671 208.181 238.496C209.427 238.18 210.654 237.83 211.864 237.443C212.232 237.32 212.601 237.215 212.97 237.075C213.478 236.917 213.969 236.742 214.46 236.566C214.986 236.391 215.512 236.18 216.038 235.987C218.95 234.865 221.756 233.567 224.474 232.094C225.419 231.62 226.348 231.094 227.295 230.533V230.533Z" fill="black"/>
<path d="M156.375 236.495C157.795 237.056 159.251 237.582 160.724 238.039C159.252 237.582 157.795 237.074 156.375 236.495Z" fill="#F5C845"/>
<path d="M118.926 181.232V107.032C118.926 67.4218 151.332 34.0054 190.941 34.2985C210.472 34.4425 228.132 42.4105 240.946 55.2247C253.879 68.177 261.875 86.0455 261.875 105.77V169.252C261.875 208.726 229.875 240.727 190.4 240.727H178.42C145.562 240.727 118.926 214.091 118.926 181.232V181.232Z" fill="#F5C845"/>
<path d="M261.878 105.794V113.606L120.5 90.8627C125.783 65.9564 144.06 45.8444 167.864 37.9504C174.942 35.5838 182.551 34.2995 190.425 34.2995C198.277 34.2995 205.865 35.5848 212.944 37.9504H212.964C241.399 47.3738 261.878 74.1775 261.878 105.794V105.794Z" fill="black"/>
<path d="M261.881 113.606V161.378L253.17 157.033C246.521 153.729 242.319 146.957 242.319 139.532V127.098C242.319 121.075 237.946 115.943 231.999 114.987L119.482 96.9002L65.3073 88.206C63.6379 87.9379 62.5006 86.3695 62.7646 84.6991C63.0297 83.0237 64.6051 81.8814 66.2795 82.1505L120.502 90.8627L261.881 113.606Z" fill="black"/>
<path d="M261.875 127.961C271.103 127.961 278.583 135.442 278.583 144.669C278.583 153.897 271.102 161.377 261.875 161.377V127.961Z" fill="#F5C845"/>
<path d="M171.525 185.815C171.431 185.815 171.336 185.806 171.24 185.788L163.586 184.316C161.409 183.897 159.546 182.545 158.474 180.604C157.402 178.665 157.248 176.367 158.051 174.302L166.72 152.023C167.02 151.251 167.889 150.868 168.662 151.169C169.434 151.47 169.816 152.339 169.516 153.111L160.848 175.39C160.368 176.623 160.46 177.995 161.1 179.153C161.74 180.311 162.853 181.119 164.153 181.369L171.807 182.842C172.62 182.998 173.153 183.785 172.997 184.598C172.858 185.316 172.23 185.815 171.525 185.815V185.815Z" fill="black"/>
<path d="M171.542 208.649C165.983 208.649 159.555 206.794 152.769 201.238C152.127 200.713 152.033 199.768 152.558 199.127C153.083 198.487 154.028 198.391 154.67 198.917C172.88 213.821 187.656 199.624 188.276 199.011C188.866 198.43 189.816 198.435 190.397 199.023C190.979 199.611 190.976 200.558 190.389 201.141C190.275 201.254 182.64 208.649 171.542 208.649V208.649Z" fill="black"/>
<path d="M199.844 160.303C205.687 160.303 210.423 155.567 210.423 149.724C210.423 143.882 205.687 139.146 199.844 139.146C194.002 139.146 189.266 143.882 189.266 149.724C189.266 155.567 194.002 160.303 199.844 160.303Z" fill="black"/>
<path d="M220.991 131.006C216.159 129.208 211.107 128.026 206.004 127.41C200.899 126.777 195.734 126.77 190.63 127.232L190.617 127.233C189.792 127.308 189.062 126.699 188.987 125.873C188.912 125.048 189.521 124.318 190.346 124.243C190.364 124.242 190.387 124.24 190.405 124.239C195.731 123.968 201.085 124.19 206.336 125.052C211.587 125.898 216.74 127.324 221.639 129.37C222.087 129.557 222.298 130.072 222.111 130.521C221.929 130.958 221.43 131.168 220.991 131.006V131.006Z" fill="black"/>
<path d="M138.122 160.303C143.964 160.303 148.7 155.567 148.7 149.724C148.7 143.882 143.964 139.146 138.122 139.146C132.279 139.146 127.543 143.882 127.543 149.724C127.543 155.567 132.279 160.303 138.122 160.303Z" fill="black"/>
<path d="M116.325 129.371C121.225 127.325 126.377 125.899 131.628 125.053C136.88 124.191 142.233 123.968 147.559 124.24C148.386 124.282 149.023 124.987 148.981 125.815C148.939 126.644 148.234 127.28 147.406 127.238C147.388 127.237 147.371 127.236 147.353 127.234L147.334 127.233C142.23 126.771 137.067 126.778 131.96 127.411C126.856 128.027 121.805 129.209 116.972 131.007C116.518 131.178 116.011 130.948 115.84 130.494C115.675 130.049 115.894 129.554 116.325 129.371V129.371Z" fill="black"/>
<path d="M246.211 258.278V327.563H270.447V263.153C262.773 260.28 254.605 258.601 246.211 258.278V258.278Z" fill="black"/>
<path d="M110.344 263.498V327.564H134.58V258.311C126.175 258.752 118.007 260.527 110.344 263.498V263.498Z" fill="black"/>
</g>
<defs>
<clipPath id="clip0_1_1374">
<rect width="367" height="328" fill="white"/>
</clipPath>
</defs>
</svg>
