<svg width="258" height="302" viewBox="0 0 258 302" fill="none" xmlns="http://www.w3.org/2000/svg">
<g clip-path="url(#clip0_1_2208)">
<path d="M243.943 76.1034L221.905 280.918C220.616 292.909 210.494 302 198.433 302H59.5714C47.5106 302 37.3903 292.909 36.0993 280.918L14.0625 76.1034H243.943Z" fill="black"/>
<path d="M247.895 40.9404H10.1012C4.56547 40.9404 0.078125 45.4277 0.078125 50.9635V66.0853C0.078125 71.6211 4.56547 76.1084 10.1012 76.1084H247.895C253.431 76.1084 257.918 71.6211 257.918 66.0853V50.9635C257.918 45.4277 253.431 40.9404 247.895 40.9404V40.9404Z" fill="#F5C845"/>
<path d="M197.255 40.9444H177.21L167.255 18.3443H90.7491L80.7822 40.9444H60.75L76.38 5.47863C77.8474 2.15196 81.137 0 84.7694 0H173.236C176.869 0 180.158 2.15196 181.626 5.47863L197.255 40.9444Z" fill="#2724F2"/>
<path d="M29.6094 40.9444H33.2798V76.1034H29.6094V40.9444Z" fill="white"/>
<path d="M77.8125 40.9444H81.483V76.1034H77.8125V40.9444Z" fill="white"/>
<path d="M126.016 40.9444H129.686V76.1034H126.016V40.9444Z" fill="white"/>
<path d="M174.227 40.9444H177.897V76.1034H174.227V40.9444Z" fill="white"/>
<path d="M222.43 40.9444H226.1V76.1034H222.43V40.9444Z" fill="white"/>
<path d="M129.003 240.815C162.931 240.815 190.435 213.311 190.435 179.382C190.435 145.454 162.931 117.95 129.003 117.95C95.0746 117.95 67.5703 145.454 67.5703 179.382C67.5703 213.311 95.0746 240.815 129.003 240.815Z" fill="#E45E47"/>
<path d="M152.452 192.943C155.185 195.675 155.185 200.101 152.452 202.833C151.082 204.204 149.293 204.88 147.504 204.88C145.715 204.88 143.925 204.203 142.556 202.833L129.005 189.283L115.446 202.832C114.076 204.203 112.287 204.879 110.498 204.879C108.709 204.879 106.918 204.202 105.549 202.832C102.817 200.1 102.817 195.674 105.549 192.942L119.106 179.383L105.549 165.826C102.817 163.094 102.817 158.661 105.549 155.928C108.282 153.203 112.715 153.203 115.447 155.928L129.004 169.487L142.555 155.928C145.294 153.203 149.72 153.203 152.452 155.928C155.185 158.661 155.185 163.094 152.452 165.826L138.895 179.383L152.452 192.943Z" fill="white"/>
</g>
<defs>
<clipPath id="clip0_1_2208">
<rect width="258" height="302" fill="white"/>
</clipPath>
</defs>
</svg>
