<svg width="3000" height="3000" viewBox="0 0 3000 3000" fill="none" xmlns="http://www.w3.org/2000/svg">
<g clip-path="url(#clip0_1_879)">
<path d="M883.332 1158.33C1013.73 1158.33 1119.44 1052.62 1119.44 922.22C1119.44 791.821 1013.73 686.111 883.332 686.111C752.932 686.111 647.223 791.821 647.223 922.22C647.223 1052.62 752.932 1158.33 883.332 1158.33Z" fill="#E45E47"/>
</g>
<g clip-path="url(#clip1_1_879)">
<path d="M2901.82 2561.1H2511.92C2503.7 2561.1 2497.89 2553.15 2500.45 2545.42L2590.81 2274C2592.35 2269.37 2588.86 2264.59 2583.93 2264.59H2553.52C2545.31 2264.59 2539.49 2256.64 2542.06 2248.92L2639.03 1957.61C2640.58 1952.98 2637.09 1948.2 2632.16 1948.2H2611.61C2603.39 1948.2 2597.58 1940.25 2600.15 1932.53L2695.39 1646.46C2699.04 1635.52 2714.67 1635.52 2718.32 1646.46L2813.56 1932.53C2816.13 1940.25 2810.32 1948.2 2802.1 1948.2H2781.56C2776.63 1948.2 2773.14 1952.98 2774.68 1957.61L2871.66 2248.92C2874.23 2256.64 2868.41 2264.59 2860.19 2264.59H2829.79C2824.86 2264.59 2821.37 2269.37 2822.91 2274L2913.27 2545.42C2915.85 2553.15 2910.03 2561.1 2901.82 2561.1V2561.1Z" fill="#F5C845"/>
<path d="M2672.38 2561.1H2163.9C2153.19 2561.1 2145.61 2550.73 2148.96 2540.66L2266.79 2186.69C2268.8 2180.65 2264.26 2174.43 2257.83 2174.43H2218.17C2207.46 2174.43 2199.87 2164.06 2203.22 2153.98L2329.69 1774.09C2331.7 1768.04 2327.15 1761.82 2320.72 1761.82H2293.93C2283.21 1761.82 2275.64 1751.45 2278.99 1741.38L2403.19 1368.32C2407.94 1354.05 2428.34 1354.05 2433.09 1368.32L2557.29 1741.38C2560.64 1751.45 2553.06 1761.82 2542.35 1761.82H2515.55C2509.12 1761.82 2504.57 1768.05 2506.59 1774.09L2633.05 2153.98C2636.41 2164.06 2628.82 2174.43 2618.11 2174.43H2578.45C2572.02 2174.43 2567.47 2180.65 2569.49 2186.69L2687.32 2540.66C2690.67 2550.73 2683.09 2561.1 2672.38 2561.1V2561.1Z" fill="#2724F2"/>
<path d="M787.916 2561.1H160.31C147.625 2561.1 138.648 2548.7 142.617 2536.66L282.092 2113.46C284.474 2106.23 279.087 2098.8 271.476 2098.8H224.545C211.861 2098.8 202.883 2086.4 206.852 2074.36L356.547 1620.15C358.929 1612.93 353.542 1605.49 345.932 1605.49H314.222C301.537 1605.49 292.56 1593.09 296.529 1581.05L443.549 1135.01C449.171 1117.96 473.311 1117.96 478.932 1135.01L625.953 1581.05C629.921 1593.09 620.948 1605.48 608.26 1605.48H576.55C568.939 1605.48 563.552 1612.92 565.934 1620.15L715.629 2074.35C719.598 2086.39 710.624 2098.79 697.936 2098.79H650.998C643.387 2098.79 638 2106.23 640.382 2113.45L787.916 2561.1Z" fill="#E45E47"/>
<path d="M1472.73 1797.42V2561.11H545.504V1840.25C545.504 1826.72 548.259 1813.33 553.602 1800.9C558.944 1788.47 566.762 1777.25 576.58 1767.94L1009.1 1357.61L1472.73 1797.42Z" fill="#F5C845"/>
<path d="M1472.73 1797.43H2384.21V2561.11H1472.73V1797.43Z" fill="#E45E47"/>
<path d="M2384.22 1797.42H1472.72L1468.62 1793.53L1009.12 1357.59L1920.55 1357.62L2384.22 1797.42Z" fill="black"/>
<path d="M1009.13 1797.42C1063.52 1797.42 1107.61 1753.36 1107.61 1699C1107.61 1644.65 1063.52 1600.59 1009.13 1600.59C954.745 1600.59 910.656 1644.65 910.656 1699C910.656 1753.36 954.745 1797.42 1009.13 1797.42Z" fill="white"/>
<path d="M2187.94 2298.88V2561.11H1668.99V2298.88C1668.99 2280.54 1683.86 2265.68 1702.21 2265.68H2154.73C2173.07 2265.68 2187.94 2280.54 2187.94 2298.88V2298.88Z" fill="black"/>
<path d="M901.274 2140H732.447C726.057 2140 719.928 2137.46 715.409 2132.94C710.89 2128.43 708.352 2122.3 708.352 2115.91V1947.19C708.352 1940.8 710.89 1934.67 715.409 1930.16C719.928 1925.64 726.057 1923.1 732.447 1923.1H901.274C907.665 1923.1 913.793 1925.64 918.312 1930.16C922.831 1934.67 925.37 1940.8 925.37 1947.19V2115.91C925.37 2122.3 922.831 2128.43 918.312 2132.94C913.793 2137.46 907.665 2140 901.274 2140V2140Z" fill="#E45E47"/>
<path d="M1861.91 2140H1693.08C1686.69 2140 1680.56 2137.46 1676.04 2132.94C1671.52 2128.43 1668.98 2122.3 1668.98 2115.91V1947.19C1668.98 1940.8 1671.52 1934.67 1676.04 1930.16C1680.56 1925.64 1686.69 1923.1 1693.08 1923.1H1861.91C1868.3 1923.1 1874.43 1925.64 1878.95 1930.16C1883.46 1934.67 1886 1940.8 1886 1947.19V2115.91C1886 2122.3 1883.46 2128.43 1878.95 2132.94C1874.43 2137.46 1868.3 2140 1861.91 2140V2140Z" fill="black"/>
<path d="M2163.85 2140H1995.02C1988.63 2140 1982.5 2137.46 1977.98 2132.94C1973.46 2128.43 1970.93 2122.3 1970.93 2115.91V1947.19C1970.93 1940.8 1973.46 1934.67 1977.98 1930.16C1982.5 1925.64 1988.63 1923.1 1995.02 1923.1H2163.85C2170.24 1923.1 2176.37 1925.64 2180.89 1930.16C2185.41 1934.67 2187.94 1940.8 2187.94 1947.19V2115.91C2187.94 2122.3 2185.41 2128.43 2180.89 2132.94C2176.37 2137.46 2170.24 2140 2163.85 2140V2140Z" fill="#F5C845"/>
<path d="M1289.98 2140H1121.15C1114.76 2140 1108.63 2137.46 1104.11 2132.94C1099.6 2128.43 1097.06 2122.3 1097.06 2115.91V1947.19C1097.06 1940.8 1099.6 1934.67 1104.11 1930.16C1108.63 1925.64 1114.76 1923.1 1121.15 1923.1H1289.98C1296.37 1923.1 1302.5 1925.64 1307.02 1930.16C1311.54 1934.67 1314.08 1940.8 1314.08 1947.19V2115.91C1314.08 2122.3 1311.54 2128.43 1307.02 2132.94C1302.5 2137.46 1296.37 2140 1289.98 2140V2140ZM925.37 2561.11H708.352V2289.76C708.352 2283.37 710.89 2277.25 715.409 2272.73C719.928 2268.22 726.057 2265.68 732.447 2265.68H901.274C907.665 2265.68 913.793 2268.22 918.312 2272.73C922.831 2277.25 925.37 2283.37 925.37 2289.76V2561.11Z" fill="black"/>
<path d="M1314.07 2561.11H1097.05V2289.76C1097.05 2283.37 1099.59 2277.25 1104.11 2272.73C1108.63 2268.22 1114.76 2265.68 1121.15 2265.68H1289.98C1296.37 2265.68 1302.5 2268.22 1307.02 2272.73C1311.53 2277.25 1314.07 2283.37 1314.07 2289.76V2561.11Z" fill="#2724F2"/>
<path d="M1169.48 1357.58V1509.73L1155.25 1496.21V1357.58H1169.48ZM1304.97 1357.58V1638.26L1290.73 1624.74V1357.58H1304.97ZM1440.45 1357.58V1766.79L1426.22 1753.31V1357.58H1440.45ZM1561.7 1357.58H1575.94V1797.42H1561.7V1357.58ZM1697.19 1357.58H1711.43V1797.42H1697.19V1357.58ZM1832.64 1357.59H1846.85V1797.42H1832.64V1357.59ZM1982.34 1416.24V1797.42H1968.12V1402.76L1982.34 1416.24ZM2117.82 1544.73V1797.42H2103.61V1531.25L2117.82 1544.73ZM2253.31 1673.26V1797.42H2239.09V1659.77L2253.31 1673.26Z" fill="white"/>
</g>
<g clip-path="url(#clip2_1_879)">
<path d="M938.888 994.444H430.555C438.658 935.459 482.608 944.335 489.936 945.043H490.205C493.689 944.986 496.959 943.105 498.673 939.857C503.463 930.779 510.442 923.221 518.892 917.963C527.342 912.706 536.957 909.937 546.748 909.943C555.858 909.943 564.378 912.281 571.937 916.381C575.687 918.376 580.138 916.551 582.012 912.507C596.052 882.08 625.367 861.111 659.399 861.111C693.162 861.111 722.424 881.797 736.467 911.881C740.433 918.945 747.616 919.118 752.919 913.933C765.619 901.114 782.876 893.137 801.797 893.137C832.076 893.137 857.908 913.307 868.092 941.626C871.469 951.198 879.454 954.618 889.099 953.079C891.348 952.736 893.654 952.453 895.959 952.453C918.523 952.45 937.012 970.968 938.888 994.444Z" fill="black"/>
</g>
<g clip-path="url(#clip3_1_879)">
<path d="M2258.9 1135.89C2256.13 1138.57 2256.13 1142.99 2258.86 1145.75L2282.3 1169.09C2283.6 1170.38 2284.63 1171.91 2285.33 1173.6C2286.04 1175.29 2286.4 1177.1 2286.4 1178.92C2286.4 1180.75 2286.04 1182.56 2285.33 1184.25C2284.63 1185.94 2283.6 1187.47 2282.3 1188.76L2258.86 1212.1C2258.21 1212.75 2257.69 1213.52 2257.34 1214.36C2256.99 1215.21 2256.81 1216.11 2256.81 1217.03C2256.81 1217.94 2256.99 1218.85 2257.34 1219.7C2257.69 1220.54 2258.21 1221.31 2258.86 1221.96L2282.3 1245.34C2284.92 1247.95 2286.4 1251.48 2286.4 1255.15C2286.4 1258.83 2284.92 1262.36 2282.3 1264.97L2258.86 1288.35C2258.21 1288.99 2257.69 1289.76 2257.34 1290.6C2256.99 1291.45 2256.81 1292.35 2256.82 1293.27C2256.82 1294.18 2257.01 1295.08 2257.36 1295.92C2257.72 1296.77 2258.24 1297.53 2258.9 1298.17L2281.57 1320.81C2283.09 1322.32 2284.31 1324.12 2285.14 1326.1C2285.97 1328.09 2286.39 1330.21 2286.4 1332.36V1347.95C2286.39 1352.04 2285.58 1356.09 2284 1359.87C2282.43 1363.65 2280.12 1367.08 2277.22 1369.97L2205.41 1441.44C2202.7 1444.16 2199.47 1446.32 2195.91 1447.8C2192.36 1449.27 2188.54 1450.02 2184.69 1450V1090.54C2218.49 1090.54 2250.42 1082.56 2278.69 1068.37C2281.3 1067.08 2283.87 1065.72 2286.4 1064.29V1101.7C2286.4 1106.04 2284.66 1110.19 2281.57 1113.24L2258.9 1135.89Z" fill="#F5C845"/>
<path d="M2184.69 1090.54V1450C2180.85 1450.01 2177.04 1449.26 2173.49 1447.79C2169.94 1446.32 2166.71 1444.16 2164.01 1441.43L2092.24 1369.97C2089.33 1367.08 2087.02 1363.65 2085.45 1359.87C2083.88 1356.09 2083.06 1352.04 2083.06 1347.95V1064.33C2085.6 1065.76 2088.15 1067.12 2090.76 1068.41C2119 1082.56 2150.92 1090.54 2184.69 1090.54V1090.54Z" fill="black"/>
<path d="M2184.71 672.222C2068.9 672.222 1975 765.872 1975 881.363C1975 963.173 2022.13 1034.04 2090.75 1068.4C2119.01 1082.56 2150.91 1090.53 2184.71 1090.53C2218.51 1090.53 2250.44 1082.56 2278.7 1068.38C2347.35 1034.04 2394.45 963.173 2394.45 881.363C2394.44 765.872 2300.54 672.222 2184.71 672.222ZM2210.41 855.706C2202.68 859.601 2193.95 861.786 2184.71 861.786C2175.48 861.786 2166.77 859.601 2159.04 855.734C2140.28 846.339 2127.4 826.973 2127.4 804.607C2127.4 773.057 2153.08 747.455 2184.71 747.455C2216.37 747.455 2242.04 773.06 2242.04 804.607C2242.05 815.214 2239.09 825.613 2233.51 834.638C2227.92 843.664 2219.92 850.959 2210.41 855.706V855.706Z" fill="#E45E47"/>
</g>
<g clip-path="url(#clip4_1_879)">
<path d="M1816.67 690.767V1111.3C1816.67 1137.53 1795.4 1158.79 1769.18 1158.79H1328.04C1301.82 1158.79 1280.55 1137.53 1280.55 1111.3V525.263C1280.55 499.038 1301.82 477.778 1328.04 477.778H1603.33V690.767H1816.67Z" fill="white"/>
<path d="M1816.67 690.767V1111.3C1816.67 1137.53 1795.4 1158.79 1769.18 1158.79H1328.04C1301.82 1158.79 1280.55 1137.53 1280.55 1111.3V525.263C1280.55 499.038 1301.82 477.778 1328.04 477.778H1603.33V690.767H1816.67Z" fill="#F5C845"/>
<path d="M1816.63 690.911H1603.22V477.806L1816.63 690.911ZM1352.5 672.247H1531.38V690.767H1352.5V672.247ZM1352.5 764.3H1744.72V782.82H1352.5V764.3ZM1352.5 856.349H1744.72V874.869H1352.5V856.349ZM1352.5 948.398H1531.38V966.918H1352.5V948.398ZM1352.5 1040.45H1531.38V1058.97H1352.5V1040.45Z" fill="black"/>
<path d="M1725.88 1106.8V1238.89L1674.02 1208.98L1622.16 1238.89V1106.8C1625.65 1104.63 1629.46 1103.59 1633.24 1103.59C1642.53 1103.59 1651.37 1109.88 1653.65 1119.91C1656.09 1130.74 1665.04 1136.19 1674.02 1136.19C1683 1136.19 1691.95 1130.74 1694.39 1119.91C1696.66 1109.88 1705.51 1103.59 1714.84 1103.59C1718.58 1103.59 1722.42 1104.63 1725.88 1106.8V1106.8Z" fill="#E45E47"/>
<path d="M1694.4 932.334C1697.58 946.409 1713.73 953.098 1725.93 945.396C1744.76 933.508 1766.64 955.39 1754.75 974.214C1747.05 986.413 1753.74 1002.56 1767.81 1005.74C1789.53 1010.65 1789.53 1041.59 1767.81 1046.5C1753.74 1049.68 1747.05 1065.83 1754.75 1078.03C1766.64 1096.85 1744.76 1118.73 1725.93 1106.85C1713.73 1099.14 1697.58 1105.83 1694.4 1119.91C1689.49 1141.63 1658.55 1141.63 1653.64 1119.91C1650.46 1105.83 1634.31 1099.15 1622.11 1106.85C1603.29 1118.73 1581.4 1096.85 1593.29 1078.03C1601 1065.83 1594.31 1049.68 1580.23 1046.5C1558.51 1041.59 1558.51 1010.65 1580.23 1005.74C1594.31 1002.56 1601 986.413 1593.29 974.214C1581.4 955.39 1603.29 933.508 1622.11 945.396C1634.31 953.101 1650.46 946.409 1653.64 932.334C1658.55 910.616 1689.49 910.616 1694.4 932.334Z" fill="black"/>
<path d="M1674.02 1071.55C1699.11 1071.55 1719.45 1051.21 1719.45 1026.12C1719.45 1001.03 1699.11 980.693 1674.02 980.693C1648.93 980.693 1628.59 1001.03 1628.59 1026.12C1628.59 1051.21 1648.93 1071.55 1674.02 1071.55Z" fill="white"/>
</g>
<defs>
<clipPath id="clip0_1_879">
<rect width="472.222" height="472.222" fill="white" transform="translate(647.223 686.111)"/>
</clipPath>
<clipPath id="clip1_1_879">
<rect width="2772.22" height="1438.89" fill="white" transform="translate(141.668 1122.22)"/>
</clipPath>
<clipPath id="clip2_1_879">
<rect width="508.333" height="133.333" fill="white" transform="translate(430.555 861.111)"/>
</clipPath>
<clipPath id="clip3_1_879">
<rect width="419.444" height="777.778" fill="white" transform="translate(1975 672.222)"/>
</clipPath>
<clipPath id="clip4_1_879">
<rect width="536.111" height="761.111" fill="white" transform="translate(1280.55 477.778)"/>
</clipPath>
</defs>
</svg>
