<svg width="162" height="174" viewBox="0 0 162 174" fill="none" xmlns="http://www.w3.org/2000/svg">
<g clip-path="url(#clip0_1_1704)">
<path d="M144.894 173.885H17.106C7.65843 173.885 0 166.227 0 156.779V17.2207C0 7.77313 7.65843 0.1147 17.106 0.1147H144.893C154.341 0.1147 161.999 7.77313 161.999 17.2207V156.779C162 166.227 154.342 173.885 144.894 173.885V173.885Z" fill="#F5C845"/>
<path d="M15.3359 43.8295V18.464C15.3359 16.8013 16.6836 15.4536 18.3463 15.4536H143.647C145.309 15.4536 146.657 16.8013 146.657 18.464V43.8295C146.657 45.4923 145.309 46.8399 143.647 46.8399H18.3463C16.6846 46.8399 15.3359 45.4923 15.3359 43.8295V43.8295Z" fill="#2724F2"/>
<path d="M38.7849 62.1788H18.3463C16.6836 62.1788 15.3359 63.5265 15.3359 65.1892V85.6268C15.3359 87.2895 16.6836 88.6371 18.3463 88.6371H38.7838C40.4466 88.6371 41.7942 87.2895 41.7942 85.6268V65.1892C41.7952 63.5275 40.4466 62.1788 38.7849 62.1788V62.1788Z" fill="#E45E47"/>
<path d="M73.7448 62.1788H53.3073C51.6445 62.1788 50.2969 63.5265 50.2969 65.1892V85.6268C50.2969 87.2895 51.6445 88.6371 53.3073 88.6371H73.7448C75.4075 88.6371 76.7552 87.2895 76.7552 85.6268V65.1892C76.7552 63.5275 75.4075 62.1788 73.7448 62.1788V62.1788Z" fill="black"/>
<path d="M108.698 62.1788H88.2604C86.5977 62.1788 85.25 63.5265 85.25 65.1892V85.6268C85.25 87.2895 86.5977 88.6371 88.2604 88.6371H108.698C110.361 88.6371 111.708 87.2895 111.708 85.6268V65.1892C111.708 63.5275 110.361 62.1788 108.698 62.1788V62.1788Z" fill="black"/>
<path d="M143.651 62.1788H123.214C121.551 62.1788 120.203 63.5265 120.203 65.1892V85.6268C120.203 87.2895 121.551 88.6371 123.214 88.6371H143.651C145.314 88.6371 146.661 87.2895 146.661 85.6268V65.1892C146.661 63.5275 145.314 62.1788 143.651 62.1788V62.1788Z" fill="black"/>
<path d="M38.7849 97.1335H18.3463C16.6836 97.1335 15.3359 98.4811 15.3359 100.144V120.581C15.3359 122.244 16.6836 123.592 18.3463 123.592H38.7838C40.4466 123.592 41.7942 122.244 41.7942 120.581V100.144C41.7952 98.4811 40.4466 97.1335 38.7849 97.1335Z" fill="white"/>
<path d="M73.737 97.1335H53.2995C51.6367 97.1335 50.2891 98.4811 50.2891 100.144V120.581C50.2891 122.244 51.6367 123.592 53.2995 123.592H73.737C75.3997 123.592 76.7474 122.244 76.7474 120.581V100.144C76.7474 98.4811 75.3997 97.1335 73.737 97.1335Z" fill="white"/>
<path d="M108.69 97.1335H88.2526C86.5898 97.1335 85.2422 98.4811 85.2422 100.144V120.581C85.2422 122.244 86.5898 123.592 88.2526 123.592H108.69C110.353 123.592 111.7 122.244 111.7 120.581V100.144C111.7 98.4811 110.353 97.1335 108.69 97.1335Z" fill="white"/>
<path d="M143.651 97.1335H123.214C121.551 97.1335 120.203 98.4811 120.203 100.144V120.581C120.203 122.244 121.551 123.592 123.214 123.592H143.651C145.314 123.592 146.661 122.244 146.661 120.581V100.144C146.661 98.4811 145.314 97.1335 143.651 97.1335Z" fill="white"/>
<path d="M38.7849 132.088H18.3463C16.6836 132.088 15.3359 133.436 15.3359 135.098V155.536C15.3359 157.199 16.6836 158.546 18.3463 158.546H38.7838C40.4466 158.546 41.7942 157.199 41.7942 155.536V135.098C41.7952 133.436 40.4466 132.088 38.7849 132.088Z" fill="white"/>
<path d="M73.737 132.088H53.2995C51.6367 132.088 50.2891 133.436 50.2891 135.098V155.536C50.2891 157.199 51.6367 158.546 53.2995 158.546H73.737C75.3997 158.546 76.7474 157.199 76.7474 155.536V135.098C76.7474 133.436 75.3997 132.088 73.737 132.088Z" fill="white"/>
<path d="M143.653 132.088H88.2604C86.5977 132.088 85.25 133.436 85.25 135.098V155.536C85.25 157.199 86.5977 158.546 88.2604 158.546H143.653C145.315 158.546 146.663 157.199 146.663 155.536V135.098C146.663 133.436 145.315 132.088 143.653 132.088Z" fill="black"/>
<path d="M137.453 23.2231V39.0698H128.275V23.2231H137.453Z" fill="white"/>
<path d="M120.258 23.2236V39.0703H111.08V23.2236H120.258Z" fill="white"/>
<path d="M103.062 23.223V39.0697H93.8848V23.223H103.062Z" fill="white"/>
</g>
<defs>
<clipPath id="clip0_1_1704">
<rect width="162" height="174" fill="white"/>
</clipPath>
</defs>
</svg>
