<svg width="154" height="218" viewBox="0 0 154 218" fill="none" xmlns="http://www.w3.org/2000/svg">
<g clip-path="url(#clip0_1_2036)">
<path d="M153.773 61.0052V181.456C153.773 188.968 147.684 195.057 140.173 195.057H13.8274C6.31587 195.057 0.226562 188.968 0.226562 181.456V13.6009C0.226562 6.08931 6.31587 0 13.8274 0H92.6731V61.0052H153.773Z" fill="white"/>
<path d="M153.773 61.0052V181.456C153.773 188.968 147.684 195.057 140.173 195.057H13.8274C6.31587 195.057 0.226562 188.968 0.226562 181.456V13.6009C0.226562 6.08931 6.31587 0 13.8274 0H92.6731V61.0052H153.773Z" fill="#F5C845"/>
<path d="M153.763 61.0462H92.6406V0.00799561L153.763 61.0462Z" fill="black"/>
<path d="M20.8359 55.7005H72.0686V61.0052H20.8359V55.7005Z" fill="black"/>
<path d="M20.8359 82.0665H133.169V87.3711H20.8359V82.0665Z" fill="black"/>
<path d="M20.8359 108.432H133.169V113.736H20.8359V108.432Z" fill="black"/>
<path d="M20.8359 134.796H72.0686V140.101H20.8359V134.796Z" fill="black"/>
<path d="M20.8359 161.161H72.0686V166.466H20.8359V161.161Z" fill="black"/>
<path d="M127.768 180.167V218L112.915 209.433L98.0625 218V180.167C99.0634 179.546 100.154 179.246 101.235 179.246C103.898 179.246 106.43 181.048 107.08 183.92C107.781 187.023 110.343 188.584 112.915 188.584C115.488 188.584 118.05 187.023 118.751 183.92C119.401 181.048 121.933 179.246 124.606 179.246C125.677 179.246 126.778 179.546 127.768 180.167V180.167Z" fill="#E45E47"/>
<path d="M118.755 130.195C119.666 134.227 124.292 136.143 127.786 133.937C133.178 130.532 139.445 136.799 136.041 142.191C133.834 145.685 135.75 150.311 139.782 151.222C146.002 152.627 146.002 161.49 139.782 162.895C135.75 163.806 133.835 168.432 136.041 171.926C139.445 177.318 133.178 183.585 127.786 180.18C124.292 177.973 119.666 179.89 118.755 183.921C117.35 190.142 108.487 190.142 107.082 183.921C106.171 179.89 101.545 177.974 98.0514 180.18C92.6597 183.585 86.3922 177.318 89.7972 171.926C92.0041 168.432 90.0875 163.806 86.0559 162.895C79.8355 161.49 79.8355 152.627 86.0559 151.222C90.0875 150.311 92.0031 145.685 89.7972 142.191C86.3922 136.799 92.6597 130.532 98.0514 133.937C101.545 136.144 106.171 134.227 107.082 130.195C108.487 123.975 117.35 123.975 118.755 130.195Z" fill="black"/>
<path d="M112.918 170.069C120.104 170.069 125.929 164.244 125.929 157.058C125.929 149.872 120.104 144.047 112.918 144.047C105.732 144.047 99.9062 149.872 99.9062 157.058C99.9062 164.244 105.732 170.069 112.918 170.069Z" fill="white"/>
</g>
<defs>
<clipPath id="clip0_1_2036">
<rect width="154" height="218" fill="white"/>
</clipPath>
</defs>
</svg>
