<svg width="320" height="178" viewBox="0 0 320 178" fill="none" xmlns="http://www.w3.org/2000/svg">
<g clip-path="url(#clip0_1_2110)">
<path d="M320 177.963H79.4819C57.5324 177.963 39.7409 160.172 39.7409 138.222H39.7509V39.7777C39.7509 17.8282 21.9495 0.0367584 0 0.0367584H240.508C262.458 0.0367584 280.249 17.8282 280.249 39.7777V138.222C280.248 160.171 298.051 177.963 320 177.963Z" fill="#E45E47"/>
<path d="M236.852 54.2783H83.1591C79.8353 54.2783 77.1406 51.5836 77.1406 48.2598V47.8197C77.1406 44.4959 79.8353 41.8012 83.1591 41.8012H236.852C240.175 41.8012 242.87 44.4959 242.87 47.8197V48.2598C242.869 51.5836 240.175 54.2783 236.852 54.2783Z" fill="white"/>
<path d="M236.852 79.2316H83.1591C79.8353 79.2316 77.1406 76.5369 77.1406 73.213V72.7729C77.1406 69.4491 79.8353 66.7544 83.1591 66.7544H236.852C240.175 66.7544 242.87 69.4491 242.87 72.7729V73.213C242.869 76.5369 240.175 79.2316 236.852 79.2316Z" fill="white"/>
<path d="M236.852 104.184H83.1591C79.8353 104.184 77.1406 101.489 77.1406 98.1653V97.7252C77.1406 94.4013 79.8353 91.7067 83.1591 91.7067H236.852C240.175 91.7067 242.87 94.4013 242.87 97.7252V98.1653C242.869 101.489 240.175 104.184 236.852 104.184Z" fill="white"/>
<path d="M133.251 129.137H83.1591C79.8353 129.137 77.1406 126.442 77.1406 123.119V122.678C77.1406 119.355 79.8353 116.66 83.1591 116.66H133.251C136.574 116.66 139.269 119.355 139.269 122.678V123.119C139.269 126.442 136.574 129.137 133.251 129.137Z" fill="white"/>
</g>
<defs>
<clipPath id="clip0_1_2110">
<rect width="320" height="178" fill="white"/>
</clipPath>
</defs>
</svg>
