<svg width="91" height="91" viewBox="0 0 91 91" fill="none" xmlns="http://www.w3.org/2000/svg">
<g clip-path="url(#clip0_1_2263)">
<path d="M45.5005 91.001C70.6297 91.001 91.001 70.6297 91.001 45.5005C91.001 20.3713 70.6297 0 45.5005 0C20.3713 0 0 20.3713 0 45.5005C0 70.6297 20.3713 91.001 45.5005 91.001Z" fill="#E45E47"/>
<path d="M23.1779 47.2018C21.1595 45.1833 21.1595 41.8972 23.1779 39.8788C25.2074 37.8604 28.4824 37.8604 30.5119 39.8788L40.5478 49.9147L60.4802 29.9824C62.5097 27.9639 65.7958 27.9639 67.8142 29.9824C69.8437 32.0008 69.8437 35.2869 67.8142 37.3053L44.0296 61.0899C42.1066 63.013 38.9891 63.013 37.067 61.0899L23.1779 47.2018Z" fill="white"/>
</g>
<defs>
<clipPath id="clip0_1_2263">
<rect width="91" height="91" fill="white"/>
</clipPath>
</defs>
</svg>
