<svg width="128" height="162" viewBox="0 0 128 162" fill="none" xmlns="http://www.w3.org/2000/svg">
<g clip-path="url(#clip0_1_1962)">
<path d="M128 80.1145V143.537C128 153.654 119.802 161.851 109.685 161.851H18.315C8.198 161.852 0 153.654 0 143.537V80.1145C0 69.9975 8.198 61.7995 18.315 61.7995H109.685C119.802 61.7995 128 69.9975 128 80.1145V80.1145Z" fill="#E45E47"/>
<path d="M103.948 40.0935V61.7995H85.3157V40.0935C85.3157 28.3365 75.7577 18.7785 64.0007 18.7785C52.2437 18.7785 42.6867 28.3375 42.6867 40.0935V61.7995H24.0547V40.0935C24.0547 18.0615 41.9777 0.147507 64.0007 0.147507C86.0327 0.147507 103.948 18.0615 103.948 40.0935Z" fill="black"/>
<path d="M79.9519 101.145C79.9519 107.056 76.7419 112.211 71.9679 114.967V130.491C71.9679 132.692 71.0789 134.687 69.6319 136.125C68.1939 137.571 66.1999 138.461 63.9989 138.461C59.5979 138.461 56.0309 134.894 56.0309 130.493V114.967C51.2559 112.21 48.0469 107.055 48.0469 101.145C48.0469 92.3335 55.1889 85.1915 63.9999 85.1915C72.8109 85.1915 79.9519 92.3335 79.9519 101.145V101.145Z" fill="black"/>
</g>
<defs>
<clipPath id="clip0_1_1962">
<rect width="128" height="162" fill="white"/>
</clipPath>
</defs>
</svg>
