<svg width="3000" height="3000" viewBox="0 0 3000 3000" fill="none" xmlns="http://www.w3.org/2000/svg">
<g clip-path="url(#clip0_1_1212)">
<path d="M2855.55 513.167V588.55H991.672V513.167C991.672 476.748 1021.21 447.222 1057.65 447.222H2789.57C2826.01 447.222 2855.55 476.748 2855.55 513.167V513.167Z" fill="black"/>
<path d="M2855.56 588.55V1697.94C2855.56 1734.36 2826.02 1763.89 2789.58 1763.89H1057.65C1021.21 1763.89 991.668 1734.36 991.668 1697.94V588.55H2855.56Z" fill="#2724F2"/>
<path d="M1516.61 447.222H1527.5V588.55H1516.61V447.222ZM1737.66 447.222H1748.55V588.55H1737.66V447.222ZM1958.72 447.222H1969.61V588.55H1958.72V447.222ZM2179.78 447.222H2190.67V588.55H2179.78V447.222ZM2400.84 447.222H2411.73V588.55H2400.84V447.222ZM2621.89 447.222H2632.78V588.55H2621.89V447.222Z" fill="white"/>
<path d="M1102.78 540.091C1115.05 540.091 1124.99 530.149 1124.99 517.884C1124.99 505.62 1115.05 495.678 1102.78 495.678C1090.51 495.678 1080.56 505.62 1080.56 517.884C1080.56 530.149 1090.51 540.091 1102.78 540.091Z" fill="white"/>
<path d="M1213.79 540.091C1226.06 540.091 1236.01 530.149 1236.01 517.884C1236.01 505.62 1226.06 495.678 1213.79 495.678C1201.52 495.678 1191.57 505.62 1191.57 517.884C1191.57 530.149 1201.52 540.091 1213.79 540.091Z" fill="white"/>
<path d="M1324.8 540.091C1337.07 540.091 1347.02 530.149 1347.02 517.884C1347.02 505.62 1337.07 495.678 1324.8 495.678C1312.53 495.678 1302.59 505.62 1302.59 517.884C1302.59 530.149 1312.53 540.091 1324.8 540.091Z" fill="white"/>
</g>
<g clip-path="url(#clip1_1_1212)">
<path d="M1383.34 1183.99V1245.76C1307.39 1245.76 1245.89 1307.34 1245.89 1383.17V1183.99H1383.34Z" fill="black"/>
<path d="M436.211 998.495H1245.85V1183.99H436.211V998.495Z" fill="#E45E47"/>
<path d="M1246.12 963.351V998.48H436.219V963.351C436.219 892.935 493.346 835.818 563.781 835.818H1118.28C1188.71 835.818 1245.84 892.935 1245.84 963.351H1246.12ZM1245.88 1288.87V2299.41H436.219V1288.91L1245.88 1288.87Z" fill="#F5C845"/>
<path d="M1317.18 2340.73V2391.67H365.059V2340.73C365.059 2317.92 383.497 2299.39 406.407 2299.39H1275.83C1298.65 2299.39 1317.18 2317.92 1317.18 2340.73ZM268.921 1311.52V1989.45C268.921 2001.89 278.998 2012.06 291.45 2012.06H436.213V2116.97H291.45C221.018 2116.97 163.891 2059.86 163.891 1989.44V1311.52C163.891 1241.11 221.018 1183.99 291.45 1183.99H436.213V1288.9H291.45C278.998 1288.9 268.921 1299.07 268.921 1311.52Z" fill="black"/>
<path d="M436.211 2012.06H436.306V2116.97H436.211V2012.06Z" fill="black"/>
<path d="M1245.94 1183.99L1245.85 1288.9H436.211V1183.99H1245.94Z" fill="#2724F2"/>
<path d="M1090.92 2012.06V2068.6C1090.92 2095.31 1069.34 2116.97 1042.63 2116.97H639.716C613.007 2116.97 591.336 2095.31 591.336 2068.6V2012.06H794.27V1288.9H887.894V2012.06H1090.92ZM791.313 777.572H890.829V835.77H791.313V777.572Z" fill="black"/>
<path d="M890.832 777.572H791.316C791.313 750.11 813.555 727.778 841.023 727.778C868.494 727.778 890.832 750.11 890.832 777.572V777.572Z" fill="#F5C845"/>
<path d="M572.457 998.495H585.26V1183.99H572.457V998.495ZM747.33 998.495H760.133V1183.99H747.33V998.495ZM922.206 998.495H935.009V1183.99H922.206V998.495ZM1097.08 998.495H1109.88V1183.99H1097.08V998.495Z" fill="white"/>
</g>
<g clip-path="url(#clip2_1_1212)">
<path d="M2480.55 891.687C2480.55 894.08 2480.52 896.473 2480.44 898.826C2476.67 1004.45 2389.87 1088.89 2283.33 1088.89C2176.8 1088.89 2089.99 1004.45 2086.22 898.826C2086.07 894.055 2086.07 889.281 2086.22 884.511C2089.99 778.927 2176.8 694.444 2283.33 694.444C2389.87 694.444 2476.67 778.927 2480.44 884.508C2480.52 886.901 2480.55 889.294 2480.55 891.687V891.687Z" fill="#E45E47"/>
<path d="M2430.37 891.684C2430.37 893.454 2430.33 895.227 2430.26 896.997C2427.45 975.716 2362.75 1038.67 2283.33 1038.67C2203.91 1038.67 2139.21 975.716 2136.4 896.997C2136.26 893.445 2136.26 889.888 2136.4 886.336C2139.21 807.618 2203.91 744.664 2283.33 744.664C2362.76 744.664 2427.45 807.618 2430.26 886.336C2430.33 888.106 2430.37 889.879 2430.37 891.684Z" fill="white"/>
<path d="M2329.5 863.567L2302.64 890.904C2302.58 888.947 2302.2 887.013 2301.53 885.175C2301.53 885.064 2301.49 884.988 2301.45 884.878C2300.38 882.025 2298.65 879.466 2296.4 877.41C2294.15 875.354 2291.44 873.859 2288.5 873.046L2313.39 847.642C2315.5 845.514 2318.37 844.311 2321.37 844.296C2324.37 844.282 2327.26 845.458 2329.39 847.567C2333.85 851.922 2333.89 859.101 2329.5 863.567V863.567ZM2276.86 873.454C2274.2 874.399 2271.79 875.911 2269.77 877.883C2267.76 879.855 2266.21 882.241 2265.21 884.875C2265.17 884.985 2265.13 885.061 2265.13 885.172C2264.37 887.257 2263.98 889.46 2263.98 891.681C2263.98 891.905 2263.98 892.127 2264.02 892.313L2209.29 845.45C2208.19 844.461 2207.29 843.263 2206.64 841.925C2206 840.588 2205.62 839.136 2205.54 837.654C2205.46 836.172 2205.67 834.687 2206.16 833.286C2206.65 831.885 2207.41 830.594 2208.4 829.487C2212.53 824.838 2219.67 824.428 2224.36 828.559L2276.86 873.454Z" fill="#2724F2"/>
<path d="M2367.8 962.6C2367.27 963.241 2366.6 963.756 2365.85 964.11C2365.1 964.464 2364.28 964.647 2363.45 964.647C2362.18 964.647 2360.88 964.201 2359.84 963.308L2293.82 907.871C2297.09 905.802 2299.64 902.792 2301.16 899.239L2367.09 954.638C2369.51 956.647 2369.81 960.219 2367.8 962.6V962.6Z" fill="#F5C845"/>
<path d="M2302.68 891.684C2302.68 902.363 2294.01 910.995 2283.33 910.995C2272.65 910.995 2263.98 902.363 2263.98 891.684C2263.98 889.378 2264.39 887.218 2265.13 885.174C2265.13 885.064 2265.17 884.988 2265.21 884.878C2267.96 877.547 2275.03 872.339 2283.33 872.339C2291.63 872.339 2298.7 877.547 2301.45 884.878C2301.49 884.988 2301.53 885.064 2301.53 885.174C2302.27 887.221 2302.68 889.378 2302.68 891.684Z" fill="#E45E47"/>
</g>
<g clip-path="url(#clip3_1_1212)">
<path d="M2240.31 1266.19L2112.88 1591.23H1698.25L1570.82 1266.19C1556.23 1229.05 1583.69 1188.89 1623.6 1188.89H2187.53C2227.44 1188.89 2254.9 1229.05 2240.31 1266.19ZM2272.19 2327.75C2272.19 2330.34 2272.09 2332.93 2271.9 2335.44C2271.72 2337.96 2271.39 2340.51 2271.06 2342.99C2270.66 2345.43 2270.19 2347.87 2269.6 2350.27C2269.06 2352.68 2268.4 2355.08 2267.67 2357.45C2266.69 2360.62 2265.52 2363.65 2264.32 2366.63C2263.08 2369.7 2261.65 2372.54 2260.12 2375.42V2375.45C2259.5 2376.58 2258.81 2377.71 2258.11 2378.84C2257.46 2379.9 2256.8 2380.99 2256.11 2382.05C2255.82 2382.56 2255.49 2383.1 2255.12 2383.61C2254.76 2384.16 2254.39 2384.71 2253.96 2385.25C2253.15 2386.42 2252.28 2387.59 2251.44 2388.72C2250.56 2389.85 2249.62 2390.98 2248.74 2392.07C2246.88 2394.22 2244.87 2396.37 2242.83 2398.45C2241.92 2399.32 2241.01 2400.23 2240.13 2401.03C2239.55 2401.58 2238.96 2402.09 2238.34 2402.64C2236.26 2404.49 2234.08 2406.21 2231.92 2407.85C2229.33 2409.78 2226.67 2411.56 2223.97 2413.24C2219.81 2415.74 2215.47 2417.95 2210.99 2419.83L2210.95 2419.87C2209.45 2420.49 2207.96 2421.07 2206.43 2421.62C2205 2422.17 2203.54 2422.68 2202.12 2423.11C2201.9 2423.19 2201.72 2423.22 2201.57 2423.3C2200.04 2423.77 2198.55 2424.21 2197.05 2424.57C2197.01 2424.57 2196.98 2424.61 2196.98 2424.61C2195.37 2425.01 2193.77 2425.37 2192.16 2425.7C2188.95 2426.43 2185.6 2426.9 2182.24 2427.23C2178.85 2427.6 2175.42 2427.78 2171.96 2427.78H1639.13C1635.67 2427.78 1632.24 2427.6 1628.88 2427.23C1625.52 2426.9 1622.2 2426.43 1618.96 2425.7C1614.11 2424.75 1609.33 2423.37 1604.73 2421.66C1603.2 2421.07 1601.67 2420.49 1600.17 2419.87C1598.68 2419.25 1597.18 2418.56 1595.76 2417.87C1594.26 2417.14 1592.88 2416.41 1591.42 2415.68C1588.57 2414.11 1585.76 2412.44 1583.14 2410.65C1580.46 2408.88 1577.9 2406.96 1575.44 2404.89C1571.65 2401.76 1568.04 2398.34 1564.75 2394.66C1563.73 2393.56 1562.78 2392.43 1561.87 2391.3C1560.89 2390.14 1559.94 2388.93 1559.03 2387.73C1558.89 2387.63 1558.79 2387.49 1558.73 2387.33C1557.79 2386.13 1556.91 2384.89 1556.03 2383.61C1555.2 2382.34 1554.32 2380.99 1553.48 2379.64C1553.48 2379.61 1553.48 2379.61 1553.45 2379.57C1552.61 2378.22 1551.8 2376.8 1551.04 2375.38C1550.24 2373.96 1549.51 2372.54 1548.81 2371.04C1546.7 2366.71 1544.91 2362.26 1543.49 2357.6C1543.38 2357.38 1543.34 2357.2 1543.3 2357.05C1542.87 2355.63 1542.5 2354.28 1542.1 2352.86C1542.06 2352.61 1541.99 2352.35 1541.92 2352.1C1541.63 2351 1541.41 2349.87 1541.12 2348.78C1541.01 2348.16 1540.86 2347.5 1540.75 2346.85C1540.5 2345.65 1540.31 2344.44 1540.13 2343.24C1540.09 2343.1 1540.09 2342.95 1540.09 2342.84C1539.95 2342.37 1539.91 2341.93 1539.84 2341.46L1539.4 2338.1V2337.96C1539.26 2336.24 1539.15 2334.57 1539.04 2332.86C1538.93 2331.14 1538.89 2329.43 1538.89 2327.75C1538.89 2323.35 1539.19 2318.96 1539.8 2314.6C1539.91 2313.54 1540.09 2312.52 1540.28 2311.47C1540.79 2308.37 1541.44 2305.27 1542.21 2302.25L1545.86 2290.48L1591.75 2166.73L1616.48 2099.94L1685.82 1912.9L2124.9 1911.77L2191.36 2091.05L2219.41 2166.73L2265.26 2290.59L2268.8 2302.25C2270.04 2306.66 2270.95 2311.25 2271.43 2315.95C2271.54 2316.42 2271.61 2316.93 2271.65 2317.44C2271.83 2318.86 2271.94 2320.36 2272.01 2321.82C2272.16 2323.82 2272.19 2325.75 2272.19 2327.75V2327.75Z" fill="#F5C845"/>
<path d="M2148.75 1911.69L1661.98 1912.98C1651.82 1913.01 1644.69 1902.99 1648.05 1893.41L1695.41 1758.37L1695.47 1758.31L1695.04 1757.51L1694.98 1757.33V1757.27L1647.4 1610.47C1644.32 1600.97 1651.41 1591.23 1661.41 1591.23H2149.7C2159.69 1591.23 2166.78 1600.98 2163.7 1610.48L2116.07 1757.27H2115.28L2115.64 1758.3L2162.6 1892.11C2165.96 1901.66 2158.88 1911.66 2148.75 1911.69V1911.69Z" fill="#E45E47"/>
<path d="M2116.08 1757.27V1757.33L2115.65 1758.31L2115.28 1757.27H2116.08Z" fill="#E45E47"/>
<path d="M2010.37 1752.09C2010.37 1767.26 2007.17 1781.62 2001.34 1794.49C1990.18 1819.76 1969.32 1839.69 1943.37 1849.53C1931.72 1854.37 1918.98 1856.83 1905.52 1856.83C1892.13 1856.83 1879.39 1854.37 1867.74 1849.53C1841.79 1839.69 1820.94 1819.76 1809.77 1794.49C1803.94 1781.62 1800.74 1767.26 1800.74 1752.09C1800.74 1707.62 1828.49 1669.65 1867.74 1654.63C1879.39 1649.87 1892.13 1647.42 1905.52 1647.42C1918.98 1647.42 1931.72 1649.87 1943.37 1654.63C1982.63 1669.65 2010.37 1707.62 2010.37 1752.09V1752.09Z" fill="black"/>
<path d="M1695.35 1758.37L1695.04 1757.51L1695.47 1758.31L1695.41 1758.37H1695.35ZM2169.95 1913.04L2169.46 1911.64L2170.01 1913.04H2169.95Z" fill="#F5C845"/>
<path d="M1952.23 1752.13C1952.23 1758.85 1950.8 1765.23 1948.19 1770.99C1945.73 1776.58 1942.18 1781.62 1937.76 1785.82C1933.33 1790.03 1928.12 1793.31 1922.41 1795.49C1917.19 1797.63 1911.52 1798.72 1905.55 1798.72C1899.57 1798.72 1893.9 1797.63 1888.72 1795.49C1883.01 1793.32 1877.79 1790.04 1873.37 1785.83C1868.94 1781.62 1865.4 1776.58 1862.94 1770.99C1860.27 1765.06 1858.89 1758.63 1858.91 1752.13C1858.91 1732.3 1871.27 1715.41 1888.72 1708.73C1893.9 1706.63 1899.57 1705.54 1905.55 1705.54C1911.52 1705.54 1917.2 1706.63 1922.41 1708.73C1931.19 1712.1 1938.75 1718.05 1944.07 1725.8C1949.4 1733.55 1952.24 1742.73 1952.23 1752.13V1752.13Z" fill="white"/>
<path d="M1839.31 1188.91C1839.31 1225.45 1868.96 1255.08 1905.55 1255.08C1942.13 1255.08 1971.78 1225.45 1971.78 1188.91H1839.31V1188.91Z" fill="black"/>
<path d="M2272.22 2327.74C2272.22 2330.34 2272.11 2332.91 2271.91 2335.44C2271.72 2337.97 2271.44 2340.48 2271.05 2342.99C2270.66 2345.44 2270.2 2347.88 2269.65 2350.31C2269.1 2352.73 2268.45 2355.13 2267.7 2357.5C2266.74 2360.61 2265.62 2363.66 2264.35 2366.65C2263.1 2369.64 2261.68 2372.57 2260.11 2375.4V2375.45C2259.48 2376.57 2258.82 2377.7 2258.12 2378.83C2257.46 2379.92 2256.79 2381.01 2256.09 2382.06C2255.8 2382.59 2255.47 2383.11 2255.12 2383.61C2254.77 2384.16 2254.38 2384.7 2253.95 2385.25C2253.14 2386.42 2252.28 2387.59 2251.42 2388.71C2250.56 2389.84 2249.63 2390.97 2248.73 2392.06C2246.9 2394.27 2244.95 2396.39 2242.89 2398.4C2242.85 2398.44 2242.85 2398.44 2242.81 2398.44C2241.92 2399.34 2241.02 2400.23 2240.12 2401.05C2239.54 2401.59 2238.96 2402.1 2238.33 2402.64C2236.27 2404.48 2234.13 2406.22 2231.91 2407.86C2225.45 2412.7 2218.43 2416.72 2210.99 2419.85L2210.95 2419.89C2209.47 2420.51 2207.95 2421.09 2206.43 2421.63C2204.99 2422.18 2203.55 2422.68 2202.11 2423.11C2201.91 2423.19 2201.72 2423.23 2201.56 2423.31C2200.04 2423.77 2198.56 2424.2 2197.04 2424.59C2197 2424.59 2196.96 2424.63 2196.96 2424.63C2195.37 2425.02 2193.77 2425.37 2192.17 2425.72C2188.9 2426.38 2185.59 2426.88 2182.24 2427.23C2178.85 2427.54 2175.46 2427.74 2172 2427.74H1639.13C1635.67 2427.74 1632.28 2427.55 1628.89 2427.23C1625.55 2426.89 1622.24 2426.38 1618.96 2425.72C1612.52 2424.38 1606.24 2422.43 1600.18 2419.88C1598.68 2419.25 1597.2 2418.58 1595.74 2417.86C1594.26 2417.16 1592.86 2416.42 1591.42 2415.68C1588.58 2414.14 1585.81 2412.46 1583.12 2410.66C1580.48 2408.85 1577.92 2406.93 1575.45 2404.91C1571.63 2401.76 1568.05 2398.34 1564.73 2394.67C1563.72 2393.58 1562.78 2392.45 1561.85 2391.33C1560.88 2390.16 1559.94 2388.96 1559 2387.75C1558.89 2387.64 1558.8 2387.5 1558.73 2387.36C1557.8 2386.15 1556.9 2384.91 1556.04 2383.63C1555.19 2382.34 1554.33 2381.02 1553.47 2379.66C1553.47 2379.62 1553.47 2379.62 1553.43 2379.58C1551.76 2376.81 1550.21 2373.97 1548.79 2371.06C1546.69 2366.71 1544.91 2362.21 1543.46 2357.6C1543.38 2357.4 1543.34 2357.21 1543.3 2357.05C1542.88 2355.67 1542.48 2354.28 1542.09 2352.89C1542.05 2352.61 1541.98 2352.38 1541.9 2352.11C1541.63 2351.02 1541.39 2349.89 1541.12 2348.8C1541 2348.17 1540.85 2347.52 1540.73 2346.85C1540.5 2345.65 1540.29 2344.44 1540.11 2343.23C1540.07 2343.12 1540.07 2342.96 1540.07 2342.84C1539.99 2342.38 1539.91 2341.95 1539.87 2341.48C1539.68 2340.35 1539.56 2339.23 1539.41 2338.1V2337.98C1539.25 2336.27 1539.13 2334.59 1539.02 2332.88C1538.94 2331.17 1538.9 2329.46 1538.9 2327.75C1538.9 2325.61 1538.98 2323.47 1539.09 2321.33C1539.25 2319.07 1539.48 2316.81 1539.79 2314.6C1539.91 2313.55 1540.07 2312.53 1540.26 2311.48C1540.77 2308.37 1541.43 2305.3 1542.25 2302.26L1545.87 2290.47L1591.72 2166.74L1616.45 2099.97C1633.59 2117.48 1646.72 2139.46 1679.71 2139.5C1734.52 2139.46 1734.56 2078.68 1789.36 2078.68C1844.21 2078.68 1844.21 2139.5 1898.97 2139.5C1953.82 2139.46 1953.78 2078.68 2008.58 2078.68C2063.43 2078.68 2063.43 2139.46 2118.28 2139.46C2157.19 2139.46 2168.45 2108.84 2191.35 2091.06L2219.39 2166.74H2219.43L2265.32 2290.55L2268.86 2302.27C2270.07 2306.66 2270.93 2311.26 2271.47 2315.96C2271.55 2316.47 2271.59 2316.94 2271.63 2317.44C2271.82 2318.88 2271.94 2320.36 2272.02 2321.84C2272.18 2323.81 2272.22 2325.75 2272.22 2327.74V2327.74Z" fill="#2724F2"/>
</g>
<g clip-path="url(#clip4_1_1212)">
<path d="M1684.08 2192.98L1674.73 2251.13C1721.13 2253.92 1758.03 2292.66 1758.03 2339.81C1758.03 2388.79 1718.23 2428.64 1669.31 2428.64C1661.5 2428.64 1653.96 2427.65 1646.74 2425.74L1637.39 2483.86C1647.69 2486.13 1658.35 2487.34 1669.31 2487.34C1750.59 2487.34 1816.67 2421.15 1816.67 2339.81C1816.67 2263.42 1758.44 2200.42 1684.08 2192.98V2192.98Z" fill="black"/>
<path d="M1701.63 2083.34L1628.37 2540.18C1619.03 2598.59 1576.81 2644.67 1522.39 2660.6C1508.67 2664.64 1494.44 2666.69 1480.14 2666.69H1216.72C1202.75 2666.69 1189.16 2664.74 1176.22 2661.11C1121.03 2645.66 1077.97 2599.25 1068.48 2540.18L995.221 2083.34C989.357 2046.91 1017.5 2013.89 1054.33 2013.89H1642.52C1679.35 2013.89 1707.49 2046.91 1701.63 2083.34V2083.34Z" fill="#E45E47"/>
<path d="M1695.92 2118.97L1684.19 2192.2H1012.67L1000.95 2118.97H1695.92ZM1525.1 2666.69C1566.46 2666.69 1599.99 2700.25 1599.99 2741.67H1096.88C1096.88 2700.26 1130.41 2666.69 1171.77 2666.69H1525.1Z" fill="black"/>
</g>
<g clip-path="url(#clip5_1_1212)">
<path d="M2738.82 1322.31L2667.78 1763.89H2415.72L2344.51 1322.31H2738.82Z" fill="black"/>
<path d="M2739.42 1427.22L2704.05 1647.08C2703.72 1649.13 2702.66 1651 2701.06 1652.35C2699.47 1653.7 2697.44 1654.44 2695.35 1654.44H2388.07C2385.98 1654.44 2383.95 1653.7 2382.35 1652.35C2380.76 1651.01 2379.7 1649.14 2379.37 1647.09L2343.92 1427.23C2343.71 1425.98 2343.79 1424.7 2344.13 1423.48C2344.48 1422.26 2345.08 1421.14 2345.91 1420.17C2346.74 1419.21 2347.77 1418.44 2348.92 1417.91C2350.08 1417.38 2351.34 1417.11 2352.62 1417.11H2730.73C2732 1417.11 2733.26 1417.38 2734.42 1417.91C2735.57 1418.44 2736.6 1419.21 2737.43 1420.17C2738.26 1421.14 2738.86 1422.26 2739.21 1423.48C2739.55 1424.7 2739.63 1425.97 2739.42 1427.22ZM2766.67 1265.2V1312.7C2766.67 1318.02 2762.38 1322.3 2757.1 1322.3H2326.2C2320.92 1322.3 2316.67 1318.02 2316.67 1312.7V1265.2C2316.67 1259.88 2320.92 1255.6 2326.2 1255.6H2757.1C2762.38 1255.6 2766.67 1259.88 2766.67 1265.2V1265.2Z" fill="#E45E47"/>
<path d="M2710.68 1198.49V1255.6H2372.66V1198.49C2372.66 1193.17 2376.91 1188.89 2382.21 1188.89H2701.1C2706.37 1188.89 2710.68 1193.17 2710.68 1198.49V1198.49Z" fill="#F5C845"/>
<path d="M2541.67 1615.73C2584.78 1615.73 2619.73 1581.07 2619.73 1538.31C2619.73 1495.56 2584.78 1460.9 2541.67 1460.9C2498.56 1460.9 2463.61 1495.56 2463.61 1538.31C2463.61 1581.07 2498.56 1615.73 2541.67 1615.73Z" fill="white"/>
<path d="M2541.67 1577.92C2563.73 1577.92 2581.61 1560.19 2581.61 1538.31C2581.61 1516.44 2563.73 1498.71 2541.67 1498.71C2519.61 1498.71 2501.73 1516.44 2501.73 1538.31C2501.73 1560.19 2519.61 1577.92 2541.67 1577.92Z" fill="black"/>
</g>
<g clip-path="url(#clip6_1_1212)">
<path d="M2418.15 1943.92L2424.99 1962.39C2425.59 1964.01 2426.53 1965.48 2427.75 1966.69C2428.97 1967.91 2430.43 1968.85 2432.05 1969.45L2450.53 1976.29C2460.93 1980.14 2460.93 1994.86 2450.53 1998.71L2432.05 2005.55C2430.43 2006.15 2428.97 2007.09 2427.75 2008.3C2426.53 2009.52 2425.59 2010.99 2424.99 2012.61L2418.15 2031.08C2414.3 2041.49 2399.58 2041.49 2395.73 2031.08L2388.89 2012.61C2388.3 2010.99 2387.36 2009.52 2386.14 2008.3C2384.92 2007.09 2383.45 2006.15 2381.83 2005.55L2363.36 1998.71C2352.95 1994.86 2352.95 1980.14 2363.36 1976.29L2381.83 1969.45C2383.45 1968.85 2384.92 1967.91 2386.14 1966.69C2387.36 1965.48 2388.3 1964.01 2388.89 1962.39L2395.73 1943.92C2399.58 1933.51 2414.3 1933.51 2418.15 1943.92V1943.92Z" fill="black"/>
</g>
<g clip-path="url(#clip7_1_1212)">
<path d="M1930.55 1002.78H1380.55C1389.32 941.334 1436.87 950.581 1444.8 951.318H1445.09C1448.86 951.259 1452.4 949.299 1454.26 945.916C1459.44 936.459 1466.99 928.587 1476.13 923.11C1485.28 917.633 1495.68 914.749 1506.27 914.755C1516.13 914.755 1525.35 917.191 1533.53 921.462C1537.58 923.54 1542.4 921.639 1544.43 917.427C1559.62 885.731 1591.33 863.889 1628.16 863.889C1664.69 863.889 1696.35 885.436 1711.54 916.774C1715.83 924.133 1723.6 924.313 1729.34 918.912C1743.08 905.558 1761.75 897.249 1782.23 897.249C1814.99 897.249 1842.94 918.259 1853.96 947.758C1857.61 957.729 1866.25 961.292 1876.68 959.689C1879.12 959.332 1881.61 959.037 1884.11 959.037C1908.52 959.034 1928.52 978.323 1930.55 1002.78Z" fill="black"/>
</g>
<defs>
<clipPath id="clip0_1_1212">
<rect width="1863.89" height="1316.67" fill="white" transform="translate(991.668 447.222)"/>
</clipPath>
<clipPath id="clip1_1_1212">
<rect width="1219.44" height="1663.89" fill="white" transform="translate(163.891 727.778)"/>
</clipPath>
<clipPath id="clip2_1_1212">
<rect width="394.444" height="394.444" fill="white" transform="translate(2086.11 694.444)"/>
</clipPath>
<clipPath id="clip3_1_1212">
<rect width="733.333" height="1238.89" fill="white" transform="translate(1538.89 1188.89)"/>
</clipPath>
<clipPath id="clip4_1_1212">
<rect width="822.222" height="727.778" fill="white" transform="translate(994.445 2013.89)"/>
</clipPath>
<clipPath id="clip5_1_1212">
<rect width="450" height="575" fill="white" transform="translate(2316.67 1188.89)"/>
</clipPath>
<clipPath id="clip6_1_1212">
<rect width="102.778" height="102.778" fill="white" transform="translate(2355.55 1936.11)"/>
</clipPath>
<clipPath id="clip7_1_1212">
<rect width="550" height="138.889" fill="white" transform="translate(1380.55 863.889)"/>
</clipPath>
</defs>
</svg>
