<svg width="58" height="58" viewBox="0 0 58 58" fill="none" xmlns="http://www.w3.org/2000/svg">
<g clip-path="url(#clip0_1_2266)">
<path d="M29 58C45.0163 58 58 45.0163 58 29C58 12.9837 45.0163 0 29 0C12.9837 0 0 12.9837 0 29C0 45.0163 12.9837 58 29 58Z" fill="#E45E47"/>
<path d="M40.0697 35.4013C41.3595 36.6911 41.3595 38.7799 40.0697 40.0697C39.4228 40.7166 38.5781 41.036 37.7335 41.036C36.8888 41.036 36.0442 40.7166 35.3972 40.0697L29.001 33.6735L22.6007 40.0697C21.9538 40.7166 21.1092 41.036 20.2645 41.036C19.4199 41.036 18.5752 40.7166 17.9283 40.0697C16.6385 38.7799 16.6385 36.6911 17.9283 35.4013L24.3286 29.001L17.9283 22.6007C16.6385 21.3109 16.6385 19.2181 17.9283 17.9283C19.2181 16.6415 21.3109 16.6415 22.6007 17.9283L29.001 24.3286L35.3972 17.9283C36.6901 16.6415 38.7799 16.6415 40.0697 17.9283C41.3595 19.2181 41.3595 21.3109 40.0697 22.6007L33.6694 29.001L40.0697 35.4013Z" fill="white"/>
</g>
<defs>
<clipPath id="clip0_1_2266">
<rect width="58" height="58" fill="white"/>
</clipPath>
</defs>
</svg>
