<svg width="191" height="315" viewBox="0 0 191 315" fill="none" xmlns="http://www.w3.org/2000/svg">
<g clip-path="url(#clip0_1_2048)">
<path d="M190.716 24.0024V270.866C190.716 280.399 182.985 288.13 173.452 288.13H17.5453C8.012 288.13 0.28125 280.399 0.28125 270.866V24.0024C0.28125 14.4691 8.012 6.73837 17.5453 6.73837H173.452C182.985 6.73837 190.716 14.4691 190.716 24.0024V24.0024Z" fill="#F5C845"/>
<path d="M0.28125 98.7803H190.715V196.184H0.28125V98.7803Z" fill="black"/>
<path d="M56.2201 315L39.9846 304.177L23.75 315V288.131H56.2201V315Z" fill="black"/>
<path d="M157.202 4.76563V290.102C157.202 292.734 155.068 294.868 152.436 294.868H134.289C131.657 294.868 129.523 292.734 129.523 290.102V4.76563C129.523 2.13397 131.657 0 134.289 0H152.436C155.068 0 157.202 2.13397 157.202 4.76563V4.76563Z" fill="#2724F2"/>
</g>
<defs>
<clipPath id="clip0_1_2048">
<rect width="191" height="315" fill="white"/>
</clipPath>
</defs>
</svg>
