<svg width="234" height="296" viewBox="0 0 234 296" fill="none" xmlns="http://www.w3.org/2000/svg">
<g clip-path="url(#clip0_1_2053)">
<path d="M233.936 18.161V277.838C233.936 287.871 225.807 295.999 215.775 295.999H182.219C192.251 295.999 200.38 287.871 200.38 277.838V18.161C200.38 8.13839 192.251 0 182.219 0H215.775C225.807 0 233.936 8.13839 233.936 18.161V18.161Z" fill="black"/>
<path d="M200.382 18.163V277.84C200.382 287.868 192.25 296 182.222 296H18.2225C8.19488 296 0.0625 287.869 0.0625 277.84V18.163C0.0625 8.13539 8.19488 0.00300598 18.2225 0.00300598H182.222C192.25 0.00300598 200.382 8.13539 200.382 18.163V18.163Z" fill="#F5C845"/>
<path d="M166.827 38.8248V73.9552C166.827 76.8637 164.469 79.2221 161.56 79.2221H38.8841C35.9755 79.2221 33.6172 76.8637 33.6172 73.9552V38.8248C33.6172 35.9162 35.9755 33.5578 38.8841 33.5578H161.56C164.469 33.5578 166.827 35.9162 166.827 38.8248V38.8248Z" fill="black"/>
<path d="M161.816 149.624H38.6285C35.8613 149.624 33.6172 147.38 33.6172 144.613V144.102C33.6172 141.334 35.8613 139.09 38.6285 139.09H161.815C164.582 139.09 166.826 141.334 166.826 144.102V144.613C166.827 147.38 164.583 149.624 161.816 149.624Z" fill="black"/>
<path d="M161.816 176.632H38.6285C35.8613 176.632 33.6172 174.388 33.6172 171.621V171.11C33.6172 168.342 35.8613 166.098 38.6285 166.098H161.815C164.582 166.098 166.826 168.342 166.826 171.11V171.621C166.827 174.388 164.583 176.632 161.816 176.632Z" fill="white"/>
<path d="M161.816 203.64H38.6285C35.8613 203.64 33.6172 201.396 33.6172 198.629V198.118C33.6172 195.351 35.8613 193.106 38.6285 193.106H161.815C164.582 193.106 166.826 195.351 166.826 198.118V198.629C166.827 201.396 164.583 203.64 161.816 203.64Z" fill="black"/>
<path d="M161.816 230.647H38.6285C35.8613 230.647 33.6172 228.403 33.6172 225.636V225.125C33.6172 222.358 35.8613 220.113 38.6285 220.113H161.815C164.582 220.113 166.826 222.358 166.826 225.125V225.636C166.827 228.404 164.583 230.647 161.816 230.647Z" fill="white"/>
</g>
<defs>
<clipPath id="clip0_1_2053">
<rect width="234" height="296" fill="white"/>
</clipPath>
</defs>
</svg>
