<svg width="3000" height="3000" viewBox="0 0 3000 3000" fill="none" xmlns="http://www.w3.org/2000/svg">
<g clip-path="url(#clip0_1_814)">
<path d="M1462.43 2257.42H1116.41L1176.68 2175.49H1402.15L1462.43 2257.42Z" fill="#E45E47"/>
<path d="M1667.96 2358.33H910.872C910.872 2302.62 955.912 2257.44 1011.5 2257.44H1567.34C1622.93 2257.44 1667.96 2302.62 1667.96 2358.33ZM507.506 2175.47C425.254 2175.47 358.332 2108.4 358.332 2025.96V1063.4C358.332 980.959 425.254 913.889 507.506 913.889H2070.19C2152.44 913.889 2219.37 980.959 2219.37 1063.4L2219.44 1144.77V2025.96C2219.44 2108.4 2152.52 2175.47 2070.27 2175.47H507.506V2175.47Z" fill="black"/>
<path d="M2141.28 1144.77L2141.25 1937H436.426V1144.77H2141.28Z" fill="#F5C845"/>
<path d="M2141.26 1063.38V1144.76H436.445V1063.38C436.445 1024.06 468.25 992.185 507.48 992.185H2070.23C2109.46 992.185 2141.26 1024.06 2141.26 1063.38Z" fill="#E45E47"/>
<path d="M1289.42 2097.32C1312.05 2097.32 1330.4 2078.93 1330.4 2056.25C1330.4 2033.56 1312.05 2015.17 1289.42 2015.17C1266.79 2015.17 1248.44 2033.56 1248.44 2056.25C1248.44 2078.93 1266.79 2097.32 1289.42 2097.32Z" fill="white"/>
<path d="M516.199 1237.85H625.227V1250.52H516.199V1237.85ZM516.199 1324.05H697.478V1336.72H516.199V1324.05ZM516.199 1410.25H767.687V1422.92H516.199V1410.25ZM1762.31 1633.82H2038.51V1646.49H1762.31V1633.82ZM1653.29 1720.02H2038.51V1732.69H1653.29V1720.02ZM1552.99 1806.22H2038.51V1818.89H1552.99V1806.22Z" fill="black"/>
</g>
<g clip-path="url(#clip1_1_814)">
<path d="M2661.11 661.738V725.956H1925V661.738C1925 630.707 1950.15 605.556 1981.17 605.556H2604.94C2635.96 605.556 2661.11 630.707 2661.11 661.738Z" fill="black"/>
<path d="M2661.11 725.956V1432.71C2661.11 1463.73 2635.97 1488.89 2604.94 1488.89H1981.17C1950.15 1488.89 1925 1463.73 1925 1432.71V725.956H2661.11Z" fill="#2724F2"/>
<path d="M2051.61 684.671C2062.06 684.671 2070.53 676.202 2070.53 665.754C2070.53 655.306 2062.06 646.836 2051.61 646.836C2041.17 646.836 2032.7 655.306 2032.7 665.754C2032.7 676.202 2041.17 684.671 2051.61 684.671Z" fill="white"/>
<path d="M2146.12 684.671C2156.56 684.671 2165.03 676.202 2165.03 665.754C2165.03 655.306 2156.56 646.836 2146.12 646.836C2135.67 646.836 2127.2 655.306 2127.2 665.754C2127.2 676.202 2135.67 684.671 2146.12 684.671Z" fill="white"/>
<path d="M2240.62 684.671C2251.06 684.671 2259.53 676.202 2259.53 665.754C2259.53 655.306 2251.06 646.836 2240.62 646.836C2230.17 646.836 2221.7 655.306 2221.7 665.754C2221.7 676.202 2230.17 684.671 2240.62 684.671Z" fill="white"/>
<path d="M2347.07 605.556H2357.13V725.956H2347.07V605.556ZM2499.06 605.556H2509.12V725.956H2499.06V605.556Z" fill="white"/>
</g>
<g clip-path="url(#clip2_1_814)">
<path d="M849.999 1625.51V1689.58H113.895V1625.51C113.895 1594.54 139.044 1569.44 170.064 1569.44H793.83C824.85 1569.44 849.999 1594.54 849.999 1625.51Z" fill="black"/>
<path d="M850.002 1689.58V2302.28C850.002 2333.24 824.856 2358.34 793.832 2358.34H170.06C139.037 2358.33 113.891 2333.24 113.891 2302.28V1689.58H850.002Z" fill="#2724F2"/>
<path d="M240.503 1648.39C250.948 1648.39 259.416 1639.94 259.416 1629.51C259.416 1619.09 250.948 1610.64 240.503 1610.64C230.058 1610.64 221.59 1619.09 221.59 1629.51C221.59 1639.94 230.058 1648.39 240.503 1648.39Z" fill="white"/>
<path d="M335.007 1648.39C345.452 1648.39 353.92 1639.94 353.92 1629.51C353.92 1619.09 345.452 1610.64 335.007 1610.64C324.561 1610.64 316.094 1619.09 316.094 1629.51C316.094 1639.94 324.561 1648.39 335.007 1648.39Z" fill="white"/>
<path d="M429.507 1648.39C439.952 1648.39 448.42 1639.94 448.42 1629.51C448.42 1619.09 439.952 1610.64 429.507 1610.64C419.061 1610.64 410.594 1619.09 410.594 1629.51C410.594 1639.94 419.061 1648.39 429.507 1648.39Z" fill="white"/>
<path d="M221.59 1818.45H596.217V1831.1H221.59V1818.45ZM221.59 1904.58H742.296V1917.23H221.59V1904.58ZM221.59 1990.71H742.296V2003.36H221.59V1990.71ZM221.59 2076.83H742.296V2089.49H221.59V2076.83ZM221.59 2162.96H742.296V2175.62H221.59V2162.96Z" fill="white"/>
</g>
<g clip-path="url(#clip3_1_814)">
<path d="M1761.11 909.366V1151.27C1761.11 1345.24 1674.73 1526.78 1524.09 1649.33L1437.25 1720.1C1396.06 1753.7 1343.88 1772.23 1290.28 1772.23C1236.96 1772.23 1184.81 1753.76 1143.45 1720.21L1056.41 1649.33C905.801 1526.75 819.445 1345.24 819.445 1151.27V909.366C819.408 872.601 830.222 836.64 850.536 805.977C870.851 775.313 899.765 751.306 933.666 736.955L1198.87 624.074C1228.41 611.767 1259.12 605.556 1290.28 605.556C1321.3 605.556 1352.8 611.908 1381.41 623.99L1647.12 736.955C1680.96 751.362 1709.81 775.389 1730.08 806.045C1750.35 836.701 1761.14 872.632 1761.11 909.366V909.366Z" fill="#2724F2"/>
<path d="M1671.42 909.336V1151.25C1671.43 1233.34 1653.13 1314.41 1617.85 1388.56C1582.57 1462.71 1531.19 1528.09 1467.45 1579.94L1380.56 1650.7C1354.37 1672.08 1322.32 1682.7 1290.28 1682.7C1257.39 1682.72 1225.51 1671.42 1199.99 1650.7L1113.11 1579.94C1049.36 1528.09 997.987 1462.71 962.705 1388.56C927.423 1314.41 909.122 1233.34 909.129 1151.25V909.336C909.123 890.15 914.773 871.387 925.375 855.385C935.977 839.383 951.062 826.852 968.749 819.352L1234.04 706.448C1252.07 698.911 1271.17 695.064 1290.28 695.064C1309.38 695.064 1328.64 698.911 1346.51 706.448L1611.95 819.352C1629.6 826.885 1644.65 839.429 1655.22 855.426C1665.8 871.423 1671.43 890.169 1671.42 909.336Z" fill="white"/>
</g>
<g clip-path="url(#clip4_1_814)">
<path d="M2502.78 949.195V1060.9C2502.78 1146.36 2464.78 1226.33 2398.55 1280.3L2296 1363.89L2193.48 1280.27C2127.24 1226.34 2089.24 1146.36 2089.24 1060.91L2088.89 949.371L2296 861.111L2502.78 949.195Z" fill="#F5C845"/>
<path d="M2464.33 974.597V1060.91C2464.33 1097.21 2456.25 1133.06 2440.67 1165.86C2425.09 1198.65 2402.4 1227.56 2374.25 1250.49L2296 1314.3L2217.78 1250.49C2189.63 1227.57 2166.93 1198.65 2151.35 1165.86C2135.77 1133.07 2127.68 1097.21 2127.69 1060.91L2127.41 974.727L2296 902.888L2464.33 974.597Z" fill="#E45E47"/>
<path d="M2206.75 1104.55C2202.88 1100.67 2200.71 1095.42 2200.71 1089.94C2200.71 1084.46 2202.88 1079.21 2206.75 1075.33C2210.64 1071.46 2215.9 1069.29 2221.38 1069.29C2226.87 1069.29 2232.13 1071.46 2236.02 1075.33L2276.07 1115.38L2355.62 1035.83C2363.72 1027.78 2376.84 1027.78 2384.89 1035.83C2386.82 1037.75 2388.34 1040.03 2389.38 1042.53C2390.43 1045.04 2390.96 1047.73 2390.96 1050.45C2390.96 1053.16 2390.43 1055.85 2389.38 1058.36C2388.34 1060.86 2386.82 1063.14 2384.89 1065.06L2289.97 1159.98C2286.28 1163.66 2281.28 1165.73 2276.07 1165.73C2270.86 1165.73 2265.86 1163.66 2262.18 1159.98L2206.75 1104.55Z" fill="white"/>
</g>
<g clip-path="url(#clip5_1_814)">
<path d="M1502.78 1147.02V1360.55C1502.78 1394.62 1475.2 1422.22 1441.17 1422.22H1133.83C1099.8 1422.22 1072.22 1394.62 1072.22 1360.56V1147.02C1072.22 1112.96 1099.8 1085.35 1133.83 1085.35H1441.17C1475.2 1085.35 1502.78 1112.96 1502.78 1147.02Z" fill="#E45E47"/>
<path d="M1421.87 1012.27V1085.35H1359.2V1012.27C1359.2 972.687 1327.05 940.506 1287.5 940.506C1247.95 940.506 1215.81 972.691 1215.81 1012.27V1085.35H1153.13V1012.27C1153.13 938.092 1213.42 877.778 1287.5 877.778C1361.61 877.778 1421.87 938.092 1421.87 1012.27ZM1341.16 1217.82C1341.16 1237.73 1330.36 1255.09 1314.31 1264.37V1316.63C1314.31 1320.16 1313.62 1323.65 1312.27 1326.9C1310.93 1330.16 1308.95 1333.11 1306.45 1335.6C1303.97 1338.1 1301.01 1340.08 1297.76 1341.43C1294.51 1342.78 1291.02 1343.47 1287.5 1343.46C1283.98 1343.46 1280.49 1342.77 1277.24 1341.42C1273.99 1340.07 1271.04 1338.1 1268.55 1335.61C1266.06 1333.12 1264.08 1330.16 1262.74 1326.9C1261.39 1323.65 1260.7 1320.16 1260.7 1316.64V1264.37C1244.64 1255.08 1233.84 1237.72 1233.84 1217.82C1233.84 1188.16 1257.87 1164.11 1287.5 1164.11C1317.14 1164.11 1341.16 1188.16 1341.16 1217.82V1217.82Z" fill="black"/>
</g>
<g clip-path="url(#clip6_1_814)">
<path d="M701.488 696.693L708.326 715.169C708.924 716.786 709.865 718.254 711.083 719.473C712.302 720.692 713.771 721.632 715.387 722.23L733.863 729.068C744.268 732.919 744.268 747.637 733.863 751.487L715.387 758.325C713.771 758.923 712.302 759.864 711.083 761.082C709.865 762.301 708.924 763.769 708.326 765.386L701.488 783.862C697.638 794.267 682.92 794.267 679.069 783.862L672.231 765.386C671.633 763.769 670.693 762.301 669.474 761.082C668.255 759.864 666.787 758.923 665.17 758.325L646.694 751.487C636.289 747.637 636.289 732.919 646.694 729.068L665.17 722.23C666.787 721.632 668.255 720.692 669.474 719.473C670.693 718.254 671.633 716.786 672.231 715.169L679.069 696.693C682.92 686.288 697.638 686.288 701.488 696.693V696.693Z" fill="black"/>
</g>
<g clip-path="url(#clip7_1_814)">
<path d="M475.001 2469.45C542.503 2469.45 597.224 2414.73 597.224 2347.22C597.224 2279.72 542.503 2225 475.001 2225C407.499 2225 352.777 2279.72 352.777 2347.22C352.777 2414.73 407.499 2469.45 475.001 2469.45Z" fill="#E45E47"/>
<path d="M415.039 2351.79C412.435 2349.18 410.973 2345.65 410.973 2341.96C410.973 2338.27 412.435 2334.73 415.039 2332.12C417.656 2329.52 421.197 2328.06 424.889 2328.06C428.581 2328.06 432.122 2329.52 434.74 2332.12L461.698 2359.08L515.241 2305.54C520.692 2300.12 529.519 2300.12 534.941 2305.54C536.237 2306.83 537.265 2308.36 537.967 2310.05C538.669 2311.74 539.03 2313.55 539.03 2315.37C539.03 2317.2 538.669 2319.01 537.967 2320.7C537.265 2322.39 536.237 2323.92 534.941 2325.21L471.051 2389.1C469.823 2390.33 468.365 2391.3 466.761 2391.97C465.156 2392.63 463.436 2392.97 461.699 2392.97C459.963 2392.97 458.243 2392.63 456.638 2391.97C455.034 2391.3 453.576 2390.33 452.348 2389.1L415.039 2351.79Z" fill="white"/>
</g>
<g clip-path="url(#clip8_1_814)">
<path d="M2511.11 1916.67C2595.49 1916.67 2663.89 1848.27 2663.89 1763.89C2663.89 1679.51 2595.49 1611.11 2511.11 1611.11C2426.73 1611.11 2358.33 1679.51 2358.33 1763.89C2358.33 1848.27 2426.73 1916.67 2511.11 1916.67Z" fill="#E45E47"/>
<path d="M2436.16 1769.6C2432.91 1766.34 2431.08 1761.92 2431.08 1757.31C2431.08 1752.7 2432.91 1748.28 2436.16 1745.01C2439.43 1741.76 2443.86 1739.93 2448.47 1739.93C2453.09 1739.93 2457.52 1741.76 2460.79 1745.01L2494.48 1778.71L2561.41 1711.78C2568.23 1705.01 2579.26 1705.01 2586.04 1711.78C2587.66 1713.4 2588.94 1715.31 2589.82 1717.42C2590.7 1719.53 2591.15 1721.79 2591.15 1724.08C2591.15 1726.36 2590.7 1728.63 2589.82 1730.74C2588.94 1732.85 2587.66 1734.76 2586.04 1736.37L2506.18 1816.24C2504.64 1817.77 2502.82 1818.99 2500.81 1819.82C2498.81 1820.65 2496.66 1821.08 2494.49 1821.08C2492.32 1821.08 2490.17 1820.65 2488.16 1819.82C2486.15 1818.99 2484.33 1817.77 2482.8 1816.24L2436.16 1769.6Z" fill="white"/>
</g>
<g clip-path="url(#clip9_1_814)">
<path d="M2881.75 2469.44H1782.14C1776.56 2469.44 1771.21 2467.22 1767.27 2463.26C1763.32 2459.3 1761.11 2453.93 1761.11 2448.33V2060.01C1761.11 2054.41 1763.32 2049.04 1767.27 2045.07C1771.21 2041.11 1776.56 2038.89 1782.14 2038.89H2881.75C2887.32 2038.89 2892.67 2041.11 2896.61 2045.07C2900.56 2049.04 2902.77 2054.41 2902.77 2060.01V2448.33C2902.77 2451.1 2902.23 2453.85 2901.17 2456.41C2900.12 2458.97 2898.57 2461.3 2896.61 2463.26C2894.66 2465.22 2892.34 2466.78 2889.79 2467.84C2887.24 2468.9 2884.51 2469.44 2881.75 2469.44V2469.44Z" fill="#F5C845"/>
<path d="M1824.79 2341.54H1888.46V2405.49H1824.79V2341.54ZM1943.62 2341.54H2007.29V2405.49H1943.62V2341.54ZM2062.45 2341.53H2601.44V2405.49H2062.45V2341.53ZM2656.59 2341.54H2720.27V2405.49H2656.59V2341.54ZM2775.42 2341.54H2839.1V2405.49H2775.42V2341.54ZM1824.79 2102.84H1888.46V2166.8H1824.79V2102.84ZM1943.62 2102.84H2007.29V2166.8H1943.62V2102.84ZM2062.44 2102.84H2126.12V2166.8H2062.44V2102.84ZM2181.27 2102.84H2244.95V2166.8H2181.27V2102.84Z" fill="black"/>
<path d="M2300.11 2102.84H2363.78V2166.8H2300.11V2102.84Z" fill="white"/>
<path d="M2418.93 2102.84H2482.61V2166.8H2418.93V2102.84ZM2537.76 2102.84H2601.44V2166.8H2537.76V2102.84ZM2656.59 2102.84H2720.27V2166.8H2656.59V2102.84ZM2775.42 2102.84H2839.1V2166.8H2775.42V2102.84Z" fill="black"/>
<path d="M1824.79 2222.19H1888.46V2286.14H1824.79V2222.19Z" fill="white"/>
<path d="M1943.62 2222.19H2007.29V2286.14H1943.62V2222.19Z" fill="black"/>
<path d="M2062.44 2222.19H2126.12V2286.14H2062.44V2222.19Z" fill="white"/>
<path d="M2181.27 2222.19H2244.95V2286.14H2181.27V2222.19ZM2300.1 2222.19H2363.78V2286.14H2300.1V2222.19Z" fill="black"/>
<path d="M2418.93 2222.19H2482.61V2286.14H2418.93V2222.19Z" fill="white"/>
<path d="M2537.77 2222.19H2601.44V2286.14H2537.77V2222.19Z" fill="black"/>
<path d="M2656.59 2222.19H2720.27V2286.14H2656.59V2222.19Z" fill="white"/>
<path d="M2775.43 2222.19H2839.1V2286.14H2775.43V2222.19Z" fill="black"/>
</g>
<defs>
<clipPath id="clip0_1_814">
<rect width="1861.11" height="1444.44" fill="white" transform="translate(358.332 913.889)"/>
</clipPath>
<clipPath id="clip1_1_814">
<rect width="736.111" height="883.333" fill="white" transform="translate(1925 605.556)"/>
</clipPath>
<clipPath id="clip2_1_814">
<rect width="736.111" height="788.889" fill="white" transform="translate(113.891 1569.44)"/>
</clipPath>
<clipPath id="clip3_1_814">
<rect width="941.667" height="1166.67" fill="white" transform="translate(819.445 605.556)"/>
</clipPath>
<clipPath id="clip4_1_814">
<rect width="413.889" height="502.778" fill="white" transform="translate(2088.89 861.111)"/>
</clipPath>
<clipPath id="clip5_1_814">
<rect width="430.556" height="544.444" fill="white" transform="translate(1072.22 877.778)"/>
</clipPath>
<clipPath id="clip6_1_814">
<rect width="102.778" height="102.778" fill="white" transform="translate(638.891 688.889)"/>
</clipPath>
<clipPath id="clip7_1_814">
<rect width="244.444" height="244.444" fill="white" transform="translate(352.777 2225)"/>
</clipPath>
<clipPath id="clip8_1_814">
<rect width="305.556" height="305.556" fill="white" transform="translate(2358.33 1611.11)"/>
</clipPath>
<clipPath id="clip9_1_814">
<rect width="1141.67" height="430.556" fill="white" transform="translate(1761.11 2038.89)"/>
</clipPath>
</defs>
</svg>
