<svg width="271" height="410" viewBox="0 0 271 410" fill="none" xmlns="http://www.w3.org/2000/svg">
<g clip-path="url(#clip0_1_1925)">
<path d="M255.722 410H15.2768C6.97801 410 0.25 403.272 0.25 394.973V56.6531C0.25 48.3543 6.97801 41.6263 15.2768 41.6263H255.722C264.021 41.6263 270.749 48.3543 270.749 56.6531V394.974C270.749 403.273 264.021 410 255.722 410V410Z" fill="#2724F2"/>
<path d="M233.331 36.7957V46.461C233.331 54.5764 226.752 61.1552 218.637 61.1552H52.3661C44.2506 61.1552 37.6719 54.5764 37.6719 46.461V36.7957C37.6719 28.6802 44.2506 22.1015 52.3661 22.1015H113.4C113.401 9.88966 123.29 0 135.502 0C147.713 0 157.602 9.88966 157.602 22.1005H218.636C226.752 22.1005 233.331 28.6802 233.331 36.7957V36.7957Z" fill="#F5C845"/>
<path d="M135.503 31.0755C140.463 31.0755 144.484 27.055 144.484 22.0955C144.484 17.1359 140.463 13.1154 135.503 13.1154C130.544 13.1154 126.523 17.1359 126.523 22.0955C126.523 27.055 130.544 31.0755 135.503 31.0755Z" fill="white"/>
<path d="M135.497 198.488C165.164 198.488 189.213 174.439 189.213 144.772C189.213 115.106 165.164 91.0565 135.497 91.0565C105.831 91.0565 81.7812 115.106 81.7812 144.772C81.7812 174.439 105.831 198.488 135.497 198.488Z" fill="#E45E47"/>
<path d="M157.086 138.064H142.21V123.189C142.21 119.484 139.207 116.481 135.502 116.481C131.798 116.481 128.794 119.484 128.794 123.189V138.064H113.919C110.214 138.064 107.211 141.068 107.211 144.772C107.211 148.477 110.214 151.48 113.919 151.48H128.794V166.356C128.794 170.061 131.798 173.064 135.502 173.064C139.207 173.064 142.21 170.061 142.21 166.356V151.48H157.086C160.791 151.48 163.794 148.477 163.794 144.772C163.794 141.068 160.791 138.064 157.086 138.064Z" fill="white"/>
<path d="M228.638 238.656H42.3653C39.7736 238.656 37.6719 236.554 37.6719 233.963V233.083C37.6719 230.492 39.7736 228.39 42.3653 228.39H228.638C231.229 228.39 233.331 230.492 233.331 233.083V233.963C233.331 236.554 231.229 238.656 228.638 238.656Z" fill="white"/>
<path d="M228.638 274.747H42.3653C39.7736 274.747 37.6719 272.645 37.6719 270.053V269.174C37.6719 266.582 39.7736 264.48 42.3653 264.48H228.638C231.229 264.48 233.331 266.582 233.331 269.174V270.053C233.331 272.645 231.229 274.747 228.638 274.747Z" fill="#E45E47"/>
<path d="M228.638 310.837H42.3653C39.7736 310.837 37.6719 308.735 37.6719 306.144V305.264C37.6719 302.672 39.7736 300.571 42.3653 300.571H228.638C231.229 300.571 233.331 302.672 233.331 305.264V306.144C233.331 308.735 231.229 310.837 228.638 310.837Z" fill="white"/>
<path d="M228.638 346.927H42.3653C39.7736 346.927 37.6719 344.826 37.6719 342.234V341.354C37.6719 338.763 39.7736 336.661 42.3653 336.661H228.638C231.229 336.661 233.331 338.763 233.331 341.354V342.234C233.331 344.826 231.229 346.927 228.638 346.927Z" fill="#E45E47"/>
</g>
<defs>
<clipPath id="clip0_1_1925">
<rect width="271" height="410" fill="white"/>
</clipPath>
</defs>
</svg>
