<svg width="77" height="77" viewBox="0 0 77 77" fill="none" xmlns="http://www.w3.org/2000/svg">
<g clip-path="url(#clip0_1_1416)">
<path d="M38.5 77C59.763 77 77 59.763 77 38.5C77 17.237 59.763 0 38.5 0C17.237 0 0 17.237 0 38.5C0 59.763 17.237 77 38.5 77Z" fill="#F5C845"/>
<path d="M31.998 29.5005C33.0384 24.3489 41.3594 25.4385 45.0253 27.7665C47.9977 29.9458 51.5631 25.6365 48.1957 22.9124C46.3251 21.476 43.8784 20.5653 41.289 20.1934V17.3637C41.289 15.8248 40.0416 14.5773 38.5026 14.5773C36.9637 14.5773 35.7162 15.8248 35.7162 17.3637V20.2215C30.7073 21.0086 26.3136 23.8915 25.7075 29.0049C24.1715 43.0726 44.777 38.6638 45.4214 45.9947C44.6785 53.0281 34.2265 50.9473 30.1655 48.174C28.4808 46.7868 27.0454 47.2331 25.7567 48.5208C24.8651 49.8577 24.8159 52.037 26.4503 53.3749C28.6708 55.2094 32.0945 56.4106 35.7162 56.7735V59.6373C35.7162 61.1762 36.9637 62.4237 38.5026 62.4237C40.0416 62.4237 41.289 61.1762 41.289 59.6373V56.6388C46.8719 55.7642 51.6837 52.5486 51.8607 46.1435C52.2075 32.9674 30.6601 37.6235 31.998 29.5005V29.5005Z" fill="white"/>
</g>
<defs>
<clipPath id="clip0_1_1416">
<rect width="77" height="77" fill="white"/>
</clipPath>
</defs>
</svg>
