<svg width="254" height="124" viewBox="0 0 254 124" fill="none" xmlns="http://www.w3.org/2000/svg">
<g clip-path="url(#clip0_1_1446)">
<path d="M18.6903 123.634H235.31C245.632 123.634 254 115.266 254 104.944V19.0558C254 8.73358 245.632 0.365524 235.31 0.365524H18.6903C8.36805 0.365524 0 8.73358 0 19.0558V104.945C0 115.267 8.36805 123.634 18.6903 123.634V123.634Z" fill="#F5C845"/>
<path d="M235.936 39.8026V84.1984C224.137 84.1984 214.567 93.768 214.567 105.567H39.4394C39.4394 93.768 29.8698 84.1984 18.0703 84.1984V39.8026C29.8698 39.8026 39.4394 30.233 39.4394 18.4335H214.567C214.567 30.233 224.137 39.8026 235.936 39.8026V39.8026Z" fill="#E45E47"/>
<path d="M127.007 85.8169C135.908 85.8169 143.124 75.1539 143.124 62.0005C143.124 48.8471 135.908 38.1841 127.007 38.1841C118.106 38.1841 110.891 48.8471 110.891 62.0005C110.891 75.1539 118.106 85.8169 127.007 85.8169Z" fill="white"/>
<path d="M182.57 70.57C189.563 70.57 195.233 66.7333 195.233 62.0005C195.233 57.2677 189.563 53.431 182.57 53.431C175.576 53.431 169.906 57.2677 169.906 62.0005C169.906 66.7333 175.576 70.57 182.57 70.57Z" fill="white"/>
<path d="M71.4368 70.57C78.4305 70.57 84.1001 66.7333 84.1001 62.0005C84.1001 57.2677 78.4305 53.431 71.4368 53.431C64.443 53.431 58.7734 57.2677 58.7734 62.0005C58.7734 66.7333 64.443 70.57 71.4368 70.57Z" fill="white"/>
</g>
<defs>
<clipPath id="clip0_1_1446">
<rect width="254" height="124" fill="white"/>
</clipPath>
</defs>
</svg>
