<svg width="122" height="226" viewBox="0 0 122 226" fill="none" xmlns="http://www.w3.org/2000/svg">
<g clip-path="url(#clip0_1_1958)">
<path d="M82.4956 134.729C81.6941 135.509 81.6941 136.791 82.4846 137.592L89.2786 144.375C90.037 145.134 90.4644 146.159 90.4644 147.228C90.4644 148.296 90.037 149.332 89.2786 150.091L82.4846 156.874C81.6941 157.675 81.6941 158.946 82.4846 159.737L89.2786 166.531C90.037 167.289 90.4644 168.315 90.4644 169.383C90.4644 170.452 90.037 171.477 89.2786 172.235L82.4846 179.029C81.6941 179.82 81.6941 181.102 82.4956 181.882L89.0649 188.462C89.9628 189.349 90.4644 190.567 90.4644 191.817V196.347C90.4644 198.751 89.5033 201.047 87.8048 202.746L66.9956 223.512C65.3402 225.178 63.1712 226.001 60.9922 226.001V121.551C70.7878 121.551 80.0387 119.232 88.2322 115.109C88.9906 114.735 89.728 114.339 90.4644 113.923V124.794C90.4644 126.054 89.9628 127.262 89.0649 128.148L82.4956 134.729Z" fill="#F5C845"/>
<path d="M60.9902 121.551V226C58.8212 226 56.6532 225.177 54.9968 223.511L34.1987 202.745C32.5002 201.046 31.5391 198.75 31.5391 196.346V113.934C32.2764 114.35 33.0138 114.746 33.7713 115.12C41.9547 119.232 51.2056 121.551 60.9902 121.551V121.551Z" fill="black"/>
<path d="M60.9969 0C27.4385 0 0.226562 27.2119 0.226562 60.7703C0.226562 84.5421 13.8827 105.133 33.7699 115.118C41.9584 119.231 51.2032 121.549 60.9979 121.549C70.7925 121.549 80.0444 119.232 88.2328 115.111C108.128 105.133 121.776 84.5421 121.776 60.7703C121.775 27.2119 94.5633 0 60.9969 0V0ZM68.4449 53.3152C66.2047 54.4469 63.6735 55.0819 60.9979 55.0819C58.3222 55.0819 55.7981 54.4469 53.5578 53.3232C48.1213 50.5934 44.3902 44.9662 44.3902 38.4673C44.3902 29.2996 51.8302 21.8606 60.9969 21.8606C70.1725 21.8606 77.6115 29.3006 77.6115 38.4673C77.6115 44.9662 73.8805 50.5934 68.4449 53.3152V53.3152Z" fill="#E45E47"/>
</g>
<defs>
<clipPath id="clip0_1_1958">
<rect width="122" height="226" fill="white"/>
</clipPath>
</defs>
</svg>
