<svg width="3000" height="3000" viewBox="0 0 3000 3000" fill="none" xmlns="http://www.w3.org/2000/svg">
<g clip-path="url(#clip0_1_187)">
<path d="M2283.33 850.252L2283.29 1859.97C2282.57 1905.23 2245.63 1941.67 2200.21 1941.67H433.531C402.741 1941.67 377.781 1916.71 377.781 1885.93V850.252H2283.33Z" fill="#E45E47"/>
<path d="M2283.31 727.961V850.259H377.777V727.961C377.777 697.177 402.737 672.222 433.527 672.222H2227.56C2258.35 672.222 2283.31 697.177 2283.31 727.961Z" fill="black"/>
<path d="M506.869 784.55C519.745 784.55 530.183 774.114 530.183 761.241C530.183 748.367 519.745 737.931 506.869 737.931C493.993 737.931 483.555 748.367 483.555 761.241C483.555 774.114 493.993 784.55 506.869 784.55Z" fill="white"/>
<path d="M623.357 784.55C636.233 784.55 646.671 774.114 646.671 761.241C646.671 748.367 636.233 737.931 623.357 737.931C610.481 737.931 600.043 748.367 600.043 761.241C600.043 774.114 610.481 784.55 623.357 784.55Z" fill="white"/>
<path d="M739.844 784.55C752.72 784.55 763.158 774.114 763.158 761.241C763.158 748.367 752.72 737.931 739.844 737.931C726.968 737.931 716.53 748.367 716.53 761.241C716.53 774.114 726.968 784.55 739.844 784.55Z" fill="white"/>
<path d="M1604.25 672.222H1616.37V850.252H1604.25V672.222ZM1824.18 672.222H1836.3V850.252H1824.18V672.222ZM2044.11 672.222H2056.23V850.252H2044.11V672.222Z" fill="white"/>
</g>
<g clip-path="url(#clip1_1_187)">
<path d="M786.111 1266.07V2145.54C786.111 2179.51 758.484 2207.05 724.415 2207.05H167.258C133.19 2207.05 105.562 2179.51 105.562 2145.54V1266.07C105.562 1232.1 133.19 1204.56 167.258 1204.56H724.415C758.484 1204.56 786.111 1232.1 786.111 1266.07Z" fill="#F5C845"/>
<path d="M105.556 1532.47H786.1V1879.48H105.556V1532.47ZM305.465 2302.78L247.445 2264.22L189.428 2302.78V2207.05H305.465V2302.78Z" fill="black"/>
<path d="M666.334 1197.53V2214.08C666.333 2218.58 664.539 2222.9 661.345 2226.08C658.151 2229.27 653.82 2231.05 649.304 2231.06H584.452C579.935 2231.05 575.604 2229.27 572.41 2226.08C569.216 2222.9 567.422 2218.58 567.421 2214.08V1197.53C567.422 1193.03 569.216 1188.71 572.41 1185.53C575.604 1182.35 579.935 1180.56 584.452 1180.56H649.304C653.82 1180.56 658.151 1182.35 661.345 1185.53C664.539 1188.71 666.333 1193.03 666.334 1197.53Z" fill="#2724F2"/>
</g>
<g clip-path="url(#clip2_1_187)">
<path d="M1450.1 2661.11H994.342C960.647 2661.11 933.333 2633.57 933.333 2599.59V2097.64C933.333 2063.66 960.647 2036.11 994.342 2036.11H1450.1C1483.79 2036.11 1511.11 2063.66 1511.11 2097.64V2599.59C1511.11 2633.57 1483.8 2661.11 1450.1 2661.11Z" fill="#F5C845"/>
<path d="M988.04 2193.34V2102.11C988.04 2100.69 988.318 2099.28 988.857 2097.96C989.397 2096.65 990.188 2095.46 991.185 2094.45C992.182 2093.45 993.365 2092.65 994.668 2092.1C995.971 2091.56 997.367 2091.28 998.777 2091.28H1445.66C1448.51 2091.28 1451.24 2092.42 1453.26 2094.45C1455.27 2096.48 1456.4 2099.24 1456.4 2102.11V2193.34C1456.4 2196.21 1455.27 2198.97 1453.26 2201C1451.24 2203.03 1448.51 2204.17 1445.66 2204.17H998.777C995.929 2204.17 993.198 2203.03 991.185 2201C989.171 2198.97 988.04 2196.21 988.04 2193.34V2193.34Z" fill="#2724F2"/>
<path d="M1071.67 2259.34H998.777C995.929 2259.34 993.198 2260.48 991.185 2262.51C989.171 2264.54 988.04 2267.29 988.04 2270.16V2343.67C988.04 2346.54 989.171 2349.3 991.185 2351.33C993.198 2353.36 995.929 2354.5 998.777 2354.5H1071.67C1074.52 2354.5 1077.25 2353.36 1079.26 2351.33C1081.27 2349.3 1082.4 2346.54 1082.4 2343.67V2270.16C1082.4 2267.29 1081.27 2264.54 1079.26 2262.51C1077.25 2260.48 1074.52 2259.34 1071.67 2259.34Z" fill="#E45E47"/>
<path d="M1196.33 2259.34H1123.44C1120.6 2259.34 1117.86 2260.48 1115.85 2262.51C1113.84 2264.54 1112.71 2267.29 1112.71 2270.16V2343.67C1112.71 2346.54 1113.84 2349.3 1115.85 2351.33C1117.86 2353.36 1120.6 2354.5 1123.44 2354.5H1196.33C1199.18 2354.5 1201.91 2353.36 1203.93 2351.33C1205.94 2349.3 1207.07 2346.54 1207.07 2343.67V2270.16C1207.07 2267.29 1205.94 2264.54 1203.93 2262.51C1201.91 2260.48 1199.18 2259.34 1196.33 2259.34V2259.34ZM1321 2259.34H1248.11C1245.26 2259.34 1242.53 2260.48 1240.52 2262.51C1238.5 2264.54 1237.37 2267.29 1237.37 2270.16V2343.67C1237.37 2346.54 1238.5 2349.3 1240.52 2351.33C1242.53 2353.36 1245.26 2354.5 1248.11 2354.5H1321C1323.85 2354.5 1326.58 2353.36 1328.59 2351.33C1330.61 2349.3 1331.74 2346.54 1331.74 2343.67V2270.16C1331.74 2267.29 1330.61 2264.54 1328.59 2262.51C1326.58 2260.48 1323.85 2259.34 1321 2259.34V2259.34ZM1445.67 2259.34H1372.78C1369.93 2259.34 1367.2 2260.48 1365.18 2262.51C1363.17 2264.54 1362.04 2267.29 1362.04 2270.16V2343.67C1362.04 2346.54 1363.17 2349.3 1365.18 2351.33C1367.2 2353.36 1369.93 2354.5 1372.78 2354.5H1445.67C1448.51 2354.5 1451.25 2353.36 1453.26 2351.33C1455.27 2349.3 1456.4 2346.54 1456.4 2343.67V2270.16C1456.4 2267.29 1455.27 2264.54 1453.26 2262.51C1451.25 2260.48 1448.51 2259.34 1445.67 2259.34V2259.34Z" fill="black"/>
<path d="M1071.67 2385.06H998.777C995.929 2385.06 993.198 2386.2 991.185 2388.23C989.171 2390.26 988.04 2393.01 988.04 2395.89V2469.39C988.04 2472.26 989.171 2475.02 991.185 2477.05C993.198 2479.08 995.929 2480.22 998.777 2480.22H1071.67C1074.52 2480.22 1077.25 2479.08 1079.26 2477.05C1081.27 2475.02 1082.4 2472.26 1082.4 2469.39V2395.89C1082.4 2394.46 1082.13 2393.06 1081.59 2391.74C1081.05 2390.43 1080.26 2389.24 1079.26 2388.23C1078.27 2387.22 1077.08 2386.43 1075.78 2385.88C1074.48 2385.34 1073.08 2385.06 1071.67 2385.06V2385.06ZM1196.33 2385.06H1123.44C1120.6 2385.06 1117.86 2386.2 1115.85 2388.23C1113.84 2390.26 1112.71 2393.01 1112.71 2395.89V2469.39C1112.71 2472.26 1113.84 2475.02 1115.85 2477.05C1117.86 2479.08 1120.6 2480.22 1123.44 2480.22H1196.33C1199.18 2480.22 1201.91 2479.08 1203.93 2477.05C1205.94 2475.02 1207.07 2472.26 1207.07 2469.39V2395.89C1207.07 2393.01 1205.94 2390.26 1203.93 2388.23C1201.91 2386.2 1199.18 2385.06 1196.33 2385.06V2385.06ZM1321 2385.06H1248.11C1245.26 2385.06 1242.53 2386.2 1240.52 2388.23C1238.5 2390.26 1237.37 2393.01 1237.37 2395.89V2469.39C1237.37 2472.26 1238.5 2475.02 1240.52 2477.05C1242.53 2479.08 1245.26 2480.22 1248.11 2480.22H1321C1323.85 2480.22 1326.58 2479.08 1328.59 2477.05C1330.61 2475.02 1331.74 2472.26 1331.74 2469.39V2395.89C1331.74 2393.01 1330.61 2390.26 1328.59 2388.23C1326.58 2386.2 1323.85 2385.06 1321 2385.06V2385.06ZM1445.67 2385.06H1372.78C1369.93 2385.06 1367.2 2386.2 1365.18 2388.23C1363.17 2390.26 1362.04 2393.01 1362.04 2395.89V2469.39C1362.04 2472.26 1363.17 2475.02 1365.18 2477.05C1367.2 2479.08 1369.93 2480.22 1372.78 2480.22H1445.67C1448.52 2480.22 1451.25 2479.08 1453.26 2477.05C1455.27 2475.02 1456.4 2472.26 1456.4 2469.39V2395.89C1456.4 2393.01 1455.27 2390.26 1453.26 2388.23C1451.25 2386.2 1448.52 2385.06 1445.67 2385.06V2385.06ZM1071.67 2510.78H998.777C995.929 2510.78 993.198 2511.92 991.185 2513.95C989.171 2515.98 988.04 2518.74 988.04 2521.61V2595.11C988.04 2597.99 989.171 2600.74 991.185 2602.77C993.198 2604.8 995.929 2605.94 998.777 2605.94H1071.67C1074.52 2605.94 1077.25 2604.8 1079.26 2602.77C1081.27 2600.74 1082.4 2597.99 1082.4 2595.11V2521.61C1082.4 2520.18 1082.13 2518.78 1081.59 2517.46C1081.05 2516.15 1080.26 2514.96 1079.26 2513.95C1078.27 2512.95 1077.08 2512.15 1075.78 2511.6C1074.48 2511.06 1073.08 2510.78 1071.67 2510.78V2510.78ZM1196.33 2510.78H1123.44C1120.6 2510.78 1117.86 2511.92 1115.85 2513.95C1113.84 2515.98 1112.71 2518.74 1112.71 2521.61V2595.11C1112.71 2597.99 1113.84 2600.74 1115.85 2602.77C1117.86 2604.8 1120.6 2605.94 1123.44 2605.94H1196.33C1199.18 2605.94 1201.91 2604.8 1203.93 2602.77C1205.94 2600.74 1207.07 2597.99 1207.07 2595.11V2521.61C1207.07 2518.74 1205.94 2515.98 1203.93 2513.95C1201.91 2511.92 1199.18 2510.78 1196.33 2510.78V2510.78Z" fill="white"/>
<path d="M1445.67 2510.78H1248.11C1245.26 2510.78 1242.53 2511.92 1240.52 2513.95C1238.5 2515.98 1237.37 2518.74 1237.37 2521.61V2595.11C1237.37 2597.99 1238.5 2600.74 1240.52 2602.77C1242.53 2604.8 1245.26 2605.94 1248.11 2605.94H1445.67C1448.51 2605.94 1451.25 2604.8 1453.26 2602.77C1455.27 2600.74 1456.4 2597.99 1456.4 2595.11V2521.61C1456.4 2518.74 1455.27 2515.98 1453.26 2513.95C1451.25 2511.92 1448.51 2510.78 1445.67 2510.78V2510.78Z" fill="black"/>
<path d="M1423.56 2119.23V2176.22H1390.82V2119.23H1423.56ZM1362.24 2119.23V2176.22H1329.51V2119.23H1362.24ZM1300.92 2119.23V2176.22H1268.19V2119.23H1300.92Z" fill="white"/>
</g>
<g clip-path="url(#clip3_1_187)">
<path d="M1956.83 1375.88V1734.5C1956.83 1756.87 1938.72 1775 1916.37 1775H1540.47C1518.12 1775 1500 1756.87 1500 1734.5V1234.74C1500 1212.37 1518.12 1194.24 1540.47 1194.24H1775.05V1375.88H1956.83Z" fill="#2724F2"/>
<path d="M1956.81 1376H1774.96V1194.26L1956.81 1376Z" fill="black"/>
<path d="M2052.78 1278.86V1637.48C2052.78 1659.85 2034.66 1677.98 2012.31 1677.98H1636.41C1614.06 1677.98 1595.94 1659.85 1595.94 1637.48V1137.72C1595.94 1115.35 1614.06 1097.22 1636.41 1097.22H1870.99V1278.86H2052.78Z" fill="white"/>
<path d="M2052.78 1278.86V1637.48C2052.78 1659.85 2034.66 1677.98 2012.31 1677.98H1636.41C1614.06 1677.98 1595.94 1659.85 1595.94 1637.48V1137.72C1595.94 1115.35 1614.06 1097.22 1636.41 1097.22H1870.99V1278.86H2052.78Z" fill="#F5C845"/>
<path d="M2052.75 1278.98H1870.9V1097.24L2052.75 1278.98ZM1657.25 1263.07H1809.68V1278.86H1657.25V1263.07ZM1657.25 1341.56H1991.47V1357.36H1657.25V1341.56ZM1657.25 1420.06H1991.47V1435.86H1657.25V1420.06ZM1657.25 1498.56H1991.47V1514.36H1657.25V1498.56ZM1657.25 1577.06H1991.47V1592.85H1657.25V1577.06Z" fill="black"/>
</g>
<g clip-path="url(#clip4_1_187)">
<path d="M1059.09 671.176H1260.36V1196.92H1059.09V671.176Z" fill="#2724F2"/>
<path d="M1260.36 671.176H1394.44V1196.92H1260.36V671.176Z" fill="#F5C845"/>
<path d="M925 1196.92H1394.41L1180.45 1524.89C1170.69 1539.84 1148.71 1539.84 1138.96 1524.89L925 1196.92Z" fill="white"/>
<path d="M925.007 671.176H1059.09V1196.92H925.007V671.176Z" fill="#F5C845"/>
<path d="M925 593.459V544.773C925 415.724 1030.08 311.111 1159.7 311.111H1159.71C1289.33 311.111 1394.41 415.724 1394.41 544.773V593.459H925Z" fill="#E45E47"/>
<path d="M925.007 671.176V593.434H1394.44V671.176M1070.18 1419.57H1249.15L1180.43 1524.9C1170.68 1539.84 1148.71 1539.85 1138.95 1524.9L1070.18 1419.57Z" fill="black"/>
</g>
<g clip-path="url(#clip5_1_187)">
<path d="M2749.25 844.444L2676.54 1017.92H2658.11L2585.21 844.444H2749.25Z" fill="black"/>
<path d="M2658.11 1017.92H2462.58L2389.65 844.444H2585.21L2658.11 1017.92Z" fill="#2724F2"/>
<path d="M2676.54 1017.92V1079.63C2645.96 1059.11 2609.09 1047.16 2569.43 1047.16C2529.76 1047.16 2492.94 1059.11 2462.36 1079.63V1017.92H2676.54Z" fill="#E45E47"/>
<path d="M2569.44 1427.78C2675.3 1427.78 2761.11 1342.57 2761.11 1237.46C2761.11 1132.36 2675.3 1047.15 2569.44 1047.15C2463.59 1047.15 2377.78 1132.36 2377.78 1237.46C2377.78 1342.57 2463.59 1427.78 2569.44 1427.78Z" fill="#F5C845"/>
<path d="M2577.83 1151.3L2593.24 1198.41C2593.82 1200.17 2594.94 1201.7 2596.44 1202.79C2597.95 1203.87 2599.76 1204.46 2601.63 1204.46H2651.51C2660.05 1204.46 2663.6 1215.31 2656.7 1220.29L2616.33 1249.41C2614.83 1250.49 2613.71 1252.03 2613.13 1253.78C2612.56 1255.54 2612.56 1257.44 2613.13 1259.19L2628.55 1306.31C2631.19 1314.37 2621.89 1321.07 2614.98 1316.09L2574.62 1286.97C2573.12 1285.89 2571.3 1285.3 2569.44 1285.3C2567.58 1285.3 2565.76 1285.89 2564.26 1286.97L2523.9 1316.09C2516.99 1321.07 2507.69 1314.37 2510.33 1306.31L2525.75 1259.19C2526.32 1257.44 2526.32 1255.54 2525.75 1253.78C2525.17 1252.03 2524.05 1250.49 2522.55 1249.41L2482.19 1220.29C2475.28 1215.31 2478.83 1204.46 2487.37 1204.46H2537.25C2539.12 1204.46 2540.93 1203.87 2542.43 1202.79C2543.94 1201.7 2545.06 1200.17 2545.64 1198.41L2561.05 1151.3C2563.7 1143.23 2575.19 1143.23 2577.83 1151.3Z" fill="black"/>
</g>
<g clip-path="url(#clip6_1_187)">
<path d="M256.917 1659.53L262.831 1675.51C263.348 1676.9 264.161 1678.17 265.215 1679.23C266.27 1680.28 267.539 1681.1 268.938 1681.61L284.917 1687.53C293.915 1690.86 293.915 1703.59 284.917 1706.92L268.938 1712.83C267.539 1713.35 266.27 1714.16 265.215 1715.22C264.161 1716.27 263.348 1717.54 262.831 1718.94L256.917 1734.92C253.586 1743.92 240.858 1743.92 237.527 1734.92L231.613 1718.94C231.096 1717.54 230.283 1716.27 229.229 1715.22C228.175 1714.16 226.905 1713.35 225.506 1712.83L209.527 1706.92C200.529 1703.59 200.529 1690.86 209.527 1687.53L225.506 1681.61C226.905 1681.1 228.175 1680.28 229.229 1679.23C230.283 1678.17 231.096 1676.9 231.613 1675.51L237.527 1659.53C240.858 1650.53 253.586 1650.53 256.917 1659.53V1659.53Z" fill="white"/>
</g>
<g clip-path="url(#clip7_1_187)">
<path d="M1746.48 2282.99C1755.85 2290.99 1765.54 2299.26 1775.84 2308.28C1777.92 2310.11 1780.58 2311.12 1783.33 2311.12C1786.08 2311.12 1788.74 2310.11 1790.82 2308.28C1800.55 2299.79 1810.33 2291.36 1820.17 2283C1836.45 2269.1 1850.51 2257.09 1862.72 2245.45C1886.41 2222.84 1908.33 2197.18 1908.33 2162.8C1908.33 2143.26 1901.69 2124.95 1889.65 2111.26C1876.96 2096.83 1859.37 2088.89 1840.11 2088.89C1818.62 2088.89 1799.99 2099.17 1786.23 2118.61C1785.2 2120.07 1784.23 2121.53 1783.33 2122.97C1782.41 2121.49 1781.44 2120.03 1780.43 2118.61C1766.68 2099.17 1748.05 2088.89 1726.56 2088.89C1707.3 2088.89 1689.7 2096.83 1677.01 2111.26C1664.97 2124.95 1658.33 2143.26 1658.33 2162.8C1658.33 2184.04 1666.48 2203.64 1683.97 2224.48C1699.24 2242.66 1721.13 2261.35 1746.48 2282.99V2282.99Z" fill="#E45E47"/>
</g>
<g clip-path="url(#clip8_1_187)">
<path d="M2098.58 990.083L2104.5 1006.06C2105.01 1007.46 2105.83 1008.73 2106.88 1009.78C2107.94 1010.84 2109.21 1011.65 2110.6 1012.17L2126.58 1018.08C2135.58 1021.41 2135.58 1034.14 2126.58 1037.47L2110.6 1043.39C2109.21 1043.9 2107.94 1044.72 2106.88 1045.77C2105.83 1046.83 2105.01 1048.09 2104.5 1049.49L2098.58 1065.47C2095.25 1074.47 2082.52 1074.47 2079.19 1065.47L2073.28 1049.49C2072.76 1048.09 2071.95 1046.83 2070.9 1045.77C2069.84 1044.72 2068.57 1043.9 2067.17 1043.39L2051.19 1037.47C2042.2 1034.14 2042.2 1021.41 2051.19 1018.08L2067.17 1012.17C2068.57 1011.65 2069.84 1010.84 2070.9 1009.78C2071.95 1008.73 2072.76 1007.46 2073.28 1006.06L2079.19 990.083C2082.52 981.084 2095.25 981.084 2098.58 990.083V990.083Z" fill="white"/>
</g>
<g clip-path="url(#clip9_1_187)">
<path d="M933.333 1536.11H1074.36V1551.65H933.333V1536.11ZM933.333 1613.34H1180.56V1628.88H933.333V1613.34ZM933.333 1690.57H1180.56V1706.11H933.333V1690.57ZM933.333 1767.79H1180.56V1783.33H933.333V1767.79Z" fill="white"/>
</g>
<g clip-path="url(#clip10_1_187)">
<path d="M2762.78 1809.74C2765.4 1796.85 2760.26 1782.66 2749.98 1774.44C2743.59 1769.33 2735.38 1766.65 2727.2 1766.65C2722.21 1766.63 2717.27 1767.66 2712.7 1769.68C2711.09 1770.4 2709.53 1771.24 2708.03 1772.05C2705.68 1773.32 2703.46 1774.52 2701.06 1775.29C2690.1 1778.84 2679.56 1773.01 2668.41 1766.83C2663.42 1764.07 2658.26 1761.21 2653.03 1759.24C2643.54 1755.68 2633.32 1755.06 2623.45 1754.46C2616.17 1754.02 2608.64 1753.57 2601.54 1751.92C2590.98 1749.48 2580.85 1742.17 2576.31 1733.72C2573.44 1728.38 2572.93 1722.85 2574.85 1717.74C2576.14 1714.29 2578.41 1711.33 2580.82 1708.21C2582.94 1705.45 2585.13 1702.61 2586.64 1699.34C2589.96 1692.17 2589.51 1684.25 2589.08 1676.59C2588.79 1671.58 2588.5 1666.39 2589.29 1661.55C2590.56 1653.77 2594.68 1646.5 2598.67 1639.47C2603.54 1630.88 2608.57 1622 2608.67 1611.91C2608.73 1606.66 2607.41 1601.58 2606.13 1596.66C2605.52 1594.31 2604.89 1591.88 2604.43 1589.49C2602.53 1579.63 2603.48 1569.25 2607.17 1559.36L2608.06 1557.98C2571.49 1542.81 2532.8 1533.37 2493.34 1529.98C2489.49 1540.93 2478.56 1552.46 2474.09 1563.07C2471.96 1568.13 2471.42 1573.72 2469.54 1578.88C2467.66 1584.03 2463.81 1589.09 2458.37 1589.86C2456.7 1590.1 2454.94 1589.93 2453.4 1590.59C2449.16 1592.41 2449.54 1598.44 2447.59 1602.62C2445.55 1607.01 2440.54 1609.41 2435.7 1609.71C2430.86 1610.02 2426.1 1608.59 2421.47 1607.18C2415.48 1605.37 2409.05 1603.24 2405.45 1598.13C2403.48 1595.33 2402.58 1591.91 2400.82 1588.97C2397.7 1583.76 2392.22 1580.53 2387.31 1576.95C2376.28 1568.88 2367.4 1554.66 2361.53 1541.31C2338.6 1547.34 2316.27 1555.48 2294.84 1565.63L2295.74 1566.97C2295.97 1569.5 2296.71 1571.95 2297.92 1574.18C2299.13 1576.42 2300.78 1578.38 2302.77 1579.96L2331.01 1602.53C2332.85 1604 2334.34 1605.86 2335.36 1607.98C2336.38 1610.1 2336.91 1612.42 2336.9 1614.77V1646.84C2336.91 1651.86 2338.91 1656.67 2342.46 1660.22C2346.01 1663.77 2350.83 1665.76 2355.86 1665.77H2369.05C2373.22 1665.77 2377.2 1667.43 2380.15 1670.37C2383.09 1673.31 2384.74 1677.29 2384.75 1681.45V1696.63C2384.74 1699.08 2384.17 1701.49 2383.07 1703.68C2381.96 1705.86 2380.36 1707.76 2378.4 1709.23L2300.91 1766.57C2298.2 1768.56 2294.93 1769.64 2291.56 1769.65H2243.66C2238.64 1769.65 2233.82 1771.65 2230.27 1775.2C2226.71 1778.75 2224.71 1783.56 2224.71 1788.58V1820.15C2224.71 1825.2 2226.68 1829.96 2230.26 1833.53L2263.84 1867.07C2265.59 1868.83 2267.68 1870.23 2269.98 1871.18C2272.28 1872.14 2274.75 1872.62 2277.24 1872.62H2324.51C2328.67 1872.62 2332.66 1874.28 2335.6 1877.21C2338.55 1880.15 2340.2 1884.14 2340.21 1888.3V1902.3C2340.21 1907.32 2342.21 1912.14 2345.76 1915.68C2349.32 1919.23 2354.13 1921.23 2359.16 1921.24H2392.16C2396.32 1921.24 2400.31 1922.9 2403.25 1925.84C2406.19 1928.77 2407.85 1932.76 2407.85 1936.92C2407.86 1941.94 2409.86 1946.75 2413.41 1950.3C2416.97 1953.85 2421.78 1955.84 2426.81 1955.85H2469.71C2473.87 1955.85 2477.86 1957.51 2480.8 1960.45C2483.74 1963.39 2485.4 1967.37 2485.4 1971.53V2016.83C2485.41 2019.17 2484.89 2021.48 2483.88 2023.59C2482.87 2025.7 2481.4 2027.55 2479.57 2029.02L2414.89 2081.26C2412.69 2083.03 2410.92 2085.27 2409.7 2087.82C2408.48 2090.37 2407.85 2093.16 2407.86 2095.98V2118.12C2407.85 2120.27 2407.41 2122.39 2406.56 2124.36C2405.7 2126.33 2404.45 2128.1 2402.89 2129.57L2378.6 2152.27C2376.71 2154.05 2375.2 2156.19 2374.17 2158.56C2373.13 2160.94 2372.6 2163.51 2372.59 2166.1V2215.45C2372.59 2219.61 2370.93 2223.59 2367.99 2226.53C2365.05 2229.47 2361.06 2231.13 2356.9 2231.13H2331.12C2326.96 2231.13 2322.97 2229.47 2320.02 2226.53C2317.08 2223.59 2315.43 2219.61 2315.42 2215.45V2183.97C2315.42 2181.14 2314.77 2178.3 2313.55 2175.75L2295.53 2138.37C2294.51 2136.25 2293.98 2133.92 2293.97 2131.57V2060.33C2293.97 2057.33 2293.25 2054.37 2291.88 2051.7C2290.52 2049.03 2288.53 2046.72 2286.1 2044.96L2218 1995.98C2215.99 1994.53 2214.35 1992.62 2213.21 1990.41C2212.08 1988.2 2211.48 1985.75 2211.48 1983.26V1933.99C2211.48 1931.33 2212.17 1928.69 2213.46 1926.37L2217.06 1919.92C2219.06 1916.31 2219.82 1912.14 2219.24 1908.06C2218.66 1903.97 2216.77 1900.18 2213.84 1897.27L2154.04 1838.04C2151.08 1835.09 2149.41 1831.08 2149.4 1826.9V1789.19C2149.4 1786.56 2148.85 1783.97 2147.79 1781.57C2146.74 1779.17 2145.19 1777.01 2143.26 1775.24L2113.82 1748.25L2112.51 1747.21C2043.97 1890.28 2069.01 2066.88 2187.67 2185.41C2338.1 2335.68 2582 2335.68 2732.43 2185.41C2742.4 2175.45 2751.81 2164.95 2760.64 2153.97H2758.58C2746.53 2145.32 2737.4 2137.53 2729.91 2129.56C2711.14 2109.59 2698.63 2083.66 2694.7 2056.54C2694.02 2051.81 2693.57 2046.92 2693.14 2042.2C2692.39 2033.98 2691.62 2025.48 2689.54 2017.29C2686.69 2006.05 2681.41 1995.47 2676.31 1985.22C2669.49 1971.54 2663.05 1958.61 2661.71 1944.08C2659.78 1923.3 2669.64 1902.21 2686.84 1890.34C2696.92 1883.38 2709.07 1879.7 2720.81 1876.14C2731.88 1872.78 2743.33 1869.31 2753.33 1863.08C2755.86 1861.49 2758.62 1859.47 2759.91 1856.39C2761.71 1852.06 2760.01 1847.79 2758.38 1843.67C2757.69 1841.93 2757.03 1840.28 2756.64 1838.64C2755.16 1832.54 2757.34 1826.45 2759.64 1820C2760.84 1816.67 2762.06 1813.23 2762.78 1809.74V1809.74Z" fill="#2724F2"/>
<path d="M2469.7 1954.22H2426.8C2417.23 1954.22 2409.47 1946.47 2409.47 1936.91C2409.47 1927.35 2401.72 1919.61 2392.15 1919.61H2359.15C2356.88 1919.61 2354.62 1919.16 2352.52 1918.29C2350.42 1917.42 2348.51 1916.14 2346.9 1914.54C2345.29 1912.93 2344.02 1911.02 2343.15 1908.92C2342.28 1906.82 2341.83 1904.57 2341.83 1902.3V1888.29C2341.83 1883.7 2340 1879.3 2336.76 1876.06C2333.51 1872.81 2329.1 1870.99 2324.51 1870.99H2277.24C2272.64 1870.99 2268.24 1869.16 2264.99 1865.92L2231.41 1832.38C2229.81 1830.77 2228.53 1828.87 2227.66 1826.77C2226.79 1824.67 2226.34 1822.42 2226.34 1820.15V1788.58C2226.34 1783.99 2228.17 1779.59 2231.41 1776.35C2234.66 1773.1 2239.07 1771.28 2243.66 1771.28H2291.56C2295.27 1771.28 2298.89 1770.09 2301.87 1767.88L2379.36 1710.54C2381.54 1708.93 2383.3 1706.83 2384.52 1704.42C2385.74 1702 2386.37 1699.34 2386.38 1696.63V1681.45C2386.38 1676.86 2384.55 1672.46 2381.3 1669.21C2378.05 1665.97 2373.65 1664.14 2369.05 1664.14H2355.85C2353.58 1664.14 2351.33 1663.7 2349.23 1662.83C2347.12 1661.96 2345.21 1660.68 2343.61 1659.07C2342 1657.47 2340.72 1655.56 2339.85 1653.46C2338.98 1651.36 2338.53 1649.11 2338.53 1646.84V1614.78C2338.53 1612.18 2337.95 1609.62 2336.82 1607.28C2335.7 1604.94 2334.06 1602.89 2332.03 1601.26L2303.79 1578.69C2301.76 1577.07 2300.12 1575.02 2298.99 1572.68C2297.87 1570.34 2297.28 1567.78 2297.28 1565.18V1564.45C2257.6 1582.93 2220.42 1608.51 2187.67 1641.23C2155.49 1673.37 2130.22 1709.78 2111.81 1748.63L2142.15 1776.43C2143.92 1778.06 2145.33 1780.03 2146.29 1782.22C2147.26 1784.42 2147.76 1786.79 2147.76 1789.19V1826.9C2147.76 1831.51 2149.61 1835.93 2152.89 1839.19L2212.68 1898.42C2215.36 1901.08 2217.1 1904.54 2217.63 1908.28C2218.16 1912.02 2217.46 1915.82 2215.62 1919.12L2212.02 1925.57C2210.59 1928.15 2209.84 1931.04 2209.84 1933.99V1983.26C2209.84 1988.83 2212.52 1994.06 2217.04 1997.3L2285.13 2046.28C2287.36 2047.88 2289.17 2049.99 2290.43 2052.43C2291.68 2054.88 2292.33 2057.58 2292.33 2060.32V2131.57C2292.33 2134.16 2292.92 2136.73 2294.05 2139.07L2312.07 2176.46C2313.2 2178.8 2313.78 2181.37 2313.78 2183.97V2215.45C2313.78 2220.04 2315.61 2224.44 2318.86 2227.69C2322.11 2230.93 2326.51 2232.76 2331.11 2232.76H2356.89C2359.16 2232.76 2361.41 2232.31 2363.52 2231.44C2365.62 2230.57 2367.53 2229.3 2369.14 2227.69C2370.74 2226.08 2372.02 2224.17 2372.89 2222.07C2373.76 2219.97 2374.21 2217.72 2374.21 2215.45V2166.1C2374.21 2161.31 2376.2 2156.73 2379.7 2153.46L2403.99 2130.76C2405.72 2129.14 2407.1 2127.18 2408.04 2125.01C2408.99 2122.83 2409.48 2120.49 2409.48 2118.12V2095.98C2409.48 2090.76 2411.84 2085.81 2415.91 2082.52L2480.59 2030.28C2482.59 2028.66 2484.21 2026.61 2485.33 2024.28C2486.44 2021.95 2487.02 2019.41 2487.02 2016.83V1971.52C2487.02 1966.93 2485.19 1962.53 2481.94 1959.29C2478.7 1956.04 2474.29 1954.22 2469.7 1954.22V1954.22ZM2845.26 1913.32C2845.26 1814.84 2807.65 1716.36 2732.43 1641.23C2695.16 1604 2652.15 1576 2606.25 1557.22C2602.1 1567.5 2600.73 1578.9 2602.83 1589.81C2604.25 1597.19 2607.12 1604.39 2607.04 1611.9C2606.86 1629.74 2590.56 1643.68 2587.68 1661.29C2585.65 1673.71 2590.44 1687.23 2585.16 1698.66C2582.07 1705.33 2575.9 1710.29 2573.32 1717.17C2567.25 1733.37 2584.3 1749.6 2601.17 1753.51C2618.04 1757.41 2636.24 1754.68 2652.45 1760.77C2669.02 1766.99 2684.72 1782.29 2701.56 1776.84C2705.72 1775.49 2709.37 1772.95 2713.36 1771.17C2724.84 1766.03 2739.13 1767.85 2748.95 1775.71C2758.78 1783.57 2763.68 1797.1 2761.17 1809.42C2759.14 1819.42 2752.64 1829.1 2755.05 1839.02C2756.42 1844.69 2760.64 1850.38 2758.4 1855.76C2757.31 1858.39 2754.88 1860.19 2752.46 1861.7C2732.04 1874.43 2705.71 1875.34 2685.9 1889.01C2668.36 1901.11 2658.11 1923.03 2660.08 1944.24C2662.51 1970.43 2681.48 1992.19 2687.95 2017.69C2691.19 2030.44 2691.2 2043.76 2693.09 2056.78C2697.07 2084.26 2709.69 2110.43 2728.71 2130.68C2737.75 2140.3 2748.09 2148.52 2758.87 2156.19C2816.45 2085.66 2845.2 1999.49 2845.2 1913.33L2845.26 1913.32ZM2469.54 1580.51C2471.42 1575.35 2471.96 1569.76 2474.09 1564.7C2478.64 1553.91 2489.89 1542.16 2493.56 1531.04C2493.67 1530.7 2493.75 1530.36 2493.85 1530.02C2482.61 1529.03 2471.33 1528.53 2460.05 1528.52V1528.57C2426.69 1528.57 2393.34 1532.89 2360.89 1541.48C2366.74 1555.24 2375.87 1570.22 2387.31 1578.58C2392.21 1582.17 2397.7 1585.4 2400.82 1590.61C2402.58 1593.55 2403.47 1596.97 2405.45 1599.77C2409.05 1604.88 2415.48 1607.01 2421.47 1608.82C2426.1 1610.23 2430.86 1611.65 2435.7 1611.35C2440.54 1611.04 2445.55 1608.65 2447.59 1604.26C2449.54 1600.08 2449.16 1594.04 2453.39 1592.23C2454.94 1591.57 2456.7 1591.74 2458.37 1591.5C2463.81 1590.72 2467.66 1585.67 2469.54 1580.51V1580.51Z" fill="#F5C845"/>
<path d="M2933.33 1913.31C2933.33 1754.78 2854.35 1607.75 2722 1520.02C2717.52 1517.07 2712.04 1516.01 2706.77 1517.08C2701.51 1518.15 2696.88 1521.26 2693.9 1525.74C2690.94 1530.21 2689.87 1535.68 2690.94 1540.94C2692 1546.2 2695.11 1550.83 2699.58 1553.8C2717.96 1565.96 2735.37 1579.5 2751.68 1594.31L2718.23 1627.72C2723.06 1632.11 2727.8 1636.61 2732.42 1641.21C2737.38 1646.14 2742.18 1651.22 2746.82 1656.44L2780.35 1622.94C2852 1701.43 2892.79 1804.4 2892.79 1913.31C2892.79 2151.14 2699.1 2344.67 2460.97 2344.67C2351.94 2344.67 2248.87 2303.92 2170.29 2232.35L2202.89 2199.79C2192.83 2190.76 2183.23 2181.23 2174.14 2171.23L2141.62 2203.72C2126.8 2187.42 2113.25 2170.02 2101.08 2151.67C2094.87 2142.36 2082.3 2139.84 2072.94 2146C2063.61 2152.2 2061.1 2164.79 2067.26 2174.11C2119.85 2253.21 2193.73 2313.24 2278.59 2348.68C2223.25 2363.62 2184.15 2418.65 2194.73 2480.56H2727.2C2737.79 2418.61 2698.66 2363.53 2643.18 2348.64C2813.44 2277.27 2933.33 2109.02 2933.33 1913.31V1913.31Z" fill="black"/>
</g>
<defs>
<clipPath id="clip0_1_187">
<rect width="1905.56" height="1269.44" fill="white" transform="translate(377.777 672.222)"/>
</clipPath>
<clipPath id="clip1_1_187">
<rect width="680.556" height="1122.22" fill="white" transform="translate(105.556 1180.56)"/>
</clipPath>
<clipPath id="clip2_1_187">
<rect width="577.778" height="625" fill="white" transform="translate(933.333 2036.11)"/>
</clipPath>
<clipPath id="clip3_1_187">
<rect width="552.778" height="677.778" fill="white" transform="translate(1500 1097.22)"/>
</clipPath>
<clipPath id="clip4_1_187">
<rect width="469.444" height="1225" fill="white" transform="translate(925 311.111)"/>
</clipPath>
<clipPath id="clip5_1_187">
<rect width="383.333" height="583.333" fill="white" transform="translate(2377.78 844.444)"/>
</clipPath>
<clipPath id="clip6_1_187">
<rect width="88.8889" height="88.8889" fill="white" transform="translate(202.777 1652.78)"/>
</clipPath>
<clipPath id="clip7_1_187">
<rect width="250" height="222.222" fill="white" transform="translate(1658.33 2088.89)"/>
</clipPath>
<clipPath id="clip8_1_187">
<rect width="88.8889" height="88.8889" fill="white" transform="translate(2044.44 983.333)"/>
</clipPath>
<clipPath id="clip9_1_187">
<rect width="247.222" height="247.222" fill="white" transform="translate(933.333 1536.11)"/>
</clipPath>
<clipPath id="clip10_1_187">
<rect width="869.444" height="963.889" fill="white" transform="translate(2063.89 1516.67)"/>
</clipPath>
</defs>
</svg>
