<svg width="395" height="295" viewBox="0 0 395 295" fill="none" xmlns="http://www.w3.org/2000/svg">
<g clip-path="url(#clip0_1_1808)">
<path d="M394.641 20.5755V44.095H0.367188V20.5755C0.367188 9.21222 9.5794 0 20.9427 0H374.064C385.428 0 394.641 9.21222 394.641 20.5755V20.5755Z" fill="black"/>
<path d="M394.636 44.096V274.425C394.636 285.789 385.424 295.001 374.059 295.001H20.9349C9.57159 295 0.359375 285.788 0.359375 274.425V44.096H394.636Z" fill="#E45E47"/>
<path d="M41.1246 27.8204C44.3129 27.8204 46.8976 25.2357 46.8976 22.0474C46.8976 18.859 44.3129 16.2744 41.1246 16.2744C37.9362 16.2744 35.3516 18.859 35.3516 22.0474C35.3516 25.2357 37.9362 27.8204 41.1246 27.8204Z" fill="white"/>
<path d="M69.9683 27.8204C73.1567 27.8204 75.7413 25.2357 75.7413 22.0474C75.7413 18.859 73.1567 16.2744 69.9683 16.2744C66.78 16.2744 64.1953 18.859 64.1953 22.0474C64.1953 25.2357 66.78 27.8204 69.9683 27.8204Z" fill="white"/>
<path d="M98.8121 27.8204C102 27.8204 104.585 25.2357 104.585 22.0474C104.585 18.859 102 16.2744 98.8121 16.2744C95.6237 16.2744 93.0391 18.859 93.0391 22.0474C93.0391 25.2357 95.6237 27.8204 98.8121 27.8204Z" fill="white"/>
</g>
<defs>
<clipPath id="clip0_1_1808">
<rect width="395" height="295" fill="white"/>
</clipPath>
</defs>
</svg>
