<svg width="224" height="347" viewBox="0 0 224 347" fill="none" xmlns="http://www.w3.org/2000/svg">
<g clip-path="url(#clip0_1_1862)">
<path d="M223.932 20.5897V44.1255H0.0703125V20.5897C0.0703125 9.21859 9.2889 0 20.661 0H203.342C214.714 0 223.932 9.21859 223.932 20.5897V20.5897Z" fill="black"/>
<path d="M223.935 44.1295V326.408C223.935 337.777 214.711 347 203.343 347H20.6542C9.28609 347 0.0625 337.776 0.0625 326.408V44.1295H223.935Z" fill="#2724F2"/>
<path d="M40.8553 27.8399C44.0459 27.8399 46.6324 25.2534 46.6324 22.0628C46.6324 18.8722 44.0459 16.2856 40.8553 16.2856C37.6646 16.2856 35.0781 18.8722 35.0781 22.0628C35.0781 25.2534 37.6646 27.8399 40.8553 27.8399Z" fill="white"/>
<path d="M69.7224 27.8399C72.9131 27.8399 75.4996 25.2534 75.4996 22.0628C75.4996 18.8722 72.9131 16.2856 69.7224 16.2856C66.5318 16.2856 63.9453 18.8722 63.9453 22.0628C63.9453 25.2534 66.5318 27.8399 69.7224 27.8399Z" fill="white"/>
<path d="M98.5896 27.8399C101.78 27.8399 104.367 25.2534 104.367 22.0628C104.367 18.8722 101.78 16.2856 98.5896 16.2856C95.399 16.2856 92.8125 18.8722 92.8125 22.0628C92.8125 25.2534 95.399 27.8399 98.5896 27.8399Z" fill="white"/>
</g>
<defs>
<clipPath id="clip0_1_1862">
<rect width="224" height="347" fill="white"/>
</clipPath>
</defs>
</svg>
