<svg width="177" height="173" viewBox="0 0 177 173" fill="none" xmlns="http://www.w3.org/2000/svg">
<g clip-path="url(#clip0_1_2090)">
<path d="M153.013 0V93.6998L88.5064 131.864L23.9922 93.6998V0L153.013 0Z" fill="white"/>
<path d="M176.912 79.5575V173H0.0859375V79.5575L88.5036 131.865L153.007 93.6958L176.912 79.5575Z" fill="#2724F2"/>
<path d="M23.9894 65.4223V93.6998L0.0859375 79.5605L23.9894 65.4223Z" fill="#E45E47"/>
<path d="M176.911 79.5605L153.008 93.6998V65.4223L176.911 79.5605Z" fill="#E45E47"/>
<path d="M158.049 173H0.0859375V79.5575L88.5036 131.865L158.049 173Z" fill="black"/>
<path d="M46.8672 25.5514H130.136V28.7791H46.8672V25.5514Z" fill="black"/>
<path d="M46.8672 41.9603H130.136V45.188H46.8672V41.9603Z" fill="black"/>
<path d="M46.8672 58.3701H130.136V61.5979H46.8672V58.3701Z" fill="black"/>
<path d="M46.8672 74.779H130.136V78.0067H46.8672V74.779Z" fill="black"/>
</g>
<defs>
<clipPath id="clip0_1_2090">
<rect width="177" height="173" fill="white"/>
</clipPath>
</defs>
</svg>
