<svg width="105" height="105" viewBox="0 0 105 105" fill="none" xmlns="http://www.w3.org/2000/svg">
<g clip-path="url(#clip0_1_2253)">
<path d="M52.5 105C81.4949 105 105 81.4949 105 52.5C105 23.505 81.4949 0 52.5 0C23.505 0 0 23.505 0 52.5C0 81.4949 23.505 105 52.5 105Z" fill="black"/>
<path d="M64.1313 56.2021L65.7759 45.4816H55.4904V38.5254C55.4904 35.593 56.9275 32.7337 61.5346 32.7337H66.2109V23.6067C66.2109 23.6067 61.9666 22.8821 57.9087 22.8821C49.4371 22.8821 43.901 28.0164 43.901 37.3107V45.4816H34.4844V56.2021H43.901V82.1169H55.4904V56.2021H64.1313Z" fill="white"/>
</g>
<defs>
<clipPath id="clip0_1_2253">
<rect width="105" height="105" fill="white"/>
</clipPath>
</defs>
</svg>
