<svg width="3000" height="3000" viewBox="0 0 3000 3000" fill="none" xmlns="http://www.w3.org/2000/svg">
<g clip-path="url(#clip0_1_526)">
<path d="M1846.23 2557.85H1452.19L1520.83 2464.99H1777.6L1846.23 2557.85Z" fill="#E45E47"/>
<path d="M2080.31 2672.22H1218.12C1218.12 2609.07 1269.42 2557.87 1332.72 2557.87H1965.71C2029.02 2557.87 2080.31 2609.07 2080.31 2672.22ZM758.766 2464.97C665.1 2464.97 588.889 2388.95 588.889 2295.52V1241.67C588.889 1148.24 665.1 1072.22 758.766 1072.22H2538.37C2632.04 1072.22 2708.24 1148.24 2708.24 1241.67L2708.33 1333.9V2295.52C2708.33 2388.95 2632.12 2464.97 2538.45 2464.97H758.766V2464.97Z" fill="black"/>
<path d="M2619.33 1333.88L2619.29 2296.88C2618.58 2340.83 2582.63 2376.23 2538.41 2376.23H758.73C714.039 2376.23 677.844 2340.09 677.844 2295.51V1333.88H2619.33Z" fill="#2724F2"/>
<path d="M2619.31 1241.65V1333.89H677.84V1241.65C677.84 1197.09 714.057 1160.96 758.733 1160.96H2538.41C2583.09 1160.96 2619.31 1197.09 2619.31 1241.65Z" fill="#E45E47"/>
<path d="M803.519 1270.07C816.055 1270.07 826.217 1259.93 826.217 1247.42C826.217 1234.92 816.055 1224.78 803.519 1224.78C790.983 1224.78 780.82 1234.92 780.82 1247.42C780.82 1259.93 790.983 1270.07 803.519 1270.07Z" fill="white"/>
<path d="M916.927 1270.07C929.463 1270.07 939.625 1259.93 939.625 1247.42C939.625 1234.92 929.463 1224.78 916.927 1224.78C904.391 1224.78 894.229 1234.92 894.229 1247.42C894.229 1259.93 904.391 1270.07 916.927 1270.07Z" fill="white"/>
<path d="M1030.33 1270.07C1042.87 1270.07 1053.03 1259.93 1053.03 1247.42C1053.03 1234.92 1042.87 1224.78 1030.33 1224.78C1017.8 1224.78 1007.63 1234.92 1007.63 1247.42C1007.63 1259.93 1017.8 1270.07 1030.33 1270.07Z" fill="white"/>
</g>
<g clip-path="url(#clip1_1_526)">
<path d="M439.329 910.508C437.861 910.508 436.454 909.922 435.416 908.881C434.378 907.839 433.795 906.426 433.795 904.953V663.123C433.795 613.71 473.844 573.511 523.073 573.511H635.58C637.048 573.511 638.456 574.096 639.494 575.138C640.532 576.18 641.115 577.593 641.115 579.066C641.115 580.539 640.532 581.952 639.494 582.994C638.456 584.036 637.048 584.621 635.58 584.621H523.073C479.947 584.621 444.863 619.839 444.863 663.123V904.953C444.863 906.426 444.28 907.839 443.242 908.881C442.205 909.922 440.797 910.508 439.329 910.508Z" fill="black"/>
<path d="M725.464 791.461H1469.17C1504.6 791.461 1533.33 762.624 1533.33 727.053V431.074C1533.33 395.504 1504.61 366.667 1469.17 366.667H725.464C690.027 366.667 661.297 395.504 661.297 431.074V727.053C661.297 762.624 690.027 791.461 725.464 791.461Z" fill="#F5C845"/>
<path d="M1471.31 502.57V655.561C1430.79 655.561 1397.94 688.539 1397.94 729.201H796.69C796.69 688.539 763.835 655.561 723.324 655.561V502.57C763.835 502.57 796.69 469.592 796.69 428.93H1397.94C1397.94 469.592 1430.79 502.57 1471.31 502.57Z" fill="#E45E47"/>
<path d="M1097.32 661.138C1127.88 661.138 1152.65 624.392 1152.65 579.062C1152.65 533.733 1127.88 496.986 1097.32 496.986C1066.76 496.986 1041.99 533.733 1041.99 579.062C1041.99 624.392 1066.76 661.138 1097.32 661.138Z" fill="white"/>
<path d="M1288.09 608.592C1312.1 608.592 1331.57 595.371 1331.57 579.062C1331.57 562.753 1312.1 549.532 1288.09 549.532C1264.08 549.532 1244.61 562.753 1244.61 579.062C1244.61 595.371 1264.08 608.592 1288.09 608.592Z" fill="white"/>
<path d="M906.541 608.592C930.553 608.592 950.018 595.371 950.018 579.062C950.018 562.753 930.553 549.532 906.541 549.532C882.53 549.532 863.064 562.753 863.064 579.062C863.064 595.371 882.53 608.592 906.541 608.592Z" fill="white"/>
<path d="M289.168 1355.56H1032.87C1068.31 1355.56 1097.04 1326.72 1097.04 1291.15V995.169C1097.04 959.599 1068.31 930.761 1032.87 930.761H289.168C253.73 930.761 225 959.599 225 995.169V1291.15C225 1326.72 253.73 1355.56 289.168 1355.56Z" fill="#F5C845"/>
<path d="M1035.01 1066.66V1219.66C994.498 1219.66 961.643 1252.63 961.643 1293.3H360.393C360.393 1252.63 327.538 1219.66 287.027 1219.66V1066.66C327.538 1066.66 360.393 1033.69 360.393 993.025H961.643C961.643 1033.69 994.498 1066.66 1035.01 1066.66Z" fill="#E45E47"/>
<path d="M661.021 1225.24C691.579 1225.24 716.352 1188.49 716.352 1143.16C716.352 1097.83 691.579 1061.08 661.021 1061.08C630.462 1061.08 605.689 1097.83 605.689 1143.16C605.689 1188.49 630.462 1225.24 661.021 1225.24Z" fill="white"/>
<path d="M851.793 1172.69C875.805 1172.69 895.27 1159.47 895.27 1143.16C895.27 1126.85 875.805 1113.63 851.793 1113.63C827.782 1113.63 808.316 1126.85 808.316 1143.16C808.316 1159.47 827.782 1172.69 851.793 1172.69Z" fill="white"/>
<path d="M470.245 1172.69C494.256 1172.69 513.721 1159.47 513.721 1143.16C513.721 1126.85 494.256 1113.63 470.245 1113.63C446.233 1113.63 426.768 1126.85 426.768 1143.16C426.768 1159.47 446.233 1172.69 470.245 1172.69Z" fill="white"/>
<path d="M635.585 604.874C649.787 604.874 661.301 593.318 661.301 579.062C661.301 564.806 649.787 553.25 635.585 553.25C621.382 553.25 609.869 564.806 609.869 579.062C609.869 593.318 621.382 604.874 635.585 604.874Z" fill="black"/>
<path d="M439.329 930.765C453.531 930.765 465.045 919.208 465.045 904.953C465.045 890.697 453.531 879.141 439.329 879.141C425.127 879.141 413.613 890.697 413.613 904.953C413.613 919.208 425.127 930.765 439.329 930.765Z" fill="black"/>
</g>
<g clip-path="url(#clip2_1_526)">
<path d="M2661.11 2105.56C2786.91 2105.56 2888.89 2003.58 2888.89 1877.78C2888.89 1751.98 2786.91 1650 2661.11 1650C2535.31 1650 2433.33 1751.98 2433.33 1877.78C2433.33 2003.58 2535.31 2105.56 2661.11 2105.56Z" fill="#F5C845"/>
<path d="M2622.63 1824.53C2628.78 1794.06 2678.01 1800.5 2699.7 1814.28C2717.29 1827.17 2738.38 1801.67 2718.46 1785.56C2707.39 1777.06 2692.92 1771.67 2677.6 1769.47V1752.73C2677.6 1750.56 2677.17 1748.42 2676.34 1746.42C2675.51 1744.42 2674.3 1742.6 2672.77 1741.07C2671.24 1739.54 2669.42 1738.33 2667.42 1737.5C2665.42 1736.67 2663.28 1736.24 2661.11 1736.24C2658.95 1736.24 2656.8 1736.67 2654.8 1737.5C2652.8 1738.33 2650.99 1739.54 2649.46 1741.07C2647.92 1742.6 2646.71 1744.42 2645.88 1746.42C2645.05 1748.42 2644.63 1750.56 2644.63 1752.73V1769.64C2614.99 1774.29 2589 1791.35 2585.41 1821.6C2576.33 1904.83 2698.23 1878.75 2702.05 1922.12C2697.65 1963.73 2635.81 1951.42 2611.79 1935.01C2601.82 1926.81 2593.33 1929.45 2585.7 1937.06C2580.43 1944.97 2580.14 1957.87 2589.81 1965.78C2602.94 1976.64 2623.2 1983.74 2644.63 1985.89V2002.83C2644.63 2005 2645.05 2007.14 2645.88 2009.14C2646.71 2011.14 2647.92 2012.96 2649.46 2014.49C2650.99 2016.02 2652.8 2017.23 2654.8 2018.06C2656.8 2018.89 2658.95 2019.32 2661.11 2019.32C2663.28 2019.32 2665.42 2018.89 2667.42 2018.06C2669.42 2017.23 2671.24 2016.02 2672.77 2014.49C2674.3 2012.96 2675.51 2011.14 2676.34 2009.14C2677.17 2007.14 2677.6 2005 2677.6 2002.83V1985.09C2710.63 1979.92 2739.1 1960.89 2740.14 1923C2742.19 1845.05 2614.71 1872.59 2622.63 1824.53V1824.53Z" fill="white"/>
</g>
<g clip-path="url(#clip3_1_526)">
<path d="M2531.56 794.548L2538.95 814.522C2539.6 816.27 2540.62 817.857 2541.94 819.175C2543.25 820.492 2544.84 821.509 2546.59 822.155L2566.56 829.548C2577.81 833.711 2577.81 849.622 2566.56 853.785L2546.59 861.177C2544.84 861.824 2543.25 862.84 2541.94 864.158C2540.62 865.476 2539.6 867.063 2538.95 868.811L2531.56 888.785C2527.4 900.033 2511.49 900.033 2507.32 888.785L2499.93 868.811C2499.29 867.063 2498.27 865.476 2496.95 864.158C2495.63 862.84 2494.05 861.824 2492.3 861.177L2472.32 853.785C2461.08 849.622 2461.08 833.711 2472.32 829.548L2492.3 822.155C2494.05 821.509 2495.63 820.492 2496.95 819.175C2498.27 817.857 2499.29 816.27 2499.93 814.522L2507.32 794.548C2511.49 783.3 2527.4 783.3 2531.56 794.548V794.548Z" fill="black"/>
</g>
<g clip-path="url(#clip4_1_526)">
<path d="M668.069 2666.67C275.16 2666.67 105.702 2515.62 172.558 2208.54C233.403 1929.06 429.721 1808.24 477.433 1782.6C481.444 1784.26 485.748 1785.11 490.093 1785.09H846.012C850.361 1785.09 854.669 1784.25 858.696 1782.62C879.176 1793.64 927.016 1822.2 979.769 1873.26C1049.95 1941.22 1128.8 2049.04 1163.55 2208.54C1230.41 2515.62 1061 2666.67 668.069 2666.67V2666.67Z" fill="#F5C845"/>
<path d="M874.936 1613.73L820.792 1718.71H515.315L461.195 1613.73C445.283 1582.93 459.086 1545.08 491.259 1531.82C532.222 1515 593.243 1497.22 668.068 1497.22C742.892 1497.22 803.885 1515 844.848 1531.82C877.045 1545.08 890.8 1582.93 874.936 1613.73Z" fill="#E45E47"/>
<path d="M846.013 1785.1H490.102C481.24 1785.1 472.742 1781.6 466.476 1775.38C460.21 1769.15 456.689 1760.71 456.689 1751.91C456.689 1743.11 460.21 1734.67 466.476 1728.45C472.742 1722.22 481.24 1718.73 490.102 1718.73H846.013C854.874 1718.73 863.373 1722.22 869.639 1728.45C875.905 1734.67 879.425 1743.11 879.425 1751.91C879.425 1760.71 875.905 1769.15 869.639 1775.38C863.373 1781.6 854.874 1785.1 846.013 1785.1V1785.1Z" fill="black"/>
<path d="M597.006 2105.19C608.37 2049.3 699.267 2061.12 739.3 2086.38C771.765 2110.02 810.715 2063.27 773.927 2033.72C753.495 2018.13 726.768 2008.26 698.489 2004.21V1973.51C698.359 1965.58 695.096 1958.02 689.403 1952.45C683.71 1946.89 676.043 1943.77 668.056 1943.77C660.07 1943.77 652.403 1946.89 646.71 1952.45C641.017 1958.02 637.754 1965.58 637.624 1973.51V2004.52C582.914 2013.06 534.914 2044.33 528.293 2099.81C511.523 2252.43 736.597 2204.6 743.631 2284.14C735.514 2360.44 621.351 2337.87 576.987 2307.77C558.589 2292.73 542.902 2297.57 528.834 2311.54C519.094 2326.04 518.556 2349.69 536.409 2364.2C560.662 2384.1 598.064 2397.13 637.624 2401.06V2432.13C637.754 2440.06 641.017 2447.62 646.71 2453.18C652.403 2458.75 660.07 2461.87 668.056 2461.87C676.043 2461.87 683.71 2458.75 689.403 2453.18C695.096 2447.62 698.359 2440.06 698.489 2432.13V2399.59C759.47 2390.11 812.035 2355.22 813.964 2285.74C817.749 2142.8 582.397 2193.32 597.006 2105.19V2105.19Z" fill="white"/>
</g>
<g clip-path="url(#clip5_1_526)">
<path d="M1540.32 2280.56H2265.23C2299.77 2280.56 2327.78 2252.27 2327.78 2217.38V1927.06C2327.78 1892.17 2299.77 1863.89 2265.23 1863.89H1540.32C1505.78 1863.89 1477.78 1892.17 1477.78 1927.06V2217.38C1477.78 2252.27 1505.78 2280.56 1540.32 2280.56V2280.56Z" fill="#F5C845"/>
<path d="M2267.32 1997.19V2147.26C2227.83 2147.26 2195.81 2179.6 2195.81 2219.49H1609.75C1609.75 2179.6 1577.72 2147.26 1538.24 2147.26V1997.19C1577.72 1997.19 1609.75 1964.85 1609.75 1924.96H2195.81C2195.81 1964.85 2227.83 1997.19 2267.32 1997.19V1997.19Z" fill="#E45E47"/>
<path d="M1902.78 2152.73C1932.56 2152.73 1956.71 2116.68 1956.71 2072.22C1956.71 2027.76 1932.56 1991.72 1902.78 1991.72C1872.99 1991.72 1848.84 2027.76 1848.84 2072.22C1848.84 2116.68 1872.99 2152.73 1902.78 2152.73Z" fill="white"/>
<path d="M2088.73 2101.19C2112.13 2101.19 2131.11 2088.22 2131.11 2072.22C2131.11 2056.23 2112.13 2043.26 2088.73 2043.26C2065.32 2043.26 2046.35 2056.23 2046.35 2072.22C2046.35 2088.22 2065.32 2101.19 2088.73 2101.19Z" fill="white"/>
<path d="M1716.82 2101.19C1740.23 2101.19 1759.2 2088.22 1759.2 2072.22C1759.2 2056.23 1740.23 2043.26 1716.82 2043.26C1693.42 2043.26 1674.45 2056.23 1674.45 2072.22C1674.45 2088.22 1693.42 2101.19 1716.82 2101.19Z" fill="white"/>
</g>
<g clip-path="url(#clip6_1_526)">
<path d="M256.916 1656.75L262.83 1672.73C263.347 1674.13 264.16 1675.4 265.214 1676.45C266.269 1677.51 267.538 1678.32 268.937 1678.84L284.916 1684.75C293.914 1688.08 293.914 1700.81 284.916 1704.14L268.937 1710.05C267.538 1710.57 266.269 1711.38 265.214 1712.44C264.16 1713.49 263.347 1714.76 262.83 1716.16L256.916 1732.14C253.585 1741.14 240.857 1741.14 237.526 1732.14L231.612 1716.16C231.095 1714.76 230.282 1713.49 229.228 1712.44C228.174 1711.38 226.904 1710.57 225.505 1710.05L209.526 1704.14C200.528 1700.81 200.528 1688.08 209.526 1684.75L225.505 1678.84C226.904 1678.32 228.174 1677.51 229.228 1676.45C230.282 1675.4 231.095 1674.13 231.612 1672.73L237.526 1656.75C240.857 1647.75 253.585 1647.75 256.916 1656.75V1656.75Z" fill="white"/>
</g>
<g clip-path="url(#clip7_1_526)">
<path d="M2322.22 669.251V703.831H1652.78V669.251C1652.78 624.903 1688.95 588.889 1733.62 588.889H2241.38C2285.98 588.889 2322.22 624.903 2322.22 669.251V669.251Z" fill="black"/>
<path d="M1652.78 703.831H2322.22V1654.48H1652.78V703.831Z" fill="#F5C845"/>
<path d="M2322.22 1654.48V1689.06C2322.22 1733.45 2285.97 1769.44 2241.38 1769.44H1733.62C1688.95 1769.44 1652.78 1733.45 1652.78 1689.06V1654.48H2322.22Z" fill="black"/>
<path d="M1778.74 1397.04C1778.74 1423.97 1800.7 1445.81 1827.78 1445.81H2147.22C2174.31 1445.81 2196.26 1423.98 2196.26 1397.04C2196.26 1370.11 2174.31 1348.28 2147.22 1348.28H1827.78C1800.7 1348.28 1778.74 1370.11 1778.74 1397.04V1397.04Z" fill="white"/>
<path d="M2143.64 1250.75H1831.36C1802.3 1250.75 1778.74 1227.33 1778.74 1198.43V887.927C1778.74 859.029 1802.3 835.601 1831.36 835.601H2143.64C2172.7 835.601 2196.26 859.029 2196.26 887.927V1198.43C2196.26 1227.33 2172.7 1250.75 2143.64 1250.75Z" fill="#E45E47"/>
<path d="M1947.69 988.406C1954.06 957.056 2004.99 963.688 2027.42 977.854C2045.61 991.12 2067.44 964.895 2046.83 948.314C2035.38 939.569 2020.4 934.033 2004.56 931.765V914.543C2004.56 910.046 2002.76 905.733 1999.56 902.553C1996.36 899.373 1992.02 897.586 1987.5 897.586C1982.98 897.586 1978.64 899.373 1975.44 902.553C1972.24 905.733 1970.45 910.046 1970.45 914.543V931.936C1939.79 936.726 1912.9 954.272 1909.19 985.392C1899.79 1071 2025.91 1044.18 2029.85 1088.79C2025.3 1131.59 1961.33 1118.93 1936.47 1102.05C1926.16 1093.61 1917.37 1096.33 1909.49 1104.17C1904.03 1112.3 1903.73 1125.57 1913.73 1133.71C1927.32 1144.87 1948.28 1152.18 1970.45 1154.39V1171.81C1970.45 1176.31 1972.24 1180.63 1975.44 1183.81C1978.64 1186.99 1982.98 1188.77 1987.5 1188.77C1992.02 1188.77 1996.36 1186.99 1999.56 1183.81C2002.76 1180.63 2004.56 1176.31 2004.56 1171.81V1153.57C2038.73 1148.25 2068.18 1128.67 2069.26 1089.69C2071.38 1009.51 1939.5 1037.84 1947.69 988.406V988.406Z" fill="white"/>
</g>
<g clip-path="url(#clip8_1_526)">
<path d="M1305.62 1688.69V1655.56H1105.11C1100.81 1655.56 1096.68 1653.8 1093.64 1650.65C1090.6 1647.51 1088.89 1643.25 1088.89 1638.81V1577.86C1088.89 1575.66 1089.31 1573.48 1090.12 1571.45C1090.94 1569.42 1092.13 1567.57 1093.64 1566.01C1096.68 1562.87 1100.81 1561.11 1105.11 1561.11H1305.62V1527.98C1305.62 1516.46 1318.3 1509.82 1327.29 1516.64L1433.33 1597C1440.74 1602.61 1440.74 1614.06 1433.33 1619.68L1327.29 1700.03C1318.3 1706.84 1305.62 1700.21 1305.62 1688.69V1688.69Z" fill="white"/>
</g>
<defs>
<clipPath id="clip0_1_526">
<rect width="2119.44" height="1600" fill="white" transform="translate(588.889 1072.22)"/>
</clipPath>
<clipPath id="clip1_1_526">
<rect width="1308.33" height="988.889" fill="white" transform="translate(225 366.667)"/>
</clipPath>
<clipPath id="clip2_1_526">
<rect width="455.556" height="455.556" fill="white" transform="translate(2433.33 1650)"/>
</clipPath>
<clipPath id="clip3_1_526">
<rect width="111.111" height="111.111" fill="white" transform="translate(2463.89 786.111)"/>
</clipPath>
<clipPath id="clip4_1_526">
<rect width="1019.44" height="1169.44" fill="white" transform="translate(158.334 1497.22)"/>
</clipPath>
<clipPath id="clip5_1_526">
<rect width="850" height="416.667" fill="white" transform="translate(1477.78 1863.89)"/>
</clipPath>
<clipPath id="clip6_1_526">
<rect width="88.8889" height="88.8889" fill="white" transform="translate(202.777 1650)"/>
</clipPath>
<clipPath id="clip7_1_526">
<rect width="669.444" height="1180.56" fill="white" transform="translate(1652.78 588.889)"/>
</clipPath>
<clipPath id="clip8_1_526">
<rect width="350" height="188.889" fill="white" transform="translate(1088.89 1513.89)"/>
</clipPath>
</defs>
</svg>
