<svg width="133" height="169" viewBox="0 0 133 169" fill="none" xmlns="http://www.w3.org/2000/svg">
<g clip-path="url(#clip0_1_2072)">
<path d="M133 52.8646V157.197C133 163.703 127.725 168.978 121.219 168.978H11.7811C5.27474 168.978 0 163.703 0 157.197V11.8033C0 5.29691 5.27474 0.022171 11.7811 0.022171H80.0755V52.8646H133Z" fill="white"/>
<path d="M133 52.8646V157.197C133 163.703 127.725 168.978 121.219 168.978H11.7811C5.27474 168.978 0 163.703 0 157.197V11.8033C0 5.29691 5.27474 0.022171 11.7811 0.022171H80.0755V52.8646H133Z" fill="#F5C845"/>
<path d="M132.989 52.8996H80.0469V0.0291748L132.989 52.8996Z" fill="black"/>
<path d="M17.8516 48.2692H62.2286V52.8636H17.8516V48.2692Z" fill="black"/>
<path d="M17.8516 71.106H115.152V75.7004H17.8516V71.106Z" fill="black"/>
<path d="M17.8516 93.9429H115.152V98.5373H17.8516V93.9429Z" fill="black"/>
<path d="M17.8516 116.781H115.152V121.375H17.8516V116.781Z" fill="black"/>
<path d="M17.8516 139.618H115.152V144.212H17.8516V139.618Z" fill="black"/>
</g>
<defs>
<clipPath id="clip0_1_2072">
<rect width="133" height="169" fill="white"/>
</clipPath>
</defs>
</svg>
