<svg width="160" height="115" viewBox="0 0 160 115" fill="none" xmlns="http://www.w3.org/2000/svg">
<g clip-path="url(#clip0_1_1419)">
<path d="M153.423 86.2498H22.9485C19.4559 86.2498 16.625 89.0807 16.625 92.5732V108.677C16.625 112.169 19.4559 115 22.9485 115H153.423C156.916 115 159.747 112.169 159.747 108.677V92.5732C159.747 89.0807 156.916 86.2498 153.423 86.2498V86.2498Z" fill="#F5C845"/>
<path d="M137.056 57.4995H6.58126C3.08873 57.4995 0.257812 60.3314 0.257812 63.8229V79.9263C0.257812 83.4188 3.08873 86.2497 6.58126 86.2497H137.056C140.549 86.2497 143.38 83.4188 143.38 79.9263V63.8229C143.38 60.3314 140.548 57.4995 137.056 57.4995V57.4995Z" fill="#E45E47"/>
<path d="M153.423 28.7502H22.9485C19.4559 28.7502 16.625 31.5812 16.625 35.0737V51.177C16.625 54.6696 19.4559 57.5005 22.9485 57.5005H153.423C156.916 57.5005 159.747 54.6696 159.747 51.177V35.0737C159.747 31.5812 156.916 28.7502 153.423 28.7502Z" fill="#F5C845"/>
<path d="M137.056 0H6.58126C3.08873 0 0.257812 2.83092 0.257812 6.32345V22.4268C0.257812 25.9193 3.08873 28.7503 6.58126 28.7503H137.056C140.549 28.7503 143.38 25.9193 143.38 22.4268V6.32345C143.38 2.83092 140.548 0 137.056 0Z" fill="#E45E47"/>
</g>
<defs>
<clipPath id="clip0_1_1419">
<rect width="160" height="115" fill="white"/>
</clipPath>
</defs>
</svg>
