<svg width="60" height="85" viewBox="0 0 60 85" fill="none" xmlns="http://www.w3.org/2000/svg">
<g clip-path="url(#clip0_1_2011)">
<path d="M29.9588 85C29.6804 85 29.3959 84.9627 29.1518 84.8285C28.252 84.3312 27.4591 83.2437 26.8114 82.5134C25.3951 80.9064 24.0151 79.2762 22.6815 77.6108C18.2551 72.1251 14.1494 66.3771 10.5561 60.3204C6.41612 53.3821 2.79867 45.9091 1.07267 37.9721C0.144597 33.7595 -0.212508 29.4157 0.477491 25.1325C1.10797 21.2175 2.52429 17.4336 4.6306 14.0653C8.78371 7.43767 15.5193 2.58245 23.1355 0.79693C25.4082 0.261273 27.7163 0.0110982 30.0022 0.0232034C30.0022 0.0110982 30.0022 0.0110982 30.0022 -0.00100708V0.0232034C32.287 0.0110982 34.5961 0.261273 36.8689 0.79693C44.4851 2.58145 51.2197 7.43666 55.3728 14.0653C57.4791 17.4326 58.8954 21.2175 59.5259 25.1325C60.2159 29.4168 59.8588 33.7595 58.9307 37.9721C57.2057 45.9091 53.5872 53.3821 49.4462 60.3194C45.852 66.3761 41.7473 72.1241 37.3208 77.6097C35.9882 79.2752 34.6072 80.9064 33.1909 82.5124C32.5443 83.2427 31.7504 84.3302 30.8506 84.8275C30.6074 84.9617 30.322 84.999 30.0435 84.999H29.9588V85Z" fill="#E45E47"/>
<path d="M29.9993 48.1123C39.5992 48.1123 47.3814 40.3301 47.3814 30.7302C47.3814 21.1303 39.5992 13.3481 29.9993 13.3481C20.3994 13.3481 12.6172 21.1303 12.6172 30.7302C12.6172 40.3301 20.3994 48.1123 29.9993 48.1123Z" fill="white"/>
</g>
<defs>
<clipPath id="clip0_1_2011">
<rect width="60" height="85" fill="white"/>
</clipPath>
</defs>
</svg>
