<svg width="243" height="270" viewBox="0 0 243 270" fill="none" xmlns="http://www.w3.org/2000/svg">
<g clip-path="url(#clip0_1_1998)">
<path d="M195.334 82.1557C196.068 78.5491 194.63 74.5789 191.758 72.279C189.971 70.8491 187.678 70.1011 185.391 70.1011C183.999 70.1011 182.609 70.3785 181.338 70.9482C180.888 71.1495 180.453 71.3848 180.032 71.6121C179.376 71.9665 178.756 72.301 178.086 72.5183C175.022 73.5095 172.077 71.8784 168.96 70.1502C167.565 69.3772 166.124 68.5772 164.661 68.0275C162.009 67.0302 159.154 66.8579 156.393 66.6897C154.358 66.5666 152.255 66.4394 150.269 65.9798C147.32 65.2969 144.487 63.2503 143.218 60.8872C142.416 59.3923 142.275 57.8463 142.81 56.4155C143.172 55.4492 143.807 54.6231 144.48 53.748C145.071 52.978 145.683 52.182 146.105 51.2688C147.033 49.2612 146.908 47.0463 146.787 44.9036C146.707 43.5008 146.625 42.0499 146.847 40.6931C147.202 38.5163 148.354 36.4827 149.468 34.5162C150.829 32.113 152.236 29.6288 152.264 26.8062C152.279 25.3373 151.91 23.9145 151.554 22.5397C151.383 21.8818 151.207 21.2009 151.078 20.5341C150.547 17.7755 150.813 14.8698 151.843 12.1022L152.092 11.7157C141.797 7.43616 130.972 4.82879 120.031 3.88257C118.954 6.94753 115.9 10.1737 114.649 13.1405C114.053 14.5554 113.903 16.1204 113.377 17.5632C112.852 19.0061 111.775 20.4209 110.255 20.6372C109.79 20.7043 109.298 20.6552 108.866 20.8415C107.681 21.3491 107.788 23.0383 107.243 24.2068C106.672 25.4344 105.272 26.1053 103.92 26.1904C102.568 26.2755 101.238 25.877 99.942 25.4835C98.2688 24.9758 96.4715 24.3801 95.4652 22.9512C94.9135 22.1682 94.6632 21.21 94.1705 20.3879C93.2994 18.93 91.7674 18.0258 90.3967 17.0235C87.3127 14.7676 84.8315 10.7875 83.1914 7.05166C76.8251 8.72783 70.5841 10.9988 64.5513 13.8585L64.8016 14.2329C64.9348 15.6578 65.6347 16.9615 66.7661 17.8666L74.6603 24.1818C75.7067 25.0189 76.3065 26.2675 76.3065 27.6072V36.5778C76.3065 39.4986 78.6835 41.8747 81.6043 41.8747H85.2931C87.7112 41.8747 89.6797 43.8422 89.6797 46.2613V50.5088C89.6797 51.8926 89.0159 53.2103 87.9044 54.0334L66.2465 70.0771C65.4965 70.6328 64.5693 70.9392 63.6351 70.9392H50.2468C47.326 70.9392 44.9499 73.3153 44.9499 76.2361V85.0675C44.9499 86.4823 45.5006 87.813 46.5019 88.8133L55.8861 98.1964C56.8864 99.1967 58.2171 99.7484 59.6319 99.7484H72.844C75.2621 99.7484 77.2307 101.716 77.2307 104.135V108.054C77.2307 110.975 79.6067 113.352 82.5275 113.352H91.7504C94.1685 113.352 96.1371 115.32 96.1371 117.739C96.1371 120.659 98.5142 123.036 101.435 123.036H113.424C115.843 123.036 117.811 125.003 117.811 127.422V140.098C117.811 141.428 117.217 142.671 116.182 143.508L98.1046 158.124C96.855 159.134 96.1381 160.636 96.1381 162.243V168.437C96.1381 169.647 95.6314 170.814 94.7493 171.64L87.9605 177.993C86.8941 178.991 86.2823 180.4 86.2823 181.861V195.669C86.2823 198.088 84.3148 200.056 81.8957 200.056H74.6904C72.2722 200.056 70.3037 198.089 70.3037 195.669V186.86C70.3037 186.069 70.1225 185.274 69.779 184.562L64.7435 174.103C64.4591 173.513 64.309 172.855 64.309 172.2V152.267C64.309 150.568 63.4859 148.961 62.1071 147.968L43.0765 134.265C41.935 133.443 41.2532 132.112 41.2532 130.705V116.921C41.2532 116.176 41.4444 115.438 41.8069 114.788L42.8112 112.984C43.9617 110.917 43.5912 108.311 41.912 106.645L25.2004 90.0729C24.3754 89.2549 23.9027 88.1204 23.9027 86.9579V76.4053C23.9027 74.9254 23.2769 73.5025 22.1865 72.5022L13.9569 64.9515L13.5924 64.6611C-5.56334 104.691 1.43471 154.102 34.5976 187.265C76.6419 229.309 144.809 229.309 186.853 187.265C189.673 184.445 192.295 181.505 194.736 178.467H194.161C190.794 176.046 188.241 173.869 186.147 171.638C180.902 166.05 177.407 158.795 176.309 151.209C176.116 149.883 175.992 148.516 175.872 147.196C175.663 144.895 175.446 142.517 174.865 140.225C174.069 137.083 172.594 134.12 171.168 131.254C169.263 127.425 167.462 123.81 167.087 119.743C166.549 113.929 169.305 108.027 174.11 104.708C176.928 102.76 180.323 101.73 183.604 100.734C186.7 99.7935 189.9 98.8222 192.693 97.079C193.401 96.6364 194.174 96.0687 194.532 95.2076C195.036 93.996 194.562 92.8035 194.106 91.65C193.912 91.1614 193.729 90.6998 193.618 90.2412C193.206 88.534 193.814 86.8308 194.458 85.0264C194.792 84.0942 195.135 83.132 195.334 82.1557V82.1557Z" fill="#2724F2"/>
<path d="M113.415 122.58H101.425C98.7509 122.58 96.5831 120.412 96.5831 117.738C96.5831 115.063 94.4153 112.895 91.7419 112.895H82.519C79.8445 112.895 77.6777 110.728 77.6777 108.053V104.134C77.6777 101.46 75.5099 99.2919 72.8364 99.2919H59.6244C58.3397 99.2919 57.1081 98.7812 56.2009 97.874L46.8178 88.4909C45.9096 87.5827 45.4 86.3511 45.4 85.0675V76.2371C45.4 73.5626 47.5678 71.3948 50.2412 71.3948H63.6285C64.6659 71.3948 65.6762 71.0614 66.5103 70.4436L88.1673 54.4008C89.3998 53.4877 90.1278 52.0438 90.1278 50.5098V46.2623C90.1278 43.5879 87.96 41.4201 85.2865 41.4201H81.5978C78.9233 41.4201 76.7565 39.2523 76.7565 36.5778V27.6082C76.7565 26.1373 76.0876 24.7465 74.9392 23.8273L67.045 17.5122C65.8965 16.593 65.2276 15.2022 65.2276 13.7313V13.527C54.1363 18.6967 43.7449 25.855 34.591 35.0078C25.5984 44.0004 18.5363 54.1896 13.3906 65.0596L21.8686 72.8377C22.8679 73.7548 23.4376 75.0485 23.4376 76.4053V86.9569C23.4376 88.2476 23.9533 89.4852 24.8705 90.3954L41.5821 106.968C43.123 108.497 43.4595 110.864 42.4031 112.76L41.3988 114.565C40.9973 115.285 40.788 116.096 40.788 116.92V130.705C40.788 132.262 41.537 133.725 42.8006 134.635L61.8312 148.337C63.0949 149.247 63.8438 150.709 63.8438 152.266V172.199C63.8438 172.926 64.007 173.645 64.3234 174.3L69.36 184.759C69.6754 185.414 69.8396 186.133 69.8396 186.86V195.669C69.8396 198.344 72.0074 200.512 74.6808 200.512H81.8861C84.5606 200.512 86.7274 198.344 86.7274 195.669V181.861C86.7274 180.521 87.2831 179.24 88.2614 178.325L95.0501 171.973C96.0284 171.058 96.5841 169.777 96.5841 168.437V162.243C96.5841 160.781 97.245 159.397 98.3815 158.477L116.459 143.861C117.595 142.942 118.256 141.558 118.256 140.097V127.421C118.256 124.748 116.089 122.58 113.415 122.58V122.58Z" fill="#F5C845"/>
<path d="M218.377 111.136C218.377 83.5825 207.867 56.0299 186.844 35.0078C176.427 24.5913 164.407 16.7592 151.578 11.5044C150.418 14.3811 150.035 17.5713 150.622 20.6212C151.019 22.6869 151.82 24.7005 151.798 26.8032C151.747 31.7956 147.192 35.6947 146.387 40.621C145.82 44.0975 147.159 47.8804 145.681 51.0785C144.819 52.943 143.095 54.3318 142.374 56.2552C140.677 60.7881 145.441 65.331 150.156 66.4234C154.871 67.5158 159.959 66.7498 164.49 68.454C169.121 70.1953 173.508 74.4748 178.216 72.9508C179.377 72.5743 180.398 71.8624 181.513 71.3638C184.722 69.9259 188.717 70.4366 191.462 72.6344C194.207 74.8332 195.578 78.6191 194.877 82.0656C194.307 84.8642 192.493 87.5727 193.165 90.3473C193.548 91.9333 194.727 93.5264 194.101 95.0333C193.796 95.7683 193.117 96.272 192.441 96.6935C186.734 100.256 179.376 100.51 173.84 104.334C168.937 107.722 166.073 113.853 166.623 119.786C167.3 127.116 172.604 133.203 174.413 140.338C175.317 143.905 175.321 147.632 175.847 151.275C176.961 158.964 180.487 166.286 185.804 171.952C188.331 174.643 191.221 176.942 194.233 179.088C210.325 159.354 218.361 135.246 218.361 111.138L218.377 111.136Z" fill="#F5C845"/>
<path d="M113.375 18.0208C113.901 16.578 114.05 15.0129 114.647 13.5981C115.919 10.5782 119.063 7.29097 120.088 4.17794C120.119 4.08382 120.142 3.9887 120.168 3.89458C117.026 3.61922 113.874 3.47504 110.722 3.47504V3.48905C101.4 3.48905 92.0775 4.69561 83.0078 7.09972C84.6439 10.9507 87.1962 15.1421 90.3924 17.4811C91.7631 18.4844 93.2951 19.3876 94.1672 20.8455C94.6589 21.6685 94.9092 22.6248 95.4619 23.4088C96.4682 24.8386 98.2665 25.4334 99.9387 25.9411C101.234 26.3346 102.565 26.7321 103.917 26.648C105.269 26.5629 106.668 25.893 107.24 24.6644C107.785 23.4959 107.678 21.8067 108.862 21.2991C109.295 21.1138 109.786 21.1619 110.252 21.0958C111.773 20.8775 112.849 19.4637 113.375 18.0208V18.0208Z" fill="#F5C845"/>
<path d="M243 111.133C243 66.7788 220.924 25.6427 183.935 1.09696C181.329 -0.625264 177.815 0.088658 176.082 2.69503C174.36 5.30139 175.063 8.81393 177.669 10.5482C182.859 13.9816 187.709 17.7785 192.231 21.8808L182.882 31.2299C184.231 32.4535 185.545 33.7111 186.848 35.0038C188.242 36.3976 189.591 37.8144 190.871 39.2643L200.243 29.8922C220.267 51.8535 231.668 80.6608 231.668 111.133C231.668 177.676 177.534 231.822 110.979 231.822C80.5067 231.822 51.6994 220.421 29.7381 200.398L38.8488 191.287C37.41 189.995 35.9931 188.657 34.5993 187.264C33.2957 185.961 32.038 184.646 30.8144 183.297L21.7257 192.386C17.6234 187.864 13.8275 183.014 10.3931 177.824C8.65881 175.218 5.14627 174.515 2.52889 176.237C-0.0774753 177.972 -0.780384 181.495 0.942843 184.102C15.6408 206.234 36.2885 223.029 60.0072 232.945C44.5382 237.124 33.6111 252.522 36.5689 269.842H185.389C188.348 252.511 177.412 237.099 161.906 232.933C209.49 212.965 243 165.891 243 111.133V111.133Z" fill="black"/>
</g>
<defs>
<clipPath id="clip0_1_1998">
<rect width="243" height="270" fill="white"/>
</clipPath>
</defs>
</svg>
