<svg width="1080" height="1080" viewBox="0 0 1080 1080" fill="none" xmlns="http://www.w3.org/2000/svg">
<path d="M716.071 305.71V329.214H274.98V305.71C274.98 294.354 284.186 285.148 295.542 285.148H695.509C706.865 285.148 716.071 294.354 716.071 305.71Z" fill="black"/>
<path d="M716.072 329.213V583.713C716.072 595.069 706.866 604.275 695.51 604.275H295.539C284.183 604.275 274.977 595.069 274.977 583.713V329.213H716.072Z" fill="#2824FD"/>
<path d="M320.828 312.95C324.014 312.95 326.597 310.367 326.597 307.181C326.597 303.995 324.014 301.412 320.828 301.412C317.641 301.412 315.059 303.995 315.059 307.181C315.059 310.367 317.641 312.95 320.828 312.95Z" fill="white"/>
<path d="M349.652 312.95C352.838 312.95 355.421 310.367 355.421 307.181C355.421 303.995 352.838 301.412 349.652 301.412C346.466 301.412 343.883 303.995 343.883 307.181C343.883 310.367 346.466 312.95 349.652 312.95Z" fill="white"/>
<path d="M378.48 312.95C381.666 312.95 384.249 310.367 384.249 307.181C384.249 303.995 381.666 301.412 378.48 301.412C375.294 301.412 372.711 303.995 372.711 307.181C372.711 310.367 375.294 312.95 378.48 312.95Z" fill="white"/>
<path d="M871.749 391.903V415.407H453.734V391.903C453.734 380.547 462.94 371.341 474.296 371.341H851.187C862.543 371.341 871.749 380.547 871.749 391.903V391.903Z" fill="black"/>
<path d="M871.753 415.407V669.907C871.753 681.263 862.547 690.469 851.191 690.469H474.296C462.94 690.469 453.734 681.263 453.734 669.907V415.407H871.753Z" fill="#FFC702"/>
<path d="M494.464 399.143C497.65 399.143 500.233 396.56 500.233 393.374C500.233 390.188 497.65 387.605 494.464 387.605C491.278 387.605 488.695 390.188 488.695 393.374C488.695 396.56 491.278 399.143 494.464 399.143Z" fill="white"/>
<path d="M523.289 399.143C526.475 399.143 529.057 396.56 529.057 393.374C529.057 390.188 526.475 387.605 523.289 387.605C520.102 387.605 517.52 390.188 517.52 393.374C517.52 396.56 520.102 399.143 523.289 399.143Z" fill="white"/>
<path d="M552.117 399.143C555.303 399.143 557.886 396.56 557.886 393.374C557.886 390.188 555.303 387.605 552.117 387.605C548.931 387.605 546.348 390.188 546.348 393.374C546.348 396.56 548.931 399.143 552.117 399.143Z" fill="white"/>
<path d="M605.614 371.341H608.614V415.407H605.614V371.341ZM669.478 371.341H672.478V415.407H669.478V371.341ZM733.343 371.341H736.343V415.407H733.343V371.341ZM797.207 371.341H800.207V415.407H797.207V371.341ZM634.968 206.227V258.571H567.012V181.425H610.127V206.227H634.968Z" fill="white"/>
<path d="M634.972 206.227V258.571H567.016V181.425H610.131V206.227H634.972Z" fill="#F7523C"/>
<path d="M634.967 206.244H610.117V181.428L634.967 206.244Z" fill="black"/>
<path d="M823.383 346.85H752.121C745.737 346.85 740.562 341.675 740.562 335.291V264.03C740.562 257.646 745.737 252.471 752.121 252.471H823.383C829.767 252.471 834.941 257.646 834.941 264.03V335.291C834.941 341.675 829.767 346.85 823.383 346.85V346.85Z" fill="#FFC702"/>
<path d="M783.408 286.972C783.408 280.576 783.338 279.463 782.643 278.073C781.948 276.822 780.418 276.822 778.68 276.822C775.482 276.822 772.423 277.587 770.406 279.255C768.32 280.923 766.582 284.122 765.4 286.694C765.261 287.042 765.122 287.25 764.287 287.111C763.522 286.972 763.522 286.763 763.522 286.346C764.078 282.8 764.565 277.864 764.843 274.318C772.769 274.527 780.139 274.596 787.717 274.596C795.087 274.596 802.734 274.527 810.73 274.318C811.008 277.863 811.495 282.8 811.982 286.346C811.982 286.763 811.982 286.972 811.217 287.111C810.313 287.25 810.174 287.042 810.035 286.694C809.061 284.122 807.254 280.993 805.168 279.255C803.221 277.586 800.162 276.822 796.686 276.822C794.948 276.822 793.557 276.683 792.584 278.212C791.61 279.742 791.68 282.87 791.68 286.972V312.21C791.68 319.163 791.61 319.927 792.306 321.457C793.001 322.847 795.017 322.917 797.659 323.195C798.146 323.265 798.285 323.404 798.285 324.099C798.285 324.864 798.146 325.003 797.59 325.003C794.601 324.864 790.707 324.794 787.579 324.794C784.38 324.794 780.695 324.864 777.984 325.003C777.497 325.003 777.358 324.864 777.358 324.169C777.358 323.404 777.497 323.265 777.984 323.196C780.417 322.917 782.017 322.848 782.781 321.458C783.616 319.789 783.407 316.869 783.407 312.211V286.972H783.408ZM256.628 357.647H219.117C218.719 357.647 218.338 357.489 218.057 357.208C217.775 356.926 217.617 356.545 217.617 356.147V231.148C217.617 230.75 217.775 230.369 218.057 230.087C218.338 229.806 218.719 229.648 219.117 229.648H428.466C428.864 229.648 429.246 229.806 429.527 230.087C429.808 230.369 429.966 230.75 429.966 231.148V270.207C429.966 270.605 429.808 270.986 429.527 271.268C429.246 271.549 428.864 271.707 428.466 271.707C428.068 271.707 427.687 271.549 427.406 271.268C427.124 270.986 426.966 270.605 426.966 270.207V232.648H220.617V354.647H256.628C257.026 354.647 257.408 354.805 257.689 355.086C257.97 355.368 258.128 355.749 258.128 356.147C258.128 356.545 257.97 356.926 257.689 357.208C257.408 357.489 257.026 357.647 256.628 357.647V357.647Z" fill="black"/>
<path d="M210.359 222.393H227.871V239.905H210.359V222.393ZM419.708 222.393H437.22V239.905H419.708V222.393ZM210.359 347.391H227.871V364.903H210.359V347.391ZM910.009 648.781H762.888C762.491 648.781 762.109 648.623 761.828 648.342C761.546 648.06 761.388 647.679 761.388 647.281V453.745C761.388 453.347 761.546 452.966 761.828 452.684C762.109 452.403 762.491 452.245 762.888 452.245H910.009C910.407 452.245 910.789 452.403 911.07 452.684C911.351 452.966 911.509 453.347 911.509 453.745V647.281C911.509 647.679 911.351 648.06 911.07 648.342C910.789 648.623 910.407 648.781 910.009 648.781ZM764.388 645.781H908.509V455.245H764.388V645.781Z" fill="black"/>
<path d="M901.254 444.989H918.766V462.501H901.254V444.989ZM754.133 444.989H771.645V462.501H754.133V444.989ZM901.254 638.526H918.766V656.038H901.254V638.526ZM754.133 638.526H771.645V656.038H754.133V638.526Z" fill="black"/>
<path d="M833.566 589.313V570.552L817.318 561.171L801.07 570.552V589.313L817.318 598.694L833.566 589.313Z" fill="white"/>
<path d="M817.32 496.01L840.32 535.847H794.32L817.32 496.01Z" fill="#F7523C"/>
<path d="M698.762 233.468C698.989 233.695 699.116 234.002 699.116 234.323C699.116 234.644 698.989 234.951 698.762 235.178L696.427 237.512C696.201 237.739 695.893 237.866 695.572 237.866C695.252 237.866 694.944 237.739 694.717 237.512L689.514 232.309L686.786 237.625C686.714 237.766 686.602 237.884 686.465 237.963C686.327 238.042 686.169 238.079 686.011 238.071C685.852 238.062 685.699 238.008 685.571 237.914C685.443 237.821 685.344 237.692 685.287 237.544L677.527 217.342C677.471 217.195 677.458 217.035 677.49 216.88C677.522 216.726 677.597 216.584 677.708 216.471C677.818 216.359 677.958 216.28 678.112 216.245C678.266 216.21 678.426 216.22 678.574 216.274L698.928 223.627C699.076 223.68 699.205 223.775 699.301 223.899C699.397 224.024 699.455 224.173 699.468 224.33C699.482 224.486 699.45 224.643 699.377 224.782C699.304 224.921 699.193 225.036 699.056 225.114L693.547 228.253L698.762 233.468Z" fill="black"/>
<path d="M545.547 206.227V258.571H477.59V181.425H520.705V206.227H545.547Z" fill="white"/>
<path d="M545.547 206.227V258.571H477.59V181.425H520.705V206.227H545.547Z" fill="#FFC702"/>
<path d="M545.545 206.244H520.695V181.428L545.545 206.244Z" fill="black"/>
<path d="M503.968 869.432H403.809L421.256 845.768H486.521L503.968 869.432Z" fill="#F7523C"/>
<path d="M563.462 898.575H344.311C344.311 882.484 357.348 869.436 373.439 869.436H534.333C550.425 869.437 563.462 882.484 563.462 898.575ZM227.551 845.763C203.742 845.763 184.371 826.392 184.371 802.583V524.585C184.371 500.775 203.742 481.405 227.551 481.405H679.893C703.702 481.405 723.073 500.775 723.073 524.585L723.095 548.087V802.584C723.095 826.393 703.724 845.764 679.915 845.764H227.551V845.763Z" fill="black"/>
<path d="M700.461 765.054C682.841 765.054 682.841 745.484 665.211 745.484C647.591 745.484 647.59 765.054 629.97 765.054C612.34 765.054 612.34 745.484 594.72 745.484C577.08 745.484 577.081 765.054 559.461 765.054C541.841 765.054 541.84 745.484 524.22 745.484C506.59 745.484 506.59 765.054 488.97 765.054C471.34 765.054 471.34 745.484 453.72 745.484C436.1 745.484 436.1 765.054 418.48 765.054C400.86 765.054 400.86 745.484 383.23 745.484C365.6 745.484 365.6 765.054 347.98 765.054C330.36 765.054 330.36 745.484 312.73 745.484C295.11 745.484 295.11 765.054 277.48 765.054C259.85 765.054 259.85 745.484 242.23 745.484C224.6 745.484 224.6 765.054 206.98 765.054V548.084H700.47L700.461 765.054Z" fill="#FFC702"/>
<path d="M700.465 524.579V548.083H206.98V524.579C206.98 513.223 216.186 504.017 227.542 504.017H679.902C691.259 504.017 700.465 513.223 700.465 524.579Z" fill="#F7523C"/>
<path d="M700.46 765.053V802.933C700.28 814.133 691.14 823.153 679.9 823.153H227.54C216.18 823.153 206.98 813.943 206.98 802.583V765.053C224.6 765.053 224.6 745.483 242.23 745.483C259.85 745.483 259.85 765.053 277.48 765.053C295.11 765.053 295.11 745.483 312.73 745.483C330.36 745.483 330.36 765.053 347.98 765.053C365.6 765.053 365.6 745.483 383.23 745.483C400.86 745.483 400.86 765.053 418.48 765.053C436.1 765.053 436.1 745.483 453.72 745.483C471.34 745.483 471.34 765.053 488.97 765.053C506.59 765.053 506.59 745.483 524.22 745.483C541.84 745.483 541.84 765.053 559.46 765.053C577.08 765.053 577.08 745.483 594.72 745.483C612.34 745.483 612.34 765.053 629.97 765.053C647.59 765.053 647.59 745.483 665.21 745.483C682.84 745.483 682.84 765.053 700.46 765.053Z" fill="#2824FD"/>
<path d="M238.925 531.819C242.111 531.819 244.694 529.236 244.694 526.05C244.694 522.864 242.111 520.281 238.925 520.281C235.739 520.281 233.156 522.864 233.156 526.05C233.156 529.236 235.739 531.819 238.925 531.819Z" fill="white"/>
<path d="M267.753 531.819C270.94 531.819 273.522 529.236 273.522 526.05C273.522 522.864 270.94 520.281 267.753 520.281C264.567 520.281 261.984 522.864 261.984 526.05C261.984 529.236 264.567 531.819 267.753 531.819Z" fill="white"/>
<path d="M296.578 531.819C299.764 531.819 302.347 529.236 302.347 526.05C302.347 522.864 299.764 520.281 296.578 520.281C293.391 520.281 290.809 522.864 290.809 526.05C290.809 529.236 293.391 531.819 296.578 531.819Z" fill="white"/>
<path d="M163.06 416.486C180.829 403.146 205.642 403.146 223.411 416.486C225.429 418.004 225.831 420.879 224.322 422.879C223.962 423.36 223.51 423.765 222.994 424.072C222.477 424.378 221.905 424.579 221.31 424.664C220.715 424.749 220.109 424.715 219.528 424.565C218.946 424.415 218.399 424.152 217.92 423.79C203.388 412.888 183.084 412.888 168.552 423.79C168.072 424.152 167.525 424.415 166.944 424.565C166.362 424.715 165.756 424.749 165.161 424.664C164.567 424.579 163.994 424.378 163.478 424.072C162.961 423.765 162.509 423.36 162.15 422.879C160.632 420.855 161.048 417.987 163.06 416.486V416.486Z" fill="#F7523C"/>
<path d="M171.901 432.871C184.062 421.978 202.411 421.978 214.573 432.871C215.475 433.681 216.018 434.815 216.085 436.025C216.152 437.235 215.737 438.423 214.93 439.327C214.12 440.229 212.985 440.772 211.774 440.837C210.564 440.902 209.377 440.484 208.474 439.675C204.288 435.919 198.861 433.842 193.237 433.842C187.613 433.842 182.187 435.919 178 439.675C177.098 440.484 175.911 440.902 174.7 440.837C173.49 440.772 172.354 440.229 171.544 439.327C170.736 438.423 170.319 437.236 170.386 436.025C170.453 434.814 170.998 433.68 171.901 432.871V432.871ZM185.809 450.433C185.809 446.337 189.141 443.005 193.237 443.005C197.333 443.005 200.665 446.337 200.665 450.433C200.665 454.529 197.333 457.861 193.237 457.861C189.141 457.861 185.809 454.529 185.809 450.433Z" fill="#F7523C"/>
<path d="M383.549 495.502H383.555V501.551C382.91 507.19 378.052 511.552 372.196 511.552H354.9C349.112 511.552 344.254 507.191 343.677 501.551C343.609 501.123 343.609 500.689 343.609 500.261V495.509C345.117 496.148 346.736 496.47 348.454 496.47H378.691C380.416 496.469 382.036 496.147 383.549 495.502V495.502Z" fill="white"/>
<path d="M390.852 484.485C390.852 489.345 387.822 493.555 383.612 495.495C382.102 496.145 380.482 496.475 378.752 496.475H348.522C346.792 496.475 345.172 496.145 343.662 495.495C339.452 493.555 336.532 489.345 336.532 484.485C336.532 484.485 336.522 483.245 336.492 481.405H390.832L390.852 484.485Z" fill="#2824FD"/>
<path d="M390.834 481.405H336.494C336.434 476.315 336.324 466.665 336.324 466.345L390.744 466.455L390.834 481.405Z" fill="black"/>
<path d="M416.675 409.762C416.675 424.341 410.949 437.623 401.662 447.233C396.048 453.17 391.513 458.462 391.295 466.347V466.452L336.875 466.347C336.856 466.099 336.838 465.851 336.807 465.609C336.782 465.386 336.757 465.156 336.726 464.933C335.771 458.016 331.167 452.959 325.863 447.525C320.373 441.824 316.036 434.863 313.393 427.133C311.477 421.553 310.5 415.693 310.502 409.793C310.366 400.692 312.692 391.951 316.842 384.246C317.878 382.329 319.025 380.475 320.279 378.693C329.994 364.902 345.957 355.646 363.668 355.906C364.599 355.906 365.597 355.906 366.528 356.049C381.324 356.806 394.52 363.779 403.658 374.437C404.498 375.414 405.3 376.421 406.065 377.458C406.307 377.787 406.543 378.115 406.778 378.444C407.113 378.915 407.442 379.399 407.758 379.89C407.95 380.175 408.136 380.461 408.316 380.752C408.777 381.481 409.22 382.221 409.643 382.973C409.86 383.345 410.065 383.73 410.27 384.108C410.475 384.493 410.673 384.877 410.872 385.262C411.064 385.646 411.257 386.037 411.443 386.428C411.629 386.825 411.809 387.216 411.989 387.613C415.09 394.585 416.686 402.132 416.675 409.762V409.762Z" fill="#FFC702"/>
<path d="M363.55 435.633C354.527 435.633 346.192 430.369 342.317 422.224C342.233 422.046 342.184 421.853 342.174 421.657C342.164 421.46 342.192 421.263 342.258 421.077C342.324 420.892 342.426 420.721 342.558 420.575C342.69 420.428 342.85 420.31 343.027 420.225C343.205 420.14 343.398 420.092 343.595 420.081C343.792 420.071 343.988 420.1 344.174 420.166C344.36 420.232 344.53 420.334 344.677 420.466C344.823 420.598 344.942 420.757 345.026 420.935C348.407 428.041 355.678 432.633 363.55 432.633C371.481 432.633 378.778 427.989 382.141 420.802C382.314 420.448 382.619 420.177 382.99 420.046C383.361 419.915 383.769 419.935 384.125 420.101C384.481 420.268 384.758 420.568 384.895 420.937C385.032 421.306 385.019 421.714 384.858 422.073C381.004 430.31 372.64 435.633 363.55 435.633Z" fill="black"/>
<path d="M340.789 424.847C340.465 424.847 340.149 424.742 339.89 424.547C339.63 424.353 339.44 424.079 339.349 423.768C339.258 423.456 339.271 423.124 339.385 422.82C339.499 422.516 339.708 422.258 339.981 422.083L345.912 418.304C346.078 418.198 346.264 418.126 346.458 418.092C346.652 418.058 346.85 418.062 347.043 418.104C347.235 418.147 347.417 418.227 347.578 418.34C347.74 418.453 347.877 418.596 347.983 418.763C348.089 418.929 348.161 419.114 348.195 419.308C348.229 419.502 348.225 419.7 348.182 419.893C348.14 420.085 348.06 420.267 347.947 420.428C347.834 420.59 347.69 420.727 347.524 420.833L341.593 424.612C341.343 424.77 341.064 424.847 340.789 424.847V424.847ZM386.378 424.847C386.102 424.847 385.823 424.771 385.573 424.612L379.642 420.833C379.307 420.619 379.07 420.281 378.984 419.893C378.898 419.504 378.97 419.098 379.184 418.763C379.398 418.427 379.736 418.19 380.124 418.104C380.512 418.018 380.919 418.09 381.254 418.304L387.185 422.083C387.46 422.257 387.671 422.515 387.786 422.819C387.901 423.123 387.914 423.457 387.823 423.769C387.732 424.081 387.541 424.355 387.281 424.549C387.02 424.744 386.704 424.848 386.378 424.847V424.847ZM355.272 398.365C355.272 404.155 353.272 410.015 349.442 410.015C345.602 410.015 343.602 404.155 343.602 398.365C343.602 392.585 345.602 386.725 349.442 386.725C353.272 386.725 355.272 392.585 355.272 398.365ZM383.562 398.365C383.562 404.155 381.562 410.015 377.732 410.015C373.902 410.015 371.892 404.155 371.892 398.365C371.892 392.585 373.902 386.725 377.732 386.725C381.562 386.725 383.562 392.585 383.562 398.365Z" fill="black"/>
<path d="M798.666 825.763C781.784 825.763 768.098 812.077 768.098 795.195V758.43C768.098 741.548 781.784 727.862 798.666 727.862C815.548 727.862 829.234 741.548 829.234 758.43V795.195C829.234 812.078 815.548 825.763 798.666 825.763V825.763Z" fill="#F7523C"/>
<path d="M798.664 767.368C798.266 767.368 797.885 767.21 797.603 766.929C797.322 766.647 797.164 766.266 797.164 765.868V751.984C797.164 751.586 797.322 751.205 797.603 750.923C797.885 750.642 798.266 750.484 798.664 750.484C799.062 750.484 799.443 750.642 799.725 750.923C800.006 751.205 800.164 751.586 800.164 751.984V765.868C800.164 766.266 800.006 766.647 799.725 766.929C799.443 767.21 799.062 767.368 798.664 767.368V767.368Z" fill="black"/>
<path d="M393.498 578.172H626.009V727.159H393.498V578.172ZM281.441 578.172H369.286V727.16H281.441V578.172Z" fill="white"/>
<path d="M347.133 604.936H303.598C303.2 604.936 302.818 604.778 302.537 604.497C302.256 604.215 302.098 603.834 302.098 603.436C302.098 603.038 302.256 602.657 302.537 602.375C302.818 602.094 303.2 601.936 303.598 601.936H347.133C347.53 601.936 347.912 602.094 348.193 602.375C348.475 602.657 348.633 603.038 348.633 603.436C348.633 603.834 348.475 604.215 348.193 604.497C347.912 604.778 347.53 604.936 347.133 604.936V604.936ZM338.369 624.629H312.362C311.964 624.629 311.582 624.471 311.301 624.19C311.02 623.908 310.862 623.527 310.862 623.129C310.862 622.731 311.02 622.35 311.301 622.068C311.582 621.787 311.964 621.629 312.362 621.629H338.369C338.767 621.629 339.148 621.787 339.429 622.068C339.711 622.35 339.869 622.731 339.869 623.129C339.869 623.527 339.711 623.908 339.429 624.19C339.148 624.471 338.767 624.629 338.369 624.629ZM347.133 644.32H303.598C303.2 644.32 302.818 644.162 302.537 643.881C302.256 643.599 302.098 643.218 302.098 642.82C302.098 642.422 302.256 642.041 302.537 641.759C302.818 641.478 303.2 641.32 303.598 641.32H347.133C347.53 641.32 347.912 641.478 348.193 641.759C348.475 642.041 348.633 642.422 348.633 642.82C348.633 643.218 348.475 643.599 348.193 643.881C347.912 644.162 347.53 644.32 347.133 644.32V644.32ZM338.369 664.013H312.362C311.964 664.013 311.582 663.855 311.301 663.574C311.02 663.292 310.862 662.911 310.862 662.513C310.862 662.115 311.02 661.734 311.301 661.452C311.582 661.171 311.964 661.013 312.362 661.013H338.369C338.767 661.013 339.148 661.171 339.429 661.452C339.711 661.734 339.869 662.115 339.869 662.513C339.869 662.911 339.711 663.292 339.429 663.574C339.148 663.855 338.767 664.013 338.369 664.013ZM347.133 683.704H303.598C303.2 683.704 302.818 683.546 302.537 683.265C302.256 682.983 302.098 682.602 302.098 682.204C302.098 681.806 302.256 681.425 302.537 681.143C302.818 680.862 303.2 680.704 303.598 680.704H347.133C347.53 680.704 347.912 680.862 348.193 681.143C348.475 681.425 348.633 681.806 348.633 682.204C348.633 682.602 348.475 682.983 348.193 683.265C347.912 683.546 347.53 683.704 347.133 683.704V683.704ZM338.369 703.395H312.362C311.964 703.395 311.582 703.237 311.301 702.956C311.02 702.674 310.862 702.293 310.862 701.895C310.862 701.497 311.02 701.116 311.301 700.834C311.582 700.553 311.964 700.395 312.362 700.395H338.369C338.767 700.395 339.148 700.553 339.429 700.834C339.711 701.116 339.869 701.497 339.869 701.895C339.869 702.293 339.711 702.674 339.429 702.956C339.148 703.237 338.767 703.395 338.369 703.395Z" fill="black"/>
<path d="M532.39 687.608C532.378 699.949 522.399 709.917 510.07 709.917C497.741 709.917 487.75 699.949 487.738 687.608H496.647V676.924C497.659 677.261 498.682 677.564 499.729 677.82C500.241 677.948 500.764 678.064 501.288 678.181H501.311C501.834 678.285 502.369 678.379 502.904 678.472C504.394 678.716 505.897 678.875 507.405 678.949C507.603 678.961 507.812 678.972 508.01 678.972C508.498 678.995 508.999 679.007 509.499 679.007H509.522C509.999 679.007 510.487 678.995 510.964 678.972C511.173 678.972 511.383 678.96 511.592 678.949C512.011 678.937 512.429 678.902 512.837 678.868C513.385 678.827 513.932 678.772 514.477 678.705C514.547 678.693 514.617 678.693 514.686 678.682C515.163 678.612 515.628 678.554 516.105 678.473C516.64 678.392 517.175 678.287 517.71 678.182C518.235 678.067 518.758 677.947 519.28 677.821C520.315 677.563 521.34 677.264 522.351 676.925V687.609H532.39V687.608Z" fill="#FFC702"/>
<path d="M605.695 727.167H413.816C415.351 724.678 416.863 722.2 418.352 719.77C418.945 718.839 419.515 717.886 420.085 716.967C421.516 714.629 422.911 712.361 424.249 710.198C424.516 709.744 424.772 709.314 425.04 708.895C425.54 708.069 426.075 707.255 426.645 706.464C426.924 706.08 427.203 705.696 427.494 705.324C428.637 703.797 429.881 702.348 431.216 700.986C435.378 696.75 440.341 693.386 445.817 691.089C451.293 688.793 457.171 687.61 463.109 687.61H487.744C487.756 699.951 497.747 709.919 510.076 709.919C522.405 709.919 532.384 699.951 532.396 687.61H556.414C564.05 687.609 571.558 689.565 578.223 693.292C584.887 697.018 590.486 702.39 594.483 708.895L605.695 727.167Z" fill="#F7523C"/>
<path d="M550.256 599.693V638.25C550.256 656.267 538.567 671.55 522.353 676.935C521.353 677.272 520.318 677.575 519.282 677.819C518.759 677.947 518.235 678.063 517.712 678.18C517.177 678.284 516.642 678.389 516.107 678.471C515.63 678.552 515.165 678.61 514.688 678.68C514.618 678.692 514.548 678.692 514.479 678.703C513.944 678.773 513.397 678.819 512.839 678.866C512.432 678.901 512.013 678.936 511.594 678.947C511.385 678.961 511.176 678.968 510.966 678.97C510.489 678.993 510.001 679.005 509.524 679.005H509.501C509.001 679.005 508.501 678.993 508.012 678.97C507.814 678.97 507.605 678.958 507.407 678.947C505.899 678.875 504.396 678.716 502.906 678.47C502.371 678.377 501.836 678.284 501.313 678.179H501.29C500.769 678.066 500.249 677.945 499.731 677.818C498.691 677.571 497.662 677.276 496.649 676.934C480.435 671.549 468.746 656.265 468.746 638.249V599.692C468.746 577.186 486.995 558.937 509.501 558.937C520.76 558.937 530.949 563.496 538.323 570.871C545.697 578.257 550.256 588.446 550.256 599.693V599.693Z" fill="#FFC702"/>
<path d="M550.26 599.707V604.162L469.645 591.193C472.657 576.991 483.079 565.523 496.653 561.022C500.8 559.639 505.144 558.936 509.517 558.94C513.995 558.94 518.322 559.673 522.358 561.022H522.37C538.582 566.395 550.26 581.678 550.26 599.707V599.707Z" fill="#2824FD"/>
<path d="M494.65 643.294C494.556 643.294 494.461 643.285 494.365 643.267L490.448 642.514C489.12 642.258 487.983 641.433 487.329 640.249C486.675 639.065 486.581 637.664 487.072 636.404L491.508 625.003C491.578 624.818 491.684 624.648 491.82 624.504C491.956 624.36 492.119 624.244 492.3 624.163C492.481 624.082 492.676 624.038 492.874 624.034C493.073 624.029 493.27 624.063 493.454 624.135C493.639 624.207 493.808 624.315 493.951 624.452C494.093 624.589 494.208 624.754 494.287 624.935C494.366 625.117 494.408 625.313 494.411 625.511C494.414 625.709 494.377 625.906 494.304 626.09L489.868 637.491C489.784 637.702 489.749 637.928 489.764 638.154C489.779 638.38 489.844 638.599 489.955 638.797C490.063 638.996 490.215 639.168 490.398 639.302C490.581 639.435 490.792 639.526 491.015 639.568L494.932 640.321C495.298 640.391 495.625 640.596 495.849 640.894C496.072 641.193 496.177 641.564 496.142 641.936C496.106 642.307 495.934 642.652 495.658 642.903C495.382 643.154 495.023 643.294 494.65 643.294V643.294ZM494.793 656.233C491.231 656.233 487.751 654.436 484.44 650.882C484.305 650.738 484.201 650.569 484.132 650.384C484.063 650.2 484.031 650.003 484.038 649.806C484.045 649.61 484.091 649.416 484.173 649.237C484.254 649.058 484.371 648.896 484.515 648.762C484.659 648.628 484.828 648.523 485.013 648.454C485.197 648.385 485.393 648.353 485.59 648.36C485.787 648.367 485.981 648.413 486.16 648.495C486.339 648.577 486.5 648.693 486.635 648.837C489.496 651.906 492.389 653.404 495.228 653.22C499.547 652.975 502.524 649.012 502.553 648.972C502.795 648.671 503.144 648.475 503.527 648.425C503.91 648.375 504.298 648.474 504.61 648.703C504.921 648.931 505.133 649.271 505.201 649.651C505.269 650.031 505.187 650.423 504.974 650.745C504.821 650.954 501.166 655.872 495.429 656.215C495.215 656.227 495.004 656.233 494.793 656.233V656.233ZM550.262 604.161V631.401L545.296 628.923C543.437 628.001 541.873 626.578 540.78 624.815C539.687 623.052 539.108 621.019 539.108 618.944V611.854C539.108 610.191 538.515 608.583 537.437 607.318C536.359 606.052 534.865 605.212 533.224 604.948L469.066 594.635L438.175 589.677C437.948 589.641 437.731 589.56 437.535 589.44C437.34 589.319 437.17 589.162 437.035 588.975C436.9 588.789 436.804 588.579 436.751 588.355C436.697 588.132 436.689 587.9 436.725 587.674C436.762 587.447 436.842 587.229 436.963 587.034C437.083 586.838 437.241 586.668 437.427 586.534C437.613 586.399 437.824 586.303 438.047 586.249C438.27 586.196 438.502 586.188 438.729 586.224L469.647 591.192L550.262 604.161Z" fill="black"/>
<path d="M512.837 627.862C515.085 627.862 516.908 626.039 516.908 623.791C516.908 621.543 515.085 619.72 512.837 619.72C510.588 619.72 508.766 621.543 508.766 623.791C508.766 626.039 510.588 627.862 512.837 627.862Z" fill="black"/>
<path d="M478.102 627.862C480.351 627.862 482.173 626.039 482.173 623.791C482.173 621.543 480.351 619.72 478.102 619.72C475.854 619.72 474.031 621.543 474.031 623.791C474.031 626.039 475.854 627.862 478.102 627.862Z" fill="black"/>
<path d="M520.757 614.991C516.763 613.713 512.507 613.453 508.442 614.032C505.644 614.334 505.325 610.165 508.143 610.043C512.806 609.974 517.457 610.873 521.622 612.813C521.897 612.937 522.114 613.163 522.227 613.442C522.34 613.722 522.341 614.035 522.229 614.315C522.118 614.595 521.903 614.822 521.629 614.948C521.355 615.074 521.042 615.089 520.757 614.991V614.991ZM467.152 612.812C471.317 610.872 475.968 609.973 480.631 610.042C480.895 610.044 481.157 610.099 481.4 610.203C481.643 610.306 481.863 610.457 482.048 610.646C482.232 610.835 482.378 611.059 482.476 611.304C482.574 611.549 482.622 611.812 482.618 612.076C482.609 613.273 481.514 614.206 480.332 614.031C476.267 613.453 472.012 613.712 468.017 614.991C466.628 615.436 465.837 613.437 467.152 612.812V612.812ZM519.283 677.82C518.76 677.948 518.236 678.064 517.713 678.181C517.178 678.285 516.643 678.39 516.108 678.472C515.631 678.553 515.166 678.611 514.689 678.681C514.619 678.693 514.549 678.693 514.48 678.704C513.945 678.774 513.398 678.82 512.84 678.867C512.433 678.902 512.014 678.937 511.595 678.948C511.386 678.962 511.177 678.969 510.967 678.971C510.49 678.994 510.002 679.006 509.525 679.006H509.502C509.002 679.006 508.502 678.994 508.013 678.971C507.815 678.971 507.606 678.959 507.408 678.948C505.9 678.876 504.397 678.717 502.907 678.471C502.372 678.378 501.837 678.285 501.314 678.18H501.291C500.77 678.067 500.25 677.946 499.732 677.819C498.692 677.572 497.663 677.277 496.65 676.935C496.65 676.935 506.114 684.119 522.355 681.948V676.935C521.353 677.273 520.318 677.575 519.283 677.82Z" fill="black"/>
</svg>
