<svg width="1080" height="1080" viewBox="0 0 1080 1080" fill="none" xmlns="http://www.w3.org/2000/svg">
<path d="M817.173 261.074V277.929H360.062V261.074C360.062 252.93 366.665 246.328 374.809 246.328H802.428C810.571 246.329 817.173 252.93 817.173 261.074V261.074Z" fill="black"/>
<path d="M817.176 277.929V696.368C817.176 704.512 810.574 711.114 802.43 711.114H374.809C366.665 711.114 360.062 704.512 360.062 696.368V277.929H817.176Z" fill="#FFC702"/>
<path d="M390.102 267.094C392.844 267.094 395.067 264.871 395.067 262.129C395.067 259.387 392.844 257.164 390.102 257.164C387.36 257.164 385.137 259.387 385.137 262.129C385.137 264.871 387.36 267.094 390.102 267.094Z" fill="white"/>
<path d="M414.91 267.094C417.652 267.094 419.875 264.871 419.875 262.129C419.875 259.387 417.652 257.164 414.91 257.164C412.168 257.164 409.945 259.387 409.945 262.129C409.945 264.871 412.168 267.094 414.91 267.094Z" fill="white"/>
<path d="M439.719 267.094C442.461 267.094 444.684 264.871 444.684 262.129C444.684 259.387 442.461 257.164 439.719 257.164C436.977 257.164 434.754 259.387 434.754 262.129C434.754 264.871 436.977 267.094 439.719 267.094Z" fill="white"/>
<path d="M496.195 246.329H499.195V277.93H496.195V246.329ZM535.708 246.329H538.708V277.93H535.708V246.329ZM575.221 246.329H578.221V277.93H575.221V246.329ZM614.733 246.329H617.733V277.93H614.733V246.329ZM654.247 246.329H657.247V277.93H654.247V246.329ZM693.76 246.329H696.76V277.93H693.76V246.329ZM733.272 246.329H736.272V277.93H733.272V246.329ZM772.785 246.329H775.785V277.93H772.785V246.329Z" fill="white"/>
<path d="M738.229 357.019V775.459C738.229 783.599 731.619 790.209 723.479 790.209H295.859C287.709 790.209 281.109 783.599 281.109 775.459V357.019H738.229Z" fill="#2824FD"/>
<path d="M636.671 419.859C623.421 433.109 608.711 418.389 595.451 431.639C582.201 444.899 596.911 459.619 583.661 472.869C570.411 486.119 555.691 471.399 542.441 484.649C529.191 497.909 543.911 512.619 530.661 525.869C517.401 539.119 502.691 524.409 489.431 537.669C476.181 550.919 490.891 565.629 477.641 578.879C464.391 592.129 449.681 577.419 436.421 590.679C424.461 602.639 435.281 615.789 427.751 627.979H306.191V382.089H645.621C637.541 394.419 648.781 407.739 636.671 419.859V419.859Z" fill="white"/>
<path d="M306.186 382.082V627.982H591.606C584.076 615.792 594.896 602.642 582.936 590.682C569.676 577.422 554.966 592.132 541.716 578.882C528.466 565.632 543.176 550.922 529.926 537.672C516.666 524.412 501.956 539.122 488.696 525.872C475.446 512.622 490.166 497.912 476.916 484.652C463.666 471.402 448.946 486.122 435.696 472.872C422.446 459.622 437.156 444.902 423.906 431.642C410.646 418.392 395.936 433.112 382.686 419.862C370.576 407.742 381.826 394.412 373.726 382.082H306.186ZM738.224 340.166V357.021H281.113V340.166C281.113 332.022 287.715 325.42 295.859 325.42H723.479C731.622 325.42 738.224 332.022 738.224 340.166V340.166Z" fill="black"/>
<path d="M306.188 627.982H713.165V765.131H306.188V627.982Z" fill="#FFC702"/>
<path d="M655.799 627.975C655.799 547.268 590.373 481.843 509.667 481.843C428.961 481.843 363.535 547.269 363.535 627.975" fill="#F7523C"/>
<path d="M568.487 492.672C568.487 525.156 542.151 551.492 509.667 551.492C477.183 551.492 450.855 525.156 450.855 492.672C450.855 460.196 477.183 433.86 509.667 433.86C542.151 433.86 568.487 460.196 568.487 492.672V492.672Z" fill="#FFC702"/>
<path d="M311.152 346.186C313.895 346.186 316.117 343.963 316.117 341.221C316.117 338.479 313.895 336.256 311.152 336.256C308.41 336.256 306.188 338.479 306.188 341.221C306.188 343.963 308.41 346.186 311.152 346.186Z" fill="white"/>
<path d="M335.961 346.186C338.703 346.186 340.926 343.963 340.926 341.221C340.926 338.479 338.703 336.256 335.961 336.256C333.219 336.256 330.996 338.479 330.996 341.221C330.996 343.963 333.219 346.186 335.961 346.186Z" fill="white"/>
<path d="M360.77 346.186C363.512 346.186 365.735 343.963 365.735 341.221C365.735 338.479 363.512 336.256 360.77 336.256C358.028 336.256 355.805 338.479 355.805 341.221C355.805 343.963 358.028 346.186 360.77 346.186Z" fill="white"/>
<path d="M548.354 631.471C548.356 632.874 548.081 634.264 547.545 635.561C547.009 636.858 546.222 638.036 545.23 639.029C544.237 640.021 543.059 640.808 541.762 641.344C540.465 641.88 539.075 642.155 537.672 642.153H525.91C526.41 645.674 526.99 649.194 526.99 652.855C526.99 694.083 493.424 727.629 452.196 727.629C410.969 727.629 377.402 694.083 377.402 652.855C377.402 647.854 377.962 642.993 378.902 638.272C379.042 637.592 378.862 636.892 378.542 636.272C378.542 636.272 378.542 636.252 378.522 636.252C376.282 631.751 371.501 629.511 366.72 629.511C361.939 629.511 357.158 631.751 354.918 636.252C354.898 636.252 354.898 636.272 354.898 636.272C354.578 636.892 354.398 637.592 354.538 638.272C355.478 642.993 356.038 647.854 356.038 652.855C356.038 694.083 322.472 727.629 281.244 727.629C240.016 727.629 206.45 694.083 206.45 652.855C206.45 649.194 207.03 645.674 207.53 642.153H195.768C194.365 642.155 192.975 641.88 191.678 641.344C190.381 640.808 189.203 640.021 188.21 639.029C187.218 638.036 186.431 636.858 185.895 635.561C185.359 634.264 185.084 632.874 185.086 631.471C185.086 625.57 189.867 620.789 195.768 620.789H213.952C226.014 595.624 251.519 578.061 281.244 578.061C308.709 578.061 332.494 593.104 345.496 615.228C351.477 610.507 358.758 607.587 366.72 607.587C374.682 607.587 381.963 610.508 387.944 615.228C400.946 593.104 424.731 578.061 452.196 578.061C481.922 578.061 507.426 595.624 519.489 620.789H537.672C543.573 620.789 548.354 625.57 548.354 631.471Z" fill="black"/>
<path d="M452.395 713.329C485.517 713.329 512.368 686.478 512.368 653.356C512.368 620.234 485.517 593.383 452.395 593.383C419.273 593.383 392.422 620.234 392.422 653.356C392.422 686.478 419.273 713.329 452.395 713.329Z" fill="white"/>
<path d="M281.043 713.329C314.165 713.329 341.016 686.478 341.016 653.356C341.016 620.234 314.165 593.383 281.043 593.383C247.921 593.383 221.07 620.234 221.07 653.356C221.07 686.478 247.921 713.329 281.043 713.329Z" fill="white"/>
<path d="M512.365 653.355C512.365 653.975 512.365 654.595 512.325 655.195C480.219 677.899 438.411 717.666 434.651 696.643C430.65 674.459 426.93 674.399 402.805 687.101C397.485 679.298 394.091 670.345 392.903 660.976C418.968 655.215 444.072 632.831 460.916 595.964C461.196 595.344 461.496 594.724 461.796 594.124C490.462 598.625 512.365 623.43 512.365 653.355V653.355ZM341.017 653.355C341.017 653.975 341.017 654.595 340.977 655.195C308.871 677.899 267.063 717.666 263.303 696.643C259.302 674.459 255.582 674.399 231.457 687.101C226.137 679.298 222.743 670.345 221.555 660.976C247.62 655.215 272.724 632.831 289.568 595.964C289.848 595.344 290.148 594.724 290.448 594.124C319.113 598.625 341.017 623.43 341.017 653.355V653.355Z" fill="#FFC702"/>
<path d="M245.516 543.41C245.118 543.41 244.736 543.252 244.455 542.971C244.174 542.689 244.016 542.308 244.016 541.91V390.841C244.016 390.443 244.174 390.062 244.455 389.78C244.736 389.499 245.118 389.341 245.516 389.341C245.913 389.341 246.295 389.499 246.576 389.78C246.858 390.062 247.016 390.443 247.016 390.841V541.91C247.016 542.308 246.858 542.689 246.576 542.971C246.295 543.252 245.913 543.41 245.516 543.41V543.41Z" fill="black"/>
<path d="M236.758 382.085H254.27V399.597H236.758V382.085ZM236.758 533.154H254.27V550.666H236.758V533.154Z" fill="black"/>
<path d="M590.634 158.182V216.862C590.634 223.252 585.464 228.422 579.074 228.422H520.394C514.014 228.422 508.844 223.252 508.844 216.862V158.182C508.844 151.802 514.014 146.632 520.394 146.632H579.074C585.464 146.632 590.634 151.802 590.634 158.182Z" fill="#F7523C"/>
<path d="M553.637 199.531L549.73 212.765L545.831 199.531L534.897 207.942L539.521 194.941L525.734 195.33L537.118 187.524L525.734 179.728L539.521 180.108L534.897 167.107L545.831 175.527L549.73 162.293L553.637 175.527L564.571 167.107L559.938 180.108L573.734 179.728L562.35 187.524L573.734 195.33L559.938 194.941L564.571 207.942L553.637 199.531Z" fill="white"/>
<path d="M672.556 228.422H613.883C607.499 228.422 602.324 223.247 602.324 216.863V158.191C602.324 151.807 607.499 146.632 613.883 146.632H672.556C678.94 146.632 684.115 151.807 684.115 158.191V216.863C684.115 223.247 678.94 228.422 672.556 228.422Z" fill="#2824FD"/>
<path d="M643.219 208.527C654.817 208.527 664.219 199.125 664.219 187.527C664.219 175.929 654.817 166.527 643.219 166.527C631.621 166.527 622.219 175.929 622.219 187.527C622.219 199.125 631.621 208.527 643.219 208.527Z" fill="white"/>
<path d="M836.307 574.678V582.243H690.691V574.678C690.691 564.977 698.559 557.098 708.276 557.098H818.721C828.422 557.098 836.307 564.977 836.307 574.678Z" fill="black"/>
<path d="M690.691 582.243H836.306V790.205H690.691V582.243Z" fill="#F7523C"/>
<path d="M836.31 790.205V797.77C836.31 807.482 828.426 815.355 818.725 815.355H708.28C698.562 815.355 690.695 807.482 690.695 797.77V790.205H836.31Z" fill="#FFC702"/>
<path d="M707.562 752.088C707.562 757.979 712.338 762.755 718.229 762.755H808.768C814.659 762.755 819.435 757.979 819.435 752.088C819.435 746.197 814.659 741.421 808.768 741.421H718.229C712.338 741.42 707.562 746.196 707.562 752.088Z" fill="white"/>
<path d="M836.306 719.699L865.973 749.422C869.155 752.585 871.681 756.347 873.405 760.49C875.128 764.633 876.016 769.076 876.017 773.563V841.094H824.96L822.899 837.788C819.236 831.926 817.231 825.182 817.096 818.271C816.96 811.361 818.699 804.543 822.129 798.542L798.883 773.19C794.456 768.344 794.614 760.87 799.245 756.217C804.046 751.405 811.825 751.393 816.637 756.183L836.305 775.863" fill="black"/>
<path d="M876.016 841.094V854.463C876.016 856.619 875.159 858.687 873.635 860.212C872.11 861.736 870.042 862.593 867.886 862.593H833.09C830.934 862.593 828.866 861.736 827.341 860.212C825.817 858.687 824.96 856.619 824.96 854.463V841.094H876.016ZM660.185 933.368H358.436C357.613 933.368 356.798 933.206 356.037 932.891C355.277 932.576 354.586 932.114 354.004 931.532C353.422 930.95 352.96 930.259 352.645 929.499C352.33 928.738 352.168 927.923 352.168 927.1V821.624C352.168 819.962 352.828 818.367 354.004 817.192C355.179 816.016 356.774 815.356 358.436 815.356H660.185C661.847 815.356 663.442 816.016 664.617 817.192C665.793 818.367 666.453 819.962 666.453 821.624V927.1C666.453 927.923 666.291 928.738 665.976 929.499C665.661 930.259 665.199 930.95 664.617 931.532C664.035 932.114 663.344 932.576 662.584 932.891C661.823 933.206 661.008 933.368 660.185 933.368V933.368Z" fill="#FFC702"/>
<path d="M369.695 898.311H387.224V915.84H369.695V898.311ZM402.407 898.311H419.936V915.84H402.407V898.311ZM435.121 898.307H583.498V915.84H435.121V898.307ZM598.682 898.311H616.211V915.84H598.682V898.311ZM631.394 898.311H648.923V915.84H631.394V898.311ZM369.695 832.884H387.224V850.413H369.695V832.884ZM402.407 832.884H419.936V850.413H402.407V832.884ZM435.12 832.884H452.649V850.413H435.12V832.884ZM467.832 832.884H485.361V850.413H467.832V832.884Z" fill="black"/>
<path d="M500.547 832.884H518.076V850.413H500.547V832.884Z" fill="white"/>
<path d="M533.258 832.884H550.787V850.413H533.258V832.884ZM565.97 832.884H583.499V850.413H565.97V832.884ZM598.683 832.884H616.212V850.413H598.683V832.884ZM631.395 832.884H648.924V850.413H631.395V832.884Z" fill="black"/>
<path d="M369.695 865.597H387.224V883.126H369.695V865.597Z" fill="white"/>
<path d="M402.41 865.597H419.939V883.126H402.41V865.597Z" fill="black"/>
<path d="M435.121 865.597H452.65V883.126H435.121V865.597Z" fill="white"/>
<path d="M467.836 865.597H485.365V883.126H467.836V865.597ZM500.548 865.597H518.077V883.126H500.548V865.597Z" fill="black"/>
<path d="M533.258 865.597H550.787V883.126H533.258V865.597Z" fill="white"/>
<path d="M565.973 865.597H583.502V883.126H565.973V865.597Z" fill="black"/>
<path d="M598.684 865.597H616.213V883.126H598.684V865.597Z" fill="white"/>
<path d="M631.395 865.597H648.924V883.126H631.395V865.597ZM886.157 706.322H738.714C738.316 706.322 737.934 706.164 737.653 705.883C737.372 705.601 737.214 705.22 737.214 704.822V611.753C737.214 611.355 737.372 610.974 737.653 610.692C737.934 610.411 738.316 610.253 738.714 610.253H886.157C886.554 610.253 886.936 610.411 887.217 610.692C887.499 610.974 887.657 611.355 887.657 611.753V704.822C887.657 705.22 887.499 705.601 887.217 705.883C886.936 706.164 886.554 706.322 886.157 706.322ZM740.214 703.322H884.657V613.253H740.214V703.322Z" fill="black"/>
<path d="M729.961 602.997H747.473V620.509H729.961V602.997ZM877.404 602.997H894.916V620.509H877.404V602.997ZM729.961 696.066H747.473V713.578H729.961V696.066ZM877.404 696.066H894.916V713.578H877.404V696.066Z" fill="black"/>
<path d="M676.403 490.986C676.63 491.213 676.757 491.52 676.757 491.841C676.757 492.162 676.63 492.469 676.403 492.696L674.068 495.03C673.841 495.257 673.534 495.384 673.213 495.384C672.892 495.384 672.585 495.257 672.358 495.03L667.155 489.827L664.427 495.143C664.355 495.284 664.243 495.402 664.105 495.481C663.967 495.56 663.81 495.597 663.651 495.589C663.493 495.58 663.34 495.526 663.212 495.432C663.083 495.339 662.985 495.21 662.928 495.062L655.168 474.86C655.111 474.713 655.098 474.553 655.13 474.398C655.162 474.244 655.238 474.102 655.348 473.989C655.459 473.877 655.599 473.798 655.753 473.763C655.906 473.728 656.067 473.738 656.215 473.792L676.569 481.145C676.717 481.198 676.846 481.293 676.942 481.417C677.037 481.542 677.095 481.691 677.109 481.848C677.122 482.004 677.09 482.161 677.018 482.3C676.945 482.439 676.833 482.554 676.697 482.632L671.188 485.771L676.403 490.986Z" fill="white"/>
<path d="M360.062 303.198H314.414C314.016 303.198 313.635 303.04 313.353 302.759C313.072 302.477 312.914 302.096 312.914 301.698V208.629C312.914 208.231 313.072 207.85 313.353 207.568C313.635 207.287 314.016 207.129 314.414 207.129H462.857C463.255 207.129 463.636 207.287 463.918 207.568C464.199 207.85 464.357 208.231 464.357 208.629V246.329C464.357 246.727 464.199 247.108 463.918 247.39C463.636 247.671 463.255 247.829 462.857 247.829C462.459 247.829 462.078 247.671 461.796 247.39C461.515 247.108 461.357 246.727 461.357 246.329V210.129H315.914V300.198H360.062C360.46 300.198 360.841 300.356 361.123 300.637C361.404 300.919 361.562 301.3 361.562 301.698C361.562 302.096 361.404 302.477 361.123 302.759C360.841 303.04 360.46 303.198 360.062 303.198V303.198Z" fill="black"/>
<path d="M305.66 199.873H323.172V217.385H305.66V199.873ZM454.103 199.873H471.615V217.385H454.103V199.873ZM305.66 292.942H323.172V310.454H305.66V292.942ZM670.199 582.243C669.774 577.008 665.393 572.891 660.048 572.891C659.493 572.891 658.948 572.936 658.417 573.021C656.119 573.37 654.255 572.612 653.436 570.483C651.025 564.163 644.908 559.673 637.741 559.673C633.429 559.667 629.282 561.327 626.164 564.306C624.898 565.448 623.189 565.409 622.256 563.843C618.924 557.131 612.004 552.516 604.002 552.516C594.939 552.516 587.259 558.434 584.613 566.616C584.277 567.656 583.016 568.923 580.876 568.114C579.295 567.46 577.6 567.125 575.888 567.127C573.882 567.125 571.903 567.586 570.105 568.474C568.306 569.362 566.737 570.653 565.518 572.246C564.575 573.305 563.333 573.383 562.194 572.288C561.003 570.895 559.524 569.777 557.859 569.012C556.194 568.246 554.383 567.85 552.55 567.852C546.751 567.852 541.862 571.737 540.338 577.046C539.89 578.244 538.717 578.247 538.009 577.793C536.661 576.927 535.092 576.468 533.489 576.47C529.769 576.47 526.628 578.893 525.527 582.244H670.199V582.243Z" fill="black"/>
<path d="M420.613 491.497H328.613C330.079 481.456 338.034 482.967 339.36 483.087H339.409C340.039 483.077 340.631 482.757 340.941 482.204C341.808 480.659 343.071 479.372 344.601 478.477C346.13 477.582 347.87 477.111 349.642 477.112C351.291 477.112 352.833 477.51 354.201 478.208C354.88 478.547 355.685 478.237 356.024 477.548C358.565 472.368 363.871 468.799 370.03 468.799C372.929 468.798 375.771 469.606 378.236 471.133C380.7 472.66 382.689 474.844 383.978 477.441C384.696 478.644 385.996 478.673 386.956 477.79C388.488 476.332 390.355 475.274 392.394 474.712C394.432 474.149 396.578 474.099 398.641 474.565C400.703 475.032 402.618 476.001 404.216 477.386C405.814 478.77 407.045 480.529 407.8 482.504C408.411 484.133 409.856 484.716 411.602 484.454C412.013 484.389 412.428 484.353 412.844 484.347C416.927 484.348 420.273 487.501 420.613 491.497V491.497Z" fill="white"/>
<path d="M403.646 396.228L404.71 399.104C404.898 399.613 405.3 400.015 405.809 400.203L408.685 401.267C410.305 401.866 410.305 404.158 408.685 404.757L405.809 405.821C405.3 406.009 404.898 406.411 404.71 406.92L403.646 409.796C403.047 411.416 400.755 411.416 400.156 409.796L399.092 406.92C398.999 406.668 398.853 406.44 398.663 406.25C398.473 406.06 398.245 405.914 397.993 405.821L395.117 404.757C393.497 404.158 393.497 401.866 395.117 401.267L397.993 400.203C398.502 400.015 398.904 399.613 399.092 399.104L400.156 396.228C400.755 394.608 403.046 394.608 403.646 396.228ZM619.182 396.228L620.246 399.104C620.434 399.613 620.836 400.015 621.345 400.203L624.221 401.267C625.841 401.866 625.841 404.158 624.221 404.757L621.345 405.821C620.836 406.009 620.434 406.411 620.246 406.92L619.182 409.796C618.583 411.416 616.291 411.416 615.692 409.796L614.628 406.92C614.535 406.668 614.389 406.44 614.199 406.25C614.01 406.06 613.781 405.914 613.529 405.821L610.653 404.757C609.033 404.158 609.033 401.866 610.653 401.267L613.529 400.203C614.038 400.015 614.44 399.613 614.628 399.104L615.692 396.228C616.292 394.608 618.583 394.608 619.182 396.228Z" fill="black"/>
<path d="M855.479 401.424H778.871C772.487 401.424 767.312 396.249 767.312 389.865V313.257C767.312 306.873 772.487 301.698 778.871 301.698H855.479C861.863 301.698 867.039 306.873 867.039 313.257V389.865C867.039 396.249 861.863 401.424 855.479 401.424Z" fill="#F7523C"/>
<path d="M812.581 338.154C812.581 331.395 812.508 330.22 811.772 328.75C811.038 327.428 809.421 327.428 807.585 327.428C804.205 327.428 800.973 328.236 798.843 329.999C796.639 331.762 794.802 335.141 793.554 337.86C793.407 338.227 793.26 338.448 792.378 338.301C791.57 338.154 791.57 337.934 791.57 337.493C792.158 333.746 792.672 328.53 792.965 324.784C801.34 325.004 809.127 325.078 817.135 325.078C824.922 325.078 833.003 325.005 841.452 324.784C841.746 328.53 842.26 333.746 842.775 337.493C842.775 337.934 842.775 338.154 841.966 338.301C841.011 338.448 840.864 338.228 840.717 337.86C839.688 335.142 837.778 331.836 835.575 329.999C833.518 328.236 830.285 327.428 826.612 327.428C824.775 327.428 823.306 327.281 822.277 328.897C821.248 330.513 821.322 333.819 821.322 338.154V364.822C821.322 372.168 821.249 372.976 821.984 374.593C822.718 376.062 824.849 376.135 827.641 376.43C828.155 376.503 828.302 376.65 828.302 377.385C828.302 378.193 828.155 378.34 827.568 378.34C824.409 378.193 820.295 378.12 816.989 378.12C813.609 378.12 809.715 378.193 806.85 378.34C806.336 378.34 806.189 378.193 806.189 377.459C806.189 376.651 806.336 376.504 806.85 376.431C809.421 376.137 811.111 376.063 811.919 374.594C812.801 372.831 812.581 369.745 812.581 364.823V338.154Z" fill="black"/>
</svg>
