<svg width="186" height="306" viewBox="0 0 186 306" fill="none" xmlns="http://www.w3.org/2000/svg">
<g clip-path="url(#clip0_1_1581)">
<path d="M146.043 17.6091V25.1866H0.1875V17.6091C0.1875 7.89202 8.06851 0 17.8016 0H128.429C138.146 0 146.043 7.89202 146.043 17.6091Z" fill="black"/>
<path d="M0.1875 25.1866H146.043V233.492H0.1875V25.1866Z" fill="#E45E47"/>
<path d="M146.043 233.492V241.07C146.043 250.798 138.146 258.684 128.429 258.684H17.8016C8.06851 258.684 0.1875 250.798 0.1875 241.07V233.492H146.043Z" fill="#F5C845"/>
<path d="M17.0859 195.311C17.0859 201.212 21.8698 205.996 27.7706 205.996H118.458C124.359 205.996 129.143 201.212 129.143 195.311C129.143 189.411 124.359 184.627 118.458 184.627H27.7716C21.8698 184.627 17.0859 189.411 17.0859 195.311V195.311Z" fill="white"/>
<path d="M146.036 162.87L175.752 192.642C182.195 199.05 185.812 207.749 185.812 216.823V284.465H134.672L132.608 281.154C125.133 269.199 124.839 254.092 131.836 241.843L108.552 216.449C104.118 211.595 104.276 204.109 108.915 199.448C113.724 194.628 121.515 194.616 126.335 199.414L146.036 219.127" fill="black"/>
<path d="M185.812 284.465V297.857C185.812 302.359 182.16 306 177.669 306H142.815C138.324 306 134.672 302.359 134.672 297.857V284.465H185.812Z" fill="#F5C845"/>
<path d="M109.131 144.853H37.0868C31.5547 144.853 27.0703 140.369 27.0703 134.837V62.7926C27.0703 57.2605 31.5547 52.7761 37.0868 52.7761H109.131C114.663 52.7761 119.147 57.2605 119.147 62.7926V134.837C119.147 140.368 114.663 144.853 109.131 144.853Z" fill="#F5C845"/>
<path d="M73.1158 95.3173C80.1049 95.3173 85.7707 89.6515 85.7707 82.6624C85.7707 75.6733 80.1049 70.0075 73.1158 70.0075C66.1267 70.0075 60.4609 75.6733 60.4609 82.6624C60.4609 89.6515 66.1267 95.3173 73.1158 95.3173Z" fill="white"/>
<path d="M56.4818 127.622C50.3737 127.622 46.4202 121.196 49.1397 115.726C53.5189 106.917 62.6089 100.864 73.1142 100.864C83.6186 100.864 92.7096 106.917 97.0888 115.726C99.8083 121.196 95.8548 127.622 89.7467 127.622H56.4818Z" fill="white"/>
</g>
<defs>
<clipPath id="clip0_1_1581">
<rect width="186" height="306" fill="white"/>
</clipPath>
</defs>
</svg>
