<svg width="284" height="166" viewBox="0 0 284 166" fill="none" xmlns="http://www.w3.org/2000/svg">
<g clip-path="url(#clip0_1_1424)">
<path d="M18.3823 120.364H229.897C239.976 120.364 248.146 112.193 248.146 102.114V18.2495C248.146 8.17113 239.976 0 229.897 0H18.3823C8.30394 0 0.132812 8.17113 0.132812 18.2495V102.114C0.132812 112.194 8.30394 120.364 18.3823 120.364V120.364Z" fill="#F5C845"/>
<path d="M230.505 38.5073V81.8563C218.983 81.8563 209.639 91.2006 209.639 102.722H38.6393C38.6393 91.2006 29.296 81.8563 17.7734 81.8563V38.5073C29.295 38.5073 38.6393 29.163 38.6393 17.6414H209.639C209.64 29.163 218.984 38.5073 230.505 38.5073V38.5073Z" fill="#E45E47"/>
<path d="M124.136 83.4376C132.827 83.4376 139.873 73.0258 139.873 60.1823C139.873 47.3388 132.827 36.9271 124.136 36.9271C115.444 36.9271 108.398 47.3388 108.398 60.1823C108.398 73.0258 115.444 83.4376 124.136 83.4376Z" fill="white"/>
<path d="M178.396 68.5495C185.225 68.5495 190.761 64.8034 190.761 60.1823C190.761 55.5613 185.225 51.8152 178.396 51.8152C171.567 51.8152 166.031 55.5613 166.031 60.1823C166.031 64.8034 171.567 68.5495 178.396 68.5495Z" fill="white"/>
<path d="M69.8803 68.5495C76.7092 68.5495 82.245 64.8034 82.245 60.1823C82.245 55.5613 76.7092 51.8152 69.8803 51.8152C63.0515 51.8152 57.5156 55.5613 57.5156 60.1823C57.5156 64.8034 63.0515 68.5495 69.8803 68.5495Z" fill="white"/>
<path d="M248.155 37.5072L274.832 64.2349C280.616 69.9877 283.863 77.7968 283.863 85.9429V146.668H237.953L236.1 143.695C229.39 132.963 229.125 119.401 235.408 108.404L214.504 85.6069C210.522 81.2493 210.665 74.5293 214.83 70.3438C219.147 66.0162 226.142 66.0062 230.469 70.3127L248.155 88.0092" fill="black"/>
<path d="M283.864 146.668V158.69C283.864 162.733 280.586 166.001 276.553 166.001H245.264C241.232 166.001 237.953 162.733 237.953 158.69V146.668H283.864Z" fill="#2724F2"/>
</g>
<defs>
<clipPath id="clip0_1_1424">
<rect width="284" height="166" fill="white"/>
</clipPath>
</defs>
</svg>
