<svg width="3000" height="3000" viewBox="0 0 3000 3000" fill="none" xmlns="http://www.w3.org/2000/svg">
<g clip-path="url(#clip0_1_588)">
<path d="M2847.22 495.225V1117.68C2847.22 1149.36 2821.78 1175 2790.34 1175H1701.33C1669.89 1175 1644.45 1149.36 1644.45 1117.69V495.225C1644.45 463.587 1669.89 437.911 1701.33 437.911H2790.34C2821.78 437.915 2847.22 463.591 2847.22 495.225Z" fill="#E45E47"/>
<path d="M1644.45 608.892H2847.22V1004.06H1644.45V608.892Z" fill="#2724F2"/>
<path d="M2245.83 1046.67C2377.5 1046.67 2484.23 939.121 2484.23 806.457C2484.23 673.794 2377.5 566.248 2245.83 566.248C2114.17 566.248 2007.43 673.794 2007.43 806.457C2007.43 939.121 2114.17 1046.67 2245.83 1046.67Z" fill="#F5C845"/>
<path d="M2518.25 437.911H2431.74V420.888C2431.74 386.973 2404.36 359.391 2370.71 359.391H2120.94C2087.29 359.391 2059.91 386.973 2059.91 420.888V437.911H1973.4V420.888C1973.4 338.911 2039.59 272.222 2120.94 272.222H2370.72C2452.07 272.222 2518.25 338.911 2518.25 420.888V437.911H2518.25Z" fill="black"/>
<path d="M2341.62 776.459H2275.6V709.938C2275.6 701.981 2272.47 694.351 2266.88 688.725C2261.3 683.099 2253.73 679.939 2245.83 679.939H2245.83C2237.93 679.939 2230.36 683.099 2224.78 688.725C2219.19 694.351 2216.06 701.981 2216.06 709.938V776.459H2150.04C2142.14 776.459 2134.57 779.619 2128.98 785.245C2123.4 790.871 2120.26 798.501 2120.26 806.458C2120.26 814.414 2123.4 822.044 2128.98 827.67C2134.57 833.296 2142.14 836.456 2150.04 836.456H2216.06V902.978C2216.06 910.934 2219.19 918.564 2224.78 924.19C2230.36 929.816 2237.93 932.976 2245.83 932.976H2245.83C2253.73 932.976 2261.3 929.816 2266.88 924.19C2272.47 918.564 2275.6 910.934 2275.6 902.978V836.456H2341.62C2349.52 836.456 2357.09 833.296 2362.68 827.67C2368.26 822.044 2371.4 814.414 2371.4 806.458C2371.4 798.501 2368.26 790.871 2362.68 785.245C2357.09 779.619 2349.52 776.459 2341.62 776.459Z" fill="white"/>
</g>
<g clip-path="url(#clip1_1_588)">
<path d="M1295.68 1897.22H337.65C304.584 1897.22 277.777 1870.56 277.777 1837.66V496.762C277.777 463.87 304.584 437.204 337.65 437.204H1295.68C1328.75 437.204 1355.56 463.87 1355.56 496.762V1837.67C1355.56 1870.56 1328.75 1897.22 1295.68 1897.22V1897.22Z" fill="#2724F2"/>
<path d="M1206.46 418.059V456.366C1206.46 488.531 1180.25 514.606 1147.91 514.606H485.421C453.085 514.606 426.873 488.531 426.873 456.366V418.059C426.873 385.894 453.085 359.819 485.421 359.819H728.605C728.609 311.419 768.009 272.222 816.666 272.222C865.323 272.222 904.723 311.419 904.723 359.815H1147.91C1180.25 359.815 1206.46 385.894 1206.46 418.059V418.059Z" fill="#F5C845"/>
<path d="M816.675 395.387C836.435 395.387 852.455 379.452 852.455 359.796C852.455 340.139 836.435 324.204 816.675 324.204C796.914 324.204 780.895 340.139 780.895 359.796C780.895 379.452 796.914 395.387 816.675 395.387Z" fill="white"/>
<path d="M816.667 1058.91C934.87 1058.91 1030.69 963.596 1030.69 846.016C1030.69 728.435 934.87 633.117 816.667 633.117C698.463 633.117 602.641 728.435 602.641 846.016C602.641 963.596 698.463 1058.91 816.667 1058.91Z" fill="#E45E47"/>
<path d="M902.664 819.429H843.394V760.471C843.394 753.42 840.578 746.657 835.565 741.672C830.553 736.686 823.755 733.885 816.666 733.885C809.578 733.885 802.779 736.686 797.767 741.672C792.755 746.657 789.939 753.42 789.939 760.471V819.429H730.669C723.58 819.429 716.782 822.23 711.77 827.216C706.757 832.202 703.941 838.964 703.941 846.016C703.941 853.067 706.757 859.829 711.77 864.815C716.782 869.801 723.58 872.602 730.669 872.602H789.939V931.56C789.939 938.611 792.755 945.374 797.767 950.36C802.779 955.345 809.578 958.147 816.666 958.147C823.755 958.147 830.553 955.345 835.565 950.36C840.578 945.374 843.394 938.611 843.394 931.56V872.602H902.664C909.752 872.602 916.55 869.801 921.563 864.815C926.575 859.829 929.391 853.067 929.391 846.016C929.391 838.964 926.575 832.202 921.563 827.216C916.55 822.23 909.752 819.429 902.664 819.429ZM1187.76 1218.12H445.573C440.614 1218.11 435.858 1216.15 432.351 1212.67C428.845 1209.18 426.874 1204.45 426.873 1199.51V1196.03C426.874 1191.09 428.845 1186.36 432.351 1182.87C435.858 1179.39 440.614 1177.43 445.573 1177.43H1187.76C1192.72 1177.43 1197.47 1179.39 1200.98 1182.87C1204.49 1186.36 1206.46 1191.09 1206.46 1196.03V1199.51C1206.46 1204.45 1204.49 1209.18 1200.98 1212.67C1197.47 1216.15 1192.72 1218.11 1187.76 1218.12V1218.12Z" fill="white"/>
<path d="M1187.76 1361.16H445.573C440.614 1361.16 435.858 1359.2 432.351 1355.71C428.845 1352.22 426.874 1347.49 426.873 1342.55V1339.07C426.874 1334.14 428.845 1329.4 432.351 1325.92C435.858 1322.43 440.614 1320.47 445.573 1320.47H1187.76C1192.72 1320.47 1197.47 1322.43 1200.98 1325.92C1204.49 1329.4 1206.46 1334.14 1206.46 1339.07V1342.55C1206.46 1347.49 1204.49 1352.22 1200.98 1355.71C1197.47 1359.2 1192.72 1361.16 1187.76 1361.16V1361.16Z" fill="#E45E47"/>
<path d="M1187.76 1504.2H445.573C440.614 1504.2 435.858 1502.24 432.351 1498.75C428.845 1495.26 426.874 1490.53 426.873 1485.6V1482.11C426.874 1477.18 428.845 1472.45 432.351 1468.96C435.858 1465.47 440.614 1463.51 445.573 1463.51H1187.76C1192.72 1463.51 1197.47 1465.47 1200.98 1468.96C1204.49 1472.45 1206.46 1477.18 1206.46 1482.11V1485.6C1206.46 1490.53 1204.49 1495.26 1200.98 1498.75C1197.47 1502.24 1192.72 1504.2 1187.76 1504.2V1504.2Z" fill="white"/>
<path d="M1187.76 1647.24H445.573C440.614 1647.24 435.858 1645.28 432.351 1641.79C428.845 1638.3 426.874 1633.57 426.873 1628.64V1625.15C426.874 1620.22 428.845 1615.49 432.351 1612C435.858 1608.51 440.614 1606.55 445.573 1606.55H1187.76C1192.72 1606.55 1197.47 1608.51 1200.98 1612C1204.49 1615.49 1206.46 1620.22 1206.46 1625.15V1628.64C1206.46 1633.57 1204.49 1638.3 1200.98 1641.79C1197.47 1645.28 1192.72 1647.24 1187.76 1647.24V1647.24Z" fill="#E45E47"/>
</g>
<g clip-path="url(#clip2_1_588)">
<path d="M379.065 2621.94C406.284 2644.93 434.428 2668.71 464.337 2694.65C470.379 2699.9 478.112 2702.78 486.111 2702.78C494.111 2702.78 501.844 2699.9 507.886 2694.65C537.791 2668.71 565.931 2644.93 593.146 2621.94C640.449 2581.98 681.299 2547.47 716.748 2514C785.571 2449 849.256 2375.23 849.256 2276.38C849.256 2220.19 829.986 2167.57 794.994 2128.21C758.118 2086.73 707.003 2063.89 651.06 2063.89C588.619 2063.89 534.496 2093.44 494.536 2149.35C491.611 2153.44 488.802 2157.62 486.111 2161.87C483.423 2157.62 480.614 2153.44 477.686 2149.35C437.727 2093.44 383.6 2063.89 321.163 2063.89C265.219 2063.89 214.105 2086.73 177.233 2128.21C142.241 2167.57 122.971 2220.19 122.971 2276.38C122.971 2337.44 146.644 2393.78 197.465 2453.7C241.808 2505.98 305.417 2559.72 379.065 2621.94V2621.94Z" fill="#E45E47"/>
<path d="M457.542 2488.18C456.387 2488.18 455.257 2487.85 454.289 2487.22C453.321 2486.59 452.557 2485.69 452.089 2484.63L365.852 2289.63L327.207 2377.04C326.74 2378.1 325.976 2379 325.008 2379.63C324.04 2380.26 322.91 2380.59 321.755 2380.59H103.18C101.599 2380.59 100.083 2379.97 98.9647 2378.85C97.8468 2377.73 97.2188 2376.21 97.2188 2374.63C97.2188 2373.05 97.8468 2371.53 98.9647 2370.41C100.083 2369.29 101.599 2368.66 103.18 2368.66H317.88L360.403 2272.48C360.87 2271.42 361.634 2270.52 362.602 2269.89C363.57 2269.26 364.7 2268.92 365.856 2268.92C367.011 2268.92 368.141 2269.26 369.109 2269.89C370.077 2270.52 370.841 2271.42 371.308 2272.48L457.55 2467.48L564.699 2225.29C565.167 2224.24 565.931 2223.34 566.898 2222.71C567.866 2222.08 568.995 2221.74 570.15 2221.74C571.304 2221.74 572.434 2222.08 573.401 2222.71C574.369 2223.34 575.133 2224.24 575.6 2225.29L638.975 2368.67H869.043C870.624 2368.67 872.141 2369.29 873.259 2370.41C874.377 2371.53 875.005 2373.05 875.005 2374.63C875.005 2376.21 874.377 2377.73 873.259 2378.85C872.141 2379.97 870.624 2380.6 869.043 2380.6H635.096C633.942 2380.6 632.811 2380.26 631.843 2379.63C630.875 2379 630.111 2378.1 629.644 2377.05L570.148 2242.45L462.998 2484.63C462.53 2485.69 461.765 2486.59 460.796 2487.22C459.827 2487.85 458.697 2488.18 457.542 2488.18V2488.18Z" fill="black"/>
</g>
<g clip-path="url(#clip3_1_588)">
<path d="M1102.78 2541.67V2702.78H1203.77C1247.71 2702.78 1283.33 2666.71 1283.33 2622.22C1283.33 2577.73 1247.71 2541.67 1203.77 2541.67H1102.78Z" fill="#E45E47"/>
<path d="M1102.78 2541.67V2702.78H1001.79C957.845 2702.78 922.223 2666.71 922.223 2622.22C922.223 2577.73 957.845 2541.67 1001.79 2541.67H1102.78Z" fill="#F5C845"/>
</g>
<g clip-path="url(#clip4_1_588)">
<path d="M209.693 1640.08L215.607 1656.06C216.124 1657.46 216.938 1658.73 217.992 1659.78C219.046 1660.84 220.316 1661.65 221.714 1662.17L237.693 1668.08C246.692 1671.41 246.692 1684.14 237.693 1687.47L221.714 1693.39C220.316 1693.9 219.046 1694.72 217.992 1695.77C216.938 1696.83 216.124 1698.1 215.607 1699.49L209.693 1715.47C206.363 1724.47 193.634 1724.47 190.304 1715.47L184.39 1699.49C183.873 1698.1 183.059 1696.83 182.005 1695.77C180.951 1694.72 179.681 1693.9 178.283 1693.39L162.304 1687.47C153.305 1684.14 153.305 1671.41 162.304 1668.08L178.283 1662.17C179.681 1661.65 180.951 1660.84 182.005 1659.78C183.059 1658.73 183.873 1657.46 184.39 1656.06L190.304 1640.08C193.634 1631.08 206.363 1631.08 209.693 1640.08V1640.08Z" fill="white"/>
</g>
<g clip-path="url(#clip5_1_588)">
<path d="M2086.11 1303.31V1578.73C2086.11 1839.03 1970.47 2082.7 1768.89 2247.16L1648.67 2345.39C1596.9 2387.77 1531.26 2411.11 1463.89 2411.11C1396.87 2411.11 1331.26 2387.81 1279.22 2345.5L1158.81 2247.16C957.267 2082.66 841.666 1839.03 841.666 1578.73V1303.31C841.618 1258.07 854.884 1213.82 879.808 1176.09C904.732 1138.36 940.209 1108.81 981.806 1091.15L1348.9 934.487C1386 918.98 1424.67 911.111 1463.89 911.111C1502.87 911.111 1542.51 919.135 1578.52 934.368L1946.24 1091.15C1987.77 1108.88 2023.17 1138.45 2048.04 1176.17C2072.91 1213.9 2086.15 1258.11 2086.11 1303.31Z" fill="#F5C845"/>
<path d="M1991.45 1303.26V1578.69C1991.46 1692.64 1966.12 1805.16 1917.29 1908.08C1868.45 2011.01 1797.34 2101.75 1709.11 2173.73L1588.84 2271.95C1552.59 2301.63 1508.23 2316.36 1463.88 2316.36C1418.37 2316.39 1374.23 2300.7 1338.92 2271.95L1218.65 2173.73C1130.42 2101.75 1059.31 2011.01 1010.48 1908.08C961.641 1805.16 936.308 1692.64 936.318 1578.69V1303.26C936.31 1276.63 944.13 1250.59 958.805 1228.38C973.479 1206.17 994.358 1188.77 1018.84 1178.36L1386.05 1021.65C1411 1011.19 1437.44 1005.85 1463.88 1005.85C1490.33 1005.85 1516.98 1011.19 1541.72 1021.65L1909.13 1178.36C1933.56 1188.82 1954.39 1206.23 1969.02 1228.43C1983.66 1250.64 1991.46 1276.66 1991.45 1303.26V1303.26Z" fill="#E45E47"/>
<path d="M1669.6 1566.24H1527.82V1424.29C1527.82 1388.94 1499.2 1360.28 1463.89 1360.28H1463.89C1428.58 1360.28 1399.95 1388.94 1399.95 1424.29V1566.24H1258.18C1222.87 1566.24 1194.25 1594.9 1194.25 1630.26C1194.25 1665.61 1222.87 1694.27 1258.18 1694.27H1399.95V1836.22C1399.95 1871.57 1428.58 1900.23 1463.89 1900.23H1463.89C1499.2 1900.23 1527.82 1871.57 1527.82 1836.22V1694.27H1669.6C1704.91 1694.27 1733.53 1665.61 1733.53 1630.26C1733.53 1594.9 1704.91 1566.24 1669.6 1566.24V1566.24Z" fill="white"/>
</g>
<g clip-path="url(#clip6_1_588)">
<path d="M1536.11 2541.67V2702.78H1637.1C1681.04 2702.78 1716.66 2666.71 1716.66 2622.22C1716.66 2577.73 1681.04 2541.67 1637.1 2541.67H1536.11Z" fill="#0C0C0C"/>
<path d="M1536.11 2541.67V2702.78H1435.12C1391.18 2702.78 1355.55 2666.71 1355.55 2622.22C1355.55 2577.73 1391.18 2541.67 1435.12 2541.67H1536.11Z" fill="#F5C845"/>
</g>
<g clip-path="url(#clip7_1_588)">
<path d="M2461.11 1336.11V1497.22H2562.1C2606.04 1497.22 2641.66 1461.16 2641.66 1416.67C2641.66 1372.18 2606.04 1336.11 2562.1 1336.11H2461.11Z" fill="#0C0C0C"/>
<path d="M2461.11 1336.11V1497.22H2360.12C2316.18 1497.22 2280.55 1461.16 2280.55 1416.67C2280.55 1372.18 2316.18 1336.11 2360.12 1336.11H2461.11Z" fill="#F5C845"/>
</g>
<g clip-path="url(#clip8_1_588)">
<path d="M2866.67 2385.01C2866.67 2389.61 2866.59 2394.19 2866.44 2398.75C2860.71 2569.18 2716.23 2702.78 2544.43 2702.78H2372.23C2200.43 2702.78 2055.96 2569.18 2050.23 2398.75C2050.08 2394.18 2050 2389.59 2050 2385.01C2050 2376.02 2050.26 2367.11 2050.87 2358.29C2060.98 2203.38 2158.83 2072.18 2295.73 2013.19V1814.19H2620.93V2013.19C2757.74 2072.17 2855.6 2203.3 2865.79 2358.2C2866.41 2367.11 2866.67 2376.02 2866.67 2385.01V2385.01Z" fill="#F5C845"/>
<path d="M2624.19 1661.11H2292.44C2249.86 1661.11 2215.33 1695.38 2215.33 1737.65C2215.33 1779.91 2249.85 1814.18 2292.44 1814.18H2624.19C2666.77 1814.18 2701.3 1779.92 2701.3 1737.65C2701.3 1695.38 2666.78 1661.11 2624.19 1661.11Z" fill="#E45E47"/>
<path d="M2866.67 2385.01C2866.67 2389.61 2866.59 2394.19 2866.44 2398.75C2860.71 2569.18 2716.23 2702.78 2544.43 2702.78H2372.23C2200.43 2702.78 2055.96 2569.18 2050.23 2398.75C2050.08 2394.18 2050 2389.59 2050 2385.01C2050 2376.02 2050.26 2367.11 2050.87 2358.29C2058.63 2361.66 2067.6 2363.74 2078.49 2363.74C2141.75 2363.74 2141.75 2294.03 2205.1 2294.03C2268.37 2294.03 2268.45 2363.74 2331.71 2363.74C2394.98 2363.74 2394.98 2294.03 2458.33 2294.03C2521.59 2294.03 2521.59 2363.74 2584.94 2363.74C2648.2 2363.74 2648.2 2294.03 2711.55 2294.03C2774.72 2294.03 2774.81 2363.74 2838.07 2363.74C2848.96 2363.74 2858.03 2361.66 2865.78 2358.2C2866.39 2367.13 2866.68 2376.07 2866.67 2385.01V2385.01Z" fill="#2724F2"/>
</g>
<defs>
<clipPath id="clip0_1_588">
<rect width="1202.78" height="902.778" fill="white" transform="translate(1644.45 272.222)"/>
</clipPath>
<clipPath id="clip1_1_588">
<rect width="1077.78" height="1625" fill="white" transform="translate(277.777 272.222)"/>
</clipPath>
<clipPath id="clip2_1_588">
<rect width="777.778" height="638.889" fill="white" transform="translate(97.2227 2063.89)"/>
</clipPath>
<clipPath id="clip3_1_588">
<rect width="361.111" height="161.111" fill="white" transform="translate(922.223 2541.67)"/>
</clipPath>
<clipPath id="clip4_1_588">
<rect width="88.8889" height="88.8889" fill="white" transform="translate(155.555 1633.33)"/>
</clipPath>
<clipPath id="clip5_1_588">
<rect width="1244.44" height="1500" fill="white" transform="translate(841.666 911.111)"/>
</clipPath>
<clipPath id="clip6_1_588">
<rect width="361.111" height="161.111" fill="white" transform="translate(1355.55 2541.67)"/>
</clipPath>
<clipPath id="clip7_1_588">
<rect width="361.111" height="161.111" fill="white" transform="translate(2280.55 1336.11)"/>
</clipPath>
<clipPath id="clip8_1_588">
<rect width="816.667" height="1041.67" fill="white" transform="translate(2050 1661.11)"/>
</clipPath>
</defs>
</svg>
