<svg width="196" height="161" viewBox="0 0 196 161" fill="none" xmlns="http://www.w3.org/2000/svg">
<g clip-path="url(#clip0_1_1935)">
<path d="M71.028 140.574C77.8871 146.363 84.9795 152.349 92.5166 158.881C94.0909 160.245 96.0468 160.928 98.0036 160.928C99.9595 160.928 101.916 160.245 103.491 158.881C111.027 152.35 118.118 146.364 124.976 140.576C136.897 130.515 147.191 121.826 156.124 113.398C173.468 97.0338 189.516 78.4605 189.516 53.5719C189.516 39.4252 184.66 26.1767 175.842 16.2661C166.549 5.82378 153.668 0.0723267 139.571 0.0723267C123.836 0.0723267 110.197 7.51226 100.127 21.5879C99.3717 22.6435 98.6646 23.699 98.0036 24.7426C97.3427 23.698 96.6356 22.6425 95.8805 21.5879C85.8107 7.51226 72.1707 0.0723267 56.4366 0.0723267C42.3389 0.0723267 29.4579 5.82378 20.1663 16.2661C11.3483 26.1767 6.49219 39.4252 6.49219 53.5719C6.49219 68.9455 12.458 83.1314 25.2648 98.2175C36.4392 111.379 52.4687 124.909 71.028 140.574V140.574Z" fill="#E45E47"/>
<path d="M90.8014 106.898C90.2065 106.898 89.6688 106.548 89.4274 106.004L67.6955 56.9078L57.9572 78.9162C57.7168 79.46 57.178 79.8105 56.5831 79.8105H1.50221C0.671987 79.8105 0 79.1375 0 78.3083C0 77.4791 0.671987 76.8061 1.50221 76.8061H55.6067L66.3224 52.5895C66.5628 52.0457 67.1016 51.6952 67.6965 51.6952C68.2903 51.6952 68.8291 52.0457 69.0705 52.5895L90.8034 101.687L117.805 40.71C118.045 40.1662 118.584 39.8157 119.179 39.8157C119.773 39.8157 120.312 40.1662 120.552 40.71L136.523 76.8071H194.5C195.33 76.8071 196.002 77.4801 196.002 78.3093C196.002 79.1385 195.33 79.8115 194.5 79.8115H135.545C134.95 79.8115 134.413 79.461 134.171 78.9172L119.178 45.0294L92.1764 106.005C91.9351 106.549 91.3963 106.898 90.8014 106.898V106.898Z" fill="black"/>
</g>
<defs>
<clipPath id="clip0_1_1935">
<rect width="196" height="161" fill="white"/>
</clipPath>
</defs>
</svg>
