<svg width="438" height="424" viewBox="0 0 438 424" fill="none" xmlns="http://www.w3.org/2000/svg">
<g clip-path="url(#clip0_1_2117)">
<path d="M319.388 0.291138C296.398 0.291138 277.774 18.9159 277.774 41.9055V382.096C277.774 405.085 259.149 423.71 236.159 423.71H0C22.9895 423.71 41.6143 405.085 41.6143 382.096V41.9055C41.6143 18.9159 60.2491 0.291138 83.2276 0.291138L319.388 0.291138Z" fill="#E45E47"/>
<path d="M221.592 335.94H176.508V397.299L199.05 384.289L221.592 397.299V335.94Z" fill="white"/>
<path d="M208.305 278.834C209.748 285.228 217.087 288.268 222.63 284.768C231.182 279.368 241.122 289.308 235.722 297.86C232.222 303.403 235.262 310.741 241.656 312.185C251.522 314.414 251.522 328.472 241.656 330.7C235.262 332.144 232.222 339.483 235.722 345.025C241.122 353.578 231.182 363.518 222.63 358.117C217.087 354.617 209.748 357.657 208.305 364.051C206.076 373.917 192.018 373.917 189.79 364.051C188.346 357.657 181.007 354.617 175.465 358.117C166.912 363.518 156.972 353.578 162.373 345.025C165.873 339.483 162.833 332.145 156.439 330.7C146.573 328.472 146.573 314.414 156.439 312.185C162.833 310.741 165.873 303.403 162.373 297.86C156.972 289.308 166.912 279.368 175.465 284.768C181.007 288.268 188.345 285.228 189.79 278.834C192.018 268.968 206.076 268.968 208.305 278.834Z" fill="black"/>
<path d="M199.046 345.004C212.059 345.004 222.608 334.455 222.608 321.442C222.608 308.429 212.059 297.88 199.046 297.88C186.033 297.88 175.484 308.429 175.484 321.442C175.484 334.455 186.033 345.004 199.046 345.004Z" fill="#F5C845"/>
<path d="M438.003 140.384C423.826 140.384 412.341 151.868 412.341 166.055V299.415C412.341 313.602 400.857 325.087 386.671 325.087C372.484 325.087 361 313.602 361 299.426V140.384H438.003Z" fill="#E45E47"/>
<path d="M386.672 325.085H277.773V41.9055C277.772 18.9159 296.397 0.291138 319.387 0.291138C342.376 0.291138 361.001 18.9159 361.001 41.9055V299.424C361.001 313.6 372.485 325.085 386.672 325.085Z" fill="black"/>
<path d="M80.2812 83.1795C80.2812 75.6708 86.3681 69.5849 93.8759 69.5849H225.515C233.024 69.5849 239.11 75.6718 239.11 83.1795C239.11 90.6883 233.023 96.7741 225.515 96.7741H93.8759C86.3671 96.7751 80.2812 90.6883 80.2812 83.1795Z" fill="black"/>
<path d="M80.2812 132.434H239.111V138.591H80.2812V132.434Z" fill="black"/>
<path d="M80.2812 163.733H239.111V169.89H80.2812V163.733Z" fill="black"/>
<path d="M80.2812 195.032H239.111V201.189H80.2812V195.032Z" fill="black"/>
<path d="M80.2812 226.332H239.111V232.489H80.2812V226.332Z" fill="black"/>
<path d="M80.2812 257.631H159.695V263.788H80.2812V257.631Z" fill="black"/>
<path d="M80.2812 288.931H128.147V295.088H80.2812V288.931Z" fill="black"/>
</g>
<defs>
<clipPath id="clip0_1_2117">
<rect width="438" height="424" fill="white"/>
</clipPath>
</defs>
</svg>
