<svg width="232" height="274" viewBox="0 0 232 274" fill="none" xmlns="http://www.w3.org/2000/svg">
<g clip-path="url(#clip0_1_1401)">
<path d="M190.117 210.908H41.8402C41.8402 210.908 35.9086 170.264 77.8741 146.339C119.851 122.412 106.42 94.288 106.42 94.288L92.8052 100.277C90.7089 101.199 88.4426 101.676 86.1522 101.676H78.5035C75.8749 101.676 73.2743 102.215 70.8639 103.26L52.6058 111.179C44.6539 114.627 35.3253 113.244 28.9624 107.358C24.0104 102.777 19.8859 96.3073 21.3198 87.9472C22.2213 82.692 25.2622 78.0432 29.4737 74.7732L54.0957 55.6546C56.226 54.0006 58.0731 52.0103 59.565 49.763L68.2473 36.68C71.1891 32.2463 75.5197 28.9153 80.5578 27.2063L94.112 22.6105L85.3387 0.171844C85.3387 0.171844 108.754 0.660142 118.507 17.2442C118.507 17.2442 166.315 13.3459 189.729 74.8152C213.144 136.275 190.117 210.908 190.117 210.908V210.908Z" fill="#E45E47"/>
<path d="M210.055 232.849V242.368H21.9375V232.849C21.9375 220.724 31.7775 210.908 43.8788 210.908H188.114C200.215 210.908 210.055 220.724 210.055 232.849Z" fill="white"/>
<path d="M232 264.309V273.828H0V264.309C0 252.184 9.83998 242.368 21.9413 242.368H210.059C222.16 242.368 232 252.184 232 264.309V264.309Z" fill="black"/>
</g>
<defs>
<clipPath id="clip0_1_1401">
<rect width="232" height="274" fill="white"/>
</clipPath>
</defs>
</svg>
