<svg width="202" height="340" viewBox="0 0 202 340" fill="none" xmlns="http://www.w3.org/2000/svg">
<g clip-path="url(#clip0_1_1969)">
<path d="M192.773 21.2143L157.838 110.417H44.17L9.23657 21.2143C5.23553 11.0221 12.7646 0 23.7057 0H178.304C189.245 0 196.774 11.0221 192.773 21.2143Z" fill="#F5C845"/>
<path d="M201.509 312.55C201.509 313.26 201.479 313.97 201.429 314.66C201.379 315.35 201.289 316.05 201.199 316.73C201.089 317.4 200.959 318.07 200.799 318.73C200.649 319.39 200.469 320.05 200.269 320.7C199.999 321.57 199.679 322.4 199.349 323.22C199.009 324.06 198.619 324.84 198.199 325.63V325.64C198.029 325.95 197.839 326.26 197.649 326.57C197.469 326.86 197.289 327.16 197.099 327.45C197.019 327.59 196.929 327.74 196.829 327.88C196.729 328.03 196.629 328.18 196.509 328.33C196.289 328.65 196.049 328.97 195.819 329.28C195.579 329.59 195.319 329.9 195.079 330.2C194.569 330.79 194.019 331.38 193.459 331.95C193.209 332.19 192.959 332.44 192.719 332.66C192.559 332.81 192.399 332.95 192.229 333.1C191.659 333.61 191.059 334.08 190.469 334.53C189.759 335.06 189.029 335.55 188.289 336.01C187.509 336.48 186.709 336.91 185.869 337.31C185.499 337.49 185.119 337.66 184.729 337.82L184.719 337.83C184.309 338 183.899 338.16 183.479 338.31C183.089 338.46 182.689 338.6 182.299 338.72C182.239 338.74 182.189 338.75 182.149 338.77C181.729 338.9 181.319 339.02 180.909 339.12C180.899 339.12 180.889 339.13 180.889 339.13C180.449 339.24 180.009 339.34 179.569 339.43C178.689 339.63 177.769 339.76 176.849 339.85C175.919 339.95 174.979 340 174.029 340H27.9569C27.0069 340 26.0669 339.95 25.1469 339.85C24.2268 339.76 23.3168 339.63 22.4268 339.43C21.0968 339.17 19.7868 338.79 18.5268 338.32C18.1068 338.16 17.6868 338 17.2768 337.83C16.8668 337.66 16.4568 337.47 16.0667 337.28C15.6567 337.08 15.2767 336.88 14.8767 336.68C14.0967 336.25 13.3267 335.79 12.6067 335.3C11.8767 334.81 11.1667 334.29 10.4967 333.72C9.45667 332.86 8.46666 331.92 7.56665 330.91C7.28664 330.61 7.02664 330.3 6.77664 329.99C6.50663 329.67 6.24663 329.34 5.99663 329.01C5.95663 328.98 5.93663 328.95 5.91663 328.9C5.65662 328.57 5.41662 328.23 5.17662 327.88C4.94662 327.53 4.70661 327.16 4.47661 326.79C4.47661 326.78 4.47661 326.78 4.46661 326.77C4.23661 326.4 4.0166 326.01 3.8066 325.62C3.5866 325.23 3.3866 324.84 3.19659 324.43C2.61659 323.24 2.12658 322.02 1.73658 320.74C1.70658 320.68 1.69658 320.63 1.68658 320.59C1.56658 320.2 1.46657 319.83 1.35657 319.44C1.34657 319.37 1.32657 319.3 1.30657 319.23C1.22657 318.93 1.16657 318.62 1.08657 318.32C1.05657 318.15 1.01657 317.97 0.986569 317.79C0.916568 317.46 0.866567 317.13 0.816567 316.8C0.806566 316.76 0.806566 316.72 0.806566 316.69C0.766566 316.56 0.756566 316.44 0.736566 316.31C0.696565 316 0.656565 315.7 0.616564 315.39V315.35C0.576564 314.88 0.546563 314.42 0.516563 313.95C0.486563 313.48 0.476562 313.01 0.476562 312.55C0.476562 311.96 0.496563 311.37 0.536563 310.78C0.576564 310.16 0.646565 309.54 0.726565 308.94C0.756566 308.65 0.806566 308.37 0.856567 308.08C0.996569 307.23 1.17657 306.38 1.38657 305.55L2.38659 302.32L14.9667 268.359L21.7468 250.029L40.757 198.698L161.128 198.388L179.349 247.589L187.039 268.359L199.609 302.35L200.579 305.55C200.919 306.76 201.169 308.02 201.299 309.31C201.329 309.44 201.349 309.58 201.359 309.72C201.409 310.11 201.439 310.52 201.459 310.92C201.499 311.47 201.509 312 201.509 312.55V312.55Z" fill="#F5C845"/>
<path d="M167.673 198.365L34.2275 198.72C31.4414 198.727 29.4864 195.978 30.4074 193.349L43.3906 156.288L43.4076 156.271L43.2906 156.053L43.2736 156.003V155.986L30.2304 115.699C29.3864 113.092 31.3304 110.419 34.0705 110.419H167.932C170.673 110.419 172.617 113.093 171.772 115.7L158.714 155.985H158.496L158.597 156.27L171.471 192.992C172.391 195.613 170.45 198.357 167.673 198.365V198.365Z" fill="#E45E47"/>
<path d="M158.71 155.986V156.003L158.592 156.271L158.492 155.986H158.71Z" fill="#E45E47"/>
<path d="M129.736 154.563C129.736 158.727 128.858 162.668 127.259 166.2C124.199 173.136 118.481 178.604 111.368 181.306C108.175 182.634 104.681 183.309 100.991 183.309C97.3206 183.309 93.8266 182.634 90.6336 181.306C83.5206 178.604 77.8036 173.136 74.7426 166.2C73.1436 162.668 72.2656 158.727 72.2656 154.563C72.2656 142.36 79.8726 131.94 90.6336 127.817C93.8276 126.511 97.3206 125.838 100.991 125.838C104.68 125.838 108.174 126.511 111.368 127.817C122.129 131.939 129.736 142.36 129.736 154.563V154.563Z" fill="black"/>
<path d="M43.3731 156.288L43.2891 156.053L43.4061 156.271L43.3901 156.288H43.3731Z" fill="#F5C845"/>
<path d="M173.486 198.735L173.352 198.35L173.503 198.735H173.486Z" fill="#F5C845"/>
<path d="M113.794 154.575C113.794 156.42 113.402 158.172 112.687 159.752C111.326 162.842 108.779 165.275 105.62 166.474C104.19 167.062 102.634 167.362 100.997 167.362C99.3599 167.362 97.8029 167.062 96.3849 166.474C93.2139 165.275 90.6779 162.842 89.3179 159.752C88.6029 158.173 88.2109 156.42 88.2109 154.575C88.2109 149.133 91.6009 144.498 96.3849 142.665C97.8029 142.089 99.3599 141.789 100.997 141.789C102.634 141.789 104.191 142.089 105.62 142.665C110.404 144.498 113.794 149.133 113.794 154.575V154.575Z" fill="white"/>
<path d="M82.8359 0.00500488C82.8359 10.034 90.9639 18.165 100.994 18.165C111.022 18.165 119.152 10.033 119.152 0.00500488H82.8359V0.00500488Z" fill="black"/>
<path d="M201.523 312.545C201.523 313.26 201.491 313.965 201.437 314.659C201.384 315.353 201.309 316.047 201.202 316.731C201.095 317.404 200.967 318.076 200.817 318.739C200.668 319.401 200.486 320.063 200.283 320.714C200.016 321.568 199.717 322.401 199.365 323.224C199.023 324.046 198.639 324.836 198.201 325.627V325.638C198.03 325.948 197.849 326.257 197.656 326.567C197.475 326.866 197.293 327.165 197.101 327.453C197.026 327.592 196.93 327.741 196.834 327.88C196.738 328.03 196.631 328.179 196.514 328.329C196.29 328.649 196.055 328.97 195.82 329.279C195.585 329.589 195.329 329.898 195.083 330.197C194.581 330.806 194.047 331.382 193.481 331.938C193.47 331.949 193.47 331.949 193.46 331.949C193.214 332.195 192.969 332.44 192.723 332.664C192.563 332.814 192.403 332.952 192.232 333.102C191.666 333.615 191.068 334.084 190.47 334.533C189.765 335.067 189.039 335.548 188.292 336.007C187.513 336.477 186.712 336.915 185.879 337.31C185.505 337.491 185.121 337.662 184.736 337.823L184.725 337.834C184.319 338.005 183.903 338.165 183.486 338.314C183.091 338.464 182.696 338.602 182.301 338.72C182.248 338.741 182.194 338.752 182.151 338.773C181.735 338.901 181.329 339.019 180.912 339.125C180.901 339.125 180.891 339.136 180.891 339.136C180.453 339.243 180.014 339.339 179.577 339.435C178.68 339.616 177.772 339.755 176.854 339.851C175.925 339.936 174.996 339.99 174.046 339.99H27.9637C27.0127 339.99 26.0847 339.937 25.1547 339.851C24.2367 339.755 23.3286 339.616 22.4316 339.435C21.0966 339.157 19.7936 338.784 18.5336 338.324C18.1066 338.164 17.6896 338.004 17.2846 337.833C16.8676 337.662 16.4626 337.47 16.0676 337.278C15.6616 337.086 15.2775 336.883 14.8825 336.68C14.1025 336.253 13.3345 335.794 12.6075 335.303C11.8815 334.801 11.1765 334.278 10.5035 333.723C9.45748 332.858 8.47447 331.918 7.56646 330.915C7.28846 330.616 7.03245 330.306 6.77645 329.997C6.50945 329.677 6.25344 329.346 5.99644 329.015C5.96444 328.983 5.94344 328.951 5.92144 328.908C5.66544 328.577 5.41943 328.235 5.18443 327.883C4.94943 327.531 4.71442 327.168 4.47942 326.794C4.47942 326.783 4.47942 326.783 4.46842 326.773C4.24442 326.399 4.01942 326.015 3.80641 325.62C3.59241 325.235 3.39041 324.841 3.19741 324.435C2.6314 323.25 2.12939 322.011 1.73439 320.74C1.71339 320.687 1.70239 320.633 1.69139 320.59C1.57439 320.206 1.46739 319.832 1.36039 319.447C1.34939 319.372 1.32838 319.308 1.30738 319.233C1.23238 318.934 1.16838 318.624 1.09338 318.325C1.06138 318.154 1.01838 317.973 0.986381 317.791C0.92238 317.46 0.86838 317.129 0.815379 316.798C0.804379 316.766 0.804379 316.723 0.804379 316.691C0.783379 316.563 0.761378 316.445 0.751378 316.317C0.698378 316.007 0.665377 315.698 0.623377 315.388V315.356C0.580376 314.886 0.548376 314.427 0.516375 313.957C0.495375 313.487 0.484375 313.017 0.484375 312.548C0.484375 311.961 0.505375 311.373 0.537376 310.786C0.580376 310.167 0.644377 309.547 0.729378 308.939C0.761378 308.651 0.804379 308.373 0.857379 308.085C0.996381 307.231 1.17738 306.387 1.40239 305.554L2.3954 302.318L14.9645 268.36L21.7456 250.036C26.4447 254.841 30.0427 260.875 39.0878 260.885C54.113 260.874 54.123 244.195 69.1482 244.195C84.1834 244.195 84.1834 260.885 99.1975 260.885C114.233 260.874 114.223 244.195 129.247 244.195C144.282 244.195 144.282 260.875 159.318 260.875C169.986 260.875 173.072 252.471 179.351 247.591L187.04 268.361H187.051L199.63 302.341L200.602 305.555C200.933 306.762 201.168 308.022 201.317 309.314C201.338 309.453 201.349 309.581 201.36 309.72C201.413 310.115 201.446 310.521 201.467 310.927C201.512 311.467 201.523 312.001 201.523 312.545V312.545Z" fill="#2724F2"/>
</g>
<defs>
<clipPath id="clip0_1_1969">
<rect width="202" height="340" fill="white"/>
</clipPath>
</defs>
</svg>
