<svg width="806" height="419" viewBox="0 0 806 419" fill="none" xmlns="http://www.w3.org/2000/svg">
<g clip-path="url(#clip0_1_2131)">
<path d="M802.488 418.789H689.128C686.738 418.789 685.049 416.477 685.796 414.23L712.066 335.27C712.514 333.922 711.5 332.534 710.066 332.534H701.225C698.836 332.534 697.146 330.221 697.892 327.974L726.087 243.229C726.535 241.881 725.521 240.493 724.087 240.493H718.114C715.724 240.493 714.034 238.18 714.782 235.933L742.473 152.713C743.532 149.53 748.078 149.53 749.137 152.713L776.828 235.933C777.576 238.18 775.885 240.493 773.496 240.493H767.524C766.091 240.493 765.076 241.881 765.524 243.229L793.719 327.974C794.467 330.221 792.777 332.534 790.387 332.534H781.547C780.114 332.534 779.099 333.922 779.547 335.27L805.817 414.23C806.568 416.477 804.877 418.789 802.488 418.789V418.789Z" fill="#F5C845"/>
<path d="M735.779 418.789H587.946C584.829 418.789 582.626 415.773 583.6 412.843L617.86 309.871C618.444 308.112 617.122 306.303 615.253 306.303H603.723C600.608 306.303 598.403 303.287 599.378 300.356L636.147 189.84C636.732 188.082 635.41 186.273 633.54 186.273H625.751C622.634 186.273 620.431 183.256 621.405 180.326L657.517 71.7975C658.898 67.6482 664.827 67.6482 666.208 71.7975L702.32 180.326C703.295 183.256 701.091 186.273 697.974 186.273H690.185C688.316 186.273 686.993 188.083 687.578 189.84L724.347 300.356C725.322 303.287 723.117 306.303 720.002 306.303H708.473C706.603 306.303 705.28 308.113 705.866 309.871L740.125 412.843C741.1 415.773 738.895 418.789 735.779 418.789V418.789Z" fill="#2724F2"/>
<path d="M187.891 418.789H5.41997C1.73204 418.789 -0.878035 415.183 0.275883 411.68L40.8271 288.567C41.5197 286.465 39.9534 284.301 37.7407 284.301H24.0958C20.4079 284.301 17.7978 280.695 18.9517 277.192L62.4744 145.059C63.1669 142.957 61.6007 140.793 59.3879 140.793H50.1686C46.4806 140.793 43.8706 137.186 45.0245 133.684L87.7695 3.92751C89.4038 -1.03344 96.4223 -1.03444 98.0566 3.92751L140.802 133.683C141.956 137.185 139.346 140.792 135.658 140.792H126.438C124.225 140.792 122.659 142.956 123.352 145.058L166.874 277.191C168.028 280.694 165.419 284.301 161.73 284.301H148.083C145.871 284.301 144.304 286.464 144.997 288.566L187.891 418.789Z" fill="#E45E47"/>
<path d="M386.998 196.629V418.792H117.414V209.088C117.414 201.133 120.681 193.528 126.449 188.052L252.2 68.682L386.998 196.629Z" fill="#F5C845"/>
<path d="M386.992 196.63H651.997V418.794H386.992V196.63Z" fill="#E45E47"/>
<path d="M652.001 196.628H386.99L385.799 195.497L252.203 68.676L517.194 68.686L652.001 196.628Z" fill="black"/>
<path d="M252.209 196.629C268.021 196.629 280.84 183.81 280.84 167.998C280.84 152.186 268.021 139.367 252.209 139.367C236.397 139.367 223.578 152.186 223.578 167.998C223.578 183.81 236.397 196.629 252.209 196.629Z" fill="white"/>
<path d="M594.937 342.507V418.793H444.055V342.507C444.055 337.173 448.379 332.849 453.712 332.849H585.279C590.613 332.849 594.937 337.174 594.937 342.507Z" fill="black"/>
<path d="M220.848 296.287H171.763C167.894 296.287 164.758 293.151 164.758 289.281V240.196C164.758 236.327 167.894 233.191 171.763 233.191H220.848C224.718 233.191 227.854 236.327 227.854 240.196V289.281C227.854 293.151 224.718 296.287 220.848 296.287Z" fill="#E45E47"/>
<path d="M500.145 296.287H451.06C447.191 296.287 444.055 293.151 444.055 289.281V240.196C444.055 236.327 447.191 233.191 451.06 233.191H500.145C504.014 233.191 507.151 236.327 507.151 240.196V289.281C507.151 293.151 504.014 296.287 500.145 296.287Z" fill="black"/>
<path d="M587.934 296.287H538.849C534.98 296.287 531.844 293.151 531.844 289.281V240.196C531.844 236.327 534.98 233.191 538.849 233.191H587.934C591.803 233.191 594.94 236.327 594.94 240.196V289.281C594.94 293.151 591.803 296.287 587.934 296.287Z" fill="#F5C845"/>
<path d="M333.864 296.287H284.779C280.91 296.287 277.773 293.151 277.773 289.281V240.196C277.773 236.327 280.91 233.191 284.779 233.191H333.864C337.733 233.191 340.87 236.327 340.87 240.196V289.281C340.87 293.151 337.733 296.287 333.864 296.287Z" fill="black"/>
<path d="M227.854 418.793H164.758V339.855C164.758 335.986 167.894 332.849 171.763 332.849H220.848C224.718 332.849 227.854 335.986 227.854 339.855V418.793Z" fill="black"/>
<path d="M340.87 418.793H277.773V339.855C277.773 335.986 280.91 332.849 284.779 332.849H333.864C337.733 332.849 340.87 335.986 340.87 339.855V418.793Z" fill="#2724F2"/>
<path d="M298.827 68.673V112.935L294.688 109.003V68.673H298.827Z" fill="white"/>
<path d="M338.217 68.673V150.326L334.078 146.394V68.673H338.217Z" fill="white"/>
<path d="M377.608 68.673V187.717L373.469 183.798V68.673H377.608Z" fill="white"/>
<path d="M412.859 68.673H416.999V196.629H412.859V68.673Z" fill="white"/>
<path d="M452.25 68.673H456.389V196.629H452.25V68.673Z" fill="white"/>
<path d="M491.633 68.676H495.766V196.628H491.633V68.676Z" fill="white"/>
<path d="M535.157 85.7396V196.628H531.023V81.8165L535.157 85.7396Z" fill="white"/>
<path d="M574.547 123.119V196.628H570.414V119.196L574.547 123.119Z" fill="white"/>
<path d="M613.938 160.509V196.628H609.805V156.586L613.938 160.509Z" fill="white"/>
</g>
<defs>
<clipPath id="clip0_1_2131">
<rect width="806" height="419" fill="white"/>
</clipPath>
</defs>
</svg>
