<svg width="93" height="93" viewBox="0 0 93 93" fill="none" xmlns="http://www.w3.org/2000/svg">
<g clip-path="url(#clip0_1_2242)">
<path d="M77.8926 93H15.1074C6.76408 93 0 86.2359 0 77.8926V15.1074C0 6.76408 6.76408 0 15.1074 0H77.8926C86.2359 0 93 6.76408 93 15.1074V77.8926C93 86.2359 86.2359 93 77.8926 93Z" fill="#E45E47"/>
<path d="M46.5006 42.9674C53.5598 42.9674 59.2824 37.2448 59.2824 30.1855C59.2824 23.1263 53.5598 17.4037 46.5006 17.4037C39.4414 17.4037 33.7188 23.1263 33.7188 30.1855C33.7188 37.2448 39.4414 42.9674 46.5006 42.9674Z" fill="white"/>
<path d="M29.7047 75.5953C23.5349 75.5953 19.5425 69.1052 22.289 63.5809C26.7115 54.6837 35.8937 48.5702 46.5031 48.5702C57.1125 48.5702 66.2948 54.6837 70.7172 63.5809C73.4638 69.1052 69.4714 75.5953 63.3015 75.5953H29.7047Z" fill="white"/>
</g>
<defs>
<clipPath id="clip0_1_2242">
<rect width="93" height="93" fill="white"/>
</clipPath>
</defs>
</svg>
