<svg width="202" height="114" viewBox="0 0 202 114" fill="none" xmlns="http://www.w3.org/2000/svg">
<g clip-path="url(#clip0_1_2295)">
<path d="M6.73887 108.513C5.90738 108.513 5.23438 107.839 5.23438 107.008V61.3299C5.23438 49.4394 14.9083 39.7655 26.7987 39.7655H113.225C114.056 39.7655 114.729 40.4396 114.729 41.27C114.729 42.1005 114.056 42.7745 113.225 42.7745H26.7987C16.5672 42.7745 8.24336 51.0984 8.24336 61.3299V107.008C8.24336 107.839 7.57035 108.513 6.73887 108.513V108.513Z" fill="black"/>
<path d="M202.004 11.8372V70.6929C202.004 77.102 196.818 82.2875 190.409 82.2875H131.553C125.154 82.2875 119.969 77.102 119.969 70.6929V11.8372C119.969 5.43809 125.154 0.252609 131.553 0.252609H190.409C196.818 0.252609 202.004 5.43809 202.004 11.8372V11.8372Z" fill="#E45E47"/>
<path d="M164.893 53.31L160.974 66.5836L157.063 53.31L146.097 61.7462L150.735 48.7062L136.906 49.0964L148.324 41.268L136.906 33.4477L150.735 33.8288L146.097 20.7899L157.063 29.2341L160.974 15.9605L164.893 29.2341L175.86 20.7899L171.213 33.8288L185.05 33.4477L173.632 41.268L185.05 49.0964L171.213 48.7062L175.86 61.7462L164.893 53.31Z" fill="white"/>
<path d="M113.223 48.0112C116.945 48.0112 119.963 44.994 119.963 41.272C119.963 37.5501 116.945 34.5329 113.223 34.5329C109.502 34.5329 106.484 37.5501 106.484 41.272C106.484 44.994 109.502 48.0112 113.223 48.0112Z" fill="black"/>
<path d="M6.73912 113.747C10.461 113.747 13.4782 110.73 13.4782 107.008C13.4782 103.286 10.461 100.269 6.73912 100.269C3.01721 100.269 0 103.286 0 107.008C0 110.73 3.01721 113.747 6.73912 113.747Z" fill="black"/>
</g>
<defs>
<clipPath id="clip0_1_2295">
<rect width="202" height="114" fill="white"/>
</clipPath>
</defs>
</svg>
