<svg width="117" height="117" viewBox="0 0 117 117" fill="none" xmlns="http://www.w3.org/2000/svg">
<g clip-path="url(#clip0_1_2247)">
<path d="M58.5005 117.001C90.8094 117.001 117.001 90.8094 117.001 58.5005C117.001 26.1916 90.8094 0 58.5005 0C26.1916 0 0 26.1916 0 58.5005C0 90.8094 26.1916 117.001 58.5005 117.001Z" fill="#F5C845"/>
<path d="M74.6851 38.8472C72.7053 38.8472 71.1016 40.4519 71.1016 42.4307C71.1016 44.4105 72.7063 46.0153 74.6851 46.0153C76.6649 46.0153 78.2697 44.4105 78.2697 42.4307C78.2697 40.4519 76.6649 38.8472 74.6851 38.8472V38.8472Z" fill="white"/>
<path d="M58.7525 43.4433C50.4502 43.4433 43.6953 50.1972 43.6953 58.4995C43.6953 66.8018 50.4502 73.5557 58.7525 73.5557C67.0539 73.5557 73.8088 66.8008 73.8088 58.4995C73.8088 50.1982 67.0549 43.4433 58.7525 43.4433V43.4433ZM58.7525 68.1452C53.4335 68.1452 49.1079 63.8185 49.1079 58.5005C49.1079 53.1825 53.4345 48.8558 58.7525 48.8558C64.0706 48.8558 68.3972 53.1825 68.3972 58.5005C68.3972 63.8185 64.0706 68.1452 58.7525 68.1452V68.1452Z" fill="white"/>
<path d="M70.7033 89.0695H46.294C36.1677 89.0695 27.9297 80.8315 27.9297 70.7052V46.2948C27.9297 36.1685 36.1677 27.9305 46.294 27.9305H70.7033C80.8296 27.9305 89.0686 36.1685 89.0686 46.2948V70.7052C89.0686 80.8315 80.8296 89.0695 70.7033 89.0695ZM46.294 33.683C39.339 33.683 33.6811 39.3399 33.6811 46.2948V70.7052C33.6811 77.6601 39.339 83.318 46.294 83.318H70.7033C77.6583 83.318 83.3162 77.6601 83.3162 70.7052V46.2948C83.3162 39.3399 77.6583 33.683 70.7033 33.683H46.294Z" fill="white"/>
</g>
<defs>
<clipPath id="clip0_1_2247">
<rect width="117" height="117" fill="white"/>
</clipPath>
</defs>
</svg>
