<svg width="452" height="464" viewBox="0 0 452 464" fill="none" xmlns="http://www.w3.org/2000/svg">
<g clip-path="url(#clip0_1_1468)">
<path d="M392.471 287.053C395.864 287.053 398.614 284.303 398.614 280.91C398.614 277.517 395.864 274.767 392.471 274.767C389.078 274.767 386.328 277.517 386.328 280.91C386.328 284.303 389.078 287.053 392.471 287.053Z" fill="black"/>
<path d="M160.749 274.767H15.3411C7.05425 274.767 0.335938 268.048 0.335938 259.762V20.9252C0.335938 12.6384 7.05425 5.92004 15.3411 5.92004H160.749C169.036 5.92004 175.754 12.6384 175.754 20.9252V259.762C175.754 268.048 169.036 274.767 160.749 274.767Z" fill="#E45E47"/>
<path d="M156.149 74.4737L142.011 88.5985C139.345 91.2615 135.026 91.2605 132.361 88.5965L128.177 84.4131V167.553C128.177 171.535 124.949 174.763 120.967 174.763H55.1211C51.1388 174.763 47.9107 171.535 47.9107 167.553V84.4131L43.7272 88.5965C41.0623 91.2615 36.7428 91.2625 34.0769 88.5985L19.939 74.4737C17.2541 71.7917 17.2731 67.4352 19.98 64.7753L41.8746 43.2709C45.7429 39.4716 50.9487 37.3419 56.3716 37.3419H119.717C125.14 37.3419 130.346 39.4706 134.214 43.2709L156.109 64.7753C158.815 67.4352 158.833 71.7917 156.149 74.4737V74.4737Z" fill="#F5C845"/>
<path d="M72.0312 37.3429C72.0312 46.1839 79.1977 53.3504 88.0388 53.3504C96.8798 53.3504 104.046 46.1839 104.046 37.3429H72.0312Z" fill="#FFFDFF"/>
<path d="M132.118 243.344H43.9625C33.99 243.344 25.9062 235.26 25.9062 225.288V223.968C25.9062 213.996 33.99 205.912 43.9625 205.912H132.118C142.09 205.912 150.174 213.996 150.174 223.968V225.288C150.175 235.26 142.09 243.344 132.118 243.344Z" fill="#F5C845"/>
<path d="M220.316 225.469H156.321C155.493 225.469 154.82 224.797 154.82 223.968C154.82 223.14 155.493 222.468 156.321 222.468H220.316C239.176 222.468 254.521 207.123 254.521 188.263V94.9017C254.521 74.3867 271.211 57.6959 291.727 57.6959H327.134C327.962 57.6959 328.634 58.3681 328.634 59.1964C328.634 60.0247 327.962 60.6969 327.134 60.6969H291.727C272.866 60.6969 257.522 76.0412 257.522 94.9017V188.262C257.522 208.778 240.832 225.469 220.316 225.469V225.469Z" fill="black"/>
<path d="M392.469 151.731C391.641 151.731 390.969 151.059 390.969 150.231V124.536C390.969 123.708 391.641 123.035 392.469 123.035C393.298 123.035 393.97 123.708 393.97 124.536V150.231C393.97 151.059 393.298 151.731 392.469 151.731Z" fill="black"/>
<path d="M392.47 118.393C425.163 118.393 451.666 91.8897 451.666 59.1964C451.666 26.5031 425.163 0 392.47 0C359.777 0 333.273 26.5031 333.273 59.1964C333.273 91.8897 359.777 118.393 392.47 118.393Z" fill="#F5C845"/>
<path d="M382.471 45.3596C384.071 37.4389 396.866 39.1145 402.501 42.6937C407.071 46.0449 412.554 39.4196 407.376 35.2301C404.5 33.0214 400.738 31.6219 396.757 31.0487V26.6972C396.757 24.3314 394.84 22.4137 392.474 22.4137C390.108 22.4137 388.19 24.3314 388.19 26.6972V31.0917C380.489 32.3021 373.732 36.7347 372.801 44.5974C370.44 66.2268 402.122 59.4485 403.113 70.7204C401.97 81.5341 385.901 78.336 379.655 74.0705C377.066 71.9378 374.857 72.624 372.877 74.6037C371.507 76.6594 371.43 80.0106 373.943 82.0673C377.358 84.8873 382.622 86.7349 388.19 87.2921V91.6946C388.19 94.0604 390.108 95.9781 392.474 95.9781C394.84 95.9781 396.757 94.0604 396.757 91.6946V87.084C405.341 85.7396 412.741 80.7949 413.012 70.9475C413.544 50.6905 380.415 57.8489 382.471 45.3596Z" fill="white"/>
<path d="M392.47 274.767C425.163 274.767 451.666 248.264 451.666 215.57C451.666 182.877 425.163 156.374 392.47 156.374C359.777 156.374 333.273 182.877 333.273 215.57C333.273 248.264 359.777 274.767 392.47 274.767Z" fill="#F5C845"/>
<path d="M382.471 201.734C384.071 193.813 396.866 195.488 402.501 199.068C407.071 202.419 412.554 195.794 407.376 191.604C404.5 189.395 400.738 187.996 396.757 187.423V183.071C396.757 180.705 394.84 178.788 392.474 178.788C390.108 178.788 388.19 180.705 388.19 183.071V187.466C380.489 188.676 373.732 193.109 372.801 200.971C370.44 222.601 402.122 215.822 403.113 227.094C401.97 237.908 385.901 234.71 379.655 230.444C377.066 228.312 374.857 228.998 372.877 230.978C371.507 233.033 371.43 236.385 373.943 238.441C377.358 241.261 382.622 243.109 388.19 243.666V248.069C388.19 250.434 390.108 252.352 392.474 252.352C394.84 252.352 396.757 250.434 396.757 248.069V243.458C405.341 242.113 412.741 237.169 413.012 227.321C413.544 207.063 380.415 214.223 382.471 201.734Z" fill="white"/>
<path d="M356.769 406.307H312.743C311.914 406.307 311.242 405.635 311.242 404.807C311.242 403.978 311.914 403.306 312.743 403.306H356.769C375.627 403.306 390.971 387.959 390.971 369.094V280.914C390.971 280.086 391.643 279.413 392.471 279.413C393.3 279.413 393.972 280.086 393.972 280.914V369.094C393.972 389.613 377.283 406.307 356.769 406.307Z" fill="black"/>
<path d="M182.06 406.307H156.321C155.493 406.307 154.82 405.635 154.82 404.807C154.82 403.978 155.493 403.306 156.321 403.306H182.06C182.888 403.306 183.56 403.978 183.56 404.807C183.56 405.635 182.888 406.307 182.06 406.307Z" fill="black"/>
<path d="M90.9777 464C123.671 464 150.174 437.497 150.174 404.804C150.174 372.11 123.671 345.607 90.9777 345.607C58.2844 345.607 31.7812 372.11 31.7812 404.804C31.7812 437.497 58.2844 464 90.9777 464Z" fill="#F5C845"/>
<path d="M80.9792 390.966C82.5788 383.045 95.3742 384.721 101.009 388.3C105.579 391.651 111.062 385.026 105.884 380.836C103.008 378.628 99.2455 377.228 95.2652 376.655V372.303C95.2652 369.938 93.3475 368.02 90.9817 368.02C88.6159 368.02 86.6982 369.938 86.6982 372.303V376.698C78.9965 377.908 72.2402 382.341 71.3089 390.204C68.9481 411.833 100.63 405.055 101.62 416.327C100.478 427.14 84.4084 423.942 78.1633 419.677C75.5734 417.544 73.3646 418.23 71.3849 420.211C70.0144 422.267 69.9374 425.618 72.4513 427.675C75.8655 430.494 81.1303 432.342 86.6982 432.899V437.302C86.6982 439.668 88.6159 441.585 90.9817 441.585C93.3475 441.585 95.2652 439.668 95.2652 437.302V432.691C103.849 431.347 111.249 426.402 111.52 416.555C112.052 396.297 78.9225 403.456 80.9792 390.966V390.966Z" fill="white"/>
<path d="M247.4 464C280.093 464 306.596 437.497 306.596 404.804C306.596 372.11 280.093 345.607 247.4 345.607C214.706 345.607 188.203 372.11 188.203 404.804C188.203 437.497 214.706 464 247.4 464Z" fill="#F5C845"/>
<path d="M237.401 390.966C239.001 383.045 251.796 384.721 257.431 388.3C262.001 391.651 267.483 385.026 262.306 380.836C259.43 378.628 255.667 377.228 251.687 376.655V372.303C251.687 369.938 249.769 368.02 247.404 368.02C245.038 368.02 243.12 369.938 243.12 372.303V376.698C235.418 377.908 228.662 382.341 227.731 390.204C225.37 411.833 257.052 405.055 258.042 416.327C256.9 427.14 240.83 423.942 234.585 419.677C231.995 417.544 229.787 418.23 227.807 420.211C226.436 422.267 226.359 425.618 228.873 427.675C232.287 430.494 237.552 432.342 243.12 432.899V437.302C243.12 439.668 245.038 441.585 247.404 441.585C249.769 441.585 251.687 439.668 251.687 437.302V432.691C260.271 431.347 267.671 426.402 267.942 416.555C268.474 396.297 235.344 403.456 237.401 390.966V390.966Z" fill="white"/>
<path d="M156.323 230.111C159.716 230.111 162.466 227.361 162.466 223.968C162.466 220.575 159.716 217.825 156.323 217.825C152.93 217.825 150.18 220.575 150.18 223.968C150.18 227.361 152.93 230.111 156.323 230.111Z" fill="black"/>
<path d="M327.135 65.3395C330.528 65.3395 333.278 62.5892 333.278 59.1964C333.278 55.8037 330.528 53.0533 327.135 53.0533C323.743 53.0533 320.992 55.8037 320.992 59.1964C320.992 62.5892 323.743 65.3395 327.135 65.3395Z" fill="black"/>
<path d="M392.471 130.679C395.864 130.679 398.614 127.929 398.614 124.536C398.614 121.143 395.864 118.393 392.471 118.393C389.078 118.393 386.328 121.143 386.328 124.536C386.328 127.929 389.078 130.679 392.471 130.679Z" fill="black"/>
<path d="M392.471 156.374C395.864 156.374 398.614 153.624 398.614 150.231C398.614 146.838 395.864 144.088 392.471 144.088C389.078 144.088 386.328 146.838 386.328 150.231C386.328 153.624 389.078 156.374 392.471 156.374Z" fill="black"/>
<path d="M312.745 410.947C316.137 410.947 318.888 408.196 318.888 404.804C318.888 401.411 316.137 398.66 312.745 398.66C309.352 398.66 306.602 401.411 306.602 404.804C306.602 408.196 309.352 410.947 312.745 410.947Z" fill="black"/>
<path d="M156.323 410.947C159.716 410.947 162.466 408.196 162.466 404.804C162.466 401.411 159.716 398.66 156.323 398.66C152.93 398.66 150.18 401.411 150.18 404.804C150.18 408.196 152.93 410.947 156.323 410.947Z" fill="black"/>
<path d="M182.065 410.947C185.458 410.947 188.208 408.196 188.208 404.804C188.208 401.411 185.458 398.66 182.065 398.66C178.672 398.66 175.922 401.411 175.922 404.804C175.922 408.196 178.672 410.947 182.065 410.947Z" fill="black"/>
</g>
<defs>
<clipPath id="clip0_1_1468">
<rect width="452" height="464" fill="white"/>
</clipPath>
</defs>
</svg>
