<svg width="749" height="538" viewBox="0 0 749 538" fill="none" xmlns="http://www.w3.org/2000/svg">
<g clip-path="url(#clip0_1_1632)">
<path d="M618.803 331.436H312.403C304.116 331.436 297.398 324.718 297.398 316.432V164.249C297.398 155.963 304.116 149.245 312.403 149.245H618.803C627.089 149.245 633.807 155.963 633.807 164.249V316.432C633.807 324.718 627.089 331.436 618.803 331.436Z" fill="#F5C845"/>
<path d="M327.522 295.488C327.246 295.488 326.967 295.412 326.718 295.253C326.019 294.808 325.814 293.88 326.259 293.181L362.375 236.475C362.601 236.12 362.965 235.877 363.379 235.804C363.793 235.731 364.219 235.835 364.553 236.091L397.907 261.663L432.63 186.067C432.87 185.544 433.39 185.204 433.966 185.193C434.538 185.174 435.073 185.502 435.333 186.016L463.793 242.265L504.647 206.899C505.013 206.584 505.507 206.463 505.976 206.573C506.445 206.684 506.832 207.014 507.016 207.459L535.127 275.442L564.572 202.305C564.76 201.838 565.17 201.497 565.663 201.396C566.157 201.295 566.668 201.448 567.024 201.804L605.616 240.33C606.202 240.915 606.203 241.865 605.618 242.451C605.032 243.037 604.082 243.038 603.496 242.453L566.509 205.529L536.537 279.974C536.309 280.539 535.762 280.911 535.153 280.914C534.534 280.925 533.993 280.55 533.76 279.987L505.039 210.528L464.305 245.79C463.956 246.092 463.487 246.217 463.033 246.128C462.58 246.039 462.193 245.746 461.984 245.334L434.06 190.146L399.849 264.623C399.659 265.038 399.29 265.344 398.847 265.454C398.404 265.564 397.935 265.466 397.573 265.188L364.027 239.468L328.789 294.794C328.503 295.243 328.018 295.488 327.522 295.488V295.488Z" fill="black"/>
<path d="M327.731 305.391C334.029 305.391 339.135 300.285 339.135 293.987C339.135 287.69 334.029 282.584 327.731 282.584C321.434 282.584 316.328 287.69 316.328 293.987C316.328 300.285 321.434 305.391 327.731 305.391Z" fill="black"/>
<path d="M363.059 249.075C369.357 249.075 374.463 243.97 374.463 237.672C374.463 231.374 369.357 226.269 363.059 226.269C356.762 226.269 351.656 231.374 351.656 237.672C351.656 243.97 356.762 249.075 363.059 249.075Z" fill="black"/>
<path d="M398.778 273.802C405.076 273.802 410.181 268.696 410.181 262.399C410.181 256.101 405.076 250.995 398.778 250.995C392.48 250.995 387.375 256.101 387.375 262.399C387.375 268.696 392.48 273.802 398.778 273.802Z" fill="black"/>
<path d="M434.028 198.096C440.326 198.096 445.431 192.99 445.431 186.693C445.431 180.395 440.326 175.289 434.028 175.289C427.73 175.289 422.625 180.395 422.625 186.693C422.625 192.99 427.73 198.096 434.028 198.096Z" fill="black"/>
<path d="M463.325 257.96C469.623 257.96 474.728 252.855 474.728 246.557C474.728 240.259 469.623 235.154 463.325 235.154C457.027 235.154 451.922 240.259 451.922 246.557C451.922 252.855 457.027 257.96 463.325 257.96Z" fill="black"/>
<path d="M506.247 220.902C512.545 220.902 517.65 215.797 517.65 209.499C517.65 203.201 512.545 198.096 506.247 198.096C499.949 198.096 494.844 203.201 494.844 209.499C494.844 215.797 499.949 220.902 506.247 220.902Z" fill="black"/>
<path d="M534.645 289.952C540.943 289.952 546.049 284.847 546.049 278.549C546.049 272.251 540.943 267.146 534.645 267.146C528.348 267.146 523.242 272.251 523.242 278.549C523.242 284.847 528.348 289.952 534.645 289.952Z" fill="black"/>
<path d="M565.841 215.563C572.139 215.563 577.244 210.457 577.244 204.159C577.244 197.862 572.139 192.756 565.841 192.756C559.543 192.756 554.438 197.862 554.438 204.159C554.438 210.457 559.543 215.563 565.841 215.563Z" fill="black"/>
<path d="M604.559 252.497C610.857 252.497 615.963 247.392 615.963 241.094C615.963 234.796 610.857 229.691 604.559 229.691C598.262 229.691 593.156 234.796 593.156 241.094C593.156 247.392 598.262 252.497 604.559 252.497Z" fill="black"/>
<path d="M167.187 537.734H15.0042C6.71787 537.734 0 531.016 0 522.729V370.547C0 362.261 6.71787 355.543 15.0042 355.543H167.187C175.473 355.543 182.191 362.261 182.191 370.547V522.729C182.191 531.016 175.474 537.734 167.187 537.734Z" fill="#E45E47"/>
<path d="M114.319 424.334L114.321 424.336L138.527 400.13L138.523 400.126C112.829 374.448 71.1938 374.448 45.5156 400.126L69.7214 424.332C82.0348 412.02 101.999 412.021 114.319 424.334V424.334Z" fill="white"/>
<path d="M69.7256 424.334C69.7266 424.333 69.7266 424.333 69.7276 424.332L45.5218 400.126C19.8376 425.81 19.8366 467.458 45.5178 493.144L69.7226 468.939C57.4081 456.622 57.4091 436.65 69.7256 424.334Z" fill="#2724F2"/>
<path d="M114.326 468.937C102.008 481.255 82.0398 481.259 69.7224 468.941C69.7214 468.94 69.7214 468.94 69.7204 468.939L45.5156 493.144C45.5166 493.145 45.5186 493.147 45.5196 493.148C71.2048 518.833 112.848 518.826 138.534 493.14L114.328 468.934C114.327 468.936 114.327 468.937 114.326 468.937V468.937Z" fill="#F5C845"/>
<path d="M114.32 424.336L114.322 424.338C126.639 436.654 126.636 456.622 114.324 468.936L138.53 493.142C164.208 467.464 164.215 425.821 138.53 400.135L138.526 400.131L114.32 424.336Z" fill="black"/>
<path d="M114.321 424.334L114.329 424.342C126.642 436.654 126.642 456.618 114.329 468.93C102.01 481.25 82.0371 481.258 69.7257 468.945C69.7257 468.945 69.7257 468.945 69.7177 468.937C57.4053 456.625 57.4053 436.645 69.7257 424.326L69.7337 424.334C75.8934 418.174 83.9527 415.098 92.0279 415.098C100.103 415.098 108.161 418.174 114.321 424.334Z" fill="#E45E47"/>
<path d="M373.484 537.734H221.301C213.015 537.734 206.297 531.016 206.297 522.729V370.547C206.297 362.261 213.015 355.543 221.301 355.543H373.484C381.77 355.543 388.488 362.261 388.488 370.547V522.729C388.488 531.016 381.771 537.734 373.484 537.734Z" fill="#F5C845"/>
<path d="M343.899 493.148C331.989 505.046 315.557 512.409 297.394 512.409C261.068 512.409 231.617 482.969 231.617 446.644C231.617 410.319 261.057 380.879 297.383 380.868V446.644L343.899 493.148Z" fill="#E45E47"/>
<path d="M363.159 446.632V446.643H297.383V380.867H297.394C333.708 380.867 363.149 410.307 363.159 446.632V446.632Z" fill="black"/>
<path d="M363.159 446.643C363.159 464.805 355.796 481.25 343.899 493.148L297.383 446.643H363.159Z" fill="white"/>
<path d="M618.8 125.143H523.926C515.64 125.143 508.922 118.426 508.922 110.139V15.2657C508.922 6.97941 515.64 0.261536 523.926 0.261536H618.8C627.086 0.261536 633.804 6.97941 633.804 15.2657V110.139C633.804 118.426 627.086 125.143 618.8 125.143Z" fill="#2724F2"/>
<path d="M550.501 63.013V63.015H527.859V63.011C527.866 38.9843 547.34 19.5119 571.359 19.5119V42.1532C559.841 42.1542 550.505 51.4918 550.501 63.013V63.013Z" fill="#F5C845"/>
<path d="M614.862 63.013C614.862 75.0304 609.99 85.9064 602.116 93.7806C594.253 101.644 583.377 106.516 571.359 106.516V83.8728C582.877 83.8728 592.219 74.5412 592.219 63.013C592.219 51.4958 582.877 42.1532 571.359 42.1532V19.5109C595.384 19.5109 614.862 38.9893 614.862 63.013V63.013Z" fill="#E45E47"/>
<path d="M550.501 63.014V63.016C550.501 74.5373 559.841 83.8749 571.359 83.8759V106.517C547.339 106.517 527.859 87.0437 527.859 63.018V63.014H550.501Z" fill="white"/>
<path d="M550.508 63.011V63.018C550.508 74.5352 559.845 83.8718 571.362 83.8718C582.886 83.8718 592.23 74.5342 592.23 63.018C592.23 63.018 592.23 63.018 592.23 63.011C592.23 51.4938 582.886 42.1502 571.362 42.1502V42.1572C565.6 42.1572 560.392 44.4879 556.614 48.2649C552.837 52.042 550.508 57.2484 550.508 63.011V63.011Z" fill="#2724F2"/>
<path d="M434.028 198.096C440.326 198.096 445.431 192.99 445.431 186.693C445.431 180.395 440.326 175.289 434.028 175.289C427.73 175.289 422.625 180.395 422.625 186.693C422.625 192.99 427.73 198.096 434.028 198.096Z" fill="black"/>
<path d="M484.819 94.2888V109.058C484.819 118.073 477.511 125.371 468.506 125.371H146.845C137.839 125.371 130.531 118.073 130.531 109.058V94.2888C130.531 85.2833 137.839 77.9752 146.845 77.9752H468.506C477.511 77.9752 484.819 85.2833 484.819 94.2888Z" fill="#E45E47"/>
<path d="M189.055 77.9752H192.318V125.371H189.055V77.9752Z" fill="black"/>
<path d="M247.539 77.9752H250.802V125.371H247.539V77.9752Z" fill="black"/>
<path d="M306.031 77.9752H309.294V125.371H306.031V77.9752Z" fill="black"/>
<path d="M364.523 77.9752H367.786V125.371H364.523V77.9752Z" fill="black"/>
<path d="M423.008 77.9752H426.271V125.371H423.008V77.9752Z" fill="black"/>
<path d="M260.404 172.422H254.826V197.85C254.826 199.407 253.564 200.67 252.005 200.67H241.746C240.189 200.67 238.926 199.408 238.926 197.85V172.422H233.348C231.409 172.422 230.292 170.218 231.44 168.653L244.967 150.211C245.914 148.922 247.839 148.922 248.785 150.211L262.313 168.653C263.46 170.217 262.343 172.422 260.404 172.422V172.422Z" fill="black"/>
<path d="M210.177 172.422H204.6V197.85C204.6 199.407 203.337 200.67 201.779 200.67H191.52C189.962 200.67 188.699 199.408 188.699 197.85V172.422H183.122C181.182 172.422 180.066 170.218 181.213 168.653L194.741 150.211C195.687 148.922 197.613 148.922 198.559 150.211L212.087 168.653C213.233 170.217 212.117 172.422 210.177 172.422V172.422Z" fill="black"/>
<path d="M159.958 172.422H154.381V197.85C154.381 199.407 153.118 200.67 151.56 200.67H141.301C139.744 200.67 138.48 199.408 138.48 197.85V172.422H132.903C130.963 172.422 129.847 170.218 130.994 168.653L144.522 150.211C145.468 148.922 147.394 148.922 148.34 150.211L161.868 168.653C163.014 170.217 161.898 172.422 159.958 172.422V172.422Z" fill="black"/>
<path d="M749.002 371.848V521.422C749.002 530.427 741.694 537.735 732.688 537.735H428.907C419.891 537.735 412.594 530.427 412.594 521.422V371.848C412.594 362.843 419.892 355.535 428.907 355.535H732.688C741.693 355.535 749.002 362.843 749.002 371.848V371.848Z" fill="#F5C845"/>
<path d="M749.002 428.797V521.426C749.002 530.435 741.698 537.739 732.688 537.739H428.907C419.892 537.739 412.594 530.43 412.594 521.426V483.98L499.476 437.149C503.538 434.96 508.539 435.572 511.952 438.676L540.158 464.323C543.665 467.512 548.835 468.062 552.934 465.682L694.422 383.564C698.774 381.039 704.29 381.828 707.759 385.472L749.002 428.797Z" fill="black"/>
<path d="M748.994 461.424V521.426C748.994 530.435 741.69 537.739 732.68 537.739H428.9C419.884 537.739 412.586 530.43 412.586 521.426V506.82L500.133 468.779C503.885 467.149 508.234 467.762 511.39 470.365L540.901 494.713C544.056 497.316 548.405 497.929 552.156 496.3L702.663 430.909C706.414 429.279 710.762 429.891 713.917 432.493L748.994 461.424Z" fill="#E45E47"/>
<path d="M465.451 483.85V537.735H462.18V485.271L465.451 483.85Z" fill="black"/>
<path d="M506.034 467.996V537.735H502.773V468.016C503.854 467.836 504.954 467.836 506.034 467.996Z" fill="black"/>
<path d="M546.628 497.124V537.735H543.367V496.244C544.397 496.714 545.498 497.014 546.628 497.124V497.124Z" fill="black"/>
<path d="M668.388 445.8V537.735H665.117V447.22L668.388 445.8Z" fill="black"/>
<path d="M627.81 463.435V537.735H624.539V464.855L627.81 463.435Z" fill="black"/>
<path d="M587.216 481.07V537.735H583.945V482.49L587.216 481.07Z" fill="black"/>
<path d="M708.98 430.195V537.735H705.719V430.085C706.809 429.955 707.909 429.995 708.98 430.195V430.195Z" fill="black"/>
</g>
<defs>
<clipPath id="clip0_1_1632">
<rect width="749" height="538" fill="white"/>
</clipPath>
</defs>
</svg>
