<svg width="366" height="60" viewBox="0 0 366 60" fill="none" xmlns="http://www.w3.org/2000/svg">
<g clip-path="url(#clip0_1_1722)">
<path d="M338.085 59.9543H27.9102C12.4953 59.9543 0 47.459 0 32.0441V27.9549C0 12.54 12.4953 0.0446472 27.9102 0.0446472H338.086C353.5 0.0446472 365.996 12.54 365.996 27.9549V32.0441C365.995 47.459 353.5 59.9543 338.085 59.9543Z" fill="#F5C845"/>
<path d="M365.998 29.9975C365.998 38.2692 362.641 45.7562 357.22 51.1785C351.799 56.5998 344.312 59.9564 336.039 59.9564H281.406V0.0496674H336.039C352.583 0.0496674 365.998 13.453 365.998 29.9975V29.9975Z" fill="#2724F2"/>
<path d="M251.918 23.2121H29.4914C25.9965 23.2121 23.1641 26.0445 23.1641 29.5395V30.4666C23.1641 33.9615 25.9965 36.7939 29.4914 36.7939H251.917C255.412 36.7939 258.245 33.9615 258.245 30.4666V29.5395C258.246 26.0445 255.412 23.2121 251.918 23.2121V23.2121Z" fill="white"/>
</g>
<defs>
<clipPath id="clip0_1_1722">
<rect width="366" height="60" fill="white"/>
</clipPath>
</defs>
</svg>
