<svg width="3000" height="3000" viewBox="0 0 3000 3000" fill="none" xmlns="http://www.w3.org/2000/svg">
<g clip-path="url(#clip0_1_698)">
<path d="M329.808 2196.87C324.935 2218.06 322.477 2239.72 322.48 2261.45C322.48 2274.81 323.392 2287.95 325.196 2300.89C282.184 2278.8 252.777 2234.1 252.777 2182.54H333.506C332.155 2187.28 330.922 2192.07 329.808 2196.87V2196.87Z" fill="#E45E47"/>
<path d="M1111.11 2212.41V2310.47C1111.11 2326.96 1097.72 2340.34 1081.17 2340.34H1057.82V2340.36C1035.93 2417.08 982.785 2483.05 910.836 2527.35C903.015 2532.19 898.192 2540.62 898.192 2549.8V2609.05C898.192 2625.53 884.8 2638.89 868.246 2638.89H813.013C796.483 2638.89 783.09 2625.53 783.09 2609.05C783.09 2594.33 771.079 2582.77 756.774 2582.77C755.602 2582.77 754.386 2582.84 753.191 2583C734.125 2585.58 714.905 2586.87 695.665 2586.86C676.092 2586.86 656.891 2585.55 638.138 2583C622.311 2580.88 608.239 2593.12 608.239 2609.05C608.239 2617.29 604.892 2624.74 599.483 2630.16C593.86 2635.76 586.238 2638.9 578.293 2638.89H523.083C506.553 2638.89 493.137 2625.53 493.137 2609.05V2549.8C493.137 2540.62 488.291 2532.16 480.446 2527.33C396.486 2475.56 338.116 2394.31 325.192 2300.89C323.376 2287.82 322.469 2274.65 322.477 2261.45C322.477 2239.33 325.006 2217.76 329.805 2196.88C330.929 2192.07 332.169 2187.28 333.526 2182.54C373.962 2040.97 520.74 1936.02 695.659 1936.02C733.028 1936.02 769.131 1940.83 803.198 1949.77C806.055 1950.52 808.911 1951.29 811.745 1952.08C817.394 1953.69 823.006 1955.42 828.579 1957.27C842.308 1961.83 855.776 1967.14 868.92 1973.17C881.191 1956.81 897.037 1943.45 915.255 1934.1C934.046 1924.51 954.857 1919.53 975.965 1919.55V2046.57H975.942C1014.69 2084.94 1043.21 2131.35 1057.82 2182.54H1081.16C1097.72 2182.54 1111.11 2195.92 1111.11 2212.41V2212.41Z" fill="#F5C845"/>
<path d="M765.739 2057.46C765.739 2073.71 752.533 2086.88 736.239 2086.88H564.876C548.584 2086.88 535.375 2073.71 535.375 2057.46C535.375 2041.21 548.582 2028.03 564.876 2028.03H736.239C752.53 2028.03 765.739 2041.2 765.739 2057.46ZM951.829 2185.53C932.513 2185.53 916.85 2169.9 916.85 2150.64C916.85 2131.35 932.513 2115.72 951.829 2115.72C971.145 2115.72 986.808 2131.35 986.808 2150.64C986.808 2169.9 971.145 2185.53 951.829 2185.53Z" fill="black"/>
<path d="M915.26 1888.89V1934.1C897.041 1943.45 881.196 1956.81 868.925 1973.17C855.781 1967.14 842.314 1961.83 828.584 1957.27C823.012 1955.42 817.399 1953.69 811.75 1952.08C808.911 1951.27 806.062 1950.49 803.203 1949.75C826.943 1913.13 868.27 1888.89 915.26 1888.89Z" fill="#E45E47"/>
</g>
<g clip-path="url(#clip1_1_698)">
<path d="M1488.89 863.57V1772.54C1488.89 1807.66 1460.31 1836.11 1425.04 1836.11H1307.07C1342.34 1836.11 1370.92 1807.66 1370.92 1772.54V863.57C1370.92 828.487 1342.34 800 1307.07 800H1425.04C1460.31 800 1488.89 828.487 1488.89 863.57Z" fill="black"/>
<path d="M1370.93 863.577V1772.54C1370.93 1807.64 1342.34 1836.11 1307.09 1836.11H730.513C695.259 1836.11 666.668 1807.65 666.668 1772.54V863.577C666.668 828.477 695.259 800.01 730.513 800.01H1307.09C1342.34 800.01 1370.93 828.477 1370.93 863.577Z" fill="#F5C845"/>
<path d="M1252.96 935.901V1058.87C1252.96 1063.76 1251.01 1068.45 1247.54 1071.91C1244.07 1075.36 1239.36 1077.31 1234.45 1077.31H803.154C798.243 1077.31 793.533 1075.36 790.06 1071.91C786.588 1068.45 784.637 1063.76 784.637 1058.87V935.901C784.637 931.012 786.588 926.322 790.06 922.865C793.533 919.407 798.243 917.465 803.154 917.465H1234.45C1239.36 917.465 1244.07 919.407 1247.54 922.865C1251.01 926.322 1252.96 931.012 1252.96 935.901V935.901ZM1235.34 1323.74H802.255C797.582 1323.74 793.101 1321.89 789.797 1318.6C786.493 1315.31 784.637 1310.85 784.637 1306.2V1304.41C784.637 1299.76 786.493 1295.3 789.797 1292.01C793.101 1288.72 797.582 1286.87 802.255 1286.87H1235.34C1240.01 1286.87 1244.5 1288.72 1247.8 1292.01C1251.1 1295.3 1252.96 1299.76 1252.96 1304.41V1306.2C1252.96 1308.5 1252.5 1310.78 1251.62 1312.91C1250.73 1315.04 1249.44 1316.97 1247.8 1318.6C1246.17 1320.23 1244.22 1321.52 1242.09 1322.41C1239.95 1323.29 1237.66 1323.74 1235.34 1323.74Z" fill="black"/>
<path d="M1235.35 1418.28H802.255C797.582 1418.28 793.101 1416.43 789.797 1413.14C786.493 1409.85 784.637 1405.39 784.637 1400.74V1398.95C784.637 1394.3 786.493 1389.83 789.797 1386.54C793.101 1383.25 797.582 1381.41 802.255 1381.41H1235.34C1240.01 1381.41 1244.5 1383.25 1247.8 1386.54C1251.1 1389.83 1252.96 1394.3 1252.96 1398.95V1400.74C1252.96 1403.04 1252.5 1405.32 1251.62 1407.45C1250.73 1409.58 1249.44 1411.51 1247.8 1413.14C1246.17 1414.77 1244.22 1416.06 1242.09 1416.94C1239.95 1417.83 1237.66 1418.28 1235.35 1418.28V1418.28Z" fill="white"/>
<path d="M1235.35 1512.82H802.255C797.582 1512.82 793.101 1510.97 789.797 1507.68C786.493 1504.39 784.637 1499.93 784.637 1495.28V1493.49C784.637 1488.83 786.493 1484.37 789.797 1481.08C793.101 1477.79 797.582 1475.95 802.255 1475.95H1235.34C1240.01 1475.95 1244.5 1477.79 1247.8 1481.08C1251.1 1484.37 1252.96 1488.83 1252.96 1493.49V1495.28C1252.96 1497.58 1252.5 1499.86 1251.62 1501.99C1250.73 1504.12 1249.44 1506.05 1247.8 1507.68C1246.17 1509.31 1244.22 1510.6 1242.09 1511.48C1239.95 1512.36 1237.66 1512.82 1235.35 1512.82Z" fill="black"/>
<path d="M1235.35 1607.35H802.255C797.582 1607.35 793.101 1605.5 789.797 1602.21C786.493 1598.92 784.637 1594.46 784.637 1589.81V1588.02C784.637 1583.37 786.493 1578.91 789.797 1575.62C793.101 1572.33 797.582 1570.48 802.255 1570.48H1235.34C1240.01 1570.48 1244.5 1572.33 1247.8 1575.62C1251.1 1578.91 1252.96 1583.37 1252.96 1588.02V1589.81C1252.96 1592.11 1252.51 1594.4 1251.62 1596.52C1250.74 1598.65 1249.44 1600.59 1247.8 1602.22C1246.17 1603.84 1244.22 1605.14 1242.09 1606.02C1239.95 1606.9 1237.66 1607.35 1235.35 1607.35Z" fill="white"/>
</g>
<g clip-path="url(#clip2_1_698)">
<path d="M2158.26 1150C2077.49 1150 2012.05 1215.49 2012.05 1296.33V2492.56C2012.05 2573.4 1946.61 2638.89 1865.84 2638.89H1036.11C1116.88 2638.89 1182.32 2573.4 1182.32 2492.56V1296.33C1182.32 1215.49 1247.79 1150 1328.53 1150H2158.26Z" fill="#E45E47"/>
<path d="M1814.65 2330.26H1656.25V2546.02L1735.45 2500.27L1814.65 2546.02V2330.26Z" fill="white"/>
<path d="M1767.98 2129.46C1773.05 2151.94 1798.83 2162.63 1818.31 2150.32C1848.35 2131.33 1883.28 2166.29 1864.31 2196.36C1852.01 2215.85 1862.69 2241.65 1885.15 2246.73C1919.82 2254.57 1919.82 2304 1885.15 2311.84C1862.69 2316.91 1852.01 2342.72 1864.31 2362.21C1883.28 2392.28 1848.35 2427.24 1818.31 2408.25C1798.83 2395.94 1773.05 2406.63 1767.98 2429.11C1760.15 2463.8 1710.75 2463.8 1702.93 2429.11C1697.85 2406.63 1672.07 2395.94 1652.6 2408.25C1622.55 2427.24 1587.62 2392.28 1606.6 2362.21C1618.89 2342.72 1608.21 2316.92 1585.75 2311.84C1551.08 2304 1551.08 2254.57 1585.75 2246.73C1608.21 2241.65 1618.89 2215.85 1606.6 2196.36C1587.62 2166.29 1622.55 2131.33 1652.6 2150.32C1672.07 2162.63 1697.85 2151.94 1702.93 2129.46C1710.75 2094.76 1760.15 2094.76 1767.98 2129.46Z" fill="black"/>
<path d="M1735.45 2362.13C1781.17 2362.13 1818.23 2325.04 1818.23 2279.28C1818.23 2233.52 1781.17 2196.43 1735.45 2196.43C1689.73 2196.43 1652.67 2233.52 1652.67 2279.28C1652.67 2325.04 1689.73 2362.13 1735.45 2362.13Z" fill="#F5C845"/>
<path d="M2575 1642.62C2525.19 1642.62 2484.84 1683 2484.84 1732.89V2201.83C2484.84 2251.71 2444.49 2292.1 2394.65 2292.1C2344.8 2292.1 2304.45 2251.71 2304.45 2201.87V1642.62H2575Z" fill="#E45E47"/>
<path d="M2394.67 2292.09H2012.06V1296.33C2012.05 1215.49 2077.49 1150 2158.26 1150C2239.03 1150 2304.47 1215.49 2304.47 1296.33V2201.86C2304.47 2251.71 2344.82 2292.09 2394.67 2292.09ZM1318.17 1441.47C1318.17 1415.06 1339.55 1393.66 1365.93 1393.66H1828.44C1854.82 1393.66 1876.2 1415.07 1876.2 1441.47C1876.2 1467.87 1854.82 1489.27 1828.44 1489.27H1365.93C1339.55 1489.27 1318.17 1467.87 1318.17 1441.47ZM1318.17 1614.66H1876.21V1636.31H1318.17V1614.66ZM1318.17 1724.72H1876.21V1746.37H1318.17V1724.72ZM1318.17 1834.78H1876.21V1856.43H1318.17V1834.78ZM1318.17 1944.84H1876.21V1966.49H1318.17V1944.84ZM1318.17 2054.9H1597.19V2076.55H1318.17V2054.9ZM1318.17 2164.96H1486.34V2186.61H1318.17V2164.96Z" fill="black"/>
</g>
<g clip-path="url(#clip3_1_698)">
<path d="M1668.81 614.359V829.023C1665.42 827.867 1661.81 827.271 1658.07 827.271C1654.29 827.271 1650.68 827.902 1647.29 829.023V602.657L1668.81 614.359Z" fill="black"/>
<path d="M1647.28 602.587V602.657L1647.21 602.587H1647.28Z" fill="#2724F2"/>
<path d="M2380.56 602.611L2013.88 802.41L1647.28 602.65L1647.2 602.611L1647.28 602.576L2013.88 402.778L2380.56 602.611ZM1664.16 1063.63C1662.14 1063.84 1660.08 1063.89 1658.06 1063.89C1655.99 1063.89 1653.97 1063.84 1651.95 1063.63C1608.18 1059.7 1584.06 1010.18 1604.71 971.342L1646.21 893.296C1649.99 894.762 1654.01 895.501 1658.06 895.472C1662.09 895.497 1666.1 894.758 1669.86 893.296L1711.36 971.342C1732.01 1010.18 1707.89 1059.7 1664.16 1063.63Z" fill="#2724F2"/>
<path d="M1692.11 861.344C1692.11 868.308 1689.98 875.106 1686 880.82C1682.02 886.534 1676.39 890.888 1669.86 893.296C1666.1 894.758 1662.09 895.496 1658.06 895.472C1654.01 895.501 1649.99 894.763 1646.21 893.296C1639.69 890.885 1634.06 886.528 1630.09 880.814C1626.12 875.1 1624 868.303 1624.01 861.344C1624.01 842.543 1639.23 827.268 1658.06 827.268C1676.85 827.268 1692.11 842.547 1692.11 861.344Z" fill="#E45E47"/>
<path d="M2255.83 670.577V836.948L2013.89 968.816V802.445L2255.78 670.577H2255.83Z" fill="#F1E6D7"/>
<path d="M2013.88 802.452V968.812L1771.89 836.941V670.584H1771.95L2013.88 802.452Z" fill="#F5C845"/>
<path d="M2255.83 670.584V836.941L2013.88 968.812V802.452L2255.77 670.584H2255.83Z" fill="black"/>
<path d="M2380.55 602.604L2013.88 802.424L1656.34 607.569L1647.26 602.632L1647.2 602.604L1647.26 602.573L1656.34 597.636L2013.88 402.785L2380.55 602.604Z" fill="#2724F2"/>
<path d="M2380.55 602.604L2013.88 802.424L1656.34 607.569L1647.26 602.632L1647.2 602.604L1647.26 602.573L1656.34 597.636L2013.88 402.785L2380.55 602.604Z" fill="#2724F2"/>
</g>
<g clip-path="url(#clip4_1_698)">
<path d="M336.113 1936.11C458.843 1936.11 558.335 1836.62 558.335 1713.89C558.335 1591.16 458.843 1491.67 336.113 1491.67C213.383 1491.67 113.891 1591.16 113.891 1713.89C113.891 1836.62 213.383 1936.11 336.113 1936.11Z" fill="#F5C845"/>
<path d="M298.569 1661.94C304.574 1632.21 352.603 1638.5 373.763 1651.94C390.919 1664.51 411.499 1639.64 392.062 1623.92C381.265 1615.63 367.143 1610.37 352.197 1608.22V1591.89C352.197 1589.78 351.781 1587.69 350.973 1585.74C350.164 1583.78 348.98 1582.01 347.486 1580.52C345.993 1579.02 344.22 1577.84 342.269 1577.03C340.317 1576.22 338.226 1575.81 336.114 1575.81C334.002 1575.81 331.91 1576.22 329.959 1577.03C328.008 1577.84 326.235 1579.02 324.741 1580.52C323.248 1582.01 322.063 1583.78 321.255 1585.74C320.447 1587.69 320.031 1589.78 320.031 1591.89V1608.39C291.119 1612.93 265.759 1629.57 262.26 1659.08C253.395 1740.28 372.33 1714.83 376.049 1757.15C371.761 1797.75 311.432 1785.73 287.992 1769.73C278.268 1761.72 269.983 1764.3 262.544 1771.73C257.398 1779.45 257.114 1792.02 266.548 1799.75C279.364 1810.34 299.126 1817.27 320.031 1819.36V1835.89C320.031 1838.01 320.447 1840.1 321.255 1842.05C322.063 1844 323.248 1845.77 324.741 1847.27C326.235 1848.76 328.008 1849.94 329.959 1850.75C331.91 1851.56 334.002 1851.98 336.114 1851.98C338.226 1851.98 340.317 1851.56 342.269 1850.75C344.22 1849.94 345.993 1848.76 347.486 1847.27C348.98 1845.77 350.164 1844 350.973 1842.05C351.781 1840.1 352.197 1838.01 352.197 1835.89V1818.59C384.421 1813.54 412.195 1794.98 413.217 1758.01C415.218 1681.95 290.847 1708.83 298.569 1661.94V1661.94Z" fill="white"/>
</g>
<g clip-path="url(#clip5_1_698)">
<path d="M2529.16 1244.44C2649.59 1244.44 2747.22 1146.82 2747.22 1026.39C2747.22 905.96 2649.59 808.333 2529.16 808.333C2408.74 808.333 2311.11 905.96 2311.11 1026.39C2311.11 1146.82 2408.74 1244.44 2529.16 1244.44Z" fill="#F5C845"/>
<path d="M2492.32 975.418C2498.22 946.24 2545.34 952.411 2566.11 965.597C2582.94 977.94 2603.14 953.533 2584.06 938.104C2573.47 929.969 2559.61 924.811 2544.95 922.704V906.678C2544.95 904.605 2544.54 902.553 2543.74 900.638C2542.95 898.724 2541.79 896.984 2540.32 895.519C2538.86 894.053 2537.12 892.891 2535.2 892.098C2533.29 891.304 2531.24 890.896 2529.16 890.896C2527.09 890.896 2525.04 891.304 2523.12 892.098C2521.21 892.891 2519.47 894.053 2518 895.519C2516.54 896.984 2515.38 898.724 2514.58 900.638C2513.79 902.553 2513.38 904.605 2513.38 906.678V922.864C2485.01 927.321 2460.13 943.65 2456.69 972.611C2448 1052.29 2564.7 1027.32 2568.35 1068.84C2564.14 1108.67 2504.94 1096.89 2481.94 1081.18C2472.4 1073.32 2464.27 1075.85 2456.97 1083.14C2451.92 1090.72 2451.65 1103.06 2460.9 1110.64C2473.48 1121.03 2492.87 1127.83 2513.38 1129.89V1146.11C2513.38 1148.18 2513.79 1150.23 2514.58 1152.15C2515.38 1154.06 2516.54 1155.8 2518 1157.26C2519.47 1158.73 2521.21 1159.89 2523.12 1160.69C2525.04 1161.48 2527.09 1161.89 2529.16 1161.89C2531.24 1161.89 2533.29 1161.48 2535.2 1160.69C2537.12 1159.89 2538.86 1158.73 2540.32 1157.26C2541.79 1155.8 2542.95 1154.06 2543.74 1152.15C2544.54 1150.23 2544.95 1148.18 2544.95 1146.11V1129.12C2576.57 1124.17 2603.82 1105.96 2604.82 1069.68C2606.78 995.053 2484.75 1021.42 2492.32 975.418V975.418Z" fill="white"/>
</g>
<g clip-path="url(#clip6_1_698)">
<path d="M2737.5 1641.67C2836.45 1641.67 2916.67 1561.45 2916.67 1462.5C2916.67 1363.55 2836.45 1283.33 2737.5 1283.33C2638.55 1283.33 2558.33 1363.55 2558.33 1462.5C2558.33 1561.45 2638.55 1641.67 2737.5 1641.67Z" fill="#F5C845"/>
<path d="M2707.23 1420.62C2712.07 1396.65 2750.79 1401.72 2767.85 1412.55C2781.69 1422.69 2798.28 1402.64 2782.61 1389.96C2773.9 1383.28 2762.52 1379.04 2750.47 1377.31V1364.14C2750.47 1362.44 2750.13 1360.75 2749.48 1359.18C2748.83 1357.6 2747.87 1356.17 2746.67 1354.97C2745.46 1353.77 2744.03 1352.81 2742.46 1352.16C2740.89 1351.51 2739.2 1351.17 2737.5 1351.17C2735.8 1351.17 2734.11 1351.51 2732.54 1352.16C2730.96 1352.81 2729.53 1353.77 2728.33 1354.97C2727.13 1356.17 2726.17 1357.6 2725.52 1359.18C2724.87 1360.75 2724.53 1362.44 2724.53 1364.14V1377.44C2701.22 1381.1 2680.78 1394.52 2677.95 1418.31C2670.81 1483.78 2766.7 1463.26 2769.7 1497.38C2766.24 1530.11 2717.6 1520.43 2698.7 1507.52C2690.86 1501.06 2684.18 1503.14 2678.18 1509.13C2674.03 1515.36 2673.81 1525.5 2681.41 1531.72C2691.74 1540.26 2707.68 1545.85 2724.53 1547.54V1560.87C2724.53 1562.57 2724.87 1564.26 2725.52 1565.83C2726.17 1567.4 2727.13 1568.83 2728.33 1570.04C2729.53 1571.24 2730.96 1572.19 2732.54 1572.85C2734.11 1573.5 2735.8 1573.83 2737.5 1573.83C2739.2 1573.83 2740.89 1573.5 2742.46 1572.85C2744.03 1572.19 2745.46 1571.24 2746.67 1570.04C2747.87 1568.83 2748.83 1567.4 2749.48 1565.83C2750.13 1564.26 2750.47 1562.57 2750.47 1560.87V1546.91C2776.45 1542.84 2798.84 1527.88 2799.66 1498.07C2801.28 1436.75 2701 1458.42 2707.23 1420.62V1420.62Z" fill="white"/>
</g>
<g clip-path="url(#clip7_1_698)">
<path d="M1269.44 700H675C684.476 634.87 735.871 644.671 744.44 645.453H744.755C748.829 645.39 752.653 643.313 754.657 639.727C760.258 629.703 768.42 621.358 778.301 615.552C788.183 609.747 799.427 606.69 810.877 606.696C821.529 606.696 831.493 609.278 840.333 613.805C844.718 616.008 849.923 613.992 852.114 609.528C868.532 575.931 902.813 552.778 942.61 552.778C982.093 552.778 1016.31 575.618 1032.73 608.837C1037.37 616.636 1045.77 616.828 1051.97 611.102C1066.82 596.947 1087 588.14 1109.13 588.14C1144.54 588.14 1174.75 610.41 1186.66 641.68C1190.6 652.249 1199.94 656.025 1211.22 654.326C1213.85 653.948 1216.55 653.635 1219.24 653.635C1245.63 653.631 1267.25 674.078 1269.44 700Z" fill="black"/>
</g>
<g clip-path="url(#clip8_1_698)">
<path d="M1421.41 496.06L1427.7 513.038C1428.25 514.524 1429.11 515.873 1430.23 516.993C1431.35 518.113 1432.7 518.977 1434.18 519.527L1451.16 525.81C1460.72 529.349 1460.72 542.873 1451.16 546.412L1434.18 552.696C1432.7 553.245 1431.35 554.109 1430.23 555.229C1429.11 556.349 1428.25 557.698 1427.7 559.184L1421.41 576.162C1417.87 585.723 1404.35 585.723 1400.81 576.162L1394.53 559.184C1393.98 557.698 1393.11 556.349 1391.99 555.229C1390.87 554.109 1389.52 553.245 1388.04 552.696L1371.06 546.412C1361.5 542.873 1361.5 529.349 1371.06 525.81L1388.04 519.527C1389.52 518.977 1390.87 518.113 1391.99 516.993C1393.11 515.873 1393.98 514.524 1394.53 513.038L1400.81 496.06C1404.35 486.499 1417.87 486.499 1421.41 496.06V496.06Z" fill="#E45E47"/>
</g>
<g clip-path="url(#clip9_1_698)">
<path d="M474.19 2137.73L480.474 2154.7C481.023 2156.19 481.887 2157.54 483.007 2158.66C484.127 2159.78 485.477 2160.64 486.962 2161.19L503.94 2167.48C513.501 2171.02 513.501 2184.54 503.94 2188.08L486.962 2194.36C485.477 2194.91 484.127 2195.78 483.007 2196.9C481.887 2198.02 481.023 2199.36 480.474 2200.85L474.19 2217.83C470.652 2227.39 457.127 2227.39 453.589 2217.83L447.305 2200.85C446.756 2199.36 445.891 2198.02 444.771 2196.9C443.651 2195.78 442.302 2194.91 440.817 2194.36L423.839 2188.08C414.278 2184.54 414.278 2171.02 423.839 2167.48L440.817 2161.19C442.302 2160.64 443.651 2159.78 444.771 2158.66C445.891 2157.54 446.756 2156.19 447.305 2154.7L453.589 2137.73C457.127 2128.17 470.652 2128.17 474.19 2137.73V2137.73Z" fill="white"/>
</g>
<defs>
<clipPath id="clip0_1_698">
<rect width="858.333" height="750" fill="white" transform="translate(252.777 1888.89)"/>
</clipPath>
<clipPath id="clip1_1_698">
<rect width="822.222" height="1036.11" fill="white" transform="translate(666.668 800)"/>
</clipPath>
<clipPath id="clip2_1_698">
<rect width="1538.89" height="1488.89" fill="white" transform="translate(1036.11 1150)"/>
</clipPath>
<clipPath id="clip3_1_698">
<rect width="783.333" height="661.111" fill="white" transform="translate(1597.22 402.778)"/>
</clipPath>
<clipPath id="clip4_1_698">
<rect width="444.444" height="444.444" fill="white" transform="translate(113.891 1491.67)"/>
</clipPath>
<clipPath id="clip5_1_698">
<rect width="436.111" height="436.111" fill="white" transform="translate(2311.11 808.333)"/>
</clipPath>
<clipPath id="clip6_1_698">
<rect width="358.333" height="358.333" fill="white" transform="translate(2558.33 1283.33)"/>
</clipPath>
<clipPath id="clip7_1_698">
<rect width="594.444" height="147.222" fill="white" transform="translate(675 552.778)"/>
</clipPath>
<clipPath id="clip8_1_698">
<rect width="94.4444" height="94.4444" fill="white" transform="translate(1363.89 488.889)"/>
</clipPath>
<clipPath id="clip9_1_698">
<rect width="94.4444" height="94.4444" fill="white" transform="translate(416.668 2130.56)"/>
</clipPath>
</defs>
</svg>
