<svg width="341" height="128" viewBox="0 0 341 128" fill="none" xmlns="http://www.w3.org/2000/svg">
<g clip-path="url(#clip0_1_1679)">
<path d="M334.659 128H6.33314C2.86536 128 0.0546875 125.189 0.0546875 121.722V6.27845C0.0546875 2.81068 2.86536 0 6.33314 0H334.659C338.127 0 340.938 2.81068 340.938 6.27845V121.722C340.939 125.189 338.127 128 334.659 128Z" fill="#F5C845"/>
<path d="M19.0703 89.9757H38.083V108.988H19.0703V89.9757Z" fill="black"/>
<path d="M54.5547 89.9757H73.5673V108.988H54.5547V89.9757Z" fill="black"/>
<path d="M90.0312 89.9717H250.966V108.988H90.0312V89.9717Z" fill="black"/>
<path d="M267.438 89.9757H286.45V108.988H267.438V89.9757Z" fill="black"/>
<path d="M302.914 89.9757H321.927V108.988H302.914V89.9757Z" fill="black"/>
<path d="M19.0703 19.0126H38.083V38.0253H19.0703V19.0126Z" fill="black"/>
<path d="M54.5547 19.0126H73.5673V38.0253H54.5547V19.0126Z" fill="black"/>
<path d="M90.0312 19.0126H109.044V38.0253H90.0312V19.0126Z" fill="black"/>
<path d="M125.516 19.0126H144.528V38.0253H125.516V19.0126Z" fill="black"/>
<path d="M160.992 19.0126H180.005V38.0253H160.992V19.0126Z" fill="white"/>
<path d="M196.477 19.0126H215.489V38.0253H196.477V19.0126Z" fill="black"/>
<path d="M231.953 19.0126H250.966V38.0253H231.953V19.0126Z" fill="black"/>
<path d="M267.438 19.0126H286.45V38.0253H267.438V19.0126Z" fill="black"/>
<path d="M302.914 19.0126H321.927V38.0253H302.914V19.0126Z" fill="black"/>
<path d="M19.0703 54.4937H38.083V73.5063H19.0703V54.4937Z" fill="white"/>
<path d="M54.5547 54.4937H73.5673V73.5063H54.5547V54.4937Z" fill="black"/>
<path d="M90.0312 54.4937H109.044V73.5063H90.0312V54.4937Z" fill="white"/>
<path d="M125.516 54.4937H144.528V73.5063H125.516V54.4937Z" fill="black"/>
<path d="M160.992 54.4937H180.005V73.5063H160.992V54.4937Z" fill="black"/>
<path d="M196.477 54.4937H215.489V73.5063H196.477V54.4937Z" fill="white"/>
<path d="M231.953 54.4937H250.966V73.5063H231.953V54.4937Z" fill="black"/>
<path d="M267.438 54.4937H286.45V73.5063H267.438V54.4937Z" fill="white"/>
<path d="M302.914 54.4937H321.927V73.5063H302.914V54.4937Z" fill="black"/>
</g>
<defs>
<clipPath id="clip0_1_1679">
<rect width="341" height="128" fill="white"/>
</clipPath>
</defs>
</svg>
