<svg width="268" height="250" viewBox="0 0 268 250" fill="none" xmlns="http://www.w3.org/2000/svg">
<g clip-path="url(#clip0_1_2180)">
<path d="M267.998 91.5945V158.407C267.998 164.552 263.054 169.496 257.04 169.496H244.719V80.5027H257.04C263.054 80.5027 267.998 85.4468 267.998 91.5945Z" fill="black"/>
<path d="M210.108 22.1087V227.891L74.3359 173.639V76.3598L210.108 22.1087Z" fill="#2724F2"/>
<path d="M229.423 249.959H225.406C216.958 249.959 210.109 243.11 210.109 234.662V15.3381C210.11 6.89009 216.958 0.0413513 225.406 0.0413513H229.423C237.871 0.0413513 244.72 6.89009 244.72 15.3381V234.663C244.72 243.11 237.871 249.959 229.423 249.959Z" fill="#E45E47"/>
<path d="M24.375 76.3598H74.344V173.639H24.375V76.3598Z" fill="#E45E47"/>
<path d="M65.5165 249.959H88.3029C94.683 249.959 99.1433 243.647 97.0133 237.632L74.343 173.639H24.375L46.7017 236.663C49.5248 244.632 57.0625 249.959 65.5165 249.959V249.959Z" fill="#2724F2"/>
<path d="M24.3716 76.3598C10.9115 76.3598 0 87.2714 0 100.731V149.268C0 162.728 10.9115 173.639 24.3716 173.639V76.3598Z" fill="black"/>
</g>
<defs>
<clipPath id="clip0_1_2180">
<rect width="268" height="250" fill="white"/>
</clipPath>
</defs>
</svg>
