<svg width="365" height="222" viewBox="0 0 365 222" fill="none" xmlns="http://www.w3.org/2000/svg">
<g clip-path="url(#clip0_1_2195)">
<path d="M32.9405 32.5145C-10.4072 75.8572 -10.4072 146.142 32.9405 189.489C76.2881 232.837 146.573 232.837 189.915 189.489C229.976 149.429 233.02 86.3773 199.038 42.8256C196.248 39.2452 193.209 35.7969 189.915 32.5095C186.644 29.2382 183.219 26.2108 179.66 23.4315C136.114 -10.5902 73.0178 -7.56282 32.9405 32.5145V32.5145ZM170.035 52.3897C202.404 84.7582 202.404 137.24 170.035 169.608C137.672 201.972 85.1911 201.971 52.8226 169.608C20.4541 137.24 20.4541 84.7582 52.8226 52.3897C85.1901 20.0212 137.672 20.0212 170.035 52.3897Z" fill="#F5C845"/>
<path d="M194.315 110.996C194.315 156.772 157.205 193.882 111.429 193.882C65.6609 193.882 28.5509 156.772 28.5469 111C28.5469 65.2241 65.6569 28.114 111.433 28.114C157.209 28.114 194.319 65.2241 194.315 110.996Z" fill="white"/>
<path d="M245.61 93.1091V128.96H220.969C222.912 117.093 222.912 104.975 220.98 93.1091H245.61Z" fill="#F5C845"/>
<path d="M364.556 112.002C364.045 126.423 351.756 137.644 337.326 137.644H251.7C248.34 137.644 245.617 134.921 245.617 131.561V90.5068C245.617 87.1474 248.34 84.4251 251.699 84.4241L337.963 84.4101C352.981 84.4261 365.092 96.8655 364.556 112.002V112.002Z" fill="#2724F2"/>
<path d="M99.1062 140.612C102.24 143.256 105.479 145.991 108.921 148.975C109.64 149.598 110.533 149.91 111.428 149.91C112.321 149.91 113.215 149.598 113.934 148.975C117.376 145.992 120.616 143.257 123.748 140.614C129.192 136.019 133.895 132.049 137.975 128.2C145.898 120.725 153.228 112.241 153.228 100.873C153.228 94.4112 151.01 88.3595 146.981 83.8321C142.737 79.0615 136.853 76.4343 130.414 76.4343C123.226 76.4343 116.996 79.8326 112.397 86.2623C112.052 86.7444 111.729 87.2264 111.427 87.7035C111.124 87.2264 110.801 86.7444 110.456 86.2623C105.857 79.8326 99.6262 76.4343 92.4395 76.4343C85.9998 76.4343 80.1161 79.0615 75.8717 83.8311C71.8442 88.3576 69.625 94.4102 69.625 100.872C69.625 107.895 72.3503 114.374 78.1999 121.265C83.3065 127.276 90.6283 133.456 99.1062 140.612V140.612Z" fill="#E45E47"/>
</g>
<defs>
<clipPath id="clip0_1_2195">
<rect width="365" height="222" fill="white"/>
</clipPath>
</defs>
</svg>
