<svg width="406" height="239" viewBox="0 0 406 239" fill="none" xmlns="http://www.w3.org/2000/svg">
<g clip-path="url(#clip0_1_2187)">
<path d="M34.9126 35.2162C-11.6375 81.7603 -11.6375 157.237 34.9126 203.787C81.4626 250.337 156.939 250.337 203.483 203.787C246.503 160.768 249.772 93.0579 213.28 46.2886C210.283 42.4441 207.019 38.7406 203.483 35.2102C199.971 31.6979 196.291 28.4457 192.47 25.4607C145.707 -11.0716 77.9493 -7.82048 34.9126 35.2162V35.2162ZM182.133 56.5605C216.892 91.3197 216.892 147.678 182.133 182.438C147.38 217.191 91.021 217.191 56.2618 182.438C21.5026 147.678 21.5026 91.3197 56.2618 56.5605C91.022 21.8003 147.38 21.8003 182.133 56.5605V56.5605Z" fill="black"/>
<path d="M182.136 56.5595C216.895 91.3187 216.895 147.677 182.136 182.437C147.383 217.19 91.0239 217.19 56.2647 182.437C21.5055 147.677 21.5055 91.3187 56.2647 56.5595C91.0239 21.8003 147.383 21.8003 182.136 56.5595V56.5595Z" fill="white"/>
<path d="M259.996 100.288V138.787H236.828C238.916 126.044 238.916 113.031 236.84 100.288H259.996Z" fill="black"/>
<path d="M405.982 120.577C405.433 136.063 392.236 148.114 376.741 148.114H266.531C262.924 148.114 260 145.19 260 141.582V97.4938C260 93.8864 262.924 90.9625 266.531 90.9625L377.426 90.9474C393.553 90.9635 406.559 104.321 405.982 120.577V120.577Z" fill="#2724F2"/>
<path d="M118.752 112.344C130.433 112.344 139.902 102.874 139.902 91.1936C139.902 79.5127 130.433 70.0435 118.752 70.0435C107.071 70.0435 97.6016 79.5127 97.6016 91.1936C97.6016 102.874 107.071 112.344 118.752 112.344Z" fill="#E45E47"/>
<path d="M90.9577 166.332C80.7489 166.332 74.1424 155.593 78.6875 146.451C86.0064 131.73 101.199 121.614 118.754 121.614C136.31 121.614 151.503 131.731 158.821 146.451C163.365 155.593 156.76 166.332 146.551 166.332H90.9577Z" fill="#E45E47"/>
</g>
<defs>
<clipPath id="clip0_1_2187">
<rect width="406" height="239" fill="white"/>
</clipPath>
</defs>
</svg>
