<svg width="3000" height="3000" viewBox="0 0 3000 3000" fill="none" xmlns="http://www.w3.org/2000/svg">
<g clip-path="url(#clip0_1_1092)">
<path d="M1363.89 2324.72H981.727L1048.3 2234.28H1297.32L1363.89 2324.72Z" fill="#E45E47"/>
<path d="M1590.91 2436.11H754.713C754.713 2374.61 804.458 2324.74 865.854 2324.74H1479.76C1541.16 2324.74 1590.91 2374.61 1590.91 2436.11ZM309.202 2234.26C218.359 2234.26 144.445 2160.22 144.445 2069.22V1042.81C144.445 951.814 218.359 877.778 309.202 877.778H2035.16C2126 877.778 2199.91 951.814 2199.91 1042.81L2200 1132.64V2069.22C2200 2160.22 2126.08 2234.26 2035.24 2234.26H309.202V2234.26Z" fill="black"/>
<path d="M2113.68 1132.62L2113.64 2070.55C2112.96 2113.35 2078.08 2147.83 2035.19 2147.83H309.167C265.823 2147.83 230.719 2112.63 230.719 2069.21V1132.62H2113.68Z" fill="#2724F2"/>
<path d="M2113.66 1042.79V1132.63H230.715V1042.79C230.715 999.39 265.84 964.205 309.17 964.205H2035.2C2078.53 964.205 2113.66 999.39 2113.66 1042.79Z" fill="#E45E47"/>
<path d="M352.604 1070.47C364.762 1070.47 374.618 1060.6 374.618 1048.42C374.618 1036.24 364.762 1026.37 352.604 1026.37C340.446 1026.37 330.59 1036.24 330.59 1048.42C330.59 1060.6 340.446 1070.47 352.604 1070.47Z" fill="white"/>
<path d="M462.592 1070.47C474.75 1070.47 484.606 1060.6 484.606 1048.42C484.606 1036.24 474.75 1026.37 462.592 1026.37C450.434 1026.37 440.578 1036.24 440.578 1048.42C440.578 1060.6 450.434 1070.47 462.592 1070.47Z" fill="white"/>
<path d="M572.581 1070.47C584.739 1070.47 594.595 1060.6 594.595 1048.42C594.595 1036.24 584.739 1026.37 572.581 1026.37C560.422 1026.37 550.566 1036.24 550.566 1048.42C550.566 1060.6 560.422 1070.47 572.581 1070.47Z" fill="white"/>
</g>
<g clip-path="url(#clip1_1_1092)">
<path d="M2405.55 647.301V736.293H822.23V647.301C822.23 604.304 857.099 569.444 900.111 569.444H2327.67C2370.68 569.444 2405.55 604.304 2405.55 647.301Z" fill="black"/>
<path d="M2405.56 736.293V1699.92C2405.56 1742.92 2370.69 1777.78 2327.67 1777.78H900.107C857.091 1777.78 822.223 1742.92 822.223 1699.92V736.293H2405.56Z" fill="#F5C845"/>
<path d="M976.508 674.714C988.576 674.714 998.359 664.935 998.359 652.871C998.359 640.807 988.576 631.027 976.508 631.027C964.439 631.027 954.656 640.807 954.656 652.871C954.656 664.935 964.439 674.714 976.508 674.714Z" fill="white"/>
<path d="M1085.69 674.714C1097.76 674.714 1107.54 664.935 1107.54 652.871C1107.54 640.807 1097.76 631.027 1085.69 631.027C1073.62 631.027 1063.84 640.807 1063.84 652.871C1063.84 664.935 1073.62 674.714 1085.69 674.714Z" fill="white"/>
<path d="M1194.87 674.714C1206.94 674.714 1216.73 664.935 1216.73 652.871C1216.73 640.807 1206.94 631.027 1194.87 631.027C1182.81 631.027 1173.02 640.807 1173.02 652.871C1173.02 664.935 1182.81 674.714 1194.87 674.714Z" fill="white"/>
<path d="M1397.52 569.444H1408.88V736.297H1397.52V569.444ZM1639.42 569.444H1650.78V736.297H1639.42V569.444ZM1881.31 569.444H1892.68V736.297H1881.31V569.444ZM2123.21 569.444H2134.58V736.297H2123.21V569.444Z" fill="white"/>
</g>
<g clip-path="url(#clip2_1_1092)">
<path d="M919.446 2050H347.234V2049.94L535.549 1835.19L633.354 1928.49L731.132 1835.19L919.446 2050Z" fill="#E45E47"/>
<path d="M535.537 1835.19L347.223 2049.94V1655.56L535.537 1835.19ZM919.434 1655.56V2050L731.12 1835.19L919.434 1655.56Z" fill="black"/>
<path d="M919.446 1655.56L731.132 1835.19L633.354 1928.49L535.549 1835.19L347.234 1655.56H919.446Z" fill="white"/>
</g>
<g clip-path="url(#clip3_1_1092)">
<path d="M633.335 1329.39V1555.56H338.891V1222.22H525.701V1329.39H633.335Z" fill="white"/>
<path d="M633.335 1329.39V1555.56H338.891V1222.22H525.701V1329.39H633.335Z" fill="#E45E47"/>
<path d="M633.319 1329.46H525.645V1222.24L633.319 1329.46Z" fill="black"/>
<path d="M387.574 1317.48H476.979V1329.39H387.574V1317.48ZM387.574 1370.85H584.639V1382.75H387.574V1370.85ZM387.574 1424.21H584.639V1436.11H387.574V1424.21ZM387.574 1477.58H584.639V1489.48H387.574V1477.58Z" fill="white"/>
</g>
<g clip-path="url(#clip4_1_1092)">
<path d="M828.659 385.16L835.128 402.637C835.693 404.167 836.583 405.556 837.736 406.709C838.889 407.862 840.278 408.751 841.807 409.317L859.284 415.785C869.126 419.428 869.126 433.35 859.284 436.993L841.807 443.461C840.278 444.026 838.889 444.916 837.736 446.069C836.583 447.222 835.693 448.611 835.128 450.14L828.659 467.618C825.017 477.46 811.095 477.46 807.452 467.618L800.983 450.14C800.418 448.611 799.528 447.222 798.375 446.069C797.222 444.916 795.834 444.026 794.304 443.461L776.827 436.993C766.985 433.35 766.985 419.428 776.827 415.785L794.304 409.317C795.834 408.751 797.222 407.862 798.375 406.709C799.528 405.556 800.418 404.167 800.983 402.637L807.452 385.16C811.095 375.318 825.017 375.318 828.659 385.16V385.16Z" fill="black"/>
</g>
<g clip-path="url(#clip5_1_1092)">
<path d="M688.891 689.943V690.378C688.891 713.913 669.707 733.009 646.049 733.009H381.708C358.046 733.009 338.891 713.91 338.891 690.378C338.891 677.35 344.8 665.008 355.003 656.824L363.495 650.018C373.187 642.237 381.008 632.39 386.381 621.2C391.754 610.011 394.544 597.763 394.546 585.357V540.554C394.546 484.231 433.653 437.009 486.293 424.285C495.621 422.023 505.186 420.884 514.786 420.892C523.941 420.892 532.87 421.912 541.464 423.85C595.049 435.91 635.026 483.59 635.026 540.551V586.192C635.03 598.371 637.722 610.399 642.911 621.424C648.101 632.449 655.661 642.201 665.054 649.987L673.316 656.845C678.188 660.886 682.109 665.945 684.801 671.665C687.492 677.385 688.889 683.625 688.891 689.943Z" fill="#F5C845"/>
<path d="M541.464 402.461V423.853C532.709 421.882 523.761 420.89 514.786 420.896C505.186 420.887 495.621 422.026 486.293 424.288V402.461C486.293 387.29 498.646 375 513.889 375C529.135 375 541.464 387.29 541.464 402.461ZM460.52 732.999C460.52 762.332 484.412 786.111 513.885 786.111C543.359 786.111 567.251 762.332 567.251 732.999H460.52Z" fill="black"/>
</g>
<g clip-path="url(#clip6_1_1092)">
<path d="M2780.99 2050H2563.45C2534.55 2050 2511.11 2026.56 2511.11 1997.66V1780.12C2511.11 1751.21 2534.55 1727.78 2563.45 1727.78H2780.99C2809.9 1727.78 2833.33 1751.21 2833.33 1780.12V1997.66C2833.33 2026.56 2809.9 2050 2780.99 2050Z" fill="#E45E47"/>
<path d="M2672.22 1876.65C2696.68 1876.65 2716.51 1856.82 2716.51 1832.36C2716.51 1807.9 2696.68 1788.08 2672.22 1788.08C2647.76 1788.08 2627.93 1807.9 2627.93 1832.36C2627.93 1856.82 2647.76 1876.65 2672.22 1876.65Z" fill="white"/>
<path d="M2614.02 1989.7C2592.64 1989.7 2578.81 1967.21 2588.32 1948.07C2603.65 1917.24 2635.46 1896.06 2672.22 1896.06C2708.98 1896.06 2740.79 1917.24 2756.12 1948.07C2765.63 1967.21 2751.8 1989.7 2730.42 1989.7H2614.02Z" fill="white"/>
</g>
<g clip-path="url(#clip7_1_1092)">
<path d="M2713.89 1094.52V1327.7C2713.89 1349.15 2696.62 1366.4 2675.61 1366.4H2632.57V1055.81H2675.61C2696.62 1055.81 2713.89 1073.07 2713.89 1094.52Z" fill="black"/>
<path d="M2511.69 852.016V1570.21L2037.44 1380.86V1041.35L2511.69 852.016Z" fill="#2724F2"/>
<path d="M2579.14 1647.22H2565.11C2535.61 1647.22 2511.68 1623.32 2511.68 1593.84V828.386C2511.69 798.902 2535.61 775 2565.11 775H2579.14C2608.65 775 2632.58 798.902 2632.58 828.386V1593.84C2632.58 1623.32 2608.65 1647.22 2579.14 1647.22V1647.22ZM1862.91 1041.35H2037.45V1380.86H1862.91V1041.35Z" fill="#E45E47"/>
<path d="M2006.61 1647.22H2086.2C2108.49 1647.22 2124.07 1625.19 2116.63 1604.2L2037.44 1380.86H1862.91L1940.89 1600.82C1945.7 1614.39 1954.61 1626.14 1966.38 1634.45C1978.14 1642.76 1992.2 1647.22 2006.61 1647.22Z" fill="#2724F2"/>
<path d="M1862.91 1041.35C1815.89 1041.35 1777.78 1079.44 1777.78 1126.41V1295.81C1777.78 1342.78 1815.89 1380.86 1862.91 1380.86V1041.35Z" fill="black"/>
</g>
<g clip-path="url(#clip8_1_1092)">
<path d="M1631.84 1558.07H1115.22C1115.22 1558.07 1094.55 1416.15 1240.77 1332.61C1387.02 1249.06 1340.23 1150.86 1340.23 1150.86L1292.79 1171.77C1285.48 1174.99 1277.59 1176.65 1269.61 1176.65H1242.96C1233.8 1176.65 1224.74 1178.54 1216.34 1182.19L1152.73 1209.84C1125.02 1221.88 1092.52 1217.05 1070.35 1196.5C1053.09 1180.5 1038.72 1157.91 1043.72 1128.72C1046.86 1110.37 1057.46 1094.13 1072.13 1082.72L1157.92 1015.96C1165.34 1010.18 1171.78 1003.23 1176.97 995.385L1207.22 949.702C1217.48 934.222 1232.56 922.588 1250.12 916.621L1297.34 900.574L1266.77 822.222C1266.77 822.222 1348.36 823.927 1382.34 881.836C1382.34 881.836 1548.91 868.223 1630.49 1082.86C1712.07 1297.47 1631.84 1558.07 1631.84 1558.07Z" fill="#E45E47"/>
<path d="M1701.33 1634.69V1667.93H1045.89V1634.69C1045.89 1592.35 1080.18 1558.07 1122.34 1558.07H1624.88C1667.05 1558.07 1701.33 1592.35 1701.33 1634.69V1634.69Z" fill="white"/>
<path d="M1777.78 1744.54V1777.78H969.445V1744.54C969.445 1702.2 1003.73 1667.92 1045.89 1667.92H1701.33C1743.49 1667.92 1777.78 1702.2 1777.78 1744.54V1744.54Z" fill="black"/>
</g>
<g clip-path="url(#clip9_1_1092)">
<path d="M1766.36 1971.84C1614.92 2123.15 1614.92 2368.51 1766.36 2519.84C1917.81 2671.17 2163.37 2671.17 2314.8 2519.84C2454.76 2379.99 2465.4 2159.88 2346.67 2007.84C2336.81 1995.18 2326.16 1983.16 2314.8 1971.82C2303.51 1960.54 2291.55 1949.96 2278.97 1940.13C2126.83 1821.36 1906.38 1831.93 1766.36 1971.84ZM2245.34 2041.22C2358.43 2154.22 2358.43 2337.44 2245.34 2450.43C2132.27 2563.41 1948.91 2563.41 1835.83 2450.43C1722.74 2337.44 1722.74 2154.22 1835.83 2041.22C1948.91 1928.23 2132.27 1928.23 2245.34 2041.22Z" fill="#F5C845"/>
<path d="M2330.16 2245.82C2330.16 2405.62 2200.51 2535.17 2040.58 2535.17C1880.68 2535.17 1751.02 2405.62 1751.01 2245.83C1751.01 2086.03 1880.66 1956.48 2040.59 1956.48C2200.52 1956.48 2330.18 2086.03 2330.16 2245.82Z" fill="white"/>
<path d="M2509.39 2183.38V2308.53H2423.29C2430.08 2267.09 2430.09 2224.82 2423.33 2183.38H2509.39Z" fill="#F5C845"/>
<path d="M2924.94 2249.33C2923.16 2299.67 2880.22 2338.85 2829.81 2338.85H2530.65C2525.01 2338.85 2519.6 2336.61 2515.62 2332.63C2511.63 2328.65 2509.39 2323.24 2509.39 2317.61V2174.29C2509.39 2168.66 2511.63 2163.26 2515.62 2159.28C2519.6 2155.3 2525.01 2153.06 2530.64 2153.06L2832.03 2153.01C2884.5 2153.06 2926.81 2196.49 2924.94 2249.33V2249.33Z" fill="#2724F2"/>
<path d="M1997.54 2349.21C2009.03 2358.86 2020.46 2368.59 2031.83 2378.4C2034.26 2380.51 2037.37 2381.67 2040.58 2381.67C2043.8 2381.67 2046.91 2380.51 2049.34 2378.4C2060.7 2368.6 2072.13 2358.87 2083.63 2349.22C2102.65 2333.17 2119.08 2319.32 2133.34 2305.88C2161.02 2279.78 2186.63 2250.17 2186.63 2210.48C2186.63 2187.92 2178.88 2166.8 2164.8 2150.99C2149.97 2134.34 2129.42 2125.16 2106.92 2125.16C2081.8 2125.16 2060.04 2137.03 2043.97 2159.47C2042.76 2161.16 2041.64 2162.84 2040.58 2164.51C2039.5 2162.8 2038.37 2161.12 2037.19 2159.47C2021.12 2137.03 1999.35 2125.16 1974.24 2125.16C1951.74 2125.16 1931.19 2134.34 1916.36 2150.99C1902.29 2166.79 1894.54 2187.92 1894.54 2210.48C1894.54 2234.99 1904.06 2257.61 1924.49 2281.67C1942.34 2302.65 1967.92 2324.23 1997.54 2349.21V2349.21Z" fill="#E45E47"/>
</g>
<defs>
<clipPath id="clip0_1_1092">
<rect width="2055.56" height="1558.33" fill="white" transform="translate(144.445 877.778)"/>
</clipPath>
<clipPath id="clip1_1_1092">
<rect width="1583.33" height="1208.33" fill="white" transform="translate(822.223 569.444)"/>
</clipPath>
<clipPath id="clip2_1_1092">
<rect width="572.222" height="394.444" fill="white" transform="translate(347.223 1655.56)"/>
</clipPath>
<clipPath id="clip3_1_1092">
<rect width="294.444" height="333.333" fill="white" transform="translate(338.891 1222.22)"/>
</clipPath>
<clipPath id="clip4_1_1092">
<rect width="97.2222" height="97.2222" fill="white" transform="translate(769.445 377.778)"/>
</clipPath>
<clipPath id="clip5_1_1092">
<rect width="350" height="411.111" fill="white" transform="translate(338.891 375)"/>
</clipPath>
<clipPath id="clip6_1_1092">
<rect width="322.222" height="322.222" fill="white" transform="translate(2511.11 1727.78)"/>
</clipPath>
<clipPath id="clip7_1_1092">
<rect width="936.111" height="872.222" fill="white" transform="translate(1777.78 775)"/>
</clipPath>
<clipPath id="clip8_1_1092">
<rect width="808.333" height="955.556" fill="white" transform="translate(969.445 822.222)"/>
</clipPath>
<clipPath id="clip9_1_1092">
<rect width="1272.22" height="775" fill="white" transform="translate(1652.78 1858.33)"/>
</clipPath>
</defs>
</svg>
