<svg width="102" height="156" viewBox="0 0 102 156" fill="none" xmlns="http://www.w3.org/2000/svg">
<g clip-path="url(#clip0_1_2030)">
<path d="M98.745 0L79.4386 46.3917H74.5442L55.1875 0H98.745Z" fill="black"/>
<path d="M74.5438 46.3917H22.6245L3.25781 0H55.1871L74.5438 46.3917Z" fill="#2724F2"/>
<path d="M79.4365 46.3917V62.8941C71.3159 57.4067 61.5271 54.2107 50.9945 54.2107C40.4619 54.2107 30.6831 57.4067 22.5625 62.8941V46.3917H79.4365Z" fill="#E45E47"/>
<path d="M50.9967 156C79.1053 156 101.892 133.213 101.892 105.105C101.892 76.9962 79.1053 54.2097 50.9967 54.2097C22.8881 54.2097 0.101562 76.9962 0.101562 105.105C0.101562 133.213 22.8881 156 50.9967 156Z" fill="#F5C845"/>
<path d="M53.2254 82.0618L57.3188 94.6607C57.6324 95.6255 58.5309 96.2778 59.5449 96.2778H72.7921C75.0594 96.2778 76.0021 99.1793 74.1679 100.512L63.4504 108.299C62.6303 108.895 62.2866 109.951 62.6002 110.916L66.6936 123.515C67.3941 125.672 64.9258 127.465 63.0916 126.132L52.3741 118.345C51.554 117.749 50.4425 117.749 49.6224 118.345L38.9049 126.132C37.0707 127.465 34.6024 125.672 35.3029 123.515L39.3963 110.916C39.7099 109.951 39.3662 108.895 38.5461 108.299L27.8286 100.512C25.9944 99.1793 26.9371 96.2778 29.2044 96.2778H42.4516C43.4656 96.2778 44.3641 95.6245 44.6777 94.6607L48.7711 82.0618C49.4736 79.905 52.5249 79.905 53.2254 82.0618Z" fill="black"/>
</g>
<defs>
<clipPath id="clip0_1_2030">
<rect width="102" height="156" fill="white"/>
</clipPath>
</defs>
</svg>
