<svg width="304" height="227" viewBox="0 0 304 227" fill="none" xmlns="http://www.w3.org/2000/svg">
<g clip-path="url(#clip0_1_1938)">
<path d="M304 56.2111V212.35C304 220.295 297.569 226.726 289.623 226.726H14.3767C6.43067 226.727 0 220.296 0 212.351V56.2111C0 48.275 6.43067 41.8344 14.3767 41.8344H289.623C297.568 41.8354 304 48.276 304 56.2111V56.2111Z" fill="#E45E47"/>
<path d="M0 84.7235H304V183.848H0V84.7235Z" fill="#2724F2"/>
<path d="M151.997 194.536C185.275 194.536 212.252 167.559 212.252 134.281C212.252 101.004 185.275 74.0267 151.997 74.0267C118.719 74.0267 91.7422 101.004 91.7422 134.281C91.7422 167.559 118.719 194.536 151.997 194.536Z" fill="#F5C845"/>
<path d="M220.85 41.8344H198.985V37.5643C198.985 29.0571 192.066 22.1383 183.561 22.1383H120.43C111.925 22.1383 105.006 29.0571 105.006 37.5643V41.8344H83.1406V37.5643C83.1416 17.0009 99.87 0.272568 120.431 0.272568H183.562C204.123 0.272568 220.851 17.0009 220.851 37.5643V41.8344H220.85Z" fill="black"/>
<path d="M176.214 126.756H159.528V110.07C159.528 105.914 156.159 102.545 152.003 102.545H152.002C147.846 102.545 144.477 105.914 144.477 110.07V126.756H127.791C123.634 126.756 120.266 130.125 120.266 134.281C120.266 138.437 123.634 141.806 127.791 141.806H144.477V158.493C144.477 162.649 147.846 166.018 152.002 166.018H152.003C156.159 166.018 159.528 162.649 159.528 158.493V141.806H176.214C180.37 141.806 183.739 138.437 183.739 134.281C183.738 130.125 180.369 126.756 176.214 126.756Z" fill="white"/>
</g>
<defs>
<clipPath id="clip0_1_1938">
<rect width="304" height="227" fill="white"/>
</clipPath>
</defs>
</svg>
