<svg width="3000" height="3000" viewBox="0 0 3000 3000" fill="none" xmlns="http://www.w3.org/2000/svg">
<g clip-path="url(#clip0_1_336)">
<path d="M1726.37 2641.63H1305.47L1378.79 2542.37H1653.05L1726.37 2641.63Z" fill="#E45E47"/>
<path d="M1976.39 2763.89H1055.45C1055.45 2696.39 1110.24 2641.65 1177.86 2641.65H1853.99C1921.61 2641.65 1976.39 2696.38 1976.39 2763.89ZM564.791 2542.35C464.737 2542.35 383.333 2461.09 383.333 2361.21V1195.03C383.333 1095.15 464.737 1013.89 564.791 1013.89H2465.67C2565.72 1013.89 2647.13 1095.15 2647.13 1195.03L2647.23 1293.62V2361.21C2647.23 2461.09 2565.82 2542.35 2465.77 2542.35H564.791V2542.35Z" fill="black"/>
<path d="M2552.14 1293.61L2552.1 2253.43H478.326V1293.61H2552.14Z" fill="#F5C845"/>
<path d="M2552.12 1195V1293.6H478.349V1195C478.349 1147.36 517.037 1108.74 564.758 1108.74H2465.72C2513.44 1108.75 2552.12 1147.36 2552.12 1195Z" fill="#E45E47"/>
<path d="M612.591 1225.37C625.981 1225.37 636.836 1214.54 636.836 1201.17C636.836 1187.81 625.981 1176.97 612.591 1176.97C599.201 1176.97 588.347 1187.81 588.347 1201.17C588.347 1214.54 599.201 1225.37 612.591 1225.37Z" fill="white"/>
<path d="M733.728 1225.37C747.118 1225.37 757.973 1214.54 757.973 1201.17C757.973 1187.81 747.118 1176.97 733.728 1176.97C720.338 1176.97 709.483 1187.81 709.483 1201.17C709.483 1214.54 720.338 1225.37 733.728 1225.37Z" fill="white"/>
<path d="M854.862 1225.37C868.252 1225.37 879.106 1214.54 879.106 1201.17C879.106 1187.81 868.252 1176.97 854.862 1176.97C841.472 1176.97 830.617 1187.81 830.617 1201.17C830.617 1214.54 841.472 1225.37 854.862 1225.37Z" fill="white"/>
<path d="M1515.92 2447.66C1543.45 2447.66 1565.77 2425.38 1565.77 2397.9C1565.77 2370.42 1543.45 2348.14 1515.92 2348.14C1488.39 2348.14 1466.07 2370.42 1466.07 2397.9C1466.07 2425.38 1488.39 2447.66 1515.92 2447.66Z" fill="white"/>
</g>
<g clip-path="url(#clip1_1_336)">
<path d="M1242.3 1413.89V1761.43L1004.18 1902.98L766.019 1761.43V1413.89H1242.3Z" fill="white"/>
<path d="M1330.55 1708.97V2055.56H677.792V1708.97L1004.19 1902.98L1242.31 1761.41L1330.55 1708.97Z" fill="#2724F2"/>
<path d="M766.018 1656.54V1761.43L677.777 1708.98L766.018 1656.54ZM1330.54 1708.98L1242.3 1761.43V1656.54L1330.54 1708.98Z" fill="#E45E47"/>
<path d="M1260.92 2055.56H677.792V1708.97L1004.19 1902.98L1260.92 2055.56ZM850.463 1508.66H1157.85V1520.63H850.463V1508.66ZM850.463 1569.52H1157.85V1581.49H850.463V1569.52ZM850.463 1630.39H1157.85V1642.36H850.463V1630.39ZM850.463 1691.25H1157.85V1703.22H850.463V1691.25Z" fill="black"/>
</g>
<g clip-path="url(#clip2_1_336)">
<path d="M830.556 2638.89H150.012V2638.82L373.979 2387.77L490.301 2496.84L606.592 2387.77L830.556 2638.89Z" fill="#F5C845"/>
<path d="M373.967 2387.77L150 2638.82V2177.78L373.967 2387.77Z" fill="black"/>
<path d="M830.544 2177.78V2638.89L606.577 2387.77L830.544 2177.78Z" fill="#2724F2"/>
<path d="M830.556 2177.78L606.592 2387.77L490.301 2496.84L373.979 2387.77L150.012 2177.78H830.556Z" fill="#E45E47"/>
</g>
<g clip-path="url(#clip3_1_336)">
<path d="M1357.04 652.249L1363.88 670.725C1364.48 672.341 1365.42 673.81 1366.64 675.028C1367.86 676.247 1369.33 677.188 1370.94 677.785L1389.42 684.624C1399.82 688.474 1399.82 703.192 1389.42 707.043L1370.94 713.881C1369.33 714.479 1367.86 715.419 1366.64 716.638C1365.42 717.857 1364.48 719.325 1363.88 720.942L1357.04 739.418C1353.19 749.822 1338.47 749.822 1334.62 739.418L1327.79 720.942C1327.19 719.325 1326.25 717.857 1325.03 716.638C1323.81 715.419 1322.34 714.479 1320.72 713.881L1302.25 707.043C1291.84 703.192 1291.84 688.474 1302.25 684.624L1320.72 677.785C1322.34 677.188 1323.81 676.247 1325.03 675.028C1326.25 673.81 1327.19 672.341 1327.79 670.725L1334.62 652.249C1338.47 641.844 1353.19 641.844 1357.04 652.249V652.249Z" fill="black"/>
</g>
<g clip-path="url(#clip4_1_336)">
<path d="M2366.67 740.878V782.374H1563.89V740.878C1563.89 687.664 1607.26 644.444 1660.84 644.444H2269.72C2323.2 644.444 2366.67 687.664 2366.67 740.878Z" fill="black"/>
<path d="M1563.89 782.374H2366.67V1923.15H1563.89V782.374Z" fill="#2724F2"/>
<path d="M2366.67 1923.15V1964.65C2366.67 2017.92 2323.2 2061.11 2269.72 2061.11H1660.84C1607.26 2061.11 1563.89 2017.92 1563.89 1964.65V1923.15H2366.67Z" fill="black"/>
</g>
<g clip-path="url(#clip5_1_336)">
<path d="M2497.31 2891.67H648.542C555.912 2891.67 480.556 2816.29 480.556 2723.65V2641.13C480.556 2639.64 481.146 2638.22 482.197 2637.17C483.248 2636.12 484.673 2635.53 486.159 2635.53C487.645 2635.53 489.07 2636.12 490.121 2637.17C491.172 2638.22 491.762 2639.64 491.762 2641.13V2723.65C491.762 2810.11 562.094 2880.46 648.542 2880.46H2497.31C2702.45 2880.46 2869.35 2713.53 2869.35 2508.35V922.272C2869.35 597.586 2605.25 333.431 2280.62 333.431H1771.9C1770.41 333.431 1768.99 332.84 1767.93 331.789C1766.88 330.738 1766.29 329.313 1766.29 327.827C1766.29 326.34 1766.88 324.915 1767.93 323.864C1768.99 322.813 1770.41 322.222 1771.9 322.222H2280.62C2611.43 322.222 2880.56 591.403 2880.56 922.272V2508.34C2880.56 2719.71 2708.63 2891.67 2497.31 2891.67V2891.67Z" fill="black"/>
</g>
<g clip-path="url(#clip6_1_336)">
<path d="M1914.4 1297.22H1452.28C1339.03 1297.22 1247.22 1204.57 1247.22 1090.28C1247.22 975.984 1339.03 883.333 1452.28 883.333H1914.4L1914.39 883.337C2027.82 883.337 2120 976.64 2119.44 1091.39C2119.17 1143.19 2100.12 1190.82 2068.39 1227.03C2065.35 1230.37 2064.52 1235.38 2066.73 1239.56C2073.03 1252.7 2080.71 1265.12 2089.64 1276.6C2093.22 1280.78 2090.74 1286.91 2085.22 1287.74C2077.22 1288.86 2068.94 1288.02 2060.66 1286.63C2044.1 1283.57 2028.65 1276.88 2020.37 1272.98C2017.33 1271.31 2013.47 1271.59 2010.16 1273.26C2007.4 1274.65 2004.91 1276.04 2002.15 1277.16C1976.21 1289.69 1947.51 1296.65 1917.16 1297.21L1914.4 1297.22Z" fill="#E45E47"/>
<path d="M1914.4 1297.22H1452.28C1339.03 1297.22 1247.22 1204.57 1247.22 1090.28C1247.22 975.984 1339.03 883.333 1452.28 883.333H1914.4L1914.39 883.337C2027.82 883.337 2120 976.64 2119.44 1091.39C2119.17 1143.19 2100.12 1190.82 2068.39 1227.03C2065.35 1230.37 2064.52 1235.38 2066.73 1239.56C2073.03 1252.7 2080.71 1265.12 2089.64 1276.6C2093.22 1280.78 2090.74 1286.91 2085.22 1287.74C2077.22 1288.86 2068.94 1288.02 2060.66 1286.63C2044.1 1283.57 2028.65 1276.88 2020.37 1272.98C2017.33 1271.31 2013.47 1271.59 2010.16 1273.26C2007.4 1274.65 2004.91 1276.04 2002.15 1277.16C1976.21 1289.69 1947.51 1296.65 1917.16 1297.21L1914.4 1297.22Z" fill="#F5C845"/>
<path d="M1599.12 1127.16C1619.3 1127.16 1635.66 1110.65 1635.66 1090.28C1635.66 1069.91 1619.3 1053.39 1599.12 1053.39C1578.93 1053.39 1562.57 1069.91 1562.57 1090.28C1562.57 1110.65 1578.93 1127.16 1599.12 1127.16Z" fill="black"/>
<path d="M1767.55 1127.16C1787.73 1127.16 1804.1 1110.65 1804.1 1090.28C1804.1 1069.91 1787.73 1053.39 1767.55 1053.39C1747.36 1053.39 1731 1069.91 1731 1090.28C1731 1110.65 1747.36 1127.16 1767.55 1127.16Z" fill="black"/>
<path d="M1935.98 1127.16C1956.17 1127.16 1972.53 1110.65 1972.53 1090.28C1972.53 1069.91 1956.17 1053.39 1935.98 1053.39C1915.8 1053.39 1899.44 1069.91 1899.44 1090.28C1899.44 1110.65 1915.8 1127.16 1935.98 1127.16Z" fill="black"/>
<path d="M1430.68 1127.16C1450.87 1127.16 1467.23 1110.65 1467.23 1090.28C1467.23 1069.91 1450.87 1053.39 1430.68 1053.39C1410.5 1053.39 1394.13 1069.91 1394.13 1090.28C1394.13 1110.65 1410.5 1127.16 1430.68 1127.16Z" fill="black"/>
</g>
<g clip-path="url(#clip7_1_336)">
<path d="M2110.93 1788.89H2561.28C2671.65 1788.89 2761.11 1699.97 2761.11 1590.28C2761.11 1480.59 2671.65 1391.67 2561.28 1391.67H2110.93L2110.94 1391.67C2000.4 1391.67 1910.57 1481.22 1911.12 1591.34C1911.38 1641.06 1929.94 1686.77 1960.87 1721.52C1963.83 1724.73 1964.63 1729.54 1962.48 1733.55C1956.35 1746.16 1948.86 1758.08 1940.16 1769.1C1936.67 1773.11 1939.09 1778.99 1944.46 1779.79C1952.26 1780.86 1960.33 1780.06 1968.4 1778.72C1984.54 1775.78 1999.6 1769.37 2007.66 1765.62C2010.62 1764.02 2014.39 1764.29 2017.61 1765.89C2020.31 1767.23 2022.73 1768.56 2025.41 1769.63C2050.69 1781.66 2078.66 1788.34 2108.25 1788.88L2110.93 1788.89Z" fill="white"/>
<path d="M2110.93 1788.89H2561.28C2671.65 1788.89 2761.11 1699.97 2761.11 1590.28C2761.11 1480.59 2671.65 1391.67 2561.28 1391.67H2110.93L2110.94 1391.67C2000.4 1391.67 1910.57 1481.22 1911.12 1591.34C1911.38 1641.06 1929.94 1686.77 1960.87 1721.52C1963.83 1724.73 1964.63 1729.54 1962.48 1733.55C1956.35 1746.16 1948.86 1758.08 1940.16 1769.1C1936.67 1773.11 1939.09 1778.99 1944.46 1779.79C1952.26 1780.86 1960.33 1780.06 1968.4 1778.72C1984.54 1775.78 1999.6 1769.37 2007.66 1765.62C2010.62 1764.02 2014.39 1764.29 2017.61 1765.89C2020.31 1767.23 2022.73 1768.56 2025.41 1769.63C2050.69 1781.66 2078.66 1788.34 2108.25 1788.88L2110.93 1788.89Z" fill="#E45E47"/>
<path d="M2418.18 1625.68C2398.51 1625.68 2382.57 1609.83 2382.57 1590.28C2382.57 1570.73 2398.51 1554.88 2418.18 1554.88C2437.85 1554.88 2453.8 1570.73 2453.8 1590.28C2453.8 1609.83 2437.85 1625.68 2418.18 1625.68Z" fill="black"/>
<path d="M2254.04 1625.68C2234.37 1625.68 2218.42 1609.83 2218.42 1590.28C2218.42 1570.73 2234.37 1554.88 2254.04 1554.88C2273.71 1554.88 2289.66 1570.73 2289.66 1590.28C2289.66 1609.83 2273.71 1625.68 2254.04 1625.68Z" fill="black"/>
<path d="M2089.9 1625.68C2070.22 1625.68 2054.28 1609.83 2054.28 1590.28C2054.28 1570.73 2070.22 1554.88 2089.9 1554.88C2109.57 1554.88 2125.51 1570.73 2125.51 1590.28C2125.51 1609.83 2109.57 1625.68 2089.9 1625.68Z" fill="black"/>
<path d="M2582.33 1625.68C2562.65 1625.68 2546.71 1609.83 2546.71 1590.28C2546.71 1570.73 2562.65 1554.88 2582.33 1554.88C2602 1554.88 2617.94 1570.73 2617.94 1590.28C2617.94 1609.83 2602 1625.68 2582.33 1625.68Z" fill="black"/>
</g>
<g clip-path="url(#clip8_1_336)">
<path d="M675.02 566.817C676.647 692.691 778.119 797.101 902.038 804.907H905.292C910.17 805.559 914.725 805.559 919.929 805.559C955.706 804.907 989.53 796.779 1020.1 782.142C1023.35 780.841 1026.28 779.217 1029.53 777.59C1033.44 775.641 1037.99 775.314 1041.57 777.264C1051.32 781.819 1069.54 789.625 1089.05 793.202C1098.81 794.829 1108.57 795.804 1118 794.503C1124.5 793.528 1127.43 786.371 1123.2 781.493C1112.68 768.084 1103.63 753.581 1096.21 738.234C1093.6 733.356 1094.58 727.5 1098.16 723.597C1135.56 681.313 1158 625.692 1158.33 565.198C1158.98 431.183 1050.35 322.222 916.674 322.222C911.144 322.222 905.618 322.548 900.411 323.197C773.242 331.329 673.392 437.688 675.02 566.817Z" fill="#E45E47"/>
<path d="M1041.85 596.402C1059.91 596.402 1074.55 581.76 1074.55 563.698C1074.55 545.636 1059.91 530.994 1041.85 530.994C1023.79 530.994 1009.14 545.636 1009.14 563.698C1009.14 581.76 1023.79 596.402 1041.85 596.402Z" fill="black"/>
<path d="M916.727 596.402C934.788 596.402 949.429 581.76 949.429 563.698C949.429 545.636 934.788 530.994 916.727 530.994C898.666 530.994 884.024 545.636 884.024 563.698C884.024 581.76 898.666 596.402 916.727 596.402Z" fill="black"/>
<path d="M791.607 596.402C809.668 596.402 824.309 581.76 824.309 563.698C824.309 545.636 809.668 530.994 791.607 530.994C773.546 530.994 758.904 545.636 758.904 563.698C758.904 581.76 773.546 596.402 791.607 596.402Z" fill="black"/>
</g>
<g clip-path="url(#clip9_1_336)">
<path d="M2643.15 805.026L2649.99 823.502C2650.59 825.119 2651.53 826.587 2652.75 827.806C2653.97 829.025 2655.43 829.965 2657.05 830.563L2675.53 837.401C2685.93 841.252 2685.93 855.97 2675.53 859.821L2657.05 866.659C2655.43 867.256 2653.97 868.197 2652.75 869.416C2651.53 870.635 2650.59 872.103 2649.99 873.72L2643.15 892.196C2639.3 902.6 2624.58 902.6 2620.73 892.196L2613.89 873.72C2613.3 872.103 2612.36 870.635 2611.14 869.416C2609.92 868.197 2608.45 867.256 2606.83 866.659L2588.36 859.821C2577.95 855.97 2577.95 841.252 2588.36 837.401L2606.83 830.563C2608.45 829.965 2609.92 829.025 2611.14 827.806C2612.36 826.587 2613.3 825.119 2613.89 823.502L2620.73 805.026C2624.58 794.622 2639.3 794.622 2643.15 805.026V805.026Z" fill="#E45E47"/>
</g>
<g clip-path="url(#clip10_1_336)">
<path d="M1621.21 337.492L1644.31 417.842L1763.9 363.553C1786.11 353.468 1786.11 321.52 1763.9 311.44L1644.31 257.165L1621.21 337.492Z" fill="black"/>
<path d="M1222.22 337.492C1222.22 347.653 1227.6 357.79 1238.33 362.662L1633.32 541.969C1654.49 551.572 1677.05 531.676 1670.56 509.107L1644.31 417.842L1621.21 337.492H1222.22Z" fill="#F5C845"/>
<path d="M1222.22 337.493H1621.21L1644.31 257.165L1670.56 165.901C1677.05 143.336 1654.49 123.413 1633.32 133.039L1238.33 312.346C1227.6 317.195 1222.22 327.355 1222.22 337.493Z" fill="#E45E47"/>
</g>
<g clip-path="url(#clip11_1_336)">
<path d="M819.444 933.333H150C160.672 858.372 218.551 869.653 228.201 870.552H228.556C233.144 870.48 237.451 868.089 239.707 863.962C246.015 852.425 255.207 842.821 266.335 836.139C277.463 829.457 290.126 825.939 303.02 825.946C315.017 825.946 326.238 828.917 336.192 834.128C341.131 836.663 346.993 834.343 349.46 829.205C367.95 790.537 406.556 763.889 451.374 763.889C495.838 763.889 534.374 790.177 552.868 828.409C558.091 837.387 567.55 837.606 574.535 831.016C591.259 814.725 613.986 804.589 638.904 804.589C678.78 804.589 712.798 830.221 726.21 866.21C730.657 878.374 741.173 882.721 753.875 880.765C756.837 880.329 759.874 879.97 762.91 879.97C792.625 879.966 816.973 903.498 819.444 933.333Z" fill="black"/>
</g>
<defs>
<clipPath id="clip0_1_336">
<rect width="2263.89" height="1750" fill="white" transform="translate(383.333 1013.89)"/>
</clipPath>
<clipPath id="clip1_1_336">
<rect width="652.778" height="641.667" fill="white" transform="translate(677.777 1413.89)"/>
</clipPath>
<clipPath id="clip2_1_336">
<rect width="680.556" height="461.111" fill="white" transform="translate(150 2177.78)"/>
</clipPath>
<clipPath id="clip3_1_336">
<rect width="102.778" height="102.778" fill="white" transform="translate(1294.44 644.444)"/>
</clipPath>
<clipPath id="clip4_1_336">
<rect width="802.778" height="1416.67" fill="white" transform="translate(1563.89 644.444)"/>
</clipPath>
<clipPath id="clip5_1_336">
<rect width="2400" height="2569.44" fill="white" transform="translate(480.556 322.222)"/>
</clipPath>
<clipPath id="clip6_1_336">
<rect width="872.222" height="413.889" fill="white" transform="translate(1247.22 883.333)"/>
</clipPath>
<clipPath id="clip7_1_336">
<rect width="850" height="397.222" fill="white" transform="matrix(-1 0 0 1 2761.11 1391.67)"/>
</clipPath>
<clipPath id="clip8_1_336">
<rect width="483.333" height="483.333" fill="white" transform="translate(675 322.222)"/>
</clipPath>
<clipPath id="clip9_1_336">
<rect width="102.778" height="102.778" fill="white" transform="translate(2580.55 797.222)"/>
</clipPath>
<clipPath id="clip10_1_336">
<rect width="558.333" height="413.889" fill="white" transform="translate(1222.22 130.556)"/>
</clipPath>
<clipPath id="clip11_1_336">
<rect width="669.444" height="169.444" fill="white" transform="translate(150 763.889)"/>
</clipPath>
</defs>
</svg>
