<svg width="180" height="282" viewBox="0 0 180 282" fill="none" xmlns="http://www.w3.org/2000/svg">
<g clip-path="url(#clip0_1_2324)">
<path d="M26.458 162.125C24.4863 175.827 28.4098 190.449 38.1583 205.823C29.7609 209.266 23.5355 216.913 22.1142 226.151C5.52963 203.141 -1.2163 180.441 2.03656 158.381C6.5205 127.935 29.0203 107.617 42.6323 97.9081C42.6223 98.2384 42.6122 98.5787 42.6122 98.919C42.6122 107.817 47.0261 115.674 53.7821 120.438C43.5331 128.405 29.2605 142.708 26.458 162.125V162.125Z" fill="#E45E47"/>
<path d="M74.4202 230.191V253.931H21.7969V230.191C21.7969 215.659 33.5752 203.879 48.109 203.879C62.6418 203.879 74.4202 215.658 74.4202 230.191V230.191Z" fill="#F5C845"/>
<path d="M61.2581 230.19C61.2581 237.456 55.3749 243.339 48.1095 243.339C40.8441 243.339 34.9609 237.456 34.9609 230.19C34.9609 222.925 40.8441 217.037 48.1095 217.037C55.3759 217.037 61.2581 222.925 61.2581 230.19Z" fill="white"/>
<path d="M179.9 271.168V282H0.09375V271.168C0.09375 261.648 7.81154 253.931 17.3309 253.931H162.663C172.183 253.931 179.9 261.649 179.9 271.168V271.168Z" fill="black"/>
<path d="M140.407 137.573L88.8917 154.238L78.8729 123.28C88.4713 119.357 95.2373 109.929 95.2373 98.919C95.2373 84.3862 83.4569 72.6059 68.9241 72.6059C66.7922 72.6059 64.7104 72.8561 62.7187 73.3465L57.5841 57.4725C56.2029 53.2088 58.545 48.6348 62.8087 47.2536L98.8905 35.5833C103.154 34.2021 107.728 36.5441 109.109 40.7979L140.407 137.573Z" fill="#E45E47"/>
<path d="M145.493 151.137L92.715 168.21C89.0968 169.38 85.2144 167.396 84.0443 163.778L83.8282 163.11C82.6581 159.492 84.6419 155.61 88.2601 154.44L141.038 137.367C144.657 136.197 148.539 138.181 149.709 141.799L149.925 142.466C151.096 146.084 149.112 149.967 145.493 151.137V151.137Z" fill="#F5C845"/>
<path d="M126.173 172.599L120.948 174.288C113.712 176.629 105.948 172.661 103.607 165.424L103.391 164.757L134.82 154.59L135.036 155.258C137.379 162.494 133.41 170.258 126.173 172.599V172.599Z" fill="white"/>
<path d="M87.3914 29.2137C84.8352 31.3346 81.8376 33.016 78.4806 34.099C75.1337 35.1819 71.7177 35.5823 68.4108 35.3661C57.6523 34.6675 47.9027 27.5372 44.3906 16.6737L95.9159 0C99.427 10.8726 95.6958 22.3577 87.3914 29.2137V29.2137Z" fill="#F5C845"/>
<path d="M90.3415 38.3477L71.3528 44.4901L68.4062 35.3651C71.7122 35.5813 75.1282 35.1809 78.4761 34.098C81.8321 33.015 84.8307 31.3336 87.3869 29.2127L90.3415 38.3477Z" fill="white"/>
<path d="M109.844 243.624H155.089V253.931H109.844V243.624Z" fill="white"/>
<path d="M165.638 225.508H99.2812V234.605C99.2812 239.587 103.319 243.624 108.3 243.624H156.62C161.601 243.624 165.639 239.587 165.639 234.605V225.508H165.638Z" fill="#E45E47"/>
<path d="M68.9283 125.232C83.4596 125.232 95.2395 113.452 95.2395 98.921C95.2395 84.3897 83.4596 72.6098 68.9283 72.6098C54.3971 72.6098 42.6172 84.3897 42.6172 98.921C42.6172 113.452 54.3971 125.232 68.9283 125.232Z" fill="#F5C845"/>
<path d="M68.9298 112.07C76.1916 112.07 82.0784 106.183 82.0784 98.921C82.0784 91.6592 76.1916 85.7724 68.9298 85.7724C61.6681 85.7724 55.7812 91.6592 55.7812 98.921C55.7812 106.183 61.6681 112.07 68.9298 112.07Z" fill="white"/>
</g>
<defs>
<clipPath id="clip0_1_2324">
<rect width="180" height="282" fill="white"/>
</clipPath>
</defs>
</svg>
