<svg width="268" height="475" viewBox="0 0 268 475" fill="none" xmlns="http://www.w3.org/2000/svg">
<g clip-path="url(#clip0_1_1552)">
<path d="M267.914 32.3439V46.2578H0.078125V32.3439C0.078125 14.4911 14.5812 0 32.422 0H235.571C253.436 0 267.914 14.4911 267.914 32.3439V32.3439Z" fill="black"/>
<path d="M0.078125 428.754H267.914V442.655C267.914 460.533 253.436 474.999 235.571 474.999H32.422C14.5812 475 0.078125 460.534 0.078125 442.656L0.078125 428.754Z" fill="black"/>
<path d="M0.109375 46.2528H267.916V428.749H0.109375V46.2528Z" fill="#2724F2"/>
<path d="M236.882 222.028V312.44C236.882 318.696 231.81 323.769 225.553 323.769H42.4459C36.1894 323.769 31.1172 318.696 31.1172 312.44V222.028C31.1172 215.772 36.1894 210.7 42.4459 210.7H225.553C231.811 210.7 236.882 215.772 236.882 222.028V222.028Z" fill="white"/>
<path d="M126.773 360.753V391.703C126.773 397.956 121.698 403.032 115.444 403.032H42.4537C36.1892 403.032 31.125 397.956 31.125 391.703V360.753C31.125 354.488 36.1892 349.424 42.4537 349.424H115.444C121.698 349.424 126.773 354.488 126.773 360.753Z" fill="#F5C845"/>
<path d="M236.889 360.753V391.703C236.889 397.956 231.814 403.032 225.56 403.032H152.571C146.306 403.032 141.242 397.956 141.242 391.703V360.753C141.242 354.488 146.306 349.424 152.571 349.424H225.561C231.814 349.424 236.889 354.488 236.889 360.753Z" fill="#E45E47"/>
<path d="M236.882 83.3051V173.717C236.882 179.973 231.81 185.045 225.553 185.045H42.4459C36.1894 185.045 31.1172 179.973 31.1172 173.717V83.3051C31.1172 77.0486 36.1894 71.9764 42.4459 71.9764H225.553C231.811 71.9764 236.882 77.0476 236.882 83.3051V83.3051Z" fill="white"/>
<path d="M81.1203 124.662C88.8108 124.662 95.0452 118.428 95.0452 110.737C95.0452 103.047 88.8108 96.8122 81.1203 96.8122C73.4297 96.8122 67.1953 103.047 67.1953 110.737C67.1953 118.428 73.4297 124.662 81.1203 124.662Z" fill="#E45E47"/>
<path d="M62.8221 160.208C56.1006 160.208 51.7509 153.138 54.7429 147.119C59.5615 137.427 69.5646 130.765 81.1238 130.765C92.683 130.765 102.686 137.426 107.505 147.119C110.497 153.138 106.147 160.208 99.4255 160.208H62.8221Z" fill="#E45E47"/>
<path d="M125.508 102.26H180.792V105.491H125.508V102.26Z" fill="black"/>
<path d="M125.508 118.683H180.792V121.914H125.508V118.683Z" fill="black"/>
<path d="M125.508 135.106H180.792V138.337H125.508V135.106Z" fill="black"/>
<path d="M125.508 151.53H180.792V154.76H125.508V151.53Z" fill="black"/>
<path d="M153.046 260.079L122.411 244.167C117.045 241.379 110.633 245.274 110.633 251.322V283.145C110.633 289.193 117.045 293.088 122.411 290.3L153.046 274.389C158.842 271.379 158.842 263.089 153.046 260.079Z" fill="#E45E47"/>
</g>
<defs>
<clipPath id="clip0_1_1552">
<rect width="268" height="475" fill="white"/>
</clipPath>
</defs>
</svg>
