<svg width="230" height="407" viewBox="0 0 230 407" fill="none" xmlns="http://www.w3.org/2000/svg">
<g clip-path="url(#clip0_1_1567)">
<path d="M229.74 27.7047V39.6262H0.257812V27.7047C0.257812 12.4168 12.6566 0 27.9716 0H202.027C217.315 0 229.74 12.4168 229.74 27.7047Z" fill="black"/>
<path d="M0.257812 39.6263H229.74V367.365H0.257812V39.6263Z" fill="#E45E47"/>
<path d="M229.74 367.365V379.286C229.74 394.592 217.315 407 202.027 407H27.9716C12.6566 407 0.257812 394.592 0.257812 379.286V367.365H229.74Z" fill="#F5C845"/>
<path d="M177.425 221.611H52.5696C47.0427 221.611 42.5625 217.131 42.5625 211.604V86.7488C42.5625 81.2219 47.0427 76.7417 52.5696 76.7417H177.424C182.951 76.7417 187.431 81.2219 187.431 86.7488V211.603C187.432 217.131 182.951 221.611 177.425 221.611Z" fill="#F5C845"/>
<path d="M114.997 143.674C125.994 143.674 134.908 134.76 134.908 123.763C134.908 112.767 125.994 103.852 114.997 103.852C104 103.852 95.0859 112.767 95.0859 123.763C95.0859 134.76 104 143.674 114.997 143.674Z" fill="white"/>
<path d="M88.8251 194.5C79.2143 194.5 72.9949 184.389 77.2739 175.784C84.1638 161.925 98.466 152.402 114.994 152.402C131.522 152.402 145.824 161.925 152.714 175.784C156.992 184.39 150.772 194.5 141.162 194.5H88.8251Z" fill="white"/>
<path d="M42.5625 259.191C42.5625 268.475 50.0889 276.002 59.3735 276.002H172.582C181.867 276.002 189.393 268.475 189.393 259.191C189.393 249.906 181.867 242.38 172.582 242.38H59.3735C50.0889 242.38 42.5625 249.906 42.5625 259.191Z" fill="white"/>
</g>
<defs>
<clipPath id="clip0_1_1567">
<rect width="230" height="407" fill="white"/>
</clipPath>
</defs>
</svg>
