<svg width="237" height="400" viewBox="0 0 237 400" fill="none" xmlns="http://www.w3.org/2000/svg">
<g clip-path="url(#clip0_1_1576)">
<path d="M236.911 28.5902V40.8935H0.09375V28.5902C0.09375 12.8135 12.8892 0 28.693 0H208.312C224.089 0 236.911 12.8135 236.911 28.5902V28.5902Z" fill="black"/>
<path d="M0.09375 40.8935H236.911V359.098H0.09375V40.8935Z" fill="#F5C845"/>
<path d="M236.911 359.098V371.401C236.911 387.196 224.089 400 208.312 400H28.693C12.8892 400 0.09375 387.196 0.09375 371.4V359.097H236.911V359.098Z" fill="black"/>
<path d="M27.5312 297.106C27.5312 306.687 35.2986 314.454 44.8797 314.454H192.124C201.705 314.454 209.472 306.687 209.472 297.106C209.472 287.525 201.705 279.758 192.124 279.758H44.8797C35.2986 279.758 27.5312 287.524 27.5312 297.106V297.106Z" fill="white"/>
</g>
<defs>
<clipPath id="clip0_1_1576">
<rect width="237" height="400" fill="white"/>
</clipPath>
</defs>
</svg>
