<svg width="225" height="199" viewBox="0 0 225 199" fill="none" xmlns="http://www.w3.org/2000/svg">
<g clip-path="url(#clip0_1_2237)">
<path d="M188.714 48.9888L186.156 64.8838C198.852 65.646 208.951 76.236 208.951 89.1226C208.951 102.511 198.06 113.401 184.672 113.401C182.536 113.401 180.47 113.131 178.495 112.609L175.938 128.494C178.755 129.116 181.674 129.447 184.672 129.447C206.915 129.447 224.997 111.356 224.997 89.1226C224.997 68.2434 209.061 51.0245 188.714 48.9888V48.9888Z" fill="black"/>
<path d="M193.52 19.0238L173.473 143.888C170.916 159.853 159.363 172.449 144.471 176.801C140.801 177.884 136.91 178.466 132.908 178.466H60.824C57.0032 178.466 53.2826 177.934 49.7426 176.942C34.6398 172.72 22.8564 160.034 20.259 143.888L0.212153 19.0238C-1.3924 9.06557 6.30944 0.039978 16.388 0.039978H177.344C187.423 0.039978 195.125 9.06557 193.52 19.0238V19.0238Z" fill="#E45E47"/>
<path d="M191.961 28.7614L188.751 48.7782H4.99035L1.78125 28.7614H191.961Z" fill="black"/>
<path d="M145.213 178.466C156.531 178.466 165.707 187.641 165.707 198.96H28.0312C28.0312 187.642 37.2063 178.466 48.5254 178.466H145.213Z" fill="black"/>
</g>
<defs>
<clipPath id="clip0_1_2237">
<rect width="225" height="199" fill="white"/>
</clipPath>
</defs>
</svg>
