<svg width="3000" height="3000" viewBox="0 0 3000 3000" fill="none" xmlns="http://www.w3.org/2000/svg">
<g clip-path="url(#clip0_1_754)">
<path d="M2214.97 794.441H1085.01C1028.85 794.441 983.332 748.672 983.332 692.21V677.231C983.332 620.769 1028.85 575 1085.01 575H2214.97C2271.13 575 2316.65 620.769 2316.65 677.231V692.21C2316.65 748.672 2271.13 794.441 2214.97 794.441V794.441Z" fill="#F5C845"/>
<path d="M2316.67 684.713C2316.67 715.011 2304.44 742.435 2284.69 762.296C2264.94 782.153 2237.66 794.448 2207.53 794.448H2008.5V575.018H2207.53C2267.8 575.018 2316.67 624.113 2316.67 684.713V684.713Z" fill="#2724F2"/>
<path d="M1901.06 659.859H1090.77C1087.74 659.859 1084.74 660.458 1081.94 661.622C1079.15 662.787 1076.61 664.494 1074.47 666.646C1072.32 668.798 1070.63 671.354 1069.47 674.166C1068.31 676.978 1067.71 679.992 1067.71 683.035V686.431C1067.71 689.475 1068.31 692.489 1069.47 695.301C1070.63 698.113 1072.32 700.668 1074.47 702.82C1076.61 704.972 1079.15 706.68 1081.94 707.844C1084.74 709.009 1087.74 709.608 1090.77 709.607H1901.06C1904.09 709.608 1907.08 709.009 1909.88 707.844C1912.68 706.68 1915.22 704.972 1917.36 702.82C1919.5 700.668 1921.2 698.113 1922.36 695.301C1923.51 692.489 1924.11 689.475 1924.11 686.431V683.035C1924.11 679.992 1923.51 676.978 1922.36 674.166C1921.2 671.355 1919.5 668.8 1917.36 666.648C1915.22 664.495 1912.68 662.788 1909.88 661.623C1907.09 660.459 1904.09 659.859 1901.06 659.859V659.859Z" fill="white"/>
</g>
<g clip-path="url(#clip1_1_754)">
<path d="M2111.17 1309.45V1404.49H416.676V1309.45C416.676 1263.54 453.994 1226.31 500.027 1226.31H2027.82C2073.85 1226.31 2111.17 1263.54 2111.17 1309.45V1309.45Z" fill="black"/>
<path d="M2111.17 1404.49V2433.52C2111.17 2479.44 2073.86 2516.66 2027.82 2516.66H500.019C453.987 2516.67 416.668 2479.44 416.668 2433.53V1404.49H2111.17Z" fill="#2724F2"/>
<path d="M568.662 1338.73C581.579 1338.73 592.05 1328.29 592.05 1315.4C592.05 1302.52 581.579 1292.07 568.662 1292.07C555.745 1292.07 545.273 1302.52 545.273 1315.4C545.273 1328.29 555.745 1338.73 568.662 1338.73Z" fill="white"/>
<path d="M685.517 1338.73C698.434 1338.73 708.905 1328.29 708.905 1315.4C708.905 1302.52 698.434 1292.07 685.517 1292.07C672.6 1292.07 662.129 1302.52 662.129 1315.4C662.129 1328.29 672.6 1338.73 685.517 1338.73Z" fill="white"/>
<path d="M2538.87 1002.59V1097.62H844.383V1002.59C844.383 956.668 881.701 919.444 927.734 919.444H2455.52C2501.56 919.444 2538.87 956.668 2538.87 1002.59Z" fill="black"/>
<path d="M2538.88 1097.62V2126.66C2538.88 2172.57 2501.56 2209.8 2455.53 2209.8H927.726C881.694 2209.8 844.375 2172.57 844.375 2126.66V1097.62H2538.88Z" fill="#F5C845"/>
<path d="M1009.49 1031.86C1022.41 1031.86 1032.88 1021.42 1032.88 1008.53C1032.88 995.649 1022.41 985.204 1009.49 985.204C996.577 985.204 986.105 995.649 986.105 1008.53C986.105 1021.42 996.577 1031.86 1009.49 1031.86Z" fill="white"/>
<path d="M1126.35 1031.86C1139.26 1031.86 1149.73 1021.42 1149.73 1008.53C1149.73 995.649 1139.26 985.204 1126.35 985.204C1113.43 985.204 1102.96 995.649 1102.96 1008.53C1102.96 1021.42 1113.43 1031.86 1126.35 1031.86Z" fill="white"/>
<path d="M1243.2 1031.86C1256.11 1031.86 1266.59 1021.42 1266.59 1008.53C1266.59 995.649 1256.11 985.204 1243.2 985.204C1230.28 985.204 1219.81 995.649 1219.81 1008.53C1219.81 1021.42 1230.28 1031.86 1243.2 1031.86Z" fill="white"/>
<path d="M1460.06 919.444H1472.22V1097.62H1460.06V919.444ZM1718.95 919.444H1731.11V1097.62H1718.95V919.444ZM1977.83 919.444H1989.99V1097.62H1977.83V919.444ZM2236.71 919.444H2248.87V1097.62H2236.71V919.444Z" fill="white"/>
<path d="M2538.89 1097.61V2126.65C2538.89 2172.56 2501.55 2209.8 2455.52 2209.8H1846.08V1097.61H2538.89Z" fill="#E45E47"/>
<path d="M1696.72 1326.22H1005.25C1000.17 1326.22 995.304 1324.21 991.713 1320.63C988.123 1317.05 986.105 1312.19 986.105 1307.12C986.105 1302.06 988.123 1297.2 991.713 1293.62C995.304 1290.04 1000.17 1288.03 1005.25 1288.03H1696.72C1701.79 1288.03 1706.67 1290.04 1710.26 1293.62C1713.85 1297.2 1715.86 1302.06 1715.86 1307.12C1715.86 1312.19 1713.85 1317.05 1710.26 1320.63C1706.67 1324.21 1701.79 1326.22 1696.72 1326.22Z" fill="white"/>
<path d="M1696.72 1464.85H1005.25C1000.17 1464.85 995.304 1462.84 991.713 1459.26C988.123 1455.67 986.105 1450.82 986.105 1445.75C986.105 1440.69 988.123 1435.83 991.713 1432.25C995.304 1428.67 1000.17 1426.65 1005.25 1426.65H1696.72C1701.79 1426.65 1706.67 1428.67 1710.26 1432.25C1713.85 1435.83 1715.86 1440.69 1715.86 1445.75C1715.86 1450.82 1713.85 1455.67 1710.26 1459.26C1706.67 1462.84 1701.79 1464.85 1696.72 1464.85Z" fill="#E45E47"/>
<path d="M1696.72 1603.48H1005.25C1000.17 1603.48 995.304 1601.47 991.713 1597.88C988.123 1594.3 986.105 1589.44 986.105 1584.38C986.105 1579.31 988.123 1574.46 991.713 1570.87C995.304 1567.29 1000.17 1565.28 1005.25 1565.28H1696.72C1701.79 1565.28 1706.67 1567.29 1710.26 1570.87C1713.85 1574.46 1715.86 1579.31 1715.86 1584.38C1715.86 1589.44 1713.85 1594.3 1710.26 1597.88C1706.67 1601.47 1701.79 1603.48 1696.72 1603.48V1603.48Z" fill="white"/>
<path d="M1696.72 1742.1H1005.25C1000.17 1742.1 995.304 1740.09 991.713 1736.51C988.123 1732.93 986.105 1728.07 986.105 1723.01C986.105 1717.94 988.123 1713.08 991.713 1709.5C995.304 1705.92 1000.17 1703.91 1005.25 1703.91H1696.72C1701.79 1703.91 1706.67 1705.92 1710.26 1709.5C1713.85 1713.08 1715.86 1717.94 1715.86 1723.01C1715.86 1728.07 1713.85 1732.93 1710.26 1736.51C1706.67 1740.09 1701.79 1742.1 1696.72 1742.1V1742.1Z" fill="#E45E47"/>
<path d="M1696.72 1880.73H1005.25C1000.17 1880.73 995.304 1878.72 991.713 1875.14C988.123 1871.56 986.105 1866.7 986.105 1861.63C986.105 1856.57 988.123 1851.71 991.713 1848.13C995.304 1844.55 1000.17 1842.54 1005.25 1842.54H1696.72C1701.79 1842.54 1706.67 1844.55 1710.26 1848.13C1713.85 1851.71 1715.86 1856.57 1715.86 1861.63C1715.86 1866.7 1713.85 1871.56 1710.26 1875.14C1706.67 1878.72 1701.79 1880.73 1696.72 1880.73Z" fill="white"/>
<path d="M1696.72 2019.36H1005.25C1000.17 2019.36 995.304 2017.35 991.713 2013.77C988.123 2010.18 986.105 2005.33 986.105 2000.26C986.105 1995.2 988.123 1990.34 991.713 1986.76C995.304 1983.18 1000.17 1981.16 1005.25 1981.16H1696.72C1701.79 1981.16 1706.67 1983.18 1710.26 1986.76C1713.85 1990.34 1715.86 1995.2 1715.86 2000.26C1715.86 2005.33 1713.85 2010.18 1710.26 2013.77C1706.67 2017.35 1701.79 2019.36 1696.72 2019.36V2019.36Z" fill="#E45E47"/>
<path d="M696.637 1884.69H564.42C559.342 1884.69 554.472 1882.68 550.881 1879.1C547.291 1875.52 545.273 1870.66 545.273 1865.59C545.273 1860.53 547.291 1855.67 550.881 1852.09C554.472 1848.51 559.342 1846.5 564.42 1846.5H696.634C699.148 1846.5 701.638 1846.99 703.961 1847.95C706.284 1848.91 708.395 1850.32 710.173 1852.09C711.951 1853.86 713.362 1855.97 714.324 1858.28C715.287 1860.6 715.782 1863.08 715.782 1865.59C715.783 1868.1 715.288 1870.58 714.326 1872.9C713.364 1875.22 711.953 1877.32 710.176 1879.1C708.398 1880.87 706.287 1882.28 703.964 1883.24C701.642 1884.2 699.152 1884.69 696.637 1884.69ZM696.637 2047.24H564.42C559.342 2047.24 554.472 2045.23 550.881 2041.65C547.291 2038.07 545.273 2033.21 545.273 2028.15C545.273 2023.08 547.291 2018.22 550.881 2014.64C554.472 2011.06 559.342 2009.05 564.42 2009.05H696.634C701.712 2009.05 706.582 2011.06 710.173 2014.64C713.764 2018.22 715.782 2023.08 715.782 2028.14C715.783 2033.21 713.766 2038.07 710.176 2041.65C706.585 2045.23 701.715 2047.24 696.637 2047.24ZM696.637 2209.8H564.42C559.342 2209.8 554.472 2207.78 550.881 2204.2C547.291 2200.62 545.273 2195.76 545.273 2190.7C545.273 2185.63 547.291 2180.78 550.881 2177.19C554.472 2173.61 559.342 2171.6 564.42 2171.6H696.637C701.715 2171.6 706.586 2173.61 710.176 2177.19C713.767 2180.78 715.784 2185.63 715.784 2190.7C715.784 2195.76 713.767 2200.62 710.176 2204.2C706.586 2207.78 701.715 2209.8 696.637 2209.8V2209.8ZM1205.82 2372.35H564.42C559.342 2372.35 554.472 2370.34 550.881 2366.76C547.291 2363.17 545.273 2358.32 545.273 2353.25C545.273 2348.19 547.291 2343.33 550.881 2339.75C554.472 2336.17 559.342 2334.15 564.42 2334.15H1205.81C1210.89 2334.15 1215.76 2336.16 1219.35 2339.75C1222.94 2343.33 1224.96 2348.18 1224.96 2353.25C1224.96 2358.31 1222.94 2363.17 1219.35 2366.75C1215.76 2370.34 1210.89 2372.35 1205.82 2372.35V2372.35Z" fill="white"/>
</g>
<g clip-path="url(#clip2_1_754)">
<path d="M2607.05 1230.61C2675.69 1178.68 2771.54 1178.68 2840.18 1230.61C2847.97 1236.52 2849.53 1247.71 2843.7 1255.5C2842.31 1257.37 2840.57 1258.95 2838.57 1260.14C2836.57 1261.33 2834.36 1262.12 2832.06 1262.45C2829.77 1262.77 2827.43 1262.64 2825.18 1262.06C2822.93 1261.48 2820.82 1260.45 2818.97 1259.04C2762.83 1216.61 2684.4 1216.61 2628.27 1259.04C2626.41 1260.45 2624.3 1261.47 2622.06 1262.06C2619.81 1262.64 2617.47 1262.77 2615.17 1262.44C2612.87 1262.11 2610.66 1261.33 2608.67 1260.14C2606.67 1258.95 2604.93 1257.37 2603.54 1255.5C2602.15 1253.63 2601.13 1251.51 2600.55 1249.25C2599.98 1246.98 2599.85 1244.63 2600.18 1242.32C2600.5 1240.01 2601.28 1237.78 2602.46 1235.78C2603.64 1233.77 2605.2 1232.01 2607.05 1230.61V1230.61Z" fill="black"/>
<path d="M2641.2 1294.39C2688.18 1251.99 2759.05 1251.99 2806.03 1294.39C2809.52 1297.54 2811.62 1301.96 2811.88 1306.67C2812.13 1311.38 2810.53 1316 2807.41 1319.52C2804.28 1323.03 2799.9 1325.14 2795.22 1325.4C2790.55 1325.65 2785.96 1324.03 2782.47 1320.88C2766.3 1306.26 2745.34 1298.17 2723.62 1298.17C2701.89 1298.17 2680.93 1306.26 2664.76 1320.88C2661.27 1324.03 2656.68 1325.65 2652.01 1325.4C2647.33 1325.14 2642.95 1323.03 2639.82 1319.52C2636.69 1316 2635.08 1311.38 2635.34 1306.67C2635.6 1301.95 2637.71 1297.54 2641.2 1294.39V1294.39ZM2694.92 1362.75C2694.92 1346.81 2707.79 1333.84 2723.62 1333.84C2739.44 1333.84 2752.31 1346.81 2752.31 1362.75C2752.31 1378.7 2739.44 1391.67 2723.62 1391.67C2707.79 1391.67 2694.92 1378.69 2694.92 1362.75Z" fill="black"/>
</g>
<g clip-path="url(#clip3_1_754)">
<path d="M2543.28 639.414L2551.04 660.387C2551.72 662.222 2552.79 663.889 2554.17 665.272C2555.55 666.656 2557.22 667.723 2559.06 668.402L2580.03 676.164C2591.84 680.535 2591.84 697.242 2580.03 701.613L2559.06 709.375C2557.22 710.054 2555.55 711.121 2554.17 712.505C2552.79 713.888 2551.72 715.555 2551.04 717.39L2543.28 738.363C2538.91 750.174 2522.2 750.174 2517.83 738.363L2510.07 717.39C2509.39 715.555 2508.32 713.888 2506.94 712.505C2505.56 711.121 2503.89 710.054 2502.05 709.375L2481.08 701.613C2469.27 697.242 2469.27 680.535 2481.08 676.164L2502.05 668.402C2503.89 667.723 2505.56 666.656 2506.94 665.272C2508.32 663.889 2509.39 662.222 2510.07 660.387L2517.83 639.414C2522.2 627.604 2538.91 627.604 2543.28 639.414V639.414Z" fill="black"/>
</g>
<g clip-path="url(#clip4_1_754)">
<path d="M1669.44 497.222H997.223C1007.94 419.803 1066.06 431.454 1075.75 432.383H1076.1C1080.71 432.309 1085.04 429.839 1087.3 425.577C1093.64 413.661 1102.87 403.742 1114.04 396.841C1125.21 389.94 1137.93 386.306 1150.88 386.314C1162.92 386.314 1174.19 389.382 1184.19 394.764C1189.15 397.382 1195.03 394.987 1197.51 389.68C1216.08 349.744 1254.84 322.222 1299.85 322.222C1344.5 322.222 1383.19 349.372 1401.76 388.858C1407.01 398.13 1416.51 398.357 1423.52 391.551C1440.31 374.725 1463.13 364.256 1488.15 364.256C1528.2 364.256 1562.36 390.729 1575.82 427.898C1580.29 440.461 1590.85 444.95 1603.6 442.931C1606.58 442.48 1609.63 442.109 1612.68 442.109C1642.51 442.105 1666.96 466.409 1669.44 497.222Z" fill="black"/>
</g>
<g clip-path="url(#clip5_1_754)">
<path d="M1966.64 2761.11H2436.13C2551.18 2761.11 2644.45 2667.83 2644.45 2552.78C2644.45 2437.72 2551.18 2344.44 2436.13 2344.44H1966.64L1966.65 2344.45C1851.42 2344.45 1757.77 2438.38 1758.34 2553.9C1758.62 2606.05 1777.96 2653.99 1810.21 2690.44C1813.29 2693.81 1814.13 2698.85 1811.89 2703.06C1805.49 2716.29 1797.69 2728.79 1788.62 2740.35C1784.98 2744.56 1787.5 2750.73 1793.1 2751.57C1801.23 2752.69 1809.64 2751.85 1818.06 2750.45C1834.88 2747.36 1850.58 2740.63 1858.99 2736.71C1862.07 2735.02 1866 2735.3 1869.36 2736.99C1872.17 2738.39 1874.69 2739.79 1877.49 2740.91C1903.85 2753.53 1933.01 2760.54 1963.84 2761.1L1966.64 2761.11Z" fill="#E45E47"/>
<path d="M1966.64 2761.11H2436.13C2551.18 2761.11 2644.45 2667.83 2644.45 2552.78C2644.45 2437.72 2551.18 2344.44 2436.13 2344.44H1966.64L1966.65 2344.45C1851.42 2344.45 1757.77 2438.38 1758.34 2553.9C1758.62 2606.05 1777.96 2653.99 1810.21 2690.44C1813.29 2693.81 1814.13 2698.85 1811.89 2703.06C1805.49 2716.29 1797.69 2728.79 1788.62 2740.35C1784.98 2744.56 1787.5 2750.73 1793.1 2751.57C1801.23 2752.69 1809.64 2751.85 1818.06 2750.45C1834.88 2747.36 1850.58 2740.63 1858.99 2736.71C1862.07 2735.02 1866 2735.3 1869.36 2736.99C1872.17 2738.39 1874.69 2739.79 1877.49 2740.91C1903.85 2753.53 1933.01 2760.54 1963.84 2761.1L1966.64 2761.11Z" fill="#F5C845"/>
<path d="M2286.95 2589.91C2266.44 2589.91 2249.82 2573.29 2249.82 2552.78C2249.82 2532.27 2266.44 2515.64 2286.95 2515.64C2307.46 2515.64 2324.08 2532.27 2324.08 2552.78C2324.08 2573.29 2307.46 2589.91 2286.95 2589.91Z" fill="black"/>
<path d="M2115.83 2589.91C2095.33 2589.91 2078.7 2573.29 2078.7 2552.78C2078.7 2532.27 2095.33 2515.64 2115.83 2515.64C2136.34 2515.64 2152.96 2532.27 2152.96 2552.78C2152.96 2573.29 2136.34 2589.91 2115.83 2589.91Z" fill="black"/>
<path d="M1944.72 2589.91C1924.21 2589.91 1907.59 2573.29 1907.59 2552.78C1907.59 2532.27 1924.21 2515.64 1944.72 2515.64C1965.22 2515.64 1981.85 2532.27 1981.85 2552.78C1981.85 2573.29 1965.22 2589.91 1944.72 2589.91Z" fill="black"/>
<path d="M2458.06 2589.91C2437.56 2589.91 2420.93 2573.29 2420.93 2552.78C2420.93 2532.27 2437.56 2515.64 2458.06 2515.64C2478.57 2515.64 2495.2 2532.27 2495.2 2552.78C2495.2 2573.29 2478.57 2589.91 2458.06 2589.91Z" fill="black"/>
</g>
<g clip-path="url(#clip6_1_754)">
<path d="M1532.63 1346.78C1363.2 1516.53 1363.2 1791.79 1532.63 1961.56C1702.07 2131.33 1976.79 2131.33 2146.2 1961.56C2302.79 1804.67 2314.69 1557.73 2181.86 1387.16C2170.82 1372.97 2158.91 1359.48 2146.2 1346.76C2133.42 1333.95 2120.02 1322.09 2106.11 1311.2C1935.9 1177.97 1689.28 1189.83 1532.63 1346.78ZM2068.49 1424.62C2195.01 1551.39 2195.01 1756.93 2068.49 1883.7C1941.99 2010.45 1736.86 2010.45 1610.34 1883.7C1483.82 1756.93 1483.82 1551.39 1610.34 1424.62C1736.86 1297.85 1941.99 1297.85 2068.49 1424.62V1424.62Z" fill="black"/>
<path d="M2068.5 1424.62C2195.02 1551.39 2195.02 1756.93 2068.5 1883.7C1942 2010.44 1736.87 2010.44 1610.35 1883.7C1483.83 1756.93 1483.83 1551.39 1610.35 1424.62C1736.87 1297.85 1942 1297.85 2068.5 1424.62V1424.62Z" fill="white"/>
<path d="M2351.9 1584.1V1724.51H2267.58C2275.17 1678.02 2275.18 1630.6 2267.62 1584.1H2351.9Z" fill="black"/>
<path d="M2883.26 1658.1C2881.26 1714.57 2833.23 1758.52 2776.83 1758.52H2375.68C2369.38 1758.52 2363.33 1756.01 2358.87 1751.54C2354.41 1747.08 2351.91 1741.02 2351.91 1734.7V1573.91C2351.91 1567.59 2354.41 1561.53 2358.87 1557.07C2363.33 1552.6 2369.38 1550.09 2375.68 1550.09L2779.32 1550.03C2838.02 1550.09 2885.36 1598.81 2883.26 1658.1Z" fill="#2724F2"/>
<path d="M1837.81 1628.07C1880.32 1628.07 1914.79 1593.53 1914.79 1550.93C1914.79 1508.33 1880.32 1473.8 1837.81 1473.8C1795.29 1473.8 1760.82 1508.33 1760.82 1550.93C1760.82 1593.53 1795.29 1628.07 1837.81 1628.07Z" fill="#E45E47"/>
<path d="M1736.63 1824.96C1699.47 1824.96 1675.43 1785.8 1691.97 1752.46C1718.61 1698.77 1773.91 1661.88 1837.81 1661.88C1901.71 1661.88 1957.01 1698.77 1983.64 1752.46C2000.18 1785.8 1976.14 1824.96 1938.98 1824.96H1736.63Z" fill="#E45E47"/>
</g>
<g clip-path="url(#clip7_1_754)">
<path d="M740.625 718.34C742.869 707.312 738.472 695.176 729.688 688.142C724.228 683.771 717.216 681.483 710.224 681.483C705.967 681.483 701.715 682.33 697.83 684.073C696.453 684.688 695.123 685.408 693.838 686.101C691.83 687.184 689.934 688.207 687.888 688.872C678.519 691.906 669.515 686.917 659.985 681.634C655.721 679.27 651.31 676.826 646.841 675.146C638.732 672.097 630.005 671.57 621.561 671.056C615.341 670.679 608.908 670.289 602.838 668.884C593.82 666.796 585.158 660.539 581.278 653.314C578.826 648.746 578.395 644.016 580.031 639.643C581.138 636.69 583.078 634.162 585.132 631.487C586.94 629.134 588.813 626.698 590.101 623.909C592.94 617.769 592.555 610.998 592.187 604.448C591.942 600.157 591.693 595.724 592.371 591.576C593.459 584.92 596.978 578.702 600.386 572.69C604.547 565.345 608.848 557.748 608.934 549.117C608.98 544.627 607.853 540.277 606.762 536.074C606.243 534.062 605.703 531.981 605.308 529.94C603.685 521.507 604.495 512.622 607.648 504.16L608.409 502.981C577.157 490.009 544.093 481.931 510.381 479.032C507.088 488.403 497.75 498.267 493.927 507.339C492.104 511.666 491.647 516.45 490.042 520.86C488.437 525.27 485.143 529.597 480.497 530.259C479.074 530.464 477.57 530.314 476.248 530.883C472.627 532.436 472.954 537.599 471.29 541.173C469.539 544.926 465.261 546.977 461.127 547.234C456.992 547.494 452.927 546.276 448.961 545.074C443.844 543.52 438.349 541.7 435.274 537.331C433.585 534.937 432.819 532.01 431.315 529.493C428.651 525.036 423.965 522.273 419.776 519.206C410.348 512.307 402.761 500.14 397.746 488.717C378.147 493.879 359.068 500.846 340.754 509.528L341.521 510.674C341.722 512.835 342.357 514.933 343.39 516.843C344.422 518.752 345.83 520.433 347.528 521.785L371.664 541.092C373.239 542.345 374.509 543.938 375.381 545.751C376.252 547.565 376.703 549.552 376.698 551.564V578.99C376.703 583.284 378.41 587.401 381.447 590.437C384.483 593.474 388.6 595.182 392.894 595.186H404.174C407.729 595.191 411.138 596.605 413.652 599.118C416.167 601.632 417.581 605.04 417.586 608.596V621.582C417.586 625.812 415.558 629.841 412.158 632.357L345.938 681.408C343.625 683.113 340.828 684.036 337.954 684.041H297.019C292.725 684.046 288.608 685.753 285.571 688.79C282.535 691.826 280.827 695.943 280.823 700.238V727.238C280.823 731.565 282.508 735.632 285.565 738.692L314.257 767.38C315.758 768.889 317.543 770.085 319.509 770.899C321.475 771.713 323.583 772.129 325.711 772.123H366.106C369.661 772.127 373.07 773.541 375.584 776.055C378.097 778.569 379.512 781.977 379.516 785.532V797.515C379.521 801.809 381.228 805.926 384.265 808.962C387.301 811.999 391.418 813.707 395.712 813.711H423.911C427.466 813.716 430.875 815.13 433.389 817.643C435.903 820.157 437.318 823.565 437.323 827.121C437.328 831.414 439.036 835.531 442.073 838.567C445.109 841.603 449.225 843.311 453.519 843.317H490.177C493.733 843.321 497.141 844.735 499.655 847.25C502.169 849.764 503.583 853.173 503.587 856.729V895.481C503.587 899.551 501.771 903.351 498.605 905.909L443.333 950.596C441.451 952.112 439.934 954.031 438.894 956.211C437.853 958.391 437.315 960.777 437.32 963.193V982.129C437.317 983.965 436.939 985.78 436.209 987.465C435.479 989.149 434.412 990.666 433.074 991.923L412.316 1011.34C410.7 1012.86 409.411 1014.69 408.528 1016.73C407.646 1018.76 407.188 1020.95 407.184 1023.17V1065.39C407.18 1068.94 405.766 1072.35 403.252 1074.87C400.738 1077.38 397.33 1078.8 393.775 1078.8H371.745C368.189 1078.8 364.78 1077.38 362.266 1074.87C359.752 1072.35 358.339 1068.95 358.335 1065.39V1038.46C358.335 1036.04 357.782 1033.61 356.73 1031.43L341.334 999.452C340.462 997.636 340.009 995.648 340.006 993.634V932.691C340.006 927.497 337.49 922.583 333.274 919.547L275.088 877.652C273.364 876.407 271.96 874.772 270.991 872.88C270.021 870.988 269.514 868.893 269.512 866.767V824.622C269.512 822.345 270.096 820.09 271.205 818.101L274.278 812.584C275.987 809.494 276.644 805.932 276.148 802.435C275.652 798.939 274.031 795.699 271.53 793.207L220.434 742.538C217.903 740.015 216.476 736.591 216.465 733.017V700.757C216.463 698.513 215.995 696.294 215.092 694.24C214.189 692.186 212.87 690.342 211.219 688.823L186.057 665.739L184.943 664.851C126.388 787.236 147.784 938.309 249.178 1039.7C377.729 1168.25 586.151 1168.25 714.702 1039.7C723.218 1031.18 731.264 1022.2 738.804 1012.8H737.043C726.75 1005.4 718.943 998.743 712.543 991.923C696.505 974.836 685.82 952.653 682.462 929.46C681.875 925.406 681.493 921.23 681.127 917.191C680.485 910.158 679.823 902.883 678.047 895.879C675.613 886.272 671.104 877.213 666.743 868.452C660.918 856.747 655.414 845.691 654.263 833.26C652.619 815.483 661.045 797.437 675.735 787.293C684.353 781.34 694.731 778.187 704.764 775.143C714.229 772.268 724.015 769.297 732.555 763.967C734.721 762.614 737.085 760.877 738.178 758.246C739.716 754.542 738.272 750.893 736.874 747.366C736.282 745.873 735.724 744.46 735.383 743.057C734.121 737.837 735.983 732.63 737.955 727.113C738.965 724.264 740.017 721.322 740.625 718.34V718.34Z" fill="#2724F2"/>
<path d="M490.177 841.933H453.519C445.343 841.933 438.715 835.305 438.715 827.129C438.715 818.953 432.087 812.325 423.91 812.325H395.712C391.786 812.325 388.02 810.765 385.244 807.989C382.467 805.212 380.908 801.447 380.908 797.521V785.537C380.908 781.611 379.348 777.845 376.572 775.069C373.795 772.293 370.03 770.733 366.103 770.733H325.711C321.785 770.733 318.02 769.174 315.244 766.398L286.555 737.71C283.779 734.934 282.22 731.169 282.22 727.243V700.24C282.22 696.314 283.78 692.548 286.556 689.772C289.332 686.996 293.098 685.436 297.024 685.436H337.96C341.133 685.437 344.223 684.417 346.772 682.527L412.989 633.479C414.848 632.103 416.358 630.309 417.398 628.244C418.439 626.178 418.981 623.897 418.981 621.584V608.598C418.981 604.672 417.421 600.907 414.645 598.13C411.868 595.354 408.103 593.794 404.177 593.794H392.897C390.952 593.794 389.027 593.411 387.231 592.667C385.435 591.923 383.803 590.833 382.428 589.458C381.054 588.084 379.963 586.452 379.219 584.656C378.475 582.859 378.092 580.934 378.092 578.99V551.564C378.092 549.344 377.593 547.152 376.631 545.151C375.67 543.15 374.27 541.391 372.537 540.004L348.401 520.696C346.667 519.309 345.267 517.55 344.306 515.549C343.344 513.548 342.845 511.356 342.845 509.136V508.513C308.935 524.314 277.16 546.201 249.175 574.186C221.681 601.679 200.09 632.833 184.355 666.069L210.276 689.849C211.788 691.235 212.995 692.921 213.821 694.799C214.646 696.677 215.073 698.706 215.073 700.757V733.019C215.073 736.967 216.65 740.751 219.452 743.533L270.548 794.201C272.842 796.475 274.329 799.436 274.782 802.634C275.236 805.832 274.631 809.09 273.059 811.912L269.989 817.428C268.764 819.63 268.122 822.108 268.122 824.627V866.777C268.122 871.538 270.413 876.01 274.275 878.792L332.461 920.687C334.366 922.059 335.917 923.863 336.987 925.952C338.057 928.041 338.614 930.355 338.614 932.702V993.645C338.614 995.868 339.115 998.065 340.079 1000.07L355.478 1032.04C356.444 1034.05 356.943 1036.24 356.943 1038.47V1065.4C356.943 1067.34 357.326 1069.27 358.07 1071.07C358.814 1072.86 359.904 1074.49 361.279 1075.87C362.654 1077.24 364.286 1078.33 366.082 1079.08C367.878 1079.82 369.803 1080.2 371.747 1080.2H393.777C397.703 1080.2 401.469 1078.64 404.245 1075.87C407.022 1073.09 408.581 1069.33 408.581 1065.4V1023.18C408.581 1019.08 410.28 1015.17 413.272 1012.37L434.029 992.949C435.51 991.564 436.69 989.89 437.497 988.031C438.304 986.172 438.72 984.166 438.72 982.139V963.203C438.72 958.733 440.741 954.5 444.216 951.69L499.488 907.003C501.204 905.615 502.588 903.861 503.539 901.869C504.49 899.878 504.984 897.699 504.984 895.492V856.734C504.982 852.808 503.422 849.043 500.645 846.267C497.868 843.492 494.103 841.933 490.177 841.933V841.933ZM811.109 806.943C811.109 722.701 778.97 638.461 714.696 574.186C682.849 542.339 646.095 518.393 606.871 502.326C603.323 511.123 602.152 520.876 603.947 530.2C605.162 536.513 607.611 542.671 607.547 549.099C607.391 564.363 593.464 576.284 591.002 591.348C589.265 601.978 593.363 613.543 588.844 623.322C586.208 629.023 580.935 633.266 578.733 639.149C573.543 653.008 588.109 666.9 602.529 670.237C616.946 673.575 632.501 671.235 646.352 676.445C660.512 681.769 673.925 694.854 688.318 690.194C691.872 689.044 694.993 686.867 698.401 685.34C708.213 680.946 720.428 682.504 728.82 689.226C737.214 695.947 741.404 707.523 739.261 718.06C737.521 726.615 731.973 734.895 734.025 743.382C735.196 748.231 738.799 753.101 736.887 757.708C735.955 759.955 733.877 761.495 731.812 762.786C714.361 773.678 691.866 774.455 674.94 786.148C659.949 796.503 651.193 815.249 652.871 833.39C654.944 855.799 671.161 874.41 676.691 896.224C679.454 907.13 679.467 918.526 681.077 929.663C684.482 953.173 695.264 975.558 711.52 992.879C719.244 1001.11 728.082 1008.14 737.292 1014.7C786.495 954.365 811.065 880.654 811.065 806.946L811.109 806.943ZM490.044 522.25C491.649 517.839 492.106 513.053 493.93 508.729C497.82 499.496 507.435 489.444 510.565 479.928C510.659 479.64 510.731 479.349 510.812 479.061C501.209 478.213 491.573 477.785 481.933 477.778V477.819C453.329 477.82 424.846 481.531 397.198 488.86C402.2 500.633 410.002 513.45 419.778 520.6C423.97 523.668 428.656 526.428 431.32 530.888C432.824 533.404 433.59 536.329 435.279 538.724C438.356 543.095 443.852 544.913 448.966 546.466C452.93 547.668 456.997 548.886 461.132 548.627C465.266 548.367 469.547 546.318 471.295 542.562C472.96 538.991 472.632 533.823 476.253 532.272C477.575 531.706 479.079 531.854 480.502 531.651C485.146 530.986 488.439 526.662 490.044 522.25V522.25Z" fill="#E45E47"/>
</g>
<defs>
<clipPath id="clip0_1_754">
<rect width="1333.33" height="219.444" fill="white" transform="translate(983.332 575)"/>
</clipPath>
<clipPath id="clip1_1_754">
<rect width="2122.22" height="1597.22" fill="white" transform="translate(416.668 919.444)"/>
</clipPath>
<clipPath id="clip2_1_754">
<rect width="247.222" height="200" fill="white" transform="translate(2600 1191.67)"/>
</clipPath>
<clipPath id="clip3_1_754">
<rect width="116.667" height="116.667" fill="white" transform="translate(2472.22 630.556)"/>
</clipPath>
<clipPath id="clip4_1_754">
<rect width="672.222" height="175" fill="white" transform="translate(997.223 322.222)"/>
</clipPath>
<clipPath id="clip5_1_754">
<rect width="886.111" height="416.667" fill="white" transform="matrix(-1 0 0 1 2644.45 2344.44)"/>
</clipPath>
<clipPath id="clip6_1_754">
<rect width="1477.78" height="869.444" fill="white" transform="translate(1405.55 1219.44)"/>
</clipPath>
<clipPath id="clip7_1_754">
<rect width="658.333" height="658.333" fill="white" transform="translate(152.777 477.778)"/>
</clipPath>
</defs>
</svg>
