<svg width="3000" height="3000" viewBox="0 0 3000 3000" fill="none" xmlns="http://www.w3.org/2000/svg">
<g clip-path="url(#clip0_1_486)">
<path d="M1731.59 2604.47H1260.08L1342.21 2493.07H1649.46L1731.59 2604.47Z" fill="#E45E47"/>
<path d="M2011.67 2741.67H979.992C979.992 2665.91 1041.37 2604.49 1117.12 2604.49H1874.55C1950.3 2604.49 2011.67 2665.91 2011.67 2741.67ZM431.054 2493.04C318.969 2493.04 227.777 2401.84 227.777 2289.76V1025.51C227.777 913.413 318.969 822.222 431.054 822.222H2560.51C2672.6 822.222 2763.79 913.413 2763.79 1025.51L2763.89 1136.15V2289.76C2763.89 2401.85 2672.7 2493.04 2560.62 2493.04H431.054Z" fill="black"/>
<path d="M2657.41 2219.79H334.254V1025.54C334.254 972.036 377.59 928.66 431.046 928.66H2560.58C2613.51 928.66 2656.52 971.141 2657.37 1023.87L2657.41 2219.79Z" fill="#2724F2"/>
<path d="M1495.83 2401.15C1520.53 2401.15 1540.55 2381.13 1540.55 2356.43C1540.55 2331.74 1520.53 2311.72 1495.83 2311.72C1471.13 2311.72 1451.11 2331.74 1451.11 2356.43C1451.11 2381.13 1471.13 2401.15 1495.83 2401.15Z" fill="white"/>
</g>
<g clip-path="url(#clip1_1_486)">
<path d="M2516.67 727.778H1847.22C1857.89 656.503 1915.77 667.229 1925.42 668.085H1925.78C1930.37 668.016 1934.67 665.742 1936.93 661.819C1943.24 650.849 1952.43 641.717 1963.56 635.363C1974.69 629.01 1987.35 625.665 2000.24 625.672C2012.24 625.672 2023.46 628.497 2033.42 633.451C2038.35 635.862 2044.22 633.656 2046.68 628.771C2065.17 592.004 2103.78 566.667 2148.6 566.667C2193.06 566.667 2231.6 591.662 2250.09 628.014C2255.31 636.55 2264.77 636.759 2271.76 630.493C2288.48 615.003 2311.21 605.365 2336.13 605.365C2376 605.365 2410.02 629.736 2423.43 663.955C2427.88 675.521 2438.4 679.654 2451.1 677.795C2454.06 677.381 2457.1 677.039 2460.13 677.039C2489.85 677.035 2514.2 699.41 2516.67 727.778Z" fill="black"/>
</g>
<g clip-path="url(#clip2_1_486)">
<path d="M1311.11 1136.11C1456.85 1136.11 1575 1017.96 1575 872.222C1575 726.48 1456.85 608.333 1311.11 608.333C1165.37 608.333 1047.22 726.48 1047.22 872.222C1047.22 1017.96 1165.37 1136.11 1311.11 1136.11Z" fill="#F5C845"/>
<path d="M1266.53 810.537C1273.66 775.227 1330.69 782.695 1355.82 798.652C1376.19 813.589 1400.63 784.053 1377.55 765.381C1364.73 755.535 1347.96 749.293 1330.21 746.744V727.349C1330.21 724.841 1329.72 722.357 1328.76 720.04C1327.8 717.723 1326.39 715.618 1324.62 713.844C1322.84 712.071 1320.74 710.664 1318.42 709.704C1316.1 708.744 1313.62 708.25 1311.11 708.25C1308.6 708.25 1306.12 708.744 1303.8 709.704C1301.49 710.664 1299.38 712.071 1297.61 713.844C1295.83 715.618 1294.43 717.723 1293.47 720.04C1292.51 722.357 1292.01 724.841 1292.01 727.349V746.937C1257.68 752.332 1227.57 772.092 1223.41 807.14C1212.88 903.564 1354.12 873.345 1358.53 923.593C1353.44 971.801 1281.8 957.539 1253.97 938.53C1242.42 929.022 1232.58 932.081 1223.75 940.907C1217.64 950.071 1217.3 965.008 1228.5 974.178C1243.72 986.752 1267.19 994.986 1292.01 997.473V1017.1C1292.01 1019.61 1292.51 1022.09 1293.47 1024.41C1294.43 1026.73 1295.83 1028.83 1297.61 1030.61C1299.38 1032.38 1301.49 1033.79 1303.8 1034.75C1306.12 1035.71 1308.6 1036.2 1311.11 1036.2C1313.62 1036.2 1316.1 1035.71 1318.42 1034.75C1320.74 1033.79 1322.84 1032.38 1324.62 1030.61C1326.39 1028.83 1327.8 1026.73 1328.76 1024.41C1329.72 1022.09 1330.21 1019.61 1330.21 1017.1V996.55C1368.48 990.556 1401.46 968.515 1402.67 924.613C1405.05 834.3 1257.36 866.214 1266.53 810.537V810.537Z" fill="white"/>
</g>
<g clip-path="url(#clip3_1_486)">
<path d="M845.833 1513.89C993.876 1513.89 1113.89 1393.88 1113.89 1245.83C1113.89 1097.79 993.876 977.778 845.833 977.778C697.79 977.778 577.777 1097.79 577.777 1245.83C577.777 1393.88 697.79 1513.89 845.833 1513.89Z" fill="#F5C845"/>
<path d="M800.545 1183.17C807.789 1147.31 865.724 1154.89 891.248 1171.1C911.943 1186.27 936.767 1156.27 913.321 1137.31C900.297 1127.3 883.262 1120.96 865.234 1118.37V1098.67C865.234 1096.12 864.732 1093.6 863.757 1091.25C862.782 1088.89 861.353 1086.76 859.551 1084.95C857.75 1083.15 855.611 1081.72 853.258 1080.75C850.904 1079.77 848.381 1079.27 845.833 1079.27C843.286 1079.27 840.763 1079.77 838.409 1080.75C836.055 1081.72 833.917 1083.15 832.115 1084.95C830.314 1086.76 828.885 1088.89 827.91 1091.25C826.935 1093.6 826.433 1096.12 826.433 1098.67V1118.57C791.559 1124.05 760.968 1144.12 756.748 1179.72C746.054 1277.67 889.519 1246.97 894.005 1298.02C888.833 1346.98 816.061 1332.5 787.787 1313.19C776.057 1303.53 766.063 1306.64 757.09 1315.6C750.883 1324.91 750.54 1340.08 761.92 1349.4C777.38 1362.17 801.217 1370.54 826.433 1373.06V1393C826.433 1395.55 826.935 1398.07 827.91 1400.43C828.885 1402.78 830.314 1404.92 832.115 1406.72C833.917 1408.52 836.055 1409.95 838.409 1410.92C840.763 1411.9 843.286 1412.4 845.833 1412.4C848.381 1412.4 850.904 1411.9 853.258 1410.92C855.611 1409.95 857.75 1408.52 859.551 1406.72C861.353 1404.92 862.782 1402.78 863.757 1400.43C864.732 1398.07 865.234 1395.55 865.234 1393V1372.12C904.104 1366.04 937.607 1343.65 938.839 1299.05C941.253 1207.31 791.23 1239.73 800.545 1183.17V1183.17Z" fill="white"/>
</g>
<g clip-path="url(#clip4_1_486)">
<path d="M888.889 716.667C1036.17 716.667 1155.56 597.276 1155.56 450C1155.56 302.724 1036.17 183.333 888.889 183.333C741.613 183.333 622.223 302.724 622.223 450C622.223 597.276 741.613 716.667 888.889 716.667Z" fill="#F5C845"/>
<path d="M843.835 387.666C851.041 351.983 908.676 359.531 934.067 375.656C954.655 390.75 979.351 360.902 956.027 342.034C943.07 332.085 926.123 325.777 908.188 323.201V303.602C908.188 301.067 907.689 298.558 906.719 296.216C905.749 293.875 904.328 291.747 902.535 289.955C900.743 288.163 898.616 286.741 896.274 285.771C893.933 284.801 891.423 284.302 888.888 284.302C886.354 284.302 883.844 284.801 881.503 285.771C879.161 286.741 877.034 288.163 875.241 289.955C873.449 291.747 872.028 293.875 871.058 296.216C870.088 298.558 869.589 301.067 869.589 303.602V323.396C834.895 328.847 804.462 348.816 800.264 384.233C789.626 481.672 932.348 451.135 936.811 501.912C931.665 550.628 859.27 536.215 831.142 517.006C819.473 507.398 809.531 510.489 800.605 519.408C794.43 528.668 794.089 543.763 805.409 553.03C820.789 565.736 844.503 574.056 869.589 576.569V596.405C869.589 598.94 870.088 601.449 871.058 603.791C872.028 606.132 873.449 608.26 875.241 610.052C877.034 611.844 879.161 613.266 881.503 614.236C883.844 615.206 886.354 615.705 888.888 615.705C891.423 615.705 893.933 615.206 896.274 614.236C898.616 613.266 900.743 611.844 902.535 610.052C904.328 608.26 905.749 606.132 906.719 603.791C907.689 601.449 908.188 598.94 908.188 596.405V575.636C946.857 569.579 980.186 547.306 981.412 502.942C983.814 411.679 834.568 443.929 843.835 387.666V387.666Z" fill="white"/>
</g>
<g clip-path="url(#clip5_1_486)">
<path d="M1315.74 1361.11H541.944C501.901 1361.11 469.445 1393.59 469.445 1433.66V2002.45C469.445 2042.52 501.901 2075 541.944 2075H1315.74C1355.78 2075 1388.24 2042.52 1388.24 2002.45V1433.66C1388.24 1393.59 1355.79 1361.11 1315.74 1361.11Z" fill="#E45E47"/>
<path d="M1405.38 1864.61H1156.08C1075.53 1864.61 1009.63 1798.66 1009.63 1718.05C1009.63 1637.45 1075.53 1571.5 1156.08 1571.5H1405.38C1428.4 1571.5 1447.22 1590.34 1447.22 1613.37V1822.74C1447.22 1845.77 1428.4 1864.61 1405.38 1864.61Z" fill="black"/>
<path d="M1156.08 1634.31C1202.1 1634.31 1239.76 1671.99 1239.76 1718.05C1239.76 1764.12 1202.11 1801.8 1156.08 1801.8C1110.05 1801.8 1072.39 1764.12 1072.39 1718.05C1072.39 1671.99 1110.05 1634.31 1156.08 1634.31Z" fill="#F5C845"/>
<path d="M1156.08 1681.22C1176.32 1681.22 1192.88 1697.8 1192.88 1718.05C1192.88 1738.31 1176.32 1754.88 1156.08 1754.88C1135.84 1754.88 1119.28 1738.31 1119.28 1718.05C1119.28 1697.8 1135.84 1681.22 1156.08 1681.22V1681.22Z" fill="white"/>
<path d="M643.921 1361.11V2075H541.944C501.901 2075 469.445 2042.52 469.445 2002.45V1433.66C469.445 1393.59 501.901 1361.11 541.944 1361.11H643.921Z" fill="#F5C845"/>
<path d="M643.922 1361.11H742.357V2075H643.922V1361.11Z" fill="black"/>
</g>
<g clip-path="url(#clip6_1_486)">
<path d="M2050.01 2219.44C1666.74 2219.44 1501.44 2071.27 1566.65 1770.03C1626.01 1495.86 1817.51 1377.33 1864.05 1352.18C1867.96 1353.8 1872.16 1354.63 1876.4 1354.62H2223.59C2227.83 1354.62 2232.04 1353.8 2235.96 1352.2C2255.94 1363.01 2302.61 1391.02 2354.07 1441.12C2422.53 1507.78 2499.44 1613.55 2533.34 1770.03C2598.56 2071.27 2433.31 2219.44 2050.01 2219.44V2219.44Z" fill="#F5C845"/>
<path d="M2251.81 1186.51L2198.99 1289.51H1901.01L1848.21 1186.51C1832.69 1156.3 1846.15 1119.17 1877.54 1106.16C1917.5 1089.66 1977.02 1072.22 2050.01 1072.22C2123 1072.22 2182.5 1089.66 2222.46 1106.16C2253.86 1119.17 2267.28 1156.3 2251.81 1186.51Z" fill="#E45E47"/>
<path d="M2223.59 1354.63H1876.41C1867.76 1354.63 1859.47 1351.2 1853.36 1345.09C1847.25 1338.99 1843.81 1330.71 1843.81 1322.07C1843.81 1313.44 1847.25 1305.16 1853.36 1299.05C1859.47 1292.95 1867.76 1289.52 1876.41 1289.52H2223.59C2232.23 1289.52 2240.52 1292.95 2246.64 1299.05C2252.75 1305.16 2256.18 1313.44 2256.18 1322.07C2256.18 1330.71 2252.75 1338.99 2246.64 1345.09C2240.52 1351.2 2232.23 1354.63 2223.59 1354.63V1354.63Z" fill="black"/>
<path d="M1980.69 1668.64C1991.78 1613.81 2080.44 1625.41 2119.49 1650.18C2151.16 1673.38 2189.16 1627.52 2153.27 1598.52C2133.34 1583.23 2107.27 1573.55 2079.69 1569.58V1539.46C2079.56 1531.68 2076.38 1524.26 2070.82 1518.8C2065.27 1513.34 2057.79 1510.29 2050 1510.29C2042.21 1510.29 2034.73 1513.34 2029.18 1518.8C2023.62 1524.26 2020.44 1531.68 2020.31 1539.46V1569.88C1966.94 1578.25 1920.12 1608.94 1913.66 1663.36C1897.3 1813.08 2116.86 1766.16 2123.72 1844.18C2115.8 1919.03 2004.44 1896.9 1961.16 1867.37C1943.22 1852.61 1927.91 1857.36 1914.19 1871.06C1904.69 1885.29 1904.16 1908.49 1921.58 1922.72C1945.24 1942.25 1981.72 1955.03 2020.31 1958.89V1989.36C2020.44 1997.14 2023.62 2004.56 2029.18 2010.02C2034.73 2015.48 2042.21 2018.54 2050 2018.54C2057.79 2018.54 2065.27 2015.48 2070.82 2010.02C2076.38 2004.56 2079.56 1997.14 2079.69 1989.36V1957.45C2139.17 1948.14 2190.45 1913.92 2192.33 1845.75C2196.02 1705.54 1966.44 1755.09 1980.69 1668.64V1668.64Z" fill="white"/>
</g>
<g clip-path="url(#clip7_1_486)">
<path d="M1880.56 416.681V463.874C1880.55 466.999 1879.31 469.996 1877.11 472.208C1874.9 474.421 1871.91 475.669 1868.78 475.679H1840.33C1836.15 494.683 1828.63 512.797 1818.14 529.186L1837.67 548.722C1838.77 549.816 1839.65 551.117 1840.25 552.551C1840.84 553.984 1841.15 555.522 1841.15 557.075C1841.15 558.628 1840.84 560.165 1840.25 561.599C1839.65 563.032 1838.77 564.334 1837.67 565.428L1804.36 598.808C1802.14 601.02 1799.14 602.263 1796 602.263C1792.87 602.263 1789.87 601.02 1787.65 598.808L1768.08 579.276C1751.68 589.749 1733.57 597.252 1714.57 601.442V629.857C1714.58 631.409 1714.27 632.946 1713.68 634.38C1713.09 635.814 1712.22 637.117 1711.12 638.214C1710.03 639.311 1708.72 640.181 1707.29 640.773C1705.86 641.364 1704.32 641.667 1702.77 641.663H1655.57C1654.02 641.667 1652.48 641.366 1651.04 640.774C1649.61 640.183 1648.3 639.314 1647.2 638.218C1646.1 637.121 1645.23 635.818 1644.63 634.383C1644.04 632.949 1643.73 631.411 1643.73 629.857V601.442C1624.76 597.244 1606.67 589.741 1590.29 579.276L1570.69 598.812C1569.6 599.907 1568.3 600.776 1566.87 601.368C1565.43 601.961 1563.9 602.266 1562.35 602.266C1560.8 602.266 1559.27 601.961 1557.84 601.368C1556.41 600.776 1555.11 599.907 1554.02 598.812L1520.64 565.432C1518.43 563.21 1517.2 560.208 1517.2 557.079C1517.2 553.95 1518.43 550.947 1520.64 548.726L1540.2 529.19C1529.72 512.796 1522.21 494.684 1518.01 475.683H1489.59C1486.46 475.68 1483.46 474.435 1481.24 472.221C1479.03 470.007 1477.78 467.006 1477.78 463.874V416.681C1477.78 413.551 1479.02 410.55 1481.24 408.336C1483.45 406.123 1486.45 404.878 1489.58 404.876H1518C1522.21 385.879 1529.72 367.768 1540.2 351.37L1520.63 331.802C1518.42 329.587 1517.19 326.589 1517.19 323.465C1517.19 320.34 1518.42 317.343 1520.63 315.128L1554.01 281.748C1556.23 279.552 1559.22 278.32 1562.35 278.32C1565.47 278.32 1568.46 279.552 1570.68 281.748L1590.28 301.347C1606.65 290.848 1624.74 283.322 1643.72 279.114V250.698C1643.73 247.562 1644.98 244.556 1647.2 242.342C1649.42 240.128 1652.43 238.886 1655.57 238.889H1702.76C1704.31 238.888 1705.85 239.193 1707.28 239.785C1708.71 240.378 1710.02 241.248 1711.11 242.344C1712.21 243.441 1713.08 244.742 1713.67 246.175C1714.26 247.608 1714.57 249.144 1714.57 250.694V279.11C1733.57 283.31 1751.69 290.837 1768.07 301.343L1787.64 281.744C1789.87 279.548 1792.87 278.316 1796 278.316C1799.12 278.316 1802.12 279.548 1804.35 281.744L1837.66 315.124C1838.77 316.215 1839.64 317.513 1840.24 318.944C1840.83 320.375 1841.14 321.91 1841.14 323.461C1841.14 325.011 1840.83 326.547 1840.24 327.978C1839.64 329.409 1838.77 330.707 1837.66 331.798L1818.13 351.366C1828.62 367.756 1836.13 385.869 1840.33 404.872H1868.77C1871.9 404.881 1874.9 406.128 1877.11 408.342C1879.31 410.556 1880.55 413.555 1880.56 416.681V416.681Z" fill="#E45E47"/>
<path d="M1679.18 529.078C1728.22 529.078 1767.98 489.322 1767.98 440.28C1767.98 391.238 1728.22 351.481 1679.18 351.481C1630.14 351.481 1590.38 391.238 1590.38 440.28C1590.38 489.322 1630.14 529.078 1679.18 529.078Z" fill="white"/>
</g>
<defs>
<clipPath id="clip0_1_486">
<rect width="2536.11" height="1919.44" fill="white" transform="translate(227.777 822.222)"/>
</clipPath>
<clipPath id="clip1_1_486">
<rect width="669.444" height="161.111" fill="white" transform="translate(1847.22 566.667)"/>
</clipPath>
<clipPath id="clip2_1_486">
<rect width="527.778" height="527.778" fill="white" transform="translate(1047.22 608.333)"/>
</clipPath>
<clipPath id="clip3_1_486">
<rect width="536.111" height="536.111" fill="white" transform="translate(577.777 977.778)"/>
</clipPath>
<clipPath id="clip4_1_486">
<rect width="533.333" height="533.333" fill="white" transform="translate(622.223 183.333)"/>
</clipPath>
<clipPath id="clip5_1_486">
<rect width="977.778" height="713.889" fill="white" transform="translate(469.445 1361.11)"/>
</clipPath>
<clipPath id="clip6_1_486">
<rect width="994.444" height="1147.22" fill="white" transform="translate(1552.78 1072.22)"/>
</clipPath>
<clipPath id="clip7_1_486">
<rect width="402.778" height="402.778" fill="white" transform="translate(1477.78 238.889)"/>
</clipPath>
</defs>
</svg>
