<svg width="229" height="108" viewBox="0 0 229 108" fill="none" xmlns="http://www.w3.org/2000/svg">
<g clip-path="url(#clip0_1_2288)">
<path d="M175.166 107.837H53.8366C24.103 107.837 0 83.7326 0 54C0 24.2664 24.103 0.163376 53.8366 0.163376H175.166L175.164 0.16438C204.944 0.16438 229.145 24.4372 228.999 54.2893C228.927 67.766 223.927 80.156 215.595 89.575C214.798 90.4448 214.58 91.7485 215.16 92.8352C217.261 97.1822 219.579 100.443 221.174 102.472C222.115 103.559 221.463 105.153 220.015 105.37C217.914 105.66 215.74 105.442 213.566 105.081C209.219 104.284 205.161 102.545 202.988 101.53C202.19 101.095 201.176 101.168 200.307 101.602C199.582 101.965 198.93 102.327 198.206 102.617C191.395 105.877 183.859 107.689 175.89 107.834L175.166 107.837Z" fill="#E45E47"/>
<path d="M175.166 107.837H53.8366C24.103 107.837 0 83.7326 0 54C0 24.2664 24.103 0.163376 53.8366 0.163376H175.166L175.164 0.16438C204.944 0.16438 229.145 24.4372 228.999 54.2893C228.927 67.766 223.927 80.156 215.595 89.575C214.798 90.4448 214.58 91.7485 215.16 92.8352C217.261 97.1822 219.579 100.443 221.174 102.472C222.115 103.559 221.463 105.153 220.015 105.37C217.914 105.66 215.74 105.442 213.566 105.081C209.219 104.284 205.161 102.545 202.988 101.53C202.19 101.095 201.176 101.168 200.307 101.602C199.582 101.965 198.93 102.327 198.206 102.617C191.395 105.877 183.859 107.689 175.89 107.834L175.166 107.837Z" fill="#F5C845"/>
<path d="M92.3849 63.5958C97.6845 63.5958 101.981 59.2996 101.981 54C101.981 48.7004 97.6845 44.4042 92.3849 44.4042C87.0853 44.4042 82.7891 48.7004 82.7891 54C82.7891 59.2996 87.0853 63.5958 92.3849 63.5958Z" fill="black"/>
<path d="M136.611 63.5958C141.911 63.5958 146.207 59.2996 146.207 54C146.207 48.7004 141.911 44.4042 136.611 44.4042C131.312 44.4042 127.016 48.7004 127.016 54C127.016 59.2996 131.312 63.5958 136.611 63.5958Z" fill="black"/>
<path d="M180.83 63.5958C186.13 63.5958 190.426 59.2996 190.426 54C190.426 48.7004 186.13 44.4042 180.83 44.4042C175.531 44.4042 171.234 48.7004 171.234 54C171.234 59.2996 175.531 63.5958 180.83 63.5958Z" fill="black"/>
<path d="M48.1661 63.5958C53.4658 63.5958 57.762 59.2996 57.762 54C57.762 48.7004 53.4658 44.4042 48.1661 44.4042C42.8665 44.4042 38.5703 48.7004 38.5703 54C38.5703 59.2996 42.8665 63.5958 48.1661 63.5958Z" fill="black"/>
</g>
<defs>
<clipPath id="clip0_1_2288">
<rect width="229" height="108" fill="white"/>
</clipPath>
</defs>
</svg>
