<svg width="204" height="119" viewBox="0 0 204 119" fill="none" xmlns="http://www.w3.org/2000/svg">
<g clip-path="url(#clip0_1_2269)">
<path d="M59.4332 118.937H144.562C177.388 118.937 204 92.3266 204 59.4995C204 26.6734 177.389 0.0629578 144.563 0.0629578H59.4332L59.4353 0.0639611C26.558 0.0639611 -0.159814 26.862 0.000719655 59.8196C0.0809864 74.698 5.60033 88.3775 14.7989 98.777C15.6788 99.7372 15.9186 101.177 15.2785 102.377C12.9588 107.176 10.3993 110.776 8.63843 113.016C7.59897 114.216 8.31836 115.976 9.91868 116.216C12.2384 116.536 14.6384 116.296 17.0383 115.896C21.8373 115.016 26.3172 113.097 28.7172 111.976C29.5971 111.496 30.7168 111.576 31.677 112.056C32.4777 112.457 33.197 112.856 33.9967 113.176C41.5157 116.776 49.8353 118.776 58.6346 118.936L59.4332 118.937Z" fill="#E45E47"/>
<path d="M59.4332 118.937H144.562C177.388 118.937 204 92.3266 204 59.4995C204 26.6734 177.389 0.0629578 144.563 0.0629578H59.4332L59.4353 0.0639611C26.558 0.0639611 -0.159814 26.862 0.000719655 59.8196C0.0809864 74.698 5.60033 88.3775 14.7989 98.777C15.6788 99.7372 15.9186 101.177 15.2785 102.377C12.9588 107.176 10.3993 110.776 8.63843 113.016C7.59897 114.216 8.31836 115.976 9.91868 116.216C12.2384 116.536 14.6384 116.296 17.0383 115.896C21.8373 115.016 26.3172 113.097 28.7172 111.976C29.5971 111.496 30.7168 111.576 31.677 112.056C32.4777 112.457 33.197 112.856 33.9967 113.176C41.5157 116.776 49.8353 118.776 58.6346 118.936L59.4332 118.937Z" fill="#E45E47"/>
<path d="M150.828 70.0937C156.678 70.0937 161.421 65.351 161.421 59.5005C161.421 53.65 156.678 48.9073 150.828 48.9073C144.977 48.9073 140.234 53.65 140.234 59.5005C140.234 65.351 144.977 70.0937 150.828 70.0937Z" fill="white"/>
<path d="M101.999 70.0937C107.85 70.0937 112.593 65.351 112.593 59.5005C112.593 53.65 107.85 48.9073 101.999 48.9073C96.149 48.9073 91.4062 53.65 91.4062 59.5005C91.4062 65.351 96.149 70.0937 101.999 70.0937Z" fill="white"/>
<path d="M53.1791 70.0937C59.0296 70.0937 63.7723 65.351 63.7723 59.5005C63.7723 53.65 59.0296 48.9073 53.1791 48.9073C47.3287 48.9073 42.5859 53.65 42.5859 59.5005C42.5859 65.351 47.3287 70.0937 53.1791 70.0937Z" fill="white"/>
</g>
<defs>
<clipPath id="clip0_1_2269">
<rect width="204" height="119" fill="white"/>
</clipPath>
</defs>
</svg>
