<svg width="122" height="156" viewBox="0 0 122 156" fill="none" xmlns="http://www.w3.org/2000/svg">
<g clip-path="url(#clip0_1_2201)">
<path d="M114.043 36.1987L94.928 156H27.1131L7.95312 36.1987H114.043Z" fill="black"/>
<path d="M114.207 64.6606L104.689 124.31C104.505 125.46 103.513 126.307 102.348 126.307H19.6761C18.5109 126.307 17.5188 125.461 17.3348 124.311L7.79585 64.6616C7.56583 63.2215 8.67794 61.9164 10.1371 61.9164H111.867C113.325 61.9164 114.437 63.2205 114.207 64.6606V64.6606Z" fill="#E45E47"/>
<path d="M121.532 20.7041V33.5894C121.532 35.0326 120.378 36.1957 118.958 36.1957H3.0252C1.60505 36.1957 0.460938 35.0326 0.460938 33.5894V20.7041C0.460938 19.261 1.60505 18.0979 3.0252 18.0979H118.957C120.378 18.0979 121.532 19.26 121.532 20.7041V20.7041Z" fill="#E45E47"/>
<path d="M106.476 2.60527V18.0979H15.5312V2.60527C15.5312 1.16112 16.6744 0 18.1015 0H103.897C105.315 0 106.476 1.16112 106.476 2.60527V2.60527Z" fill="#F5C845"/>
<path d="M61.0022 115.803C72.6013 115.803 82.0043 106.4 82.0043 94.8007C82.0043 83.2016 72.6013 73.7986 61.0022 73.7986C49.403 73.7986 40 83.2016 40 94.8007C40 106.4 49.403 115.803 61.0022 115.803Z" fill="white"/>
<path d="M61.0039 105.547C66.9388 105.547 71.75 100.736 71.75 94.8007C71.75 88.8658 66.9388 84.0546 61.0039 84.0546C55.069 84.0546 50.2578 88.8658 50.2578 94.8007C50.2578 100.736 55.069 105.547 61.0039 105.547Z" fill="black"/>
</g>
<defs>
<clipPath id="clip0_1_2201">
<rect width="122" height="156" fill="white"/>
</clipPath>
</defs>
</svg>
