<svg width="3000" height="3000" viewBox="0 0 3000 3000" fill="none" xmlns="http://www.w3.org/2000/svg">
<g clip-path="url(#clip0_1_74)">
<path d="M1733.33 1335.13C1687.83 1335.13 1650.96 1372.02 1650.96 1417.59V1744.61C1650.96 1790.18 1614.1 1827.06 1568.55 1827.06V1827.03C1523.05 1827.03 1486.15 1790.14 1486.15 1744.61V1335.13H1733.33Z" fill="#F5C845"/>
<path d="M1349.18 1258.02V2374.65C1349.18 2448.48 1289.36 2508.33 1215.58 2508.33H597.117C523.333 2508.33 463.521 2448.48 463.521 2374.65V1258.02C463.521 1216.05 474.993 1174.87 496.697 1138.95C511.605 1114.27 532.627 1093.86 557.729 1079.69C582.83 1065.53 611.16 1058.09 639.978 1058.09H1172.72C1201.54 1058.09 1229.87 1065.53 1254.97 1079.69C1280.07 1093.86 1301.09 1114.27 1316 1138.95C1337.71 1174.87 1349.18 1216.04 1349.18 1258.02Z" fill="#E45E47"/>
<path d="M1168.32 1827.03H644.377C616.411 1827.03 593.738 1804.35 593.738 1776.36V1385.78C593.738 1357.8 616.411 1335.11 644.377 1335.11H1168.32C1196.29 1335.11 1218.96 1357.8 1218.96 1385.78V1776.36C1218.96 1804.35 1196.29 1827.03 1168.32 1827.03Z" fill="#F5C845"/>
<path d="M744.682 1496.99C839.883 1425.47 972.828 1425.47 1068.03 1496.99C1078.84 1505.12 1080.99 1520.54 1072.91 1531.26C1070.98 1533.84 1068.56 1536.01 1065.79 1537.65C1063.02 1539.29 1059.96 1540.37 1056.77 1540.83C1053.58 1541.28 1050.34 1541.1 1047.22 1540.3C1044.11 1539.49 1041.18 1538.08 1038.61 1536.14C960.748 1477.69 851.963 1477.69 774.104 1536.14C771.533 1538.08 768.606 1539.49 765.489 1540.29C762.372 1541.1 759.128 1541.28 755.941 1540.82C752.754 1540.37 749.689 1539.29 746.92 1537.65C744.15 1536.01 741.732 1533.84 739.804 1531.26C731.671 1520.41 733.903 1505.04 744.682 1496.99Z" fill="white"/>
<path d="M792.043 1584.82C857.199 1526.42 955.509 1526.42 1020.67 1584.82C1030.76 1593.87 1031.55 1609.38 1022.58 1619.43C1018.24 1624.27 1012.16 1627.18 1005.67 1627.53C999.188 1627.88 992.829 1625.64 987.992 1621.3C941.445 1579.61 871.266 1579.61 824.715 1621.3C814.645 1630.35 799.146 1629.49 790.126 1619.43C781.146 1609.36 781.926 1593.87 792.043 1584.82V1584.82ZM866.56 1678.98C866.56 1657.02 884.412 1639.16 906.356 1639.16C928.299 1639.16 946.151 1657.02 946.151 1678.98C946.151 1700.93 928.299 1718.8 906.356 1718.8C884.412 1718.8 866.56 1700.93 866.56 1678.98ZM628.452 1896.51H737.154C756.326 1896.51 771.869 1912.06 771.869 1931.24C771.869 1950.43 756.326 1965.98 737.154 1965.98H628.452C609.281 1965.98 593.738 1950.43 593.738 1931.24C593.738 1912.06 609.281 1896.51 628.452 1896.51V1896.51ZM852 1896.51H960.698C979.87 1896.51 995.413 1912.06 995.413 1931.24C995.413 1950.43 979.87 1965.98 960.698 1965.98H852C832.828 1965.98 817.285 1950.43 817.285 1931.24C817.285 1912.06 832.828 1896.51 852 1896.51ZM1075.55 1896.51H1184.25C1203.42 1896.51 1218.96 1912.06 1218.96 1931.24C1218.96 1950.43 1203.42 1965.98 1184.25 1965.98H1075.55C1056.38 1965.98 1040.83 1950.43 1040.83 1931.24C1040.83 1912.06 1056.38 1896.51 1075.55 1896.51ZM628.452 2035.45H737.154C756.326 2035.45 771.869 2051 771.869 2070.18C771.869 2089.37 756.326 2104.92 737.154 2104.92H628.452C609.281 2104.92 593.738 2089.37 593.738 2070.18C593.738 2051 609.281 2035.45 628.452 2035.45ZM852 2035.45H960.698C979.87 2035.45 995.413 2051 995.413 2070.18C995.413 2089.37 979.87 2104.92 960.698 2104.92H852C832.828 2104.92 817.285 2089.37 817.285 2070.18C817.285 2051 832.828 2035.45 852 2035.45ZM1075.55 2035.45H1184.25C1203.42 2035.45 1218.96 2051 1218.96 2070.18C1218.96 2089.37 1203.42 2104.92 1184.25 2104.92H1075.55C1056.38 2104.92 1040.83 2089.37 1040.83 2070.18C1040.83 2051 1056.38 2035.45 1075.55 2035.45ZM628.452 2174.39H737.154C756.326 2174.39 771.869 2189.94 771.869 2209.13C771.869 2228.31 756.326 2243.86 737.154 2243.86H628.452C609.281 2243.86 593.738 2228.31 593.738 2209.13C593.738 2189.94 609.281 2174.39 628.452 2174.39ZM852 2174.39H960.698C979.87 2174.39 995.413 2189.94 995.413 2209.13C995.413 2228.31 979.87 2243.86 960.698 2243.86H852C832.828 2243.86 817.285 2228.31 817.285 2209.13C817.285 2189.94 832.828 2174.39 852 2174.39ZM1075.55 2174.39H1184.25C1203.42 2174.39 1218.96 2189.94 1218.96 2209.13C1218.96 2228.31 1203.42 2243.86 1184.25 2243.86H1075.55C1056.38 2243.86 1040.83 2228.31 1040.83 2209.13C1040.83 2189.94 1056.38 2174.39 1075.55 2174.39Z" fill="white"/>
<path d="M628.452 2313.34H737.154C756.326 2313.34 771.869 2328.89 771.869 2348.07C771.869 2367.26 756.326 2382.81 737.154 2382.81H628.452C609.281 2382.81 593.738 2367.26 593.738 2348.07C593.738 2328.89 609.281 2313.34 628.452 2313.34ZM1184.25 2313.34H1075.55C1056.38 2313.34 1040.84 2328.89 1040.84 2348.07C1040.84 2367.26 1056.38 2382.81 1075.55 2382.81H1184.25C1203.42 2382.81 1218.96 2367.26 1218.96 2348.07C1218.96 2328.89 1203.42 2313.34 1184.25 2313.34Z" fill="black"/>
<path d="M960.701 2313.34H852.003C832.831 2313.34 817.289 2328.89 817.289 2348.07C817.289 2367.26 832.831 2382.81 852.003 2382.81H960.701C979.873 2382.81 995.416 2367.26 995.416 2348.07C995.416 2328.89 979.873 2313.34 960.701 2313.34Z" fill="white"/>
<path d="M1352.57 750.003C1278.77 750.003 1218.97 809.847 1218.97 883.679V1231.77C1218.97 1241.35 1215.09 1250.04 1208.82 1256.33C1202.54 1262.61 1193.81 1266.49 1184.24 1266.49H628.469C609.277 1266.49 593.734 1250.93 593.734 1231.77V883.679C593.734 809.844 653.542 750.003 727.33 750.003H1352.57Z" fill="#F5C845"/>
<path d="M1568.55 1827.03H1349.19V1258.01C1349.19 1237.03 1346.28 1216.23 1340.71 1196.23C1335.13 1176.1 1326.81 1156.84 1316 1138.97C1293.85 1102.32 1259.02 1076.07 1218.98 1064.62V883.666C1218.98 809.857 1278.76 750 1352.56 750C1426.36 750 1486.15 809.857 1486.15 883.666V1744.61C1486.15 1790.14 1523.05 1827.03 1568.55 1827.03ZM1099.48 919.128H713.232C708.508 919.128 703.978 917.25 700.638 913.908C697.297 910.565 695.421 906.032 695.421 901.306C695.421 896.579 697.297 892.046 700.638 888.703C703.978 885.361 708.508 883.483 713.232 883.483H1099.48C1104.2 883.483 1108.73 885.361 1112.07 888.703C1115.41 892.046 1117.29 896.579 1117.29 901.306C1117.29 906.032 1115.41 910.565 1112.07 913.908C1108.73 917.25 1104.2 919.128 1099.48 919.128V919.128ZM1099.48 1001.68H713.232C708.508 1001.68 703.978 999.804 700.638 996.462C697.297 993.119 695.421 988.586 695.421 983.86C695.421 979.133 697.297 974.6 700.638 971.257C703.978 967.915 708.508 966.037 713.232 966.037H1099.48C1104.2 966.037 1108.73 967.915 1112.07 971.257C1115.41 974.6 1117.29 979.133 1117.29 983.86C1117.29 988.586 1115.41 993.119 1112.07 996.462C1108.73 999.804 1104.2 1001.68 1099.48 1001.68V1001.68ZM1099.48 1084.24H713.232C708.508 1084.24 703.978 1082.36 700.638 1079.02C697.297 1075.67 695.421 1071.14 695.421 1066.41C695.421 1061.69 697.297 1057.15 700.638 1053.81C703.978 1050.47 708.508 1048.59 713.232 1048.59H1099.48C1104.2 1048.59 1108.73 1050.47 1112.07 1053.81C1115.41 1057.15 1117.29 1061.69 1117.29 1066.41C1117.29 1071.14 1115.41 1075.67 1112.07 1079.02C1108.73 1082.36 1104.2 1084.24 1099.48 1084.24V1084.24ZM1099.48 1166.79H713.232C708.508 1166.79 703.978 1164.91 700.638 1161.57C697.297 1158.23 695.421 1153.69 695.421 1148.97C695.421 1144.24 697.297 1139.71 700.638 1136.37C703.978 1133.02 708.508 1131.15 713.232 1131.15H1099.48C1104.2 1131.15 1108.73 1133.02 1112.07 1136.37C1115.41 1139.71 1117.29 1144.24 1117.29 1148.97C1117.29 1153.69 1115.41 1158.23 1112.07 1161.57C1108.73 1164.91 1104.2 1166.79 1099.48 1166.79V1166.79Z" fill="black"/>
<path d="M1364.55 1627.57H1349.18V1335.11H1364.55C1391.14 1335.11 1412.7 1356.68 1412.7 1383.29V1579.38C1412.7 1605.99 1391.14 1627.57 1364.55 1627.57ZM448.154 1627.57H463.521V1335.11H448.154C421.559 1335.11 400 1356.68 400 1383.29V1579.38C400 1605.99 421.559 1627.57 448.154 1627.57V1627.57Z" fill="#2724F2"/>
<path d="M1364.55 2382.81H1349.18V2179.47H1364.55C1391.14 2179.47 1412.7 2201.04 1412.7 2227.66V2334.63C1412.7 2361.24 1391.14 2382.81 1364.55 2382.81ZM448.154 2382.81H463.521V2179.47H448.154C421.559 2179.47 400 2201.04 400 2227.66V2334.63C400 2361.24 421.559 2382.81 448.154 2382.81V2382.81Z" fill="black"/>
</g>
<g clip-path="url(#clip1_1_74)">
<path d="M2447.22 1411.24V1444.76H1800V1411.24C1800 1368.25 1834.97 1333.33 1878.16 1333.33H2369.06C2412.18 1333.33 2447.22 1368.25 2447.22 1411.24V1411.24Z" fill="black"/>
<path d="M1800 1444.76H2447.22V2366.33H1800V1444.76Z" fill="#F5C845"/>
<path d="M2447.22 2366.33V2399.85C2447.22 2442.89 2412.18 2477.78 2369.06 2477.78H1878.16C1834.97 2477.78 1800 2442.89 1800 2399.85V2366.33H2447.22Z" fill="black"/>
<path d="M1921.78 2116.77C1921.78 2142.87 1943.01 2164.04 1969.2 2164.04H2278.03C2304.21 2164.04 2325.44 2142.88 2325.44 2116.77C2325.44 2090.66 2304.22 2069.49 2278.03 2069.49H1969.2C1943.01 2069.49 1921.78 2090.66 1921.78 2116.77V2116.77Z" fill="white"/>
<path d="M2274.57 1974.95H1972.66C1944.56 1974.95 1921.78 1952.24 1921.78 1924.23V1623.22C1921.78 1595.21 1944.56 1572.5 1972.66 1572.5H2274.57C2302.66 1572.5 2325.44 1595.21 2325.44 1623.22V1924.23C2325.44 1952.24 2302.66 1974.95 2274.57 1974.95Z" fill="#E45E47"/>
<path d="M2085.12 1720.63C2091.28 1690.24 2140.52 1696.67 2162.21 1710.4C2179.8 1723.26 2200.9 1697.84 2180.97 1681.76C2169.9 1673.29 2155.42 1667.92 2140.1 1665.72V1649.03C2140.1 1644.67 2138.36 1640.49 2135.27 1637.4C2132.18 1634.32 2127.99 1632.59 2123.61 1632.59C2119.24 1632.59 2115.05 1634.32 2111.95 1637.4C2108.86 1640.49 2107.12 1644.67 2107.12 1649.03V1665.89C2077.49 1670.53 2051.49 1687.54 2047.9 1717.71C2038.81 1800.7 2160.74 1774.69 2164.55 1817.94C2160.15 1859.44 2098.31 1847.17 2074.27 1830.8C2064.31 1822.62 2055.81 1825.25 2048.19 1832.85C2042.91 1840.74 2042.62 1853.6 2052.29 1861.49C2065.43 1872.31 2085.7 1879.4 2107.12 1881.54V1898.43C2107.12 1902.79 2108.86 1906.97 2111.95 1910.05C2115.05 1913.14 2119.24 1914.87 2123.61 1914.87C2127.99 1914.87 2132.18 1913.14 2135.27 1910.05C2138.36 1906.97 2140.1 1902.79 2140.1 1898.43V1880.74C2173.14 1875.58 2201.61 1856.61 2202.66 1818.82C2204.71 1741.09 2077.21 1768.56 2085.12 1720.63V1720.63Z" fill="white"/>
</g>
<g clip-path="url(#clip2_1_74)">
<path d="M891.667 2830.56C962.236 2830.56 1019.44 2773.35 1019.44 2702.78C1019.44 2632.21 962.236 2575 891.667 2575C821.097 2575 763.889 2632.21 763.889 2702.78C763.889 2773.35 821.097 2830.56 891.667 2830.56Z" fill="#F5C845"/>
<path d="M870.079 2672.91C873.531 2655.81 901.148 2659.43 913.315 2667.15C923.18 2674.39 935.013 2660.09 923.837 2651.04C917.629 2646.28 909.508 2643.25 900.915 2642.02V2632.63C900.915 2631.41 900.675 2630.21 900.211 2629.09C899.746 2627.97 899.065 2626.95 898.206 2626.09C897.347 2625.23 896.328 2624.55 895.206 2624.08C894.084 2623.62 892.881 2623.38 891.667 2623.38C890.452 2623.38 889.25 2623.62 888.128 2624.08C887.006 2624.55 885.986 2625.23 885.128 2626.09C884.269 2626.95 883.588 2627.97 883.123 2629.09C882.658 2630.21 882.419 2631.41 882.419 2632.63V2642.11C865.795 2644.73 851.213 2654.29 849.201 2671.26C844.103 2717.95 912.491 2703.32 914.629 2727.65C912.164 2751 877.475 2744.09 863.997 2734.88C858.405 2730.28 853.641 2731.76 849.364 2736.04C846.405 2740.47 846.242 2747.71 851.666 2752.15C859.036 2758.23 870.399 2762.22 882.419 2763.43V2772.93C882.419 2774.14 882.658 2775.35 883.123 2776.47C883.588 2777.59 884.269 2778.61 885.128 2779.47C885.986 2780.33 887.006 2781.01 888.128 2781.47C889.25 2781.94 890.452 2782.18 891.667 2782.18C892.881 2782.18 894.084 2781.94 895.206 2781.47C896.328 2781.01 897.347 2780.33 898.206 2779.47C899.065 2778.61 899.746 2777.59 900.211 2776.47C900.675 2775.35 900.915 2774.14 900.915 2772.93V2762.98C919.444 2760.08 935.414 2749.4 936.001 2728.15C937.152 2684.42 865.638 2699.87 870.079 2672.91V2672.91Z" fill="white"/>
</g>
<g clip-path="url(#clip3_1_74)">
<path d="M1211.11 2830.56C1281.68 2830.56 1338.89 2773.35 1338.89 2702.78C1338.89 2632.21 1281.68 2575 1211.11 2575C1140.54 2575 1083.33 2632.21 1083.33 2702.78C1083.33 2773.35 1140.54 2830.56 1211.11 2830.56Z" fill="#F5C845"/>
<path d="M1189.52 2672.91C1192.98 2655.81 1220.59 2659.43 1232.76 2667.15C1242.62 2674.39 1254.46 2660.09 1243.28 2651.04C1237.07 2646.28 1228.95 2643.25 1220.36 2642.02V2632.63C1220.36 2631.41 1220.12 2630.21 1219.66 2629.09C1219.19 2627.97 1218.51 2626.95 1217.65 2626.09C1216.79 2625.23 1215.77 2624.55 1214.65 2624.08C1213.53 2623.62 1212.33 2623.38 1211.11 2623.38C1209.9 2623.38 1208.69 2623.62 1207.57 2624.08C1206.45 2624.55 1205.43 2625.23 1204.57 2626.09C1203.71 2626.95 1203.03 2627.97 1202.57 2629.09C1202.1 2630.21 1201.86 2631.41 1201.86 2632.63V2642.11C1185.24 2644.73 1170.66 2654.29 1168.65 2671.26C1163.55 2717.95 1231.94 2703.32 1234.07 2727.65C1231.61 2751 1196.92 2744.09 1183.44 2734.88C1177.85 2730.28 1173.09 2731.76 1168.81 2736.04C1165.85 2740.47 1165.69 2747.71 1171.11 2752.15C1178.48 2758.23 1189.84 2762.22 1201.86 2763.43V2772.93C1201.86 2774.14 1202.1 2775.35 1202.57 2776.47C1203.03 2777.59 1203.71 2778.61 1204.57 2779.47C1205.43 2780.33 1206.45 2781.01 1207.57 2781.47C1208.69 2781.94 1209.9 2782.18 1211.11 2782.18C1212.33 2782.18 1213.53 2781.94 1214.65 2781.47C1215.77 2781.01 1216.79 2780.33 1217.65 2779.47C1218.51 2778.61 1219.19 2777.59 1219.66 2776.47C1220.12 2775.35 1220.36 2774.14 1220.36 2772.93V2762.98C1238.89 2760.08 1254.86 2749.4 1255.45 2728.15C1256.6 2684.42 1185.08 2699.87 1189.52 2672.91V2672.91Z" fill="white"/>
</g>
<g clip-path="url(#clip4_1_74)">
<path d="M2057.28 2313.89H1552.67C1523.58 2313.89 1500 2337.52 1500 2366.68V2780.54C1500 2809.7 1523.58 2833.33 1552.67 2833.33H2057.28C2086.37 2833.33 2109.95 2809.7 2109.95 2780.54V2366.68C2109.95 2337.52 2086.37 2313.89 2057.28 2313.89Z" fill="#2724F2"/>
<path d="M2122.38 2691.69H1941.28C1882.77 2691.69 1834.89 2643.71 1834.89 2585.06C1834.89 2526.41 1882.77 2478.43 1941.28 2478.43H2122.38C2139.1 2478.43 2152.78 2492.14 2152.78 2508.9V2661.23C2152.78 2677.99 2139.1 2691.69 2122.38 2691.69Z" fill="#F5C845"/>
<path d="M1941.28 2524.13C1974.71 2524.13 2002.07 2551.55 2002.07 2585.06C2002.07 2618.58 1974.71 2646 1941.28 2646C1907.84 2646 1880.49 2618.58 1880.49 2585.06C1880.49 2551.55 1907.84 2524.13 1941.28 2524.13V2524.13Z" fill="#E45E47"/>
<path d="M1941.28 2558.26C1955.98 2558.26 1968.01 2570.32 1968.01 2585.06C1968.01 2599.8 1955.98 2611.85 1941.28 2611.85C1926.57 2611.85 1914.54 2599.8 1914.54 2585.06C1914.54 2570.32 1926.57 2558.26 1941.28 2558.26Z" fill="white"/>
</g>
<g clip-path="url(#clip5_1_74)">
<path d="M2622.22 1173.32V796.123C2622.22 769.099 2600.39 747.222 2573.49 747.222H1848.72C1821.8 747.222 1800 769.099 1800 796.123V1173.32C1800 1200.31 1821.8 1222.22 1848.72 1222.22H2573.49C2600.39 1222.22 2622.22 1200.32 2622.22 1173.32Z" fill="#2724F2"/>
<path d="M1800 1050.77H2622.22V1131.92H1800V1050.77Z" fill="black"/>
</g>
<g clip-path="url(#clip6_1_74)">
<path d="M1661.11 887.21V510.012C1661.11 483.004 1682.93 461.111 1709.84 461.111H2434.61C2461.52 461.111 2483.33 483.004 2483.33 510.012V887.207C2483.33 914.214 2461.52 936.108 2434.61 936.108H1709.84C1682.93 936.111 1661.11 914.218 1661.11 887.21Z" fill="#E45E47"/>
<path d="M1724.22 631.552V544.005C1724.22 538.817 1726.27 533.841 1729.93 530.173C1733.58 526.504 1738.54 524.443 1743.71 524.443H1830.93C1836.1 524.443 1841.06 526.504 1844.72 530.173C1848.37 533.841 1850.42 538.817 1850.42 544.005V631.552C1850.42 636.74 1848.37 641.716 1844.72 645.384C1841.06 649.053 1836.1 651.114 1830.93 651.114H1743.71C1741.15 651.114 1738.61 650.608 1736.25 649.625C1733.88 648.642 1731.73 647.201 1729.93 645.384C1728.12 643.567 1726.68 641.411 1725.7 639.037C1724.72 636.664 1724.22 634.12 1724.22 631.552V631.552Z" fill="#F5C845"/>
<path d="M1825.58 568.155H1850.47V607.405H1825.58C1814.8 607.405 1806.06 598.601 1806.06 587.778C1806.06 582.572 1808.12 577.576 1811.78 573.891C1815.44 570.222 1820.41 568.16 1825.58 568.155V568.155ZM1749.1 568.155H1724.22V607.405H1749.1C1759.88 607.405 1768.62 598.601 1768.62 587.778C1768.63 582.572 1766.57 577.576 1762.9 573.891C1759.24 570.222 1754.28 568.16 1749.1 568.155V568.155Z" fill="white"/>
<path d="M2401.4 563.676H1974.97C1969.98 563.676 1965.19 561.686 1961.66 558.142C1958.13 554.598 1956.14 549.792 1956.14 544.78V543.343C1956.14 538.331 1958.13 533.525 1961.66 529.981C1965.19 526.437 1969.98 524.446 1974.97 524.446H2401.4C2406.39 524.446 2411.18 526.437 2414.71 529.981C2418.24 533.525 2420.23 538.331 2420.23 543.343V544.78C2420.23 549.792 2418.24 554.598 2414.71 558.142C2411.18 561.686 2406.39 563.676 2401.4 563.676V563.676ZM2094.69 794.567H1743.05C1738.05 794.567 1733.26 792.576 1729.73 789.033C1726.2 785.489 1724.22 780.683 1724.22 775.671V774.234C1724.22 769.222 1726.2 764.416 1729.73 760.872C1733.26 757.328 1738.05 755.337 1743.05 755.337H2094.69C2099.69 755.337 2104.47 757.328 2108.01 760.872C2111.54 764.416 2113.52 769.222 2113.52 774.234V775.671C2113.52 780.683 2111.54 785.489 2108.01 789.033C2104.47 792.576 2099.69 794.567 2094.69 794.567V794.567ZM1957.89 873.031H1743.05C1738.05 873.031 1733.26 871.04 1729.73 867.496C1726.2 863.952 1724.22 859.146 1724.22 854.134V852.697C1724.22 847.685 1726.2 842.879 1729.73 839.335C1733.26 835.791 1738.05 833.801 1743.05 833.801H1957.89C1960.36 833.801 1962.81 834.289 1965.09 835.239C1967.38 836.189 1969.45 837.58 1971.2 839.335C1972.95 841.09 1974.34 843.173 1975.28 845.466C1976.23 847.758 1976.72 850.215 1976.72 852.697V854.134C1976.72 856.616 1976.23 859.073 1975.28 861.366C1974.34 863.658 1972.95 865.741 1971.2 867.496C1969.45 869.251 1967.38 870.642 1965.09 871.592C1962.81 872.542 1960.36 873.031 1957.89 873.031V873.031ZM2094.69 873.031H2034.63C2032.16 873.031 2029.71 872.542 2027.43 871.592C2025.14 870.642 2023.07 869.251 2021.32 867.496C2019.57 865.741 2018.18 863.658 2017.24 861.366C2016.29 859.073 2015.8 856.616 2015.8 854.134V852.697C2015.8 850.215 2016.29 847.758 2017.24 845.466C2018.18 843.173 2019.57 841.09 2021.32 839.335C2023.07 837.58 2025.14 836.189 2027.43 835.239C2029.71 834.289 2032.16 833.801 2034.63 833.801H2094.69C2099.69 833.801 2104.47 835.791 2108.01 839.335C2111.54 842.879 2113.52 847.685 2113.52 852.697V854.134C2113.52 859.146 2111.54 863.952 2108.01 867.496C2104.47 871.04 2099.69 873.031 2094.69 873.031V873.031ZM2401.4 873.031H2341.34C2336.35 873.031 2331.56 871.04 2328.03 867.496C2324.5 863.952 2322.51 859.146 2322.51 854.134V852.697C2322.51 847.685 2324.5 842.879 2328.03 839.335C2331.56 835.791 2336.35 833.801 2341.34 833.801H2401.4C2406.39 833.801 2411.18 835.791 2414.71 839.335C2418.24 842.879 2420.23 847.685 2420.23 852.697V854.134C2420.23 859.146 2418.24 863.952 2414.71 867.496C2411.18 871.04 2406.39 873.031 2401.4 873.031V873.031Z" fill="black"/>
</g>
<g clip-path="url(#clip7_1_74)">
<path d="M1497.22 438.913C1497.22 441.71 1497.18 444.508 1497.09 447.258C1492.69 570.731 1391.21 669.445 1266.67 669.445C1142.13 669.445 1040.65 570.731 1036.25 447.258C1036.06 441.681 1036.06 436.1 1036.25 430.524C1040.65 307.095 1142.13 208.333 1266.67 208.333C1391.21 208.333 1492.69 307.095 1497.09 430.52C1497.18 433.318 1497.22 436.115 1497.22 438.913V438.913Z" fill="#E45E47"/>
<path d="M1438.55 438.909C1438.55 440.979 1438.51 443.051 1438.43 445.12C1435.14 537.143 1359.51 610.737 1266.67 610.737C1173.82 610.737 1098.19 537.143 1094.9 445.12C1094.74 440.968 1094.74 436.81 1094.9 432.657C1098.19 340.635 1173.82 267.041 1266.67 267.041C1359.51 267.041 1435.14 340.635 1438.43 432.657C1438.51 434.727 1438.55 436.799 1438.55 438.909Z" fill="white"/>
<path d="M1320.64 406.04L1289.24 437.997C1289.17 435.71 1288.73 433.449 1287.94 431.299C1287.94 431.17 1287.9 431.082 1287.85 430.952C1286.6 427.617 1284.57 424.626 1281.94 422.223C1279.31 419.819 1276.15 418.071 1272.71 417.121L1301.81 387.424C1304.28 384.936 1307.63 383.529 1311.14 383.512C1314.65 383.496 1318.02 384.871 1320.51 387.335C1325.73 392.427 1325.77 400.819 1320.64 406.04V406.04ZM1259.1 417.598C1256 418.703 1253.17 420.47 1250.82 422.775C1248.47 425.081 1246.65 427.87 1245.48 430.949C1245.44 431.078 1245.39 431.167 1245.39 431.296C1244.5 433.733 1244.04 436.31 1244.05 438.906C1244.05 439.168 1244.05 439.427 1244.09 439.644L1180.12 384.861C1178.82 383.704 1177.77 382.304 1177.02 380.74C1176.26 379.177 1175.83 377.48 1175.73 375.747C1175.63 374.014 1175.88 372.279 1176.45 370.641C1177.03 369.003 1177.92 367.494 1179.07 366.201C1183.9 360.765 1192.25 360.286 1197.74 365.115L1259.1 417.598Z" fill="#2724F2"/>
<path d="M1365.41 521.811C1364.79 522.56 1364.01 523.162 1363.13 523.576C1362.25 523.99 1361.29 524.204 1360.32 524.204C1358.85 524.204 1357.32 523.683 1356.1 522.638L1278.93 457.832C1282.75 455.413 1285.73 451.894 1287.5 447.741L1364.58 512.503C1367.41 514.851 1367.76 519.027 1365.41 521.811V521.811Z" fill="#F5C845"/>
<path d="M1289.29 438.909C1289.29 451.393 1279.15 461.484 1266.67 461.484C1254.18 461.484 1244.05 451.393 1244.05 438.909C1244.05 436.214 1244.53 433.689 1245.39 431.299C1245.39 431.17 1245.44 431.082 1245.48 430.952C1248.7 422.383 1256.97 416.294 1266.67 416.294C1276.37 416.294 1284.63 422.383 1287.85 430.952C1287.9 431.082 1287.94 431.17 1287.94 431.299C1288.81 433.692 1289.29 436.214 1289.29 438.909Z" fill="#E45E47"/>
</g>
<g clip-path="url(#clip8_1_74)">
<path d="M2636.51 1341.35L2643.54 1360.32C2644.15 1361.98 2645.11 1363.49 2646.37 1364.74C2647.62 1366 2649.13 1366.96 2650.79 1367.58L2669.76 1374.6C2680.45 1378.55 2680.45 1393.67 2669.76 1397.62L2650.79 1404.65C2649.13 1405.26 2647.62 1406.23 2646.37 1407.48C2645.11 1408.73 2644.15 1410.24 2643.54 1411.9L2636.51 1430.87C2632.56 1441.56 2617.44 1441.56 2613.49 1430.87L2606.46 1411.9C2605.85 1410.24 2604.88 1408.73 2603.63 1407.48C2602.38 1406.23 2600.87 1405.26 2599.21 1404.65L2580.24 1397.62C2569.55 1393.67 2569.55 1378.55 2580.24 1374.6L2599.21 1367.58C2600.87 1366.96 2602.38 1366 2603.63 1364.74C2604.88 1363.49 2605.85 1361.98 2606.46 1360.32L2613.49 1341.35C2617.44 1330.66 2632.56 1330.66 2636.51 1341.35V1341.35Z" fill="black"/>
</g>
<defs>
<clipPath id="clip0_1_74">
<rect width="1333.33" height="1758.33" fill="white" transform="translate(400 750)"/>
</clipPath>
<clipPath id="clip1_1_74">
<rect width="647.222" height="1144.44" fill="white" transform="translate(1800 1333.33)"/>
</clipPath>
<clipPath id="clip2_1_74">
<rect width="255.556" height="255.556" fill="white" transform="translate(763.889 2575)"/>
</clipPath>
<clipPath id="clip3_1_74">
<rect width="255.556" height="255.556" fill="white" transform="translate(1083.33 2575)"/>
</clipPath>
<clipPath id="clip4_1_74">
<rect width="652.778" height="519.444" fill="white" transform="translate(1500 2313.89)"/>
</clipPath>
<clipPath id="clip5_1_74">
<rect width="822.222" height="475" fill="white" transform="translate(1800 747.222)"/>
</clipPath>
<clipPath id="clip6_1_74">
<rect width="822.222" height="475" fill="white" transform="translate(1661.11 461.111)"/>
</clipPath>
<clipPath id="clip7_1_74">
<rect width="461.111" height="461.111" fill="white" transform="translate(1036.11 208.333)"/>
</clipPath>
<clipPath id="clip8_1_74">
<rect width="105.556" height="105.556" fill="white" transform="translate(2572.22 1333.33)"/>
</clipPath>
</defs>
</svg>
