<svg width="191" height="339" viewBox="0 0 191 339" fill="none" xmlns="http://www.w3.org/2000/svg">
<g clip-path="url(#clip0_1_1545)">
<path d="M191 23.1843V33.1068H0V23.1843C0 10.4591 10.3199 0.125214 23.0661 0.125214H167.934C180.659 0.125214 191 10.4591 191 23.1843V23.1843Z" fill="black"/>
<path d="M0 33.1068H191V305.886H0V33.1068Z" fill="#F5C845"/>
<path d="M191 305.886V315.809C191 328.548 180.658 338.875 167.934 338.875H23.0661C10.3199 338.875 0 328.548 0 315.809V305.886H191Z" fill="black"/>
<path d="M35.9375 232.017C35.9375 239.745 42.2015 246.01 49.9299 246.01H141.069C148.797 246.01 155.062 239.746 155.062 232.017C155.062 224.29 148.798 218.025 141.069 218.025H49.9299C42.2015 218.025 35.9375 224.289 35.9375 232.017V232.017Z" fill="white"/>
<path d="M140.047 190.041H50.9519C42.6599 190.041 35.9375 183.319 35.9375 175.027V85.9314C35.9375 77.6395 42.6599 70.9171 50.9519 70.9171H140.047C148.339 70.9171 155.062 77.6395 155.062 85.9314V175.027C155.062 183.319 148.339 190.041 140.047 190.041Z" fill="#E45E47"/>
<path d="M84.1398 114.763C85.9565 105.767 100.488 107.67 106.889 111.735C112.079 115.542 118.307 108.017 112.425 103.259C109.159 100.75 104.886 99.1611 100.364 98.5105V93.5688C100.364 90.8812 98.1863 88.7031 95.4987 88.7031C92.8111 88.7031 90.633 90.8812 90.633 93.5688V98.5595C81.8866 99.9339 74.2133 104.969 73.1543 113.898C70.4727 138.464 106.456 130.765 107.58 143.568C106.282 155.849 88.0315 152.217 80.9387 147.373C77.9979 144.951 75.4895 145.731 73.2404 147.98C71.6829 150.314 71.5968 154.121 74.4515 156.456C78.3292 159.659 84.309 161.757 90.633 162.391V167.39C90.633 170.078 92.8111 172.256 95.4987 172.256C98.1863 172.256 100.364 170.078 100.364 167.39V162.154C110.114 160.628 118.517 155.012 118.825 143.827C119.431 120.818 81.8036 128.949 84.1398 114.763V114.763Z" fill="white"/>
</g>
<defs>
<clipPath id="clip0_1_1545">
<rect width="191" height="339" fill="white"/>
</clipPath>
</defs>
</svg>
