<svg width="177" height="138" viewBox="0 0 177 138" fill="none" xmlns="http://www.w3.org/2000/svg">
<g clip-path="url(#clip0_1_2024)">
<path d="M148.174 46.2497V99.1501L111.994 62.9583L61.1538 113.799L32.3909 85.0474L0.140625 117.288V46.2497C0.140625 36.5397 8.01167 28.6797 17.7116 28.6797H130.604C140.314 28.6797 148.174 36.5397 148.174 46.2497V46.2497Z" fill="black"/>
<path d="M148.174 99.1501V120.43C148.174 130.14 140.314 138 130.604 138H17.7116C8.01167 138 0.140625 130.14 0.140625 120.43V117.288L32.3909 85.0474L61.1528 113.799L111.993 62.9583L148.174 99.1501Z" fill="#F5C845"/>
<path d="M32.3977 69.559C36.958 69.559 40.6548 65.8622 40.6548 61.3019C40.6548 56.7417 36.958 53.0448 32.3977 53.0448C27.8374 53.0448 24.1406 56.7417 24.1406 61.3019C24.1406 65.8622 27.8374 69.559 32.3977 69.559Z" fill="#F5C845"/>
<path d="M148.177 57.3534C164.014 57.3534 176.853 44.5144 176.853 28.6767C176.853 12.839 164.014 0 148.177 0C132.339 0 119.5 12.839 119.5 28.6767C119.5 44.5144 132.339 57.3534 148.177 57.3534Z" fill="#E45E47"/>
<path d="M159.125 35.0066C160.4 36.282 160.4 38.3475 159.125 39.6229C158.485 40.2626 157.65 40.5785 156.814 40.5785C155.979 40.5785 155.144 40.2626 154.504 39.6229L148.179 33.298L141.85 39.6229C141.211 40.2626 140.375 40.5785 139.54 40.5785C138.705 40.5785 137.87 40.2626 137.23 39.6229C135.955 38.3475 135.955 36.282 137.23 35.0066L143.559 28.6777L137.23 22.3487C135.955 21.0733 135.955 19.0038 137.23 17.7284C138.505 16.456 140.575 16.456 141.85 17.7284L148.179 24.0573L154.504 17.7284C155.783 16.456 157.849 16.456 159.125 17.7284C160.4 19.0038 160.4 21.0733 159.125 22.3487L152.796 28.6777L159.125 35.0066Z" fill="white"/>
</g>
<defs>
<clipPath id="clip0_1_2024">
<rect width="177" height="138" fill="white"/>
</clipPath>
</defs>
</svg>
