<svg width="254" height="254" viewBox="0 0 254 254" fill="none" xmlns="http://www.w3.org/2000/svg">
<g clip-path="url(#clip0_1_2005)">
<path d="M226.806 92.8144C227.672 88.5597 225.975 83.877 222.586 81.1635C220.48 79.477 217.774 78.5942 215.077 78.5942C213.434 78.5942 211.794 78.9209 210.295 79.5933C209.764 79.8307 209.251 80.1083 208.755 80.3759C207.98 80.7937 207.249 81.1885 206.459 81.4451C202.845 82.6155 199.371 80.6905 195.694 78.6523C194.049 77.7405 192.347 76.7975 190.623 76.1492C187.494 74.9728 184.127 74.7694 180.87 74.571C178.47 74.4257 175.988 74.2754 173.646 73.7332C170.167 72.9276 166.825 70.5136 165.328 67.7259C164.382 65.9633 164.215 64.1386 164.847 62.4511C165.274 61.3118 166.022 60.3368 166.815 59.3046C167.512 58.3968 168.235 57.4569 168.732 56.3806C169.827 54.0118 169.679 51.3994 169.536 48.8722C169.442 47.2168 169.346 45.5063 169.608 43.9061C170.027 41.3378 171.385 38.9389 172.7 36.6191C174.305 33.7853 175.965 30.8543 175.998 27.5245C176.016 25.7919 175.581 24.1135 175.16 22.4921C174.96 21.7155 174.751 20.9129 174.599 20.1253C173.972 16.8716 174.285 13.4436 175.502 10.1789L175.795 9.72395C163.65 4.67559 150.881 1.60028 137.975 0.483994C136.704 4.09941 133.102 7.90522 131.627 11.4054C130.923 13.0748 130.747 14.9206 130.128 16.6221C129.508 18.3236 128.238 19.993 126.445 20.2485C125.896 20.3277 125.316 20.2696 124.806 20.489C123.409 21.0883 123.535 23.0803 122.893 24.4592C122.217 25.9071 120.567 26.6988 118.972 26.798C117.376 26.8982 115.808 26.4282 114.278 25.9643C112.304 25.365 110.184 24.6626 108.997 22.9771C108.346 22.0532 108.05 20.9239 107.47 19.9529C106.442 18.2334 104.634 17.1672 103.018 15.9838C99.3805 13.3223 96.4535 8.6277 94.5185 4.22066C87.0091 6.19771 79.646 8.87721 72.5304 12.2501L72.826 12.692C72.9833 14.3725 73.809 15.9106 75.1438 16.9788L84.4559 24.4281C85.6904 25.4151 86.3978 26.8882 86.3978 28.4684V39.0501C86.3978 42.4962 89.2016 45.2989 92.6467 45.2989H96.9986C99.8514 45.2989 102.173 47.6197 102.173 50.4725V55.4828C102.173 57.1152 101.391 58.6693 100.079 59.6403L74.5305 78.5652C73.6457 79.2205 72.5524 79.5812 71.4502 79.5812H55.6568C52.2107 79.5812 49.408 82.384 49.408 85.8301V96.2474C49.408 97.9168 50.0583 99.4861 51.2377 100.666L62.3074 111.735C63.4878 112.916 65.0571 113.565 66.7265 113.565H82.3115C85.1643 113.565 87.4851 115.886 87.4851 118.739V123.362C87.4851 126.807 90.2878 129.611 93.7339 129.611H104.613C107.466 129.611 109.788 131.932 109.788 134.784C109.788 138.23 112.592 141.033 116.037 141.033H130.18C133.033 141.033 135.353 143.354 135.353 146.208V161.16C135.353 162.73 134.653 164.196 133.431 165.183L112.107 182.424C110.633 183.617 109.787 185.388 109.787 187.284V194.59C109.787 196.017 109.19 197.394 108.148 198.369L100.14 205.862C98.8824 207.04 98.16 208.702 98.16 210.425V226.714C98.16 229.567 95.8392 231.889 92.9864 231.889H84.4869C81.6341 231.889 79.3133 229.568 79.3133 226.714V216.323C79.3133 215.39 79.0999 214.452 78.694 213.612L72.7539 201.274C72.4192 200.578 72.2418 199.803 72.2418 199.029V175.516C72.2418 173.512 71.2708 171.616 69.6445 170.445L47.1954 154.28C45.8487 153.31 45.044 151.741 45.044 150.081V133.82C45.044 132.942 45.2695 132.072 45.6974 131.304L46.8828 129.176C48.2396 126.738 47.8037 123.664 45.8226 121.7L26.1092 102.151C25.1362 101.186 24.578 99.8468 24.578 98.477V86.0305C24.578 84.2839 23.8395 82.6064 22.5539 81.426L12.846 72.5198L12.4161 72.177C-10.1752 119.396 -1.92032 177.683 37.1989 216.803C86.7957 266.399 167.208 266.399 216.804 216.803C220.13 213.477 223.225 210.009 226.103 206.424H225.424C221.453 203.569 218.441 201 215.972 198.369C209.784 191.776 205.661 183.218 204.366 174.269C204.139 172.705 203.992 171.094 203.851 169.536C203.603 166.822 203.348 164.015 202.662 161.313C201.723 157.606 199.984 154.111 198.301 150.731C196.054 146.215 193.93 141.949 193.487 137.153C192.852 130.294 196.103 123.332 201.77 119.418C205.095 117.121 209.1 115.905 212.97 114.73C216.622 113.621 220.398 112.475 223.692 110.418C224.528 109.896 225.44 109.226 225.862 108.211C226.455 106.782 225.898 105.374 225.359 104.013C225.13 103.437 224.915 102.892 224.784 102.351C224.297 100.337 225.015 98.3277 225.776 96.1993C226.166 95.1001 226.571 93.9647 226.806 92.8144V92.8144Z" fill="#2724F2"/>
<path d="M130.178 140.499H116.035C112.88 140.499 110.323 137.942 110.323 134.787C110.323 131.633 107.766 129.076 104.611 129.076H93.7318C90.5773 129.076 88.02 126.519 88.02 123.364V118.741C88.02 115.586 85.4628 113.029 82.3083 113.029H66.7244C65.2093 113.029 63.7563 112.427 62.6861 111.356L51.6174 100.288C50.5462 99.2165 49.9449 97.7635 49.9449 96.2494V85.8311C49.9449 82.6766 52.5022 80.1193 55.6567 80.1193H71.4501C72.6746 80.1193 73.866 79.7265 74.85 78.997L100.397 60.0732C101.851 58.996 102.709 57.2935 102.709 55.4838V50.4735C102.709 47.3191 100.152 44.7618 96.9975 44.7618H92.6455C89.4911 44.7618 86.9338 42.2046 86.9338 39.0501V28.4684C86.9338 26.7328 86.1452 25.0925 84.7904 24.0082L75.4783 16.559C74.1235 15.4747 73.3349 13.8344 73.3349 12.0988V11.8583C60.2521 17.9548 47.9929 26.3991 37.1958 37.1963C26.588 47.8041 18.258 59.8237 12.1875 72.647L22.188 81.8218C23.3674 82.9041 24.0388 84.4302 24.0388 86.0305V98.478C24.0388 100.001 24.6471 101.461 25.7283 102.534L45.4417 122.083C47.2604 123.886 47.6563 126.68 46.4107 128.916L45.2263 131.045C44.7533 131.895 44.5058 132.851 44.5058 133.822V150.085C44.5058 151.922 45.3896 153.647 46.8797 154.72L69.3287 170.885C70.8198 171.958 71.7026 173.683 71.7026 175.52V199.033C71.7026 199.891 71.896 200.739 72.2677 201.51L78.2089 213.849C78.5817 214.621 78.7741 215.469 78.7741 216.327V226.718C78.7741 229.873 81.3313 232.43 84.4858 232.43H92.9852C96.1397 232.43 98.6969 229.873 98.6969 226.718V210.429C98.6969 208.847 99.3523 207.337 100.507 206.258L108.515 198.765C109.669 197.685 110.325 196.174 110.325 194.594V187.288C110.325 185.564 111.104 183.93 112.445 182.846L133.77 165.605C135.111 164.52 135.89 162.888 135.89 161.164V146.21C135.889 143.056 133.332 140.499 130.178 140.499V140.499Z" fill="#F5C845"/>
<path d="M253.997 126.999C253.997 94.4968 241.598 61.9952 216.8 37.1963C204.513 24.9091 190.333 15.6701 175.2 9.47142C173.831 12.8654 173.379 16.6281 174.071 20.2255C174.54 22.6615 175.485 25.0373 175.46 27.5174C175.4 33.4065 170.027 38.006 169.077 43.8179C168.407 47.9193 169.988 52.3814 168.245 56.1542C167.227 58.3537 165.193 59.991 164.344 62.2607C162.341 67.6077 167.961 72.9677 173.524 74.2553C179.087 75.5429 185.088 74.6401 190.432 76.6502C195.895 78.7044 201.07 83.7528 206.623 81.9551C207.994 81.5112 209.199 80.6715 210.513 80.0823C214.299 78.3868 219.012 78.988 222.249 81.5813C225.488 84.1747 227.104 88.6408 226.278 92.7061C225.606 96.0069 223.466 99.2015 224.257 102.476C224.709 104.347 226.099 106.226 225.362 108.004C225.002 108.87 224.2 109.465 223.404 109.963C216.671 114.165 207.992 114.465 201.462 118.976C195.678 122.971 192.3 130.204 192.947 137.203C193.747 145.849 200.004 153.03 202.137 161.446C203.203 165.654 203.208 170.051 203.83 174.348C205.143 183.418 209.303 192.055 215.575 198.738C218.555 201.912 221.965 204.625 225.518 207.156C244.501 183.878 253.98 155.439 253.98 127L253.997 126.999Z" fill="#F5C845"/>
<path d="M130.126 17.1582C130.745 15.4567 130.922 13.6099 131.625 11.9415C133.126 8.37919 136.836 4.50123 138.043 0.829702C138.079 0.718474 138.108 0.606244 138.139 0.495015C134.433 0.170349 130.715 0 126.997 0V0.0160329C116 0.0160329 105.004 1.43895 94.3047 4.27577C96.2346 8.81809 99.2448 13.7632 103.017 16.5219C104.634 17.7053 106.442 18.7705 107.47 20.491C108.05 21.462 108.345 22.5903 108.997 23.5142C110.184 25.2007 112.305 25.9021 114.278 26.5014C115.807 26.9653 117.376 27.4353 118.971 27.3351C120.567 27.2349 122.218 26.4442 122.892 24.9953C123.535 23.6174 123.408 21.6234 124.805 21.0251C125.315 20.8067 125.895 20.8638 126.445 20.7856C128.236 20.5291 129.507 18.8607 130.126 17.1582V17.1582Z" fill="#F5C845"/>
</g>
<defs>
<clipPath id="clip0_1_2005">
<rect width="254" height="254" fill="white"/>
</clipPath>
</defs>
</svg>
