<svg width="30" height="30" viewBox="0 0 30 30" fill="none" xmlns="http://www.w3.org/2000/svg">
<g clip-path="url(#clip0_1_2316)">
<path d="M18.2717 2.278L20.2677 7.671C20.6207 8.626 21.3738 9.379 22.3288 9.732L27.7218 11.728C30.7588 12.852 30.7588 17.148 27.7218 18.272L22.3288 20.268C21.3738 20.621 20.6207 21.374 20.2677 22.329L18.2717 27.722C17.1477 30.759 12.8517 30.759 11.7277 27.722L9.73175 22.329C9.37875 21.374 8.62575 20.621 7.67075 20.268L2.27775 18.272C-0.75925 17.148 -0.75925 12.852 2.27775 11.728L7.67075 9.732C8.62575 9.379 9.37875 8.626 9.73175 7.671L11.7277 2.278C12.8517 -0.758998 17.1477 -0.758998 18.2717 2.278V2.278Z" fill="black"/>
</g>
<defs>
<clipPath id="clip0_1_2316">
<rect width="30" height="30" fill="white"/>
</clipPath>
</defs>
</svg>
