<svg width="70" height="62" viewBox="0 0 70 62" fill="none" xmlns="http://www.w3.org/2000/svg">
<g clip-path="url(#clip0_1_2281)">
<path d="M24.6824 53.9759C27.3056 56.1904 30.018 58.48 32.9008 60.978C33.503 61.5 34.2515 61.7605 34.999 61.7605C35.7475 61.7605 36.495 61.499 37.0972 60.978C39.979 58.48 42.6914 56.1904 45.3146 53.9769C49.8737 50.1293 53.8106 46.8056 57.2275 43.5822C63.8607 37.3236 69.999 30.2194 69.999 20.7014C69.999 15.2906 68.1413 10.2234 64.7695 6.43286C61.2164 2.43887 56.2896 0.239471 50.8978 0.239471C44.8798 0.239471 39.6633 3.08516 35.8116 8.46793C35.523 8.87174 35.2525 9.27554 34.999 9.67434C34.7465 9.27454 34.476 8.87073 34.1874 8.46793C30.3367 3.08516 25.1202 0.239471 19.1022 0.239471C13.7104 0.239471 8.78357 2.43887 5.22946 6.43286C1.85772 10.2234 0 15.2906 0 20.7014C0 26.5812 2.28156 32.007 7.17936 37.7765C11.4539 42.8106 17.5842 47.985 24.6824 53.9759V53.9759Z" fill="#E45E47"/>
</g>
<defs>
<clipPath id="clip0_1_2281">
<rect width="70" height="62" fill="white"/>
</clipPath>
</defs>
</svg>
