<svg width="532" height="355" viewBox="0 0 532 355" fill="none" xmlns="http://www.w3.org/2000/svg">
<g clip-path="url(#clip0_1_1828)">
<path d="M531.999 49.9736L531.988 331.927C531.785 344.563 521.473 354.739 508.792 354.739H15.5645C6.9684 354.739 0 347.771 0 339.175V49.9736H531.999Z" fill="#E45E47"/>
<path d="M531.993 15.8253V49.9756H0V15.8253C0 7.22917 6.9684 0.260773 15.5645 0.260773H516.428C525.025 0.260773 531.993 7.22917 531.993 15.8253V15.8253Z" fill="black"/>
<path d="M36.0402 31.6271C39.6349 31.6271 42.5491 28.7129 42.5491 25.1182C42.5491 21.5234 39.6349 18.6093 36.0402 18.6093C32.4454 18.6093 29.5312 21.5234 29.5312 25.1182C29.5312 28.7129 32.4454 31.6271 36.0402 31.6271Z" fill="white"/>
<path d="M68.5636 31.6271C72.1584 31.6271 75.0725 28.7129 75.0725 25.1182C75.0725 21.5234 72.1584 18.6093 68.5636 18.6093C64.9688 18.6093 62.0547 21.5234 62.0547 25.1182C62.0547 28.7129 64.9688 31.6271 68.5636 31.6271Z" fill="white"/>
<path d="M101.087 31.6271C104.682 31.6271 107.596 28.7129 107.596 25.1182C107.596 21.5234 104.682 18.6093 101.087 18.6093C97.4923 18.6093 94.5781 21.5234 94.5781 25.1182C94.5781 28.7129 97.4923 31.6271 101.087 31.6271Z" fill="white"/>
<path d="M342.414 0.260773H345.799V49.9736H342.414V0.260773Z" fill="white"/>
<path d="M403.812 0.260773H407.197V49.9736H403.812V0.260773Z" fill="white"/>
<path d="M465.211 0.260773H468.596V49.9736H465.211V0.260773Z" fill="white"/>
</g>
<defs>
<clipPath id="clip0_1_1828">
<rect width="532" height="355" fill="white"/>
</clipPath>
</defs>
</svg>
