<svg width="251" height="183" viewBox="0 0 251 183" fill="none" xmlns="http://www.w3.org/2000/svg">
<g clip-path="url(#clip0_1_2343)">
<path d="M217.189 0H18.6843C8.41181 0 0.0859375 8.32587 0.0859375 18.5983V164.402C0.0859375 174.674 8.41181 183 18.6843 183H217.189C227.462 183 235.787 174.674 235.787 164.402V18.5983C235.788 8.32587 227.463 0 217.189 0Z" fill="#E45E47"/>
<path d="M240.179 129.067H176.224C155.562 129.067 138.656 112.162 138.656 91.4995C138.656 70.8375 155.562 53.9315 176.224 53.9315H240.179C246.083 53.9315 250.913 58.7615 250.913 64.6654V118.335C250.913 124.238 246.083 129.067 240.179 129.067Z" fill="black"/>
<path d="M176.226 70.0318C188.032 70.0318 197.693 79.6918 197.693 91.4995C197.693 103.307 188.033 112.967 176.226 112.967C164.419 112.967 154.758 103.307 154.758 91.4995C154.758 79.6918 164.419 70.0318 176.226 70.0318Z" fill="#F5C845"/>
<path d="M176.23 82.0587C181.422 82.0587 185.671 86.3072 185.671 91.4995C185.671 96.6918 181.422 100.94 176.23 100.94C171.038 100.94 166.789 96.6918 166.789 91.4995C166.789 86.3072 171.038 82.0587 176.23 82.0587V82.0587Z" fill="white"/>
<path d="M44.8449 0V183H18.6843C8.41181 183 0.0859375 174.674 0.0859375 164.402V18.5983C0.0859375 8.32587 8.41181 0 18.6843 0H44.8449Z" fill="#F5C845"/>
<path d="M44.8438 0H70.0956V183H44.8438V0Z" fill="black"/>
</g>
<defs>
<clipPath id="clip0_1_2343">
<rect width="251" height="183" fill="white"/>
</clipPath>
</defs>
</svg>
