<svg width="101" height="101" viewBox="0 0 101 101" fill="none" xmlns="http://www.w3.org/2000/svg">
<g clip-path="url(#clip0_1_1966)">
<path d="M101 44.583V56.417C101 58.0503 99.672 59.3773 98.0477 59.3773H90.9143C89.8665 64.1359 87.9781 68.6884 85.3481 72.7945L90.2468 77.6932C91.4097 78.8561 91.4097 80.7275 90.2468 81.8824L81.8924 90.2528C80.7295 91.4077 78.8581 91.4077 77.7032 90.2528L72.7955 85.3551C68.6964 87.9781 64.1279 89.8665 59.3783 90.9133V98.0387C59.3783 99.68 58.0593 100.999 56.418 100.999H44.583C42.9417 100.999 41.6147 99.679 41.6147 98.0387V90.9133C36.8731 89.8665 32.3126 87.9771 28.2135 85.3551L23.2988 90.2538C22.1529 91.4087 20.2725 91.4087 19.1176 90.2538L10.7472 81.8834C9.60132 80.7285 9.59231 78.8571 10.7472 77.6942L15.6539 72.7955C13.0309 68.6884 11.1345 64.1359 10.0877 59.3783H2.96226C1.32801 59.3773 0 58.0503 0 56.417V44.583C0 42.9497 1.32801 41.6227 2.96026 41.6227H10.0857C11.1335 36.8721 13.0299 32.3116 15.6519 28.2055L10.7452 23.2988C9.59932 22.1439 9.59031 20.2805 10.7452 19.1176L19.1156 10.7472C20.2705 9.60132 22.1499 9.60132 23.2968 10.7472L28.2115 15.6619C32.3106 13.0309 36.8711 11.1345 41.6127 10.0867V2.96126C41.6137 1.32801 42.9417 0 44.583 0H56.417C58.0583 0 59.3773 1.32801 59.3773 2.96026V10.0857C64.1279 11.1335 68.6964 13.0299 72.7945 15.6609L77.7012 10.7462C78.8561 9.60032 80.7275 9.60032 81.8904 10.7462L90.2448 19.1166C91.4077 20.2624 91.4077 22.1429 90.2448 23.2978L85.3461 28.2045C87.9771 32.3116 89.8655 36.8721 90.9123 41.6217H98.0457C99.672 41.6217 101 42.9497 101 44.583Z" fill="#E45E47"/>
<path d="M50.5014 72.7675C62.7991 72.7675 72.7683 62.7982 72.7683 50.5005C72.7683 38.2028 62.7991 28.2335 50.5014 28.2335C38.2036 28.2335 28.2344 38.2028 28.2344 50.5005C28.2344 62.7982 38.2036 72.7675 50.5014 72.7675Z" fill="white"/>
</g>
<defs>
<clipPath id="clip0_1_1966">
<rect width="101" height="101" fill="white"/>
</clipPath>
</defs>
</svg>
