<svg width="3000" height="3000" viewBox="0 0 3000 3000" fill="none" xmlns="http://www.w3.org/2000/svg">
<g clip-path="url(#clip0_1_635)">
<path d="M1738.89 1161.5V1208.29H836.111V1161.5C836.111 1101.51 884.888 1052.78 945.136 1052.78H1629.86C1690.01 1052.78 1738.89 1101.51 1738.89 1161.5Z" fill="black"/>
<path d="M836.111 1208.29H1738.89V2494.46H836.111V1208.29Z" fill="#2724F2"/>
<path d="M1738.89 2494.46V2541.24C1738.89 2601.31 1690.01 2650 1629.86 2650H945.136C884.888 2650 836.111 2601.31 836.111 2541.24V2494.46H1738.89Z" fill="black"/>
</g>
<g clip-path="url(#clip1_1_635)">
<path d="M2747.22 1046.53V1456.49C2747.22 1482.05 2726.62 1502.78 2701.21 1502.78H2273.79C2248.38 1502.78 2227.78 1482.05 2227.78 1456.49V885.181C2227.78 859.615 2248.38 838.889 2273.79 838.889H2540.52V1046.53H2747.22Z" fill="white"/>
<path d="M2747.22 1046.53V1456.49C2747.22 1482.05 2726.62 1502.78 2701.21 1502.78H2273.79C2248.38 1502.78 2227.78 1482.05 2227.78 1456.49V885.181C2227.78 859.615 2248.38 838.889 2273.79 838.889H2540.52V1046.53H2747.22Z" fill="#F5C845"/>
<path d="M2747.19 1046.66H2540.42V838.916L2747.19 1046.66ZM2297.49 1028.47H2470.81V1046.52H2297.49V1028.47ZM2297.49 1118.2H2677.51V1136.26H2297.49V1118.2ZM2297.49 1207.94H2677.51V1225.99H2297.49V1207.94ZM2297.49 1297.68H2677.51V1315.73H2297.49V1297.68ZM2297.49 1387.41H2677.51V1405.46H2297.49V1387.41Z" fill="black"/>
</g>
<g clip-path="url(#clip2_1_635)">
<path d="M2002.78 836.502V883.286H1102.78V836.502C1102.78 776.506 1151.4 727.778 1211.47 727.778H1894.09C1954.05 727.778 2002.78 776.506 2002.78 836.502Z" fill="black"/>
<path d="M1102.78 883.286H2002.78V2169.46H1102.78V883.286Z" fill="#E45E47"/>
<path d="M2002.78 2169.46V2216.24C2002.78 2276.31 1954.05 2325 1894.09 2325H1211.47C1151.4 2325 1102.78 2276.31 1102.78 2216.24V2169.46H2002.78ZM1797.6 1597.46H1307.94C1286.26 1597.46 1268.69 1579.88 1268.69 1558.19V1068.21C1268.69 1046.52 1286.26 1028.94 1307.94 1028.94H1797.6C1819.28 1028.94 1836.85 1046.52 1836.85 1068.21V1558.19C1836.85 1579.88 1819.28 1597.46 1797.6 1597.46Z" fill="#F5C845"/>
<path d="M1552.77 1291.61C1595.9 1291.61 1630.86 1256.63 1630.86 1213.47C1630.86 1170.32 1595.9 1135.33 1552.77 1135.33C1509.65 1135.33 1474.68 1170.32 1474.68 1213.47C1474.68 1256.63 1509.65 1291.61 1552.77 1291.61Z" fill="white"/>
<path d="M1450.14 1491.07C1412.45 1491.07 1388.06 1451.39 1404.84 1417.62C1431.86 1363.23 1487.95 1325.86 1552.77 1325.86C1617.59 1325.86 1673.68 1363.23 1700.7 1417.62C1717.48 1451.4 1693.09 1491.07 1655.4 1491.07H1450.14ZM1268.69 1744.94C1268.69 1781.38 1298.21 1810.91 1334.62 1810.91H1778.61C1815.03 1810.91 1844.54 1781.38 1844.54 1744.94C1844.54 1708.5 1815.03 1678.97 1778.61 1678.97H1334.62C1298.21 1678.97 1268.69 1708.5 1268.69 1744.94Z" fill="white"/>
</g>
<g clip-path="url(#clip3_1_635)">
<path d="M1863.89 644.444H1258.35V644.386L1457.63 420.559L1561.13 517.803L1664.61 420.559L1863.89 644.444Z" fill="#2724F2"/>
<path d="M1457.62 420.556L1258.33 644.382V233.333L1457.62 420.556ZM1863.88 233.333V644.441L1664.59 420.556L1863.88 233.333Z" fill="black"/>
<path d="M1863.89 233.337L1664.61 420.559L1561.13 517.803L1457.63 420.559L1258.35 233.337H1863.89Z" fill="#F5C845"/>
</g>
<g clip-path="url(#clip4_1_635)">
<path d="M983.623 581.536V789.176L840.302 647.119L638.912 846.676L524.974 733.821L397.223 860.368V581.536C397.223 543.423 428.402 512.571 466.826 512.571H914.024C952.487 512.571 983.623 543.423 983.623 581.536Z" fill="black"/>
<path d="M983.623 789.176V872.702C983.623 910.815 952.487 941.667 914.024 941.667H466.826C428.402 941.667 397.223 910.815 397.223 872.702V860.368L524.974 733.821L638.908 846.676L840.298 647.119L983.623 789.176Z" fill="#F5C845"/>
<path d="M524.986 673.027C543.05 673.027 557.694 658.517 557.694 640.617C557.694 622.718 543.05 608.207 524.986 608.207C506.921 608.207 492.277 622.718 492.277 640.617C492.277 658.517 506.921 673.027 524.986 673.027Z" fill="#F5C845"/>
<path d="M983.627 625.119C1046.36 625.119 1097.22 574.724 1097.22 512.559C1097.22 450.395 1046.36 400 983.627 400C920.89 400 870.031 450.395 870.031 512.559C870.031 574.724 920.89 625.119 983.627 625.119Z" fill="#E45E47"/>
<path d="M1026.99 537.405C1028.8 539.196 1030.04 541.48 1030.54 543.967C1031.04 546.454 1030.78 549.032 1029.8 551.374C1028.82 553.716 1027.16 555.717 1025.03 557.124C1022.9 558.531 1020.4 559.28 1017.84 559.276C1016.14 559.279 1014.46 558.95 1012.89 558.306C1011.32 557.662 1009.89 556.717 1008.69 555.525L983.635 530.699L958.565 555.525C956.031 558.036 952.722 559.276 949.414 559.276C946.105 559.276 942.796 558.036 940.262 555.525C939.061 554.335 938.108 552.923 937.458 551.369C936.807 549.814 936.473 548.148 936.473 546.465C936.473 544.782 936.807 543.116 937.458 541.561C938.108 540.007 939.061 538.594 940.262 537.405L965.333 512.563L940.262 487.722C937.837 485.316 936.475 482.054 936.475 478.654C936.475 475.253 937.837 471.992 940.262 469.586C942.693 467.188 945.983 465.841 949.414 465.841C952.844 465.841 956.134 467.188 958.565 469.586L983.635 494.428L1008.69 469.586C1011.12 467.188 1014.41 465.841 1017.84 465.841C1021.27 465.841 1024.56 467.188 1026.99 469.586C1029.42 471.992 1030.78 475.253 1030.78 478.654C1030.78 482.054 1029.42 485.316 1026.99 487.722L1001.92 512.563L1026.99 537.405Z" fill="white"/>
</g>
<g clip-path="url(#clip5_1_635)">
<path d="M530.555 1546.66V1592.23C530.553 1595.24 529.356 1598.14 527.225 1600.27C525.095 1602.41 522.205 1603.62 519.188 1603.63H491.721C487.676 1621.97 480.421 1639.46 470.289 1655.29L489.151 1674.15C490.215 1675.21 491.06 1676.46 491.636 1677.85C492.212 1679.23 492.509 1680.71 492.509 1682.21C492.509 1683.71 492.212 1685.2 491.636 1686.58C491.06 1687.97 490.215 1689.22 489.151 1690.28L456.983 1722.51C454.843 1724.64 451.942 1725.84 448.918 1725.84C445.894 1725.84 442.994 1724.64 440.853 1722.51L421.957 1703.65C406.126 1713.76 388.639 1721.01 370.295 1725.05V1752.49C370.299 1753.98 370.007 1755.47 369.436 1756.85C368.864 1758.24 368.025 1759.5 366.966 1760.56C365.907 1761.61 364.648 1762.45 363.264 1763.03C361.879 1763.6 360.395 1763.89 358.897 1763.89H313.328C311.828 1763.89 310.342 1763.6 308.956 1763.03C307.569 1762.46 306.309 1761.62 305.247 1760.56C304.185 1759.5 303.343 1758.24 302.768 1756.86C302.194 1755.47 301.898 1753.99 301.899 1752.49V1725.05C283.577 1721 266.111 1713.75 250.299 1703.65L231.375 1722.51C230.318 1723.57 229.063 1724.41 227.682 1724.98C226.301 1725.55 224.821 1725.85 223.326 1725.85C221.831 1725.85 220.35 1725.55 218.969 1724.98C217.588 1724.41 216.333 1723.57 215.276 1722.51L183.047 1690.28C180.919 1688.14 179.725 1685.24 179.725 1682.22C179.725 1679.2 180.919 1676.3 183.047 1674.15L201.94 1655.29C191.819 1639.46 184.564 1621.97 180.508 1603.63H153.072C150.048 1603.63 147.15 1602.42 145.011 1600.29C142.873 1598.15 141.67 1595.25 141.666 1592.23V1546.66C141.668 1543.64 142.87 1540.74 145.007 1538.6C147.144 1536.47 150.042 1535.27 153.064 1535.26H180.5C184.564 1516.92 191.818 1499.43 201.932 1483.6L183.039 1464.71C180.912 1462.57 179.717 1459.68 179.717 1456.66C179.717 1453.64 180.912 1450.75 183.039 1448.61L215.268 1416.38C217.411 1414.26 220.304 1413.07 223.318 1413.07C226.332 1413.07 229.225 1414.26 231.368 1416.38L250.291 1435.3C266.094 1425.17 283.562 1417.9 301.891 1413.84V1386.4C301.897 1383.37 303.105 1380.47 305.25 1378.33C307.394 1376.2 310.3 1375 313.328 1375H358.893C360.39 1375 361.873 1375.29 363.256 1375.87C364.64 1376.44 365.897 1377.28 366.955 1378.34C368.014 1379.39 368.853 1380.65 369.426 1382.04C369.998 1383.42 370.292 1384.9 370.291 1386.4V1413.83C388.642 1417.89 406.132 1425.16 421.953 1435.3L440.846 1416.38C442.995 1414.26 445.892 1413.07 448.911 1413.07C451.929 1413.07 454.827 1414.26 456.976 1416.38L489.143 1448.61C490.207 1449.66 491.051 1450.91 491.628 1452.29C492.204 1453.68 492.501 1455.16 492.501 1456.66C492.501 1458.15 492.204 1459.63 491.628 1461.02C491.051 1462.4 490.207 1463.65 489.143 1464.71L470.281 1483.6C480.409 1499.42 487.665 1516.91 491.713 1535.26H519.18C522.199 1535.27 525.092 1536.47 527.224 1538.61C529.356 1540.75 530.554 1543.64 530.555 1546.66V1546.66Z" fill="#E45E47"/>
<path d="M336.123 1655.18C383.474 1655.18 421.86 1616.8 421.86 1569.45C421.86 1522.1 383.474 1483.71 336.123 1483.71C288.772 1483.71 250.387 1522.1 250.387 1569.45C250.387 1616.8 288.772 1655.18 336.123 1655.18Z" fill="white"/>
</g>
<g clip-path="url(#clip6_1_635)">
<path d="M727.778 1868.88V1914.45C727.776 1917.47 726.578 1920.36 724.448 1922.5C722.317 1924.63 719.427 1925.84 716.41 1925.85H688.944C684.899 1944.2 677.643 1961.69 667.512 1977.51L686.374 1996.37C687.438 1997.43 688.282 1998.68 688.859 2000.07C689.435 2001.45 689.732 2002.94 689.732 2004.44C689.732 2005.94 689.435 2007.42 688.859 2008.8C688.282 2010.19 687.438 2011.44 686.374 2012.5L654.206 2044.73C652.066 2046.87 649.165 2048.07 646.141 2048.07C643.117 2048.07 640.217 2046.87 638.076 2044.73L619.179 2025.87C603.349 2035.98 585.861 2043.23 567.518 2047.27V2074.71C567.522 2076.21 567.23 2077.69 566.659 2079.08C566.087 2080.46 565.248 2081.72 564.189 2082.78C563.129 2083.84 561.871 2084.68 560.486 2085.25C559.102 2085.82 557.618 2086.11 556.12 2086.11H510.55C509.051 2086.11 507.565 2085.82 506.178 2085.25C504.792 2084.68 503.531 2083.84 502.47 2082.78C501.408 2081.72 500.565 2080.46 499.991 2079.08C499.416 2077.69 499.121 2076.21 499.121 2074.71V2047.27C480.8 2043.22 463.334 2035.98 447.522 2025.87L428.598 2044.73C427.541 2045.79 426.286 2046.63 424.905 2047.2C423.524 2047.77 422.043 2048.07 420.548 2048.07C419.053 2048.07 417.573 2047.77 416.192 2047.2C414.811 2046.63 413.556 2045.79 412.499 2044.73L380.27 2012.5C378.142 2010.36 376.948 2007.46 376.948 2004.44C376.948 2001.42 378.142 1998.52 380.27 1996.37L399.162 1977.51C389.042 1961.68 381.787 1944.2 377.73 1925.85H350.295C347.271 1925.85 344.372 1924.65 342.234 1922.51C340.096 1920.37 338.893 1917.47 338.889 1914.45V1868.88C338.891 1865.86 340.092 1862.96 342.229 1860.83C344.366 1858.69 347.264 1857.49 350.287 1857.49H377.722C381.787 1839.14 389.041 1821.66 399.155 1805.82L380.262 1786.93C378.134 1784.79 376.94 1781.9 376.94 1778.88C376.94 1775.87 378.134 1772.97 380.262 1770.83L412.491 1738.6C414.634 1736.48 417.526 1735.29 420.541 1735.29C423.555 1735.29 426.448 1736.48 428.59 1738.6L447.514 1757.53C463.316 1747.39 480.784 1740.12 499.114 1736.06V1708.62C499.12 1705.6 500.328 1702.69 502.472 1700.56C504.617 1698.42 507.522 1697.22 510.55 1697.22H556.116C557.613 1697.22 559.096 1697.52 560.479 1698.09C561.862 1698.66 563.119 1699.5 564.178 1700.56C565.236 1701.62 566.076 1702.87 566.648 1704.26C567.221 1705.64 567.515 1707.12 567.514 1708.62V1736.06C585.865 1740.11 603.355 1747.38 619.176 1757.52L638.068 1738.6C640.217 1736.48 643.115 1735.29 646.133 1735.29C649.152 1735.29 652.05 1736.48 654.198 1738.6L686.366 1770.83C687.43 1771.88 688.274 1773.14 688.85 1774.52C689.426 1775.9 689.723 1777.38 689.723 1778.88C689.723 1780.37 689.426 1781.86 688.85 1783.24C688.274 1784.62 687.43 1785.87 686.366 1786.93L667.504 1805.82C677.632 1821.65 684.888 1839.13 688.936 1857.48H716.403C719.422 1857.49 722.314 1858.69 724.446 1860.83C726.579 1862.97 727.777 1865.86 727.778 1868.88V1868.88Z" fill="#F5C845"/>
<path d="M533.346 1977.4C580.697 1977.4 619.082 1939.02 619.082 1891.67C619.082 1844.32 580.697 1805.93 533.346 1805.93C485.995 1805.93 447.609 1844.32 447.609 1891.67C447.609 1939.02 485.995 1977.4 533.346 1977.4Z" fill="white"/>
</g>
<g clip-path="url(#clip7_1_635)">
<path d="M2227.78 963.889C2292.21 963.889 2344.44 911.655 2344.44 847.222C2344.44 782.789 2292.21 730.556 2227.78 730.556C2163.34 730.556 2111.11 782.789 2111.11 847.222C2111.11 911.655 2163.34 963.889 2227.78 963.889Z" fill="#E45E47"/>
<path d="M2272.31 872.975C2274.17 874.831 2275.44 877.198 2275.95 879.776C2276.47 882.353 2276.21 885.025 2275.2 887.453C2274.19 889.881 2272.49 891.955 2270.3 893.413C2268.11 894.871 2265.54 895.647 2262.92 895.643C2261.17 895.647 2259.44 895.305 2257.83 894.638C2256.22 893.971 2254.75 892.991 2253.52 891.755L2227.79 866.023L2202.04 891.755C2199.43 894.358 2196.04 895.643 2192.64 895.643C2189.24 895.643 2185.84 894.358 2183.24 891.755C2182.01 890.523 2181.03 889.059 2180.36 887.448C2179.69 885.836 2179.35 884.109 2179.35 882.365C2179.35 880.621 2179.69 878.894 2180.36 877.282C2181.03 875.671 2182.01 874.207 2183.24 872.975L2208.99 847.226L2183.24 821.478C2180.75 818.985 2179.35 815.604 2179.35 812.079C2179.35 808.555 2180.75 805.174 2183.24 802.681C2185.74 800.195 2189.12 798.799 2192.64 798.799C2196.16 798.799 2199.54 800.195 2202.04 802.681L2227.79 828.429L2253.52 802.681C2256.01 800.195 2259.39 798.799 2262.92 798.799C2266.44 798.799 2269.82 800.195 2272.31 802.681C2274.81 805.174 2276.2 808.555 2276.2 812.079C2276.2 815.604 2274.81 818.985 2272.31 821.478L2246.57 847.226L2272.31 872.975Z" fill="white"/>
</g>
<g clip-path="url(#clip8_1_635)">
<path d="M727.778 1227.22V1272.78C727.776 1275.8 726.578 1278.69 724.448 1280.83C722.317 1282.97 719.427 1284.17 716.41 1284.18H688.944C684.899 1302.53 677.643 1320.02 667.512 1335.84L686.374 1354.7C687.438 1355.76 688.282 1357.02 688.859 1358.4C689.435 1359.79 689.732 1361.27 689.732 1362.77C689.732 1364.27 689.435 1365.75 688.859 1367.14C688.282 1368.52 687.438 1369.78 686.374 1370.83L654.206 1403.06C652.066 1405.2 649.165 1406.4 646.141 1406.4C643.117 1406.4 640.217 1405.2 638.076 1403.06L619.179 1384.21C603.349 1394.32 585.861 1401.56 567.518 1405.61V1433.04C567.522 1434.54 567.23 1436.02 566.659 1437.41C566.087 1438.79 565.248 1440.05 564.189 1441.11C563.129 1442.17 561.871 1443.01 560.486 1443.58C559.102 1444.15 557.618 1444.44 556.12 1444.44H510.55C509.051 1444.45 507.565 1444.15 506.178 1443.58C504.792 1443.01 503.531 1442.17 502.47 1441.11C501.408 1440.06 500.565 1438.8 499.991 1437.41C499.416 1436.03 499.121 1434.54 499.121 1433.04V1405.61C480.8 1401.55 463.334 1394.31 447.522 1384.21L428.598 1403.07C427.541 1404.12 426.286 1404.96 424.905 1405.54C423.524 1406.11 422.043 1406.4 420.548 1406.4C419.053 1406.4 417.573 1406.11 416.192 1405.54C414.811 1404.96 413.556 1404.12 412.499 1403.07L380.27 1370.84C378.142 1368.69 376.948 1365.79 376.948 1362.77C376.948 1359.75 378.142 1356.85 380.27 1354.71L399.162 1335.85C389.042 1320.02 381.787 1302.53 377.73 1284.18H350.295C347.271 1284.18 344.372 1282.98 342.234 1280.84C340.096 1278.7 338.893 1275.81 338.889 1272.78V1227.22C338.891 1224.19 340.092 1221.3 342.229 1219.16C344.366 1217.02 347.264 1215.82 350.287 1215.82H377.722C381.787 1197.48 389.041 1179.99 399.155 1164.16L380.262 1145.26C378.134 1143.13 376.94 1140.23 376.94 1137.22C376.94 1134.2 378.134 1131.3 380.262 1129.17L412.491 1096.94C414.634 1094.82 417.526 1093.63 420.541 1093.63C423.555 1093.63 426.448 1094.82 428.59 1096.94L447.514 1115.86C463.316 1105.72 480.784 1098.46 499.114 1094.39V1066.96C499.12 1063.93 500.328 1061.03 502.472 1058.89C504.617 1056.75 507.522 1055.55 510.55 1055.56H556.116C557.613 1055.55 559.096 1055.85 560.479 1056.42C561.862 1056.99 563.119 1057.83 564.178 1058.89C565.236 1059.95 566.076 1061.21 566.648 1062.59C567.221 1063.97 567.515 1065.46 567.514 1066.95V1094.39C585.865 1098.44 603.355 1105.71 619.176 1115.86L638.068 1096.93C640.217 1094.81 643.115 1093.62 646.133 1093.62C649.152 1093.62 652.05 1094.81 654.198 1096.93L686.366 1129.16C687.43 1130.22 688.274 1131.47 688.85 1132.85C689.426 1134.23 689.723 1135.71 689.723 1137.21C689.723 1138.71 689.426 1140.19 688.85 1141.57C688.274 1142.95 687.43 1144.21 686.366 1145.26L667.504 1164.15C677.632 1179.98 684.888 1197.47 688.936 1215.82H716.403C719.422 1215.82 722.314 1217.03 724.446 1219.17C726.579 1221.3 727.777 1224.2 727.778 1227.22V1227.22Z" fill="#101010"/>
<path d="M533.346 1335.74C580.697 1335.74 619.082 1297.35 619.082 1250C619.082 1202.65 580.697 1164.27 533.346 1164.27C485.995 1164.27 447.609 1202.65 447.609 1250C447.609 1297.35 485.995 1335.74 533.346 1335.74Z" fill="white"/>
</g>
<g clip-path="url(#clip9_1_635)">
<path d="M1266.67 347.222C1331.1 347.222 1383.33 294.989 1383.33 230.556C1383.33 166.122 1331.1 113.889 1266.67 113.889C1202.23 113.889 1150 166.122 1150 230.556C1150 294.989 1202.23 347.222 1266.67 347.222Z" fill="#E45E47"/>
<path d="M1311.2 256.308C1313.06 258.165 1314.33 260.532 1314.84 263.109C1315.36 265.687 1315.09 268.359 1314.09 270.786C1313.08 273.214 1311.38 275.288 1309.19 276.746C1307 278.204 1304.43 278.98 1301.8 278.976C1300.06 278.98 1298.33 278.639 1296.72 277.972C1295.1 277.304 1293.64 276.325 1292.41 275.089L1266.67 249.357L1240.93 275.089C1238.32 277.691 1234.93 278.976 1231.53 278.976C1228.13 278.976 1224.73 277.691 1222.13 275.089C1220.89 273.856 1219.92 272.392 1219.25 270.781C1218.58 269.17 1218.24 267.442 1218.24 265.698C1218.24 263.954 1218.58 262.227 1219.25 260.616C1219.92 259.004 1220.89 257.541 1222.13 256.308L1247.88 230.56L1222.13 204.811C1219.64 202.318 1218.24 198.937 1218.24 195.413C1218.24 191.888 1219.64 188.508 1222.13 186.014C1224.62 183.528 1228 182.132 1231.53 182.132C1235.05 182.132 1238.43 183.528 1240.93 186.014L1266.67 211.762L1292.41 186.014C1294.9 183.528 1298.28 182.132 1301.8 182.132C1305.33 182.132 1308.71 183.528 1311.2 186.014C1313.69 188.508 1315.09 191.888 1315.09 195.413C1315.09 198.937 1313.69 202.318 1311.2 204.811L1285.45 230.56L1311.2 256.308Z" fill="white"/>
</g>
<g clip-path="url(#clip10_1_635)">
<path d="M620.578 2276.16L628.894 2298.63C629.621 2300.6 630.765 2302.38 632.247 2303.86C633.73 2305.35 635.515 2306.49 637.482 2307.22L659.953 2315.53C672.607 2320.22 672.607 2338.12 659.953 2342.8L637.482 2351.12C635.515 2351.84 633.73 2352.99 632.247 2354.47C630.765 2355.95 629.621 2357.74 628.894 2359.7L620.578 2382.17C615.894 2394.83 597.994 2394.83 593.311 2382.17L584.994 2359.7C584.267 2357.74 583.123 2355.95 581.641 2354.47C580.159 2352.99 578.373 2351.84 576.407 2351.12L553.936 2342.8C541.282 2338.12 541.282 2320.22 553.936 2315.53L576.407 2307.22C578.373 2306.49 580.159 2305.35 581.641 2303.86C583.123 2302.38 584.267 2300.6 584.994 2298.63L593.311 2276.16C597.994 2263.5 615.894 2263.5 620.578 2276.16V2276.16Z" fill="black"/>
</g>
<g clip-path="url(#clip11_1_635)">
<path d="M2772.96 2007.91L2686.54 2806.67C2681.48 2853.43 2641.79 2888.89 2594.49 2888.89H2049.95C2002.65 2888.89 1962.97 2853.43 1957.9 2806.67L1871.49 2007.91H2772.96Z" fill="black"/>
<path d="M2788.47 1870.78H1855.97C1834.26 1870.78 1816.67 1888.28 1816.67 1909.86V1968.84C1816.67 1990.43 1834.26 2007.93 1855.97 2007.93H2788.47C2810.18 2007.93 2827.78 1990.43 2827.78 1968.84V1909.86C2827.78 1888.28 2810.18 1870.78 2788.47 1870.78V1870.78Z" fill="#F5C845"/>
<path d="M2589.87 1870.79H2511.27L2472.23 1782.65H2172.21L2133.13 1870.79H2054.57L2115.86 1732.48C2118.68 1726.13 2123.28 1720.73 2129.12 1716.93C2134.96 1713.14 2141.79 1711.12 2148.76 1711.11H2495.68C2502.66 1711.12 2509.48 1713.14 2515.32 1716.93C2521.16 1720.73 2525.77 1726.13 2528.58 1732.48L2589.87 1870.79Z" fill="#2724F2"/>
<path d="M1932.47 1870.79H1946.86V2007.91H1932.47V1870.79ZM2121.5 1870.79H2135.89V2007.91H2121.5V1870.79ZM2310.54 1870.79H2324.93V2007.91H2310.54V1870.79ZM2499.57 1870.79H2513.96V2007.91H2499.57V1870.79ZM2688.6 1870.79H2702.99V2007.91H2688.6V1870.79Z" fill="white"/>
<path d="M2322.22 2650.27C2455.27 2650.27 2563.13 2543.01 2563.13 2410.69C2563.13 2278.37 2455.27 2171.11 2322.22 2171.11C2189.17 2171.11 2081.32 2278.37 2081.32 2410.69C2081.32 2543.01 2189.17 2650.27 2322.22 2650.27Z" fill="#E45E47"/>
<path d="M2414.19 2463.57C2418.03 2467.39 2420.64 2472.25 2421.7 2477.54C2422.76 2482.83 2422.21 2488.32 2420.13 2493.3C2418.06 2498.29 2414.54 2502.55 2410.03 2505.54C2405.51 2508.54 2400.21 2510.13 2394.78 2510.13C2391.18 2510.14 2387.61 2509.44 2384.28 2508.07C2380.95 2506.7 2377.92 2504.68 2375.38 2502.15L2322.24 2449.3L2269.07 2502.14C2263.7 2507.49 2256.68 2510.12 2249.66 2510.12C2242.65 2510.12 2235.63 2507.48 2230.26 2502.14C2227.71 2499.61 2225.69 2496.6 2224.31 2493.29C2222.93 2489.99 2222.22 2486.44 2222.22 2482.86C2222.22 2479.27 2222.93 2475.73 2224.31 2472.42C2225.69 2469.11 2227.71 2466.1 2230.26 2463.57L2283.42 2410.69L2230.26 2357.82C2225.11 2352.7 2222.22 2345.76 2222.22 2338.52C2222.22 2331.28 2225.11 2324.34 2230.26 2319.22C2235.41 2314.12 2242.39 2311.25 2249.67 2311.25C2256.94 2311.25 2263.92 2314.12 2269.07 2319.22L2322.24 2372.1L2375.37 2319.22C2386.12 2308.59 2403.47 2308.59 2414.19 2319.22C2419.33 2324.34 2422.22 2331.28 2422.22 2338.52C2422.22 2345.76 2419.33 2352.7 2414.19 2357.82L2361.02 2410.69L2414.19 2463.57Z" fill="white"/>
</g>
<defs>
<clipPath id="clip0_1_635">
<rect width="902.778" height="1597.22" fill="white" transform="translate(836.111 1052.78)"/>
</clipPath>
<clipPath id="clip1_1_635">
<rect width="519.444" height="663.889" fill="white" transform="translate(2227.78 838.889)"/>
</clipPath>
<clipPath id="clip2_1_635">
<rect width="900" height="1597.22" fill="white" transform="translate(1102.78 727.778)"/>
</clipPath>
<clipPath id="clip3_1_635">
<rect width="605.556" height="411.111" fill="white" transform="translate(1258.33 233.333)"/>
</clipPath>
<clipPath id="clip4_1_635">
<rect width="700" height="541.667" fill="white" transform="translate(397.223 400)"/>
</clipPath>
<clipPath id="clip5_1_635">
<rect width="388.889" height="388.889" fill="white" transform="translate(141.666 1375)"/>
</clipPath>
<clipPath id="clip6_1_635">
<rect width="388.889" height="388.889" fill="white" transform="translate(338.889 1697.22)"/>
</clipPath>
<clipPath id="clip7_1_635">
<rect width="233.333" height="233.333" fill="white" transform="translate(2111.11 730.556)"/>
</clipPath>
<clipPath id="clip8_1_635">
<rect width="388.889" height="388.889" fill="white" transform="translate(338.889 1055.56)"/>
</clipPath>
<clipPath id="clip9_1_635">
<rect width="233.333" height="233.333" fill="white" transform="translate(1150 113.889)"/>
</clipPath>
<clipPath id="clip10_1_635">
<rect width="125" height="125" fill="white" transform="translate(544.445 2266.67)"/>
</clipPath>
<clipPath id="clip11_1_635">
<rect width="1011.11" height="1177.78" fill="white" transform="translate(1816.67 1711.11)"/>
</clipPath>
</defs>
</svg>
