<svg width="122" height="122" viewBox="0 0 122 122" fill="none" xmlns="http://www.w3.org/2000/svg">
<g clip-path="url(#clip0_1_2276)">
<path d="M0.00494902 61.7391C0.415666 93.5099 26.0287 119.863 57.3075 121.833H58.1289C59.3601 121.998 60.5099 121.998 61.8234 121.998C70.8541 121.833 79.3918 119.782 87.1081 116.087C87.9295 115.759 88.6676 115.349 89.489 114.938C90.4741 114.446 91.6229 114.364 92.5267 114.856C94.989 116.006 99.5872 117.976 104.513 118.879C106.976 119.29 109.438 119.536 111.819 119.207C113.461 118.961 114.2 117.155 113.133 115.924C111.326 113.625 108.699 109.931 106.318 105.005C105.662 103.774 105.908 102.296 106.81 101.311C116.251 90.6379 121.916 76.5992 121.998 61.3304C122.164 27.505 94.743 0.00302124 61.0019 0.00302124C59.6061 0.00302124 58.2113 0.0853655 56.8968 0.24905C24.7976 2.30163 -0.405768 29.1469 0.00494902 61.7391V61.7391Z" fill="white"/>
<path d="M92.5983 69.2063C97.1571 69.2063 100.853 65.5106 100.853 60.9518C100.853 56.393 97.1571 52.6973 92.5983 52.6973C88.0394 52.6973 84.3438 56.393 84.3438 60.9518C84.3438 65.5106 88.0394 69.2063 92.5983 69.2063Z" fill="black"/>
<path d="M61.0123 69.2063C65.5712 69.2063 69.2668 65.5106 69.2668 60.9518C69.2668 56.393 65.5712 52.6973 61.0123 52.6973C56.4535 52.6973 52.7578 56.393 52.7578 60.9518C52.7578 65.5106 56.4535 69.2063 61.0123 69.2063Z" fill="black"/>
<path d="M29.4342 69.2063C33.993 69.2063 37.6887 65.5106 37.6887 60.9518C37.6887 56.393 33.993 52.6973 29.4342 52.6973C24.8754 52.6973 21.1797 56.393 21.1797 60.9518C21.1797 65.5106 24.8754 69.2063 29.4342 69.2063Z" fill="black"/>
</g>
<defs>
<clipPath id="clip0_1_2276">
<rect width="122" height="122" fill="white"/>
</clipPath>
</defs>
</svg>
