<svg width="3000" height="3000" viewBox="0 0 3000 3000" fill="none" xmlns="http://www.w3.org/2000/svg">
<g clip-path="url(#clip0_1_1036)">
<path d="M1650.01 2697.22C1099.73 2697.22 862.393 2484.47 956.029 2051.93C1041.24 1658.27 1316.2 1488.09 1383.02 1451.97C1388.64 1454.31 1394.67 1455.5 1400.75 1455.47H1899.23C1905.32 1455.48 1911.36 1454.3 1917 1452C1945.68 1467.52 2012.68 1507.74 2086.56 1579.67C2184.85 1675.39 2295.28 1827.26 2343.96 2051.93C2437.59 2484.47 2200.33 2697.22 1650.01 2697.22V2697.22Z" fill="#2724F2"/>
<path d="M1939.74 1214.1L1863.91 1361.98H1436.08L1360.28 1214.1C1338 1170.72 1357.33 1117.41 1402.39 1098.73C1459.76 1075.04 1545.22 1050 1650.02 1050C1754.81 1050 1840.23 1075.04 1897.6 1098.73C1942.7 1117.41 1961.96 1170.72 1939.74 1214.1Z" fill="#E45E47"/>
<path d="M1899.23 1455.49H1400.76C1388.35 1455.49 1376.45 1450.56 1367.67 1441.8C1358.9 1433.03 1353.97 1421.14 1353.97 1408.74C1353.97 1396.35 1358.9 1384.46 1367.67 1375.69C1376.45 1366.92 1388.35 1362 1400.76 1362H1899.23C1911.64 1362 1923.55 1366.92 1932.32 1375.69C1941.1 1384.46 1946.03 1396.35 1946.03 1408.74C1946.03 1421.14 1941.1 1433.03 1932.32 1441.8C1923.55 1450.56 1911.64 1455.49 1899.23 1455.49V1455.49Z" fill="black"/>
<path d="M1550.49 1906.35C1566.41 1827.63 1693.71 1844.28 1749.78 1879.86C1795.25 1913.16 1849.8 1847.31 1798.28 1805.68C1769.66 1783.72 1732.23 1769.82 1692.62 1764.12V1720.88C1692.44 1709.7 1687.87 1699.05 1679.9 1691.22C1671.92 1683.38 1661.19 1678.99 1650 1678.99C1638.81 1678.99 1628.08 1683.38 1620.1 1691.22C1612.13 1699.05 1607.56 1709.7 1607.38 1720.88V1764.55C1530.75 1776.58 1463.53 1820.64 1454.25 1898.78C1430.77 2113.75 1745.99 2046.38 1755.84 2158.41C1744.48 2265.88 1584.59 2234.1 1522.45 2191.7C1496.69 2170.51 1474.71 2177.33 1455.01 2197C1441.37 2217.43 1440.62 2250.74 1465.62 2271.18C1499.59 2299.21 1551.97 2317.57 1607.38 2323.11V2366.86C1607.56 2378.03 1612.13 2388.69 1620.1 2396.52C1628.08 2404.36 1638.81 2408.75 1650 2408.75C1661.19 2408.75 1671.92 2404.36 1679.9 2396.52C1687.87 2388.69 1692.44 2378.03 1692.62 2366.86V2321.04C1778.03 2307.68 1851.65 2258.54 1854.35 2160.66C1859.65 1959.33 1530.03 2030.49 1550.49 1906.35V1906.35Z" fill="white"/>
</g>
<g clip-path="url(#clip1_1_1036)">
<path d="M967.163 955.556H1713.39C1748.95 955.556 1777.78 926.705 1777.78 891.116V594.995C1777.78 559.406 1748.95 530.556 1713.39 530.556H967.163C931.604 530.556 902.777 559.406 902.777 594.995V891.12C902.777 926.708 931.604 955.556 967.163 955.556V955.556Z" fill="#F5C845"/>
<path d="M1715.54 666.525V819.59C1674.89 819.59 1641.92 852.584 1641.92 893.265H1038.63C1038.63 852.584 1005.66 819.59 965.016 819.59V666.525C1005.66 666.525 1038.63 633.531 1038.63 592.849H1641.92C1641.92 633.531 1674.89 666.525 1715.54 666.525V666.525Z" fill="#E45E47"/>
<path d="M1340.27 825.17C1370.94 825.17 1395.79 788.407 1395.79 743.057C1395.79 697.708 1370.94 660.944 1340.27 660.944C1309.61 660.944 1284.75 697.708 1284.75 743.057C1284.75 788.407 1309.61 825.17 1340.27 825.17Z" fill="white"/>
<path d="M1531.7 772.603C1555.79 772.603 1575.32 759.375 1575.32 743.057C1575.32 726.74 1555.79 713.512 1531.7 713.512C1507.61 713.512 1488.07 726.74 1488.07 743.057C1488.07 759.375 1507.61 772.603 1531.7 772.603Z" fill="white"/>
<path d="M1148.85 772.603C1172.95 772.603 1192.48 759.375 1192.48 743.057C1192.48 726.74 1172.95 713.512 1148.85 713.512C1124.76 713.512 1105.23 726.74 1105.23 743.057C1105.23 759.375 1124.76 772.603 1148.85 772.603Z" fill="white"/>
</g>
<g clip-path="url(#clip2_1_1036)">
<path d="M219.127 2112.29C212.644 2140.45 209.375 2169.25 209.38 2198.14C209.38 2215.91 210.593 2233.39 212.991 2250.59C155.782 2221.21 116.668 2161.78 116.668 2093.22H224.046C222.248 2099.53 220.608 2105.89 219.127 2112.29V2112.29Z" fill="#E45E47"/>
<path d="M1258.33 2132.94V2263.32C1258.33 2285.24 1240.52 2303.04 1218.5 2303.04H1187.45V2303.07C1158.34 2405.07 1087.65 2492.79 991.946 2551.7C981.544 2558.13 975.129 2569.34 975.129 2581.54V2660.32C975.129 2682.24 957.315 2700 935.297 2700H861.832C839.846 2700 822.032 2682.24 822.032 2660.32C822.032 2640.76 806.055 2625.39 787.028 2625.39C785.47 2625.39 783.853 2625.48 782.263 2625.69C756.903 2629.12 731.339 2630.83 705.747 2630.82C679.714 2630.82 654.175 2629.08 629.232 2625.69C608.18 2622.87 589.463 2639.14 589.463 2660.32C589.463 2671.28 585.011 2681.18 577.816 2688.39C570.337 2695.84 560.199 2700.01 549.631 2700H476.198C454.211 2700 436.366 2682.24 436.366 2660.32V2581.54C436.366 2569.34 429.92 2558.09 419.486 2551.67C307.81 2482.83 230.172 2374.8 212.983 2250.59C210.568 2233.21 209.361 2215.69 209.371 2198.15C209.371 2168.74 212.735 2140.05 219.118 2112.29C220.614 2105.89 222.263 2099.52 224.068 2093.22C277.851 1904.99 473.081 1765.44 705.74 1765.44C755.445 1765.44 803.465 1771.84 848.777 1783.73C852.577 1784.73 856.377 1785.75 860.145 1786.81C867.659 1788.94 875.124 1791.24 882.536 1793.7C900.798 1799.76 918.711 1806.82 936.193 1814.85C952.516 1793.09 973.592 1775.32 997.823 1762.89C1022.82 1750.14 1050.5 1743.51 1078.57 1743.55V1912.44H1078.54C1130.08 1963.46 1168.01 2025.16 1187.45 2093.22H1218.49C1240.52 2093.22 1258.33 2111.01 1258.33 2132.94V2132.94Z" fill="#F5C845"/>
<path d="M798.958 1926.91C798.958 1948.52 781.392 1966.03 759.719 1966.03H531.79C510.121 1966.03 492.551 1948.52 492.551 1926.91C492.551 1905.3 510.117 1887.78 531.79 1887.78H759.719C781.388 1887.78 798.958 1905.3 798.958 1926.91ZM1046.47 2097.2C1020.78 2097.2 999.95 2076.42 999.95 2050.81C999.95 2025.16 1020.78 2004.38 1046.47 2004.38C1072.17 2004.38 1093 2025.16 1093 2050.81C1093 2076.42 1072.17 2097.2 1046.47 2097.2Z" fill="black"/>
<path d="M997.832 1702.78V1762.89C973.599 1775.32 952.523 1793.09 936.202 1814.85C918.719 1806.82 900.806 1799.76 882.544 1793.7C875.132 1791.24 867.667 1788.94 860.153 1786.81C856.378 1785.72 852.588 1784.69 848.785 1783.7C880.362 1735.01 935.33 1702.78 997.832 1702.78Z" fill="#E45E47"/>
</g>
<g clip-path="url(#clip3_1_1036)">
<path d="M706.945 1669.44C891.807 1669.44 1041.67 1519.58 1041.67 1334.72C1041.67 1149.86 891.807 1000 706.945 1000C522.083 1000 372.223 1149.86 372.223 1334.72C372.223 1519.58 522.083 1669.44 706.945 1669.44Z" fill="#F5C845"/>
<path d="M650.392 1256.48C659.437 1211.69 731.781 1221.16 763.653 1241.4C789.495 1260.35 820.493 1222.89 791.216 1199.2C774.953 1186.71 753.681 1178.8 731.169 1175.56V1150.96C731.169 1147.78 730.542 1144.63 729.325 1141.69C728.107 1138.75 726.323 1136.08 724.074 1133.83C721.824 1131.58 719.153 1129.8 716.214 1128.58C713.275 1127.36 710.125 1126.74 706.944 1126.74C703.762 1126.74 700.612 1127.36 697.673 1128.58C694.734 1129.8 692.063 1131.58 689.814 1133.83C687.564 1136.08 685.78 1138.75 684.563 1141.69C683.345 1144.63 682.719 1147.78 682.719 1150.96V1175.81C639.171 1182.65 600.972 1207.71 595.702 1252.17C582.348 1374.48 761.494 1336.15 767.096 1399.88C760.638 1461.03 669.767 1442.94 634.46 1418.83C619.813 1406.77 607.334 1410.65 596.13 1421.84C588.378 1433.47 587.95 1452.41 602.16 1464.05C621.465 1479.99 651.231 1490.44 682.719 1493.59V1518.49C682.719 1521.67 683.345 1524.82 684.563 1527.76C685.78 1530.7 687.564 1533.37 689.814 1535.62C692.063 1537.87 694.734 1539.66 697.673 1540.87C700.612 1542.09 703.762 1542.72 706.944 1542.72C710.125 1542.72 713.275 1542.09 716.214 1540.87C719.153 1539.66 721.824 1537.87 724.074 1535.62C726.323 1533.37 728.107 1530.7 729.325 1527.76C730.542 1524.82 731.169 1521.67 731.169 1518.49V1492.42C779.707 1484.82 821.542 1456.86 823.08 1401.18C826.095 1286.62 638.76 1327.1 650.392 1256.48V1256.48Z" fill="white"/>
</g>
<g clip-path="url(#clip4_1_1036)">
<path d="M2616.67 1950C2779.28 1950 2911.11 1818.17 2911.11 1655.56C2911.11 1492.94 2779.28 1361.11 2616.67 1361.11C2454.05 1361.11 2322.22 1492.94 2322.22 1655.56C2322.22 1818.17 2454.05 1950 2616.67 1950Z" fill="#F5C845"/>
<path d="M2566.92 1586.73C2574.88 1547.33 2638.52 1555.66 2666.55 1573.47C2689.29 1590.13 2716.55 1557.18 2690.8 1536.34C2676.49 1525.36 2657.78 1518.39 2637.98 1515.55V1493.91C2637.98 1491.11 2637.43 1488.34 2636.36 1485.75C2635.28 1483.17 2633.72 1480.82 2631.74 1478.84C2629.76 1476.86 2627.41 1475.29 2624.82 1474.22C2622.24 1473.15 2619.47 1472.6 2616.67 1472.6C2613.87 1472.6 2611.1 1473.15 2608.51 1474.22C2605.93 1475.29 2603.58 1476.86 2601.6 1478.84C2599.62 1480.82 2598.05 1483.17 2596.98 1485.75C2595.91 1488.34 2595.36 1491.11 2595.36 1493.91V1515.76C2557.05 1521.78 2523.45 1543.83 2518.81 1582.94C2507.07 1690.53 2664.65 1656.81 2669.58 1712.87C2663.9 1766.67 2583.96 1750.75 2552.91 1729.54C2540.02 1718.93 2529.04 1722.35 2519.19 1732.19C2512.37 1742.42 2511.99 1759.09 2524.49 1769.32C2541.48 1783.35 2567.66 1792.53 2595.36 1795.31V1817.21C2595.36 1820.01 2595.91 1822.78 2596.98 1825.37C2598.05 1827.95 2599.62 1830.3 2601.6 1832.28C2603.58 1834.26 2605.93 1835.83 2608.51 1836.9C2611.1 1837.97 2613.87 1838.52 2616.67 1838.52C2619.47 1838.52 2622.24 1837.97 2624.82 1836.9C2627.41 1835.83 2629.76 1834.26 2631.74 1832.28C2633.72 1830.3 2635.28 1827.95 2636.36 1825.37C2637.43 1822.78 2637.98 1820.01 2637.98 1817.21V1794.28C2680.68 1787.59 2717.48 1763 2718.83 1714.01C2721.48 1613.24 2556.69 1648.85 2566.92 1586.73V1586.73Z" fill="white"/>
</g>
<g clip-path="url(#clip5_1_1036)">
<path d="M2597.53 2600H2145.31C2142.43 2600 2139.58 2600.57 2136.92 2601.67C2134.26 2602.78 2131.85 2604.4 2129.81 2606.44C2127.77 2608.48 2126.16 2610.91 2125.06 2613.58C2123.96 2616.25 2123.39 2619.11 2123.39 2621.99V2678.01C2123.39 2683.84 2125.7 2689.43 2129.81 2693.56C2133.92 2697.68 2139.49 2700 2145.31 2700H2597.53C2603.34 2700 2608.92 2697.68 2613.03 2693.56C2617.14 2689.43 2619.45 2683.84 2619.45 2678.01V2621.99C2619.45 2616.16 2617.14 2610.57 2613.03 2606.44C2608.92 2602.32 2603.34 2600 2597.53 2600V2600Z" fill="#F5C845"/>
<path d="M2540.81 2500H2088.58C2082.77 2500 2077.2 2502.32 2073.09 2506.44C2068.98 2510.57 2066.67 2516.16 2066.67 2521.99V2578C2066.67 2583.84 2068.98 2589.43 2073.09 2593.56C2077.2 2597.68 2082.77 2600 2088.58 2600H2540.81C2546.62 2600 2552.2 2597.68 2556.31 2593.56C2560.42 2589.43 2562.72 2583.84 2562.72 2578V2521.99C2562.72 2516.16 2560.41 2510.57 2556.3 2506.44C2552.19 2502.32 2546.62 2500 2540.81 2500V2500Z" fill="#E45E47"/>
<path d="M2597.53 2400H2145.31C2139.49 2400 2133.92 2402.32 2129.81 2406.44C2125.7 2410.57 2123.39 2416.16 2123.39 2422V2478.01C2123.39 2483.84 2125.7 2489.43 2129.81 2493.56C2133.92 2497.68 2139.49 2500 2145.31 2500H2597.53C2603.34 2500 2608.92 2497.68 2613.03 2493.56C2617.14 2489.43 2619.45 2483.84 2619.45 2478.01V2422C2619.45 2416.16 2617.14 2410.57 2613.03 2406.44C2608.92 2402.32 2603.34 2400 2597.53 2400V2400Z" fill="#F5C845"/>
<path d="M2540.81 2300H2088.58C2082.77 2300 2077.2 2302.32 2073.09 2306.44C2068.98 2310.57 2066.67 2316.16 2066.67 2321.99V2378.01C2066.67 2380.89 2067.23 2383.75 2068.34 2386.42C2069.44 2389.09 2071.05 2391.52 2073.09 2393.56C2077.2 2397.68 2082.77 2400 2088.58 2400H2540.81C2543.69 2400 2546.54 2399.43 2549.2 2398.33C2551.85 2397.22 2554.27 2395.6 2556.31 2393.56C2558.34 2391.52 2559.96 2389.09 2561.06 2386.42C2562.16 2383.75 2562.72 2380.89 2562.72 2378.01V2321.99C2562.72 2316.16 2560.42 2310.57 2556.31 2306.44C2552.2 2302.32 2546.62 2300 2540.81 2300V2300Z" fill="#E45E47"/>
</g>
<g clip-path="url(#clip6_1_1036)">
<path d="M2325 1358.33C2460 1358.33 2569.44 1248.89 2569.44 1113.89C2569.44 978.886 2460 869.444 2325 869.444C2190 869.444 2080.55 978.886 2080.55 1113.89C2080.55 1248.89 2190 1358.33 2325 1358.33Z" fill="#F5C845"/>
<path d="M2283.7 1056.75C2290.3 1024.04 2343.14 1030.96 2366.41 1045.74C2385.28 1059.58 2407.92 1032.22 2386.54 1014.92C2374.66 1005.8 2359.13 1000.02 2342.69 997.656V979.69C2342.69 977.367 2342.23 975.067 2341.34 972.92C2340.45 970.774 2339.15 968.824 2337.51 967.181C2335.87 965.538 2333.91 964.235 2331.77 963.346C2329.62 962.457 2327.32 961.999 2325 961.999C2322.67 961.999 2320.37 962.457 2318.23 963.346C2316.08 964.235 2314.13 965.538 2312.49 967.181C2310.85 968.824 2309.54 970.774 2308.65 972.92C2307.76 975.067 2307.31 977.367 2307.31 979.69V997.835C2275.5 1002.83 2247.61 1021.14 2243.76 1053.6C2234.01 1142.92 2364.84 1114.93 2368.93 1161.47C2364.21 1206.13 2297.85 1192.92 2272.06 1175.31C2261.37 1166.5 2252.25 1169.34 2244.07 1177.51C2238.41 1186 2238.1 1199.84 2248.48 1208.33C2262.57 1219.98 2284.31 1227.61 2307.31 1229.91V1248.09C2307.31 1250.42 2307.76 1252.72 2308.65 1254.86C2309.54 1257.01 2310.85 1258.96 2312.49 1260.6C2314.13 1262.25 2316.08 1263.55 2318.23 1264.44C2320.37 1265.33 2322.67 1265.79 2325 1265.79C2327.32 1265.79 2329.62 1265.33 2331.77 1264.44C2333.91 1263.55 2335.87 1262.25 2337.51 1260.6C2339.15 1258.96 2340.45 1257.01 2341.34 1254.86C2342.23 1252.72 2342.69 1250.42 2342.69 1248.09V1229.06C2378.14 1223.5 2408.69 1203.09 2409.81 1162.42C2412.01 1078.76 2275.2 1108.32 2283.7 1056.75V1056.75Z" fill="white"/>
</g>
<g clip-path="url(#clip7_1_1036)">
<path d="M1531.05 780.556H2277.28C2312.84 780.556 2341.67 751.705 2341.67 716.116V419.995C2341.67 384.406 2312.84 355.556 2277.28 355.556H1531.05C1495.49 355.556 1466.67 384.406 1466.67 419.995V716.12C1466.67 751.708 1495.49 780.556 1531.05 780.556V780.556Z" fill="#F5C845"/>
<path d="M2279.43 491.525V644.59C2238.78 644.59 2205.81 677.584 2205.81 718.265H1602.52C1602.52 677.584 1569.55 644.59 1528.91 644.59V491.525C1569.55 491.525 1602.52 458.531 1602.52 417.849H2205.81C2205.81 458.531 2238.78 491.525 2279.43 491.525V491.525Z" fill="#E45E47"/>
<path d="M1904.16 650.17C1934.83 650.17 1959.69 613.407 1959.69 568.057C1959.69 522.708 1934.83 485.944 1904.16 485.944C1873.5 485.944 1848.64 522.708 1848.64 568.057C1848.64 613.407 1873.5 650.17 1904.16 650.17Z" fill="white"/>
<path d="M2095.59 597.603C2119.68 597.603 2139.21 584.375 2139.21 568.057C2139.21 551.74 2119.68 538.512 2095.59 538.512C2071.5 538.512 2051.96 551.74 2051.96 568.057C2051.96 584.375 2071.5 597.603 2095.59 597.603Z" fill="white"/>
<path d="M1712.74 597.603C1736.84 597.603 1756.37 584.375 1756.37 568.057C1756.37 551.74 1736.84 538.512 1712.74 538.512C1688.65 538.512 1669.12 551.74 1669.12 568.057C1669.12 584.375 1688.65 597.603 1712.74 597.603Z" fill="white"/>
</g>
<g clip-path="url(#clip8_1_1036)">
<path d="M1080.55 838.889C1078.66 815.898 1059.15 797.814 1035.34 797.814C1032.86 797.814 1030.44 798.009 1028.07 798.384C1017.83 799.915 1009.53 796.59 1005.88 787.238C995.139 759.483 967.894 739.761 935.964 739.761C916.757 739.736 898.282 747.026 884.395 760.109C878.754 765.124 871.142 764.953 866.987 758.078C852.148 728.601 821.319 708.333 785.675 708.333C745.301 708.333 711.09 734.322 699.305 770.26C697.806 774.83 692.19 780.394 682.659 776.84C675.614 773.968 668.064 772.495 660.441 772.503C641.615 772.503 624.885 781.316 614.247 794.983C610.045 799.636 604.511 799.977 599.439 795.167C594.133 789.051 587.544 784.141 580.128 780.778C572.711 777.415 564.643 775.677 556.479 775.686C530.649 775.686 508.871 792.747 502.081 816.061C500.084 821.323 494.86 821.334 491.707 819.341C485.701 815.538 478.711 813.522 471.573 813.533C455.005 813.533 441.012 824.175 436.105 838.892H1080.55V838.889Z" fill="black"/>
</g>
<g clip-path="url(#clip9_1_1036)">
<path d="M1280.55 1302.78H880.555C886.931 1259.77 921.515 1266.24 927.281 1266.76H927.493C930.234 1266.71 932.807 1265.34 934.156 1262.97C937.925 1256.35 943.417 1250.84 950.066 1247.01C956.715 1243.18 964.281 1241.16 971.986 1241.16C979.154 1241.16 985.859 1242.87 991.807 1245.86C994.757 1247.31 998.26 1245.98 999.734 1243.03C1010.78 1220.85 1033.85 1205.56 1060.63 1205.56C1087.2 1205.56 1110.22 1220.64 1121.27 1242.58C1124.39 1247.73 1130.05 1247.85 1134.22 1244.07C1144.21 1234.72 1157.79 1228.91 1172.68 1228.91C1196.51 1228.91 1216.83 1243.61 1224.85 1264.26C1227.5 1271.24 1233.79 1273.74 1241.38 1272.62C1243.15 1272.37 1244.96 1272.16 1246.77 1272.16C1264.53 1272.16 1279.08 1285.66 1280.55 1302.78Z" fill="black"/>
</g>
<g clip-path="url(#clip10_1_1036)">
<path d="M400.149 1986.46L405.323 2000.44C405.776 2001.67 406.487 2002.78 407.41 2003.7C408.332 2004.62 409.443 2005.33 410.667 2005.79L424.649 2010.96C432.522 2013.88 432.522 2025.01 424.649 2027.93L410.667 2033.1C409.443 2033.55 408.332 2034.27 407.41 2035.19C406.487 2036.11 405.776 2037.22 405.323 2038.45L400.149 2052.43C397.234 2060.3 386.097 2060.3 383.183 2052.43L378.008 2038.45C377.556 2037.22 376.844 2036.11 375.921 2035.19C374.999 2034.27 373.888 2033.55 372.664 2033.1L358.683 2027.93C350.809 2025.01 350.809 2013.88 358.683 2010.96L372.664 2005.79C373.888 2005.33 374.999 2004.62 375.921 2003.7C376.844 2002.78 377.556 2001.67 378.008 2000.44L383.183 1986.46C386.097 1978.59 397.234 1978.59 400.149 1986.46V1986.46Z" fill="white"/>
</g>
<defs>
<clipPath id="clip0_1_1036">
<rect width="1427.78" height="1647.22" fill="white" transform="translate(936.109 1050)"/>
</clipPath>
<clipPath id="clip1_1_1036">
<rect width="875" height="425" fill="white" transform="translate(902.777 530.556)"/>
</clipPath>
<clipPath id="clip2_1_1036">
<rect width="1141.67" height="997.222" fill="white" transform="translate(116.668 1702.78)"/>
</clipPath>
<clipPath id="clip3_1_1036">
<rect width="669.444" height="669.444" fill="white" transform="translate(372.223 1000)"/>
</clipPath>
<clipPath id="clip4_1_1036">
<rect width="588.889" height="588.889" fill="white" transform="translate(2322.22 1361.11)"/>
</clipPath>
<clipPath id="clip5_1_1036">
<rect width="552.778" height="400" fill="white" transform="translate(2066.67 2300)"/>
</clipPath>
<clipPath id="clip6_1_1036">
<rect width="488.889" height="488.889" fill="white" transform="translate(2080.55 869.444)"/>
</clipPath>
<clipPath id="clip7_1_1036">
<rect width="875" height="425" fill="white" transform="translate(1466.67 355.556)"/>
</clipPath>
<clipPath id="clip8_1_1036">
<rect width="644.444" height="130.556" fill="white" transform="translate(436.109 708.333)"/>
</clipPath>
<clipPath id="clip9_1_1036">
<rect width="400" height="97.2222" fill="white" transform="translate(880.555 1205.56)"/>
</clipPath>
<clipPath id="clip10_1_1036">
<rect width="77.7778" height="77.7778" fill="white" transform="translate(352.777 1980.56)"/>
</clipPath>
</defs>
</svg>
