<svg width="124" height="151" viewBox="0 0 124 151" fill="none" xmlns="http://www.w3.org/2000/svg">
<g clip-path="url(#clip0_1_1947)">
<path d="M124 26.5715V60.0405C124 85.6435 112.616 109.606 92.772 125.774L62.049 150.82L31.335 125.766C11.49 109.607 0.106 85.6435 0.106 60.0415L0 26.6245L62.049 0.180496L124 26.5715Z" fill="#F5C845"/>
<path d="M112.478 34.1825V60.0415C112.478 82.0775 102.573 102.928 85.4931 116.844L62.0471 135.962L38.6141 116.844C21.5281 102.928 11.6231 82.0765 11.6231 60.0415L11.5391 34.2215L62.0471 12.6975L112.478 34.1825Z" fill="#E45E47"/>
<path d="M35.3098 73.1185C32.8967 70.7055 32.8967 66.7755 35.3098 64.3625C37.7358 61.9495 41.6527 61.9495 44.0787 64.3625L56.0787 76.3625L79.9118 52.5295C82.3378 50.1165 86.2677 50.1165 88.6807 52.5295C91.1067 54.9425 91.1067 58.8725 88.6807 61.2855L60.2417 89.7245C57.9427 92.0235 54.2147 92.0235 51.9157 89.7245L35.3098 73.1185Z" fill="white"/>
</g>
<defs>
<clipPath id="clip0_1_1947">
<rect width="124" height="151" fill="white"/>
</clipPath>
</defs>
</svg>
