<svg width="282" height="349" viewBox="0 0 282 349" fill="none" xmlns="http://www.w3.org/2000/svg">
<g clip-path="url(#clip0_1_1951)">
<path d="M281.627 90.8827V163.247C281.627 221.271 255.827 275.578 210.835 312.238L184.898 333.407C172.596 343.46 157.011 349.001 141.001 349.001C125.076 349.001 109.499 343.477 97.1456 333.441L71.1502 312.238C26.1672 275.57 0.375 221.271 0.375 163.247V90.8827C0.375 68.3656 13.7629 48.1221 34.4898 39.3072L113.699 5.5397C122.523 1.85824 131.694 0 141.001 0C150.266 0 159.674 1.90027 168.218 5.51468L247.579 39.3072C268.264 48.1481 281.627 68.3917 281.627 90.8827V90.8827Z" fill="#2724F2"/>
<path d="M254.834 90.8737V163.241C254.834 212.982 232.471 260.055 193.912 291.482L167.959 312.648C160.137 319.044 150.566 322.219 140.995 322.219C131.47 322.219 121.899 319.044 114.03 312.648L88.0789 291.482C49.5182 260.054 27.1562 212.982 27.1562 163.241V90.8737C27.1562 79.1398 34.1509 68.5568 44.9631 63.9557L124.199 30.1812C129.584 27.9266 135.289 26.7759 140.995 26.7759C146.701 26.7759 152.453 27.9266 157.789 30.1812L237.071 63.9557C247.841 68.5578 254.834 79.1408 254.834 90.8737V90.8737Z" fill="white"/>
</g>
<defs>
<clipPath id="clip0_1_1951">
<rect width="282" height="349" fill="white"/>
</clipPath>
</defs>
</svg>
