<svg width="314" height="378" viewBox="0 0 314 378" fill="none" xmlns="http://www.w3.org/2000/svg">
<g clip-path="url(#clip0_1_1954)">
<path d="M313.997 98.835V168.24C313.997 233.835 284.82 295.241 233.959 336.683L203.626 361.438C190.563 372.119 174.001 378 157.003 378C140.092 378 123.54 372.129 110.409 361.467L80.0266 336.683C29.1755 295.231 0.0078125 233.835 0.0078125 168.24V98.835C0.0078125 75.489 13.8866 54.5056 35.3668 45.3699L127.99 5.89082C137.35 1.98297 147.108 0 157.002 0C166.838 0 176.839 2.02203 185.926 5.86078L278.706 45.3689C300.147 54.5347 313.997 75.5181 313.997 98.835V98.835Z" fill="#F5C845"/>
<path d="M290.113 98.822V168.229C290.113 226.391 263.964 281.432 218.877 318.18L188.53 342.93C179.383 350.41 168.192 354.122 157.002 354.122C145.864 354.122 134.673 350.41 125.472 342.93L95.1273 318.18C50.0388 281.432 23.8906 226.391 23.8906 168.229V98.822C23.8906 85.1024 32.0689 72.7269 44.7118 67.3469L137.363 27.8547C143.659 25.2188 150.33 23.8737 157.002 23.8737C163.674 23.8737 170.399 25.2188 176.64 27.8547L269.344 67.3469C281.935 72.7279 290.113 85.1024 290.113 98.822Z" fill="#E45E47"/>
<path d="M208.906 165.093H173.135V129.322C173.135 120.412 165.913 113.19 157.004 113.19H157.003C148.093 113.19 140.871 120.412 140.871 129.322V165.093H105.1C96.1906 165.093 88.9688 172.315 88.9688 181.224C88.9688 190.134 96.1906 197.356 105.1 197.356H140.871V233.127C140.871 242.036 148.093 249.258 157.003 249.258H157.004C165.913 249.258 173.135 242.036 173.135 233.127V197.356H208.906C217.816 197.356 225.037 190.134 225.037 181.224C225.037 172.316 217.816 165.093 208.906 165.093V165.093Z" fill="white"/>
</g>
<defs>
<clipPath id="clip0_1_1954">
<rect width="314" height="378" fill="white"/>
</clipPath>
</defs>
</svg>
