<svg width="3000" height="3000" viewBox="0 0 3000 3000" fill="none" xmlns="http://www.w3.org/2000/svg">
<g clip-path="url(#clip0_1_131)">
<path d="M2383.33 585.439L2383.29 1823.01C2382.56 1868.73 2345.37 1905.56 2299.63 1905.56H506.144C475.138 1905.56 450.003 1880.34 450.003 1849.24V585.439H2383.33Z" fill="#2724F2"/>
<path d="M2383.31 461.875V585.446H450V461.875C450 430.77 475.135 405.556 506.14 405.556H2327.17C2358.17 405.556 2383.31 430.77 2383.31 461.875Z" fill="black"/>
<path d="M579.995 519.053C592.961 519.053 603.472 508.508 603.472 495.501C603.472 482.493 592.961 471.949 579.995 471.949C567.029 471.949 556.518 482.493 556.518 495.501C556.518 508.508 567.029 519.053 579.995 519.053Z" fill="white"/>
<path d="M697.298 519.053C710.264 519.053 720.775 508.508 720.775 495.501C720.775 482.493 710.264 471.949 697.298 471.949C684.332 471.949 673.821 482.493 673.821 495.501C673.821 508.508 684.332 519.053 697.298 519.053Z" fill="white"/>
<path d="M814.601 519.053C827.567 519.053 838.078 508.508 838.078 495.501C838.078 482.493 827.567 471.949 814.601 471.949C801.635 471.949 791.124 482.493 791.124 495.501C791.124 508.508 801.635 519.053 814.601 519.053Z" fill="white"/>
<path d="M1035.09 405.556H1047.3V585.439H1035.09V405.556ZM1256.56 405.556H1268.77V585.439H1256.56V405.556ZM1478.03 405.556H1490.24V585.439H1478.03V405.556ZM1699.5 405.556H1711.7V585.439H1699.5V405.556ZM1920.97 405.556H1933.17V585.439H1920.97V405.556ZM2142.43 405.556H2154.64V585.439H2142.43V405.556Z" fill="white"/>
</g>
<g clip-path="url(#clip1_1_131)">
<path d="M994.444 1053.04V1097.39H138.889V1053.04C138.889 996.182 185.115 950 242.21 950H891.123C948.12 950 994.444 996.182 994.444 1053.04V1053.04Z" fill="black"/>
<path d="M138.889 1097.39H994.444V2244.25H138.889V1097.39Z" fill="#F5C845"/>
<path d="M994.444 2244.25V2288.59C994.444 2345.52 948.12 2391.67 891.123 2391.67H242.21C185.115 2391.67 138.889 2345.52 138.889 2288.59V2244.24H994.444V2244.25Z" fill="black"/>
<path d="M238.01 2020.82C238.01 2055.35 266.071 2083.35 300.685 2083.35H832.637C867.251 2083.35 895.312 2055.35 895.312 2020.82C895.312 1986.29 867.251 1958.29 832.637 1958.29H300.685C266.071 1958.29 238.01 1986.28 238.01 2020.82V2020.82Z" fill="white"/>
</g>
<g clip-path="url(#clip2_1_131)">
<path d="M2703.53 1800.53C2715.75 1800.53 2725.65 1790.65 2725.65 1778.46C2725.65 1766.27 2715.75 1756.39 2703.53 1756.39C2691.32 1756.39 2681.42 1766.27 2681.42 1778.46C2681.42 1790.65 2691.32 1800.53 2703.53 1800.53Z" fill="black"/>
<path d="M1869.22 1756.39H1345.69C1315.86 1756.39 1291.67 1732.26 1291.67 1702.5V844.607C1291.67 814.841 1315.86 790.709 1345.69 790.709H1869.22C1899.06 790.709 1923.25 814.841 1923.25 844.607V1702.5C1923.25 1732.26 1899.06 1756.39 1869.22 1756.39V1756.39Z" fill="#E45E47"/>
<path d="M1852.67 1036.95L1801.76 1087.69C1797.15 1092.28 1790.9 1094.86 1784.39 1094.86C1777.87 1094.86 1771.63 1092.27 1767.02 1087.68L1751.96 1072.65V1371.29C1751.96 1378.16 1749.22 1384.74 1744.35 1389.6C1739.48 1394.46 1732.88 1397.19 1726 1397.19H1488.92C1482.04 1397.19 1475.43 1394.46 1470.57 1389.6C1465.7 1384.74 1462.96 1378.16 1462.96 1371.29V1072.65L1447.9 1087.68C1443.29 1092.28 1437.04 1094.86 1430.53 1094.86C1424.01 1094.86 1417.76 1092.28 1413.15 1087.69L1362.25 1036.95C1359.95 1034.66 1358.14 1031.94 1356.9 1028.95C1355.66 1025.95 1355.03 1022.74 1355.05 1019.5C1355.06 1016.26 1355.72 1013.06 1356.98 1010.07C1358.24 1007.09 1360.08 1004.38 1362.4 1002.11L1441.23 924.872C1455.16 911.223 1473.9 903.576 1493.42 903.575H1721.5C1741.02 903.574 1759.76 911.222 1773.69 924.872L1852.52 1002.11C1854.84 1004.38 1856.68 1007.09 1857.94 1010.08C1859.2 1013.06 1859.86 1016.26 1859.87 1019.5C1859.88 1022.74 1859.25 1025.95 1858.02 1028.95C1856.78 1031.94 1854.96 1034.66 1852.67 1036.95Z" fill="#F5C845"/>
<path d="M1549.82 903.578C1549.82 935.335 1575.63 961.077 1607.46 961.077C1639.29 961.077 1665.09 935.335 1665.09 903.578H1549.82Z" fill="#FFFDFF"/>
<path d="M1766.15 1643.52H1448.76C1412.85 1643.52 1383.75 1614.49 1383.75 1578.67V1573.93C1383.75 1538.11 1412.85 1509.07 1448.76 1509.07H1766.15C1802.06 1509.07 1831.16 1538.11 1831.16 1573.93V1578.67C1831.17 1614.49 1802.06 1643.52 1766.15 1643.52V1643.52Z" fill="#F5C845"/>
<path d="M2083.69 1579.32H1853.28C1851.85 1579.32 1850.47 1578.75 1849.46 1577.74C1848.45 1576.73 1847.88 1575.36 1847.88 1573.93C1847.88 1572.5 1848.45 1571.13 1849.46 1570.12C1850.47 1569.11 1851.85 1568.54 1853.28 1568.54H2083.69C2151.6 1568.54 2206.84 1513.42 2206.84 1445.68V1110.33C2206.84 1036.64 2266.94 976.685 2340.8 976.685H2468.28C2469.71 976.685 2471.09 977.253 2472.1 978.264C2473.11 979.275 2473.68 980.646 2473.68 982.075C2473.68 983.505 2473.11 984.876 2472.1 985.886C2471.09 986.897 2469.71 987.465 2468.28 987.465H2340.8C2272.89 987.465 2217.65 1042.58 2217.65 1110.33V1445.67C2217.65 1519.37 2157.56 1579.32 2083.69 1579.32V1579.32ZM2703.53 1314.46C2702.1 1314.46 2700.73 1313.89 2699.71 1312.88C2698.7 1311.87 2698.13 1310.5 2698.13 1309.07V1216.77C2698.13 1215.34 2698.7 1213.97 2699.71 1212.96C2700.73 1211.95 2702.1 1211.38 2703.53 1211.38C2704.97 1211.38 2706.34 1211.95 2707.35 1212.96C2708.37 1213.97 2708.94 1215.34 2708.94 1216.77V1309.07C2708.94 1310.5 2708.37 1311.87 2707.35 1312.88C2706.34 1313.89 2704.97 1314.46 2703.53 1314.46Z" fill="black"/>
<path d="M2703.53 1194.71C2821.24 1194.71 2916.67 1099.51 2916.67 982.075C2916.67 864.642 2821.24 769.444 2703.53 769.444C2585.82 769.444 2490.4 864.642 2490.4 982.075C2490.4 1099.51 2585.82 1194.71 2703.53 1194.71Z" fill="#F5C845"/>
<path d="M2667.53 932.374C2673.28 903.923 2719.35 909.942 2739.64 922.798C2756.09 934.836 2775.83 911.038 2757.19 895.99C2746.84 888.056 2733.29 883.029 2718.96 880.97V865.34C2718.96 861.259 2717.34 857.345 2714.44 854.46C2711.55 851.575 2707.63 849.954 2703.54 849.954C2699.45 849.954 2695.53 851.575 2692.63 854.46C2689.74 857.345 2688.12 861.259 2688.12 865.34V881.124C2660.39 885.472 2636.06 901.394 2632.71 929.636C2624.21 1007.33 2738.28 982.981 2741.84 1023.47C2737.73 1062.31 2679.87 1050.82 2657.39 1035.5C2648.06 1027.84 2640.11 1030.31 2632.98 1037.42C2628.05 1044.8 2627.77 1056.84 2636.82 1064.23C2649.11 1074.36 2668.07 1080.99 2688.12 1082.99V1098.81C2688.12 1102.89 2689.74 1106.8 2692.63 1109.69C2695.53 1112.57 2699.45 1114.19 2703.54 1114.19C2707.63 1114.19 2711.55 1112.57 2714.44 1109.69C2717.34 1106.8 2718.96 1102.89 2718.96 1098.81V1082.25C2749.87 1077.42 2776.51 1059.66 2777.48 1024.28C2779.4 951.522 2660.12 977.235 2667.53 932.374Z" fill="white"/>
<path d="M2703.53 1756.39C2821.24 1756.39 2916.67 1661.2 2916.67 1543.76C2916.67 1426.33 2821.24 1331.13 2703.53 1331.13C2585.82 1331.13 2490.4 1426.33 2490.4 1543.76C2490.4 1661.2 2585.82 1756.39 2703.53 1756.39Z" fill="#F5C845"/>
<path d="M2667.53 1494.06C2673.28 1465.61 2719.35 1471.63 2739.64 1484.49C2756.09 1496.52 2775.83 1472.73 2757.19 1457.68C2746.84 1449.74 2733.29 1444.72 2718.96 1442.66V1427.03C2718.96 1422.95 2717.34 1419.03 2714.44 1416.15C2711.55 1413.26 2707.63 1411.64 2703.54 1411.64C2699.45 1411.64 2695.53 1413.26 2692.63 1416.15C2689.74 1419.03 2688.12 1422.95 2688.12 1427.03V1442.81C2660.39 1447.16 2636.06 1463.08 2632.71 1491.32C2624.21 1569.02 2738.28 1544.67 2741.84 1585.16C2737.73 1624 2679.87 1612.51 2657.39 1597.19C2648.06 1589.53 2640.11 1591.99 2632.98 1599.11C2628.05 1606.49 2627.77 1618.53 2636.82 1625.91C2649.11 1636.04 2668.07 1642.68 2688.12 1644.68V1660.5C2688.12 1664.58 2689.74 1668.49 2692.63 1671.37C2695.53 1674.26 2699.45 1675.88 2703.54 1675.88C2707.63 1675.88 2711.55 1674.26 2714.44 1671.37C2717.34 1668.49 2718.96 1664.58 2718.96 1660.5V1643.93C2749.87 1639.1 2776.51 1621.34 2777.48 1585.97C2779.4 1513.21 2660.12 1538.92 2667.53 1494.06Z" fill="white"/>
<path d="M2574.98 2228.88H2416.47C2415.04 2228.88 2413.66 2228.31 2412.65 2227.3C2411.64 2226.29 2411.07 2224.92 2411.07 2223.49C2411.07 2222.06 2411.64 2220.69 2412.65 2219.68C2413.66 2218.67 2415.04 2218.1 2416.47 2218.1H2574.98C2642.88 2218.1 2698.12 2162.97 2698.12 2095.21V1778.47C2698.12 1777.04 2698.69 1775.67 2699.71 1774.66C2700.72 1773.65 2702.09 1773.08 2703.53 1773.08C2704.96 1773.08 2706.33 1773.65 2707.35 1774.66C2708.36 1775.67 2708.93 1777.04 2708.93 1778.47V2095.21C2708.93 2168.92 2648.84 2228.88 2574.98 2228.88ZM1945.97 2228.88H1853.3C1851.87 2228.88 1850.5 2228.31 1849.48 2227.3C1848.47 2226.29 1847.9 2224.92 1847.9 2223.49C1847.9 2222.06 1848.47 2220.69 1849.48 2219.68C1850.5 2218.67 1851.87 2218.1 1853.3 2218.1H1945.97C1947.41 2218.1 1948.78 2218.67 1949.79 2219.68C1950.81 2220.69 1951.38 2222.06 1951.38 2223.49C1951.38 2224.92 1950.81 2226.29 1949.79 2227.3C1948.78 2228.31 1947.41 2228.88 1945.97 2228.88V2228.88Z" fill="black"/>
<path d="M1618.04 2436.11C1735.74 2436.11 1831.17 2340.91 1831.17 2223.48C1831.17 2106.05 1735.74 2010.85 1618.04 2010.85C1500.33 2010.85 1404.9 2106.05 1404.9 2223.48C1404.9 2340.91 1500.33 2436.11 1618.04 2436.11Z" fill="#F5C845"/>
<path d="M1582.03 2173.78C1587.78 2145.32 1633.85 2151.34 1654.14 2164.2C1670.59 2176.24 1690.33 2152.44 1671.69 2137.39C1661.34 2129.46 1647.79 2124.43 1633.46 2122.37V2106.74C1633.46 2104.72 1633.06 2102.72 1632.29 2100.85C1631.51 2098.99 1630.38 2097.29 1628.94 2095.86C1627.51 2094.43 1625.81 2093.3 1623.94 2092.53C1622.07 2091.75 1620.06 2091.35 1618.04 2091.35C1616.01 2091.35 1614.01 2091.75 1612.14 2092.53C1610.27 2093.3 1608.57 2094.43 1607.13 2095.86C1605.7 2097.29 1604.57 2098.99 1603.79 2100.85C1603.02 2102.72 1602.62 2104.72 1602.62 2106.74V2122.53C1574.89 2126.87 1550.56 2142.8 1547.21 2171.04C1538.71 2248.73 1652.78 2224.38 1656.34 2264.87C1652.23 2303.71 1594.37 2292.23 1571.89 2276.9C1562.56 2269.24 1554.61 2271.71 1547.48 2278.82C1542.55 2286.21 1542.27 2298.24 1551.32 2305.63C1563.61 2315.76 1582.57 2322.4 1602.62 2324.4V2340.21C1602.62 2344.29 1604.24 2348.21 1607.13 2351.09C1610.03 2353.98 1613.95 2355.6 1618.04 2355.6C1622.13 2355.6 1626.05 2353.98 1628.94 2351.09C1631.84 2348.21 1633.46 2344.29 1633.46 2340.21V2323.65C1664.37 2318.82 1691.01 2301.06 1691.98 2265.69C1693.9 2192.92 1574.62 2218.64 1582.03 2173.78V2173.78Z" fill="white"/>
<path d="M2181.22 2436.11C2298.93 2436.11 2394.36 2340.91 2394.36 2223.48C2394.36 2106.05 2298.93 2010.85 2181.22 2010.85C2063.51 2010.85 1968.09 2106.05 1968.09 2223.48C1968.09 2340.91 2063.51 2436.11 2181.22 2436.11Z" fill="#F5C845"/>
<path d="M2145.21 2173.78C2150.97 2145.32 2197.04 2151.34 2217.33 2164.2C2233.78 2176.24 2253.52 2152.44 2234.88 2137.39C2224.53 2129.46 2210.98 2124.43 2196.65 2122.37V2106.74C2196.65 2102.66 2195.03 2098.75 2192.13 2095.86C2189.24 2092.98 2185.32 2091.35 2181.23 2091.35C2177.14 2091.35 2173.22 2092.98 2170.32 2095.86C2167.43 2098.75 2165.81 2102.66 2165.81 2106.74V2122.53C2138.08 2126.87 2113.75 2142.8 2110.4 2171.04C2101.9 2248.73 2215.97 2224.38 2219.53 2264.87C2215.42 2303.71 2157.56 2292.23 2135.08 2276.9C2125.75 2269.24 2117.8 2271.71 2110.67 2278.82C2105.74 2286.21 2105.46 2298.24 2114.51 2305.63C2126.8 2315.76 2145.76 2322.4 2165.81 2324.4V2340.21C2165.81 2344.29 2167.43 2348.21 2170.32 2351.09C2173.22 2353.98 2177.14 2355.6 2181.23 2355.6C2185.32 2355.6 2189.24 2353.98 2192.13 2351.09C2195.03 2348.21 2196.65 2344.29 2196.65 2340.21V2323.65C2227.56 2318.82 2254.2 2301.06 2255.17 2265.69C2257.09 2192.92 2137.81 2218.64 2145.21 2173.78V2173.78Z" fill="white"/>
<path d="M1853.29 1595.99C1865.5 1595.99 1875.4 1586.11 1875.4 1573.93C1875.4 1561.74 1865.5 1551.86 1853.29 1551.86C1841.07 1551.86 1831.17 1561.74 1831.17 1573.93C1831.17 1586.11 1841.07 1595.99 1853.29 1595.99Z" fill="black"/>
<path d="M2468.28 1004.14C2480.5 1004.14 2490.4 994.262 2490.4 982.075C2490.4 969.889 2480.5 960.009 2468.28 960.009C2456.07 960.009 2446.17 969.889 2446.17 982.075C2446.17 994.262 2456.07 1004.14 2468.28 1004.14Z" fill="black"/>
<path d="M2703.53 1238.84C2715.75 1238.84 2725.65 1228.96 2725.65 1216.77C2725.65 1204.59 2715.75 1194.71 2703.53 1194.71C2691.32 1194.71 2681.42 1204.59 2681.42 1216.77C2681.42 1228.96 2691.32 1238.84 2703.53 1238.84Z" fill="black"/>
<path d="M2703.53 1331.13C2715.75 1331.13 2725.65 1321.25 2725.65 1309.07C2725.65 1296.88 2715.75 1287 2703.53 1287C2691.32 1287 2681.42 1296.88 2681.42 1309.07C2681.42 1321.25 2691.32 1331.13 2703.53 1331.13Z" fill="black"/>
<path d="M2416.47 2245.55C2428.69 2245.55 2438.59 2235.67 2438.59 2223.48C2438.59 2211.29 2428.69 2201.41 2416.47 2201.41C2404.26 2201.41 2394.36 2211.29 2394.36 2223.48C2394.36 2235.67 2404.26 2245.55 2416.47 2245.55Z" fill="black"/>
<path d="M1853.29 2245.55C1865.5 2245.55 1875.4 2235.67 1875.4 2223.48C1875.4 2211.29 1865.5 2201.41 1853.29 2201.41C1841.07 2201.41 1831.17 2211.29 1831.17 2223.48C1831.17 2235.67 1841.07 2245.55 1853.29 2245.55Z" fill="black"/>
<path d="M1945.97 2245.55C1958.19 2245.55 1968.09 2235.67 1968.09 2223.48C1968.09 2211.29 1958.19 2201.41 1945.97 2201.41C1933.76 2201.41 1923.86 2211.29 1923.86 2223.48C1923.86 2235.67 1933.76 2245.55 1945.97 2245.55Z" fill="black"/>
</g>
<g clip-path="url(#clip3_1_131)">
<path d="M1450 2650H596.077C518.149 2650 454.983 2586.39 454.983 2507.92H455.018V2155.97C455.018 2077.5 391.817 2013.89 313.889 2013.89H1167.78C1245.7 2013.89 1308.87 2077.5 1308.87 2155.97V2507.92C1308.87 2586.39 1372.07 2650 1450 2650Z" fill="#E45E47"/>
<path d="M1154.79 2207.81H609.131C603.464 2207.81 598.029 2205.54 594.022 2201.51C590.015 2197.47 587.764 2192 587.764 2186.29V2184.72C587.764 2181.89 588.316 2179.1 589.39 2176.49C590.464 2173.87 592.038 2171.5 594.022 2169.5C596.006 2167.51 598.362 2165.92 600.954 2164.84C603.547 2163.76 606.325 2163.2 609.131 2163.2H1154.79C1157.6 2163.2 1160.38 2163.76 1162.97 2164.84C1165.56 2165.92 1167.92 2167.51 1169.9 2169.5C1171.89 2171.5 1173.46 2173.87 1174.53 2176.49C1175.61 2179.1 1176.16 2181.89 1176.16 2184.72V2186.29C1176.16 2192 1173.91 2197.47 1169.9 2201.51C1165.89 2205.54 1160.46 2207.81 1154.79 2207.81V2207.81ZM1154.79 2297.02H609.131C603.464 2297.02 598.029 2294.75 594.022 2290.72C590.015 2286.68 587.764 2281.21 587.764 2275.5V2273.93C587.764 2268.22 590.015 2262.75 594.022 2258.72C598.029 2254.68 603.464 2252.41 609.131 2252.41H1154.79C1160.46 2252.41 1165.89 2254.68 1169.9 2258.72C1173.91 2262.75 1176.16 2268.22 1176.16 2273.93V2275.5C1176.16 2281.21 1173.91 2286.68 1169.9 2290.72C1165.89 2294.75 1160.46 2297.02 1154.79 2297.02V2297.02ZM1154.79 2386.23H609.131C603.464 2386.23 598.029 2383.96 594.022 2379.93C590.015 2375.89 587.764 2370.42 587.764 2364.71V2363.14C587.764 2357.43 590.015 2351.96 594.022 2347.92C598.029 2343.89 603.464 2341.62 609.131 2341.62H1154.79C1160.46 2341.62 1165.89 2343.89 1169.9 2347.92C1173.91 2351.96 1176.16 2357.43 1176.16 2363.14V2364.71C1176.16 2370.42 1173.91 2375.89 1169.9 2379.93C1165.89 2383.96 1160.46 2386.23 1154.79 2386.23V2386.23ZM786.974 2475.44H609.131C603.464 2475.44 598.029 2473.17 594.022 2469.14C590.015 2465.1 587.764 2459.63 587.764 2453.92V2452.35C587.764 2446.64 590.015 2441.17 594.022 2437.13C598.029 2433.1 603.464 2430.83 609.131 2430.83H786.974C792.641 2430.83 798.076 2433.1 802.083 2437.13C806.09 2441.17 808.341 2446.64 808.341 2452.35V2453.92C808.341 2459.63 806.09 2465.1 802.083 2469.14C798.076 2473.17 792.641 2475.44 786.974 2475.44V2475.44Z" fill="white"/>
</g>
<g clip-path="url(#clip4_1_131)">
<path d="M236.111 1713.1V1278.56C236.111 1247.44 261.242 1222.22 292.244 1222.22H1127.2C1158.2 1222.22 1183.33 1247.44 1183.33 1278.56V1713.1C1183.33 1744.22 1158.2 1769.44 1127.2 1769.44H292.244C261.242 1769.44 236.111 1744.22 236.111 1713.1Z" fill="#E45E47"/>
<path d="M308.811 1418.58V1317.72C308.811 1311.74 311.177 1306.01 315.387 1301.79C319.598 1297.56 325.309 1295.19 331.263 1295.19H431.747C437.702 1295.19 443.413 1297.56 447.623 1301.79C451.834 1306.01 454.2 1311.74 454.2 1317.72V1418.58C454.2 1424.55 451.834 1430.29 447.623 1434.51C443.413 1438.74 437.702 1441.11 431.747 1441.11H331.263C328.315 1441.11 325.395 1440.53 322.671 1439.4C319.946 1438.26 317.471 1436.6 315.386 1434.51C313.301 1432.42 311.647 1429.94 310.519 1427.2C309.391 1424.47 308.811 1421.54 308.811 1418.58V1418.58Z" fill="#2724F2"/>
<path d="M425.588 1345.54H454.254V1390.76H425.588C413.165 1390.76 403.096 1380.62 403.096 1368.15C403.093 1362.15 405.462 1356.4 409.682 1352.15C413.905 1347.92 419.624 1345.55 425.588 1345.54V1345.54ZM337.476 1345.54H308.811V1390.76H337.476C349.899 1390.76 359.968 1380.62 359.968 1368.15C359.971 1362.15 357.603 1356.4 353.383 1352.15C349.159 1347.92 343.44 1345.55 337.476 1345.54V1345.54Z" fill="white"/>
<path d="M1088.91 1340.38H597.722C591.96 1340.38 586.435 1338.08 582.361 1334C578.287 1329.91 575.999 1324.36 575.999 1318.58V1316.98C575.999 1311.2 578.287 1305.66 582.361 1301.57C586.435 1297.48 591.96 1295.18 597.722 1295.18H1088.91C1094.67 1295.18 1100.2 1297.48 1104.27 1301.57C1108.35 1305.66 1110.63 1311.2 1110.63 1316.98V1318.58C1110.63 1324.36 1108.35 1329.91 1104.27 1334C1100.2 1338.08 1094.67 1340.38 1088.91 1340.38V1340.38ZM735.575 1606.38H330.534C324.773 1606.38 319.247 1604.08 315.174 1599.99C311.1 1595.9 308.811 1590.36 308.811 1584.58V1582.98C308.811 1577.2 311.1 1571.65 315.174 1567.56C319.247 1563.48 324.773 1561.18 330.534 1561.18H735.575C741.337 1561.18 746.862 1563.48 750.936 1567.56C755.01 1571.65 757.298 1577.2 757.298 1582.98V1584.58C757.297 1590.36 755.009 1595.9 750.935 1599.99C746.861 1604.08 741.336 1606.38 735.575 1606.38V1606.38ZM577.974 1696.77H330.534C324.773 1696.77 319.247 1694.47 315.174 1690.38C311.1 1686.3 308.811 1680.75 308.811 1674.97V1673.37C308.811 1667.59 311.1 1662.05 315.174 1657.96C319.247 1653.87 324.773 1651.57 330.534 1651.57H577.974C583.735 1651.57 589.26 1653.87 593.334 1657.96C597.408 1662.05 599.696 1667.59 599.696 1673.37V1674.97C599.696 1680.75 597.408 1686.3 593.334 1690.38C589.26 1694.47 583.735 1696.77 577.974 1696.77V1696.77ZM1088.91 1696.77H1019.79C1014.02 1696.77 1008.5 1694.47 1004.43 1690.38C1000.35 1686.3 998.063 1680.75 998.063 1674.97V1673.37C998.063 1667.59 1000.35 1662.05 1004.43 1657.96C1008.5 1653.87 1014.02 1651.57 1019.79 1651.57H1088.91C1094.67 1651.57 1100.2 1653.87 1104.27 1657.96C1108.35 1662.05 1110.63 1667.59 1110.63 1673.37V1674.97C1110.63 1680.75 1108.35 1686.3 1104.27 1690.38C1100.2 1694.47 1094.67 1696.77 1088.91 1696.77V1696.77Z" fill="black"/>
</g>
<g clip-path="url(#clip5_1_131)">
<path d="M592.61 706.225C655.849 657.182 744.163 657.182 807.402 706.225C814.582 711.805 816.014 722.377 810.642 729.73C809.361 731.498 807.755 732.988 805.916 734.114C804.076 735.24 802.04 735.98 799.923 736.291C797.806 736.602 795.65 736.478 793.58 735.926C791.51 735.375 789.565 734.406 787.858 733.077C736.137 692.999 663.875 692.999 612.154 733.077C610.447 734.406 608.502 735.374 606.432 735.925C604.361 736.477 602.206 736.6 600.089 736.289C597.973 735.978 595.936 735.239 594.097 734.113C592.257 732.988 590.651 731.498 589.37 729.73C588.087 727.967 587.154 725.961 586.622 723.825C586.091 721.689 585.972 719.467 586.273 717.284C586.574 715.1 587.289 713 588.376 711.103C589.463 709.205 590.902 707.548 592.61 706.225V706.225Z" fill="white"/>
<path d="M624.069 766.46C667.351 726.412 732.656 726.412 775.939 766.46C779.148 769.438 781.084 773.607 781.322 778.056C781.561 782.505 780.082 786.87 777.211 790.195C774.327 793.51 770.287 795.507 765.979 795.747C761.67 795.987 757.446 794.451 754.234 791.475C739.333 777.667 720.021 770.031 700.004 770.031C679.986 770.031 660.674 777.667 645.774 791.475C642.562 794.451 638.337 795.987 634.029 795.747C629.72 795.507 625.68 793.51 622.797 790.195C619.919 786.873 618.436 782.506 618.675 778.055C618.913 773.605 620.854 769.434 624.069 766.46V766.46ZM673.569 831.026C673.569 815.97 685.426 803.719 700.006 803.719C714.585 803.719 726.442 815.966 726.442 831.026C726.442 846.086 714.585 858.333 700.006 858.333C685.426 858.333 673.569 846.082 673.569 831.026Z" fill="white"/>
</g>
<defs>
<clipPath id="clip0_1_131">
<rect width="1933.33" height="1500" fill="white" transform="translate(450 405.556)"/>
</clipPath>
<clipPath id="clip1_1_131">
<rect width="855.556" height="1441.67" fill="white" transform="translate(138.889 950)"/>
</clipPath>
<clipPath id="clip2_1_131">
<rect width="1625" height="1666.67" fill="white" transform="translate(1291.67 769.444)"/>
</clipPath>
<clipPath id="clip3_1_131">
<rect width="1136.11" height="636.111" fill="white" transform="translate(313.889 2013.89)"/>
</clipPath>
<clipPath id="clip4_1_131">
<rect width="947.222" height="547.222" fill="white" transform="translate(236.111 1222.22)"/>
</clipPath>
<clipPath id="clip5_1_131">
<rect width="227.778" height="188.889" fill="white" transform="translate(586.111 669.444)"/>
</clipPath>
</defs>
</svg>
