<svg width="3000" height="3000" viewBox="0 0 3000 3000" fill="none" xmlns="http://www.w3.org/2000/svg">
<g clip-path="url(#clip0_1_1156)">
<path d="M1913.89 857.823V909.002H927.777V857.823C927.777 792.194 981.056 738.889 1046.87 738.889H1794.8C1860.5 738.889 1913.89 792.194 1913.89 857.823Z" fill="black"/>
<path d="M927.777 909.002H1913.89V2315.96H927.777V909.002Z" fill="#E45E47"/>
<path d="M1913.89 2315.96V2367.14C1913.89 2432.85 1860.5 2486.11 1794.8 2486.11H1046.87C981.056 2486.11 927.777 2432.85 927.777 2367.14V2315.96H1913.89Z" fill="black"/>
</g>
<g clip-path="url(#clip1_1_1156)">
<path d="M2191.67 1171.37V1222.39H1208.33V1171.37C1208.33 1105.91 1261.58 1052.78 1327.08 1052.78H2072.92C2138.51 1052.78 2191.67 1105.91 2191.67 1171.37V1171.37ZM1208.33 2624.88H2191.67V2675.85C2191.67 2741.4 2138.51 2794.44 2072.92 2794.44H1327.08C1261.58 2794.44 1208.33 2741.4 1208.33 2675.85V2624.88Z" fill="black"/>
<path d="M1208.43 1222.37H2191.65V2624.86H1208.43V1222.37Z" fill="#2724F2"/>
<path d="M2077.73 1866.88V2198.39C2077.73 2221.33 2059.11 2239.93 2036.14 2239.93H1363.88C1340.91 2239.93 1322.29 2221.33 1322.29 2198.39V1866.88C1322.29 1843.94 1340.91 1825.34 1363.88 1825.34H2036.14C2059.11 1825.34 2077.73 1843.94 2077.73 1866.88V1866.88Z" fill="white"/>
<path d="M1673.47 2375.54V2489.02C1673.47 2511.95 1654.84 2530.56 1631.88 2530.56H1363.9C1340.91 2530.56 1322.31 2511.95 1322.31 2489.02V2375.54C1322.31 2370.08 1323.38 2364.68 1325.47 2359.64C1327.56 2354.59 1330.62 2350.01 1334.48 2346.15C1338.35 2342.3 1342.93 2339.24 1347.98 2337.15C1353.03 2335.07 1358.44 2333.99 1363.9 2334H1631.88C1654.84 2334 1673.47 2352.57 1673.47 2375.54Z" fill="#F5C845"/>
<path d="M2077.73 2375.54V2489.02C2077.73 2511.95 2059.1 2530.56 2036.14 2530.56H1768.17C1745.17 2530.56 1726.57 2511.95 1726.57 2489.02V2375.54C1726.57 2370.08 1727.64 2364.68 1729.73 2359.64C1731.82 2354.59 1734.88 2350.01 1738.75 2346.15C1742.61 2342.3 1747.2 2339.24 1752.24 2337.15C1757.29 2335.07 1762.7 2333.99 1768.17 2334H2036.14C2059.1 2334 2077.73 2352.57 2077.73 2375.54Z" fill="#E45E47"/>
<path d="M2077.73 1358.23V1689.74C2077.73 1712.68 2059.11 1731.28 2036.14 1731.28H1363.88C1340.91 1731.28 1322.29 1712.68 1322.29 1689.74V1358.23C1322.29 1335.29 1340.91 1316.69 1363.88 1316.69H2036.14C2059.11 1316.69 2077.73 1335.29 2077.73 1358.23V1358.23Z" fill="white"/>
<path d="M1505.86 1509.87C1534.09 1509.87 1556.98 1487.01 1556.98 1458.81C1556.98 1430.62 1534.09 1407.76 1505.86 1407.76C1477.62 1407.76 1454.73 1430.62 1454.73 1458.81C1454.73 1487.01 1477.62 1509.87 1505.86 1509.87Z" fill="#E45E47"/>
<path d="M1438.67 1640.21C1413.99 1640.21 1398.02 1614.28 1409.01 1592.21C1426.7 1556.68 1463.42 1532.25 1505.86 1532.25C1548.3 1532.25 1585.03 1556.67 1602.72 1592.21C1613.7 1614.28 1597.73 1640.21 1573.05 1640.21H1438.67Z" fill="#E45E47"/>
<path d="M1668.83 1427.73H1871.8V1439.58H1668.83V1427.73ZM1668.83 1487.95H1871.8V1499.79H1668.83V1487.95ZM1668.83 1548.17H1871.8V1560.01H1668.83V1548.17ZM1668.83 1608.39H1871.8V1620.23H1668.83V1608.39Z" fill="black"/>
<path d="M1769.92 2006.4L1657.45 1948.06C1637.74 1937.84 1614.2 1952.12 1614.2 1974.29V2090.98C1614.2 2113.15 1637.74 2127.43 1657.45 2117.21L1769.92 2058.87C1791.2 2047.84 1791.2 2017.44 1769.92 2006.4Z" fill="#E45E47"/>
</g>
<g clip-path="url(#clip2_1_1156)">
<path d="M986.777 1558.46C989.94 1542.92 983.743 1525.82 971.364 1515.91C963.67 1509.75 953.788 1506.52 943.934 1506.52C937.935 1506.52 931.943 1507.72 926.467 1510.17C924.527 1511.04 922.653 1512.05 920.841 1513.03C918.012 1514.56 915.34 1516 912.456 1516.94C899.253 1521.21 886.563 1514.18 873.134 1506.74C867.123 1503.4 860.908 1499.96 854.609 1497.59C843.182 1493.3 830.883 1492.55 818.984 1491.83C810.217 1491.3 801.151 1490.75 792.597 1488.77C779.888 1485.82 767.681 1477.01 762.213 1466.82C758.758 1460.39 758.15 1453.72 760.456 1447.56C762.015 1443.4 764.75 1439.83 767.645 1436.06C770.192 1432.75 772.831 1429.32 774.647 1425.38C778.648 1416.73 778.106 1407.19 777.586 1397.96C777.242 1391.91 776.891 1385.66 777.846 1379.82C779.38 1370.44 784.339 1361.68 789.142 1353.2C795.005 1342.85 801.067 1332.14 801.187 1319.98C801.253 1313.65 799.665 1307.52 798.128 1301.6C797.395 1298.76 796.634 1295.83 796.078 1292.96C793.79 1281.07 794.932 1268.55 799.376 1256.62L800.448 1254.96C756.406 1236.68 709.809 1225.3 662.299 1221.21C657.658 1234.42 644.499 1248.32 639.111 1261.1C636.542 1267.2 635.897 1273.94 633.635 1280.16C631.373 1286.37 626.732 1292.47 620.184 1293.41C618.178 1293.69 616.059 1293.48 614.196 1294.28C609.093 1296.47 609.554 1303.75 607.208 1308.79C604.741 1314.07 598.713 1316.97 592.886 1317.33C587.058 1317.69 581.33 1315.98 575.741 1314.28C568.53 1312.09 560.785 1309.53 556.451 1303.37C554.072 1300 552.992 1295.87 550.873 1292.33C547.118 1286.05 540.515 1282.15 534.611 1277.83C521.324 1268.11 510.632 1250.96 503.564 1234.86C475.943 1242.14 449.056 1251.95 423.247 1264.19L424.327 1265.8C424.61 1268.85 425.506 1271.81 426.961 1274.5C428.416 1277.19 430.4 1279.56 432.793 1281.46L466.808 1308.67C469.027 1310.44 470.817 1312.68 472.046 1315.24C473.274 1317.79 473.908 1320.59 473.901 1323.43V1362.08C473.908 1368.13 476.315 1373.93 480.594 1378.21C484.873 1382.49 490.675 1384.9 496.727 1384.91H512.623C517.634 1384.91 522.438 1386.9 525.981 1390.45C529.524 1393.99 531.518 1398.79 531.525 1403.8V1422.1C531.525 1428.07 528.666 1433.74 523.875 1437.29L430.553 1506.42C427.293 1508.82 423.351 1510.12 419.301 1510.13H361.612C355.56 1510.13 349.758 1512.54 345.478 1516.82C341.199 1521.1 338.792 1526.9 338.786 1532.95V1571C338.786 1577.1 341.162 1582.83 345.47 1587.15L385.905 1627.58C388.02 1629.7 390.536 1631.39 393.306 1632.53C396.077 1633.68 399.048 1634.27 402.047 1634.26H458.975C463.985 1634.27 468.789 1636.26 472.331 1639.8C475.874 1643.34 477.867 1648.15 477.873 1653.16V1670.05C477.88 1676.1 480.287 1681.9 484.566 1686.18C488.845 1690.46 494.647 1692.86 500.698 1692.87H540.438C545.448 1692.88 550.252 1694.87 553.795 1698.41C557.339 1701.95 559.332 1706.76 559.339 1711.77C559.347 1717.82 561.754 1723.62 566.033 1727.9C570.312 1732.18 576.113 1734.58 582.165 1734.59H633.826C638.837 1734.6 643.64 1736.59 647.183 1740.13C650.726 1743.68 652.719 1748.48 652.724 1753.49V1808.11C652.724 1813.84 650.165 1819.2 645.703 1822.8L567.809 1885.78C565.158 1887.92 563.02 1890.62 561.553 1893.69C560.087 1896.76 559.329 1900.13 559.336 1903.53V1930.22C559.332 1932.8 558.799 1935.36 557.77 1937.74C556.741 1940.11 555.237 1942.25 553.351 1944.02L524.098 1971.39C521.82 1973.53 520.004 1976.11 518.76 1978.98C517.516 1981.84 516.871 1984.93 516.866 1988.06V2047.56C516.86 2052.57 514.867 2057.37 511.324 2060.91C507.782 2064.46 502.978 2066.45 497.968 2066.46H466.921C461.91 2066.45 457.106 2064.46 453.564 2060.91C450.021 2057.37 448.028 2052.57 448.023 2047.56V2009.6C448.023 2006.19 447.244 2002.77 445.761 1999.7L424.063 1954.63C422.836 1952.07 422.197 1949.27 422.193 1946.43V1860.55C422.193 1853.23 418.646 1846.3 412.706 1842.02L330.705 1782.98C328.275 1781.23 326.296 1778.92 324.93 1776.26C323.564 1773.59 322.85 1770.64 322.846 1767.64V1708.25C322.846 1705.04 323.67 1701.86 325.233 1699.06L329.563 1691.28C331.972 1686.93 332.897 1681.91 332.199 1676.98C331.5 1672.05 329.215 1667.49 325.69 1663.97L253.682 1592.57C250.114 1589.01 248.103 1584.19 248.089 1579.15V1533.69C248.085 1530.52 247.426 1527.4 246.154 1524.5C244.881 1521.61 243.023 1519.01 240.695 1516.87L205.234 1484.34L203.664 1483.08C121.144 1655.56 151.297 1868.46 294.19 2011.35C475.355 2192.51 769.08 2192.51 950.244 2011.35C962.246 1999.34 973.585 1986.69 984.212 1973.44H981.73C967.224 1963.01 956.222 1953.63 947.203 1944.02C924.601 1919.94 909.542 1888.68 904.81 1855.99C903.982 1850.28 903.444 1844.39 902.928 1838.7C902.024 1828.79 901.091 1818.54 898.587 1808.67C895.157 1795.13 888.803 1782.36 882.658 1770.02C874.448 1753.52 866.692 1737.94 865.07 1720.42C862.753 1695.37 874.627 1669.94 895.329 1655.64C907.474 1647.25 922.101 1642.81 936.24 1638.52C949.578 1634.46 963.37 1630.28 975.405 1622.77C978.458 1620.86 981.789 1618.41 983.329 1614.7C985.496 1609.48 983.461 1604.34 981.492 1599.37C980.658 1597.27 979.871 1595.27 979.391 1593.3C977.612 1585.94 980.237 1578.6 983.015 1570.83C984.439 1566.81 985.921 1562.67 986.777 1558.46V1558.46Z" fill="#2724F2"/>
<path d="M633.825 1732.64H582.164C570.641 1732.64 561.3 1723.3 561.3 1711.78C561.3 1700.26 551.959 1690.92 540.437 1690.92H500.697C495.164 1690.92 489.857 1688.72 485.944 1684.8C482.032 1680.89 479.834 1675.59 479.834 1670.05V1653.16C479.834 1647.63 477.636 1642.32 473.723 1638.41C469.81 1634.5 464.504 1632.3 458.97 1632.3H402.046C396.513 1632.3 391.207 1630.1 387.295 1626.19L346.864 1585.76C342.952 1581.85 340.755 1576.54 340.755 1571.01V1532.96C340.755 1527.42 342.953 1522.12 346.865 1518.2C350.778 1514.29 356.085 1512.09 361.618 1512.09H419.308C423.78 1512.1 428.134 1510.66 431.727 1507.99L525.045 1438.87C527.665 1436.93 529.793 1434.4 531.259 1431.49C532.725 1428.58 533.489 1425.37 533.489 1422.11V1403.81C533.489 1398.27 531.291 1392.97 527.379 1389.06C523.466 1385.14 518.159 1382.94 512.626 1382.94H496.729C493.99 1382.94 491.277 1382.4 488.745 1381.36C486.214 1380.31 483.914 1378.77 481.977 1376.83C480.039 1374.9 478.503 1372.6 477.454 1370.07C476.406 1367.53 475.866 1364.82 475.866 1362.08V1323.43C475.866 1320.3 475.162 1317.21 473.807 1314.39C472.452 1311.57 470.48 1309.09 468.037 1307.14L434.022 1279.93C431.579 1277.97 429.606 1275.5 428.251 1272.68C426.896 1269.85 426.192 1266.77 426.192 1263.64V1262.76C378.404 1285.03 333.624 1315.87 294.185 1355.31C255.438 1394.06 225.01 1437.96 202.836 1484.8L239.365 1518.31C241.496 1520.27 243.197 1522.64 244.361 1525.29C245.525 1527.93 246.126 1530.79 246.126 1533.69V1579.15C246.126 1584.72 248.348 1590.05 252.297 1593.97L324.305 1665.37C327.538 1668.58 329.634 1672.75 330.273 1677.26C330.912 1681.77 330.059 1686.36 327.845 1690.33L323.518 1698.11C321.792 1701.21 320.886 1704.7 320.887 1708.25V1767.65C320.887 1774.36 324.115 1780.67 329.558 1784.59L411.559 1843.63C414.243 1845.56 416.429 1848.11 417.937 1851.05C419.444 1853.99 420.23 1857.25 420.23 1860.56V1946.45C420.23 1949.58 420.936 1952.68 422.294 1955.49L443.996 2000.56C445.358 2003.38 446.06 2006.48 446.06 2009.61V2047.57C446.06 2050.31 446.6 2053.02 447.649 2055.55C448.697 2058.09 450.234 2060.39 452.171 2062.32C454.109 2064.26 456.409 2065.8 458.94 2066.85C461.471 2067.89 464.184 2068.43 466.924 2068.43H497.97C503.504 2068.43 508.81 2066.24 512.723 2062.32C516.636 2058.41 518.834 2053.1 518.834 2047.57V1988.07C518.834 1982.29 521.228 1976.78 525.444 1972.84L554.697 1945.47C556.783 1943.51 558.446 1941.16 559.583 1938.54C560.721 1935.91 561.307 1933.09 561.307 1930.23V1903.55C561.307 1897.25 564.155 1891.28 569.053 1887.32L646.947 1824.34C649.365 1822.39 651.316 1819.92 652.656 1817.11C653.996 1814.3 654.692 1811.23 654.692 1808.12V1753.5C654.69 1747.97 652.49 1742.66 648.577 1738.75C644.664 1734.84 639.358 1732.64 633.825 1732.64V1732.64ZM1086.11 1683.33C1086.11 1564.61 1040.82 1445.89 950.236 1355.31C905.354 1310.43 853.557 1276.68 798.28 1254.04C793.28 1266.44 791.629 1280.18 794.159 1293.32C795.872 1302.22 799.323 1310.9 799.232 1319.96C799.012 1341.47 779.386 1358.27 775.916 1379.5C773.467 1394.48 779.243 1410.78 772.874 1424.56C769.159 1432.59 761.729 1438.57 758.625 1446.86C751.312 1466.39 771.838 1485.97 792.16 1490.67C812.478 1495.38 834.4 1492.08 853.92 1499.42C873.876 1506.93 892.777 1525.37 913.062 1518.8C918.07 1517.18 922.469 1514.11 927.272 1511.96C941.1 1505.77 958.314 1507.96 970.14 1517.43C981.97 1526.91 987.874 1543.22 984.855 1558.07C982.402 1570.13 974.584 1581.79 977.476 1593.76C979.126 1600.59 984.203 1607.45 981.509 1613.95C980.195 1617.11 977.267 1619.28 974.357 1621.1C949.764 1636.45 918.062 1637.55 894.208 1654.02C873.081 1668.62 860.743 1695.04 863.107 1720.6C866.028 1752.18 888.883 1778.41 896.675 1809.15C900.57 1824.52 900.588 1840.58 902.858 1856.28C907.656 1889.41 922.85 1920.96 945.759 1945.37C956.645 1956.96 969.101 1966.87 982.08 1976.12C1051.42 1891.09 1086.05 1787.21 1086.05 1683.34L1086.11 1683.33ZM633.638 1282.12C635.9 1275.9 636.544 1269.16 639.114 1263.06C644.597 1250.05 658.147 1235.89 662.558 1222.48C662.689 1222.07 662.792 1221.66 662.905 1221.25C649.372 1220.06 635.793 1219.45 622.207 1219.44V1219.5C581.896 1219.5 541.756 1224.73 502.791 1235.06C509.841 1251.65 520.836 1269.72 534.613 1279.79C540.521 1284.12 547.124 1288.01 550.879 1294.29C552.999 1297.84 554.078 1301.96 556.458 1305.33C560.795 1311.49 568.54 1314.06 575.747 1316.25C581.333 1317.94 587.065 1319.66 592.892 1319.29C598.719 1318.92 604.751 1316.04 607.214 1310.74C609.561 1305.71 609.099 1298.43 614.202 1296.24C616.065 1295.44 618.184 1295.65 620.19 1295.37C626.735 1294.43 631.376 1288.34 633.638 1282.12V1282.12Z" fill="#F5C845"/>
</g>
<g clip-path="url(#clip3_1_1156)">
<path d="M2855.55 1550.82V1782.51C2855.55 1803.83 2838.49 1820.97 2817.73 1820.97H2775.21V1512.36H2817.73C2838.49 1512.36 2855.55 1529.5 2855.55 1550.82Z" fill="black"/>
<path d="M2655.75 1309.86V2023.47L2187.14 1835.34V1497.99L2655.75 1309.86Z" fill="#F5C845"/>
<path d="M2722.41 2100H2708.55C2679.39 2100 2655.75 2076.25 2655.75 2046.95V1286.38C2655.75 1257.08 2679.39 1233.33 2708.55 1233.33H2722.41C2751.57 1233.33 2775.21 1257.08 2775.21 1286.38V2046.96C2775.21 2076.25 2751.57 2100 2722.41 2100V2100ZM2014.67 1497.99H2187.14V1835.34H2014.67V1497.99Z" fill="#E45E47"/>
<path d="M2156.67 2100H2235.32C2257.34 2100 2272.73 2078.11 2265.38 2057.25L2187.14 1835.34H2014.67L2091.73 2053.89C2096.49 2067.38 2105.28 2079.05 2116.91 2087.31C2128.54 2095.57 2142.43 2100 2156.67 2100Z" fill="#F5C845"/>
<path d="M2014.67 1497.99C1968.22 1497.99 1930.55 1535.83 1930.55 1582.51V1750.82C1930.55 1797.5 1968.22 1835.34 2014.67 1835.34V1497.99Z" fill="black"/>
</g>
<g clip-path="url(#clip4_1_1156)">
<path d="M2465.28 2508.33C2574.97 2508.33 2663.89 2419.41 2663.89 2309.72C2663.89 2200.03 2574.97 2111.11 2465.28 2111.11C2355.59 2111.11 2266.67 2200.03 2266.67 2309.72C2266.67 2419.41 2355.59 2508.33 2465.28 2508.33Z" fill="black"/>
<path d="M2509.28 2323.73L2515.5 2283.17H2476.59V2256.86C2476.59 2245.76 2482.03 2234.94 2499.45 2234.94H2517.14V2200.42C2517.14 2200.42 2501.09 2197.68 2485.74 2197.68C2453.69 2197.68 2432.74 2217.1 2432.74 2252.26V2283.17H2397.12V2323.73H2432.74V2421.76H2476.59V2323.73H2509.28Z" fill="white"/>
</g>
<g clip-path="url(#clip5_1_1156)">
<path d="M1144.44 644.448C1259.5 644.448 1352.78 551.173 1352.78 436.113C1352.78 321.053 1259.5 227.778 1144.44 227.778C1029.38 227.778 936.109 321.053 936.109 436.113C936.109 551.173 1029.38 644.448 1144.44 644.448Z" fill="#F5C845"/>
<path d="M1202.09 366.122C1198.7 366.122 1195.46 367.467 1193.06 369.86C1190.67 372.254 1189.32 375.5 1189.32 378.884C1189.32 382.269 1190.67 385.515 1193.06 387.909C1195.46 390.302 1198.7 391.646 1202.09 391.646C1205.47 391.646 1208.72 390.302 1211.11 387.909C1213.5 385.515 1214.85 382.269 1214.85 378.884C1214.85 375.5 1213.5 372.254 1211.11 369.86C1208.72 367.467 1205.47 366.122 1202.09 366.122ZM1145.34 382.49C1115.77 382.49 1091.71 406.543 1091.71 436.109C1091.71 465.676 1115.77 489.728 1145.34 489.728C1174.9 489.728 1198.96 465.673 1198.96 436.109C1198.96 406.546 1174.9 382.49 1145.34 382.49ZM1145.34 470.46C1126.39 470.46 1110.99 455.052 1110.99 436.113C1110.99 417.174 1126.4 401.766 1145.34 401.766C1164.28 401.766 1179.68 417.174 1179.68 436.113C1179.68 455.052 1164.28 470.46 1145.34 470.46V470.46Z" fill="white"/>
<path d="M1187.91 544.977H1100.98C1064.92 544.977 1035.58 515.639 1035.58 479.577V392.646C1035.58 356.583 1064.92 327.246 1100.98 327.246H1187.91C1223.97 327.246 1253.31 356.583 1253.31 392.646V479.577C1253.31 515.639 1223.97 544.977 1187.91 544.977ZM1100.98 347.731C1076.21 347.731 1056.06 367.877 1056.06 392.646V479.577C1056.06 504.345 1076.21 524.495 1100.98 524.495H1187.91C1212.67 524.495 1232.82 504.345 1232.82 479.577V392.646C1232.82 367.877 1212.67 347.731 1187.91 347.731H1100.98Z" fill="white"/>
</g>
<g clip-path="url(#clip6_1_1156)">
<path d="M630.559 1075C748.687 1075 844.449 979.242 844.449 861.113C844.449 742.984 748.687 647.222 630.559 647.222C512.43 647.222 416.668 742.984 416.668 861.113C416.668 979.242 512.43 1075 630.559 1075Z" fill="#2724F2"/>
<path d="M745.46 788.616C738.104 791.943 729.964 793.962 722.023 795.296C725.792 794.66 731.325 787.841 733.545 785.08C736.927 780.874 739.74 776.077 741.32 770.897C741.526 770.492 741.673 769.985 741.269 769.68C740.758 769.478 740.431 769.58 740.026 769.783C731.166 774.532 721.998 777.973 712.241 780.415C711.906 780.519 711.549 780.528 711.21 780.438C710.871 780.348 710.564 780.164 710.326 779.907C709.517 778.995 708.756 778.132 707.899 777.426C703.887 773.969 699.342 771.184 694.44 769.18C687.898 766.531 680.841 765.395 673.798 765.856C666.958 766.32 660.29 768.203 654.218 771.386C648.128 774.569 642.751 778.961 638.417 784.293C633.924 789.823 630.704 796.275 628.984 803.189C627.359 809.836 627.491 816.417 628.484 823.137C628.631 824.254 628.532 824.401 627.524 824.254C589.364 818.575 557.737 804.921 532.054 775.661C530.941 774.389 530.338 774.389 529.422 775.757C518.184 792.598 523.636 819.655 537.672 832.956C539.547 834.732 541.469 836.5 543.539 838.118C542.786 838.272 533.444 837.261 525.117 832.956C524.003 832.25 523.445 832.655 523.342 833.923C523.239 835.743 523.397 837.416 523.647 839.39C525.801 856.462 537.624 872.252 553.818 878.414C555.741 879.222 557.866 879.932 559.935 880.289C556.248 881.097 552.447 881.675 541.87 880.847C540.554 880.594 540.05 881.255 540.554 882.516C548.506 904.184 565.663 910.633 578.516 914.305C580.236 914.607 581.957 914.607 583.684 915.011C583.578 915.169 583.475 915.169 583.376 915.316C579.115 921.816 564.336 926.65 557.45 929.055C544.936 933.433 531.304 935.396 518.077 934.095C515.96 933.782 515.515 933.808 514.941 934.095C514.36 934.451 514.868 934.959 515.548 935.507C518.232 937.282 520.967 938.852 523.75 940.37C532.113 944.829 540.938 948.359 550.068 950.899C597.368 963.961 650.648 954.362 686.165 919.077C714.053 891.369 723.832 853.15 723.832 814.891C723.832 813.395 725.601 812.567 726.648 811.777C733.905 806.325 739.758 799.8 745.173 792.513C746.386 790.877 746.401 789.425 746.401 788.826V788.627C746.412 788.002 746.397 788.186 745.46 788.616V788.616Z" fill="white"/>
</g>
<g clip-path="url(#clip7_1_1156)">
<path d="M517.899 1841.67C516.877 1841.67 515.833 1841.53 514.936 1841.04C511.632 1839.24 508.721 1835.3 506.343 1832.65C501.148 1826.84 496.092 1820.91 491.18 1814.86C474.928 1794.96 459.853 1774.11 446.66 1752.14C431.459 1726.97 418.177 1699.87 411.84 1671.08C408.433 1655.79 407.122 1640.04 409.655 1624.5C411.982 1610.25 417.166 1596.6 424.904 1584.35C440.152 1560.31 464.883 1542.7 492.847 1536.22C501.109 1534.31 509.572 1533.37 518.059 1533.42V1533.33V1533.42C526.545 1533.37 535.008 1534.31 543.271 1536.22C571.234 1542.7 595.961 1560.31 611.21 1584.35C618.948 1596.6 624.132 1610.25 626.459 1624.5C628.992 1640.04 627.681 1655.79 624.273 1671.08C617.94 1699.87 604.654 1726.97 589.45 1752.14C576.253 1774.11 561.182 1794.96 544.93 1814.86C540.02 1820.91 534.964 1826.84 529.766 1832.64C527.392 1835.29 524.477 1839.24 521.174 1841.04C520.281 1841.53 519.233 1841.66 518.21 1841.66H517.899V1841.67Z" fill="#E45E47"/>
<path d="M518.055 1707.86C553.302 1707.86 581.876 1679.63 581.876 1644.81C581.876 1609.98 553.302 1581.75 518.055 1581.75C482.808 1581.75 454.234 1609.98 454.234 1644.81C454.234 1679.63 482.808 1707.86 518.055 1707.86Z" fill="white"/>
</g>
<g clip-path="url(#clip8_1_1156)">
<path d="M2219.42 980.556H2541.67C2665.93 980.556 2766.67 879.821 2766.67 755.554C2766.67 631.29 2665.94 530.556 2541.68 530.556H2219.42L2219.43 530.559C2094.98 530.559 1993.84 632.004 1994.45 756.765C1994.75 813.088 2015.64 864.872 2050.47 904.239C2053.8 907.874 2054.7 913.325 2052.28 917.867C2045.37 932.155 2036.94 945.658 2027.15 958.143C2023.21 962.685 2025.93 969.347 2031.99 970.255C2040.77 971.467 2049.86 970.559 2058.94 969.043C2077.11 965.712 2094.07 958.447 2103.15 954.204C2106.48 952.389 2110.72 952.689 2114.36 954.508C2117.39 956.023 2120.11 957.535 2123.14 958.747C2151.6 972.374 2183.09 979.944 2216.4 980.552L2219.42 980.556Z" fill="#E45E47"/>
<path d="M2219.42 980.556H2541.67C2665.93 980.556 2766.67 879.821 2766.67 755.554C2766.67 631.29 2665.94 530.556 2541.68 530.556H2219.42L2219.43 530.559C2094.98 530.559 1993.84 632.004 1994.45 756.765C1994.75 813.088 2015.64 864.872 2050.47 904.239C2053.8 907.874 2054.7 913.325 2052.28 917.867C2045.37 932.155 2036.94 945.658 2027.15 958.143C2023.21 962.685 2025.93 969.347 2031.99 970.255C2040.77 971.467 2049.86 970.559 2058.94 969.043C2077.11 965.712 2094.07 958.447 2103.15 954.204C2106.48 952.389 2110.72 952.689 2114.36 954.508C2117.39 956.023 2120.11 957.535 2123.14 958.747C2151.6 972.374 2183.09 979.944 2216.4 980.552L2219.42 980.556Z" fill="#E45E47"/>
<path d="M2565.37 795.658C2587.52 795.658 2605.47 777.704 2605.47 755.557C2605.47 733.41 2587.52 715.457 2565.37 715.457C2543.22 715.457 2525.27 733.41 2525.27 755.557C2525.27 777.704 2543.22 795.658 2565.37 795.658Z" fill="white"/>
<path d="M2380.56 795.658C2402.7 795.658 2420.66 777.704 2420.66 755.557C2420.66 733.41 2402.7 715.457 2380.56 715.457C2358.41 715.457 2340.46 733.41 2340.46 755.557C2340.46 777.704 2358.41 795.658 2380.56 795.658Z" fill="white"/>
<path d="M2195.74 795.658C2217.89 795.658 2235.84 777.704 2235.84 755.557C2235.84 733.41 2217.89 715.457 2195.74 715.457C2173.6 715.457 2155.64 733.41 2155.64 755.557C2155.64 777.704 2173.6 795.658 2195.74 795.658Z" fill="white"/>
</g>
<defs>
<clipPath id="clip0_1_1156">
<rect width="986.111" height="1747.22" fill="white" transform="translate(927.777 738.889)"/>
</clipPath>
<clipPath id="clip1_1_1156">
<rect width="983.333" height="1741.67" fill="white" transform="translate(1208.33 1052.78)"/>
</clipPath>
<clipPath id="clip2_1_1156">
<rect width="927.778" height="927.778" fill="white" transform="translate(158.332 1219.44)"/>
</clipPath>
<clipPath id="clip3_1_1156">
<rect width="925" height="866.667" fill="white" transform="translate(1930.55 1233.33)"/>
</clipPath>
<clipPath id="clip4_1_1156">
<rect width="397.222" height="397.222" fill="white" transform="translate(2266.67 2111.11)"/>
</clipPath>
<clipPath id="clip5_1_1156">
<rect width="416.667" height="416.667" fill="white" transform="translate(936.109 227.778)"/>
</clipPath>
<clipPath id="clip6_1_1156">
<rect width="427.778" height="427.778" fill="white" transform="translate(416.668 647.222)"/>
</clipPath>
<clipPath id="clip7_1_1156">
<rect width="219.444" height="308.333" fill="white" transform="translate(408.332 1533.33)"/>
</clipPath>
<clipPath id="clip8_1_1156">
<rect width="772.222" height="450" fill="white" transform="translate(1994.45 530.556)"/>
</clipPath>
</defs>
</svg>
