<svg width="3000" height="3000" viewBox="0 0 3000 3000" fill="none" xmlns="http://www.w3.org/2000/svg">
<g clip-path="url(#clip0_1_916)">
<path d="M2527.77 963.248V1054.6H391.676V963.248C391.676 919.111 427.624 883.333 471.966 883.333H2447.48C2491.82 883.333 2527.77 919.111 2527.77 963.248Z" fill="black"/>
<path d="M2527.78 1054.59V2350.64C2527.78 2394.78 2491.83 2430.56 2447.48 2430.56H471.962C427.616 2430.56 391.668 2394.78 391.668 2350.64V1054.59H2527.78Z" fill="#2724F2"/>
<path d="M555.239 995.873C570.171 995.873 582.275 983.826 582.275 968.965C582.275 954.103 570.171 942.056 555.239 942.056C540.308 942.056 528.203 954.103 528.203 968.965C528.203 983.826 540.308 995.873 555.239 995.873Z" fill="white"/>
<path d="M690.329 995.873C705.261 995.873 717.365 983.826 717.365 968.965C717.365 954.103 705.261 942.056 690.329 942.056C675.397 942.056 663.293 954.103 663.293 968.965C663.293 983.826 675.397 995.873 690.329 995.873Z" fill="white"/>
<path d="M825.423 995.873C840.354 995.873 852.459 983.826 852.459 968.965C852.459 954.103 840.354 942.056 825.423 942.056C810.491 942.056 798.387 954.103 798.387 968.965C798.387 983.826 810.491 995.873 825.423 995.873Z" fill="white"/>
<path d="M1542.19 883.333H1553.6V1054.59H1542.19V883.333ZM1783.49 883.333H1794.9V1054.59H1783.49V883.333ZM2024.79 883.333H2036.2V1054.59H2024.79V883.333ZM2266.09 883.333H2277.51V1054.59H2266.09V883.333Z" fill="white"/>
</g>
<g clip-path="url(#clip1_1_916)">
<path d="M1605.56 786.111C1734.42 786.111 1838.89 681.644 1838.89 552.778C1838.89 423.911 1734.42 319.444 1605.56 319.444C1476.69 319.444 1372.22 423.911 1372.22 552.778C1372.22 681.644 1476.69 786.111 1605.56 786.111Z" fill="#F5C845"/>
<path d="M1566.13 498.235C1572.44 467.013 1622.87 473.617 1645.09 487.726C1663.1 500.934 1684.71 474.817 1664.3 458.308C1652.96 449.602 1638.14 444.083 1622.44 441.829V424.679C1622.44 422.462 1622.01 420.266 1621.16 418.217C1620.31 416.168 1619.07 414.306 1617.5 412.738C1615.93 411.17 1614.07 409.926 1612.02 409.077C1609.97 408.229 1607.77 407.792 1605.56 407.792C1603.34 407.792 1601.14 408.229 1599.09 409.077C1597.04 409.926 1595.18 411.17 1593.61 412.738C1592.05 414.306 1590.8 416.168 1589.95 418.217C1589.11 420.266 1588.67 422.462 1588.67 424.679V441.999C1558.31 446.769 1531.68 464.241 1528.01 495.232C1518.7 580.491 1643.58 553.771 1647.49 598.2C1642.99 640.827 1579.64 628.216 1555.03 611.408C1544.82 603.001 1536.12 605.706 1528.31 613.51C1522.9 621.612 1522.61 634.82 1532.51 642.929C1545.97 654.047 1566.72 661.327 1588.67 663.526V680.882C1588.67 683.1 1589.11 685.296 1589.95 687.345C1590.8 689.394 1592.05 691.255 1593.61 692.823C1595.18 694.392 1597.04 695.635 1599.09 696.484C1601.14 697.333 1603.34 697.77 1605.56 697.77C1607.77 697.77 1609.97 697.333 1612.02 696.484C1614.07 695.635 1615.93 694.392 1617.5 692.823C1619.07 691.255 1620.31 689.394 1621.16 687.345C1622.01 685.296 1622.44 683.1 1622.44 680.882V662.71C1656.28 657.409 1685.44 637.921 1686.51 599.102C1688.62 519.247 1558.03 547.465 1566.13 498.235V498.235Z" fill="white"/>
</g>
<g clip-path="url(#clip2_1_916)">
<path d="M744.446 450H1288.89C1280.21 388.556 1233.14 397.803 1225.29 398.54H1225C1221.27 398.481 1217.77 396.521 1215.93 393.139C1210.8 383.682 1203.33 375.809 1194.28 370.332C1185.23 364.855 1174.93 361.971 1164.44 361.978C1154.69 361.978 1145.56 364.413 1137.46 368.684C1133.45 370.762 1128.68 368.861 1126.67 364.649C1111.64 332.954 1080.24 311.111 1043.79 311.111C1007.63 311.111 976.288 332.659 961.247 363.997C956.999 371.355 949.306 371.535 943.626 366.134C930.024 352.78 911.541 344.471 891.276 344.471C858.846 344.471 831.179 365.481 820.272 394.981C816.655 404.951 808.103 408.514 797.772 406.911C795.363 406.554 792.894 406.259 790.425 406.259C766.258 406.256 746.456 425.545 744.446 450Z" fill="black"/>
</g>
<g clip-path="url(#clip3_1_916)">
<path d="M391.665 1658.33C520.532 1658.33 624.999 1553.87 624.999 1425C624.999 1296.13 520.532 1191.67 391.665 1191.67C262.799 1191.67 158.332 1296.13 158.332 1425C158.332 1553.87 262.799 1658.33 391.665 1658.33Z" fill="#F5C845"/>
<path d="M352.243 1370.46C358.549 1339.24 408.979 1345.84 431.197 1359.95C449.211 1373.16 470.82 1347.04 450.411 1330.53C439.074 1321.82 424.246 1316.3 408.553 1314.05V1296.9C408.553 1294.68 408.116 1292.49 407.267 1290.44C406.419 1288.39 405.175 1286.53 403.606 1284.96C402.038 1283.39 400.177 1282.15 398.128 1281.3C396.079 1280.45 393.883 1280.01 391.665 1280.01C389.448 1280.01 387.252 1280.45 385.203 1281.3C383.154 1282.15 381.292 1283.39 379.724 1284.96C378.156 1286.53 376.912 1288.39 376.064 1290.44C375.215 1292.49 374.778 1294.68 374.778 1296.9V1314.22C344.421 1318.99 317.793 1336.46 314.119 1367.45C304.81 1452.71 429.692 1425.99 433.597 1470.42C429.095 1513.05 365.75 1500.44 341.138 1483.63C330.927 1475.22 322.228 1477.93 314.418 1485.73C309.014 1493.83 308.715 1507.04 318.621 1515.15C332.079 1526.27 352.828 1533.55 374.778 1535.75V1553.1C374.778 1555.32 375.215 1557.52 376.064 1559.57C376.912 1561.62 378.156 1563.48 379.724 1565.05C381.292 1566.61 383.154 1567.86 385.203 1568.71C387.252 1569.56 389.448 1569.99 391.665 1569.99C393.883 1569.99 396.079 1569.56 398.128 1568.71C400.177 1567.86 402.038 1566.61 403.606 1565.05C405.175 1563.48 406.419 1561.62 407.267 1559.57C408.116 1557.52 408.553 1555.32 408.553 1553.1V1534.93C442.388 1529.63 471.551 1510.14 472.623 1471.32C474.725 1391.47 344.135 1419.69 352.243 1370.46V1370.46Z" fill="white"/>
</g>
<g clip-path="url(#clip4_1_916)">
<path d="M2044.97 495.181L2052.92 516.653C2053.61 518.532 2054.71 520.238 2056.12 521.654C2057.54 523.071 2059.25 524.164 2061.12 524.859L2082.6 532.806C2094.69 537.281 2094.69 554.385 2082.6 558.86L2061.12 566.807C2059.25 567.502 2057.54 568.595 2056.12 570.012C2054.71 571.428 2053.61 573.134 2052.92 575.013L2044.97 596.485C2040.5 608.577 2023.39 608.577 2018.92 596.485L2010.97 575.013C2010.27 573.134 2009.18 571.428 2007.77 570.012C2006.35 568.595 2004.64 567.502 2002.76 566.807L1981.29 558.86C1969.2 554.385 1969.2 537.281 1981.29 532.806L2002.76 524.859C2004.64 524.164 2006.35 523.071 2007.77 521.654C2009.18 520.238 2010.27 518.532 2010.97 516.653L2018.92 495.181C2023.39 483.089 2040.5 483.089 2044.97 495.181V495.181Z" fill="black"/>
</g>
<g clip-path="url(#clip5_1_916)">
<path d="M391.665 2247.22C520.532 2247.22 624.999 2142.76 624.999 2013.89C624.999 1885.02 520.532 1780.56 391.665 1780.56C262.799 1780.56 158.332 1885.02 158.332 2013.89C158.332 2142.76 262.799 2247.22 391.665 2247.22Z" fill="#F5C845"/>
<path d="M352.243 1959.35C358.549 1928.12 408.979 1934.73 431.197 1948.84C449.211 1962.05 470.82 1935.93 450.411 1919.42C439.074 1910.71 424.246 1905.19 408.553 1902.94V1885.79C408.553 1883.57 408.116 1881.38 407.267 1879.33C406.419 1877.28 405.175 1875.42 403.606 1873.85C402.038 1872.28 400.177 1871.04 398.128 1870.19C396.079 1869.34 393.883 1868.9 391.665 1868.9C389.448 1868.9 387.252 1869.34 385.203 1870.19C383.154 1871.04 381.292 1872.28 379.724 1873.85C378.156 1875.42 376.912 1877.28 376.064 1879.33C375.215 1881.38 374.778 1883.57 374.778 1885.79V1903.11C344.421 1907.88 317.793 1925.35 314.119 1956.34C304.81 2041.6 429.692 2014.88 433.597 2059.31C429.095 2101.94 365.75 2089.33 341.138 2072.52C330.927 2064.11 322.228 2066.82 314.418 2074.62C309.014 2082.72 308.715 2095.93 318.621 2104.04C332.079 2115.16 352.828 2122.44 374.778 2124.64V2141.99C374.778 2144.21 375.215 2146.41 376.064 2148.46C376.912 2150.5 378.156 2152.37 379.724 2153.93C381.292 2155.5 383.154 2156.75 385.203 2157.6C387.252 2158.44 389.448 2158.88 391.665 2158.88C393.883 2158.88 396.079 2158.44 398.128 2157.6C400.177 2156.75 402.038 2155.5 403.606 2153.93C405.175 2152.37 406.419 2150.5 407.267 2148.46C408.116 2146.41 408.553 2144.21 408.553 2141.99V2123.82C442.388 2118.52 471.551 2099.03 472.623 2060.21C474.725 1980.36 344.135 2008.58 352.243 1959.35V1959.35Z" fill="white"/>
</g>
<g clip-path="url(#clip6_1_916)">
<path d="M1825.59 1655.68H2637.32C2676 1655.68 2707.36 1624.37 2707.36 1585.75V1264.38C2707.36 1225.76 2676 1194.44 2637.32 1194.44H1825.59C1786.91 1194.44 1755.55 1225.76 1755.55 1264.38V1585.75C1755.55 1624.37 1786.91 1655.68 1825.59 1655.68Z" fill="#F5C845"/>
<path d="M2639.65 1342V1508.12C2595.44 1508.12 2559.58 1543.92 2559.58 1588.08H1903.33C1903.33 1543.92 1867.47 1508.12 1823.25 1508.12V1342C1867.47 1342 1903.33 1306.2 1903.33 1262.05H2559.58C2559.58 1306.2 2595.44 1342 2639.65 1342Z" fill="#E45E47"/>
<path d="M2231.46 1514.18C2264.81 1514.18 2291.85 1474.28 2291.85 1425.06C2291.85 1375.85 2264.81 1335.95 2231.46 1335.95C2198.1 1335.95 2171.06 1375.85 2171.06 1425.06C2171.06 1474.28 2198.1 1514.18 2231.46 1514.18Z" fill="white"/>
<path d="M2439.68 1457.13C2465.89 1457.13 2487.13 1442.77 2487.13 1425.06C2487.13 1407.35 2465.89 1393 2439.68 1393C2413.47 1393 2392.23 1407.35 2392.23 1425.06C2392.23 1442.77 2413.47 1457.13 2439.68 1457.13Z" fill="white"/>
<path d="M2023.23 1457.13C2049.44 1457.13 2070.69 1442.77 2070.69 1425.06C2070.69 1407.35 2049.44 1393 2023.23 1393C1997.03 1393 1975.78 1407.35 1975.78 1425.06C1975.78 1442.77 1997.03 1457.13 2023.23 1457.13Z" fill="white"/>
<path d="M2707.41 1338.17L2809.78 1440.59C2820.76 1451.49 2829.48 1464.45 2835.43 1478.73C2841.38 1493.01 2844.44 1508.32 2844.44 1523.78V1756.48H2668.25L2661.14 1745.08C2648.5 1724.88 2641.58 1701.64 2641.11 1677.83C2640.64 1654.02 2646.65 1630.53 2658.48 1609.85L2578.26 1522.49C2562.98 1505.79 2563.53 1480.04 2579.51 1464C2596.08 1447.42 2622.93 1447.38 2639.53 1463.88L2707.41 1531.7" fill="black"/>
<path d="M2844.44 1756.48V1802.54C2844.44 1809.97 2841.49 1817.1 2836.23 1822.35C2830.96 1827.61 2823.83 1830.56 2816.39 1830.56H2696.31C2688.87 1830.56 2681.73 1827.61 2676.47 1822.35C2671.21 1817.1 2668.25 1809.97 2668.25 1802.54V1756.48H2844.44Z" fill="#2724F2"/>
</g>
<g clip-path="url(#clip7_1_916)">
<path d="M256.916 1659.53L262.83 1675.51C263.347 1676.9 264.16 1678.17 265.214 1679.23C266.269 1680.28 267.538 1681.1 268.937 1681.61L284.916 1687.53C293.914 1690.86 293.914 1703.59 284.916 1706.92L268.937 1712.83C267.538 1713.35 266.269 1714.16 265.214 1715.22C264.16 1716.27 263.347 1717.54 262.83 1718.94L256.916 1734.92C253.585 1743.92 240.857 1743.92 237.526 1734.92L231.612 1718.94C231.095 1717.54 230.282 1716.27 229.228 1715.22C228.174 1714.16 226.904 1713.35 225.505 1712.83L209.526 1706.92C200.528 1703.59 200.528 1690.86 209.526 1687.53L225.505 1681.61C226.904 1681.1 228.174 1680.28 229.228 1679.23C230.282 1678.17 231.095 1676.9 231.612 1675.51L237.526 1659.53C240.857 1650.53 253.585 1650.53 256.916 1659.53V1659.53Z" fill="white"/>
</g>
<g clip-path="url(#clip8_1_916)">
<path d="M1097.22 733.333C1094.53 699.581 1066.77 673.032 1032.91 673.032C1029.39 673.032 1025.94 673.318 1022.57 673.869C1008.01 676.116 996.198 671.235 991.006 657.506C975.728 616.759 936.974 587.805 891.557 587.805C864.236 587.769 837.956 598.471 818.204 617.678C810.181 625.04 799.353 624.79 793.443 614.696C772.335 571.422 728.484 541.667 677.783 541.667C620.355 541.667 571.692 579.82 554.929 632.581C552.797 639.29 544.809 647.458 531.252 642.241C521.231 638.024 510.492 635.861 499.648 635.874C472.871 635.874 449.073 648.811 433.941 668.876C427.965 675.707 420.093 676.208 412.878 669.147C405.331 660.167 395.96 652.96 385.41 648.022C374.861 643.084 363.384 640.533 351.772 640.546C315.03 640.546 284.053 665.593 274.395 699.821C271.555 707.545 264.124 707.561 259.639 704.635C251.096 699.053 241.153 696.093 231 696.109C207.434 696.109 187.53 711.732 180.551 733.339H1097.22V733.333Z" fill="black"/>
</g>
<g clip-path="url(#clip9_1_916)">
<path d="M1461.18 1195.67C1488.14 1280.77 1503.57 1400.98 1492.63 1528.27C1486.35 1602.38 1471.09 1678.99 1444.05 1752.42H886.519C859.473 1678.99 844.218 1602.38 837.935 1528.27C826.995 1400.98 842.338 1280.77 869.342 1195.63C929.973 1004.34 1060.21 868.733 1125.8 809.637C1136.64 799.855 1150.7 794.444 1165.28 794.444C1179.86 794.444 1193.92 799.855 1204.76 809.637C1270.35 868.733 1400.59 1004.35 1461.18 1195.67V1195.67Z" fill="#E45E47"/>
<path d="M837.934 1528.27C844.217 1602.38 859.469 1678.99 886.518 1752.42C905.276 1803.36 929.761 1852.84 960.911 1898.89C960.911 1898.89 960.869 1898.93 960.911 1898.98L831.912 1993.78C814.906 2006.31 792.986 2009.18 773.331 2001.55C753.631 1993.86 739.36 1976.95 735.176 1956.18L693.511 1751C687.954 1723.62 695.092 1695.77 713.21 1674.57L837.934 1528.27ZM1492.63 1528.27L1617.31 1674.52C1635.47 1695.77 1642.61 1723.62 1637.05 1751L1595.39 1956.18C1593.36 1966.36 1588.8 1975.86 1582.13 1983.8C1575.46 1991.73 1566.89 1997.83 1557.24 2001.54C1537.58 2009.18 1515.66 2006.31 1498.65 1993.77L1369.66 1898.97C1369.7 1898.93 1369.66 1898.89 1369.66 1898.89C1400.81 1852.84 1425.29 1803.36 1444.05 1752.41C1471.09 1678.99 1486.35 1602.38 1492.63 1528.27V1528.27Z" fill="white"/>
<path d="M1444.05 1752.42C1425.29 1803.36 1400.8 1852.84 1369.65 1898.89C1369.65 1898.89 1369.69 1898.93 1369.65 1898.98C1366.91 1903.05 1364.12 1907.08 1361.28 1911.08C1350.21 1926.57 1332.27 1935.67 1313.29 1935.67L1017.22 1935.71C998.25 1935.71 980.347 1926.57 969.283 1911.08C966.438 1907.08 963.647 1903.05 960.908 1898.98C960.867 1898.94 960.908 1898.89 960.908 1898.89C929.758 1852.84 905.274 1803.36 886.516 1752.42H1444.05V1752.42Z" fill="#F5C845"/>
<path d="M1030 2136.76C1025.8 2136.76 1021.65 2135.93 1017.77 2134.32C1013.89 2132.71 1010.36 2130.34 1007.39 2127.36C1004.43 2124.38 1002.07 2120.84 1000.47 2116.94C998.86 2113.05 998.034 2108.87 998.035 2104.65V2028.7C998.035 2010.96 1012.38 1996.56 1030 1996.6C1047.63 1996.55 1061.97 2010.96 1061.97 2028.7V2104.65C1061.98 2108.88 1061.15 2113.06 1059.55 2116.96C1057.94 2120.87 1055.58 2124.41 1052.61 2127.4C1049.64 2130.38 1046.12 2132.74 1042.24 2134.35C1038.36 2135.96 1034.2 2136.78 1030 2136.76V2136.76ZM1197.24 2028.67V2187.34C1197.25 2191.56 1196.43 2195.74 1194.82 2199.65C1193.22 2203.55 1190.86 2207.1 1187.88 2210.08C1184.92 2213.07 1181.4 2215.43 1177.52 2217.04C1173.64 2218.65 1169.48 2219.46 1165.28 2219.44C1161.08 2219.44 1156.92 2218.61 1153.04 2217C1149.17 2215.39 1145.64 2213.02 1142.67 2210.04C1139.7 2207.06 1137.35 2203.52 1135.74 2199.62C1134.14 2195.73 1133.31 2191.55 1133.31 2187.33V2028.66C1133.31 2024.44 1134.14 2020.27 1135.74 2016.37C1137.35 2012.48 1139.7 2008.94 1142.67 2005.96C1145.64 2002.97 1149.17 2000.61 1153.04 1999C1156.92 1997.38 1161.08 1996.55 1165.28 1996.55C1169.48 1996.55 1173.64 1997.38 1177.51 1999C1181.39 2000.61 1184.92 2002.98 1187.89 2005.96C1190.85 2008.94 1193.21 2012.48 1194.81 2016.38C1196.42 2020.27 1197.24 2024.45 1197.24 2028.67ZM1332.52 2028.7V2104.66C1332.53 2108.88 1331.71 2113.06 1330.1 2116.97C1328.49 2120.87 1326.14 2124.42 1323.16 2127.4C1320.2 2130.38 1316.67 2132.74 1312.79 2134.35C1308.91 2135.96 1304.75 2136.77 1300.56 2136.76C1296.36 2136.76 1292.2 2135.93 1288.32 2134.32C1284.44 2132.71 1280.92 2130.34 1277.95 2127.36C1274.98 2124.38 1272.63 2120.84 1271.02 2116.94C1269.41 2113.05 1268.59 2108.87 1268.59 2104.65L1268.55 2028.66C1268.59 2010.96 1282.89 1996.6 1300.52 1996.55C1318.18 1996.56 1332.52 2010.97 1332.52 2028.7V2028.7ZM1165.29 1113.65C1210.31 1113.65 1252.67 1131.25 1284.45 1163.23C1317.32 1196.25 1333.76 1239.65 1333.76 1282.98C1333.76 1326.31 1317.33 1369.71 1284.45 1402.73C1252.67 1434.65 1210.3 1452.31 1165.29 1452.31C1120.27 1452.31 1077.91 1434.65 1046.06 1402.73C980.318 1336.69 980.318 1229.27 1046.06 1163.23C1077.91 1131.25 1120.27 1113.65 1165.29 1113.65V1113.65Z" fill="white"/>
<path d="M1165.28 1192.52C1177.11 1192.48 1188.82 1194.81 1199.75 1199.35C1210.68 1203.9 1220.6 1210.58 1228.94 1219C1264.08 1254.3 1264.08 1311.69 1228.94 1346.93C1211.93 1364.07 1189.34 1373.47 1165.28 1373.47C1141.23 1373.47 1118.57 1364.07 1101.57 1346.93C1084.02 1329.31 1075.25 1306.18 1075.25 1282.99C1075.25 1259.8 1084.02 1236.67 1101.57 1219C1118.57 1201.92 1141.23 1192.52 1165.28 1192.52V1192.52Z" fill="black"/>
</g>
<g clip-path="url(#clip10_1_916)">
<path d="M2677.77 1955.02H1766.67L2189.48 1759.97C2199.75 1755.23 2210.92 1752.78 2222.22 1752.78C2233.52 1752.78 2244.68 1755.23 2254.95 1759.97L2677.77 1955.02Z" fill="#E45E47"/>
<path d="M1864.21 2036.4H2580.22V2607.55H1864.21V2036.4Z" fill="#2724F2"/>
<path d="M2677.77 1955.02V2006.03C2677.77 2014.09 2674.59 2021.81 2668.92 2027.51C2663.26 2033.21 2655.58 2036.41 2647.57 2036.41H1796.87C1788.86 2036.41 1781.18 2033.2 1775.52 2027.51C1769.85 2021.81 1766.67 2014.08 1766.67 2006.03V1955.02H2677.77ZM2677.78 2637.91V2716.66H1766.67V2637.91C1766.67 2621.15 1780.19 2607.56 1796.89 2607.56H2647.57C2664.26 2607.56 2677.78 2621.15 2677.78 2637.91Z" fill="black"/>
<path d="M2007.16 2115.48H1847.45C1844.45 2115.48 1841.49 2114.89 1838.72 2113.73C1835.96 2112.58 1833.44 2110.89 1831.33 2108.76C1829.21 2106.63 1827.53 2104.1 1826.38 2101.32C1825.24 2098.54 1824.65 2095.56 1824.65 2092.55V2036.41H2029.96V2092.55C2029.96 2095.56 2029.37 2098.54 2028.22 2101.32C2027.08 2104.11 2025.4 2106.63 2023.28 2108.76C2021.16 2110.89 2018.65 2112.58 2015.88 2113.73C2013.12 2114.89 2010.15 2115.48 2007.16 2115.48V2115.48ZM2029.96 2607.55H1824.65V2551.41C1824.65 2545.33 1827.05 2539.5 1831.33 2535.2C1835.6 2530.89 1841.4 2528.48 1847.45 2528.48H2007.16C2013.21 2528.48 2019.01 2530.89 2023.28 2535.2C2027.56 2539.5 2029.96 2545.33 2029.96 2551.41V2607.55Z" fill="#E45E47"/>
<path d="M1864.21 2115.48H1990.41V2528.48H1864.21V2115.48Z" fill="#F5C845"/>
<path d="M2596.98 2115.48H2437.26C2431.22 2115.48 2425.42 2113.06 2421.14 2108.76C2416.87 2104.46 2414.46 2098.63 2414.46 2092.55V2036.41H2619.77V2092.55C2619.77 2095.56 2619.18 2098.54 2618.04 2101.32C2616.89 2104.11 2615.21 2106.63 2613.1 2108.76C2610.98 2110.89 2608.47 2112.58 2605.7 2113.73C2602.93 2114.89 2599.97 2115.48 2596.98 2115.48V2115.48ZM2619.78 2607.55H2414.47V2551.41C2414.47 2545.33 2416.87 2539.5 2421.15 2535.2C2425.42 2530.89 2431.22 2528.48 2437.27 2528.48H2596.98C2603.03 2528.48 2608.83 2530.89 2613.1 2535.2C2617.38 2539.5 2619.78 2545.33 2619.78 2551.41V2607.55H2619.78Z" fill="#E45E47"/>
<path d="M2454.02 2115.48H2580.22V2528.48H2454.02V2115.48Z" fill="#F5C845"/>
<path d="M2222.21 2499.06C2319.44 2499.06 2398.27 2419.78 2398.27 2321.98C2398.27 2224.18 2319.44 2144.9 2222.21 2144.9C2124.98 2144.9 2046.16 2224.18 2046.16 2321.98C2046.16 2419.78 2124.98 2499.06 2222.21 2499.06Z" fill="#F5C845"/>
<path d="M2193.64 2283.43C2198.21 2260.68 2234.76 2265.49 2250.86 2275.78C2263.91 2285.4 2279.57 2266.37 2264.78 2254.33C2256.56 2247.98 2245.82 2243.97 2234.44 2242.32V2229.82C2234.44 2226.56 2233.16 2223.42 2230.86 2221.12C2228.57 2218.81 2225.45 2217.51 2222.21 2217.51C2218.96 2217.51 2215.85 2218.81 2213.56 2221.12C2211.26 2223.42 2209.97 2226.56 2209.97 2229.82V2242.44C2187.97 2245.92 2168.67 2258.65 2166.01 2281.24C2159.27 2343.39 2249.77 2323.92 2252.6 2356.3C2249.33 2387.37 2203.43 2378.18 2185.59 2365.93C2178.19 2359.8 2171.89 2361.77 2166.23 2367.46C2162.31 2373.37 2162.1 2383 2169.27 2388.91C2179.03 2397.01 2194.07 2402.32 2209.97 2403.92V2416.57C2209.97 2419.83 2211.26 2422.96 2213.56 2425.27C2215.85 2427.58 2218.96 2428.88 2222.21 2428.88C2225.45 2428.88 2228.57 2427.58 2230.86 2425.27C2233.16 2422.96 2234.44 2419.83 2234.44 2416.57V2403.32C2258.96 2399.46 2280.1 2385.25 2280.87 2356.96C2282.4 2298.75 2187.77 2319.32 2193.64 2283.43Z" fill="white"/>
</g>
<g clip-path="url(#clip11_1_916)">
<path d="M793.101 2713.89H1518.01C1552.55 2713.89 1580.55 2685.6 1580.55 2650.71V2360.4C1580.55 2325.51 1552.55 2297.22 1518.01 2297.22H793.101C758.558 2297.22 730.555 2325.51 730.555 2360.4V2650.72C730.555 2685.61 758.558 2713.89 793.101 2713.89V2713.89Z" fill="#F5C845"/>
<path d="M1520.09 2430.53V2580.59C1480.61 2580.59 1448.58 2612.94 1448.58 2652.82H862.526C862.526 2612.94 830.502 2580.59 791.016 2580.59V2430.53C830.502 2430.53 862.526 2398.18 862.526 2358.29H1448.58C1448.58 2398.18 1480.61 2430.53 1520.09 2430.53V2430.53Z" fill="#E45E47"/>
<path d="M1155.56 2586.06C1185.34 2586.06 1209.49 2550.02 1209.49 2505.56C1209.49 2461.1 1185.34 2425.05 1155.56 2425.05C1125.77 2425.05 1101.62 2461.1 1101.62 2505.56C1101.62 2550.02 1125.77 2586.06 1155.56 2586.06Z" fill="white"/>
<path d="M1341.51 2534.52C1364.91 2534.52 1383.89 2521.55 1383.89 2505.56C1383.89 2489.56 1364.91 2476.59 1341.51 2476.59C1318.11 2476.59 1299.13 2489.56 1299.13 2505.56C1299.13 2521.55 1318.11 2534.52 1341.51 2534.52Z" fill="white"/>
<path d="M969.604 2534.52C993.008 2534.52 1011.98 2521.55 1011.98 2505.56C1011.98 2489.56 993.008 2476.59 969.604 2476.59C946.199 2476.59 927.227 2489.56 927.227 2505.56C927.227 2521.55 946.199 2534.52 969.604 2534.52Z" fill="white"/>
</g>
<defs>
<clipPath id="clip0_1_916">
<rect width="2136.11" height="1547.22" fill="white" transform="translate(391.668 883.333)"/>
</clipPath>
<clipPath id="clip1_1_916">
<rect width="466.667" height="466.667" fill="white" transform="translate(1372.22 319.444)"/>
</clipPath>
<clipPath id="clip2_1_916">
<rect width="544.444" height="138.889" fill="white" transform="matrix(-1 0 0 1 1288.89 311.111)"/>
</clipPath>
<clipPath id="clip3_1_916">
<rect width="466.667" height="466.667" fill="white" transform="translate(158.332 1191.67)"/>
</clipPath>
<clipPath id="clip4_1_916">
<rect width="119.444" height="119.444" fill="white" transform="translate(1972.22 486.111)"/>
</clipPath>
<clipPath id="clip5_1_916">
<rect width="466.667" height="466.667" fill="white" transform="translate(158.332 1780.56)"/>
</clipPath>
<clipPath id="clip6_1_916">
<rect width="1088.89" height="636.111" fill="white" transform="translate(1755.55 1194.44)"/>
</clipPath>
<clipPath id="clip7_1_916">
<rect width="88.8889" height="88.8889" fill="white" transform="translate(202.777 1652.78)"/>
</clipPath>
<clipPath id="clip8_1_916">
<rect width="916.667" height="191.667" fill="white" transform="translate(180.555 541.667)"/>
</clipPath>
<clipPath id="clip9_1_916">
<rect width="947.222" height="1425" fill="white" transform="translate(691.668 794.444)"/>
</clipPath>
<clipPath id="clip10_1_916">
<rect width="911.111" height="963.889" fill="white" transform="translate(1766.67 1752.78)"/>
</clipPath>
<clipPath id="clip11_1_916">
<rect width="850" height="416.667" fill="white" transform="translate(730.555 2297.22)"/>
</clipPath>
</defs>
</svg>
