<svg width="251" height="376" viewBox="0 0 251 376" fill="none" xmlns="http://www.w3.org/2000/svg">
<g clip-path="url(#clip0_1_1987)">
<path d="M203.907 105.876C211.051 128.328 215.139 160.043 212.24 193.625C210.575 213.179 206.534 233.39 199.366 252.763H192.527H58.4687H51.6298C44.4631 233.39 40.4207 213.18 38.7558 193.625C35.857 160.043 39.9225 128.328 47.0782 105.865C63.1446 55.3989 97.6561 19.6206 115.036 4.02922C120.991 -1.31524 130.004 -1.31524 135.959 4.02922C153.34 19.6206 187.851 55.3999 203.907 105.876V105.876Z" fill="#E45E47"/>
<path d="M38.7585 193.625C40.4233 213.18 44.4648 233.39 51.6325 252.763C56.603 266.203 63.0912 279.258 71.3454 291.407C71.3454 291.407 71.3344 291.418 71.3454 291.43L37.1627 316.441C32.6562 319.747 26.8477 320.506 21.6396 318.491C16.4194 316.464 12.6376 312.003 11.529 306.523L0.488257 252.389C-0.984174 245.165 0.907234 237.817 5.70842 232.224L38.7585 193.625Z" fill="white"/>
<path d="M212.242 193.625L245.281 232.212C250.093 237.817 251.984 245.165 250.512 252.389L239.473 306.522C238.827 309.727 237.265 312.579 235.034 314.811C233.461 316.384 231.535 317.652 229.362 318.49C224.154 320.506 218.345 319.747 213.839 316.44L179.656 291.429C179.667 291.418 179.656 291.406 179.656 291.406C187.91 279.257 194.399 266.202 199.369 252.762C206.535 233.39 210.577 213.179 212.242 193.625V193.625Z" fill="white"/>
<path d="M199.37 252.763C194.4 266.203 187.911 279.258 179.657 291.407C179.657 291.407 179.668 291.418 179.657 291.43C178.933 292.495 178.197 293.57 177.438 294.623C174.505 298.711 169.75 301.112 164.722 301.112L86.2685 301.123C81.2408 301.123 76.4968 298.711 73.5649 294.623C72.8062 293.571 72.0704 292.495 71.3458 291.431C71.3347 291.42 71.3458 291.408 71.3458 291.408C63.0915 279.259 56.6034 266.204 51.6328 252.764H58.4718H192.53H199.37V252.763Z" fill="#F5C845"/>
<path d="M89.6504 354.164C84.9695 354.164 81.1797 350.374 81.1797 345.694V325.656C81.1797 320.975 84.9795 317.175 89.6504 317.185C94.3203 317.174 98.1212 320.975 98.1212 325.656V345.694C98.1212 348.034 97.176 350.16 95.6414 351.695C94.1058 353.231 91.9909 354.164 89.6504 354.164V354.164Z" fill="white"/>
<path d="M133.972 325.646V367.508C133.972 369.849 133.028 371.975 131.492 373.509C129.956 375.045 127.831 375.989 125.502 375.978C120.821 375.978 117.031 372.188 117.031 367.507V325.645C117.031 320.964 120.821 317.174 125.502 317.174C130.183 317.175 133.972 320.965 133.972 325.646Z" fill="white"/>
<path d="M169.819 325.656V345.695C169.819 348.035 168.874 350.161 167.339 351.696C165.803 353.231 163.688 354.164 161.349 354.164C156.668 354.164 152.878 350.374 152.878 345.694L152.867 325.645C152.878 320.975 156.667 317.185 161.338 317.174C166.018 317.175 169.819 320.976 169.819 325.656V325.656Z" fill="white"/>
<path d="M125.503 84.2361C137.432 84.2361 148.657 88.88 157.079 97.3186C165.789 106.029 170.146 117.479 170.146 128.911C170.146 140.344 165.79 151.794 157.079 160.504C148.657 168.927 137.431 173.586 125.503 173.586C113.574 173.586 102.349 168.927 93.91 160.504C76.4883 143.082 76.4883 114.74 93.91 97.3186C102.349 88.88 113.574 84.2361 125.503 84.2361V84.2361Z" fill="white"/>
<path d="M125.497 105.045C131.871 105.045 137.86 107.525 142.367 112.032C151.678 121.344 151.678 136.487 142.367 145.784C137.86 150.304 131.872 152.785 125.497 152.785C119.123 152.785 113.12 150.304 108.614 145.784C103.965 141.135 101.641 135.033 101.641 128.914C101.641 122.797 103.965 116.694 108.614 112.031C113.12 107.525 119.123 105.045 125.497 105.045V105.045Z" fill="black"/>
</g>
<defs>
<clipPath id="clip0_1_1987">
<rect width="251" height="376" fill="white"/>
</clipPath>
</defs>
</svg>
