<svg width="333" height="455" viewBox="0 0 333 455" fill="none" xmlns="http://www.w3.org/2000/svg">
<g clip-path="url(#clip0_1_2220)">
<path d="M333.001 124.874V141.745C312.261 141.745 295.469 158.565 295.469 179.277V124.874H333.001Z" fill="black"/>
<path d="M74.3672 74.2074H295.46V124.874H74.3672V74.2074Z" fill="#E45E47"/>
<path d="M295.53 64.6083V74.2034H74.3672V64.6083C74.3672 45.375 89.9671 29.7741 109.201 29.7741H260.622C279.855 29.7741 295.456 45.375 295.456 64.6083H295.53Z" fill="#F5C845"/>
<path d="M295.466 153.52V429.537H74.3672V153.531L295.466 153.52Z" fill="#F5C845"/>
<path d="M314.938 440.823V454.736H54.9375V440.823C54.9375 434.593 59.9727 429.532 66.2287 429.532H303.647C309.877 429.532 314.938 434.594 314.938 440.823Z" fill="black"/>
<path d="M28.6813 159.707V344.874C28.6813 348.274 31.433 351.052 34.8332 351.052H74.3643V379.706H34.8332C15.5999 379.706 0 364.106 0 344.873V159.707C0 140.474 15.5999 124.874 34.8332 124.874H74.3643V153.529H34.8332C31.433 153.529 28.6813 156.307 28.6813 159.707V159.707Z" fill="black"/>
<path d="M74.3672 351.051H74.3932V379.706H74.3672V351.051Z" fill="black"/>
<path d="M295.485 124.874L295.459 153.529H74.3672V124.874H295.485Z" fill="#2724F2"/>
<path d="M253.15 351.051V366.495C253.15 373.788 247.259 379.706 239.965 379.706H129.938C122.644 379.706 116.727 373.788 116.727 366.495V351.051H172.143V153.529H197.709V351.051H253.15Z" fill="black"/>
<path d="M171.336 13.865H198.511V29.7611H171.336V13.865Z" fill="black"/>
<path d="M198.511 13.865H171.336C171.335 6.36423 177.409 0.264343 184.91 0.264343C192.411 0.264343 198.511 6.36423 198.511 13.865Z" fill="#F5C845"/>
<path d="M111.57 74.2074H115.067V124.874H111.57V74.2074Z" fill="white"/>
<path d="M159.32 74.2074H162.817V124.874H159.32V74.2074Z" fill="white"/>
<path d="M207.078 74.2074H210.574V124.874H207.078V74.2074Z" fill="white"/>
<path d="M254.828 74.2074H258.324V124.874H254.828V74.2074Z" fill="white"/>
</g>
<defs>
<clipPath id="clip0_1_2220">
<rect width="333" height="455" fill="white"/>
</clipPath>
</defs>
</svg>
