<svg width="130" height="341" viewBox="0 0 130 341" fill="none" xmlns="http://www.w3.org/2000/svg">
<g clip-path="url(#clip0_1_2168)">
<path d="M37.1328 100.284H92.8694V246.521H37.1328V100.284Z" fill="#2724F2"/>
<path d="M92.8672 100.284H129.998V246.521H92.8672V100.284Z" fill="#F5C845"/>
<path d="M0 246.523H129.99L70.7399 337.748C68.0385 341.906 61.9515 341.906 59.2501 337.748L0 246.523Z" fill="white"/>
<path d="M0 100.284H37.1307V246.521H0V100.284Z" fill="#F5C845"/>
<path d="M0 78.6669V65.1248C0 29.2293 29.0985 0.130798 64.994 0.130798H64.996C100.892 0.130798 129.99 29.2293 129.99 65.1248V78.6669H0Z" fill="#E45E47"/>
<path d="M0 100.284V78.6599H129.998V100.284" fill="black"/>
<path d="M40.2031 308.452H89.7637L70.7348 337.75C68.0344 341.907 61.9485 341.908 59.2461 337.752L40.2031 308.452Z" fill="black"/>
</g>
<defs>
<clipPath id="clip0_1_2168">
<rect width="130" height="341" fill="white"/>
</clipPath>
</defs>
</svg>
