<svg width="89" height="177" viewBox="0 0 89 177" fill="none" xmlns="http://www.w3.org/2000/svg">
<g clip-path="url(#clip0_1_1914)">
<path d="M50.8574 134.045C50.338 134.045 49.8346 133.776 49.5564 133.294L36.8423 111.273C36.4269 110.554 36.6741 109.636 37.3917 109.222C38.1103 108.808 39.028 109.054 39.4423 109.771L52.1565 131.793C52.5718 132.512 52.3246 133.429 51.607 133.844C51.3699 133.98 51.1116 134.045 50.8574 134.045Z" fill="black"/>
<path d="M50.8548 132.544H76.2841L88.9982 154.565L76.2841 176.587H50.8548L38.1406 154.565L50.8548 132.544Z" fill="#E45E47"/>
<path d="M38.1409 67.9801C37.8867 67.9801 37.6284 67.9151 37.3913 67.779C36.6737 67.3646 36.4275 66.4459 36.8418 65.7283L49.556 43.7068C49.9713 42.9892 50.889 42.742 51.6066 43.1573C52.3242 43.5717 52.5704 44.4904 52.156 45.208L39.4419 67.2285C39.1637 67.7109 38.6593 67.9801 38.1409 67.9801Z" fill="black"/>
<path d="M76.2841 0.413239H50.8548L38.1406 22.4348L50.8548 44.4564H76.2841L88.9982 22.4348L76.2841 0.413239Z" fill="#E45E47"/>
<path d="M12.7141 66.4779H38.1424L50.8566 88.5005L38.1424 110.522H12.7141L0 88.5005L12.7141 66.4779Z" fill="#E45E47"/>
</g>
<defs>
<clipPath id="clip0_1_1914">
<rect width="89" height="177" fill="white"/>
</clipPath>
</defs>
</svg>
