<svg width="117" height="117" viewBox="0 0 117 117" fill="none" xmlns="http://www.w3.org/2000/svg">
<g clip-path="url(#clip0_1_2256)">
<path d="M58.5005 117.001C90.8094 117.001 117.001 90.8094 117.001 58.5005C117.001 26.1916 90.8094 0 58.5005 0C26.1916 0 0 26.1916 0 58.5005C0 90.8094 26.1916 117.001 58.5005 117.001Z" fill="#2724F2"/>
<path d="M89.9302 38.6722C87.9183 39.5822 85.6921 40.1342 83.5202 40.4992C84.5509 40.3252 86.0641 38.4601 86.6714 37.7049C87.5965 36.5547 88.3657 35.2425 88.7981 33.8257C88.8544 33.7151 88.8946 33.5764 88.784 33.4929C88.6442 33.4376 88.5547 33.4658 88.4441 33.5211C86.0209 34.8202 83.5132 35.7613 80.8446 36.429C80.6244 36.4843 80.4595 36.429 80.3208 36.2902C80.0996 36.0408 79.8914 35.8046 79.6571 35.6115C78.536 34.6563 77.3324 33.9092 75.976 33.3562C74.1943 32.6302 72.2487 32.3225 70.3302 32.4472C68.463 32.5689 66.631 33.0948 64.9749 33.9595C63.3149 34.8272 61.8338 36.0338 60.6534 37.4898C59.4337 38.996 58.5348 40.7727 58.0733 42.658C57.6288 44.4759 57.665 46.2757 57.9365 48.1138C57.9767 48.4195 57.9496 48.4597 57.6741 48.4195C47.2371 46.866 38.5868 43.1316 31.5625 35.1289C31.2578 34.781 31.0929 34.781 30.8425 35.155C27.7688 39.7612 29.2599 47.1616 33.0989 50.7995C33.6117 51.2851 34.1375 51.7687 34.7036 52.2112C34.4975 52.2534 31.9425 51.9769 29.6651 50.7995C29.3604 50.6064 29.2076 50.717 29.1795 51.0639C29.1513 51.5616 29.1945 52.0191 29.2629 52.5591C29.8521 57.2286 33.0858 61.5472 37.515 63.2324C38.0409 63.4536 38.622 63.6476 39.1881 63.7452C38.1796 63.9664 37.1399 64.1242 34.2471 63.898C33.8872 63.8286 33.7494 64.0096 33.8872 64.3545C36.062 70.2808 40.7547 72.0445 44.2699 73.049C44.7404 73.1314 45.211 73.1314 45.6836 73.242C45.6544 73.2853 45.6263 73.2853 45.5991 73.3255C44.4338 75.1032 40.3917 76.4254 38.5084 77.083C35.0857 78.2805 31.3574 78.8175 27.7396 78.4615C27.1604 78.3761 27.0388 78.3831 26.8819 78.4615C26.723 78.5591 26.8618 78.6978 27.0478 78.8476C27.7818 79.3333 28.5299 79.7626 29.2911 80.1779C31.5886 81.3955 33.9847 82.3658 36.4894 83.0576C49.426 86.6301 63.9986 84.0048 73.7127 74.3541C81.3403 66.7757 84.0149 56.3226 84.0149 45.8585C84.0149 45.4492 84.4986 45.223 84.7851 45.0068C86.77 43.5157 88.3707 41.7309 89.8518 39.738C90.1836 39.2906 90.1877 38.8934 90.1877 38.7295C90.1877 38.7014 90.1877 38.6752 90.1877 38.6752C90.1907 38.5043 90.1866 38.5546 89.9302 38.6722V38.6722Z" fill="white"/>
</g>
<defs>
<clipPath id="clip0_1_2256">
<rect width="117" height="117" fill="white"/>
</clipPath>
</defs>
</svg>
