<svg width="153" height="187" viewBox="0 0 153 187" fill="none" xmlns="http://www.w3.org/2000/svg">
<g clip-path="url(#clip0_1_2061)">
<path d="M126.32 76.8813V175.827C126.32 181.998 121.318 187 115.147 187H11.3607C5.18971 187 0.1875 181.998 0.1875 175.827V37.9413C0.1875 31.7704 5.18971 26.7682 11.3607 26.7682H76.1292V76.8813H126.32Z" fill="#2724F2"/>
<path d="M126.311 76.9153H76.1016V26.7742L126.311 76.9153Z" fill="black"/>
<path d="M152.813 50.1132V149.059C152.813 155.23 147.81 160.232 141.639 160.232H37.8529C31.6819 160.232 26.6797 155.23 26.6797 149.059V11.1732C26.6797 5.00221 31.6819 0 37.8529 0H102.621V50.1132H152.813Z" fill="white"/>
<path d="M152.813 50.1132V149.059C152.813 155.23 147.81 160.232 141.639 160.232H37.8529C31.6819 160.232 26.6797 155.23 26.6797 149.059V11.1732C26.6797 5.00221 31.6819 0 37.8529 0H102.621V50.1132H152.813Z" fill="#F5C845"/>
<path d="M152.803 50.1472H102.594V0.0059967L152.803 50.1472Z" fill="black"/>
<path d="M43.6094 45.7564H85.6944V50.1142H43.6094V45.7564Z" fill="black"/>
<path d="M43.6094 67.4143H135.887V71.7721H43.6094V67.4143Z" fill="black"/>
<path d="M43.6094 89.0722H135.887V93.43H43.6094V89.0722Z" fill="black"/>
<path d="M43.6094 110.73H135.887V115.088H43.6094V110.73Z" fill="black"/>
<path d="M43.6094 132.388H135.887V136.746H43.6094V132.388Z" fill="black"/>
</g>
<defs>
<clipPath id="clip0_1_2061">
<rect width="153" height="187" fill="white"/>
</clipPath>
</defs>
</svg>
