<svg width="209" height="235" viewBox="0 0 209 235" fill="none" xmlns="http://www.w3.org/2000/svg">
<g clip-path="url(#clip0_1_2014)">
<path d="M120.125 195.478H82.7024C70.809 195.478 61.1328 185.801 61.1328 173.908V112.271C61.1328 111.44 61.806 110.766 62.6377 110.766C63.4693 110.766 64.1425 111.44 64.1425 112.271V173.908C64.1425 184.142 72.4684 192.468 82.7024 192.468H120.125C120.957 192.468 121.63 193.142 121.63 193.973C121.63 194.803 120.956 195.478 120.125 195.478V195.478Z" fill="black"/>
<path d="M197.319 235H138.456C132.051 235 126.859 229.808 126.859 223.404V164.541C126.859 158.136 132.051 152.944 138.456 152.944H197.319C203.723 152.944 208.915 158.136 208.915 164.541V223.403C208.915 229.808 203.723 235 197.319 235Z" fill="#2724F2"/>
<path d="M167.888 215.041C179.524 215.041 188.956 205.608 188.956 193.973C188.956 182.337 179.524 172.905 167.888 172.905C156.253 172.905 146.82 182.337 146.82 193.973C146.82 205.608 156.253 215.041 167.888 215.041Z" fill="white"/>
<path d="M126.865 15.0485V90.4819C126.865 98.7987 120.133 105.53 111.816 105.53H15.1345C6.82768 105.53 0.0859375 98.7987 0.0859375 90.4819V15.0485C0.0859375 6.73171 6.82768 0 15.1345 0H111.816C120.133 0 126.865 6.73171 126.865 15.0485Z" fill="#E45E47"/>
<path d="M126.865 15.0485V23.9071H0.0859375V15.0485C0.0859375 6.73171 6.82768 0 15.1345 0H111.816C120.133 0 126.865 6.73171 126.865 15.0485V15.0485Z" fill="black"/>
<path d="M126.865 72.253V90.4818C126.865 98.7987 120.133 105.53 111.816 105.53H15.1345C6.82768 105.53 0.0859375 98.7987 0.0859375 90.4818V87.7932L27.705 60.1741L52.3345 84.8035L95.8749 41.2631L126.865 72.253Z" fill="white"/>
<path d="M27.7046 49.614C31.6103 49.614 34.7764 46.4479 34.7764 42.5422C34.7764 38.6366 31.6103 35.4704 27.7046 35.4704C23.799 35.4704 20.6328 38.6366 20.6328 42.5422C20.6328 46.4479 23.799 49.614 27.7046 49.614Z" fill="white"/>
<path d="M62.6314 119.012C66.3542 119.012 69.3721 115.994 69.3721 112.271C69.3721 108.548 66.3542 105.53 62.6314 105.53C58.9086 105.53 55.8906 108.548 55.8906 112.271C55.8906 115.994 58.9086 119.012 62.6314 119.012Z" fill="black"/>
<path d="M120.124 200.713C123.846 200.713 126.864 197.695 126.864 193.973C126.864 190.25 123.846 187.232 120.124 187.232C116.401 187.232 113.383 190.25 113.383 193.973C113.383 197.695 116.401 200.713 120.124 200.713Z" fill="black"/>
</g>
<defs>
<clipPath id="clip0_1_2014">
<rect width="209" height="235" fill="white"/>
</clipPath>
</defs>
</svg>
