<svg width="579" height="437" viewBox="0 0 579 437" fill="none" xmlns="http://www.w3.org/2000/svg">
<g clip-path="url(#clip0_1_1726)">
<path d="M462.303 106.738V132.732H0V106.738C0 94.1793 10.1815 83.9978 22.7404 83.9978H439.563C452.122 83.9978 462.303 94.1793 462.303 106.738V106.738Z" fill="black"/>
<path d="M462.307 132.732V414.196C462.307 426.755 452.126 436.937 439.567 436.937H22.7404C10.1815 436.938 0 426.756 0 414.197V132.732H462.307Z" fill="#2724F2"/>
<path d="M41.4669 114.746C44.991 114.746 47.8479 111.89 47.8479 108.365C47.8479 104.841 44.991 101.984 41.4669 101.984C37.9428 101.984 35.0859 104.841 35.0859 108.365C35.0859 111.89 37.9428 114.746 41.4669 114.746Z" fill="white"/>
<path d="M73.3497 114.746C76.8738 114.746 79.7307 111.89 79.7307 108.365C79.7307 104.841 76.8738 101.984 73.3497 101.984C69.8256 101.984 66.9688 104.841 66.9688 108.365C66.9688 111.89 69.8256 114.746 73.3497 114.746Z" fill="white"/>
<path d="M578.999 22.8036V48.7975H116.695V22.8036C116.695 10.2437 126.877 0.0621643 139.436 0.0621643H556.258C568.818 0.0621643 578.999 10.2437 578.999 22.8036V22.8036Z" fill="black"/>
<path d="M578.995 48.7975V330.262C578.995 342.821 568.813 353.002 556.255 353.002H139.428C126.869 353.002 116.688 342.821 116.688 330.262V48.7975H578.995Z" fill="#F5C845"/>
<path d="M161.74 30.8108C165.264 30.8108 168.121 27.9539 168.121 24.4298C168.121 20.9057 165.264 18.0489 161.74 18.0489C158.216 18.0489 155.359 20.9057 155.359 24.4298C155.359 27.9539 158.216 30.8108 161.74 30.8108Z" fill="white"/>
<path d="M193.623 30.8108C197.147 30.8108 200.004 27.9539 200.004 24.4298C200.004 20.9057 197.147 18.0489 193.623 18.0489C190.099 18.0489 187.242 20.9057 187.242 24.4298C187.242 27.9539 190.099 30.8108 193.623 30.8108Z" fill="white"/>
<path d="M225.498 30.8108C229.022 30.8108 231.879 27.9539 231.879 24.4298C231.879 20.9057 229.022 18.0489 225.498 18.0489C221.974 18.0489 219.117 20.9057 219.117 24.4298C219.117 27.9539 221.974 30.8108 225.498 30.8108Z" fill="white"/>
<path d="M284.664 0.0621643H287.982V48.7975H284.664V0.0621643Z" fill="white"/>
<path d="M355.297 0.0621643H358.614V48.7975H355.297V0.0621643Z" fill="white"/>
<path d="M425.93 0.0621643H429.247V48.7975H425.93V0.0621643Z" fill="white"/>
<path d="M496.562 0.0621643H499.88V48.7975H496.562V0.0621643Z" fill="white"/>
<path d="M579.002 48.7955V330.259C579.002 342.818 568.815 353.004 556.255 353.004H389.984V48.7955H579.002Z" fill="#E45E47"/>
<path d="M349.234 111.325H160.583C157.699 111.325 155.359 108.987 155.359 106.101C155.359 103.217 157.698 100.877 160.583 100.877H349.234C352.118 100.877 354.457 103.216 354.457 106.101C354.457 108.987 352.119 111.325 349.234 111.325Z" fill="white"/>
<path d="M349.234 149.243H160.583C157.699 149.243 155.359 146.904 155.359 144.019C155.359 141.134 157.698 138.795 160.583 138.795H349.234C352.118 138.795 354.457 141.133 354.457 144.019C354.457 146.904 352.119 149.243 349.234 149.243Z" fill="#E45E47"/>
<path d="M349.234 187.16H160.583C157.699 187.16 155.359 184.822 155.359 181.936C155.359 179.052 157.698 176.713 160.583 176.713H349.234C352.118 176.713 354.457 179.051 354.457 181.936C354.457 184.822 352.119 187.16 349.234 187.16Z" fill="white"/>
<path d="M349.234 225.078H160.583C157.699 225.078 155.359 222.74 155.359 219.854C155.359 216.97 157.698 214.63 160.583 214.63H349.234C352.118 214.63 354.457 216.969 354.457 219.854C354.457 222.74 352.119 225.078 349.234 225.078Z" fill="#E45E47"/>
<path d="M349.234 262.996H160.583C157.699 262.996 155.359 260.657 155.359 257.772C155.359 254.887 157.698 252.548 160.583 252.548H349.234C352.118 252.548 354.457 254.886 354.457 257.772C354.457 260.657 352.119 262.996 349.234 262.996Z" fill="white"/>
<path d="M349.234 300.913H160.583C157.699 300.913 155.359 298.575 155.359 295.69C155.359 292.805 157.698 290.466 160.583 290.466H349.234C352.118 290.466 354.457 292.804 354.457 295.69C354.457 298.575 352.119 300.913 349.234 300.913Z" fill="#E45E47"/>
<path d="M76.3821 264.079H40.3097C37.4253 264.079 35.0859 261.74 35.0859 258.855C35.0859 255.971 37.4243 253.631 40.3097 253.631H76.3811C79.2656 253.631 81.6049 255.97 81.6049 258.855C81.6049 261.74 79.2666 264.079 76.3821 264.079V264.079Z" fill="white"/>
<path d="M76.3821 308.541H40.3097C37.4253 308.541 35.0859 306.202 35.0859 303.317C35.0859 300.432 37.4243 298.093 40.3097 298.093H76.3811C79.2656 298.093 81.6049 300.431 81.6049 303.317C81.6049 306.202 79.2666 308.541 76.3821 308.541V308.541Z" fill="white"/>
<path d="M76.3821 353.002H40.3097C37.4253 353.002 35.0859 350.664 35.0859 347.778C35.0859 344.894 37.4243 342.555 40.3097 342.555H76.3821C79.2666 342.555 81.6059 344.893 81.6059 347.778C81.6049 350.664 79.2666 353.002 76.3821 353.002Z" fill="white"/>
<path d="M215.3 397.464H40.3097C37.4253 397.464 35.0859 395.126 35.0859 392.24C35.0859 389.356 37.4243 387.016 40.3097 387.016H215.299C218.183 387.016 220.523 389.355 220.523 392.24C220.523 395.126 218.184 397.464 215.3 397.464Z" fill="white"/>
</g>
<defs>
<clipPath id="clip0_1_1726">
<rect width="579" height="437" fill="white"/>
</clipPath>
</defs>
</svg>
