<svg width="355" height="268" viewBox="0 0 355 268" fill="none" xmlns="http://www.w3.org/2000/svg">
<g clip-path="url(#clip0_1_1453)">
<path d="M58.1579 147.353C57.329 147.353 56.6562 146.68 56.6562 145.851V80.4788C56.6562 67.1212 67.5232 56.2543 80.8808 56.2543H111.408C112.237 56.2543 112.91 56.927 112.91 57.7559C112.91 58.5849 112.237 59.2576 111.408 59.2576H80.8808C69.179 59.2576 59.6595 68.778 59.6595 80.4788V145.851C59.6595 146.68 58.9868 147.353 58.1579 147.353V147.353Z" fill="black"/>
<path d="M135.794 115.172H337.588C347.204 115.172 354.999 107.376 354.999 97.7608V17.7501C354.999 8.13458 347.205 0.339035 337.588 0.339035H135.794C126.178 0.339035 118.383 8.13458 118.383 17.7501V97.7608C118.383 107.376 126.178 115.172 135.794 115.172Z" fill="#F5C845"/>
<path d="M338.166 37.0773V78.4346C327.174 78.4346 318.26 87.3494 318.26 98.3414H155.118C155.118 87.3494 146.203 78.4346 135.211 78.4346V37.0773C146.203 37.0773 155.118 28.1625 155.118 17.1705H318.26C318.26 28.1625 327.174 37.0773 338.166 37.0773V37.0773Z" fill="#E45E47"/>
<path d="M236.693 79.9423C244.985 79.9423 251.707 70.0087 251.707 57.755C251.707 45.5012 244.985 35.5676 236.693 35.5676C228.401 35.5676 221.68 45.5012 221.68 57.755C221.68 70.0087 228.401 79.9423 236.693 79.9423Z" fill="white"/>
<path d="M288.461 65.7377C294.976 65.7377 300.258 62.1637 300.258 57.755C300.258 53.3462 294.976 49.7722 288.461 49.7722C281.946 49.7722 276.664 53.3462 276.664 57.755C276.664 62.1637 281.946 65.7377 288.461 65.7377Z" fill="white"/>
<path d="M184.93 65.7377C191.445 65.7377 196.727 62.1637 196.727 57.755C196.727 53.3462 191.445 49.7722 184.93 49.7722C178.414 49.7722 173.133 53.3462 173.133 57.755C173.133 62.1637 178.414 65.7377 184.93 65.7377Z" fill="white"/>
<path d="M17.4111 267.661H219.205C228.821 267.661 236.616 259.865 236.616 250.25V170.239C236.616 160.624 228.821 152.828 219.205 152.828H17.4111C7.79554 152.828 0 160.624 0 170.239V250.25C0 259.865 7.79554 267.661 17.4111 267.661V267.661Z" fill="#F5C845"/>
<path d="M219.784 189.566V230.924C208.791 230.924 199.877 239.838 199.877 250.831H36.7349C36.7349 239.838 27.8202 230.924 16.8281 230.924V189.566C27.8202 189.566 36.7349 180.652 36.7349 169.66H199.877C199.877 180.652 208.791 189.566 219.784 189.566V189.566Z" fill="#E45E47"/>
<path d="M118.31 232.432C126.602 232.432 133.324 222.499 133.324 210.245C133.324 197.991 126.602 188.058 118.31 188.058C110.019 188.058 103.297 197.991 103.297 210.245C103.297 222.499 110.019 232.432 118.31 232.432Z" fill="white"/>
<path d="M170.07 218.228C176.586 218.228 181.867 214.654 181.867 210.245C181.867 205.836 176.586 202.262 170.07 202.262C163.555 202.262 158.273 205.836 158.273 210.245C158.273 214.654 163.555 218.228 170.07 218.228Z" fill="white"/>
<path d="M66.5469 218.228C73.0622 218.228 78.3439 214.654 78.3439 210.245C78.3439 205.836 73.0622 202.262 66.5469 202.262C60.0317 202.262 54.75 205.836 54.75 210.245C54.75 214.654 60.0317 218.228 66.5469 218.228Z" fill="white"/>
<path d="M111.407 64.7326C115.261 64.7326 118.385 61.6086 118.385 57.755C118.385 53.9013 115.261 50.7773 111.407 50.7773C107.554 50.7773 104.43 53.9013 104.43 57.755C104.43 61.6086 107.554 64.7326 111.407 64.7326Z" fill="black"/>
<path d="M58.1573 152.829C62.011 152.829 65.135 149.705 65.135 145.851C65.135 141.998 62.011 138.874 58.1573 138.874C54.3037 138.874 51.1797 141.998 51.1797 145.851C51.1797 149.705 54.3037 152.829 58.1573 152.829Z" fill="black"/>
</g>
<defs>
<clipPath id="clip0_1_1453">
<rect width="355" height="268" fill="white"/>
</clipPath>
</defs>
</svg>
