<svg width="163" height="209" viewBox="0 0 163 209" fill="none" xmlns="http://www.w3.org/2000/svg">
<g clip-path="url(#clip0_1_1921)">
<path d="M162.815 145.244C162.815 146.166 162.8 147.085 162.769 148.001C161.629 182.195 132.857 209 98.6438 209H64.3512C30.1376 209 1.36616 182.195 0.225706 148.001C0.194693 147.085 0.179688 146.166 0.179688 145.244C0.179688 143.439 0.231708 141.651 0.352756 139.882C2.36556 108.801 21.8533 82.4768 49.1161 70.6421V30.7142H113.879V70.6411C141.124 82.4758 160.611 108.784 162.641 139.864C162.763 141.651 162.815 143.439 162.815 145.244V145.244Z" fill="#F5C845"/>
<path d="M114.532 0H48.4655C39.9851 0 33.1094 6.87473 33.1094 15.3561C33.1094 23.8365 39.9841 30.7122 48.4655 30.7122H114.532C123.012 30.7122 129.888 23.8375 129.888 15.3561C129.888 6.87473 123.013 0 114.532 0V0Z" fill="#E45E47"/>
<path d="M162.815 145.244C162.815 146.166 162.8 147.085 162.769 148.001C161.629 182.195 132.857 209 98.6438 209H64.3512C30.1376 209 1.36616 182.195 0.225706 148.001C0.194693 147.085 0.179688 146.166 0.179688 145.244C0.179688 143.439 0.231708 141.651 0.352756 139.882C1.89737 140.559 3.68508 140.975 5.85394 140.975C18.4519 140.975 18.4519 126.988 31.068 126.988C43.667 126.988 43.684 140.975 56.282 140.975C68.88 140.975 68.881 126.988 81.496 126.988C94.095 126.988 94.095 140.975 106.71 140.975C119.309 140.975 119.309 126.988 131.924 126.988C144.505 126.988 144.523 140.975 157.121 140.975C159.29 140.975 161.095 140.559 162.639 139.865C162.763 141.651 162.815 143.439 162.815 145.244V145.244Z" fill="#2724F2"/>
</g>
<defs>
<clipPath id="clip0_1_1921">
<rect width="163" height="209" fill="white"/>
</clipPath>
</defs>
</svg>
