<svg width="122" height="149" viewBox="0 0 122 149" fill="none" xmlns="http://www.w3.org/2000/svg">
<g clip-path="url(#clip0_1_1910)">
<path d="M122 101.068C122 120.451 112.953 137.726 98.8545 148.894H23.1445C9.04693 137.726 0 120.451 0 101.068C0 99.7144 0.0391598 98.373 0.129529 97.0455C1.51318 75.6783 13.9078 57.3063 31.7114 47.5525C34.778 45.8726 36.7088 42.6826 36.7088 39.1864V16.7458H85.2901V39.1884C85.2901 42.6836 87.221 45.8737 90.2855 47.5535C108.078 57.3053 120.473 75.6663 121.868 97.0325C121.962 98.373 122 99.7144 122 101.068V101.068Z" fill="white"/>
<path d="M122 101.068C122 120.451 112.953 137.726 98.8545 148.894H23.1445C9.04693 137.726 0 120.451 0 101.068C0 99.7144 0.0391598 98.3729 0.129529 97.0455C1.28826 97.5536 2.62873 97.8659 4.25637 97.8659C13.707 97.8659 13.707 87.3741 23.1706 87.3741C32.6212 87.3741 32.6342 97.8659 42.0848 97.8659C51.5354 97.8659 51.5354 87.3741 60.999 87.3741C70.4496 87.3741 70.4496 97.8659 79.9132 97.8659C89.3638 97.8659 89.3638 87.3741 98.8274 87.3741C108.265 87.3741 108.278 97.8659 117.729 97.8659C119.356 97.8659 120.71 97.5536 121.868 97.0325C121.962 98.3729 122 99.7144 122 101.068V101.068Z" fill="#2724F2"/>
<path d="M95.7547 8.4258C95.7547 3.83104 92.0295 0.105835 87.4347 0.105835H34.57C29.9752 0.105835 26.25 3.83104 26.25 8.4258C26.25 13.0206 29.9752 16.7458 34.57 16.7458H87.4347C92.0295 16.7458 95.7547 13.0206 95.7547 8.4258Z" fill="#E45E47"/>
</g>
<defs>
<clipPath id="clip0_1_1910">
<rect width="122" height="149" fill="white"/>
</clipPath>
</defs>
</svg>
