<svg width="136" height="136" viewBox="0 0 136 136" fill="none" xmlns="http://www.w3.org/2000/svg">
<g clip-path="url(#clip0_1_1980)">
<path d="M135.994 68.007C135.994 68.8321 135.981 69.6572 135.954 70.4683C134.656 106.885 104.729 136 68.0008 136C31.2725 136 1.34685 106.885 0.0479637 70.4683C0.0208616 69.6562 0.0078125 68.8311 0.0078125 68.007C0.0078125 67.1829 0.0208616 66.3568 0.0479637 65.5327C1.34685 29.1287 31.2725 0 68.0008 0C104.729 0 134.656 29.1287 135.954 65.5317C135.981 66.3568 135.994 67.1819 135.994 68.007V68.007Z" fill="#E45E47"/>
<path d="M118.694 68.006C118.694 68.6163 118.682 69.2276 118.658 69.8379C117.688 96.9791 95.3834 118.685 68.0033 118.685C40.6223 118.685 18.3183 96.9791 17.3486 69.8379C17.3245 69.2276 17.3125 68.6163 17.3125 68.006C17.3125 67.3837 17.3245 66.7734 17.3486 66.1621C18.3183 39.0209 40.6233 17.3152 68.0033 17.3152C95.3844 17.3152 117.688 39.0209 118.658 66.1621C118.682 66.7724 118.694 67.3837 118.694 68.006Z" fill="white"/>
<path d="M83.9145 58.3115L74.6556 67.737C74.6295 67.0444 74.502 66.3899 74.2712 65.7616C74.2712 65.7234 74.2581 65.6973 74.2451 65.6592C73.5013 63.6837 71.846 62.1439 69.7812 61.5798L78.3605 52.8209C79.8742 51.2941 82.3375 51.2811 83.8763 52.7948C85.4151 54.2964 85.4282 56.7717 83.9145 58.3115V58.3115Z" fill="#2724F2"/>
<path d="M65.7715 61.7203C63.9245 62.3748 62.449 63.8243 61.7564 65.6582C61.7433 65.6963 61.7303 65.7224 61.7303 65.7606C61.4733 66.4662 61.3328 67.21 61.3328 68.005C61.3328 68.0823 61.3328 68.1586 61.3458 68.2228L42.4798 52.065C40.8768 50.6406 40.7352 48.1653 42.1716 46.5613C43.596 44.9582 46.0583 44.8167 47.6754 46.2411L65.7715 61.7203Z" fill="#2724F2"/>
<path d="M97.1202 92.4571C96.7357 92.9188 96.1837 93.1627 95.6195 93.1627C95.1839 93.1627 94.7342 93.0092 94.3749 92.701L71.6172 73.587C72.7334 72.8814 73.6187 71.8425 74.1447 70.6108L96.8763 89.7117C97.7104 90.4043 97.8128 91.636 97.1202 92.4571Z" fill="#F5C845"/>
<path d="M74.6704 68.006C74.6704 71.6879 71.6811 74.6641 67.9992 74.6641C64.3174 74.6641 61.3281 71.6879 61.3281 68.006C61.3281 67.211 61.4697 66.4662 61.7256 65.7616C61.7256 65.7234 61.7387 65.6973 61.7517 65.6592C62.7013 63.1317 65.1385 61.3359 67.9992 61.3359C70.86 61.3359 73.2972 63.1317 74.2468 65.6592C74.2598 65.6973 74.2729 65.7234 74.2729 65.7616C74.5288 66.4672 74.6704 67.211 74.6704 68.006Z" fill="#E45E47"/>
</g>
<defs>
<clipPath id="clip0_1_1980">
<rect width="136" height="136" fill="white"/>
</clipPath>
</defs>
</svg>
