<svg width="3000" height="3000" viewBox="0 0 3000 3000" fill="none" xmlns="http://www.w3.org/2000/svg">
<g clip-path="url(#clip0_1_404)">
<path d="M2130.55 1117.34V1191.14H413.895V1117.34C413.895 1081.68 442.784 1052.78 478.419 1052.78H2066.02C2101.66 1052.78 2130.55 1081.68 2130.55 1117.34Z" fill="black"/>
<path d="M2130.56 1191.14V2238.21C2130.56 2273.87 2101.67 2302.78 2066.03 2302.78H478.416C442.778 2302.78 413.889 2273.87 413.889 2238.21V1191.14H2130.56Z" fill="#2724F2"/>
<path d="M545.341 1143.7C557.34 1143.7 567.068 1133.97 567.068 1121.96C567.068 1109.95 557.34 1100.22 545.341 1100.22C533.341 1100.22 523.613 1109.95 523.613 1121.96C523.613 1133.97 533.341 1143.7 545.341 1143.7Z" fill="white"/>
<path d="M653.903 1143.7C665.903 1143.7 675.63 1133.97 675.63 1121.96C675.63 1109.95 665.903 1100.22 653.903 1100.22C641.903 1100.22 632.176 1109.95 632.176 1121.96C632.176 1133.97 641.903 1143.7 653.903 1143.7Z" fill="white"/>
<path d="M762.469 1143.7C774.469 1143.7 784.197 1133.97 784.197 1121.96C784.197 1109.95 774.469 1100.22 762.469 1100.22C750.47 1100.22 740.742 1109.95 740.742 1121.96C740.742 1133.97 750.47 1143.7 762.469 1143.7Z" fill="white"/>
<path d="M1338.49 1052.78H1347.66V1191.14H1338.49V1052.78ZM1532.41 1052.78H1541.58V1191.14H1532.41V1052.78ZM1726.33 1052.78H1735.5V1191.14H1726.33V1052.78ZM1920.26 1052.78H1929.43V1191.14H1920.26V1052.78Z" fill="white"/>
</g>
<g clip-path="url(#clip1_1_404)">
<path d="M2549.99 877.882V947.857H827.779V877.882C827.779 844.074 855.075 816.667 888.747 816.667H2489.03C2522.7 816.667 2549.99 844.074 2549.99 877.882V877.882Z" fill="black"/>
<path d="M2550 947.857V1977.67C2550 2011.48 2522.7 2038.89 2489.04 2038.89H888.742C855.073 2038.89 827.777 2011.48 827.777 1977.67V947.857H2550Z" fill="#F5C845"/>
<path d="M965.207 902.874C976.545 902.874 985.737 893.645 985.737 882.26C985.737 870.876 976.545 861.646 965.207 861.646C953.869 861.646 944.678 870.876 944.678 882.26C944.678 893.645 953.869 902.874 965.207 902.874Z" fill="white"/>
<path d="M1067.78 902.874C1079.12 902.874 1088.31 893.645 1088.31 882.26C1088.31 870.876 1079.12 861.646 1067.78 861.646C1056.44 861.646 1047.25 870.876 1047.25 882.26C1047.25 893.645 1056.44 902.874 1067.78 902.874Z" fill="white"/>
<path d="M1170.35 902.874C1181.69 902.874 1190.88 893.645 1190.88 882.26C1190.88 870.876 1181.69 861.646 1170.35 861.646C1159.02 861.646 1149.82 870.876 1149.82 882.26C1149.82 893.645 1159.02 902.874 1170.35 902.874Z" fill="white"/>
<path d="M1302.75 816.667H1312.82V947.857H1302.75V816.667ZM1507.01 816.667H1517.07V947.857H1507.01V816.667ZM1711.26 816.667H1721.33V947.857H1711.26V816.667ZM1915.52 816.667H1925.58V947.857H1915.52V816.667ZM2119.77 816.667H2129.84V947.857H2119.77V816.667ZM2324.03 816.667H2334.09V947.857H2324.03V816.667Z" fill="white"/>
<path d="M935.121 1129.72C935.121 1091.93 965.63 1061.3 1003.26 1061.3H2374.51C2412.15 1061.3 2442.66 1091.93 2442.66 1129.72C2442.66 1167.51 2412.15 1198.15 2374.51 1198.15H1003.26C965.63 1198.15 935.121 1167.51 935.121 1129.72Z" fill="#E45E47"/>
<path d="M2375.57 1897.07H1805.59C1768.54 1897.07 1738.5 1866.92 1738.5 1829.71V1347.89C1738.5 1310.69 1768.54 1280.53 1805.59 1280.53H2375.57C2412.62 1280.53 2442.65 1310.69 2442.65 1347.89V1829.71C2442.65 1866.91 2412.62 1897.07 2375.57 1897.07V1897.07Z" fill="#2724F2"/>
<path d="M1835.79 1401.44C1835.79 1395.28 1838.22 1389.37 1842.56 1385.01C1846.9 1380.65 1852.79 1378.21 1858.92 1378.21H2322.24C2328.38 1378.21 2334.26 1380.65 2338.6 1385.01C2342.94 1389.37 2345.38 1395.28 2345.38 1401.44C2345.38 1407.6 2342.94 1413.51 2338.6 1417.86C2334.26 1422.22 2328.38 1424.67 2322.24 1424.67H1858.92C1855.88 1424.67 1852.87 1424.07 1850.07 1422.9C1847.26 1421.73 1844.71 1420.02 1842.56 1417.87C1840.41 1415.71 1838.71 1413.15 1837.55 1410.33C1836.38 1407.51 1835.78 1404.49 1835.79 1401.44V1401.44Z" fill="white"/>
<path d="M1375.39 1342.82H1654.39V1353.89H1375.39V1342.82ZM1375.39 1413.59H1654.39V1424.67H1375.39V1413.59ZM1375.39 1484.37H1654.39V1495.45H1375.39V1484.37ZM1375.39 1555.16H1654.39V1566.23H1375.39V1555.16ZM1375.39 1625.94H1654.39V1637.01H1375.39V1625.94ZM1375.39 1696.72H1654.39V1707.79H1375.39V1696.72Z" fill="black"/>
<path d="M2028.31 1672.66C2029.13 1673.49 2029.6 1674.61 2029.6 1675.79C2029.6 1676.96 2029.13 1678.09 2028.31 1678.92L2019.79 1687.47C2018.97 1688.3 2017.85 1688.76 2016.68 1688.76C2015.51 1688.76 2014.39 1688.3 2013.56 1687.47L1994.58 1668.41L1984.63 1687.88C1984.37 1688.4 1983.96 1688.83 1983.46 1689.12C1982.96 1689.41 1982.38 1689.55 1981.8 1689.51C1981.23 1689.48 1980.67 1689.28 1980.2 1688.94C1979.73 1688.6 1979.37 1688.13 1979.17 1687.59L1950.86 1613.6C1950.66 1613.06 1950.61 1612.48 1950.73 1611.91C1950.84 1611.35 1951.12 1610.83 1951.52 1610.42C1951.92 1610 1952.44 1609.72 1953 1609.59C1953.56 1609.46 1954.14 1609.5 1954.68 1609.69L2028.92 1636.62C2029.45 1636.81 2029.93 1637.16 2030.27 1637.61C2030.62 1638.07 2030.83 1638.62 2030.88 1639.19C2030.93 1639.76 2030.82 1640.34 2030.55 1640.85C2030.28 1641.36 2029.88 1641.78 2029.38 1642.06L2009.29 1653.56L2028.31 1672.66ZM982.113 1129.72C982.113 1123.56 984.551 1117.65 988.89 1113.3C993.228 1108.94 999.113 1106.49 1005.25 1106.49H1488.9C1495.04 1106.49 1500.92 1108.94 1505.26 1113.3C1509.6 1117.65 1512.04 1123.56 1512.04 1129.72C1512.04 1135.88 1509.6 1141.79 1505.26 1146.15C1500.92 1150.51 1495.04 1152.95 1488.9 1152.95H1005.25C999.113 1152.95 993.228 1150.51 988.89 1146.15C984.551 1141.79 982.113 1135.88 982.113 1129.72V1129.72Z" fill="white"/>
</g>
<g clip-path="url(#clip2_1_404)">
<path d="M1377.36 2484.93H1251.92C1212.06 2484.93 1179.62 2452.67 1179.62 2413.03V2207.57C1179.62 2206.24 1180.15 2204.96 1181.1 2204.02C1182.05 2203.08 1183.33 2202.55 1184.67 2202.55C1186.01 2202.55 1187.29 2203.08 1188.23 2204.02C1189.18 2204.96 1189.71 2206.24 1189.71 2207.57V2413.03C1189.71 2447.14 1217.62 2474.89 1251.92 2474.89H1377.36C1378.7 2474.89 1379.98 2475.42 1380.93 2476.36C1381.88 2477.3 1382.41 2478.58 1382.41 2479.91C1382.41 2481.24 1381.88 2482.52 1380.93 2483.46C1379.98 2484.4 1378.7 2484.93 1377.36 2484.93V2484.93Z" fill="black"/>
<path d="M1636.13 2616.67H1438.82C1417.36 2616.67 1399.95 2599.36 1399.95 2578.01V2381.8C1399.95 2360.45 1417.36 2343.15 1438.82 2343.15H1636.13C1657.6 2343.15 1675 2360.45 1675 2381.8V2578.01C1675 2599.36 1657.6 2616.67 1636.13 2616.67Z" fill="#2724F2"/>
<path d="M1537.48 2550.14C1576.48 2550.14 1608.1 2518.69 1608.1 2479.91C1608.1 2441.12 1576.48 2409.68 1537.48 2409.68C1498.48 2409.68 1466.86 2441.12 1466.86 2479.91C1466.86 2518.69 1498.48 2550.14 1537.48 2550.14Z" fill="white"/>
<path d="M1399.96 1883.5V2134.94C1399.96 2162.66 1377.39 2185.1 1349.51 2185.1H1025.44C997.598 2185.1 975 2162.66 975 2134.94V1883.5C975 1855.77 997.598 1833.33 1025.44 1833.33H1349.51C1377.39 1833.33 1399.96 1855.77 1399.96 1883.5Z" fill="#E45E47"/>
<path d="M1399.96 1883.5V1913.02H975V1883.5C975 1855.77 997.598 1833.33 1025.44 1833.33H1349.51C1377.39 1833.33 1399.96 1855.77 1399.96 1883.5Z" fill="black"/>
<path d="M1399.96 2074.18V2134.94C1399.96 2162.66 1377.39 2185.1 1349.51 2185.1H1025.44C997.598 2185.1 975 2162.66 975 2134.94V2125.98L1067.58 2033.91L1150.13 2116.01L1296.08 1970.88L1399.96 2074.18Z" fill="white"/>
<path d="M1067.59 1998.71C1080.68 1998.71 1091.29 1988.16 1091.29 1975.14C1091.29 1962.12 1080.68 1951.57 1067.59 1951.57C1054.5 1951.57 1043.88 1962.12 1043.88 1975.14C1043.88 1988.16 1054.5 1998.71 1067.59 1998.71Z" fill="white"/>
<path d="M1184.67 2230.04C1197.15 2230.04 1207.26 2219.98 1207.26 2207.57C1207.26 2195.16 1197.15 2185.1 1184.67 2185.1C1172.19 2185.1 1162.07 2195.16 1162.07 2207.57C1162.07 2219.98 1172.19 2230.04 1184.67 2230.04Z" fill="black"/>
<path d="M1377.36 2502.38C1389.84 2502.38 1399.96 2492.32 1399.96 2479.91C1399.96 2467.5 1389.84 2457.44 1377.36 2457.44C1364.88 2457.44 1354.77 2467.5 1354.77 2479.91C1354.77 2492.32 1364.88 2502.38 1377.36 2502.38Z" fill="black"/>
</g>
<g clip-path="url(#clip3_1_404)">
<path d="M1411.59 801.764C1410.25 801.764 1408.96 801.229 1408.01 800.276C1407.06 799.323 1406.53 798.03 1406.53 796.683V642.402C1406.53 602.242 1439.12 569.568 1479.18 569.568H1770.35C1771.7 569.568 1772.99 570.103 1773.94 571.056C1774.89 572.009 1775.42 573.302 1775.42 574.649C1775.42 575.997 1774.89 577.289 1773.94 578.242C1772.99 579.195 1771.7 579.731 1770.35 579.731H1479.18C1444.71 579.731 1416.66 607.845 1416.66 642.402V796.683C1416.66 798.03 1416.13 799.323 1415.18 800.276C1414.23 801.229 1412.94 801.764 1411.59 801.764V801.764Z" fill="black"/>
<path d="M2069.45 475.238V674.026C2069.45 695.673 2051.97 713.187 2030.38 713.187H1832.09C1810.53 713.187 1793.06 695.673 1793.06 674.026V475.238C1793.06 453.625 1810.53 436.111 1832.09 436.111H2030.38C2051.97 436.111 2069.45 453.625 2069.45 475.238Z" fill="#E45E47"/>
<path d="M1944.43 615.315L1931.23 660.147L1918.05 615.315L1881.1 643.808L1896.73 599.765L1850.14 601.083L1888.61 574.642L1850.14 548.229L1896.73 549.516L1881.1 505.477L1918.05 533.997L1931.23 489.165L1944.43 533.997L1981.38 505.477L1965.72 549.516L2012.34 548.229L1973.87 574.642L2012.34 601.083L1965.72 599.765L1981.38 643.808L1944.43 615.315Z" fill="white"/>
<path d="M1770.36 597.418C1782.9 597.418 1793.06 587.227 1793.06 574.656C1793.06 562.085 1782.9 551.894 1770.36 551.894C1757.82 551.894 1747.65 562.085 1747.65 574.656C1747.65 587.227 1757.82 597.418 1770.36 597.418Z" fill="black"/>
<path d="M1411.59 819.444C1424.13 819.444 1434.3 809.254 1434.3 796.683C1434.3 784.112 1424.13 773.921 1411.59 773.921C1399.05 773.921 1388.89 784.112 1388.89 796.683C1388.89 809.254 1399.05 819.444 1411.59 819.444Z" fill="black"/>
</g>
<g clip-path="url(#clip4_1_404)">
<path d="M2746.64 1548.19V1573.71H2255.55V1548.19C2255.55 1515.47 2282.09 1488.89 2314.86 1488.89H2687.33C2720.05 1488.89 2746.64 1515.47 2746.64 1548.19Z" fill="black"/>
<path d="M2255.55 1573.71H2746.64V2275.25H2255.55V1573.71Z" fill="#E45E47"/>
<path d="M2746.64 2275.25V2300.77C2746.64 2333.53 2720.05 2360.09 2687.33 2360.09H2314.86C2282.09 2360.09 2255.55 2333.53 2255.55 2300.77V2275.25H2746.64Z" fill="#F5C845"/>
<path d="M2312.45 2146.66C2312.45 2166.54 2328.56 2182.65 2348.42 2182.65H2653.76C2673.63 2182.65 2689.74 2166.54 2689.74 2146.66C2689.74 2126.79 2673.63 2110.68 2653.76 2110.68H2348.43C2328.56 2110.68 2312.45 2126.79 2312.45 2146.66Z" fill="white"/>
<path d="M2746.63 2037.41L2846.68 2137.67C2857.41 2148.35 2865.93 2161.03 2871.75 2175.01C2877.56 2188.99 2880.55 2203.97 2880.56 2219.11V2446.92H2708.37L2701.42 2435.77C2689.07 2415.99 2682.3 2393.24 2681.85 2369.93C2681.39 2346.62 2687.26 2323.62 2698.82 2303.38L2620.42 2217.85C2605.49 2201.51 2606.03 2176.29 2621.65 2160.6C2637.84 2144.36 2664.07 2144.32 2680.3 2160.48L2746.63 2226.87" fill="black"/>
<path d="M2880.55 2446.92V2492.02C2880.55 2499.29 2877.67 2506.27 2872.52 2511.41C2867.38 2516.55 2860.41 2519.44 2853.14 2519.44H2735.79C2728.52 2519.44 2721.54 2516.55 2716.4 2511.41C2711.26 2506.27 2708.37 2499.29 2708.37 2492.02V2446.92H2880.55ZM2622.38 1976.73H2379.81C2361.18 1976.73 2346.09 1961.63 2346.09 1943V1700.36C2346.09 1681.73 2361.18 1666.63 2379.81 1666.63H2622.38C2641 1666.63 2656.1 1681.73 2656.1 1700.36V1943C2656.1 1961.62 2641 1976.73 2622.38 1976.73V1976.73Z" fill="#F5C845"/>
<path d="M2501.09 1809.9C2524.63 1809.9 2543.7 1790.82 2543.7 1767.28C2543.7 1743.74 2524.63 1724.66 2501.09 1724.66C2477.56 1724.66 2458.49 1743.74 2458.49 1767.28C2458.49 1790.82 2477.56 1809.9 2501.09 1809.9Z" fill="white"/>
<path d="M2445.09 1918.7C2424.53 1918.7 2411.22 1897.06 2420.37 1878.63C2435.12 1848.97 2465.72 1828.58 2501.1 1828.58C2536.46 1828.58 2567.07 1848.97 2581.82 1878.63C2590.97 1897.06 2577.66 1918.7 2557.1 1918.7H2445.09Z" fill="white"/>
</g>
<g clip-path="url(#clip5_1_404)">
<path d="M1865.38 2441.14L1872.21 2459.61C1872.81 2461.23 1873.75 2462.7 1874.97 2463.92C1876.19 2465.14 1877.66 2466.08 1879.27 2466.67L1897.75 2473.51C1908.15 2477.36 1908.15 2492.08 1897.75 2495.93L1879.27 2502.77C1877.66 2503.37 1876.19 2504.31 1874.97 2505.53C1873.75 2506.75 1872.81 2508.21 1872.21 2509.83L1865.38 2528.31C1861.52 2538.71 1846.81 2538.71 1842.96 2528.31L1836.12 2509.83C1835.52 2508.21 1834.58 2506.75 1833.36 2505.53C1832.14 2504.31 1830.67 2503.37 1829.06 2502.77L1810.58 2495.93C1800.18 2492.08 1800.18 2477.36 1810.58 2473.51L1829.06 2466.67C1830.67 2466.08 1832.14 2465.14 1833.36 2463.92C1834.58 2462.7 1835.52 2461.23 1836.12 2459.61L1842.96 2441.14C1846.81 2430.73 1861.52 2430.73 1865.38 2441.14V2441.14Z" fill="black"/>
</g>
<g clip-path="url(#clip6_1_404)">
<path d="M470.941 1659.76L470.941 1468.01L974.03 1468.01L974.03 1659.76L470.941 1659.76Z" fill="#2724F2"/>
<path d="M470.941 1468.01L470.941 1340.28L974.03 1340.28L974.03 1468.01L470.941 1468.01Z" fill="#F5C845"/>
<path d="M974.035 1787.5L974.035 1340.31L1287.87 1544.14C1302.18 1553.44 1302.18 1574.38 1287.87 1583.67L974.035 1787.5Z" fill="white"/>
<path d="M470.941 1787.49L470.941 1659.76L974.03 1659.76L974.03 1787.49L470.941 1787.49Z" fill="#F5C845"/>
<path d="M396.572 1787.5H349.984C226.494 1787.5 126.389 1687.4 126.389 1563.91V1563.9C126.389 1440.42 226.494 1340.31 349.984 1340.31L396.572 1340.31L396.572 1787.5Z" fill="#E45E47"/>
<path d="M470.94 1787.49L396.547 1787.49L396.547 1340.28L470.94 1340.28M1187.09 1649.19L1187.09 1478.69L1287.88 1544.16C1302.18 1553.45 1302.19 1574.38 1287.89 1583.68L1187.09 1649.19Z" fill="black"/>
</g>
<g clip-path="url(#clip7_1_404)">
<path d="M406.691 1466.62H978.341V1658.37H406.691V1466.62Z" fill="#2724F2"/>
<path d="M406.691 1338.89H978.341V1466.62H406.691V1338.89Z" fill="#E45E47"/>
<path d="M978.348 1786.11V1338.92L1292.04 1542.75C1306.34 1552.05 1306.34 1572.99 1292.04 1582.28L978.348 1786.11V1786.11Z" fill="white"/>
<path d="M406.691 1658.37H978.341V1786.1H406.691V1658.37Z" fill="#E45E47"/>
<path d="M337.37 1338.92V1786.11C213.936 1786.11 113.889 1686.02 113.889 1562.53V1562.5C113.889 1439.01 213.936 1338.92 337.37 1338.92Z" fill="#F5C845"/>
<path d="M1191.3 1647.8V1477.3L1292.05 1542.77C1306.35 1552.06 1306.35 1572.99 1292.06 1582.29L1191.3 1647.8V1647.8Z" fill="black"/>
<path d="M406.706 1338.89V1786.11H337.371V1338.92L406.706 1338.89Z" fill="black"/>
</g>
<defs>
<clipPath id="clip0_1_404">
<rect width="1716.67" height="1250" fill="white" transform="translate(413.889 1052.78)"/>
</clipPath>
<clipPath id="clip1_1_404">
<rect width="1722.22" height="1222.22" fill="white" transform="translate(827.777 816.667)"/>
</clipPath>
<clipPath id="clip2_1_404">
<rect width="700" height="783.333" fill="white" transform="translate(975 1833.33)"/>
</clipPath>
<clipPath id="clip3_1_404">
<rect width="680.556" height="383.333" fill="white" transform="translate(1388.89 436.111)"/>
</clipPath>
<clipPath id="clip4_1_404">
<rect width="625" height="1030.56" fill="white" transform="translate(2255.55 1488.89)"/>
</clipPath>
<clipPath id="clip5_1_404">
<rect width="102.778" height="102.778" fill="white" transform="translate(1802.78 2433.33)"/>
</clipPath>
<clipPath id="clip6_1_404">
<rect width="447.222" height="1172.22" fill="white" transform="translate(126.389 1787.5) rotate(-90)"/>
</clipPath>
<clipPath id="clip7_1_404">
<rect width="1188.89" height="447.222" fill="white" transform="translate(113.889 1338.89)"/>
</clipPath>
</defs>
</svg>
