<svg width="3000" height="3000" viewBox="0 0 3000 3000" fill="none" xmlns="http://www.w3.org/2000/svg">
<g clip-path="url(#clip0_1_2)">
<path d="M2638.89 850C2637.03 827.009 2617.85 808.925 2594.45 808.925C2592.02 808.925 2589.64 809.12 2587.31 809.495C2577.25 811.026 2569.09 807.701 2565.5 798.35C2554.95 770.594 2528.17 750.872 2496.79 750.872C2477.92 750.847 2459.76 758.137 2446.11 771.22C2440.57 776.235 2433.09 776.065 2429 769.189C2414.42 739.712 2384.12 719.444 2349.09 719.444C2309.42 719.444 2275.8 745.433 2264.21 781.371C2262.74 785.941 2257.22 791.505 2247.85 787.951C2240.93 785.079 2233.51 783.606 2226.02 783.615C2207.52 783.615 2191.08 792.427 2180.62 806.094C2176.49 810.747 2171.05 811.088 2166.07 806.279C2160.85 800.162 2154.38 795.253 2147.09 791.889C2139.8 788.526 2131.87 786.788 2123.85 786.797C2098.47 786.797 2077.06 803.858 2070.39 827.173C2068.43 832.434 2063.29 832.445 2060.19 830.452C2054.29 826.649 2047.42 824.633 2040.41 824.644C2024.13 824.644 2010.37 835.286 2005.55 850.003H2638.89V850Z" fill="black"/>
</g>
<g clip-path="url(#clip1_1_2)">
<path d="M1872.22 482.875V571.254H305.562V482.875C305.562 440.175 340.064 405.556 382.623 405.556H1795.15C1837.71 405.556 1872.22 440.175 1872.22 482.875Z" fill="black"/>
<path d="M1872.22 571.254V1528.24C1872.22 1570.94 1837.72 1605.56 1795.16 1605.56H382.62C340.057 1605.56 305.556 1570.94 305.556 1528.24V571.254H1872.22Z" fill="#F5C845"/>
<path d="M458.217 510.099C470.158 510.099 479.839 500.387 479.839 488.406C479.839 476.426 470.158 466.713 458.217 466.713C446.276 466.713 436.596 476.426 436.596 488.406C436.596 500.387 446.276 510.099 458.217 510.099Z" fill="white"/>
<path d="M566.252 510.099C578.193 510.099 587.873 500.387 587.873 488.406C587.873 476.426 578.193 466.713 566.252 466.713C554.311 466.713 544.63 476.426 544.63 488.406C544.63 500.387 554.311 510.099 566.252 510.099Z" fill="white"/>
<path d="M674.286 510.099C686.228 510.099 695.908 500.387 695.908 488.406C695.908 476.426 686.228 466.713 674.286 466.713C662.345 466.713 652.665 476.426 652.665 488.406C652.665 500.387 662.345 510.099 674.286 510.099Z" fill="white"/>
<path d="M874.793 405.556H886.037V571.257H874.793V405.556ZM1114.15 405.556H1125.39V571.257H1114.15V405.556ZM1353.5 405.556H1364.74V571.257H1353.5V405.556ZM1592.85 405.556H1604.1V571.257H1592.85V405.556Z" fill="white"/>
</g>
<g clip-path="url(#clip2_1_2)">
<path d="M1792.37 2562.22H1414.34L1480.19 2472.91H1726.52L1792.37 2562.22Z" fill="#E45E47"/>
<path d="M2016.93 2672.22H1189.78C1189.78 2611.49 1238.99 2562.24 1299.72 2562.24H1906.99C1967.73 2562.24 2016.93 2611.49 2016.93 2672.22ZM749.087 2472.89C659.226 2472.89 586.111 2399.77 586.111 2309.91V1296.31C586.111 1206.45 659.226 1133.33 749.087 1133.33H2456.38C2546.25 1133.33 2619.36 1206.45 2619.36 1296.31L2619.44 1385.02V2309.91C2619.44 2399.77 2546.33 2472.89 2456.47 2472.89H749.087V2472.89Z" fill="black"/>
<path d="M2534.06 1385L2534.02 2311.22C2533.34 2353.49 2498.84 2387.54 2456.42 2387.54H749.052C706.177 2387.54 671.452 2352.78 671.452 2309.9V1385H2534.06Z" fill="#F5C845"/>
<path d="M2534.03 1296.29V1385H671.449V1296.29C671.449 1253.43 706.194 1218.68 749.055 1218.68H2456.42C2499.29 1218.68 2534.03 1253.43 2534.03 1296.29Z" fill="#E45E47"/>
<path d="M792.021 1323.62C804.047 1323.62 813.797 1313.87 813.797 1301.84C813.797 1289.82 804.047 1280.07 792.021 1280.07C779.994 1280.07 770.245 1289.82 770.245 1301.84C770.245 1313.87 779.994 1323.62 792.021 1323.62Z" fill="white"/>
<path d="M900.822 1323.62C912.848 1323.62 922.598 1313.87 922.598 1301.84C922.598 1289.82 912.848 1280.07 900.822 1280.07C888.795 1280.07 879.046 1289.82 879.046 1301.84C879.046 1313.87 888.795 1323.62 900.822 1323.62Z" fill="white"/>
<path d="M1009.62 1323.62C1021.65 1323.62 1031.4 1313.87 1031.4 1301.84C1031.4 1289.82 1021.65 1280.07 1009.62 1280.07C997.592 1280.07 987.843 1289.82 987.843 1301.84C987.843 1313.87 997.592 1323.62 1009.62 1323.62Z" fill="white"/>
</g>
<g clip-path="url(#clip3_1_2)">
<path d="M655.556 1050H130.565V1049.95L303.339 854.857L393.073 939.616L482.782 854.857L655.556 1050Z" fill="#E45E47"/>
<path d="M303.329 854.854L130.556 1049.95V691.667L303.329 854.854ZM655.546 691.667V1050L482.772 854.854L655.546 691.667Z" fill="black"/>
<path d="M655.556 691.67L482.782 854.857L393.073 939.616L303.339 854.857L130.565 691.67H655.556Z" fill="#2724F2"/>
</g>
<g clip-path="url(#clip4_1_2)">
<path d="M1266.67 1812.24V2172.22H800V1641.67H1096.08V1812.24H1266.67Z" fill="white"/>
<path d="M1266.67 1812.24V2172.22H800V1641.67H1096.08V1812.24H1266.67Z" fill="#E45E47"/>
<path d="M1266.64 1812.35H1095.99V1641.69L1266.64 1812.35Z" fill="black"/>
<path d="M877.157 1793.29H1018.86V1812.24H877.157V1793.29ZM877.157 1878.23H1189.49V1897.18H877.157V1878.23ZM877.157 1963.17H1189.49V1982.11H877.157V1963.17ZM877.157 2048.1H1189.49V2067.05H877.157V2048.1Z" fill="white"/>
</g>
<g clip-path="url(#clip5_1_2)">
<path d="M808.333 761.111H1258.33V773.76H808.333V761.111ZM808.333 825.413H1258.33V838.062H808.333V825.413ZM808.333 889.716H1258.33V902.364H808.333V889.716ZM808.333 954.018H1258.33V966.667H808.333V954.018Z" fill="black"/>
</g>
<g clip-path="url(#clip6_1_2)">
<path d="M310.23 2172.22H298.103C230.117 2172.22 175 2118.08 175 2051.29V1890.37C175 1823.59 230.117 1769.44 298.103 1769.44H310.23C378.217 1769.44 433.333 1823.59 433.333 1890.38V2051.29C433.333 2118.08 378.217 2172.22 310.23 2172.22V2172.22Z" fill="#E45E47"/>
<path d="M297.82 1862.16H310.509V1927.48H297.82V1862.16Z" fill="black"/>
</g>
<g clip-path="url(#clip7_1_2)">
<path d="M2080.96 533.015L2087.98 551.99C2088.59 553.651 2089.56 555.159 2090.81 556.41C2092.06 557.662 2093.57 558.628 2095.23 559.242L2114.21 566.265C2124.89 570.22 2124.89 585.335 2114.21 589.29L2095.23 596.313C2093.57 596.927 2092.06 597.893 2090.81 599.145C2089.56 600.396 2088.59 601.904 2087.98 603.565L2080.96 622.54C2077 633.226 2061.89 633.226 2057.93 622.54L2050.91 603.565C2050.29 601.904 2049.33 600.396 2048.08 599.145C2046.83 597.893 2045.32 596.927 2043.66 596.313L2024.68 589.29C2014 585.335 2014 570.22 2024.68 566.265L2043.66 559.242C2045.32 558.628 2046.83 557.662 2048.08 556.41C2049.33 555.159 2050.29 553.651 2050.91 551.99L2057.93 533.015C2061.89 522.329 2077 522.329 2080.96 533.015V533.015Z" fill="black"/>
</g>
<g clip-path="url(#clip8_1_2)">
<path d="M2819.44 1046.94V1135.53H1475.01V1046.94C1475.01 1004.14 1509.58 969.444 1552.22 969.444H2742.22C2784.87 969.444 2819.44 1004.14 2819.44 1046.94Z" fill="#E45E47"/>
<path d="M2819.44 1135.53V2094.73C2819.44 2137.53 2784.87 2172.23 2742.23 2172.23H1552.22C1509.57 2172.22 1475 2137.53 1475 2094.73V1135.53H2819.44Z" fill="#2724F2"/>
<path d="M1587.02 1074.23C1598.99 1074.23 1608.69 1064.5 1608.69 1052.49C1608.69 1040.48 1598.99 1030.74 1587.02 1030.74C1575.06 1030.74 1565.36 1040.48 1565.36 1052.49C1565.36 1064.5 1575.06 1074.23 1587.02 1074.23Z" fill="white"/>
<path d="M1695.27 1074.23C1707.24 1074.23 1716.94 1064.5 1716.94 1052.49C1716.94 1040.48 1707.24 1030.74 1695.27 1030.74C1683.3 1030.74 1673.6 1040.48 1673.6 1052.49C1673.6 1064.5 1683.3 1074.23 1695.27 1074.23Z" fill="white"/>
<path d="M1803.52 1074.23C1815.49 1074.23 1825.19 1064.5 1825.19 1052.49C1825.19 1040.48 1815.49 1030.74 1803.52 1030.74C1791.55 1030.74 1781.85 1040.48 1781.85 1052.49C1781.85 1064.5 1791.55 1074.23 1803.52 1074.23Z" fill="white"/>
<path d="M1928.68 969.444H1939.95V1135.53H1928.68V969.444ZM2168.51 969.444H2179.77V1135.53H2168.51V969.444ZM2408.33 969.444H2419.6V1135.53H2408.33V969.444ZM2648.16 969.444H2659.42V1135.53H2648.16V969.444Z" fill="white"/>
<path d="M1666.29 2172.21H2681.99L2609.96 2054.42C2576.47 1999.7 2525.7 1957.81 2465.75 1935.39C2437.3 1924.69 2407.32 1918.64 2376.96 1917.47C2373.1 1917.28 2369.24 1917.19 2365.37 1917.19H1982.95C1977.95 1917.19 1972.98 1917.31 1968.01 1917.59C1937.6 1919.18 1907.63 1925.62 1879.23 1936.66C1841.16 1951.45 1806.68 1974.21 1778.06 2003.42C1769.47 2012.21 1761.46 2021.55 1754.09 2031.39C1752.24 2033.82 1750.43 2036.27 1748.65 2038.75C1745.02 2043.84 1741.59 2049.06 1738.36 2054.42C1736.63 2057.15 1735.01 2059.92 1733.28 2062.81C1724.68 2076.82 1715.73 2091.42 1706.5 2106.45C1702.84 2112.39 1699.17 2118.6 1695.39 2124.57C1685.81 2140.24 1676.11 2156.18 1666.29 2172.21V2172.21Z" fill="#E45E47"/>
<path d="M2307.66 1815.2V1917.14L2307.47 1917.21H2307.66C2154.63 2038.75 2037.32 1917.21 2037.32 1917.21H2037.57L2037.32 1917.14V1832.8C2037.38 1832.87 2037.44 1832.93 2037.51 1832.93C2040.93 1834.48 2044.38 1835.96 2047.86 1837.38C2053.09 1839.47 2058.41 1841.37 2063.79 1843.06C2075.22 1846.65 2086.93 1849.26 2098.8 1850.86C2100.73 1851.12 2102.59 1851.37 2104.52 1851.57C2112.42 1852.47 2120.45 1852.92 2128.61 1852.92H2172.49C2175.32 1852.92 2178.08 1852.86 2180.91 1852.79C2183.29 1852.73 2185.6 1852.6 2187.98 1852.47L2193.63 1852.08C2195.43 1851.96 2197.29 1851.76 2199.09 1851.57C2199.28 1851.57 2199.54 1851.57 2199.8 1851.5C2204.01 1851.06 2208.21 1850.53 2212.39 1849.89C2214.57 1849.57 2216.7 1849.18 2218.88 1848.8C2220.69 1848.48 2222.48 1848.14 2224.28 1847.76C2226.08 1847.44 2227.94 1847.05 2229.8 1846.6C2232.42 1846.02 2235.04 1845.39 2237.64 1844.73C2242.18 1843.58 2246.68 1842.29 2251.13 1840.86C2252.48 1840.41 2253.83 1840.03 2255.18 1839.51C2257.04 1838.93 2258.84 1838.29 2260.64 1837.64C2262.57 1836.99 2264.5 1836.22 2266.42 1835.51C2277.02 1831.41 2287.34 1826.63 2297.32 1821.2C2300.83 1819.31 2304.28 1817.31 2307.66 1815.2V1815.2Z" fill="#F5C845"/>
<path d="M2307.66 1815.46V1858.4C2177.24 1918.88 2043.61 1836.73 2037.51 1832.93C2040.93 1834.48 2044.38 1835.96 2047.85 1837.38C2053.09 1839.47 2058.41 1841.37 2063.79 1843.06C2075.22 1846.65 2086.93 1849.26 2098.8 1850.86C2100.73 1851.12 2102.59 1851.37 2104.52 1851.57C2112.42 1852.47 2120.45 1852.92 2128.61 1852.92H2172.49C2175.32 1852.92 2178.08 1852.86 2180.91 1852.79C2183.29 1852.73 2185.6 1852.6 2187.98 1852.47L2193.63 1852.08C2195.5 1851.96 2197.29 1851.76 2199.09 1851.57C2199.28 1851.57 2199.54 1851.57 2199.8 1851.5C2204.01 1851.06 2208.21 1850.53 2212.39 1849.89C2214.56 1849.56 2216.72 1849.2 2218.88 1848.8C2220.69 1848.48 2222.48 1848.14 2224.28 1847.76C2226.08 1847.44 2227.94 1847.05 2229.8 1846.6C2232.42 1846.02 2235.04 1845.39 2237.64 1844.73C2242.18 1843.58 2246.68 1842.29 2251.13 1840.86C2252.48 1840.41 2253.83 1840.03 2255.18 1839.51C2257.04 1838.93 2258.84 1838.29 2260.64 1837.64C2262.57 1836.99 2264.5 1836.22 2266.42 1835.51C2277.02 1831.41 2287.34 1826.63 2297.32 1821.2C2300.79 1819.45 2304.19 1817.52 2307.66 1815.46V1815.46Z" fill="black"/>
<path d="M2047.85 1837.38C2053.09 1839.47 2058.4 1841.36 2063.78 1843.05C2058.39 1841.39 2053.08 1839.5 2047.85 1837.38V1837.38Z" fill="#F5C845"/>
<path d="M1910.67 1634.19V1361.38C1910.67 1215.74 2029.38 1092.88 2174.48 1093.96C2246.03 1094.49 2310.72 1123.78 2357.67 1170.9C2405.04 1218.52 2434.33 1284.22 2434.33 1356.74V1590.14C2434.33 1735.28 2317.11 1852.94 2172.5 1852.94H2128.61C2008.24 1852.94 1910.67 1755 1910.67 1634.19V1634.19Z" fill="#F5C845"/>
<path d="M2434.35 1356.83V1385.55L1916.44 1301.93C1935.79 1210.36 2002.74 1136.41 2089.95 1107.39C2116.59 1098.47 2144.5 1093.94 2172.59 1093.96C2200.63 1093.94 2228.49 1098.48 2255.09 1107.39H2255.16C2359.33 1142.03 2434.35 1240.58 2434.35 1356.83ZM2434.35 1385.55V1561.19L2402.44 1545.22C2390.51 1539.27 2380.46 1530.1 2373.43 1518.73C2366.41 1507.36 2362.69 1494.25 2362.69 1480.87V1435.15C2362.69 1424.43 2358.89 1414.06 2351.96 1405.9C2345.03 1397.74 2335.43 1392.33 2324.89 1390.63L1912.7 1324.13L1714.24 1292.16C1712.77 1291.94 1711.36 1291.43 1710.08 1290.66C1708.81 1289.89 1707.7 1288.87 1706.82 1287.67C1705.94 1286.47 1705.31 1285.1 1704.96 1283.65C1704.61 1282.2 1704.55 1280.69 1704.79 1279.22C1705.03 1277.75 1705.55 1276.33 1706.33 1275.06C1707.12 1273.8 1708.14 1272.7 1709.36 1271.83C1710.57 1270.96 1711.94 1270.34 1713.38 1270.01C1714.83 1269.68 1716.34 1269.64 1717.8 1269.9L1916.44 1301.93L2434.35 1385.55Z" fill="black"/>
<path d="M2434.33 1438.33C2468.14 1438.33 2495.54 1465.83 2495.54 1499.76C2495.54 1533.69 2468.14 1561.19 2434.33 1561.19V1438.33Z" fill="#F5C845"/>
<path d="M2103.35 1651.04C2103.01 1651.04 2102.66 1651.01 2102.31 1650.94L2074.27 1645.53C2070.34 1644.78 2066.63 1643.16 2063.39 1640.8C2060.15 1638.44 2057.47 1635.4 2055.54 1631.88C2053.6 1628.37 2052.46 1624.47 2052.19 1620.47C2051.93 1616.46 2052.54 1612.45 2054 1608.71L2085.75 1526.8C2086.28 1525.43 2087.33 1524.34 2088.66 1523.75C2090 1523.16 2091.51 1523.13 2092.87 1523.66C2094.23 1524.19 2095.32 1525.24 2095.91 1526.58C2096.49 1527.92 2096.52 1529.44 2096 1530.8L2064.24 1612.71C2062.48 1617.25 2062.82 1622.29 2065.16 1626.55C2067.51 1630.8 2071.58 1633.78 2076.35 1634.7L2104.39 1640.11C2105.73 1640.37 2106.93 1641.12 2107.75 1642.22C2108.57 1643.32 2108.95 1644.68 2108.82 1646.05C2108.69 1647.41 2108.06 1648.68 2107.05 1649.61C2106.04 1650.53 2104.72 1651.04 2103.35 1651.04V1651.04ZM2103.41 1735C2083.05 1735 2059.5 1728.17 2034.64 1707.75C2034.08 1707.29 2033.62 1706.72 2033.28 1706.09C2032.93 1705.45 2032.72 1704.75 2032.65 1704.03C2032.58 1703.31 2032.65 1702.58 2032.86 1701.88C2033.07 1701.19 2033.41 1700.55 2033.87 1699.98C2034.33 1699.42 2034.89 1698.96 2035.53 1698.62C2036.16 1698.28 2036.86 1698.06 2037.58 1697.99C2038.3 1697.92 2039.02 1697.99 2039.71 1698.2C2040.4 1698.41 2041.05 1698.75 2041.6 1699.21C2108.31 1754.01 2162.44 1701.81 2164.72 1699.56C2165.76 1698.56 2167.15 1698.01 2168.59 1698.02C2170.03 1698.04 2171.41 1698.63 2172.42 1699.66C2173.44 1700.68 2174.01 1702.07 2174.02 1703.52C2174.02 1704.96 2173.46 1706.36 2172.45 1707.39C2172.04 1707.81 2144.07 1735 2103.41 1735Z" fill="black"/>
<path d="M2207.09 1557.24C2228.5 1557.24 2245.85 1539.83 2245.85 1518.35C2245.85 1496.87 2228.5 1479.45 2207.09 1479.45C2185.69 1479.45 2168.34 1496.87 2168.34 1518.35C2168.34 1539.83 2185.69 1557.24 2207.09 1557.24Z" fill="black"/>
<path d="M2284.57 1449.52C2266.86 1442.91 2248.36 1438.57 2229.66 1436.3C2210.96 1433.97 2192.04 1433.95 2173.34 1435.65L2173.3 1435.65C2171.86 1435.75 2170.45 1435.28 2169.35 1434.34C2168.26 1433.41 2167.57 1432.08 2167.44 1430.64C2167.31 1429.21 2167.75 1427.77 2168.66 1426.66C2169.57 1425.54 2170.88 1424.82 2172.3 1424.66L2172.52 1424.64C2192.03 1423.65 2211.64 1424.46 2230.88 1427.63C2250.12 1430.74 2268.99 1435.99 2286.94 1443.51C2287.73 1443.83 2288.37 1444.45 2288.71 1445.23C2289.05 1446.02 2289.06 1446.91 2288.75 1447.71C2288.43 1448.51 2287.82 1449.14 2287.03 1449.48C2286.25 1449.83 2285.36 1449.84 2284.57 1449.52V1449.52Z" fill="black"/>
<path d="M1980.99 1557.24C2002.39 1557.24 2019.74 1539.83 2019.74 1518.35C2019.74 1496.87 2002.39 1479.45 1980.99 1479.45C1959.58 1479.45 1942.23 1496.87 1942.23 1518.35C1942.23 1539.83 1959.58 1557.24 1980.99 1557.24Z" fill="black"/>
<path d="M1901.13 1443.51C1919.08 1435.99 1937.96 1430.75 1957.19 1427.64C1976.43 1424.47 1996.04 1423.65 2015.55 1424.65C2016.27 1424.7 2016.98 1424.89 2017.62 1425.21C2018.27 1425.53 2018.85 1425.98 2019.32 1426.53C2019.8 1427.07 2020.16 1427.71 2020.39 1428.39C2020.62 1429.08 2020.71 1429.81 2020.66 1430.53C2020.61 1431.25 2020.42 1431.96 2020.1 1432.61C2019.78 1433.26 2019.33 1433.83 2018.79 1434.31C2018.24 1434.79 2017.61 1435.15 2016.93 1435.38C2016.24 1435.61 2015.52 1435.7 2014.8 1435.65L2014.73 1435.65C1996.03 1433.95 1977.12 1433.98 1958.41 1436.31C1939.71 1438.57 1921.21 1442.92 1903.51 1449.53C1902.71 1449.83 1901.82 1449.8 1901.04 1449.44C1900.27 1449.09 1899.66 1448.44 1899.36 1447.64C1899.07 1446.85 1899.09 1445.99 1899.42 1445.22C1899.76 1444.45 1900.37 1443.84 1901.13 1443.51V1443.51ZM2376.96 1917.47V2172.21H2465.75V1935.39C2437.3 1924.69 2407.32 1918.64 2376.96 1917.47V1917.47ZM1879.23 1936.66V2172.21H1968.01V1917.59C1937.6 1919.18 1907.63 1925.62 1879.23 1936.66V1936.66Z" fill="black"/>
</g>
<g clip-path="url(#clip9_1_2)">
<path d="M1305.57 1683.28C1307.09 1800.48 1401.56 1897.68 1516.94 1904.95H1519.97C1524.51 1905.56 1528.75 1905.56 1533.59 1905.56C1566.9 1904.95 1598.39 1897.38 1626.86 1883.76C1629.89 1882.55 1632.61 1881.03 1635.64 1879.52C1639.27 1877.7 1643.51 1877.4 1646.84 1879.22C1655.92 1883.46 1672.89 1890.72 1691.05 1894.05C1700.14 1895.57 1709.22 1896.48 1718 1895.27C1724.06 1894.36 1726.79 1887.69 1722.85 1883.15C1713.05 1870.67 1704.62 1857.17 1697.71 1842.88C1695.29 1838.34 1696.2 1832.88 1699.53 1829.25C1734.35 1789.88 1755.24 1738.1 1755.55 1681.77C1756.16 1557 1655.02 1455.56 1530.56 1455.56C1525.41 1455.56 1520.27 1455.86 1515.42 1456.46C1397.02 1464.03 1304.06 1563.06 1305.57 1683.28Z" fill="white"/>
<path d="M1647.1 1710.83C1663.92 1710.83 1677.55 1697.19 1677.55 1680.38C1677.55 1663.56 1663.92 1649.93 1647.1 1649.93C1630.29 1649.93 1616.66 1663.56 1616.66 1680.38C1616.66 1697.19 1630.29 1710.83 1647.1 1710.83Z" fill="black"/>
<path d="M1530.61 1710.83C1547.43 1710.83 1561.06 1697.19 1561.06 1680.38C1561.06 1663.56 1547.43 1649.93 1530.61 1649.93C1513.8 1649.93 1500.16 1663.56 1500.16 1680.38C1500.16 1697.19 1513.8 1710.83 1530.61 1710.83Z" fill="black"/>
<path d="M1414.12 1710.83C1430.94 1710.83 1444.57 1697.19 1444.57 1680.38C1444.57 1663.56 1430.94 1649.93 1414.12 1649.93C1397.3 1649.93 1383.67 1663.56 1383.67 1680.38C1383.67 1697.19 1397.3 1710.83 1414.12 1710.83Z" fill="black"/>
</g>
<defs>
<clipPath id="clip0_1_2">
<rect width="633.333" height="130.556" fill="white" transform="translate(2005.56 719.444)"/>
</clipPath>
<clipPath id="clip1_1_2">
<rect width="1566.67" height="1200" fill="white" transform="translate(305.556 405.556)"/>
</clipPath>
<clipPath id="clip2_1_2">
<rect width="2033.33" height="1538.89" fill="white" transform="translate(586.111 1133.33)"/>
</clipPath>
<clipPath id="clip3_1_2">
<rect width="525" height="358.333" fill="white" transform="translate(130.556 691.667)"/>
</clipPath>
<clipPath id="clip4_1_2">
<rect width="466.667" height="530.556" fill="white" transform="translate(800 1641.67)"/>
</clipPath>
<clipPath id="clip5_1_2">
<rect width="450" height="205.556" fill="white" transform="translate(808.333 761.111)"/>
</clipPath>
<clipPath id="clip6_1_2">
<rect width="258.333" height="402.778" fill="white" transform="translate(175 1769.44)"/>
</clipPath>
<clipPath id="clip7_1_2">
<rect width="105.556" height="105.556" fill="white" transform="translate(2016.67 525)"/>
</clipPath>
<clipPath id="clip8_1_2">
<rect width="1344.44" height="1202.78" fill="white" transform="translate(1475 969.444)"/>
</clipPath>
<clipPath id="clip9_1_2">
<rect width="450" height="450" fill="white" transform="translate(1305.56 1455.56)"/>
</clipPath>
</defs>
</svg>
