<svg width="3000" height="3000" viewBox="0 0 3000 3000" fill="none" xmlns="http://www.w3.org/2000/svg">
<g clip-path="url(#clip0_1_253)">
<path d="M2786.11 1107.92V1202.71H1191.67V1107.92C1191.67 1062.13 1228.93 1025 1274.88 1025H2702.9C2748.85 1025 2786.11 1062.13 2786.11 1107.92Z" fill="black"/>
<path d="M2786.11 1202.71V2130.97C2786.11 2176.77 2748.86 2213.89 2702.9 2213.89H1274.87C1228.92 2213.89 1191.67 2176.76 1191.67 2130.97V1202.71H2786.11Z" fill="#E45E47"/>
<path d="M1356.5 1137.12C1369.4 1137.12 1379.85 1126.7 1379.85 1113.85C1379.85 1101 1369.4 1090.59 1356.5 1090.59C1343.61 1090.59 1333.16 1101 1333.16 1113.85C1333.16 1126.7 1343.61 1137.12 1356.5 1137.12Z" fill="white"/>
<path d="M1473.16 1137.12C1486.05 1137.12 1496.5 1126.7 1496.5 1113.85C1496.5 1101 1486.05 1090.59 1473.16 1090.59C1460.26 1090.59 1449.81 1101 1449.81 1113.85C1449.81 1126.7 1460.26 1137.12 1473.16 1137.12Z" fill="white"/>
<path d="M1589.81 1137.12C1602.7 1137.12 1613.15 1126.7 1613.15 1113.85C1613.15 1101 1602.7 1090.59 1589.81 1090.59C1576.91 1090.59 1566.46 1101 1566.46 1113.85C1566.46 1126.7 1576.91 1137.12 1589.81 1137.12Z" fill="white"/>
</g>
<g clip-path="url(#clip1_1_253)">
<path d="M2558.33 499.809V594.843H797.23V499.809C797.23 453.89 834.414 416.667 880.28 416.667H2475.28C2521.14 416.667 2558.33 453.89 2558.33 499.809Z" fill="black"/>
<path d="M2558.33 594.843V1950.17C2558.33 1996.09 2521.15 2033.32 2475.28 2033.32H880.272C834.406 2033.31 797.223 1996.09 797.223 1950.17V594.843H2558.33Z" fill="#F5C845"/>
<path d="M961.748 529.084C974.617 529.084 985.05 518.64 985.05 505.757C985.05 492.873 974.617 482.43 961.748 482.43C948.878 482.43 938.445 492.873 938.445 505.757C938.445 518.64 948.878 529.084 961.748 529.084Z" fill="white"/>
<path d="M1078.18 529.084C1091.05 529.084 1101.48 518.64 1101.48 505.757C1101.48 492.873 1091.05 482.43 1078.18 482.43C1065.31 482.43 1054.88 492.873 1054.88 505.757C1054.88 518.64 1065.31 529.084 1078.18 529.084Z" fill="white"/>
<path d="M1194.61 529.084C1207.48 529.084 1217.91 518.64 1217.91 505.757C1217.91 492.873 1207.48 482.43 1194.61 482.43C1181.74 482.43 1171.31 492.873 1171.31 505.757C1171.31 518.64 1181.74 529.084 1194.61 529.084Z" fill="white"/>
<path d="M1398.56 416.667H1410.67V594.843H1398.56V416.667ZM1777.08 416.667H1789.19V594.843H1777.08V416.667ZM2155.6 416.667H2167.71V594.843H2155.6V416.667ZM2237.36 771.657C2175.35 833.735 2106.58 764.792 2044.57 826.822C1982.6 888.899 2051.37 957.843 1989.41 1019.87C1927.45 1081.9 1858.58 1013 1796.62 1075.03C1734.66 1137.11 1803.48 1206 1741.52 1268.03C1722.14 1287.37 1702.12 1293.93 1681.91 1295.79H1608.28C1607.17 1295.64 1606.04 1295.64 1604.93 1295.79C1584.66 1293.93 1564.64 1287.37 1545.27 1268.03C1483.31 1206 1552.18 1137.11 1490.16 1075.03C1428.2 1013 1359.38 1081.9 1297.37 1019.87C1235.41 957.839 1304.23 888.899 1242.27 826.822C1180.26 764.796 1111.44 833.735 1049.48 771.657C992.828 714.942 1045.43 652.561 1007.64 594.843H2279.2C2241.41 652.561 2293.96 714.942 2237.36 771.657V771.657Z" fill="white"/>
<path d="M1914.63 2033.31H1372.16C1337.93 2033.31 1314.72 1998.57 1327.75 1966.9L1424.68 1686.29L1501.36 1464.41C1510.18 1438.88 1514.69 1412.05 1514.69 1385.04V1249.4H1772.1V1385.05C1772.09 1412.06 1776.6 1438.88 1785.42 1464.41L1862.07 1686.25L1959.08 1966.9C1972.15 1998.57 1948.9 2033.31 1914.63 2033.31V2033.31Z" fill="#E45E47"/>
<path d="M1809.15 1214.9C1809.15 1205.76 1805.52 1196.98 1799.06 1190.52C1792.6 1184.05 1783.84 1180.41 1774.7 1180.41H1512.1C1502.96 1180.41 1494.2 1184.05 1487.74 1190.52C1481.28 1196.98 1477.65 1205.76 1477.65 1214.9C1477.65 1224.05 1481.28 1232.82 1487.74 1239.29C1494.2 1245.76 1502.96 1249.39 1512.1 1249.39H1774.7C1783.84 1249.39 1792.6 1245.76 1799.06 1239.29C1805.52 1232.82 1809.15 1224.05 1809.15 1214.9V1214.9ZM1914.64 2033.33H1372.16C1337.91 2033.33 1314.7 1998.56 1327.73 1966.89L1424.68 1686.29C1442.82 1706.41 1461.08 1726.31 1497.3 1726.31C1570.32 1726.31 1570.32 1645.17 1643.37 1645.17C1716.39 1645.17 1716.39 1726.31 1789.49 1726.31C1825.71 1726.31 1843.98 1706.36 1862.07 1686.24L1959.07 1966.89C1972.14 1998.56 1948.89 2033.33 1914.64 2033.33V2033.33ZM1643.4 1079.03C1593.43 1079.03 1554.29 988.419 1554.29 872.745C1554.29 757.07 1593.43 666.457 1643.4 666.457C1693.36 666.457 1732.51 757.07 1732.51 872.745C1732.51 988.419 1693.37 1079.03 1643.4 1079.03ZM1643.4 678.579C1601.66 678.579 1566.4 767.496 1566.4 872.745C1566.4 977.994 1601.66 1066.91 1643.4 1066.91C1685.13 1066.91 1720.4 977.994 1720.4 872.745C1720.4 767.496 1685.14 678.579 1643.4 678.579V678.579Z" fill="black"/>
<path d="M1526.88 1002.13C1496.48 1002.13 1474.87 993.11 1464.94 975.884C1452.54 954.392 1460.29 923.512 1486.74 888.932C1512.09 855.806 1551.9 822.619 1598.84 795.49C1645.78 768.36 1694.39 750.44 1735.73 745.029C1778.88 739.38 1809.46 748.108 1821.85 769.601C1834.25 791.093 1826.51 821.973 1800.05 856.553C1774.7 889.679 1734.89 922.866 1687.95 949.995C1641.01 977.125 1592.4 995.046 1551.06 1000.46C1543.05 1001.54 1534.97 1002.1 1526.88 1002.13V1002.13ZM1759.74 755.49C1752.78 755.49 1745.28 756.004 1737.31 757.046C1697.52 762.255 1650.49 779.634 1604.9 805.988C1559.31 832.341 1520.76 864.413 1496.36 896.302C1473.41 926.301 1465.78 953.095 1475.43 969.823C1485.08 986.552 1512.07 993.336 1549.5 988.435C1589.29 983.227 1636.31 965.847 1681.9 939.494C1727.49 913.144 1766.04 881.069 1790.44 849.179C1813.39 819.181 1821.02 792.386 1811.37 775.658C1803.78 762.497 1785.44 755.49 1759.74 755.49V755.49Z" fill="black"/>
<path d="M1759.92 1002.13C1752.38 1002.13 1744.31 1001.58 1735.74 1000.46C1694.4 995.046 1645.79 977.125 1598.85 949.996C1551.91 922.866 1512.1 889.679 1486.75 856.553C1460.29 821.973 1452.55 791.093 1464.95 769.601C1477.34 748.108 1507.92 739.384 1551.07 745.029C1592.41 750.44 1641.02 768.36 1687.96 795.49C1734.9 822.619 1774.71 855.806 1800.06 888.932C1826.51 923.512 1834.26 954.392 1821.86 975.884C1811.93 993.11 1790.31 1002.13 1759.92 1002.13ZM1527.06 755.491C1501.35 755.491 1483.02 762.497 1475.43 775.658C1465.78 792.387 1473.41 819.181 1496.36 849.179C1520.76 881.069 1559.31 913.144 1604.9 939.494C1650.49 965.843 1697.51 983.227 1737.3 988.435C1774.72 993.336 1801.72 986.548 1811.37 969.823C1821.02 953.095 1813.39 926.301 1790.44 896.302C1766.04 864.413 1727.49 832.337 1681.9 805.988C1636.31 779.638 1589.28 762.255 1549.5 757.046C1542.06 756.044 1534.57 755.524 1527.06 755.491Z" fill="black"/>
<path d="M1643.4 914.91C1666.66 914.91 1685.52 896.032 1685.52 872.745C1685.52 849.458 1666.66 830.58 1643.4 830.58C1620.14 830.58 1601.28 849.458 1601.28 872.745C1601.28 896.032 1620.14 914.91 1643.4 914.91Z" fill="#E45E47"/>
<path d="M1695.1 732.931C1704.97 732.931 1712.97 724.922 1712.97 715.043C1712.97 705.163 1704.97 697.154 1695.1 697.154C1685.24 697.154 1677.24 705.163 1677.24 715.043C1677.24 724.922 1685.24 732.931 1695.1 732.931Z" fill="#E45E47"/>
<path d="M1483.34 923.864C1493.21 923.864 1501.21 915.855 1501.21 905.976C1501.21 896.096 1493.21 888.087 1483.34 888.087C1473.47 888.087 1465.47 896.096 1465.47 905.976C1465.47 915.855 1473.47 923.864 1483.34 923.864Z" fill="#E45E47"/>
<path d="M1757.27 1013.46C1767.13 1013.46 1775.13 1005.45 1775.13 995.575C1775.13 985.696 1767.13 977.687 1757.27 977.687C1747.4 977.687 1739.4 985.696 1739.4 995.575C1739.4 1005.45 1747.4 1013.46 1757.27 1013.46Z" fill="#E45E47"/>
<path d="M1571.26 1616.83C1594.33 1616.83 1613.04 1598.1 1613.04 1575C1613.04 1551.91 1594.33 1533.18 1571.26 1533.18C1548.19 1533.18 1529.48 1551.91 1529.48 1575C1529.48 1598.1 1548.19 1616.83 1571.26 1616.83Z" fill="white"/>
<path d="M1712.78 1526.78C1728 1526.78 1740.35 1514.42 1740.35 1499.18C1740.35 1483.94 1728 1471.58 1712.78 1471.58C1697.55 1471.58 1685.2 1483.94 1685.2 1499.18C1685.2 1514.42 1697.55 1526.78 1712.78 1526.78Z" fill="white"/>
<path d="M1613.04 1377.96C1623.15 1377.96 1631.35 1369.75 1631.35 1359.63C1631.35 1349.5 1623.15 1341.29 1613.04 1341.29C1602.92 1341.29 1594.72 1349.5 1594.72 1359.63C1594.72 1369.75 1602.92 1377.96 1613.04 1377.96Z" fill="white"/>
</g>
<g clip-path="url(#clip2_1_253)">
<path d="M1113.87 1166.24V1261.01H211.132V1166.24C211.132 1120.45 248.306 1083.33 294.165 1083.33H1030.84C1076.69 1083.33 1113.87 1120.45 1113.87 1166.24Z" fill="black"/>
<path d="M1113.89 1261.02V2397.64C1113.89 2443.42 1076.69 2480.56 1030.85 2480.56H294.149C248.306 2480.56 211.111 2443.42 211.111 2397.64V1261.02H1113.89Z" fill="#2724F2"/>
<path d="M375.612 1195.43C388.478 1195.43 398.909 1185.02 398.909 1172.17C398.909 1159.32 388.478 1148.91 375.612 1148.91C362.746 1148.91 352.315 1159.32 352.315 1172.17C352.315 1185.02 362.746 1195.43 375.612 1195.43Z" fill="white"/>
<path d="M492.014 1195.43C504.881 1195.43 515.311 1185.02 515.311 1172.17C515.311 1159.32 504.881 1148.91 492.014 1148.91C479.148 1148.91 468.718 1159.32 468.718 1172.17C468.718 1185.02 479.148 1195.43 492.014 1195.43Z" fill="white"/>
<path d="M608.417 1195.43C621.283 1195.43 631.713 1185.02 631.713 1172.17C631.713 1159.32 621.283 1148.91 608.417 1148.91C595.55 1148.91 585.12 1159.32 585.12 1172.17C585.12 1185.02 595.55 1195.43 608.417 1195.43Z" fill="white"/>
</g>
<g clip-path="url(#clip3_1_253)">
<path d="M405.884 1994.83C397.965 2050.03 413.724 2108.94 452.881 2170.88C419.151 2184.75 394.145 2215.56 388.437 2252.77C321.822 2160.07 294.726 2068.62 307.791 1979.75C325.802 1857.08 416.176 1775.23 470.851 1736.12C470.811 1737.45 470.771 1738.82 470.771 1740.19C470.771 1776.04 488.5 1807.69 515.636 1826.88C474.469 1858.98 417.141 1916.6 405.884 1994.83V1994.83Z" fill="#E45E47"/>
<path d="M598.544 2269.05V2364.7H387.174V2269.05C387.174 2210.5 434.484 2163.05 492.861 2163.05C551.234 2163.05 598.544 2210.5 598.544 2269.05V2269.05Z" fill="#F5C845"/>
<path d="M545.671 2269.05C545.671 2298.32 522.04 2322.02 492.857 2322.02C463.675 2322.02 440.044 2298.32 440.044 2269.05C440.044 2239.78 463.675 2216.06 492.857 2216.06C522.044 2216.06 545.671 2239.78 545.671 2269.05Z" fill="white"/>
<path d="M1022.22 2434.14V2477.78H300V2434.14C300 2395.78 331 2364.7 369.236 2364.7H952.986C991.226 2364.7 1022.22 2395.79 1022.22 2434.14V2434.14Z" fill="black"/>
<path d="M863.581 1895.92L656.661 1963.05L616.418 1838.33C654.972 1822.53 682.149 1784.54 682.149 1740.19C682.149 1681.64 634.831 1634.18 576.458 1634.18C567.894 1634.18 559.532 1635.19 551.532 1637.16L530.909 1573.21C525.361 1556.03 534.768 1537.6 551.894 1532.04L696.823 1485.02C713.949 1479.46 732.321 1488.89 737.869 1506.03L863.581 1895.92Z" fill="#E45E47"/>
<path d="M884.008 1950.56L672.014 2019.34C665.035 2021.61 657.445 2021 650.914 2017.65C644.383 2014.3 639.445 2008.49 637.187 2001.49L636.319 1998.8C634.062 1991.8 634.669 1984.19 638.007 1977.64C641.346 1971.09 647.142 1966.13 654.12 1963.87L866.114 1895.08C873.093 1892.82 880.683 1893.43 887.214 1896.78C893.745 1900.13 898.683 1905.94 900.941 1912.94L901.809 1915.63C902.927 1919.1 903.354 1922.75 903.065 1926.38C902.775 1930.01 901.775 1933.55 900.122 1936.79C898.469 1940.04 896.195 1942.92 893.43 1945.29C890.665 1947.65 887.464 1949.44 884.008 1950.56V1950.56Z" fill="#F5C845"/>
<path d="M806.394 2037.03L785.408 2043.83C756.342 2053.26 725.157 2037.28 715.754 2008.12L714.886 2005.43L841.128 1964.47L841.997 1967.16C851.404 1996.32 835.464 2027.59 806.394 2037.03V2037.03Z" fill="white"/>
<path d="M650.626 1459.36C640.055 1468.15 627.907 1474.83 614.835 1479.04C601.796 1483.3 588.07 1485.03 574.387 1484.15C531.174 1481.33 492.013 1452.61 477.906 1408.84L684.867 1341.67C698.969 1385.47 683.982 1431.74 650.626 1459.36V1459.36Z" fill="#F5C845"/>
<path d="M662.498 1496.16L586.227 1520.91L574.392 1484.14C588.075 1485.02 601.8 1483.29 614.839 1479.04C627.911 1474.83 640.059 1468.15 650.631 1459.36L662.498 1496.16ZM740.804 2323.17H922.538V2364.7H740.804V2323.17Z" fill="white"/>
<path d="M964.934 2250.19H698.402V2286.84C698.402 2291.61 699.338 2296.33 701.159 2300.74C702.979 2305.15 705.648 2309.16 709.012 2312.53C712.376 2315.9 716.369 2318.58 720.765 2320.41C725.16 2322.23 729.871 2323.17 734.628 2323.17H928.712C933.469 2323.17 938.18 2322.23 942.576 2320.41C946.971 2318.58 950.965 2315.9 954.329 2312.53C957.693 2309.16 960.361 2305.15 962.182 2300.74C964.002 2296.33 964.939 2291.61 964.938 2286.84V2250.19H964.934Z" fill="#E45E47"/>
<path d="M576.473 1846.2C634.84 1846.2 682.156 1798.74 682.156 1740.2C682.156 1681.65 634.84 1634.19 576.473 1634.19C518.106 1634.19 470.79 1681.65 470.79 1740.2C470.79 1798.74 518.106 1846.2 576.473 1846.2Z" fill="#F5C845"/>
<path d="M576.474 1793.17C605.642 1793.17 629.287 1769.45 629.287 1740.2C629.287 1710.94 605.642 1687.22 576.474 1687.22C547.306 1687.22 523.66 1710.94 523.66 1740.2C523.66 1769.45 547.306 1793.17 576.474 1793.17Z" fill="white"/>
</g>
<g clip-path="url(#clip4_1_253)">
<path d="M2486.11 1840.47C2486.11 1918.63 2449.65 1988.3 2392.83 2033.33H2087.72C2030.9 1988.3 1994.44 1918.63 1994.44 1840.47C1994.44 1835.01 1994.6 1829.6 1994.97 1824.25C2000.54 1738.09 2050.49 1664 2122.24 1624.67C2134.6 1617.89 2142.38 1605.03 2142.38 1590.93V1500.44H2338.17V1590.94C2338.17 1605.03 2345.95 1617.9 2358.3 1624.67C2430.01 1663.99 2479.96 1738.04 2485.58 1824.2C2485.95 1829.61 2486.12 1835.04 2486.11 1840.47V1840.47Z" fill="white"/>
<path d="M2486.11 1840.47C2486.11 1918.63 2449.65 1988.3 2392.83 2033.33H2087.72C2030.9 1988.3 1994.44 1918.63 1994.44 1840.47C1994.44 1835.01 1994.6 1829.6 1994.97 1824.25C1999.64 1826.3 2005.04 1827.56 2011.6 1827.56C2049.68 1827.56 2049.68 1785.25 2087.82 1785.25C2125.91 1785.25 2125.96 1827.56 2164.05 1827.56C2202.13 1827.56 2202.13 1785.25 2240.27 1785.25C2278.36 1785.25 2278.36 1827.56 2316.5 1827.56C2354.59 1827.56 2354.59 1785.25 2392.72 1785.25C2430.76 1785.25 2430.81 1827.56 2468.9 1827.56C2475.46 1827.56 2480.91 1826.3 2485.58 1824.2C2485.95 1829.61 2486.12 1835.04 2486.11 1840.47V1840.47Z" fill="#2724F2"/>
<path d="M2380.33 1466.88C2380.33 1457.99 2376.8 1449.45 2370.51 1443.16C2364.22 1436.87 2355.7 1433.33 2346.8 1433.33H2133.76C2124.86 1433.33 2116.33 1436.87 2110.05 1443.16C2103.76 1449.45 2100.23 1457.99 2100.23 1466.88C2100.23 1475.78 2103.76 1484.32 2110.05 1490.61C2116.33 1496.9 2124.86 1500.44 2133.76 1500.44H2346.8C2355.7 1500.44 2364.22 1496.9 2370.51 1490.61C2376.8 1484.32 2380.33 1475.78 2380.33 1466.88V1466.88Z" fill="#E45E47"/>
</g>
<g clip-path="url(#clip5_1_253)">
<path d="M1402.43 2754.63C1360.69 2754.63 1326.86 2720.79 1326.86 2679.03V2467H1478V2679.03C1478 2720.78 1444.17 2754.63 1402.43 2754.63V2754.63Z" fill="#F5C845"/>
<path d="M1514.71 2433.5C1514.71 2429.1 1513.84 2424.75 1512.16 2420.68C1510.47 2416.62 1508.01 2412.92 1504.9 2409.81C1501.79 2406.7 1498.1 2404.23 1494.03 2402.55C1489.97 2400.87 1485.61 2400 1481.22 2400H1323.64C1314.76 2400 1306.24 2403.53 1299.96 2409.81C1293.68 2416.1 1290.15 2424.62 1290.15 2433.5C1290.15 2442.39 1293.68 2450.91 1299.96 2457.19C1306.24 2463.47 1314.76 2467 1323.64 2467H1481.22C1485.61 2467 1489.97 2466.14 1494.03 2464.45C1498.1 2462.77 1501.79 2460.3 1504.9 2457.19C1508.01 2454.08 1510.47 2450.39 1512.16 2446.32C1513.84 2442.26 1514.71 2437.9 1514.71 2433.5V2433.5Z" fill="#E45E47"/>
<path d="M1676.4 2754.63C1634.66 2754.63 1600.83 2720.79 1600.83 2679.03V2467H1751.97V2679.03C1751.97 2720.78 1718.14 2754.63 1676.4 2754.63V2754.63Z" fill="#F5C845"/>
<path d="M1788.68 2433.5C1788.68 2424.62 1785.15 2416.1 1778.87 2409.81C1772.59 2403.53 1764.07 2400 1755.19 2400H1597.62C1588.73 2400 1580.22 2403.53 1573.94 2409.81C1567.66 2416.1 1564.13 2424.62 1564.13 2433.5C1564.13 2442.39 1567.66 2450.91 1573.94 2457.19C1580.22 2463.47 1588.73 2467 1597.62 2467H1755.19C1764.07 2467 1772.59 2463.47 1778.87 2457.19C1785.15 2450.91 1788.68 2442.39 1788.68 2433.5V2433.5Z" fill="#E45E47"/>
<path d="M1950.37 2754.63C1908.64 2754.63 1874.8 2720.79 1874.8 2679.03V2467H2025.95V2679.03C2025.95 2720.78 1992.11 2754.63 1950.37 2754.63V2754.63Z" fill="#F5C845"/>
<path d="M2062.65 2433.5C2062.65 2424.62 2059.12 2416.1 2052.84 2409.81C2046.56 2403.53 2038.04 2400 2029.16 2400H1871.59C1862.7 2400 1854.18 2403.53 1847.9 2409.81C1841.62 2416.1 1838.1 2424.62 1838.1 2433.5C1838.1 2442.39 1841.62 2450.91 1847.9 2457.19C1854.18 2463.47 1862.7 2467 1871.59 2467H2029.16C2038.04 2467 2046.56 2463.47 2052.84 2457.19C2059.12 2450.91 2062.65 2442.39 2062.65 2433.5V2433.5Z" fill="#E45E47"/>
<path d="M2200 2860.05V2891.67H1152.78V2860.05C1152.78 2841.95 1160.13 2825.55 1171.98 2813.69C1183.83 2801.84 1200.22 2794.49 1218.32 2794.49H2134.5C2170.69 2794.49 2200 2823.85 2200 2860.05V2860.05ZM1218.32 2556.17H2134.49V2588.94H1218.32V2556.17Z" fill="black"/>
<path d="M2134.48 2595.01H1218.32C1216.71 2595.01 1215.17 2594.37 1214.03 2593.24C1212.89 2592.1 1212.25 2590.56 1212.25 2588.95V2556.17C1212.25 2554.56 1212.89 2553.02 1214.03 2551.88C1215.17 2550.74 1216.71 2550.11 1218.32 2550.11H2134.49C2136.1 2550.11 2137.64 2550.74 2138.78 2551.88C2139.91 2553.02 2140.55 2554.56 2140.55 2556.17V2588.95C2140.55 2590.56 2139.91 2592.1 2138.77 2593.24C2137.63 2594.37 2136.09 2595.01 2134.48 2595.01V2595.01ZM1224.38 2582.88H2128.43V2562.24H1224.38V2582.88Z" fill="black"/>
<path d="M2134.48 2800.56C2132.88 2800.56 2131.33 2799.92 2130.2 2798.78C2129.06 2797.64 2128.42 2796.1 2128.42 2794.49V2588.95C2128.42 2587.34 2129.06 2585.8 2130.2 2584.66C2131.33 2583.52 2132.88 2582.88 2134.48 2582.88C2136.09 2582.88 2137.63 2583.52 2138.77 2584.66C2139.91 2585.8 2140.55 2587.34 2140.55 2588.95V2794.49C2140.55 2796.1 2139.91 2797.64 2138.77 2798.78C2137.63 2799.92 2136.09 2800.56 2134.48 2800.56V2800.56ZM1218.32 2800.56C1216.71 2800.56 1215.17 2799.92 1214.03 2798.78C1212.89 2797.64 1212.25 2796.1 1212.25 2794.49V2588.95C1212.25 2587.34 1212.89 2585.8 1214.03 2584.66C1215.17 2583.52 1216.71 2582.88 1218.32 2582.88C1219.93 2582.88 1221.47 2583.52 1222.6 2584.66C1223.74 2585.8 1224.38 2587.34 1224.38 2588.95V2794.49C1224.38 2796.1 1223.74 2797.64 1222.6 2798.78C1221.47 2799.92 1219.93 2800.56 1218.32 2800.56Z" fill="black"/>
</g>
<g clip-path="url(#clip6_1_253)">
<path d="M2580.48 2496.62H2458.41C2456.76 2496.62 2455.17 2495.95 2454.01 2494.76C2452.84 2493.57 2452.18 2491.96 2452.18 2490.28C2452.18 2488.6 2452.84 2486.98 2454.01 2485.79C2455.17 2484.6 2456.76 2483.93 2458.41 2483.93H2580.47C2582.12 2483.93 2583.71 2484.6 2584.88 2485.79C2586.05 2486.98 2586.71 2488.59 2586.71 2490.28C2586.71 2491.96 2586.05 2493.57 2584.88 2494.76C2583.71 2495.95 2582.13 2496.62 2580.48 2496.62V2496.62Z" fill="black"/>
<path d="M2405.62 2583.33H2300.02L2247.22 2490.28L2300.02 2397.22H2405.62L2458.41 2490.28L2405.62 2583.33ZM2738.87 2583.33H2633.27L2580.48 2490.28L2633.27 2397.22H2738.87L2791.67 2490.28L2738.87 2583.33Z" fill="#2724F2"/>
</g>
<g clip-path="url(#clip7_1_253)">
<path d="M540.482 780.295C539.436 780.296 538.409 780.02 537.504 779.495C536.598 778.969 535.847 778.212 535.325 777.301L484.928 689.454C484.532 688.773 484.272 688.019 484.166 687.237C484.06 686.454 484.108 685.658 484.309 684.895C484.51 684.131 484.858 683.415 485.335 682.788C485.812 682.16 486.407 681.634 487.086 681.239C487.766 680.844 488.517 680.589 489.295 680.487C490.073 680.385 490.864 680.439 491.621 680.646C492.378 680.853 493.087 681.209 493.708 681.693C494.328 682.176 494.847 682.779 495.235 683.466L545.631 771.312C546.153 772.222 546.428 773.255 546.428 774.305C546.428 775.356 546.154 776.389 545.632 777.299C545.11 778.209 544.36 778.965 543.455 779.491C542.551 780.017 541.526 780.294 540.482 780.295V780.295Z" fill="black"/>
<path d="M540.473 774.306H641.27L691.666 862.153L641.27 950H540.473L490.077 862.153L540.473 774.306Z" fill="#E45E47"/>
<path d="M490.073 516.755C489.03 516.752 488.006 516.473 487.103 515.946C486.201 515.42 485.451 514.664 484.93 513.755C484.409 512.845 484.134 511.814 484.133 510.764C484.132 509.714 484.405 508.683 484.924 507.772L535.32 419.925C535.708 419.239 536.227 418.636 536.848 418.152C537.468 417.668 538.177 417.313 538.934 417.106C539.692 416.899 540.482 416.845 541.26 416.947C542.038 417.048 542.789 417.304 543.469 417.699C544.148 418.094 544.743 418.62 545.22 419.248C545.697 419.875 546.046 420.591 546.246 421.355C546.447 422.118 546.495 422.914 546.389 423.696C546.283 424.479 546.024 425.233 545.627 425.914L495.23 513.757C494.709 514.669 493.958 515.426 493.052 515.953C492.147 516.479 491.119 516.756 490.073 516.755V516.755Z" fill="black"/>
<path d="M641.27 247.222H540.474L490.077 335.069L540.474 422.916H641.27L691.666 335.069L641.27 247.222ZM389.285 510.762H490.077L540.474 598.613L490.077 686.46H389.285L338.889 598.613L389.285 510.762Z" fill="#E45E47"/>
</g>
<g clip-path="url(#clip8_1_253)">
<path d="M1394.93 2400C1393.32 2400 1391.79 2399.36 1390.66 2398.23C1389.52 2397.09 1388.89 2395.56 1388.89 2393.95C1388.89 2338.89 1433.6 2294.1 1488.56 2294.1H2736.31C2804.59 2294.1 2860.15 2238.44 2860.15 2170.03V1369.6C2860.15 1337.89 2834.4 1312.09 2802.75 1312.09H2298.08C2266.43 1312.09 2240.68 1337.89 2240.68 1369.6V1425.34C2240.68 1426.94 2240.05 1428.48 2238.91 1429.62C2237.78 1430.75 2236.25 1431.39 2234.65 1431.39C2233.05 1431.39 2231.51 1430.75 2230.38 1429.62C2229.25 1428.48 2228.61 1426.94 2228.61 1425.34V1369.6C2228.61 1331.22 2259.77 1300 2298.08 1300H2802.75C2841.06 1300 2872.22 1331.22 2872.22 1369.6V2170.03C2872.22 2245.12 2811.25 2306.2 2736.3 2306.2H1488.56C1440.26 2306.2 1400.96 2345.56 1400.96 2393.95C1400.96 2395.56 1400.33 2397.09 1399.19 2398.23C1398.06 2399.36 1396.53 2400 1394.93 2400V2400Z" fill="black"/>
<path d="M1667.72 2399.99C1666.12 2399.99 1664.58 2399.35 1663.45 2398.22C1662.32 2397.09 1661.68 2395.55 1661.68 2393.94V2300.15C1661.68 2298.54 1662.32 2297 1663.45 2295.87C1664.58 2294.74 1666.12 2294.1 1667.72 2294.1C1669.32 2294.1 1670.85 2294.74 1671.98 2295.87C1673.12 2297 1673.75 2298.54 1673.75 2300.15V2393.94C1673.75 2395.55 1673.12 2397.09 1671.98 2398.22C1670.85 2399.35 1669.32 2399.99 1667.72 2399.99ZM1940.51 2399.99C1938.91 2399.99 1937.37 2399.35 1936.24 2398.22C1935.11 2397.09 1934.47 2395.55 1934.47 2393.94V2300.15C1934.47 2298.54 1935.11 2297 1936.24 2295.87C1937.37 2294.74 1938.91 2294.1 1940.51 2294.1C1942.11 2294.1 1943.64 2294.74 1944.78 2295.87C1945.91 2297 1946.54 2298.54 1946.54 2300.15V2393.94C1946.54 2395.55 1945.91 2397.09 1944.78 2398.22C1943.64 2399.35 1942.11 2399.99 1940.51 2399.99Z" fill="black"/>
</g>
<defs>
<clipPath id="clip0_1_253">
<rect width="1594.44" height="1188.89" fill="white" transform="translate(1191.67 1025)"/>
</clipPath>
<clipPath id="clip1_1_253">
<rect width="1761.11" height="1616.67" fill="white" transform="translate(797.223 416.667)"/>
</clipPath>
<clipPath id="clip2_1_253">
<rect width="902.778" height="1397.22" fill="white" transform="translate(211.111 1083.33)"/>
</clipPath>
<clipPath id="clip3_1_253">
<rect width="722.222" height="1136.11" fill="white" transform="translate(300 1341.67)"/>
</clipPath>
<clipPath id="clip4_1_253">
<rect width="491.667" height="600" fill="white" transform="translate(1994.44 1433.33)"/>
</clipPath>
<clipPath id="clip5_1_253">
<rect width="1047.22" height="491.667" fill="white" transform="translate(1152.78 2400)"/>
</clipPath>
<clipPath id="clip6_1_253">
<rect width="544.444" height="186.111" fill="white" transform="translate(2247.22 2397.22)"/>
</clipPath>
<clipPath id="clip7_1_253">
<rect width="352.778" height="702.778" fill="white" transform="translate(338.889 247.222)"/>
</clipPath>
<clipPath id="clip8_1_253">
<rect width="1483.33" height="1100" fill="white" transform="translate(1388.89 1300)"/>
</clipPath>
</defs>
</svg>
