<svg width="454" height="347" viewBox="0 0 454 347" fill="none" xmlns="http://www.w3.org/2000/svg">
<g clip-path="url(#clip0_1_1788)">
<path d="M453.997 22.5331V48.0598H0V22.5331C0 10.2 9.99816 0.200836 22.3313 0.200836H431.665C443.998 0.200836 453.997 10.2 453.997 22.5331Z" fill="black"/>
<path d="M454 48.0598V324.467C454 336.8 444.002 346.799 431.668 346.799H22.3323C9.99816 346.799 0 336.801 0 324.467V48.0598H454Z" fill="#F5C845"/>
<path d="M44.2422 30.3964C47.7026 30.3964 50.5078 27.5912 50.5078 24.1308C50.5078 20.6704 47.7026 17.8652 44.2422 17.8652C40.7818 17.8652 37.9766 20.6704 37.9766 24.1308C37.9766 27.5912 40.7818 30.3964 44.2422 30.3964Z" fill="white"/>
<path d="M75.5469 30.3964C79.0073 30.3964 81.8125 27.5912 81.8125 24.1308C81.8125 20.6704 79.0073 17.8652 75.5469 17.8652C72.0865 17.8652 69.2812 20.6704 69.2812 24.1308C69.2812 27.5912 72.0865 30.3964 75.5469 30.3964Z" fill="white"/>
<path d="M106.859 30.3964C110.32 30.3964 113.125 27.5912 113.125 24.1308C113.125 20.6704 110.32 17.8652 106.859 17.8652C103.399 17.8652 100.594 20.6704 100.594 24.1308C100.594 27.5912 103.399 30.3964 106.859 30.3964Z" fill="white"/>
<path d="M164.961 0.200836H168.219V48.0608H164.961V0.200836Z" fill="white"/>
<path d="M234.32 0.200836H237.579V48.0608H234.32V0.200836Z" fill="white"/>
<path d="M303.68 0.200836H306.938V48.0608H303.68V0.200836Z" fill="white"/>
<path d="M373.047 0.200836H376.305V48.0608H373.047V0.200836Z" fill="white"/>
</g>
<defs>
<clipPath id="clip0_1_1788">
<rect width="454" height="347" fill="white"/>
</clipPath>
</defs>
</svg>
