<svg width="328" height="287" viewBox="0 0 328 287" fill="none" xmlns="http://www.w3.org/2000/svg">
<g clip-path="url(#clip0_1_1405)">
<path d="M29.5973 117.856C27.7656 125.845 26.8002 134.103 26.8002 142.566C26.8002 147.678 27.1484 152.709 27.8366 157.66C11.4195 149.206 0.195312 132.101 0.195312 112.369H31.0088C30.4906 114.184 30.0254 116.015 29.5973 117.856Z" fill="#E45E47"/>
<path d="M327.811 123.799V161.324C327.811 167.634 322.699 172.754 316.381 172.754H307.472V172.763C299.115 202.12 278.83 227.366 251.368 244.319C248.382 246.169 246.542 249.395 246.542 252.907V275.58C246.542 281.889 241.43 287.001 235.112 287.001H214.03C207.72 287.001 202.608 281.889 202.608 275.58C202.608 269.95 198.024 265.526 192.564 265.526C192.117 265.526 191.652 265.553 191.196 265.615C184.038 266.589 176.701 267.09 169.239 267.09C161.768 267.09 154.439 266.589 147.282 265.615C141.241 264.802 135.87 269.484 135.87 275.58C135.87 278.734 134.592 281.585 132.527 283.659C130.454 285.723 127.594 287.001 124.439 287.001H103.366C97.0571 287.001 91.9362 281.889 91.9362 275.58V252.907C91.9362 249.395 90.0865 246.16 87.0924 244.31C55.0454 224.498 32.7661 193.407 27.8333 157.661C27.145 152.71 26.7969 147.679 26.7969 142.567C26.7969 134.104 27.7622 125.847 29.5939 117.857C30.0231 116.016 30.4963 114.184 31.0144 112.37C46.4482 58.1957 102.472 18.0347 169.237 18.0347C183.5 18.0347 197.28 19.8754 210.283 23.2987C211.374 23.5848 212.464 23.8799 213.546 24.183C215.708 24.7992 217.853 25.4605 219.971 26.1668C225.262 27.9274 230.4 29.9652 235.369 32.253C240.033 26.0147 246.084 20.8858 253.054 17.3015C260.007 13.7451 267.88 11.7344 276.227 11.7344V60.3405H276.218C291.008 75.023 301.892 92.7806 307.47 112.37H316.379C322.699 112.369 327.811 117.49 327.811 123.799V123.799Z" fill="#F5C845"/>
<path d="M195.982 64.505C195.982 70.7234 190.942 75.7652 184.722 75.7652H119.315C113.097 75.7652 108.055 70.7244 108.055 64.505C108.055 58.2867 113.096 53.2448 119.315 53.2448H184.722C190.941 53.2448 195.982 58.2857 195.982 64.505Z" fill="black"/>
<path d="M267.015 113.513C259.642 113.513 253.664 107.535 253.664 100.162C253.664 92.7806 259.642 86.8024 267.015 86.8024C274.388 86.8024 280.366 92.7806 280.366 100.162C280.366 107.535 274.388 113.513 267.015 113.513Z" fill="black"/>
<path d="M253.052 0V17.3015C246.082 20.8848 240.031 26.0147 235.367 32.253C230.398 29.9652 225.259 27.9274 219.969 26.1668C217.851 25.4605 215.706 24.7992 213.543 24.183C212.462 23.8699 211.372 23.5748 210.281 23.2897C219.343 9.27646 235.117 0 253.052 0Z" fill="#E45E47"/>
</g>
<defs>
<clipPath id="clip0_1_1405">
<rect width="328" height="287" fill="white"/>
</clipPath>
</defs>
</svg>
