<svg width="101" height="119" viewBox="0 0 101 119" fill="none" xmlns="http://www.w3.org/2000/svg">
<g clip-path="url(#clip0_1_2176)">
<path d="M100.994 91.1632V91.2891C100.994 98.1017 95.4589 103.629 88.6321 103.629H12.3553C5.52748 103.629 0 98.1007 0 91.2891C0 87.5181 1.70518 83.9456 4.64921 81.5767L7.09971 79.6066C12.7682 75.038 16.0597 68.1599 16.0597 60.8899V47.9213C16.0597 31.6178 27.3443 17.9492 42.5338 14.2659C45.1686 13.6233 47.9213 13.2839 50.7555 13.2839C53.3974 13.2839 55.9738 13.579 58.4535 14.14C73.916 17.6309 85.4514 31.4325 85.4514 47.9203V61.1317C85.4514 68.2616 88.625 75.0289 94.1163 79.5976L96.5003 81.5827C99.3486 83.9527 100.994 87.4658 100.994 91.1632V91.1632Z" fill="#F5C845"/>
<path d="M58.4588 7.94878V14.141C55.9791 13.58 53.4037 13.2849 50.7608 13.2849C47.9265 13.2849 45.1739 13.6243 42.5391 14.2669V7.94878C42.5391 3.55741 46.1035 0 50.5019 0C54.9014 0 58.4588 3.55741 58.4588 7.94878V7.94878Z" fill="black"/>
<path d="M35.1016 103.626C35.1016 112.117 41.9958 119 50.5006 119C59.0053 119 65.8996 112.117 65.8996 103.626H35.1016Z" fill="black"/>
</g>
<defs>
<clipPath id="clip0_1_2176">
<rect width="101" height="119" fill="white"/>
</clipPath>
</defs>
</svg>
